<?xml version="1.0" encoding="utf-8"?>
<!-- Generator: Adobe Illustrator 27.5.0, SVG Export Plug-In . SVG Version: 6.00 Build 0)  -->
<svg version="1.1" id="Layer_1" xmlns="http://www.w3.org/2000/svg" xmlns:xlink="http://www.w3.org/1999/xlink" x="0px" y="0px"
	 viewBox="0 0 460.8 345.6" style="enable-background:new 0 0 460.8 345.6;" xml:space="preserve">
<style type="text/css">
	.st0{stroke:#000000;stroke-width:0.8;stroke-linejoin:round;}
	.st1{font-family:'LucidaBright';}
	.st2{font-size:9px;}
	
		.st3{clip-path:url(#SVGID_00000043453341745651668440000010428742061176587146_);fill:none;stroke:#0037FD;stroke-width:0.75;stroke-linecap:square;stroke-linejoin:round;}
	
		.st4{clip-path:url(#SVGID_00000084508711060579684590000006238848981309801123_);fill:none;stroke:#FD0000;stroke-width:0.75;stroke-linecap:square;stroke-linejoin:round;}
	.st5{fill:none;stroke:#000000;stroke-width:0.8;stroke-linecap:square;}
</style>
<g id="matplotlib.axis_1">
	<g id="xtick_1">
		<g id="line2d_1">
			<g>
				<g>
					<path id="m0fc9f3dc81" class="st0" d="M73.8,307.6v3.5"/>
				</g>
			</g>
		</g>
		<g id="text_1">
			<text transform="matrix(1 0 0 1 71.095 321.4226)" class="st1 st2">0</text>
		</g>
	</g>
	<g id="xtick_2">
		<g id="line2d_2">
			<g>
				<g>
					<path id="m0fc9f3dc81_00000130628231805756811660000008023711132110886294_" class="st0" d="M138.8,307.6v3.5"/>
				</g>
			</g>
		</g>
		<g id="text_2">
			<text transform="matrix(1 0 0 1 130.6152 321.4226)" class="st1 st2">200</text>
		</g>
	</g>
	<g id="xtick_3">
		<g id="line2d_3">
			<g>
				<g>
					<path id="m0fc9f3dc81_00000155128301470227305080000014210780006132590758_" class="st0" d="M203.8,307.6v3.5"/>
				</g>
			</g>
		</g>
		<g id="text_3">
			<text transform="matrix(1 0 0 1 195.6112 321.4226)" class="st1 st2">400</text>
		</g>
	</g>
	<g id="xtick_4">
		<g id="line2d_4">
			<g>
				<g>
					<path id="m0fc9f3dc81_00000033352186817920415980000005045333295205845934_" class="st0" d="M268.8,307.6v3.5"/>
				</g>
			</g>
		</g>
		<g id="text_4">
			<text transform="matrix(1 0 0 1 260.6071 321.4226)" class="st1 st2">600</text>
		</g>
	</g>
	<g id="xtick_5">
		<g id="line2d_5">
			<g>
				<g>
					<path id="m0fc9f3dc81_00000011753737511351283580000008962047662581744039_" class="st0" d="M333.8,307.6v3.5"/>
				</g>
			</g>
		</g>
		<g id="text_5">
			<text transform="matrix(1 0 0 1 325.603 321.4226)" class="st1 st2">800</text>
		</g>
	</g>
	<g id="xtick_6">
		<g id="line2d_6">
			<g>
				<g>
					<path id="m0fc9f3dc81_00000104696462703269916430000010014052440915586460_" class="st0" d="M398.8,307.6v3.5"/>
				</g>
			</g>
		</g>
		<g id="text_6">
			<text transform="matrix(1 0 0 1 387.8611 321.4226)" class="st1 st2">1000</text>
		</g>
	</g>
</g>
<g id="matplotlib.axis_2">
	<g id="ytick_1">
		<g id="line2d_7">
			<g>
				<g>
					<path id="me6a001e41d" class="st0" d="M57.6,294.3h-3.5"/>
				</g>
			</g>
		</g>
		<g id="text_7">
			<text transform="matrix(1 0 0 1 45.1244 297.6978)" class="st1 st2">0</text>
		</g>
	</g>
	<g id="ytick_2">
		<g id="line2d_8">
			<g>
				<g>
					<path id="me6a001e41d_00000175309564599416737370000015488462062649692579_" class="st0" d="M57.6,241.1h-3.5"/>
				</g>
			</g>
		</g>
		<g id="text_8">
			<text transform="matrix(1 0 0 1 45.1244 244.4753)" class="st1 st2">2</text>
		</g>
	</g>
	<g id="ytick_3">
		<g id="line2d_9">
			<g>
				<g>
					<path id="me6a001e41d_00000166650113166558759210000013714348430347361438_" class="st0" d="M57.6,187.8h-3.5"/>
				</g>
			</g>
		</g>
		<g id="text_9">
			<text transform="matrix(1 0 0 1 45.1244 191.2529)" class="st1 st2">4</text>
		</g>
	</g>
	<g id="ytick_4">
		<g id="line2d_10">
			<g>
				<g>
					<path id="me6a001e41d_00000170967581595025748410000005313780104962093215_" class="st0" d="M57.6,134.6h-3.5"/>
				</g>
			</g>
		</g>
		<g id="text_10">
			<text transform="matrix(1 0 0 1 45.1244 138.0305)" class="st1 st2">6</text>
		</g>
	</g>
	<g id="ytick_5">
		<g id="line2d_11">
			<g>
				<g>
					<path id="me6a001e41d_00000021092626770139301240000006552024630319150470_" class="st0" d="M57.6,81.4h-3.5"/>
				</g>
			</g>
		</g>
		<g id="text_11">
			<text transform="matrix(1 0 0 1 45.1244 84.8081)" class="st1 st2">8</text>
		</g>
	</g>
</g>
<g>
	<defs>
		<rect id="SVGID_1_" x="110.6" y="-306.4" width="357.1" height="266.1"/>
	</defs>
	<clipPath id="SVGID_00000038379744925801994470000001092359489237637511_">
		<use xlink:href="#SVGID_1_"  style="overflow:visible;"/>
	</clipPath>
	
		<path style="clip-path:url(#SVGID_00000038379744925801994470000001092359489237637511_);fill:none;stroke:#0037FD;stroke-width:0.75;stroke-linecap:square;stroke-linejoin:round;" d="
		M126.8-65.4l8.1-0.1l8.8-0.4l11.7-0.5l5.8,0l6.2,0.2l7.5,0.5L185-65l24,2.2l11.7,0.7l7.8,0.3l5.5,0L239-62l4.9-0.5l5.5-0.8
		l24.4-3.9l4.9-1l3.9-1l3.9-1.2l3.9-1.5l4.5-2l6.5-3.1l9.1-4.3l4.9-2.1l4.9-1.8l12.7-4.5l2.3-1.2l1.9-1.2l1.6-1.3l1.6-1.5l1.6-1.9
		l1.6-2.3l1.3-2.2l1.3-2.5l1.3-2.9l1.3-3.4l1.6-4.9l1.6-5.8l1.6-6.7l1.6-7.6l1.6-8.6l1.9-11.6l2.3-15.2l2.6-19l9.1-68.6l1.6-10
		l1.6-8.7l1.3-5.8l1.3-4.6l1-2.7l1-2l0.6-0.9l0.6-0.6l0.6-0.3l0.6,0.1l0.6,0.4l0.6,0.7l0.6,1l1,2.1l1,2.7l1,3.4l1.3,5.4l1.3,6.3
		l1.6,9l1.9,12.2l2.6,17.8l8.8,61.4l2.6,16l2.3,12.7l2.3,11.3l1.9,8.6l1.9,7.7l1.9,6.8l1.9,5.9l1.9,5.2l1.9,4.5l1.9,3.9l1.9,3.4
		l1.9,2.9l1.9,2.5l1.9,2.2l1.9,1.9l1.9,1.6l2.3,1.6l2.3,1.3l2.3,1l2.3,0.7l2.3,0.5l1.9,0.2l0,0"/>
</g>
<g>
	<defs>
		<rect id="SVGID_00000142879344666596014600000007466976291763441598_" x="110.6" y="-306.4" width="357.1" height="266.1"/>
	</defs>
	<clipPath id="SVGID_00000057110386481009971000000017136599232352720539_">
		<use xlink:href="#SVGID_00000142879344666596014600000007466976291763441598_"  style="overflow:visible;"/>
	</clipPath>
	
		<path style="clip-path:url(#SVGID_00000057110386481009971000000017136599232352720539_);fill:none;stroke:#FD0000;stroke-width:0.75;stroke-linecap:square;stroke-linejoin:round;" d="
		M126.8-55.8l8.8,0.1l17.2,0.3l8.4-0.1l27-0.6l10.4-0.1l6.5-0.3l16.2-0.9l4.9,0.1l5.2,0.3L239-56l11,1.1l7.5,0.5l7.8,0.3l7.8,0.1
		l7.1-0.2l6.5-0.4l7.1-0.6l10.1-1.2l11.7-1.3l7.1-0.6l9.1-0.5l5.8-0.4l3.6-0.4l2.9-0.6l2.6-0.8l2.3-0.9l2.3-1.2l2.3-1.4l2.3-1.7
		l2.3-2l2.6-2.6l3.2-3.6l7.1-8.2l2.3-2.2l1.9-1.6l1.6-1.1l1.6-0.8l1.6-0.5l1.3-0.2l1.3,0l1.3,0.2l1.3,0.4l1.6,0.7l1.6,1l1.9,1.5
		l2.3,2.1l2.9,3l10.4,11.2l2.9,2.6l2.6,2.1l2.6,1.8l2.6,1.5l2.6,1.2l2.6,1l2.9,0.9l2.9,0.6l3.2,0.5l3.9,0.4l4.9,0.2l7.8,0.1l3.6,0
		l0,0"/>
</g>
<g id="patch_3">
	<path class="st5" d="M57.6,307.6V41.5"/>
</g>
<g id="patch_4">
	<path class="st5" d="M414.7,307.6V41.5"/>
</g>
<g id="patch_5">
	<path class="st5" d="M57.6,307.6h357.1"/>
</g>
<g id="patch_6">
	<path class="st5" d="M57.6,41.5h357.1"/>
</g>
</svg>
