<?xml version="1.0" encoding="utf-8"?>
<!-- Generator: Adobe Illustrator 27.5.0, SVG Export Plug-In . SVG Version: 6.00 Build 0)  -->
<svg version="1.1" id="Layer_1" xmlns="http://www.w3.org/2000/svg" xmlns:xlink="http://www.w3.org/1999/xlink" x="0px" y="0px"
	 viewBox="0 0 460.8 345.6" style="enable-background:new 0 0 460.8 345.6;" xml:space="preserve">
<style type="text/css">
	.st0{fill:#FFFFFF;}
	
		.st1{clip-path:url(#SVGID_00000016052354999342976290000002840408572652154273_);fill:none;stroke:#0000FF;stroke-linecap:square;stroke-linejoin:round;}
	
		.st2{clip-path:url(#SVGID_00000116198365965346138240000016605118551550285732_);fill:none;stroke:#FF0000;stroke-linecap:square;stroke-linejoin:round;}
	.st3{fill:#FFFFFF;stroke:#000000;stroke-miterlimit:10;}
	.st4{stroke:#000000;stroke-width:0.8;stroke-linejoin:round;}
</style>
<g id="patch_2">
	<path class="st0" d="M57.6,306h59.1v-44H57.6V306z"/>
</g>
<g id="line2d_12">
	<g>
		<defs>
			<rect id="SVGID_1_" x="57.6" y="262" width="59.1" height="44"/>
		</defs>
		<clipPath id="SVGID_00000015337909214754811550000013844192412366299546_">
			<use xlink:href="#SVGID_1_"  style="overflow:visible;"/>
		</clipPath>
		
			<path style="clip-path:url(#SVGID_00000015337909214754811550000013844192412366299546_);fill:none;stroke:#0000FF;stroke-linecap:square;stroke-linejoin:round;" d="
			M60.3,302.1l1.3,0l1.4-0.1l2-0.1l1,0l1,0l1.2,0.1l1.6,0.1l4.1,0.4l1.9,0.1l1.2,0l0.9,0l0.8,0l0.8-0.1l0.9-0.1l3.9-0.6l0.9-0.2
			l0.7-0.2l0.6-0.2l0.6-0.2l0.8-0.3l1-0.5l1.8-0.8l0.8-0.3l0.8-0.3l2-0.7l0.4-0.2l0.3-0.2l0.3-0.2l0.3-0.2l0.3-0.3l0.3-0.4l0.2-0.3
			l0.2-0.4l0.2-0.5l0.2-0.5l0.3-0.8l0.3-0.9l0.3-1.1l0.3-1.2l0.3-1.4l0.3-1.9l0.3-2.1l0.4-2.7l0.5-4.2l0.8-6.3l0.4-2.6l0.3-1.6
			l0.3-1.4l0.2-0.9l0.2-0.6l0.2-0.4l0.2-0.3l0.1-0.2l0.1-0.1l0.1,0l0.1,0l0.1,0.1l0.1,0.1l0.1,0.2l0.2,0.3l0.2,0.5l0.2,0.6l0.2,0.9
			l0.2,1.1l0.3,1.5l0.3,2l0.4,3l1.5,10.3l0.4,2.7l0.4,2.1l0.4,1.9l0.3,1.4l0.3,1.3l0.3,1.1l0.3,1l0.3,0.9l0.3,0.7l0.3,0.6l0.3,0.6
			l0.3,0.5l0.3,0.4l0.3,0.4l0.3,0.3l0.3,0.3l0.4,0.3l0.4,0.2l0.4,0.2l0.4,0.1l0.4,0.1l0.3,0l0,0"/>
	</g>
</g>
<g id="line2d_13">
	<g>
		<defs>
			<rect id="SVGID_00000019651120892403749050000001178155615589170355_" x="57.6" y="262" width="59.1" height="44"/>
		</defs>
		<clipPath id="SVGID_00000172416235462069594290000015291489550849978291_">
			<use xlink:href="#SVGID_00000019651120892403749050000001178155615589170355_"  style="overflow:visible;"/>
		</clipPath>
		
			<path style="clip-path:url(#SVGID_00000172416235462069594290000015291489550849978291_);fill:none;stroke:#FF0000;stroke-linecap:square;stroke-linejoin:round;" d="
			M60.3,304l0.4,0l0.4-0.1l0.5-0.1l0.7-0.2l1.2-0.4l0.7-0.2l0.9-0.2l1.7-0.4l1.5-0.4l0.8-0.2l0.6-0.1l0.6-0.1l0.5,0l0.5,0l0.6,0.1
			l0.6,0.1l0.6,0.1l0.7,0.2l0.9,0.3l1.7,0.6l0.7,0.2l0.6,0.1l0.6,0.1l0.6,0l0.6,0l0.7,0l0.9-0.1l1.2-0.1l1.7-0.2l0.9-0.2l0.7-0.2
			l0.6-0.2l0.6-0.2l0.7-0.3l1.1-0.5L90,301l0.9-0.3l1-0.3l1.4-0.4l1-0.3l0.5-0.2l0.4-0.2l0.3-0.2l0.3-0.2l0.3-0.2l0.3-0.3l0.3-0.4
			l0.3-0.4l0.3-0.5l0.3-0.6l0.3-0.7l0.3-0.8l0.3-1l0.3-1.3l0.3-1.5l0.4-1.9l0.5-2.7l1.1-6.4l0.3-1.6l0.3-1.2l0.2-0.8l0.2-0.7
			l0.2-0.4l0.2-0.3l0.2-0.2l0.1-0.1l0.1-0.1l0.1,0l0.1,0l0.1,0.1l0.1,0.1l0.1,0.1l0.2,0.3l0.2,0.3l0.2,0.6l0.2,0.7l0.3,1l0.3,1.4
			l0.4,1.8l0.8,3.9l0.6,3l0.4,2l0.4,1.6l0.4,1.4l0.3,1.1l0.3,1l0.3,0.9l0.3,0.8l0.3,0.7l0.3,0.6l0.3,0.5l0.3,0.5l0.3,0.4l0.3,0.4
			l0.3,0.3l0.3,0.3l0.3,0.2l0.3,0.2l0.3,0.1l0.4,0.1l0.4,0.1l0.4,0.1l0.5,0l0.2,0l0,0"/>
	</g>
</g>
<line class="st3" x1="106" y1="305.2" x2="114.9" y2="305.2"/>
<line class="st4" x1="57.6" y1="295.8" x2="57.6" y2="304.8"/>
</svg>
