<?xml version="1.0" encoding="utf-8"?>
<!-- Generator: Adobe Illustrator 27.5.0, SVG Export Plug-In . SVG Version: 6.00 Build 0)  -->
<svg version="1.1" id="Layer_1" xmlns="http://www.w3.org/2000/svg" xmlns:xlink="http://www.w3.org/1999/xlink" x="0px" y="0px"
	 viewBox="0 0 460.8 345.6" style="enable-background:new 0 0 460.8 345.6;" xml:space="preserve">
<style type="text/css">
	.st0{stroke:#000000;stroke-width:0.8;stroke-linejoin:round;}
	.st1{fill:none;stroke:#0000FF;stroke-width:1.5;stroke-linecap:square;stroke-linejoin:round;}
	.st2{fill:none;stroke:#FF0000;stroke-width:1.5;stroke-linecap:square;stroke-linejoin:round;}
	.st3{fill:none;stroke:#000000;stroke-width:0.8;stroke-linecap:square;}
</style>
<g id="axes_1">
	<g id="matplotlib.axis_2">
		<g id="ytick_1">
			<g id="line2d_7">
				<g>
					<g>
						<path id="m929e80b7e4_00000161606576918359681240000002466978239172753807_" class="st0" d="M54.1,295.7"/>
					</g>
				</g>
			</g>
		</g>
	</g>
	<g id="line2d_12">
		<g>
			<path class="st1" d="M73.8,283.7l8.1-0.2l8.4-0.4l12-0.6l5.8,0l6.2,0.2l7.5,0.5l9.7,0.9l24.7,2.3l11.7,0.7l7.5,0.3l5.5,0l4.9-0.2
				l4.9-0.5l5.5-0.8l24.4-4l4.9-1l3.9-1l3.9-1.3l3.9-1.5l4.5-2l6.5-3.1l9.1-4.3l4.9-2.1l4.9-1.8l12.7-4.6l2.3-1.2l1.9-1.2l1.6-1.3
				l1.6-1.5l1.6-1.9l1.6-2.3l1.3-2.2l1.3-2.5l1.3-2.9l1.3-3.4l1.6-5l1.6-5.8l1.6-6.7l1.6-7.7l1.6-8.7l1.9-11.7l2.3-15.3l2.6-19.2
				l9.1-69.2l1.6-10.1l1.6-8.7l1.3-5.8l1.3-4.7l1-2.7l1-2l0.6-0.9l0.6-0.6l0.6-0.3l0.6,0.1l0.6,0.4l0.6,0.7l0.6,1l1,2.1l1,2.8l1,3.4
				l1.3,5.4l1.3,6.4l1.6,9.1l1.9,12.3l2.6,17.9l8.8,62l2.6,16.2l2.3,12.8l2.3,11.4l1.9,8.7l1.9,7.7l1.9,6.8l1.9,6l1.9,5.2l1.9,4.5
				l1.9,3.9l1.9,3.4l1.9,2.9l1.9,2.5l1.9,2.2l1.9,1.9l1.9,1.6l2.3,1.6l2.3,1.3l2.3,1l2.3,0.7l2.3,0.5l1.9,0.2l0,0"/>
		</g>
	</g>
	<g id="line2d_13">
		<g>
			<path class="st2" d="M73.8,291.8l6.2,0.2l4.9,0.3l4.5,0.5l5.8,0.9l7.8,1.2l3.9,0.4l3.6,0.1l3.6-0.1l3.9-0.3l5.5-0.7l7.5-0.9
				l4.9-0.4l5.8-0.2l8.4-0.3l5.2-0.4l7.1-0.8l6.8-0.7l4.5-0.3l4.2,0l4.5,0.2l15.6,1l3.9-0.1l3.9-0.4l4.2-0.6l6.2-1.2l9.1-1.7
				l13.3-2.4l2.9-0.8l2.6-1l2.3-1.1l1.9-1.2l1.9-1.4l1.9-1.7l1.9-2l1.9-2.4l1.9-2.7l2.3-3.6l2.6-4.7l3.2-6.3l5.2-10.2l2.3-4l1.9-2.9
				l1.6-2l1.3-1.3l1.3-1l1.3-0.6l1-0.3l1-0.1l1,0.1l1,0.3l1.3,0.7l1.3,1l1.3,1.3l1.6,2l1.6,2.3l1.9,3.1l2.6,4.6l9.1,16.5l2.6,4.1
				l2.3,3.2l2.3,2.8l2.3,2.5l2.3,2.1l2.3,1.8l2.3,1.6l2.6,1.5l2.6,1.2l2.9,1.1l3.2,1l3.9,1l4.9,1l7.5,1.2l7.5,1l5.5,0.5l5.2,0.3
				l6.2,0.1l23.4,0.1l0.6,0l0,0"/>
		</g>
	</g>
	<g id="patch_3">
		<path class="st3" d="M57.6,41.5"/>
		<path class="st3" d="M57.6,307.6"/>
	</g>
	<g id="patch_5">
		<path class="st3" d="M414.7,307.6"/>
		<path class="st3" d="M57.6,307.6"/>
	</g>
</g>
</svg>
