<?xml version="1.0" encoding="utf-8"?>
<!-- Generator: Adobe Illustrator 27.5.0, SVG Export Plug-In . SVG Version: 6.00 Build 0)  -->
<svg version="1.1" id="Layer_1" xmlns="http://www.w3.org/2000/svg" xmlns:xlink="http://www.w3.org/1999/xlink" x="0px" y="0px"
	 viewBox="0 0 460.8 345.6" style="enable-background:new 0 0 460.8 345.6;" xml:space="preserve">
<style type="text/css">
	.st0{stroke:#000000;stroke-width:0.8;stroke-linejoin:round;}
	.st1{font-family:'LucidaBright';}
	.st2{font-size:9px;}
	
		.st3{clip-path:url(#SVGID_00000119102497093163343120000010719425423006311311_);fill:none;stroke:#0037FD;stroke-width:0.75;stroke-linecap:square;stroke-linejoin:round;}
	
		.st4{clip-path:url(#SVGID_00000180348176644807948230000010209432371434823347_);fill:none;stroke:#FD0000;stroke-width:0.75;stroke-linecap:square;stroke-linejoin:round;}
	.st5{fill:none;stroke:#000000;stroke-width:0.8;stroke-linecap:square;}
</style>
<g id="matplotlib.axis_1">
	<g id="xtick_1">
		<g id="line2d_1">
			<g>
				<g>
					<path id="maba4438b11" class="st0" d="M74.3,293.7v3.5"/>
				</g>
			</g>
		</g>
		<g id="text_1">
			<text transform="matrix(1 0 0 1 71.5728 307.5837)" class="st1 st2">0</text>
		</g>
	</g>
	<g id="xtick_2">
		<g id="line2d_2">
			<g>
				<g>
					<path id="maba4438b11_00000090997979768915570410000016427680814342073754_" class="st0" d="M139.3,293.7v3.5"/>
				</g>
			</g>
		</g>
		<g id="text_2">
			<text transform="matrix(1 0 0 1 131.093 307.5837)" class="st1 st2">200</text>
		</g>
	</g>
	<g id="xtick_3">
		<g id="line2d_3">
			<g>
				<g>
					<path id="maba4438b11_00000029008955942309193260000003071910781036441788_" class="st0" d="M204.3,293.7v3.5"/>
				</g>
			</g>
		</g>
		<g id="text_3">
			<text transform="matrix(1 0 0 1 196.0889 307.5837)" class="st1 st2">400</text>
		</g>
	</g>
	<g id="xtick_4">
		<g id="line2d_4">
			<g>
				<g>
					<path id="maba4438b11_00000029744555201213338720000005192987591173386133_" class="st0" d="M269.3,293.7v3.5"/>
				</g>
			</g>
		</g>
		<g id="text_4">
			<text transform="matrix(1 0 0 1 261.0847 307.5837)" class="st1 st2">600</text>
		</g>
	</g>
	<g id="xtick_5">
		<g id="line2d_5">
			<g>
				<g>
					<path id="maba4438b11_00000053505761521695771810000011417895781344523450_" class="st0" d="M334.3,293.7v3.5"/>
				</g>
			</g>
		</g>
		<g id="text_5">
			<text transform="matrix(1 0 0 1 326.0808 307.5837)" class="st1 st2">800</text>
		</g>
	</g>
	<g id="xtick_6">
		<g id="line2d_6">
			<g>
				<g>
					<path id="maba4438b11_00000004541994461422474120000013994398632667809671_" class="st0" d="M399.3,293.7v3.5"/>
				</g>
			</g>
		</g>
		<g id="text_6">
			<text transform="matrix(1 0 0 1 388.3389 307.5837)" class="st1 st2">1000</text>
		</g>
	</g>
</g>
<g id="matplotlib.axis_2">
	<g id="ytick_1">
		<g id="line2d_7">
			<g>
				<g>
					<path id="m9ef1e5b8ca" class="st0" d="M58.1,280.4h-3.5"/>
				</g>
			</g>
		</g>
		<g id="text_7">
			<text transform="matrix(1 0 0 1 45.6021 283.8589)" class="st1 st2">0</text>
		</g>
	</g>
	<g id="ytick_2">
		<g id="line2d_8">
			<g>
				<g>
					<path id="m9ef1e5b8ca_00000181064333282510003430000000771647936998189213_" class="st0" d="M58.1,227.2h-3.5"/>
				</g>
			</g>
		</g>
		<g id="text_8">
			<text transform="matrix(1 0 0 1 45.6021 230.6365)" class="st1 st2">2</text>
		</g>
	</g>
	<g id="ytick_3">
		<g id="line2d_9">
			<g>
				<g>
					<path id="m9ef1e5b8ca_00000080192773000226776350000010764674150535993225_" class="st0" d="M58.1,174h-3.5"/>
				</g>
			</g>
		</g>
		<g id="text_9">
			<text transform="matrix(1 0 0 1 45.6021 177.4141)" class="st1 st2">4</text>
		</g>
	</g>
	<g id="ytick_4">
		<g id="line2d_10">
			<g>
				<g>
					<path id="m9ef1e5b8ca_00000121261481891455141590000015444958943261792641_" class="st0" d="M58.1,120.8h-3.5"/>
				</g>
			</g>
		</g>
		<g id="text_10">
			<text transform="matrix(1 0 0 1 45.6021 124.1917)" class="st1 st2">6</text>
		</g>
	</g>
	<g id="ytick_5">
		<g id="line2d_11">
			<g>
				<g>
					<path id="m9ef1e5b8ca_00000114765136054885614440000000709678081234039445_" class="st0" d="M58.1,67.5h-3.5"/>
				</g>
			</g>
		</g>
		<g id="text_11">
			<text transform="matrix(1 0 0 1 45.6021 70.9692)" class="st1 st2">8</text>
		</g>
	</g>
</g>
<g id="line2d_12">
	<g>
		<defs>
			<rect id="SVGID_1_" x="71.6" y="-336.6" width="357.1" height="266.1"/>
		</defs>
		<clipPath id="SVGID_00000022527020582846472720000006126124740964591240_">
			<use xlink:href="#SVGID_1_"  style="overflow:visible;"/>
		</clipPath>
		
			<path style="clip-path:url(#SVGID_00000022527020582846472720000006126124740964591240_);fill:none;stroke:#0037FD;stroke-width:0.75;stroke-linecap:square;stroke-linejoin:round;" d="
			M87.8-92.7l9.4-0.1l11.4-0.4l9.1-0.3l6.8,0l7.5,0.3l10.4,0.6l17.5,1.3l11,0.7l13.3,0.6l7.8,0.1L198-90l5.5-0.3l6.2-0.6l23.7-2.8
			l5.8-0.9l4.5-0.9l4.5-1.1l4.9-1.5l5.8-2l14.9-5.2l5.5-1.6l7.1-1.8l5.5-1.5l2.9-1l2.3-1l1.9-1.1l1.9-1.3l1.6-1.4l1.6-1.7l1.6-2.1
			l1.6-2.5l1.6-3l1.6-3.6l1.6-4.2l1.6-4.9l1.6-5.6l1.6-6.3l1.9-8.5l1.9-9.5l2.3-12.2l3.2-18.7l4.9-28.1l2.3-11.7l1.6-7.3l1.6-6.3
			l1.3-4.1l1-2.5l1-2l1-1.5l0.6-0.7l0.6-0.4l0.6-0.2l0.6,0l0.6,0.3l0.6,0.5l0.6,0.8l1,1.6l1,2.1l1,2.5l1.3,4l1.3,4.7l1.6,6.8
			l1.9,9.1l2.6,13.3l8.8,46.1l2.6,12l2.3,9.5l2.3,8.5l1.9,6.5l1.9,5.7l1.9,5.1l1.9,4.4l1.9,3.9l1.9,3.4l1.9,2.9l1.9,2.5l1.9,2.2
			l1.9,1.9l2.3,1.9l2.3,1.6l2.3,1.3l2.3,1.1l2.6,1l2.6,0.7l2.6,0.5l2.3,0.2l0,0"/>
	</g>
</g>
<g id="line2d_13">
	<g>
		<defs>
			<rect id="SVGID_00000010288517058327999310000015907905550892288668_" x="71.6" y="-336.6" width="357.1" height="266.1"/>
		</defs>
		<clipPath id="SVGID_00000106862901583730480070000018036494713176992416_">
			<use xlink:href="#SVGID_00000010288517058327999310000015907905550892288668_"  style="overflow:visible;"/>
		</clipPath>
		
			<path style="clip-path:url(#SVGID_00000106862901583730480070000018036494713176992416_);fill:none;stroke:#FD0000;stroke-width:0.75;stroke-linecap:square;stroke-linejoin:round;" d="
			M87.8-87.3l2.9-0.2l2.9-0.4l3.2-0.7l3.9-1.1l5.5-1.8l9.4-3.1l4.5-1.3l4.2-0.9l4.5-0.8l10.4-1.6l2.3-0.6l1.9-0.7l1.9-1l1.6-1.1
			l1.6-1.3l1.6-1.6l1.6-2l1.6-2.3l1.6-2.7l1.6-3.1l1.9-4.3l1.9-4.9l2.3-6.5l2.6-8.1l9.1-29.2l1.9-5.1l1.6-3.6l1.3-2.4l1.3-1.9l1-1.1
			l1-0.8l1-0.4l1-0.1l1,0.2l1,0.5l1,0.8l1,1.1l1.3,1.9l1.3,2.3l1.6,3.5l1.6,4l1.9,5.4l2.9,8.8l7.8,24.1l2.6,7.2l2.3,5.7l2.3,5.1
			l1.9,3.9l1.9,3.4l1.9,3l1.9,2.6l1.9,2.2l1.9,1.8l1.9,1.5l1.9,1.2l1.9,1l2.3,0.9l2.3,0.6l2.6,0.5l3.2,0.4l4.9,0.3l11,0.6l20.8,1.4
			l5.5,0l5.2-0.2l5.8-0.5l13-1.1l4.9-0.1l7.5,0.1l5.2,0l3.9-0.2l3.9-0.5l4.5-0.8l7.8-1.4l3.2-0.3l2.9-0.1l2.9,0.2l2.9,0.4l3.2,0.7
			l4.2,1.1l12.7,3.6l4.5,1l4.5,0.7l4.5,0.5l5.2,0.3l6.8,0.2l8.1,0.1l0,0"/>
	</g>
</g>
<g id="patch_3">
	<path class="st5" d="M58.1,293.7V27.6"/>
</g>
<g id="patch_4">
	<path class="st5" d="M415.2,293.7V27.6"/>
</g>
<g id="patch_5">
	<path class="st5" d="M58.1,293.7h357.1"/>
</g>
<g id="patch_6">
	<path class="st5" d="M58.1,27.6h357.1"/>
</g>
</svg>
