<?xml version="1.0" encoding="utf-8"?>
<!-- Generator: Adobe Illustrator 27.5.0, SVG Export Plug-In . SVG Version: 6.00 Build 0)  -->
<svg version="1.1" id="Layer_1" xmlns="http://www.w3.org/2000/svg" xmlns:xlink="http://www.w3.org/1999/xlink" x="0px" y="0px"
	 viewBox="0 0 460.8 345.6" style="enable-background:new 0 0 460.8 345.6;" xml:space="preserve">
<style type="text/css">
	.st0{fill:none;stroke:#0000FF;stroke-width:1.5;stroke-linecap:square;stroke-linejoin:round;}
	.st1{fill:none;stroke:#FF0000;stroke-width:1.5;stroke-linecap:square;stroke-linejoin:round;}
	.st2{fill:none;stroke:#000000;stroke-width:0.8;stroke-linecap:square;}
</style>
<g id="axes_1">
	<g id="line2d_12">
		<g>
			<path class="st0" d="M73.8,283.7l8.1-0.2l8.4-0.4l12-0.6l5.8,0l6.2,0.2l7.5,0.5l9.7,0.9l24.7,2.3l11.7,0.7l7.5,0.3l5.5,0l4.9-0.2
				l4.9-0.5l5.5-0.8l24.4-4l4.9-1l3.9-1l3.9-1.3l3.9-1.5l4.5-2l6.5-3.1l9.1-4.3l4.9-2.1l4.9-1.8l12.7-4.6l2.3-1.2l1.9-1.2l1.6-1.3
				l1.6-1.5l1.6-1.9l1.6-2.3l1.3-2.2l1.3-2.5l1.3-2.9l1.3-3.4l1.6-5l1.6-5.8l1.6-6.7l1.6-7.7l1.6-8.7l1.9-11.7l2.3-15.3l2.6-19.2
				l9.1-69.2l1.6-10.1l1.6-8.7l1.3-5.8l1.3-4.7l1-2.7l1-2l0.6-0.9l0.6-0.6l0.6-0.3l0.6,0.1l0.6,0.4l0.6,0.7l0.6,1l1,2.1l1,2.8l1,3.4
				l1.3,5.4l1.3,6.4l1.6,9.1l1.9,12.3l2.6,17.9l8.8,62l2.6,16.2l2.3,12.8l2.3,11.4l1.9,8.7l1.9,7.7l1.9,6.8l1.9,6l1.9,5.2l1.9,4.5
				l1.9,3.9l1.9,3.4l1.9,2.9l1.9,2.5l1.9,2.2l1.9,1.9l1.9,1.6l2.3,1.6l2.3,1.3l2.3,1l2.3,0.7l2.3,0.5l1.9,0.2l0,0"/>
		</g>
	</g>
	<g id="line2d_13">
		<g>
			<path class="st1" d="M73.8,282.1l2.3-0.3l1.9-0.4l1.9-0.7l1.9-0.9l1.9-1.2l1.6-1.2l1.6-1.5l1.9-2.1l1.9-2.4l1.9-2.8l2.3-3.7
				l2.6-4.7l4.2-8.3l3.6-6.8l2.3-3.9l1.6-2.4l1.6-2l1.3-1.3l1.3-1l1.3-0.6l1-0.3l1-0.1l1,0.1l1,0.3l1.3,0.7l1.3,1l1.3,1.3l1.6,2
				l1.6,2.3l1.9,3.1l2.6,4.6l9.1,16.5l2.6,4.1l2.3,3.2l2.3,2.8l2.3,2.5l2.3,2.1l2.3,1.8l2.3,1.5l2.6,1.5l2.6,1.2l2.9,1.1l3.2,1
				l3.9,1l5.2,1l7.8,1.3l7.1,1l5.5,0.5l5.2,0.3l5.8,0.1l10.1-0.2l10.4-0.3l13-0.5l4.2,0.1l3.9,0.3l4.5,0.6l12.3,1.8l3.6,0.2l3.6,0
				l3.6-0.2l4.5-0.5l12-1.5l4.9-0.3l16.6-0.7l6.2-0.7l8.8-1l4.5-0.3l4.2,0l4.5,0.2l8.8,0.7l4.9,0.3l3.9,0l3.9-0.2l4.2-0.5l6.2-1
				l6.8-1l4.5-0.5l4.9-0.3l6.5-0.1l0.3,0l0,0"/>
		</g>
	</g>
	<g id="patch_3">
		<path class="st2" d="M57.6,41.5"/>
		<path class="st2" d="M57.6,307.6"/>
	</g>
	<g id="patch_4">
		<path class="st2" d="M414.7,41.5"/>
	</g>
	<g id="patch_5">
		<path class="st2" d="M57.6,307.6"/>
	</g>
</g>
</svg>
