<?xml version="1.0" encoding="utf-8"?>
<!-- Generator: Adobe Illustrator 27.5.0, SVG Export Plug-In . SVG Version: 6.00 Build 0)  -->
<svg version="1.1" id="Layer_1" xmlns="http://www.w3.org/2000/svg" xmlns:xlink="http://www.w3.org/1999/xlink" x="0px" y="0px"
	 viewBox="0 0 460.8 345.6" style="enable-background:new 0 0 460.8 345.6;" xml:space="preserve">
<style type="text/css">
	
		.st0{clip-path:url(#SVGID_00000118383823888564617060000008768255347990902695_);fill:none;stroke:#0000FF;stroke-linecap:square;stroke-linejoin:round;}
	
		.st1{clip-path:url(#SVGID_00000091706819260370597240000008920876271637639333_);fill:none;stroke:#FF0000;stroke-linecap:square;stroke-linejoin:round;}
	.st2{fill:#FFFFFF;stroke:#000000;stroke-miterlimit:10;}
	.st3{stroke:#000000;stroke-width:0.8;stroke-linejoin:round;}
</style>
<g id="line2d_12">
	<g>
		<defs>
			<rect id="SVGID_1_" x="57.6" y="243" width="91.7" height="68.4"/>
		</defs>
		<clipPath id="SVGID_00000142139359609937470680000001300362902667966887_">
			<use xlink:href="#SVGID_1_"  style="overflow:visible;"/>
		</clipPath>
		
			<path style="clip-path:url(#SVGID_00000142139359609937470680000001300362902667966887_);fill:none;stroke:#0000FF;stroke-linecap:square;stroke-linejoin:round;" d="
			M61.8,306.3l2,0l2.2-0.1l3.2-0.2l1.5,0l1.5,0l1.9,0.1l2.5,0.2l6.6,0.6l3,0.2l1.8,0.1l1.3,0l1.2-0.1l1.3-0.1l1.4-0.2l5.9-1l1.3-0.3
			l1.1-0.3l1-0.3l1-0.4l1.1-0.5l1.4-0.7l3.2-1.5l1.3-0.5l1.3-0.5l2.8-1l0.7-0.3l0.5-0.3l0.5-0.4l0.4-0.4l0.4-0.5l0.4-0.6l0.3-0.5
			l0.3-0.6l0.3-0.7l0.3-0.9l0.4-1.3l0.4-1.5l0.4-1.7l0.4-2l0.4-2.2l0.5-3l0.5-3.3l0.6-4.3l0.8-6.6l1.3-9.9l0.6-4.1l0.4-2.6l0.4-2.2
			l0.3-1.4l0.3-0.9l0.3-0.7l0.3-0.5l0.2-0.2l0.2-0.2l0.2-0.1l0.2,0l0.2,0.1l0.2,0.2l0.2,0.3l0.3,0.5l0.3,0.7l0.3,0.9l0.3,1.4
			l0.3,1.7l0.4,2.4l0.5,3.2l0.7,4.7l2.3,16.2l0.7,4.2l0.6,3.3l0.6,3l0.5,2.3l0.5,2l0.5,1.8l0.5,1.6l0.5,1.4l0.5,1.2l0.5,1l0.5,0.9
			l0.5,0.8l0.5,0.7l0.5,0.6l0.5,0.5l0.5,0.4l0.6,0.4l0.6,0.3l0.6,0.3l0.6,0.2l0.6,0.1l0.5,0.1l0,0"/>
	</g>
</g>
<g id="line2d_13">
	<g>
		<defs>
			<rect id="SVGID_00000148619908604573936460000013044606019757974439_" x="57.6" y="243" width="91.7" height="68.4"/>
		</defs>
		<clipPath id="SVGID_00000053511743036613672920000017257802218484804224_">
			<use xlink:href="#SVGID_00000148619908604573936460000013044606019757974439_"  style="overflow:visible;"/>
		</clipPath>
		
			<path style="clip-path:url(#SVGID_00000053511743036613672920000017257802218484804224_);fill:none;stroke:#FF0000;stroke-linecap:square;stroke-linejoin:round;" d="
			M61.8,305.1l1.8,0l1.7,0.1l1.4,0.1l1.3,0.2l1.1,0.2L70,306l1.2,0.4l1.8,0.6l1.7,0.6l1.1,0.3l1,0.2l0.9,0.1l1,0.1l1,0l1.1,0
			l1.3-0.1l1.7-0.2l2.8-0.4l1.5-0.2l1.2-0.2l1-0.3l1-0.3l1.1-0.4l1.4-0.6l2.4-1l1.3-0.5l1.5-0.5l2.3-0.7l1.4-0.5l0.8-0.3l0.6-0.3
			l0.5-0.3l0.4-0.3l0.4-0.4l0.4-0.5l0.4-0.6l0.4-0.7l0.4-0.8l0.4-1l0.4-1.1l0.4-1.3l0.4-1.5l0.5-2.1l0.5-2.3l0.6-3l0.8-4.2l1.8-10.1
			l0.5-2.5l0.4-1.8l0.3-1.3l0.3-1.1l0.3-0.6l0.3-0.5l0.3-0.4l0.2-0.2l0.2-0.1l0.2,0l0.2,0l0.2,0.1l0.2,0.1l0.2,0.2l0.3,0.4l0.3,0.5
			l0.3,0.7l0.3,1.1l0.4,1.6l0.4,1.8l0.6,2.8l0.8,4.3l1.3,6.9l0.7,3.2l0.6,2.5l0.6,2.3l0.6,2l0.5,1.6l0.5,1.4l0.5,1.2l0.5,1.1
			l0.6,1.1l0.6,1l0.6,0.9l0.6,0.8l0.6,0.7l0.7,0.7l0.7,0.6l0.7,0.5l0.7,0.5l0.7,0.4l0.8,0.4l0.8,0.3l0.8,0.3l0.8,0.2l0.8,0.1
			l0.8,0.1l0.8,0l1.1,0l3.9-0.1l3.3,0l0,0"/>
	</g>
</g>
<line class="st2" x1="125.2" y1="312.7" x2="139.1" y2="312.7"/>
<line class="st3" x1="57.6" y1="297.3" x2="57.6" y2="311.4"/>
</svg>
