<?xml version="1.0" encoding="utf-8"?>
<!-- Generator: Adobe Illustrator 27.5.0, SVG Export Plug-In . SVG Version: 6.00 Build 0)  -->
<svg version="1.1" id="Layer_1" xmlns="http://www.w3.org/2000/svg" xmlns:xlink="http://www.w3.org/1999/xlink" x="0px" y="0px"
	 viewBox="0 0 460.8 345.6" style="enable-background:new 0 0 460.8 345.6;" xml:space="preserve">
<style type="text/css">
	.st0{fill:#FFFFFF;}
	
		.st1{clip-path:url(#SVGID_00000096769497944870602240000001352090526280233649_);fill:none;stroke:#0000FF;stroke-linecap:square;stroke-linejoin:round;}
	
		.st2{clip-path:url(#SVGID_00000059283946182011924000000004888378431439744660_);fill:none;stroke:#FF0000;stroke-linecap:square;stroke-linejoin:round;}
	.st3{fill:#FFFFFF;stroke:#000000;stroke-miterlimit:10;}
	.st4{stroke:#000000;stroke-width:0.8;stroke-linejoin:round;}
	.st5{font-family:'ArialMT';}
	.st6{font-size:6px;}
</style>
<g id="patch_2">
	<path class="st0" d="M33.9,328.5h52.3v-39H33.9V328.5z"/>
</g>
<g id="line2d_12">
	<g>
		<defs>
			<rect id="SVGID_1_" x="33.9" y="289.5" width="52.3" height="39"/>
		</defs>
		<clipPath id="SVGID_00000057110502517260429080000009352453805837410718_">
			<use xlink:href="#SVGID_1_"  style="overflow:visible;"/>
		</clipPath>
		
			<path style="clip-path:url(#SVGID_00000057110502517260429080000009352453805837410718_);fill:none;stroke:#0000FF;stroke-linecap:square;stroke-linejoin:round;" d="
			M36.3,325.6l1.1,0l1.2-0.1l1.8-0.1l0.9,0l0.9,0l1.1,0.1l1.4,0.1l3.8,0.4l1.7,0.1l1,0l0.8,0l0.7,0l0.7-0.1l0.8-0.1l3.4-0.6l0.8-0.1
			L59,325l0.6-0.2l0.6-0.2l0.6-0.3l0.8-0.4l1.8-0.9l0.7-0.3l0.7-0.3l1.6-0.6l0.4-0.2l0.3-0.2l0.3-0.2l0.2-0.2l0.2-0.3l0.2-0.3
			l0.2-0.3l0.2-0.4l0.2-0.4l0.2-0.5l0.2-0.7l0.2-0.8l0.2-1l0.2-1.1l0.2-1.3l0.3-1.7l0.3-1.9l0.3-2.4l0.5-3.8l0.7-5.6l0.3-2.3
			l0.2-1.5l0.2-1.3l0.2-0.8l0.1-0.5l0.1-0.4l0.1-0.3l0.1-0.1l0.1-0.1l0.1,0l0.1,0l0.1,0.1l0.1,0.1l0.1,0.2l0.1,0.3l0.1,0.4l0.1,0.5
			l0.2,0.8l0.2,1l0.2,1.4l0.3,1.8l0.4,2.7l1.3,9.2l0.4,2.4l0.3,1.9l0.3,1.7l0.3,1.3l0.3,1.2l0.3,1l0.3,0.9l0.3,0.8l0.3,0.7l0.3,0.6
			l0.3,0.5l0.3,0.4l0.3,0.4l0.3,0.3l0.3,0.3l0.3,0.2l0.3,0.2l0.3,0.2l0.3,0.1l0.3,0.1l0.3,0.1l0.3,0l0,0"/>
	</g>
</g>
<g id="line2d_13">
	<g>
		<defs>
			<rect id="SVGID_00000114059903950466488090000017156125280108783502_" x="33.9" y="289.5" width="52.3" height="39"/>
		</defs>
		<clipPath id="SVGID_00000070835203140027056150000001575682720458869164_">
			<use xlink:href="#SVGID_00000114059903950466488090000017156125280108783502_"  style="overflow:visible;"/>
		</clipPath>
		
			<path style="clip-path:url(#SVGID_00000070835203140027056150000001575682720458869164_);fill:none;stroke:#FF0000;stroke-linecap:square;stroke-linejoin:round;" d="
			M36.3,322.4l0.2-0.1l0.2-0.1l0.2-0.1l0.2-0.2l0.2-0.2l0.2-0.3l0.2-0.3l0.2-0.4L38,320l0.2-0.7l0.2-0.8l0.2-0.9l0.3-1.3l0.3-1.4
			l0.3-1.8l0.5-2.8l0.7-4.1l0.3-1.7l0.2-1.1l0.2-0.9l0.2-0.6l0.1-0.4l0.1-0.3l0.1-0.2l0.1-0.1l0.1-0.1l0.1,0l0.1,0l0.1,0l0.1,0.1
			l0.1,0.1l0.1,0.2l0.1,0.3l0.1,0.4l0.2,0.6l0.2,0.9l0.2,1l0.3,1.6l0.5,2.5l0.8,4l0.4,1.8l0.3,1.5l0.3,1.3l0.3,1.2l0.3,0.9l0.3,0.8
			l0.3,0.7l0.3,0.6l0.3,0.7l0.3,0.6l0.3,0.5l0.3,0.5l0.3,0.4l0.4,0.4l0.4,0.4L51,325l0.4,0.3l0.4,0.2l0.4,0.2l0.4,0.2L53,326
			l0.4,0.1l0.4,0.1l0.4,0l0.5,0l0.5,0l0.7-0.1l1-0.1l0.9-0.1l0.7-0.1l0.8-0.2l1.3-0.3l0.6-0.1l0.5-0.1l0.5,0l0.5,0l0.5,0l0.5,0.1
			l0.5,0.1l0.6,0.1l0.7,0.2l2,0.6l0.6,0.1l0.5,0.1l0.5,0.1l0.6,0l0.6,0l0.6,0l0.8-0.1l1.1-0.1l1.5-0.2l0.8-0.1l0.6-0.1l0.6-0.2
			l0.6-0.2l0.6-0.2l1-0.4l1-0.5l0.8-0.3L81,324l0.8-0.2l0.7-0.2l0.6-0.1l0.5-0.1l0.4,0l0,0"/>
	</g>
</g>
<line class="st3" x1="75.4" y1="332.1" x2="83.3" y2="332.1"/>
<path class="st3" d="M33.9,319.3"/>
<line class="st4" x1="29.8" y1="319.3" x2="29.8" y2="327.4"/>
<text transform="matrix(1 0 0 1 68.4988 334.4238)" class="st5 st6">1 s</text>
<text transform="matrix(1.961531e-08 -1 1 1.961531e-08 29.8387 329.588)" class="st5 st6">10 Hz</text>
</svg>
