<?xml version="1.0" encoding="utf-8"?>
<!-- Generator: Adobe Illustrator 27.5.0, SVG Export Plug-In . SVG Version: 6.00 Build 0)  -->
<svg version="1.1" id="Layer_1" xmlns="http://www.w3.org/2000/svg" xmlns:xlink="http://www.w3.org/1999/xlink" x="0px" y="0px"
	 viewBox="0 0 460.8 345.6" style="enable-background:new 0 0 460.8 345.6;" xml:space="preserve">
<style type="text/css">
	.st0{fill:#FFFFFF;}
	.st1{clip-path:url(#SVGID_00000141441452739141112530000005986840019017483657_);}
	.st2{fill:#0000FF;stroke:#0000FF;stroke-width:1.5;stroke-linejoin:round;}
	.st3{clip-path:url(#SVGID_00000060746225227703689210000000502308351416694719_);}
	.st4{fill:#008000;stroke:#008000;stroke-linejoin:round;}
	.st5{stroke:#000000;stroke-width:0.8;stroke-linejoin:round;}
	.st6{enable-background:new    ;}
	.st7{font-family:'MyriadPro-Regular';}
	.st8{font-size:14px;}
	.st9{font-family:'LucidaBright';}
	.st10{font-family:'ArialMT';}
	.st11{font-size:16px;}
	.st12{font-size:12px;}
	.st13{font-size:11.2px;}
	
		.st14{clip-path:url(#SVGID_00000181070585800280429610000004742794330261280152_);fill:none;stroke:#008000;stroke-width:1.5;stroke-linejoin:round;stroke-dasharray:1.5,2.475;}
	
		.st15{clip-path:url(#SVGID_00000173848852721807032650000007470464938201375624_);fill:none;stroke:#000000;stroke-width:1.5;stroke-linejoin:round;stroke-opacity:0.3;stroke-dasharray:5.55,2.4;}
	
		.st16{clip-path:url(#SVGID_00000098222708282466759860000006646506980970672823_);fill:none;stroke:#000000;stroke-width:1.5;stroke-linejoin:round;stroke-opacity:0.3;stroke-dasharray:5.55,2.4;}
	.st17{fill:none;stroke:#000000;stroke-width:0.8;stroke-linecap:square;}
</style>
<g id="axes_1">
	<g id="patch_2">
		<path class="st0" d="M68.5,289.5h382.6V9.7H68.5V289.5z"/>
	</g>
	<g id="PathCollection_1">
		<g>
			<defs>
				<rect id="SVGID_1_" x="68.5" y="9.7" width="382.6" height="279.8"/>
			</defs>
			<clipPath id="SVGID_00000013881180670962642810000004927115747411165835_">
				<use xlink:href="#SVGID_1_"  style="overflow:visible;"/>
			</clipPath>
			<g style="clip-path:url(#SVGID_00000013881180670962642810000004927115747411165835_);">
				<g>
					<path id="m6d7fec3458" class="st2" d="M272.4,184.3l3.2-3.2 M272.4,181.1l3.2,3.2"/>
				</g>
				<g>
					<path id="m6d7fec3458_00000090999386853335091500000011543870268153297068_" class="st2" d="M317.6,178.6l3.2-3.2 M317.6,175.4
						l3.2,3.2"/>
				</g>
				<g>
					<path id="m6d7fec3458_00000013178624931619523820000011712838298226761344_" class="st2" d="M192.6,181.2l3.2-3.2 M192.6,178
						l3.2,3.2"/>
				</g>
				<g>
					<path id="m6d7fec3458_00000147940110925833242160000003385386936186443177_" class="st2" d="M332.2,182l3.2-3.2 M332.2,178.9
						l3.2,3.2"/>
				</g>
				<g>
					<path id="m6d7fec3458_00000025422055617360756360000016856839514033536134_" class="st2" d="M286.5,182l3.2-3.2 M286.5,178.9
						l3.2,3.2"/>
				</g>
				<g>
					<path id="m6d7fec3458_00000029041749791882628190000011748285873936643981_" class="st2" d="M223,180.3l3.2-3.2 M223,177.2
						l3.2,3.2"/>
				</g>
				<g>
					<path id="m6d7fec3458_00000102506517612777258320000005651623387495191227_" class="st2" d="M284.2,183.7l3.2-3.2 M284.2,180.6
						l3.2,3.2"/>
				</g>
				<g>
					<path id="m6d7fec3458_00000049192477754376718500000002361263642612779431_" class="st2" d="M317.1,180.4l3.2-3.2 M317.1,177.2
						l3.2,3.2"/>
				</g>
				<g>
					<path id="m6d7fec3458_00000061453063823684230740000010955592394729435322_" class="st2" d="M154.7,181.5l3.2-3.2 M154.7,178.3
						l3.2,3.2"/>
				</g>
				<g>
					<path id="m6d7fec3458_00000095316372505811040700000006216705274074039468_" class="st2" d="M120.6,191.7l3.2-3.2 M120.6,188.5
						l3.2,3.2"/>
				</g>
				<g>
					<path id="m6d7fec3458_00000147912849833660516990000007114510109045067709_" class="st2" d="M230.3,185.1l3.2-3.2 M230.3,182
						l3.2,3.2"/>
				</g>
				<g>
					<path id="m6d7fec3458_00000009560379472883909890000001713320272384006784_" class="st2" d="M255.4,182.5l3.2-3.2 M255.4,179.3
						l3.2,3.2"/>
				</g>
				<g>
					<path id="m6d7fec3458_00000167369420919636223680000009960338765545617825_" class="st2" d="M236.5,187.7l3.2-3.2 M236.5,184.5
						l3.2,3.2"/>
				</g>
				<g>
					<path id="m6d7fec3458_00000137811770805126536960000012319331618559364013_" class="st2" d="M258.2,184l3.2-3.2 M258.2,180.9
						l3.2,3.2"/>
				</g>
				<g>
					<path id="m6d7fec3458_00000004503857228767553980000011796504707926880175_" class="st2" d="M213.9,185.9l3.2-3.2 M213.9,182.7
						l3.2,3.2"/>
				</g>
				<g>
					<path id="m6d7fec3458_00000177459889532886526460000008292955155942673549_" class="st2" d="M208.4,181l3.2-3.2 M208.4,177.8
						l3.2,3.2"/>
				</g>
				<g>
					<path id="m6d7fec3458_00000128468868823204116600000016287379369197429659_" class="st2" d="M335.6,181.3l3.2-3.2 M335.6,178.1
						l3.2,3.2"/>
				</g>
				<g>
					<path id="m6d7fec3458_00000088846352917230064890000007893746879054341523_" class="st2" d="M432.1,183l3.2-3.2 M432.1,179.9
						l3.2,3.2"/>
				</g>
				<g>
					<path id="m6d7fec3458_00000109030817700409931840000000468939526780609182_" class="st2" d="M301.3,183.8l3.2-3.2 M301.3,180.6
						l3.2,3.2"/>
				</g>
				<g>
					<path id="m6d7fec3458_00000152245291134875043850000003065251822368218029_" class="st2" d="M148.8,187.3l3.2-3.2 M148.8,184.1
						l3.2,3.2"/>
				</g>
				<g>
					<path id="m6d7fec3458_00000128460658862214100260000005409875644457241505_" class="st2" d="M171.7,180.5l3.2-3.2 M171.7,177.3
						l3.2,3.2"/>
				</g>
				<g>
					<path id="m6d7fec3458_00000000199208177140284430000010932044041608221330_" class="st2" d="M347.7,187.6l3.2-3.2 M347.7,184.4
						l3.2,3.2"/>
				</g>
				<g>
					<path id="m6d7fec3458_00000103972969274712519060000007104749669774078654_" class="st2" d="M263.6,185.9l3.2-3.2 M263.6,182.8
						l3.2,3.2"/>
				</g>
				<g>
					<path id="m6d7fec3458_00000129909009044873439750000006595555861661602960_" class="st2" d="M367,186.9l3.2-3.2 M367,183.7
						l3.2,3.2"/>
				</g>
				<g>
					<path id="m6d7fec3458_00000104692545815104371920000004697842121143457932_" class="st2" d="M129,193.2l3.2-3.2 M129,190
						l3.2,3.2"/>
				</g>
				<g>
					<path id="m6d7fec3458_00000010283576026302930730000013441148338591959191_" class="st2" d="M183.6,183.2l3.2-3.2 M183.6,180.1
						l3.2,3.2"/>
				</g>
				<g>
					<path id="m6d7fec3458_00000095301114335235309480000004229164446109914498_" class="st2" d="M347.5,182.8l3.2-3.2 M347.5,179.6
						l3.2,3.2"/>
				</g>
				<g>
					<path id="m6d7fec3458_00000008845256372981963590000014506312616115842484_" class="st2" d="M355.2,185.5l3.2-3.2 M355.2,182.3
						l3.2,3.2"/>
				</g>
				<g>
					<path id="m6d7fec3458_00000110455813430031141140000005370205634969553538_" class="st2" d="M288.8,180.4l3.2-3.2 M288.8,177.2
						l3.2,3.2"/>
				</g>
				<g>
					<path id="m6d7fec3458_00000137832976472541328290000005583392663963114641_" class="st2" d="M174.2,180.3l3.2-3.2 M174.2,177.2
						l3.2,3.2"/>
				</g>
				<g>
					<path id="m6d7fec3458_00000137107810532138678000000008382509333505449357_" class="st2" d="M295.3,185.9l3.2-3.2 M295.3,182.8
						l3.2,3.2"/>
				</g>
				<g>
					<path id="m6d7fec3458_00000111176013849046853300000007780634336988204463_" class="st2" d="M182.7,183.5l3.2-3.2 M182.7,180.3
						l3.2,3.2"/>
				</g>
				<g>
					<path id="m6d7fec3458_00000183927257745444942600000002604012997512095635_" class="st2" d="M238.4,183.6l3.2-3.2 M238.4,180.4
						l3.2,3.2"/>
				</g>
				<g>
					<path id="m6d7fec3458_00000070076015370045430990000006833751248514231195_" class="st2" d="M349,183.1l3.2-3.2 M349,179.9
						l3.2,3.2"/>
				</g>
				<g>
					<path id="m6d7fec3458_00000170249452019502937720000009235857244938176698_" class="st2" d="M303.7,177.2l3.2-3.2 M303.7,174.1
						l3.2,3.2"/>
				</g>
				<g>
					<path id="m6d7fec3458_00000141430657287120161190000016626895113336477100_" class="st2" d="M267.8,182.6l3.2-3.2 M267.8,179.5
						l3.2,3.2"/>
				</g>
				<g>
					<path id="m6d7fec3458_00000128445058726289997650000014808084368294514823_" class="st2" d="M125.6,180.2l3.2-3.2 M125.6,177
						l3.2,3.2"/>
				</g>
				<g>
					<path id="m6d7fec3458_00000062901375739421780010000007137058676558032264_" class="st2" d="M324.5,184.3l3.2-3.2 M324.5,181.2
						l3.2,3.2"/>
				</g>
				<g>
					<path id="m6d7fec3458_00000147940850895403406570000001124205186640367757_" class="st2" d="M207.2,182.6l3.2-3.2 M207.2,179.5
						l3.2,3.2"/>
				</g>
				<g>
					<path id="m6d7fec3458_00000126314275347039559460000003202930254364862379_" class="st2" d="M312.2,179.1l3.2-3.2 M312.2,175.9
						l3.2,3.2"/>
				</g>
				<g>
					<path id="m6d7fec3458_00000156567614437997336560000008328755205821781395_" class="st2" d="M222,183.9l3.2-3.2 M222,180.7
						l3.2,3.2"/>
				</g>
				<g>
					<path id="m6d7fec3458_00000119819099637333883560000014855830983194644159_" class="st2" d="M283.1,183.4l3.2-3.2 M283.1,180.3
						l3.2,3.2"/>
				</g>
				<g>
					<path id="m6d7fec3458_00000103260455966498277490000010324700971677662620_" class="st2" d="M256.8,176.5l3.2-3.2 M256.8,173.3
						l3.2,3.2"/>
				</g>
				<g>
					<path id="m6d7fec3458_00000030487439767808785750000002955536267676236456_" class="st2" d="M182,185.2l3.2-3.2 M182,182
						l3.2,3.2"/>
				</g>
				<g>
					<path id="m6d7fec3458_00000008855769816665031670000000342614487260630178_" class="st2" d="M265.4,182.1l3.2-3.2 M265.4,178.9
						l3.2,3.2"/>
				</g>
				<g>
					<path id="m6d7fec3458_00000078015324247801156530000004806341443249172614_" class="st2" d="M335.3,179.5l3.2-3.2 M335.3,176.4
						l3.2,3.2"/>
				</g>
				<g>
					<path id="m6d7fec3458_00000163039787553303336470000010600478232999425927_" class="st2" d="M168.9,187.6l3.2-3.2 M168.9,184.4
						l3.2,3.2"/>
				</g>
				<g>
					<path id="m6d7fec3458_00000078744412827768442480000000020650996410809014_" class="st2" d="M251,186.9l3.2-3.2 M251,183.7
						l3.2,3.2"/>
				</g>
				<g>
					<path id="m6d7fec3458_00000060020328602585768140000005691802307721607329_" class="st2" d="M317.8,181.2l3.2-3.2 M317.8,178
						l3.2,3.2"/>
				</g>
				<g>
					<path id="m6d7fec3458_00000145754517428017069230000003986830214489875593_" class="st2" d="M381.3,179.1l3.2-3.2 M381.3,175.9
						l3.2,3.2"/>
				</g>
				<g>
					<path id="m6d7fec3458_00000009580511341685029370000004333636532545203599_" class="st2" d="M341.3,184.7l3.2-3.2 M341.3,181.6
						l3.2,3.2"/>
				</g>
				<g>
					<path id="m6d7fec3458_00000054253148846004120040000007565601595968978075_" class="st2" d="M223.8,181.6l3.2-3.2 M223.8,178.4
						l3.2,3.2"/>
				</g>
				<g>
					<path id="m6d7fec3458_00000013892129856879536680000005496256698703304873_" class="st2" d="M262.6,186.9l3.2-3.2 M262.6,183.7
						l3.2,3.2"/>
				</g>
				<g>
					<path id="m6d7fec3458_00000145016458281778924730000014791791172917821080_" class="st2" d="M204.3,182.3l3.2-3.2 M204.3,179.1
						l3.2,3.2"/>
				</g>
				<g>
					<path id="m6d7fec3458_00000007386405425250302270000006350730282219837874_" class="st2" d="M310.5,180l3.2-3.2 M310.5,176.9
						l3.2,3.2"/>
				</g>
				<g>
					<path id="m6d7fec3458_00000077297670940750817550000001197134310068167086_" class="st2" d="M131.3,188.8l3.2-3.2 M131.3,185.7
						l3.2,3.2"/>
				</g>
				<g>
					<path id="m6d7fec3458_00000110432006351073262200000016192990660594751675_" class="st2" d="M260.7,185.6l3.2-3.2 M260.7,182.4
						l3.2,3.2"/>
				</g>
				<g>
					<path id="m6d7fec3458_00000118381022920908130040000009388280247004331959_" class="st2" d="M381.4,180.7l3.2-3.2 M381.4,177.6
						l3.2,3.2"/>
				</g>
				<g>
					<path id="m6d7fec3458_00000106124475791398351800000017925454567115341186_" class="st2" d="M321.7,180.1l3.2-3.2 M321.7,177
						l3.2,3.2"/>
				</g>
				<g>
					<path id="m6d7fec3458_00000077290020707348210700000014610215471784062112_" class="st2" d="M343.6,181.7l3.2-3.2 M343.6,178.6
						l3.2,3.2"/>
				</g>
				<g>
					<path id="m6d7fec3458_00000126284448232488351000000015347945998240065958_" class="st2" d="M171.5,187.2l3.2-3.2 M171.5,184.1
						l3.2,3.2"/>
				</g>
				<g>
					<path id="m6d7fec3458_00000116929152946839912010000003959975728045275577_" class="st2" d="M252.5,182.2l3.2-3.2 M252.5,179
						l3.2,3.2"/>
				</g>
				<g>
					<path id="m6d7fec3458_00000158030696265298577440000017501504030818063509_" class="st2" d="M292,183.1l3.2-3.2 M292,179.9
						l3.2,3.2"/>
				</g>
				<g>
					<path id="m6d7fec3458_00000080921593635037578310000004909065101814643374_" class="st2" d="M217.6,178.9l3.2-3.2 M217.6,175.7
						l3.2,3.2"/>
				</g>
				<g>
					<path id="m6d7fec3458_00000083070087464607795470000018291846204553837207_" class="st2" d="M128.7,180.7l3.2-3.2 M128.7,177.6
						l3.2,3.2"/>
				</g>
				<g>
					<path id="m6d7fec3458_00000129194494984401303120000013228479874795749810_" class="st2" d="M257,180.2l3.2-3.2 M257,177
						l3.2,3.2"/>
				</g>
				<g>
					<path id="m6d7fec3458_00000098220699346654528820000017529912763561206970_" class="st2" d="M408.6,182.3l3.2-3.2 M408.6,179.1
						l3.2,3.2"/>
				</g>
				<g>
					<path id="m6d7fec3458_00000134247963608469715710000005031372435816361093_" class="st2" d="M252,181.5l3.2-3.2 M252,178.3
						l3.2,3.2"/>
				</g>
				<g>
					<path id="m6d7fec3458_00000136413947572705671180000009036182486019866026_" class="st2" d="M154.4,182.2l3.2-3.2 M154.4,179.1
						l3.2,3.2"/>
				</g>
				<g>
					<path id="m6d7fec3458_00000024721974790141051930000003301841873203370371_" class="st2" d="M84.3,190.2l3.2-3.2 M84.3,187
						l3.2,3.2"/>
				</g>
				<g>
					<path id="m6d7fec3458_00000149340794886325985240000003163660700582130332_" class="st2" d="M240.7,183.8l3.2-3.2 M240.7,180.6
						l3.2,3.2"/>
				</g>
				<g>
					<path id="m6d7fec3458_00000094614363532846911040000011284826932618334895_" class="st2" d="M205.7,181.3l3.2-3.2 M205.7,178.2
						l3.2,3.2"/>
				</g>
				<g>
					<path id="m6d7fec3458_00000054242956749725803780000003802287342569093044_" class="st2" d="M423.6,177.6l3.2-3.2 M423.6,174.5
						l3.2,3.2"/>
				</g>
				<g>
					<path id="m6d7fec3458_00000088826790142501680100000015962445622544118170_" class="st2" d="M414,184.5l3.2-3.2 M414,181.3
						l3.2,3.2"/>
				</g>
				<g>
					<path id="m6d7fec3458_00000090987275020305495280000016361447282674731444_" class="st2" d="M239.3,181.7l3.2-3.2 M239.3,178.5
						l3.2,3.2"/>
				</g>
				<g>
					<path id="m6d7fec3458_00000114053204505318777120000016560416081820770187_" class="st2" d="M231.8,183.2l3.2-3.2 M231.8,180
						l3.2,3.2"/>
				</g>
				<g>
					<path id="m6d7fec3458_00000093153464541045774240000010939095496511068319_" class="st2" d="M179.4,187.8l3.2-3.2 M179.4,184.7
						l3.2,3.2"/>
				</g>
				<g>
					<path id="m6d7fec3458_00000103963880938065495580000009013946380575051191_" class="st2" d="M245.8,181.3l3.2-3.2 M245.8,178.1
						l3.2,3.2"/>
				</g>
				<g>
					<path id="m6d7fec3458_00000157287991967495574490000016468583180015066044_" class="st2" d="M367.8,180l3.2-3.2 M367.8,176.8
						l3.2,3.2"/>
				</g>
				<g>
					<path id="m6d7fec3458_00000018927911294419084700000003931319219616160923_" class="st2" d="M292,183.2l3.2-3.2 M292,180.1
						l3.2,3.2"/>
				</g>
				<g>
					<path id="m6d7fec3458_00000142871481739417451210000007413287336153674683_" class="st2" d="M400.8,183.6l3.2-3.2 M400.8,180.4
						l3.2,3.2"/>
				</g>
				<g>
					<path id="m6d7fec3458_00000094588894164477313320000003621086895839912610_" class="st2" d="M120.5,174.8l3.2-3.2 M120.5,171.7
						l3.2,3.2"/>
				</g>
				<g>
					<path id="m6d7fec3458_00000152252704968889943050000003610041877529592508_" class="st2" d="M265,181.3l3.2-3.2 M265,178.1
						l3.2,3.2"/>
				</g>
				<g>
					<path id="m6d7fec3458_00000119834660756724356860000016423793058237815690_" class="st2" d="M266.6,180.5l3.2-3.2 M266.6,177.3
						l3.2,3.2"/>
				</g>
				<g>
					<path id="m6d7fec3458_00000182507246107150872210000003650287465082452654_" class="st2" d="M184.9,180l3.2-3.2 M184.9,176.8
						l3.2,3.2"/>
				</g>
				<g>
					<path id="m6d7fec3458_00000096744652502971809470000007707042717349301668_" class="st2" d="M257.1,184.8l3.2-3.2 M257.1,181.6
						l3.2,3.2"/>
				</g>
				<g>
					<path id="m6d7fec3458_00000035493696050207738390000007021849159930452132_" class="st2" d="M136.9,194.1l3.2-3.2 M136.9,191
						l3.2,3.2"/>
				</g>
				<g>
					<path id="m6d7fec3458_00000173152919618174184340000003866855283147305129_" class="st2" d="M348.1,181.4l3.2-3.2 M348.1,178.2
						l3.2,3.2"/>
				</g>
				<g>
					<path id="m6d7fec3458_00000047759045418698852800000005219812644153861272_" class="st2" d="M312.4,183.4l3.2-3.2 M312.4,180.3
						l3.2,3.2"/>
				</g>
				<g>
					<path id="m6d7fec3458_00000112614783357873022080000016634647400838952087_" class="st2" d="M274.8,185.4l3.2-3.2 M274.8,182.3
						l3.2,3.2"/>
				</g>
				<g>
					<path id="m6d7fec3458_00000158710968808646629410000002549658919271393448_" class="st2" d="M123.1,189.6l3.2-3.2 M123.1,186.4
						l3.2,3.2"/>
				</g>
				<g>
					<path id="m6d7fec3458_00000107571896132093008380000012864910144628160956_" class="st2" d="M236.6,191.1l3.2-3.2 M236.6,188
						l3.2,3.2"/>
				</g>
				<g>
					<path id="m6d7fec3458_00000103946372155155555160000007366088711414083971_" class="st2" d="M386.9,183.5l3.2-3.2 M386.9,180.3
						l3.2,3.2"/>
				</g>
				<g>
					<path id="m6d7fec3458_00000044864488091593705250000000580733717581320884_" class="st2" d="M299.3,181.4l3.2-3.2 M299.3,178.3
						l3.2,3.2"/>
				</g>
				<g>
					<path id="m6d7fec3458_00000181074876401061728900000014032594127003549342_" class="st2" d="M172.9,181.5l3.2-3.2 M172.9,178.3
						l3.2,3.2"/>
				</g>
				<g>
					<path id="m6d7fec3458_00000048491628589451621390000010606626670557753748_" class="st2" d="M250.2,183l3.2-3.2 M250.2,179.8
						l3.2,3.2"/>
				</g>
				<g>
					<path id="m6d7fec3458_00000152225827269598045840000017492393977290976152_" class="st2" d="M213.6,181.7l3.2-3.2 M213.6,178.5
						l3.2,3.2"/>
				</g>
				<g>
					<path id="m6d7fec3458_00000081634455070848321940000017009196309409144509_" class="st2" d="M305.3,182.6l3.2-3.2 M305.3,179.4
						l3.2,3.2"/>
				</g>
				<g>
					<path id="m6d7fec3458_00000055689395282172708170000018368070178159186869_" class="st2" d="M152.8,184.6l3.2-3.2 M152.8,181.5
						l3.2,3.2"/>
				</g>
				<g>
					<path id="m6d7fec3458_00000067198341391638277240000003653161373955885718_" class="st2" d="M267.6,186.2l3.2-3.2 M267.6,183.1
						l3.2,3.2"/>
				</g>
			</g>
		</g>
	</g>
	<g id="PathCollection_2">
		<g>
			<defs>
				<rect id="SVGID_00000166668757623371670700000009689629243483382683_" x="68.5" y="9.7" width="382.6" height="279.8"/>
			</defs>
			<clipPath id="SVGID_00000127032603665241800390000001395116943783432350_">
				<use xlink:href="#SVGID_00000166668757623371670700000009689629243483382683_"  style="overflow:visible;"/>
			</clipPath>
			<g style="clip-path:url(#SVGID_00000127032603665241800390000001395116943783432350_);">
				<g>
					<path id="m8fd82d7e91" class="st4" d="M274,166c0.6,0,1.2-0.2,1.6-0.7c0.4-0.4,0.7-1,0.7-1.6s-0.2-1.2-0.7-1.6
						c-0.4-0.4-1-0.7-1.6-0.7s-1.2,0.2-1.6,0.7c-0.4,0.4-0.7,1-0.7,1.6s0.2,1.2,0.7,1.6C272.8,165.8,273.4,166,274,166z"/>
				</g>
				<g>
					<path id="m8fd82d7e91_00000045611889915197075500000007758748863905892278_" class="st4" d="M319.2,128.4
						c0.6,0,1.2-0.2,1.6-0.7c0.4-0.4,0.7-1,0.7-1.6s-0.2-1.2-0.7-1.6c-0.4-0.4-1-0.7-1.6-0.7s-1.2,0.2-1.6,0.7
						c-0.4,0.4-0.7,1-0.7,1.6s0.2,1.2,0.7,1.6C318,128.2,318.6,128.4,319.2,128.4z"/>
				</g>
				<g>
					<path id="m8fd82d7e91_00000177459716513928164570000005507767985741273266_" class="st4" d="M194.2,208.4
						c0.6,0,1.2-0.2,1.6-0.7c0.4-0.4,0.7-1,0.7-1.6s-0.2-1.2-0.7-1.6c-0.4-0.4-1-0.7-1.6-0.7s-1.2,0.2-1.6,0.7
						c-0.4,0.4-0.7,1-0.7,1.6s0.2,1.2,0.7,1.6C193,208.1,193.6,208.4,194.2,208.4z"/>
				</g>
				<g>
					<path id="m8fd82d7e91_00000099649032180904188910000004355402627115064210_" class="st4" d="M333.7,123c0.6,0,1.2-0.2,1.6-0.7
						c0.4-0.4,0.7-1,0.7-1.6s-0.2-1.2-0.7-1.6c-0.4-0.4-1-0.7-1.6-0.7s-1.2,0.2-1.6,0.7c-0.4,0.4-0.7,1-0.7,1.6s0.2,1.2,0.7,1.6
						C332.6,122.7,333.2,123,333.7,123z"/>
				</g>
				<g>
					<path id="m8fd82d7e91_00000176041365764269354810000007718476599174649015_" class="st4" d="M288.1,154.6
						c0.6,0,1.2-0.2,1.6-0.7c0.4-0.4,0.7-1,0.7-1.6s-0.2-1.2-0.7-1.6c-0.4-0.4-1-0.7-1.6-0.7s-1.2,0.2-1.6,0.7
						c-0.4,0.4-0.7,1-0.7,1.6s0.2,1.2,0.7,1.6C286.9,154.3,287.5,154.6,288.1,154.6z"/>
				</g>
				<g>
					<path id="m8fd82d7e91_00000116227182454233418470000000639662016113527217_" class="st4" d="M224.6,191c0.6,0,1.2-0.2,1.6-0.7
						c0.4-0.4,0.7-1,0.7-1.6s-0.2-1.2-0.7-1.6c-0.4-0.4-1-0.7-1.6-0.7s-1.2,0.2-1.6,0.7c-0.4,0.4-0.7,1-0.7,1.6s0.2,1.2,0.7,1.6
						C223.4,190.8,224,191,224.6,191z"/>
				</g>
				<g>
					<path id="m8fd82d7e91_00000050656907472244620870000009016596398985743289_" class="st4" d="M285.8,157.9
						c0.6,0,1.2-0.2,1.6-0.7c0.4-0.4,0.7-1,0.7-1.6s-0.2-1.2-0.7-1.6c-0.4-0.4-1-0.7-1.6-0.7s-1.2,0.2-1.6,0.7
						c-0.4,0.4-0.7,1-0.7,1.6s0.2,1.2,0.7,1.6C284.6,157.7,285.2,157.9,285.8,157.9z"/>
				</g>
				<g>
					<path id="m8fd82d7e91_00000050637712397471115310000007687480526742483377_" class="st4" d="M318.7,131.5
						c0.6,0,1.2-0.2,1.6-0.7c0.4-0.4,0.7-1,0.7-1.6s-0.2-1.2-0.7-1.6c-0.4-0.4-1-0.7-1.6-0.7s-1.2,0.2-1.6,0.7
						c-0.4,0.4-0.7,1-0.7,1.6s0.2,1.2,0.7,1.6C317.5,131.2,318.1,131.5,318.7,131.5z"/>
				</g>
				<g>
					<path id="m8fd82d7e91_00000108987821033937750820000006469899419017710237_" class="st4" d="M156.3,227.5
						c0.6,0,1.2-0.2,1.6-0.7c0.4-0.4,0.7-1,0.7-1.6s-0.2-1.2-0.7-1.6c-0.4-0.4-1-0.7-1.6-0.7s-1.2,0.2-1.6,0.7
						c-0.4,0.4-0.7,1-0.7,1.6s0.2,1.2,0.7,1.6C155.2,227.3,155.7,227.5,156.3,227.5z"/>
				</g>
				<g>
					<path id="m8fd82d7e91_00000171717286730998283060000007020753412154511745_" class="st4" d="M122.2,245c0.6,0,1.2-0.2,1.6-0.7
						c0.4-0.4,0.7-1,0.7-1.6s-0.2-1.2-0.7-1.6c-0.4-0.4-1-0.7-1.6-0.7s-1.2,0.2-1.6,0.7c-0.4,0.4-0.7,1-0.7,1.6s0.2,1.2,0.7,1.6
						C121,244.7,121.6,245,122.2,245z"/>
				</g>
				<g>
					<path id="m8fd82d7e91_00000016793427057959608860000002037028381871977359_" class="st4" d="M231.8,190.1
						c0.6,0,1.2-0.2,1.6-0.7c0.4-0.4,0.7-1,0.7-1.6s-0.2-1.2-0.7-1.6c-0.4-0.4-1-0.7-1.6-0.7s-1.2,0.2-1.6,0.7
						c-0.4,0.4-0.7,1-0.7,1.6s0.2,1.2,0.7,1.6C230.7,189.9,231.3,190.1,231.8,190.1z"/>
				</g>
				<g>
					<path id="m8fd82d7e91_00000104692396395443887260000005238032157131886742_" class="st4" d="M257,174c0.6,0,1.2-0.2,1.6-0.7
						c0.4-0.4,0.7-1,0.7-1.6s-0.2-1.2-0.7-1.6c-0.4-0.4-1-0.7-1.6-0.7s-1.2,0.2-1.6,0.7c-0.4,0.4-0.7,1-0.7,1.6s0.2,1.2,0.7,1.6
						C255.8,173.8,256.4,174,257,174z"/>
				</g>
				<g>
					<path id="m8fd82d7e91_00000169516398197273912160000007808671221239309700_" class="st4" d="M238.1,190.4
						c0.6,0,1.2-0.2,1.6-0.7c0.4-0.4,0.7-1,0.7-1.6s-0.2-1.2-0.7-1.6c-0.4-0.4-1-0.7-1.6-0.7s-1.2,0.2-1.6,0.7
						c-0.4,0.4-0.7,1-0.7,1.6s0.2,1.2,0.7,1.6C236.9,190.1,237.5,190.4,238.1,190.4z"/>
				</g>
				<g>
					<path id="m8fd82d7e91_00000121960745888837006740000008103187646896081808_" class="st4" d="M259.8,174.3
						c0.6,0,1.2-0.2,1.6-0.7c0.4-0.4,0.7-1,0.7-1.6s-0.2-1.2-0.7-1.6c-0.4-0.4-1-0.7-1.6-0.7s-1.2,0.2-1.6,0.7
						c-0.4,0.4-0.7,1-0.7,1.6s0.2,1.2,0.7,1.6C258.6,174.1,259.2,174.3,259.8,174.3z"/>
				</g>
				<g>
					<path id="m8fd82d7e91_00000043457155931612688830000009395613445037290685_" class="st4" d="M215.5,200.9
						c0.6,0,1.2-0.2,1.6-0.7c0.4-0.4,0.7-1,0.7-1.6s-0.2-1.2-0.7-1.6c-0.4-0.4-1-0.7-1.6-0.7s-1.2,0.2-1.6,0.7
						c-0.4,0.4-0.7,1-0.7,1.6s0.2,1.2,0.7,1.6C214.3,200.7,214.9,200.9,215.5,200.9z"/>
				</g>
				<g>
					<path id="m8fd82d7e91_00000033334850020559623340000012363667642861794486_" class="st4" d="M209.9,199.6
						c0.6,0,1.2-0.2,1.6-0.7c0.4-0.4,0.7-1,0.7-1.6s-0.2-1.2-0.7-1.6c-0.4-0.4-1-0.7-1.6-0.7s-1.2,0.2-1.6,0.7
						c-0.4,0.4-0.7,1-0.7,1.6s0.2,1.2,0.7,1.6C208.8,199.4,209.3,199.6,209.9,199.6z"/>
				</g>
				<g>
					<path id="m8fd82d7e91_00000058557617613070748670000006669633167353621660_" class="st4" d="M337.2,118.3
						c0.6,0,1.2-0.2,1.6-0.7c0.4-0.4,0.7-1,0.7-1.6s-0.2-1.2-0.7-1.6c-0.4-0.4-1-0.7-1.6-0.7s-1.2,0.2-1.6,0.7
						c-0.4,0.4-0.7,1-0.7,1.6s0.2,1.2,0.7,1.6C336,118.1,336.6,118.3,337.2,118.3z"/>
				</g>
				<g>
					<path id="m8fd82d7e91_00000029043421434067115980000010177662543367219368_" class="st4" d="M433.7,30c0.6,0,1.2-0.2,1.6-0.7
						c0.4-0.4,0.7-1,0.7-1.6s-0.2-1.2-0.7-1.6c-0.4-0.4-1-0.7-1.6-0.7s-1.2,0.2-1.6,0.7c-0.4,0.4-0.7,1-0.7,1.6s0.2,1.2,0.7,1.6
						C432.5,29.8,433.1,30,433.7,30z"/>
				</g>
				<g>
					<path id="m8fd82d7e91_00000127037710012113698680000009708265917921829254_" class="st4" d="M302.9,147c0.6,0,1.2-0.2,1.6-0.7
						c0.4-0.4,0.7-1,0.7-1.6s-0.2-1.2-0.7-1.6c-0.4-0.4-1-0.7-1.6-0.7s-1.2,0.2-1.6,0.7c-0.4,0.4-0.7,1-0.7,1.6s0.2,1.2,0.7,1.6
						C301.8,146.8,302.3,147,302.9,147z"/>
				</g>
				<g>
					<path id="m8fd82d7e91_00000013171831869141622910000016358067673659672465_" class="st4" d="M150.3,233.9
						c0.6,0,1.2-0.2,1.6-0.7c0.4-0.4,0.7-1,0.7-1.6s-0.2-1.2-0.7-1.6c-0.4-0.4-1-0.7-1.6-0.7s-1.2,0.2-1.6,0.7
						c-0.4,0.4-0.7,1-0.7,1.6s0.2,1.2,0.7,1.6C149.2,233.7,149.8,233.9,150.3,233.9z"/>
				</g>
				<g>
					<path id="m8fd82d7e91_00000080183933890489077270000015426232539081906350_" class="st4" d="M173.3,218.7
						c0.6,0,1.2-0.2,1.6-0.7c0.4-0.4,0.7-1,0.7-1.6s-0.2-1.2-0.7-1.6c-0.4-0.4-1-0.7-1.6-0.7s-1.2,0.2-1.6,0.7
						c-0.4,0.4-0.7,1-0.7,1.6s0.2,1.2,0.7,1.6C172.1,218.5,172.7,218.7,173.3,218.7z"/>
				</g>
				<g>
					<path id="m8fd82d7e91_00000172432154964493213600000013201388530024617373_" class="st4" d="M349.3,120.3
						c0.6,0,1.2-0.2,1.6-0.7c0.4-0.4,0.7-1,0.7-1.6s-0.2-1.2-0.7-1.6c-0.4-0.4-1-0.7-1.6-0.7s-1.2,0.2-1.6,0.7
						c-0.4,0.4-0.7,1-0.7,1.6s0.2,1.2,0.7,1.6C348.2,120.1,348.7,120.3,349.3,120.3z"/>
				</g>
				<g>
					<path id="m8fd82d7e91_00000136409863020842536780000003928409159765371041_" class="st4" d="M265.2,172.8
						c0.6,0,1.2-0.2,1.6-0.7c0.4-0.4,0.7-1,0.7-1.6s-0.2-1.2-0.7-1.6c-0.4-0.4-1-0.7-1.6-0.7s-1.2,0.2-1.6,0.7
						c-0.4,0.4-0.7,1-0.7,1.6s0.2,1.2,0.7,1.6C264,172.5,264.6,172.8,265.2,172.8z"/>
				</g>
				<g>
					<path id="m8fd82d7e91_00000173860048007376858060000001912466614741747628_" class="st4" d="M368.6,104.4
						c0.6,0,1.2-0.2,1.6-0.7c0.4-0.4,0.7-1,0.7-1.6s-0.2-1.2-0.7-1.6c-0.4-0.4-1-0.7-1.6-0.7s-1.2,0.2-1.6,0.7
						c-0.4,0.4-0.7,1-0.7,1.6s0.2,1.2,0.7,1.6C367.4,104.2,368,104.4,368.6,104.4z"/>
				</g>
				<g>
					<path id="m8fd82d7e91_00000083798573354506294490000006501734340608437928_" class="st4" d="M130.6,243.2
						c0.6,0,1.2-0.2,1.6-0.7c0.4-0.4,0.7-1,0.7-1.6s-0.2-1.2-0.7-1.6c-0.4-0.4-1-0.7-1.6-0.7s-1.2,0.2-1.6,0.7
						c-0.4,0.4-0.7,1-0.7,1.6s0.2,1.2,0.7,1.6C129.4,243,130,243.2,130.6,243.2z"/>
				</g>
				<g>
					<path id="m8fd82d7e91_00000023991924545138406460000009081900618559100346_" class="st4" d="M185.2,213.6
						c0.6,0,1.2-0.2,1.6-0.7c0.4-0.4,0.7-1,0.7-1.6s-0.2-1.2-0.7-1.6c-0.4-0.4-1-0.7-1.6-0.7s-1.2,0.2-1.6,0.7
						c-0.4,0.4-0.7,1-0.7,1.6s0.2,1.2,0.7,1.6C184,213.3,184.6,213.6,185.2,213.6z"/>
				</g>
				<g>
					<path id="m8fd82d7e91_00000086654418880332421740000011470192273216641952_" class="st4" d="M349.1,112.3
						c0.6,0,1.2-0.2,1.6-0.7c0.4-0.4,0.7-1,0.7-1.6s-0.2-1.2-0.7-1.6c-0.4-0.4-1-0.7-1.6-0.7s-1.2,0.2-1.6,0.7
						c-0.4,0.4-0.7,1-0.7,1.6s0.2,1.2,0.7,1.6C348,112.1,348.5,112.3,349.1,112.3z"/>
				</g>
				<g>
					<path id="m8fd82d7e91_00000008126240943490988060000015817699025034060205_" class="st4" d="M356.8,111.2
						c0.6,0,1.2-0.2,1.6-0.7c0.4-0.4,0.7-1,0.7-1.6s-0.2-1.2-0.7-1.6c-0.4-0.4-1-0.7-1.6-0.7s-1.2,0.2-1.6,0.7
						c-0.4,0.4-0.7,1-0.7,1.6s0.2,1.2,0.7,1.6C355.6,110.9,356.2,111.2,356.8,111.2z"/>
				</g>
				<g>
					<path id="m8fd82d7e91_00000004534059503999733140000013115967933368984998_" class="st4" d="M290.4,151c0.6,0,1.2-0.2,1.6-0.7
						c0.4-0.4,0.7-1,0.7-1.6s-0.2-1.2-0.7-1.6c-0.4-0.4-1-0.7-1.6-0.7s-1.2,0.2-1.6,0.7c-0.4,0.4-0.7,1-0.7,1.6s0.2,1.2,0.7,1.6
						C289.2,150.7,289.8,151,290.4,151z"/>
				</g>
				<g>
					<path id="m8fd82d7e91_00000017487054218259836170000016235348387409654698_" class="st4" d="M175.8,217.3
						c0.6,0,1.2-0.2,1.6-0.7c0.4-0.4,0.7-1,0.7-1.6s-0.2-1.2-0.7-1.6c-0.4-0.4-1-0.7-1.6-0.7s-1.2,0.2-1.6,0.7
						c-0.4,0.4-0.7,1-0.7,1.6s0.2,1.2,0.7,1.6C174.6,217.1,175.2,217.3,175.8,217.3z"/>
				</g>
				<g>
					<path id="m8fd82d7e91_00000020371380535791976310000017128409537405175946_" class="st4" d="M296.9,153.6
						c0.6,0,1.2-0.2,1.6-0.7c0.4-0.4,0.7-1,0.7-1.6s-0.2-1.2-0.7-1.6c-0.4-0.4-1-0.7-1.6-0.7s-1.2,0.2-1.6,0.7
						c-0.4,0.4-0.7,1-0.7,1.6s0.2,1.2,0.7,1.6C295.8,153.4,296.3,153.6,296.9,153.6z"/>
				</g>
				<g>
					<path id="m8fd82d7e91_00000006665892624131861860000017156251660367651486_" class="st4" d="M184.3,215.2
						c0.6,0,1.2-0.2,1.6-0.7c0.4-0.4,0.7-1,0.7-1.6s-0.2-1.2-0.7-1.6c-0.4-0.4-1-0.7-1.6-0.7s-1.2,0.2-1.6,0.7
						c-0.4,0.4-0.7,1-0.7,1.6s0.2,1.2,0.7,1.6C183.1,215,183.7,215.2,184.3,215.2z"/>
				</g>
				<g>
					<path id="m8fd82d7e91_00000173129429649076228730000010928674410342916488_" class="st4" d="M240,185.4c0.6,0,1.2-0.2,1.6-0.7
						c0.4-0.4,0.7-1,0.7-1.6s-0.2-1.2-0.7-1.6c-0.4-0.4-1-0.7-1.6-0.7s-1.2,0.2-1.6,0.7c-0.4,0.4-0.7,1-0.7,1.6s0.2,1.2,0.7,1.6
						C238.8,185.1,239.4,185.4,240,185.4z"/>
				</g>
				<g>
					<path id="m8fd82d7e91_00000023985508190658190510000000460789733596588940_" class="st4" d="M350.6,111.9
						c0.6,0,1.2-0.2,1.6-0.7c0.4-0.4,0.7-1,0.7-1.6s-0.2-1.2-0.7-1.6c-0.4-0.4-1-0.7-1.6-0.7s-1.2,0.2-1.6,0.7
						c-0.4,0.4-0.7,1-0.7,1.6s0.2,1.2,0.7,1.6C349.4,111.7,350,111.9,350.6,111.9z"/>
				</g>
				<g>
					<path id="m8fd82d7e91_00000142142648235348587410000005844986457096916115_" class="st4" d="M305.2,136.7
						c0.6,0,1.2-0.2,1.6-0.7c0.4-0.4,0.7-1,0.7-1.6s-0.2-1.2-0.7-1.6c-0.4-0.4-1-0.7-1.6-0.7s-1.2,0.2-1.6,0.7
						c-0.4,0.4-0.7,1-0.7,1.6s0.2,1.2,0.7,1.6C304.1,136.4,304.7,136.7,305.2,136.7z"/>
				</g>
				<g>
					<path id="m8fd82d7e91_00000052073286560593687150000016435256033747522219_" class="st4" d="M269.4,166.9
						c0.6,0,1.2-0.2,1.6-0.7c0.4-0.4,0.7-1,0.7-1.6s-0.2-1.2-0.7-1.6c-0.4-0.4-1-0.7-1.6-0.7s-1.2,0.2-1.6,0.7
						c-0.4,0.4-0.7,1-0.7,1.6s0.2,1.2,0.7,1.6C268.2,166.7,268.8,166.9,269.4,166.9z"/>
				</g>
				<g>
					<path id="m8fd82d7e91_00000121959819013135396260000011222377872465866887_" class="st4" d="M127.1,241.4
						c0.6,0,1.2-0.2,1.6-0.7c0.4-0.4,0.7-1,0.7-1.6s-0.2-1.2-0.7-1.6c-0.4-0.4-1-0.7-1.6-0.7s-1.2,0.2-1.6,0.7
						c-0.4,0.4-0.7,1-0.7,1.6s0.2,1.2,0.7,1.6C126,241.2,126.5,241.4,127.1,241.4z"/>
				</g>
				<g>
					<path id="m8fd82d7e91_00000066486328515188859390000005187705641174925959_" class="st4" d="M326,131.8c0.6,0,1.2-0.2,1.6-0.7
						c0.4-0.4,0.7-1,0.7-1.6s-0.2-1.2-0.7-1.6c-0.4-0.4-1-0.7-1.6-0.7s-1.2,0.2-1.6,0.7c-0.4,0.4-0.7,1-0.7,1.6s0.2,1.2,0.7,1.6
						C324.9,131.6,325.4,131.8,326,131.8z"/>
				</g>
				<g>
					<path id="m8fd82d7e91_00000139261090236868203840000002330756746934881959_" class="st4" d="M208.8,201.7
						c0.6,0,1.2-0.2,1.6-0.7c0.4-0.4,0.7-1,0.7-1.6s-0.2-1.2-0.7-1.6c-0.4-0.4-1-0.7-1.6-0.7s-1.2,0.2-1.6,0.7
						c-0.4,0.4-0.7,1-0.7,1.6s0.2,1.2,0.7,1.6C207.7,201.5,208.2,201.7,208.8,201.7z"/>
				</g>
				<g>
					<path id="m8fd82d7e91_00000160891831037530404440000003722259897919632793_" class="st4" d="M313.7,133.2
						c0.6,0,1.2-0.2,1.6-0.7c0.4-0.4,0.7-1,0.7-1.6s-0.2-1.2-0.7-1.6c-0.4-0.4-1-0.7-1.6-0.7s-1.2,0.2-1.6,0.7
						c-0.4,0.4-0.7,1-0.7,1.6s0.2,1.2,0.7,1.6C312.6,132.9,313.2,133.2,313.7,133.2z"/>
				</g>
				<g>
					<path id="m8fd82d7e91_00000093148957131167136350000012483013781128603317_" class="st4" d="M223.6,194.8
						c0.6,0,1.2-0.2,1.6-0.7c0.4-0.4,0.7-1,0.7-1.6s-0.2-1.2-0.7-1.6c-0.4-0.4-1-0.7-1.6-0.7s-1.2,0.2-1.6,0.7
						c-0.4,0.4-0.7,1-0.7,1.6s0.2,1.2,0.7,1.6C222.4,194.6,223,194.8,223.6,194.8z"/>
				</g>
				<g>
					<path id="m8fd82d7e91_00000083072904204707486500000016237376288164846743_" class="st4" d="M284.7,158.3
						c0.6,0,1.2-0.2,1.6-0.7c0.4-0.4,0.7-1,0.7-1.6s-0.2-1.2-0.7-1.6c-0.4-0.4-1-0.7-1.6-0.7s-1.2,0.2-1.6,0.7
						c-0.4,0.4-0.7,1-0.7,1.6s0.2,1.2,0.7,1.6C283.5,158.1,284.1,158.3,284.7,158.3z"/>
				</g>
				<g>
					<path id="m8fd82d7e91_00000041266163497291917170000010419437713155575202_" class="st4" d="M258.4,167.1
						c0.6,0,1.2-0.2,1.6-0.7c0.4-0.4,0.7-1,0.7-1.6s-0.2-1.2-0.7-1.6c-0.4-0.4-1-0.7-1.6-0.7s-1.2,0.2-1.6,0.7
						c-0.4,0.4-0.7,1-0.7,1.6s0.2,1.2,0.7,1.6C257.2,166.8,257.8,167.1,258.4,167.1z"/>
				</g>
				<g>
					<path id="m8fd82d7e91_00000181802765898010215210000008403293461301100464_" class="st4" d="M183.6,214.2
						c0.6,0,1.2-0.2,1.6-0.7c0.4-0.4,0.7-1,0.7-1.6s-0.2-1.2-0.7-1.6c-0.4-0.4-1-0.7-1.6-0.7s-1.2,0.2-1.6,0.7
						c-0.4,0.4-0.7,1-0.7,1.6s0.2,1.2,0.7,1.6C182.4,214,183,214.2,183.6,214.2z"/>
				</g>
				<g>
					<path id="m8fd82d7e91_00000150091531835569004220000006896822271646890386_" class="st4" d="M267,167.7c0.6,0,1.2-0.2,1.6-0.7
						c0.4-0.4,0.7-1,0.7-1.6s-0.2-1.2-0.7-1.6c-0.4-0.4-1-0.7-1.6-0.7s-1.2,0.2-1.6,0.7c-0.4,0.4-0.7,1-0.7,1.6s0.2,1.2,0.7,1.6
						C265.9,167.5,266.4,167.7,267,167.7z"/>
				</g>
				<g>
					<path id="m8fd82d7e91_00000040555524361424263130000018003177326473110957_" class="st4" d="M336.9,116.6
						c0.6,0,1.2-0.2,1.6-0.7c0.4-0.4,0.7-1,0.7-1.6s-0.2-1.2-0.7-1.6c-0.4-0.4-1-0.7-1.6-0.7s-1.2,0.2-1.6,0.7
						c-0.4,0.4-0.7,1-0.7,1.6s0.2,1.2,0.7,1.6C335.7,116.4,336.3,116.6,336.9,116.6z"/>
				</g>
				<g>
					<path id="m8fd82d7e91_00000077311962097066939940000010611903840036728482_" class="st4" d="M170.5,223.9
						c0.6,0,1.2-0.2,1.6-0.7c0.4-0.4,0.7-1,0.7-1.6s-0.2-1.2-0.7-1.6c-0.4-0.4-1-0.7-1.6-0.7s-1.2,0.2-1.6,0.7
						c-0.4,0.4-0.7,1-0.7,1.6s0.2,1.2,0.7,1.6C169.3,223.7,169.9,223.9,170.5,223.9z"/>
				</g>
				<g>
					<path id="m8fd82d7e91_00000028316485680641693520000015842680336825963444_" class="st4" d="M252.6,181.3
						c0.6,0,1.2-0.2,1.6-0.7c0.4-0.4,0.7-1,0.7-1.6s-0.2-1.2-0.7-1.6c-0.4-0.4-1-0.7-1.6-0.7s-1.2,0.2-1.6,0.7
						c-0.4,0.4-0.7,1-0.7,1.6s0.2,1.2,0.7,1.6C251.4,181.1,252,181.3,252.6,181.3z"/>
				</g>
				<g>
					<path id="m8fd82d7e91_00000170281003837155885060000003570683944979230390_" class="st4" d="M319.4,132.2
						c0.6,0,1.2-0.2,1.6-0.7c0.4-0.4,0.7-1,0.7-1.6s-0.2-1.2-0.7-1.6c-0.4-0.4-1-0.7-1.6-0.7s-1.2,0.2-1.6,0.7
						c-0.4,0.4-0.7,1-0.7,1.6s0.2,1.2,0.7,1.6C318.2,132,318.8,132.2,319.4,132.2z"/>
				</g>
				<g>
					<path id="m8fd82d7e91_00000070114595079052784890000002481545118228866728_" class="st4" d="M382.9,76.4c0.6,0,1.2-0.2,1.6-0.7
						c0.4-0.4,0.7-1,0.7-1.6s-0.2-1.2-0.7-1.6c-0.4-0.4-1-0.7-1.6-0.7s-1.2,0.2-1.6,0.7c-0.4,0.4-0.7,1-0.7,1.6s0.2,1.2,0.7,1.6
						C381.7,76.2,382.3,76.4,382.9,76.4z"/>
				</g>
				<g>
					<path id="m8fd82d7e91_00000083785635256447380210000017742173210259917497_" class="st4" d="M342.9,119.4
						c0.6,0,1.2-0.2,1.6-0.7c0.4-0.4,0.7-1,0.7-1.6s-0.2-1.2-0.7-1.6c-0.4-0.4-1-0.7-1.6-0.7s-1.2,0.2-1.6,0.7
						c-0.4,0.4-0.7,1-0.7,1.6s0.2,1.2,0.7,1.6C341.7,119.2,342.3,119.4,342.9,119.4z"/>
				</g>
				<g>
					<path id="m8fd82d7e91_00000024699715921959962400000016260611633290937772_" class="st4" d="M225.4,191.6
						c0.6,0,1.2-0.2,1.6-0.7c0.4-0.4,0.7-1,0.7-1.6s-0.2-1.2-0.7-1.6c-0.4-0.4-1-0.7-1.6-0.7s-1.2,0.2-1.6,0.7
						c-0.4,0.4-0.7,1-0.7,1.6s0.2,1.2,0.7,1.6C224.3,191.3,224.8,191.6,225.4,191.6z"/>
				</g>
				<g>
					<path id="m8fd82d7e91_00000073704573636930698850000011462487112952568250_" class="st4" d="M264.2,174.6
						c0.6,0,1.2-0.2,1.6-0.7c0.4-0.4,0.7-1,0.7-1.6s-0.2-1.2-0.7-1.6c-0.4-0.4-1-0.7-1.6-0.7s-1.2,0.2-1.6,0.7
						c-0.4,0.4-0.7,1-0.7,1.6s0.2,1.2,0.7,1.6C263,174.4,263.6,174.6,264.2,174.6z"/>
				</g>
				<g>
					<path id="m8fd82d7e91_00000143580984371186851580000003379762678115758271_" class="st4" d="M205.8,203.1
						c0.6,0,1.2-0.2,1.6-0.7c0.4-0.4,0.7-1,0.7-1.6s-0.2-1.2-0.7-1.6c-0.4-0.4-1-0.7-1.6-0.7s-1.2,0.2-1.6,0.7
						c-0.4,0.4-0.7,1-0.7,1.6s0.2,1.2,0.7,1.6C204.7,202.8,205.2,203.1,205.8,203.1z"/>
				</g>
				<g>
					<path id="m8fd82d7e91_00000034808743160343590050000009853417689500659363_" class="st4" d="M312,135.7c0.6,0,1.2-0.2,1.6-0.7
						c0.4-0.4,0.7-1,0.7-1.6s-0.2-1.2-0.7-1.6c-0.4-0.4-1-0.7-1.6-0.7s-1.2,0.2-1.6,0.7c-0.4,0.4-0.7,1-0.7,1.6s0.2,1.2,0.7,1.6
						C310.9,135.5,311.5,135.7,312,135.7z"/>
				</g>
				<g>
					<path id="m8fd82d7e91_00000045589135658020698030000013913156376461622954_" class="st4" d="M132.9,242.3
						c0.6,0,1.2-0.2,1.6-0.7c0.4-0.4,0.7-1,0.7-1.6s-0.2-1.2-0.7-1.6c-0.4-0.4-1-0.7-1.6-0.7s-1.2,0.2-1.6,0.7
						c-0.4,0.4-0.7,1-0.7,1.6s0.2,1.2,0.7,1.6C131.7,242,132.3,242.3,132.9,242.3z"/>
				</g>
				<g>
					<path id="m8fd82d7e91_00000052080159435639386350000018071518546398450312_" class="st4" d="M262.2,174.4
						c0.6,0,1.2-0.2,1.6-0.7c0.4-0.4,0.7-1,0.7-1.6s-0.2-1.2-0.7-1.6c-0.4-0.4-1-0.7-1.6-0.7s-1.2,0.2-1.6,0.7
						c-0.4,0.4-0.7,1-0.7,1.6s0.2,1.2,0.7,1.6C261.1,174.2,261.6,174.4,262.2,174.4z"/>
				</g>
				<g>
					<path id="m8fd82d7e91_00000142867065734906678170000006020173046448285088_" class="st4" d="M383,79.8c0.6,0,1.2-0.2,1.6-0.7
						c0.4-0.4,0.7-1,0.7-1.6s-0.2-1.2-0.7-1.6c-0.4-0.4-1-0.7-1.6-0.7s-1.2,0.2-1.6,0.7c-0.4,0.4-0.7,1-0.7,1.6s0.2,1.2,0.7,1.6
						C381.9,79.5,382.4,79.8,383,79.8z"/>
				</g>
				<g>
					<path id="m8fd82d7e91_00000087374829284989983230000015318086624668987272_" class="st4" d="M323.3,127.8
						c0.6,0,1.2-0.2,1.6-0.7c0.4-0.4,0.7-1,0.7-1.6s-0.2-1.2-0.7-1.6c-0.4-0.4-1-0.7-1.6-0.7s-1.2,0.2-1.6,0.7
						c-0.4,0.4-0.7,1-0.7,1.6s0.2,1.2,0.7,1.6C322.1,127.5,322.7,127.8,323.3,127.8z"/>
				</g>
				<g>
					<path id="m8fd82d7e91_00000158750778178513963770000014173562416605970080_" class="st4" d="M345.2,112.4
						c0.6,0,1.2-0.2,1.6-0.7c0.4-0.4,0.7-1,0.7-1.6s-0.2-1.2-0.7-1.6c-0.4-0.4-1-0.7-1.6-0.7s-1.2,0.2-1.6,0.7
						c-0.4,0.4-0.7,1-0.7,1.6s0.2,1.2,0.7,1.6C344.1,112.1,344.6,112.4,345.2,112.4z"/>
				</g>
				<g>
					<path id="m8fd82d7e91_00000183217886729688381190000002157145186539096201_" class="st4" d="M173.1,223.2
						c0.6,0,1.2-0.2,1.6-0.7c0.4-0.4,0.7-1,0.7-1.6s-0.2-1.2-0.7-1.6c-0.4-0.4-1-0.7-1.6-0.7s-1.2,0.2-1.6,0.7
						c-0.4,0.4-0.7,1-0.7,1.6s0.2,1.2,0.7,1.6C171.9,222.9,172.5,223.2,173.1,223.2z"/>
				</g>
				<g>
					<path id="m8fd82d7e91_00000127750321466550634940000015884892118826650299_" class="st4" d="M254.1,175.8
						c0.6,0,1.2-0.2,1.6-0.7c0.4-0.4,0.7-1,0.7-1.6s-0.2-1.2-0.7-1.6c-0.4-0.4-1-0.7-1.6-0.7s-1.2,0.2-1.6,0.7
						c-0.4,0.4-0.7,1-0.7,1.6s0.2,1.2,0.7,1.6C252.9,175.6,253.5,175.8,254.1,175.8z"/>
				</g>
				<g>
					<path id="m8fd82d7e91_00000160887782051423659560000000238644773166543288_" class="st4" d="M293.6,152.3
						c0.6,0,1.2-0.2,1.6-0.7c0.4-0.4,0.7-1,0.7-1.6s-0.2-1.2-0.7-1.6c-0.4-0.4-1-0.7-1.6-0.7s-1.2,0.2-1.6,0.7
						c-0.4,0.4-0.7,1-0.7,1.6s0.2,1.2,0.7,1.6C292.4,152,293,152.3,293.6,152.3z"/>
				</g>
				<g>
					<path id="m8fd82d7e91_00000168097970013833171880000000469136113296415111_" class="st4" d="M219.2,192.9
						c0.6,0,1.2-0.2,1.6-0.7c0.4-0.4,0.7-1,0.7-1.6s-0.2-1.2-0.7-1.6c-0.4-0.4-1-0.7-1.6-0.7s-1.2,0.2-1.6,0.7
						c-0.4,0.4-0.7,1-0.7,1.6s0.2,1.2,0.7,1.6C218,192.7,218.6,192.9,219.2,192.9z"/>
				</g>
				<g>
					<path id="m8fd82d7e91_00000062889651616995901700000001349177329920811430_" class="st4" d="M130.3,240.2
						c0.6,0,1.2-0.2,1.6-0.7c0.4-0.4,0.7-1,0.7-1.6s-0.2-1.2-0.7-1.6c-0.4-0.4-1-0.7-1.6-0.7s-1.2,0.2-1.6,0.7
						c-0.4,0.4-0.7,1-0.7,1.6s0.2,1.2,0.7,1.6C129.2,240,129.7,240.2,130.3,240.2z"/>
				</g>
				<g>
					<path id="m8fd82d7e91_00000142891095009035679080000007229320168509706913_" class="st4" d="M258.6,170.9
						c0.6,0,1.2-0.2,1.6-0.7c0.4-0.4,0.7-1,0.7-1.6s-0.2-1.2-0.7-1.6c-0.4-0.4-1-0.7-1.6-0.7s-1.2,0.2-1.6,0.7
						c-0.4,0.4-0.7,1-0.7,1.6s0.2,1.2,0.7,1.6C257.4,170.7,258,170.9,258.6,170.9z"/>
				</g>
				<g>
					<path id="m8fd82d7e91_00000070111687681516626070000002822457446313865629_" class="st4" d="M410.2,55.9c0.6,0,1.2-0.2,1.6-0.7
						c0.4-0.4,0.7-1,0.7-1.6s-0.2-1.2-0.7-1.6c-0.4-0.4-1-0.7-1.6-0.7s-1.2,0.2-1.6,0.7c-0.4,0.4-0.7,1-0.7,1.6s0.2,1.2,0.7,1.6
						C409,55.7,409.6,55.9,410.2,55.9z"/>
				</g>
				<g>
					<path id="m8fd82d7e91_00000103222848428000324110000012041167794608366004_" class="st4" d="M253.6,175.3
						c0.6,0,1.2-0.2,1.6-0.7c0.4-0.4,0.7-1,0.7-1.6s-0.2-1.2-0.7-1.6c-0.4-0.4-1-0.7-1.6-0.7s-1.2,0.2-1.6,0.7
						c-0.4,0.4-0.7,1-0.7,1.6s0.2,1.2,0.7,1.6C252.4,175.1,253,175.3,253.6,175.3z"/>
				</g>
				<g>
					<path id="m8fd82d7e91_00000149355596987223591890000003921044267136065418_" class="st4" d="M155.9,228.7
						c0.6,0,1.2-0.2,1.6-0.7c0.4-0.4,0.7-1,0.7-1.6s-0.2-1.2-0.7-1.6c-0.4-0.4-1-0.7-1.6-0.7s-1.2,0.2-1.6,0.7
						c-0.4,0.4-0.7,1-0.7,1.6s0.2,1.2,0.7,1.6C154.8,228.4,155.4,228.7,155.9,228.7z"/>
				</g>
				<g>
					<path id="m8fd82d7e91_00000118382395186022141510000000967607045349791166_" class="st4" d="M85.9,262.3c0.6,0,1.2-0.2,1.6-0.7
						c0.4-0.4,0.7-1,0.7-1.6c0-0.6-0.2-1.2-0.7-1.6c-0.4-0.4-1-0.7-1.6-0.7s-1.2,0.2-1.6,0.7c-0.4,0.4-0.7,1-0.7,1.6
						c0,0.6,0.2,1.2,0.7,1.6C84.7,262.1,85.3,262.3,85.9,262.3z"/>
				</g>
				<g>
					<path id="m8fd82d7e91_00000047747939892787958210000003430999952530534546_" class="st4" d="M242.3,184c0.6,0,1.2-0.2,1.6-0.7
						c0.4-0.4,0.7-1,0.7-1.6s-0.2-1.2-0.7-1.6c-0.4-0.4-1-0.7-1.6-0.7s-1.2,0.2-1.6,0.7c-0.4,0.4-0.7,1-0.7,1.6s0.2,1.2,0.7,1.6
						C241.1,183.8,241.7,184,242.3,184z"/>
				</g>
				<g>
					<path id="m8fd82d7e91_00000007419956378140106670000012827961483722995884_" class="st4" d="M207.3,201.5
						c0.6,0,1.2-0.2,1.6-0.7c0.4-0.4,0.7-1,0.7-1.6s-0.2-1.2-0.7-1.6c-0.4-0.4-1-0.7-1.6-0.7s-1.2,0.2-1.6,0.7
						c-0.4,0.4-0.7,1-0.7,1.6s0.2,1.2,0.7,1.6C206.1,201.2,206.7,201.5,207.3,201.5z"/>
				</g>
				<g>
					<path id="m8fd82d7e91_00000171710863513271226690000010750033371878532491_" class="st4" d="M425.2,24.7c0.6,0,1.2-0.2,1.6-0.7
						c0.4-0.4,0.7-1,0.7-1.6s-0.2-1.2-0.7-1.6c-0.4-0.4-1-0.7-1.6-0.7s-1.2,0.2-1.6,0.7c-0.4,0.4-0.7,1-0.7,1.6s0.2,1.2,0.7,1.6
						C424.1,24.4,424.6,24.7,425.2,24.7z"/>
				</g>
				<g>
					<path id="m8fd82d7e91_00000013875871829063357750000001752478149871406977_" class="st4" d="M415.5,53.4c0.6,0,1.2-0.2,1.6-0.7
						c0.4-0.4,0.7-1,0.7-1.6s-0.2-1.2-0.7-1.6c-0.4-0.4-1-0.7-1.6-0.7s-1.2,0.2-1.6,0.7c-0.4,0.4-0.7,1-0.7,1.6s0.2,1.2,0.7,1.6
						C414.4,53.1,414.9,53.4,415.5,53.4z"/>
				</g>
				<g>
					<path id="m8fd82d7e91_00000032632783689677819900000016202418212691971742_" class="st4" d="M240.9,183c0.6,0,1.2-0.2,1.6-0.7
						c0.4-0.4,0.7-1,0.7-1.6s-0.2-1.2-0.7-1.6c-0.4-0.4-1-0.7-1.6-0.7s-1.2,0.2-1.6,0.7c-0.4,0.4-0.7,1-0.7,1.6s0.2,1.2,0.7,1.6
						C239.7,182.7,240.3,183,240.9,183z"/>
				</g>
				<g>
					<path id="m8fd82d7e91_00000010997219446900706140000010422942441437439381_" class="st4" d="M233.4,188.7
						c0.6,0,1.2-0.2,1.6-0.7c0.4-0.4,0.7-1,0.7-1.6s-0.2-1.2-0.7-1.6c-0.4-0.4-1-0.7-1.6-0.7s-1.2,0.2-1.6,0.7
						c-0.4,0.4-0.7,1-0.7,1.6s0.2,1.2,0.7,1.6C232.2,188.4,232.8,188.7,233.4,188.7z"/>
				</g>
				<g>
					<path id="m8fd82d7e91_00000115480206588951725910000016191819045199121846_" class="st4" d="M181,219.9c0.6,0,1.2-0.2,1.6-0.7
						c0.4-0.4,0.7-1,0.7-1.6s-0.2-1.2-0.7-1.6c-0.4-0.4-1-0.7-1.6-0.7s-1.2,0.2-1.6,0.7c-0.4,0.4-0.7,1-0.7,1.6s0.2,1.2,0.7,1.6
						C179.8,219.7,180.4,219.9,181,219.9z"/>
				</g>
				<g>
					<path id="m8fd82d7e91_00000051353795443152239610000012676806858574395321_" class="st4" d="M247.4,178.8
						c0.6,0,1.2-0.2,1.6-0.7c0.4-0.4,0.7-1,0.7-1.6s-0.2-1.2-0.7-1.6c-0.4-0.4-1-0.7-1.6-0.7s-1.2,0.2-1.6,0.7
						c-0.4,0.4-0.7,1-0.7,1.6s0.2,1.2,0.7,1.6C246.2,178.6,246.8,178.8,247.4,178.8z"/>
				</g>
				<g>
					<path id="m8fd82d7e91_00000145755324499292647790000014288220764431066540_" class="st4" d="M369.4,90.5c0.6,0,1.2-0.2,1.6-0.7
						c0.4-0.4,0.7-1,0.7-1.6s-0.2-1.2-0.7-1.6c-0.4-0.4-1-0.7-1.6-0.7s-1.2,0.2-1.6,0.7c-0.4,0.4-0.7,1-0.7,1.6s0.2,1.2,0.7,1.6
						C368.2,90.2,368.8,90.5,369.4,90.5z"/>
				</g>
				<g>
					<path id="m8fd82d7e91_00000106145078072378834420000013963440174677759408_" class="st4" d="M293.6,152.4
						c0.6,0,1.2-0.2,1.6-0.7c0.4-0.4,0.7-1,0.7-1.6s-0.2-1.2-0.7-1.6c-0.4-0.4-1-0.7-1.6-0.7s-1.2,0.2-1.6,0.7
						c-0.4,0.4-0.7,1-0.7,1.6s0.2,1.2,0.7,1.6C292.4,152.2,293,152.4,293.6,152.4z"/>
				</g>
				<g>
					<path id="m8fd82d7e91_00000067930595117917029670000014043212758112095129_" class="st4" d="M402.4,67.3c0.6,0,1.2-0.2,1.6-0.7
						c0.4-0.4,0.7-1,0.7-1.6s-0.2-1.2-0.7-1.6c-0.4-0.4-1-0.7-1.6-0.7s-1.2,0.2-1.6,0.7c-0.4,0.4-0.7,1-0.7,1.6s0.2,1.2,0.7,1.6
						C401.2,67.1,401.8,67.3,402.4,67.3z"/>
				</g>
				<g>
					<path id="m8fd82d7e91_00000089569265539627859420000011696417463158001056_" class="st4" d="M122.1,243.2
						c0.6,0,1.2-0.2,1.6-0.7c0.4-0.4,0.7-1,0.7-1.6s-0.2-1.2-0.7-1.6c-0.4-0.4-1-0.7-1.6-0.7s-1.2,0.2-1.6,0.7
						c-0.4,0.4-0.7,1-0.7,1.6s0.2,1.2,0.7,1.6C120.9,242.9,121.5,243.2,122.1,243.2z"/>
				</g>
				<g>
					<path id="m8fd82d7e91_00000103255942149174207710000010420187611536236730_" class="st4" d="M266.6,167.2
						c0.6,0,1.2-0.2,1.6-0.7c0.4-0.4,0.7-1,0.7-1.6s-0.2-1.2-0.7-1.6c-0.4-0.4-1-0.7-1.6-0.7s-1.2,0.2-1.6,0.7
						c-0.4,0.4-0.7,1-0.7,1.6s0.2,1.2,0.7,1.6C265.4,166.9,266,167.2,266.6,167.2z"/>
				</g>
				<g>
					<path id="m8fd82d7e91_00000122707169708826683740000000436114675596455345_" class="st4" d="M268.2,165.3
						c0.6,0,1.2-0.2,1.6-0.7c0.4-0.4,0.7-1,0.7-1.6s-0.2-1.2-0.7-1.6c-0.4-0.4-1-0.7-1.6-0.7s-1.2,0.2-1.6,0.7
						c-0.4,0.4-0.7,1-0.7,1.6s0.2,1.2,0.7,1.6C267,165.1,267.6,165.3,268.2,165.3z"/>
				</g>
				<g>
					<path id="m8fd82d7e91_00000098912185020215199970000011636224159270842552_" class="st4" d="M186.4,211.5
						c0.6,0,1.2-0.2,1.6-0.7c0.4-0.4,0.7-1,0.7-1.6s-0.2-1.2-0.7-1.6c-0.4-0.4-1-0.7-1.6-0.7s-1.2,0.2-1.6,0.7
						c-0.4,0.4-0.7,1-0.7,1.6s0.2,1.2,0.7,1.6C185.3,211.3,185.9,211.5,186.4,211.5z"/>
				</g>
				<g>
					<path id="m8fd82d7e91_00000075878165291510336560000013522643659725533357_" class="st4" d="M258.7,175.8
						c0.6,0,1.2-0.2,1.6-0.7c0.4-0.4,0.7-1,0.7-1.6s-0.2-1.2-0.7-1.6c-0.4-0.4-1-0.7-1.6-0.7s-1.2,0.2-1.6,0.7
						c-0.4,0.4-0.7,1-0.7,1.6s0.2,1.2,0.7,1.6C257.5,175.6,258.1,175.8,258.7,175.8z"/>
				</g>
				<g>
					<path id="m8fd82d7e91_00000178893592130241035740000015182371580661114795_" class="st4" d="M138.4,239.7
						c0.6,0,1.2-0.2,1.6-0.7c0.4-0.4,0.7-1,0.7-1.6s-0.2-1.2-0.7-1.6c-0.4-0.4-1-0.7-1.6-0.7s-1.2,0.2-1.6,0.7
						c-0.4,0.4-0.7,1-0.7,1.6s0.2,1.2,0.7,1.6C137.3,239.4,137.9,239.7,138.4,239.7z"/>
				</g>
				<g>
					<path id="m8fd82d7e91_00000165919452938199962370000013627407830463389345_" class="st4" d="M349.7,109.6
						c0.6,0,1.2-0.2,1.6-0.7c0.4-0.4,0.7-1,0.7-1.6s-0.2-1.2-0.7-1.6c-0.4-0.4-1-0.7-1.6-0.7s-1.2,0.2-1.6,0.7
						c-0.4,0.4-0.7,1-0.7,1.6s0.2,1.2,0.7,1.6C348.5,109.3,349.1,109.6,349.7,109.6z"/>
				</g>
				<g>
					<path id="m8fd82d7e91_00000019666327915848423260000008320261646617100678_" class="st4" d="M314,139c0.6,0,1.2-0.2,1.6-0.7
						c0.4-0.4,0.7-1,0.7-1.6s-0.2-1.2-0.7-1.6c-0.4-0.4-1-0.7-1.6-0.7s-1.2,0.2-1.6,0.7c-0.4,0.4-0.7,1-0.7,1.6s0.2,1.2,0.7,1.6
						C312.8,138.7,313.4,139,314,139z"/>
				</g>
				<g>
					<path id="m8fd82d7e91_00000174594957535481853390000009083900221688642706_" class="st4" d="M276.3,164.3
						c0.6,0,1.2-0.2,1.6-0.7c0.4-0.4,0.7-1,0.7-1.6s-0.2-1.2-0.7-1.6c-0.4-0.4-1-0.7-1.6-0.7s-1.2,0.2-1.6,0.7
						c-0.4,0.4-0.7,1-0.7,1.6s0.2,1.2,0.7,1.6C275.2,164,275.8,164.3,276.3,164.3z"/>
				</g>
				<g>
					<path id="m8fd82d7e91_00000120524542662872568180000015805205044892582529_" class="st4" d="M124.7,246.4
						c0.6,0,1.2-0.2,1.6-0.7c0.4-0.4,0.7-1,0.7-1.6s-0.2-1.2-0.7-1.6c-0.4-0.4-1-0.7-1.6-0.7s-1.2,0.2-1.6,0.7
						c-0.4,0.4-0.7,1-0.7,1.6s0.2,1.2,0.7,1.6C123.5,246.1,124.1,246.4,124.7,246.4z"/>
				</g>
				<g>
					<path id="m8fd82d7e91_00000060004786807418987670000014470695027918911914_" class="st4" d="M238.1,193.3
						c0.6,0,1.2-0.2,1.6-0.7c0.4-0.4,0.7-1,0.7-1.6s-0.2-1.2-0.7-1.6c-0.4-0.4-1-0.7-1.6-0.7s-1.2,0.2-1.6,0.7
						c-0.4,0.4-0.7,1-0.7,1.6s0.2,1.2,0.7,1.6C237,193.1,237.6,193.3,238.1,193.3z"/>
				</g>
				<g>
					<path id="m8fd82d7e91_00000033327652206208972130000009317059524755390861_" class="st4" d="M388.5,80.3c0.6,0,1.2-0.2,1.6-0.7
						c0.4-0.4,0.7-1,0.7-1.6s-0.2-1.2-0.7-1.6c-0.4-0.4-1-0.7-1.6-0.7s-1.2,0.2-1.6,0.7c-0.4,0.4-0.7,1-0.7,1.6s0.2,1.2,0.7,1.6
						C387.4,80.1,387.9,80.3,388.5,80.3z"/>
				</g>
				<g>
					<path id="m8fd82d7e91_00000044142347753043861060000015384255393394743199_" class="st4" d="M300.9,145.3
						c0.6,0,1.2-0.2,1.6-0.7c0.4-0.4,0.7-1,0.7-1.6s-0.2-1.2-0.7-1.6c-0.4-0.4-1-0.7-1.6-0.7s-1.2,0.2-1.6,0.7
						c-0.4,0.4-0.7,1-0.7,1.6s0.2,1.2,0.7,1.6C299.8,145.1,300.3,145.3,300.9,145.3z"/>
				</g>
				<g>
					<path id="m8fd82d7e91_00000088851967194679899870000014525665721414453121_" class="st4" d="M174.5,218.8
						c0.6,0,1.2-0.2,1.6-0.7c0.4-0.4,0.7-1,0.7-1.6s-0.2-1.2-0.7-1.6c-0.4-0.4-1-0.7-1.6-0.7s-1.2,0.2-1.6,0.7
						c-0.4,0.4-0.7,1-0.7,1.6s0.2,1.2,0.7,1.6C173.3,218.6,173.9,218.8,174.5,218.8z"/>
				</g>
				<g>
					<path id="m8fd82d7e91_00000061468191792466748130000007491857563028793015_" class="st4" d="M251.8,177.7
						c0.6,0,1.2-0.2,1.6-0.7c0.4-0.4,0.7-1,0.7-1.6s-0.2-1.2-0.7-1.6c-0.4-0.4-1-0.7-1.6-0.7s-1.2,0.2-1.6,0.7
						c-0.4,0.4-0.7,1-0.7,1.6s0.2,1.2,0.7,1.6C250.7,177.5,251.2,177.7,251.8,177.7z"/>
				</g>
				<g>
					<path id="m8fd82d7e91_00000124121683412780161650000014134137327064483971_" class="st4" d="M215.1,197.5
						c0.6,0,1.2-0.2,1.6-0.7c0.4-0.4,0.7-1,0.7-1.6s-0.2-1.2-0.7-1.6c-0.4-0.4-1-0.7-1.6-0.7s-1.2,0.2-1.6,0.7
						c-0.4,0.4-0.7,1-0.7,1.6s0.2,1.2,0.7,1.6C214,197.3,214.5,197.5,215.1,197.5z"/>
				</g>
				<g>
					<path id="m8fd82d7e91_00000008846937994221858930000007733460126248499089_" class="st4" d="M306.9,142.8
						c0.6,0,1.2-0.2,1.6-0.7c0.4-0.4,0.7-1,0.7-1.6s-0.2-1.2-0.7-1.6c-0.4-0.4-1-0.7-1.6-0.7s-1.2,0.2-1.6,0.7
						c-0.4,0.4-0.7,1-0.7,1.6s0.2,1.2,0.7,1.6C305.7,142.6,306.3,142.8,306.9,142.8z"/>
				</g>
				<g>
					<path id="m8fd82d7e91_00000124884140923224153860000008856089393393549997_" class="st4" d="M154.4,230.2
						c0.6,0,1.2-0.2,1.6-0.7c0.4-0.4,0.7-1,0.7-1.6s-0.2-1.2-0.7-1.6c-0.4-0.4-1-0.7-1.6-0.7s-1.2,0.2-1.6,0.7
						c-0.4,0.4-0.7,1-0.7,1.6s0.2,1.2,0.7,1.6C153.2,230,153.8,230.2,154.4,230.2z"/>
				</g>
				<g>
					<path id="m8fd82d7e91_00000160154472624208643390000001265880477532750757_" class="st4" d="M269.2,171c0.6,0,1.2-0.2,1.6-0.7
						c0.4-0.4,0.7-1,0.7-1.6s-0.2-1.2-0.7-1.6c-0.4-0.4-1-0.7-1.6-0.7s-1.2,0.2-1.6,0.7c-0.4,0.4-0.7,1-0.7,1.6s0.2,1.2,0.7,1.6
						C268,170.7,268.6,171,269.2,171z"/>
				</g>
			</g>
		</g>
	</g>
	<g id="matplotlib.axis_1">
		<g id="xtick_1">
			<g id="line2d_1">
				<g>
					<g>
						<path id="m01bdd65da5" class="st5" d="M79.2,289.5v3.5"/>
					</g>
				</g>
			</g>
			<g id="text_1">
				<text transform="matrix(1 0 0 1 67.2007 307.1098)" class="st6"><tspan x="0" y="0" class="st7 st8"></tspan><tspan x="8.3" y="0" class="st9 st8">10</tspan></text>
			</g>
		</g>
		<g id="xtick_2">
			<g id="line2d_2">
				<g>
					<g>
						<path id="m01bdd65da5_00000057853460074916025520000004752747764645082543_" class="st5" d="M160.7,289.5v3.5"/>
					</g>
				</g>
			</g>
			<g id="text_2">
				<text transform="matrix(1 0 0 1 152.8936 307.1098)" class="st6"><tspan x="0" y="0" class="st7 st8"></tspan><tspan x="8.3" y="0" class="st9 st8">5</tspan></text>
			</g>
		</g>
		<g id="xtick_3">
			<g id="line2d_3">
				<g>
					<g>
						<path id="m01bdd65da5_00000120526298863015295050000006700526656708721075_" class="st5" d="M242.1,289.5v3.5"/>
					</g>
				</g>
			</g>
			<g id="text_3">
				<text transform="matrix(1 0 0 1 237.8276 307.1098)" class="st9 st8">0</text>
			</g>
		</g>
		<g id="xtick_4">
			<g id="line2d_4">
				<g>
					<g>
						<path id="m01bdd65da5_00000082332791271075970880000011074136373857098411_" class="st5" d="M323.5,289.5v3.5"/>
					</g>
				</g>
			</g>
			<g id="text_4">
				<text transform="matrix(1 0 0 1 319.2617 307.1098)" class="st9 st8">5</text>
			</g>
		</g>
		<g id="xtick_5">
			<g id="line2d_5">
				<g>
					<g>
						<path id="m01bdd65da5_00000076577142944730851410000014297385526202514829_" class="st5" d="M405,289.5v3.5"/>
					</g>
				</g>
			</g>
			<g id="text_5">
				<text transform="matrix(1 0 0 1 396.437 307.1098)" class="st9 st8">10</text>
			</g>
		</g>
		<g id="text_6">
			<g transform="translate(220.275 329.253875)">
				<text transform="matrix(1 0 0 1 0 -0.3281)" class="st10 st11">R</text>
				<text transform="matrix(1 0 0 1 21.7649 -0.3281)" class="st10 st11">R</text>
				<text transform="matrix(1 0 0 1 33.3195 -0.3281)" class="st10 st12"> </text>
				<text transform="matrix(1 0 0 1 11.1172 2.2969)" class="st10 st13">i</text>
				<text transform="matrix(1 0 0 1 14.2289 2.2969)" class="st10 st13">n</text>
				<text transform="matrix(1 0 0 1 32.882 2.2969)" class="st10 st13">o</text>
				<text transform="matrix(1 0 0 1 39.7344 2.2969)" class="st10 st13">u</text>
				<text transform="matrix(1 0 0 1 46.8328 2.2969)" class="st10 st13">t</text>
				<text transform="matrix(1 0 0 1 49.9445 2.2969)" class="st10 st12"> </text>
				<text transform="matrix(1 0 0 1 51.6617 -0.3681)" class="st10 st11"></text>
				<text transform="matrix(1 0 0 1 56.7477 -0.3681)" class="st10 st11">(</text>
				<text transform="matrix(1 0 0 1 62.9898 -0.3681)" class="st10 st11"></text>
				<text transform="matrix(1 0 0 1 72.7789 -0.3681)" class="st10 st11">)</text>
				<rect x="0" y="-15" width="51.7" height="1"/>
			</g>
		</g>
	</g>
	<g id="matplotlib.axis_2">
		<g id="ytick_1">
			<g id="line2d_6">
				<g>
					<g>
						<path id="m1c7dde0a72" class="st5" d="M68.5,268.4H65"/>
					</g>
				</g>
			</g>
			<g id="text_7">
				<text transform="matrix(1 0 0 1 32.2453 273.7355)" class="st9 st8">0.10</text>
			</g>
		</g>
		<g id="ytick_2">
			<g id="line2d_7">
				<g>
					<g>
						<path id="m1c7dde0a72_00000152259293378663795540000017835203539525443995_" class="st5" d="M68.5,223.1H65"/>
					</g>
				</g>
			</g>
			<g id="text_8">
				<text transform="matrix(1 0 0 1 32.2453 228.4595)" class="st9 st8">0.15</text>
			</g>
		</g>
		<g id="ytick_3">
			<g id="line2d_8">
				<g>
					<g>
						<path id="m1c7dde0a72_00000075147526195787235570000014720893986461732242_" class="st5" d="M68.5,177.9H65"/>
					</g>
				</g>
			</g>
			<g id="text_9">
				<text transform="matrix(1 0 0 1 32.2453 183.1835)" class="st9 st8">0.20</text>
			</g>
		</g>
		<g id="ytick_4">
			<g id="line2d_9">
				<g>
					<g>
						<path id="m1c7dde0a72_00000173154764127425780850000004247751557945404329_" class="st5" d="M68.5,132.6H65"/>
					</g>
				</g>
			</g>
			<g id="text_10">
				<text transform="matrix(1 0 0 1 32.2453 137.9076)" class="st9 st8">0.25</text>
			</g>
		</g>
		<g id="ytick_5">
			<g id="line2d_10">
				<g>
					<g>
						<path id="m1c7dde0a72_00000137123645228274012220000004927479150387118464_" class="st5" d="M68.5,87.3H65"/>
					</g>
				</g>
			</g>
			<g id="text_11">
				<text transform="matrix(1 0 0 1 32.2453 92.6316)" class="st9 st8">0.30</text>
			</g>
		</g>
		<g id="ytick_6">
			<g id="line2d_11">
				<g>
					<g>
						<path id="m1c7dde0a72_00000090266223890796192650000012603467024102102446_" class="st5" d="M68.5,42H65"/>
					</g>
				</g>
			</g>
			<g id="text_12">
				<text transform="matrix(1 0 0 1 32.2453 47.3557)" class="st9 st8">0.35</text>
			</g>
		</g>
		<g id="text_13">
			<text transform="matrix(6.123234e-17 -1 1 6.123234e-17 23.0106 204.4941)" class="st9 st11">Predicted FDR</text>
		</g>
	</g>
	<g id="line2d_12">
		<g>
			<defs>
				<rect id="SVGID_00000114074577745588142650000010894548112609857968_" x="68.5" y="9.7" width="382.6" height="279.8"/>
			</defs>
			<clipPath id="SVGID_00000168110414872169546260000015444029842589852048_">
				<use xlink:href="#SVGID_00000114074577745588142650000010894548112609857968_"  style="overflow:visible;"/>
			</clipPath>
			
				<path style="clip-path:url(#SVGID_00000168110414872169546260000015444029842589852048_);fill:none;stroke:#008000;stroke-width:1.5;stroke-linejoin:round;stroke-dasharray:1.5,2.475;" d="
				M85.9,276.8L433.7,54.3"/>
		</g>
	</g>
	<g id="line2d_13">
		<g>
			<defs>
				<rect id="SVGID_00000114772193913550377480000005504917270678960574_" x="68.5" y="9.7" width="382.6" height="279.8"/>
			</defs>
			<clipPath id="SVGID_00000003794185186260680850000000887903618166280634_">
				<use xlink:href="#SVGID_00000114772193913550377480000005504917270678960574_"  style="overflow:visible;"/>
			</clipPath>
			
				<path style="clip-path:url(#SVGID_00000003794185186260680850000000887903618166280634_);fill:none;stroke:#000000;stroke-width:1.5;stroke-linejoin:round;stroke-opacity:0.3;stroke-dasharray:5.55,2.4;" d="
				M242.1,289.5V9.7"/>
		</g>
	</g>
	<g id="line2d_14">
		<g>
			<defs>
				<rect id="SVGID_00000111883600890022932870000002010937449077498281_" x="68.5" y="9.7" width="382.6" height="279.8"/>
			</defs>
			<clipPath id="SVGID_00000005239993256174479070000008251489563811805843_">
				<use xlink:href="#SVGID_00000111883600890022932870000002010937449077498281_"  style="overflow:visible;"/>
			</clipPath>
			
				<path style="clip-path:url(#SVGID_00000005239993256174479070000008251489563811805843_);fill:none;stroke:#000000;stroke-width:1.5;stroke-linejoin:round;stroke-opacity:0.3;stroke-dasharray:5.55,2.4;" d="
				M68.5,177.9h382.6"/>
		</g>
	</g>
	<g id="patch_3">
		<path class="st17" d="M68.5,289.5V9.7"/>
	</g>
	<g id="patch_4">
		<path class="st17" d="M451.1,289.5V9.7"/>
	</g>
	<g id="patch_5">
		<path class="st17" d="M68.5,289.5h382.6"/>
	</g>
	<g id="patch_6">
		<path class="st17" d="M68.5,9.7h382.6"/>
	</g>
</g>
</svg>
