<?xml version="1.0" encoding="utf-8"?>
<!-- Generator: Adobe Illustrator 27.5.0, SVG Export Plug-In . SVG Version: 6.00 Build 0)  -->
<svg version="1.1" id="Layer_1" xmlns="http://www.w3.org/2000/svg" xmlns:xlink="http://www.w3.org/1999/xlink" x="0px" y="0px"
	 viewBox="0 0 460.8 345.6" style="enable-background:new 0 0 460.8 345.6;" xml:space="preserve">
<style type="text/css">
	
		.st0{clip-path:url(#SVGID_00000074415332338175130710000002149770163605364144_);fill:none;stroke:#1F77B4;stroke-width:1.5;stroke-linecap:square;stroke-linejoin:round;}
	
		.st1{clip-path:url(#SVGID_00000003076961956006138520000009242786114928130957_);fill:none;stroke:#FF7F0E;stroke-width:1.5;stroke-linecap:square;stroke-linejoin:round;}
</style>
<g id="line2d_13">
	<g>
		<defs>
			<rect id="SVGID_1_" x="36.9" y="9.7" width="414.2" height="309.8"/>
		</defs>
		<clipPath id="SVGID_00000091719388840256529310000015680503655310234768_">
			<use xlink:href="#SVGID_1_"  style="overflow:visible;"/>
		</clipPath>
		
			<path style="clip-path:url(#SVGID_00000091719388840256529310000015680503655310234768_);fill:none;stroke:#1F77B4;stroke-width:1.5;stroke-linecap:square;stroke-linejoin:round;" d="
			M55.7,264.4l2.6-0.3l3-0.6l3.8-0.9l5.3-1.6l4.9-1.7l4.9-1.9l4.9-2.2l4.1-2.1l3.4-1.9l3.4-2.2l4.1-3l5.3-3.8l2.6-1.6l2.3-1.2
			l2.3-0.9l2.6-0.8l6.4-1.8l1.9-0.8l1.9-1.1l1.9-1.3l2.3-1.9l3.8-3.6l3-2.7l1.9-1.4l1.9-1.1l1.9-0.8l1.9-0.5l2.3-0.4l4.5-0.7
			l1.9-0.6l1.5-0.7l1.5-0.9l1.5-1.1l1.9-1.7l2.3-2.5l3.8-4.6l3-3.6l2.3-2.3l1.9-1.7l1.9-1.4l1.9-1.2l2.3-1.1l2.3-0.8l2.3-0.6
			l2.3-0.3l1.9-0.1l1.9,0.1l1.9,0.4l1.9,0.6l1.9,0.8l2.3,1.2l2.6,1.7l6.4,4.3l2.3,1.2l1.9,0.7l1.5,0.3l1.5,0.1l1.5-0.1l1.5-0.3
			l1.5-0.6l1.5-0.8l1.5-1l1.9-1.6l2.3-2.2l3-3.3l5.7-6.3l3-3l3.4-3l6.4-5.6l2.6-2.7l2.3-2.6l2.3-2.9l2.3-3.2l2.6-4.1l3-5.2l3.4-6.3
			l4.1-8.2l6.8-14l5.7-11.5l4.5-8.7l9.8-18.5l3.4-7l4.5-9.9l5.3-11.5l2.6-5.3l2.3-4.1l1.9-3l1.9-2.6l1.5-1.7l1.5-1.4l1.1-0.8
			l1.1-0.6l1.1-0.4l1.1-0.1l1.1,0.2l1.1,0.5l1.1,0.8l1.1,1.1l1.1,1.4l1.1,1.7l1.1,2.1l1.5,3.3l1.5,3.9l1.5,4.6l1.5,5.3l1.5,6
			l1.9,8.5l1.9,9.7l1.9,10.9l2.3,14.4l2.6,18.3l8.7,61.4l2.3,14L364,222l1.9,9.4l1.9,8.3l1.9,7.3l1.9,6.4l1.9,5.6l1.9,4.8l1.5,3.3
			l1.5,2.8l1.5,2.5l1.5,2.1l1.9,2.2l1.9,1.8l1.9,1.5l1.9,1.3l2.3,1.2l2.3,1l2.6,0.9l3,0.8l4.5,0.9l5.3,0.9l3.4,0.4l3,0.1l3.4-0.1
			l5.3-0.5l5.7-0.4l2.6-0.1l0,0"/>
	</g>
</g>
<g id="line2d_14">
	<g>
		<defs>
			<rect id="SVGID_00000004543965068887640880000018134405558576049078_" x="36.9" y="9.7" width="414.2" height="309.8"/>
		</defs>
		<clipPath id="SVGID_00000164502299301200343080000010695243687662114458_">
			<use xlink:href="#SVGID_00000004543965068887640880000018134405558576049078_"  style="overflow:visible;"/>
		</clipPath>
		
			<path style="clip-path:url(#SVGID_00000164502299301200343080000010695243687662114458_);fill:none;stroke:#FF7F0E;stroke-width:1.5;stroke-linecap:square;stroke-linejoin:round;" d="
			M55.7,297.5l1.9-0.3l2.3-0.6l4.1-1.3l3.4-1l2.6-0.6l2.6-0.3l3.4-0.2l6-0.3l3-0.4l3.4-0.7l10.9-2.5l4.1-0.6l4.1-0.4l3,0l2.3,0.2
			l2.3,0.4l1.9,0.5l1.9,0.7l2.3,1.2l2.3,1.4l3.4,2.4l4.1,3l2.3,1.4l1.9,0.9l1.9,0.6l1.5,0.3l1.5,0.1l1.5-0.2l1.5-0.4l1.5-0.6
			l1.5-0.9l1.5-1.1l1.9-1.7l1.9-2l1.9-2.3l2.3-3.2l2.6-4.1l3-5.2l4.1-7.6l8.7-16.5l6-11.2l4.5-7.9l4.1-6.9l3.8-5.8l3.4-4.8l3-3.9
			l3-3.5l3-3.1l4.9-4.7l4.1-4.1l3-3.3l2.6-3.2l2.6-3.6l2.6-3.9l2.6-4.3l2.6-4.7l2.6-5.1l2.6-5.6l2.6-6.1l3-7.6l3.8-10.3l7.9-21.8
			l3.4-8.6l3.8-8.9l10.2-23.6l5.3-13.1l6.8-16.9l3.4-7.8l2.6-5.5l1.9-3.5l1.9-3l1.5-2l1.5-1.5l1.1-0.9l1.1-0.6l1.1-0.3l1.1-0.1
			l1.1,0.1l1.1,0.4l1.1,0.6l1.5,1l1.9,1.6l2.3,2.3l3.4,3.8l4.5,5.5l2.6,3.5l1.9,2.9l1.5,2.7l1.5,3.1l1.5,3.7l1.5,4.4l1.5,5.2
			l1.5,6.1l1.5,7.2l1.5,8.3l1.5,9.4l1.9,13.2l2.3,17.8l3,26l5.7,49.4l2.3,17.8l1.9,13.3l1.9,11.8l1.9,10.2l1.5,7.1l1.5,6.2l1.5,5.3
			l1.5,4.6l1.5,4l1.5,3.4l1.5,2.9l1.5,2.5l1.9,2.7l1.9,2.3l1.9,1.9l1.9,1.6l1.9,1.4l2.3,1.3l2.3,1.1l2.3,0.8l2.3,0.6l2.3,0.4
			l2.6,0.2l2.3,0l2.3-0.2l2.3-0.4l2.3-0.6l2.6-0.9l3-1.3l9-4.2l2.6-0.9l2.6-0.7l3-0.5l3.4-0.3l4.5-0.2l1.5,0l0,0"/>
	</g>
</g>
</svg>
