<?xml version="1.0" encoding="utf-8"?>
<!-- Generator: Adobe Illustrator 27.5.0, SVG Export Plug-In . SVG Version: 6.00 Build 0)  -->
<svg version="1.1" id="Layer_1" xmlns="http://www.w3.org/2000/svg" xmlns:xlink="http://www.w3.org/1999/xlink" x="0px" y="0px"
	 viewBox="0 0 460.8 345.6" style="enable-background:new 0 0 460.8 345.6;" xml:space="preserve">
<style type="text/css">
	
		.st0{clip-path:url(#SVGID_00000155106485407766095190000016921515977348528008_);fill:none;stroke:#1F77B4;stroke-width:1.5;stroke-linecap:square;stroke-linejoin:round;}
	
		.st1{clip-path:url(#SVGID_00000125560602088267871620000005141542608383832484_);fill:none;stroke:#FF7F0E;stroke-width:1.5;stroke-linecap:square;stroke-linejoin:round;}
</style>
<g id="line2d_15">
	<g>
		<defs>
			<rect id="SVGID_1_" x="65.1" y="-17.1" width="414.2" height="309.8"/>
		</defs>
		<clipPath id="SVGID_00000091696402649551713920000015081487773254391685_">
			<use xlink:href="#SVGID_1_"  style="overflow:visible;"/>
		</clipPath>
		
			<path style="clip-path:url(#SVGID_00000091696402649551713920000015081487773254391685_);fill:none;stroke:#1F77B4;stroke-width:1.5;stroke-linecap:square;stroke-linejoin:round;" d="
			M83.9,230.2l2.6-0.2l3-0.5l4.1-0.9l5.7-1.5l5.3-1.7l4.9-1.8l4.9-2l4.1-1.9l3.4-1.8l3.8-2.3l10.2-6.4l2.6-1.2l2.3-0.8l2.6-0.7
			l6.4-1.6l1.9-0.7l1.9-1l1.9-1.2l2.3-1.7l4.1-3.5l2.6-2.1l1.9-1.3l1.9-1l1.9-0.7l1.9-0.5l2.3-0.4l4.5-0.6l1.9-0.5l1.5-0.6l1.5-0.8
			l1.5-1l1.9-1.6l2.3-2.2l3.8-4.1l3-3.2l2.3-2.1l2.3-1.8l1.9-1.2l2.3-1.2l2.3-0.9l2.3-0.7l2.3-0.4l2.3-0.2l2.3,0l1.9,0.2l1.9,0.4
			l1.9,0.6l2.3,1l2.6,1.5l8.3,4.9l1.9,0.8l1.9,0.5l1.5,0.2l1.5,0l1.5-0.2l1.5-0.4l1.5-0.6l1.5-0.8l1.9-1.3l2.3-1.9l2.6-2.6l7.5-7.5
			l3-2.6l3.8-2.9l4.9-3.8l2.6-2.3l2.3-2.3l2.3-2.5l2.6-3.3l2.6-3.7l3-4.7l3.4-5.7l4.1-7.4l6.8-12.6l5.7-10.3l4.5-7.8l9.8-16.6
			l3.4-6.3l4.5-8.9l5.3-10.4l2.6-4.7l2.3-3.7l1.9-2.7l1.9-2.3L347,33l1.5-1.3l1.5-0.9l1.1-0.5l1.1-0.2l1.1,0l1.1,0.2l1.1,0.5
			l1.1,0.8l1.1,1.1L359,34l1.1,1.6l1.5,2.7l1.5,3.2l1.5,3.8l1.5,4.4l1.5,5l1.5,5.7l1.9,8.1l1.9,9.1l2.3,12.3l2.6,15.9l3.8,24.4
			l4.5,29l2.6,15.4l2.3,12l2.3,10.6l1.9,7.8l1.9,6.9l1.9,6.1l1.9,5.3l1.9,4.5l1.9,3.9l1.5,2.6l1.5,2.3l1.9,2.4l1.9,2l1.9,1.7
			l1.9,1.4l2.3,1.3l2.3,1.1l2.6,1l3,0.8l3.8,0.8l5.7,1l4.1,0.5l3.4,0.2l3.4,0l4.5-0.3l7.5-0.5l2.6-0.1l0,0"/>
	</g>
</g>
<g id="line2d_16">
	<g>
		<defs>
			<rect id="SVGID_00000044874701992443163500000016526586764757236616_" x="65.1" y="-17.1" width="414.2" height="309.8"/>
		</defs>
		<clipPath id="SVGID_00000099648897651548111440000003654656337657719226_">
			<use xlink:href="#SVGID_00000044874701992443163500000016526586764757236616_"  style="overflow:visible;"/>
		</clipPath>
		
			<path style="clip-path:url(#SVGID_00000099648897651548111440000003654656337657719226_);fill:none;stroke:#FF7F0E;stroke-width:1.5;stroke-linecap:square;stroke-linejoin:round;" d="
			M83.9-3l2.3,0.2L88-2.4l1.9,0.6l1.5,0.7l1.5,0.9L94.4,1l1.9,1.7l1.9,2.1l2.3,2.9l3.8,5.2l3.4,4.6l2.3,2.7l1.9,1.9l1.5,1.2l1.5,1
			l1.5,0.8l1.5,0.5l1.5,0.2l1.5,0l1.5-0.3l1.5-0.6l1.5-0.9l1.5-1.1l1.9-1.7l6.4-6.1l1.5-1l1.1-0.5l1.1-0.2l1.1,0.1l1.1,0.4l1.1,0.7
			l1.1,1.1l1.1,1.5l1.1,1.9l1.1,2.3l1.5,3.6l1.5,4.2l1.5,4.8l1.9,6.8l2.3,9l3.8,16.1l4.5,19.2l3.4,13.4l3.4,12.5l4.1,14.4l4.9,16.2
			l5.7,17.9l6,18.4l3.8,10.9l3,8.1l2.6,6.4l2.3,4.9l2.3,4.4l2.3,3.9l2.3,3.4l2.3,3l2.3,2.7l2.6,2.8l2.6,2.4l3.4,2.8l13.2,10.7
			l4.1,3.2l3.4,2.3l3.8,2.3l5.3,2.9l11.7,6.4l4.9,2.6l3.4,1.5l2.6,1l2.6,0.7l2.6,0.5l2.6,0.3l3.4,0.2l7.9,0.2l3,0.4l3,0.6l3.8,1
			l8.3,2.3l3.8,0.7l3,0.4l2.6,0.1l2.3-0.1l2.3-0.4l1.9-0.5l1.9-0.7l1.9-1l2.3-1.4l3-2.1l4.5-3.2l1.9-1.1l1.9-0.8l1.5-0.4l1.5-0.2
			l1.5,0.1l1.5,0.3l1.5,0.5l1.9,0.9l1.9,1.2l2.6,2l6.4,5l2.3,1.4l2.3,1.2l1.9,0.8l2.3,0.6l2.3,0.4l2.6,0.2l3.4,0l7.5-0.4l6.8-0.2
			l6.4,0l4.1,0.2l4.1,0.4l12.1,1.5l3.4,0.1l3.4-0.1l3.4-0.4l3.4-0.6l4.5-1l6-1.3l3.4-0.5l3.4-0.3l4.5-0.1l0.8,0l0,0"/>
	</g>
</g>
</svg>
