<?xml version="1.0" encoding="utf-8"?>
<!-- Generator: Adobe Illustrator 27.5.0, SVG Export Plug-In . SVG Version: 6.00 Build 0)  -->
<svg version="1.1" id="Layer_1" xmlns="http://www.w3.org/2000/svg" xmlns:xlink="http://www.w3.org/1999/xlink" x="0px" y="0px"
	 viewBox="0 0 460.8 345.6" style="enable-background:new 0 0 460.8 345.6;" xml:space="preserve">
<style type="text/css">
	.st0{clip-path:url(#SVGID_00000160868948753780954890000007597748664430420627_);}
	.st1{fill:#0000FF;stroke:#0000FF;stroke-linejoin:round;}
	.st2{stroke:#000000;stroke-width:0.8;stroke-linejoin:round;}
	.st3{font-family:'LucidaBright';}
	.st4{font-size:14px;}
	.st5{font-size:16px;}
	
		.st6{clip-path:url(#SVGID_00000171717139114709502670000017962412804470417288_);fill:none;stroke:#000000;stroke-width:2;stroke-linejoin:round;stroke-dasharray:7.4,3.2;}
	
		.st7{clip-path:url(#SVGID_00000040552036097621770380000000022273582924029881_);fill:none;stroke:#000000;stroke-width:2;stroke-linecap:square;stroke-linejoin:round;}
	.st8{fill:none;stroke:#000000;stroke-width:0.8;stroke-linecap:square;}
	.st9{font-family:'ArialMT';}
	.st10{font-size:12px;}
	.st11{font-size:11.2px;}
</style>
<g id="PathCollection_1">
	<g>
		<defs>
			<rect id="SVGID_1_" x="59.6" y="9.7" width="391.5" height="284.9"/>
		</defs>
		<clipPath id="SVGID_00000137116542911953076720000006628235567958315666_">
			<use xlink:href="#SVGID_1_"  style="overflow:visible;"/>
		</clipPath>
		<g style="clip-path:url(#SVGID_00000137116542911953076720000006628235567958315666_);">
			<g>
				<path id="m2d98770ce5" class="st1" d="M85.7,278.2c0.6,0,1.3-0.3,1.7-0.7c0.5-0.5,0.7-1.1,0.7-1.7c0-0.6-0.3-1.3-0.7-1.7
					c-0.5-0.5-1.1-0.7-1.7-0.7s-1.3,0.3-1.7,0.7c-0.5,0.5-0.7,1.1-0.7,1.7c0,0.6,0.3,1.3,0.7,1.7C84.4,277.9,85,278.2,85.7,278.2z"
					/>
			</g>
			<g>
				<path id="m2d98770ce5_00000070840644110925263520000014939025872814514352_" class="st1" d="M308.1,103.9c0.6,0,1.3-0.3,1.7-0.7
					c0.5-0.5,0.7-1.1,0.7-1.7s-0.3-1.3-0.7-1.7c-0.5-0.5-1.1-0.7-1.7-0.7s-1.3,0.3-1.7,0.7c-0.5,0.5-0.7,1.1-0.7,1.7
					s0.3,1.3,0.7,1.7C306.9,103.7,307.5,103.9,308.1,103.9z"/>
			</g>
			<g>
				<path id="m2d98770ce5_00000029744369347175792850000008442151696069885065_" class="st1" d="M180.8,208.7c0.6,0,1.3-0.3,1.7-0.7
					c0.5-0.5,0.7-1.1,0.7-1.7s-0.3-1.3-0.7-1.7c-0.5-0.5-1.1-0.7-1.7-0.7s-1.3,0.3-1.7,0.7c-0.5,0.5-0.7,1.1-0.7,1.7
					s0.3,1.3,0.7,1.7C179.5,208.5,180.2,208.7,180.8,208.7z"/>
			</g>
			<g>
				<path id="m2d98770ce5_00000150816289733882186650000012066685160980022416_" class="st1" d="M205,189.3c0.6,0,1.3-0.3,1.7-0.7
					c0.5-0.5,0.7-1.1,0.7-1.7s-0.3-1.3-0.7-1.7c-0.5-0.5-1.1-0.7-1.7-0.7s-1.3,0.3-1.7,0.7c-0.5,0.5-0.7,1.1-0.7,1.7
					s0.3,1.3,0.7,1.7C203.7,189.1,204.3,189.3,205,189.3z"/>
			</g>
			<g>
				<path id="m2d98770ce5_00000179644545797318854000000006643683819405401476_" class="st1" d="M342.7,83.6c0.6,0,1.3-0.3,1.7-0.7
					c0.5-0.5,0.7-1.1,0.7-1.7s-0.3-1.3-0.7-1.7c-0.5-0.5-1.1-0.7-1.7-0.7s-1.3,0.3-1.7,0.7c-0.5,0.5-0.7,1.1-0.7,1.7
					s0.3,1.3,0.7,1.7C341.4,83.4,342,83.6,342.7,83.6z"/>
			</g>
			<g>
				<path id="m2d98770ce5_00000180355993768691795560000005501291932431410829_" class="st1" d="M388.7,46.5c0.6,0,1.3-0.3,1.7-0.7
					c0.5-0.5,0.7-1.1,0.7-1.7s-0.3-1.3-0.7-1.7c-0.5-0.5-1.1-0.7-1.7-0.7s-1.3,0.3-1.7,0.7c-0.5,0.5-0.7,1.1-0.7,1.7
					s0.3,1.3,0.7,1.7C387.4,46.3,388,46.5,388.7,46.5z"/>
			</g>
			<g>
				<path id="m2d98770ce5_00000180357074841084158000000013504042398530883231_" class="st1" d="M108.9,260.2c0.6,0,1.3-0.3,1.7-0.7
					c0.5-0.5,0.7-1.1,0.7-1.7c0-0.6-0.3-1.3-0.7-1.7c-0.5-0.5-1.1-0.7-1.7-0.7s-1.3,0.3-1.7,0.7c-0.5,0.5-0.7,1.1-0.7,1.7
					c0,0.6,0.3,1.3,0.7,1.7C107.6,259.9,108.2,260.2,108.9,260.2z"/>
			</g>
			<g>
				<path id="m2d98770ce5_00000059998180919216889270000013459529833186119614_" class="st1" d="M326,100.6c0.6,0,1.3-0.3,1.7-0.7
					c0.5-0.5,0.7-1.1,0.7-1.7s-0.3-1.3-0.7-1.7c-0.5-0.5-1.1-0.7-1.7-0.7s-1.3,0.3-1.7,0.7c-0.5,0.5-0.7,1.1-0.7,1.7
					s0.3,1.3,0.7,1.7C324.7,100.3,325.3,100.6,326,100.6z"/>
			</g>
			<g>
				<path id="m2d98770ce5_00000121982739313205672730000007434087124827660700_" class="st1" d="M121.9,252.4c0.6,0,1.3-0.3,1.7-0.7
					c0.5-0.5,0.7-1.1,0.7-1.7s-0.3-1.3-0.7-1.7c-0.5-0.5-1.1-0.7-1.7-0.7s-1.3,0.3-1.7,0.7c-0.5,0.5-0.7,1.1-0.7,1.7
					s0.3,1.3,0.7,1.7C120.6,252.1,121.2,252.4,121.9,252.4z"/>
			</g>
			<g>
				<path id="m2d98770ce5_00000151525656937768094850000010147140153904909242_" class="st1" d="M383.6,52.5c0.6,0,1.3-0.3,1.7-0.7
					c0.5-0.5,0.7-1.1,0.7-1.7s-0.3-1.3-0.7-1.7c-0.5-0.5-1.1-0.7-1.7-0.7s-1.3,0.3-1.7,0.7c-0.5,0.5-0.7,1.1-0.7,1.7
					s0.3,1.3,0.7,1.7C382.3,52.2,382.9,52.5,383.6,52.5z"/>
			</g>
			<g>
				<path id="m2d98770ce5_00000103972375766937865780000015358656440413158579_" class="st1" d="M328.3,89.3c0.6,0,1.3-0.3,1.7-0.7
					c0.5-0.5,0.7-1.1,0.7-1.7s-0.3-1.3-0.7-1.7c-0.5-0.5-1.1-0.7-1.7-0.7s-1.3,0.3-1.7,0.7c-0.5,0.5-0.7,1.1-0.7,1.7
					s0.3,1.3,0.7,1.7C327.1,89.1,327.7,89.3,328.3,89.3z"/>
			</g>
			<g>
				<path id="m2d98770ce5_00000093156881496592487390000007298608928067240080_" class="st1" d="M311.8,108.6c0.6,0,1.3-0.3,1.7-0.7
					c0.5-0.5,0.7-1.1,0.7-1.7s-0.3-1.3-0.7-1.7c-0.5-0.5-1.1-0.7-1.7-0.7s-1.3,0.3-1.7,0.7c-0.5,0.5-0.7,1.1-0.7,1.7
					s0.3,1.3,0.7,1.7C310.6,108.4,311.2,108.6,311.8,108.6z"/>
			</g>
			<g>
				<path id="m2d98770ce5_00000027592520948994765940000004113905515240284035_" class="st1" d="M238.5,165.7c0.6,0,1.3-0.3,1.7-0.7
					c0.5-0.5,0.7-1.1,0.7-1.7s-0.3-1.3-0.7-1.7c-0.5-0.5-1.1-0.7-1.7-0.7s-1.3,0.3-1.7,0.7c-0.5,0.5-0.7,1.1-0.7,1.7
					s0.3,1.3,0.7,1.7C237.2,165.4,237.8,165.7,238.5,165.7z"/>
			</g>
			<g>
				<path id="m2d98770ce5_00000006697165925750642830000006214013378979456163_" class="st1" d="M266.8,140.4c0.6,0,1.3-0.3,1.7-0.7
					c0.5-0.5,0.7-1.1,0.7-1.7s-0.3-1.3-0.7-1.7c-0.5-0.5-1.1-0.7-1.7-0.7s-1.3,0.3-1.7,0.7c-0.5,0.5-0.7,1.1-0.7,1.7
					s0.3,1.3,0.7,1.7C265.6,140.2,266.2,140.4,266.8,140.4z"/>
			</g>
			<g>
				<path id="m2d98770ce5_00000164490331214322202960000006243325153143237024_" class="st1" d="M78.4,283.3c0.6,0,1.3-0.3,1.7-0.7
					c0.5-0.5,0.7-1.1,0.7-1.7c0-0.6-0.3-1.3-0.7-1.7c-0.5-0.5-1.1-0.7-1.7-0.7s-1.3,0.3-1.7,0.7c-0.5,0.5-0.7,1.1-0.7,1.7
					c0,0.6,0.3,1.3,0.7,1.7C77.2,283.1,77.8,283.3,78.4,283.3z"/>
			</g>
			<g>
				<path id="m2d98770ce5_00000106139056587576936180000004059066416729367450_" class="st1" d="M313.9,98.6c0.6,0,1.3-0.3,1.7-0.7
					c0.5-0.5,0.7-1.1,0.7-1.7s-0.3-1.3-0.7-1.7c-0.5-0.5-1.1-0.7-1.7-0.7s-1.3,0.3-1.7,0.7c-0.5,0.5-0.7,1.1-0.7,1.7
					s0.3,1.3,0.7,1.7C312.6,98.3,313.3,98.6,313.9,98.6z"/>
			</g>
			<g>
				<path id="m2d98770ce5_00000052790024311291010010000004877484956488014753_" class="st1" d="M394.5,50.6c0.6,0,1.3-0.3,1.7-0.7
					c0.5-0.5,0.7-1.1,0.7-1.7s-0.3-1.3-0.7-1.7c-0.5-0.5-1.1-0.7-1.7-0.7s-1.3,0.3-1.7,0.7c-0.5,0.5-0.7,1.1-0.7,1.7
					s0.3,1.3,0.7,1.7C393.2,50.3,393.9,50.6,394.5,50.6z"/>
			</g>
			<g>
				<path id="m2d98770ce5_00000140696752208993010190000010727346515336537488_" class="st1" d="M305,111.2c0.6,0,1.3-0.3,1.7-0.7
					c0.5-0.5,0.7-1.1,0.7-1.7s-0.3-1.3-0.7-1.7c-0.5-0.5-1.1-0.7-1.7-0.7s-1.3,0.3-1.7,0.7c-0.5,0.5-0.7,1.1-0.7,1.7
					s0.3,1.3,0.7,1.7C303.7,111,304.3,111.2,305,111.2z"/>
			</g>
			<g>
				<path id="m2d98770ce5_00000080208971293431597030000018185131688655173817_" class="st1" d="M237.6,166.5c0.6,0,1.3-0.3,1.7-0.7
					c0.5-0.5,0.7-1.1,0.7-1.7s-0.3-1.3-0.7-1.7c-0.5-0.5-1.1-0.7-1.7-0.7s-1.3,0.3-1.7,0.7c-0.5,0.5-0.7,1.1-0.7,1.7
					s0.3,1.3,0.7,1.7C236.4,166.3,237,166.5,237.6,166.5z"/>
			</g>
			<g>
				<path id="m2d98770ce5_00000073002674162180533050000016206799103342508443_" class="st1" d="M134.1,240.8c0.6,0,1.3-0.3,1.7-0.7
					c0.5-0.5,0.7-1.1,0.7-1.7s-0.3-1.3-0.7-1.7c-0.5-0.5-1.1-0.7-1.7-0.7s-1.3,0.3-1.7,0.7c-0.5,0.5-0.7,1.1-0.7,1.7
					s0.3,1.3,0.7,1.7C132.8,240.6,133.4,240.8,134.1,240.8z"/>
			</g>
			<g>
				<path id="m2d98770ce5_00000046302467835237572230000013193430888093440162_" class="st1" d="M349,83.9c0.6,0,1.3-0.3,1.7-0.7
					c0.5-0.5,0.7-1.1,0.7-1.7s-0.3-1.3-0.7-1.7c-0.5-0.5-1.1-0.7-1.7-0.7s-1.3,0.3-1.7,0.7c-0.5,0.5-0.7,1.1-0.7,1.7
					s0.3,1.3,0.7,1.7C347.7,83.6,348.4,83.9,349,83.9z"/>
			</g>
			<g>
				<path id="m2d98770ce5_00000009570679446522462820000000303519666784397196_" class="st1" d="M164,220.7c0.6,0,1.3-0.3,1.7-0.7
					c0.5-0.5,0.7-1.1,0.7-1.7s-0.3-1.3-0.7-1.7c-0.5-0.5-1.1-0.7-1.7-0.7s-1.3,0.3-1.7,0.7c-0.5,0.5-0.7,1.1-0.7,1.7
					s0.3,1.3,0.7,1.7C162.8,220.4,163.4,220.7,164,220.7z"/>
			</g>
			<g>
				<path id="m2d98770ce5_00000026859351332936437040000002668306409123153819_" class="st1" d="M121.5,250.5c0.6,0,1.3-0.3,1.7-0.7
					c0.5-0.5,0.7-1.1,0.7-1.7s-0.3-1.3-0.7-1.7c-0.5-0.5-1.1-0.7-1.7-0.7s-1.3,0.3-1.7,0.7c-0.5,0.5-0.7,1.1-0.7,1.7
					s0.3,1.3,0.7,1.7C120.2,250.3,120.9,250.5,121.5,250.5z"/>
			</g>
			<g>
				<path id="m2d98770ce5_00000041291349480384499380000018243281129960640421_" class="st1" d="M294.9,120.3c0.6,0,1.3-0.3,1.7-0.7
					c0.5-0.5,0.7-1.1,0.7-1.7s-0.3-1.3-0.7-1.7c-0.5-0.5-1.1-0.7-1.7-0.7s-1.3,0.3-1.7,0.7c-0.5,0.5-0.7,1.1-0.7,1.7
					s0.3,1.3,0.7,1.7C293.6,120,294.3,120.3,294.9,120.3z"/>
			</g>
			<g>
				<path id="m2d98770ce5_00000065766931896051336130000012684831080603137188_" class="st1" d="M386.2,40.5c0.6,0,1.3-0.3,1.7-0.7
					c0.5-0.5,0.7-1.1,0.7-1.7s-0.3-1.3-0.7-1.7c-0.5-0.5-1.1-0.7-1.7-0.7s-1.3,0.3-1.7,0.7c-0.5,0.5-0.7,1.1-0.7,1.7
					s0.3,1.3,0.7,1.7C385,40.2,385.6,40.5,386.2,40.5z"/>
			</g>
			<g>
				<path id="m2d98770ce5_00000116948283634999646440000007242920321105345920_" class="st1" d="M96.7,270.4c0.6,0,1.3-0.3,1.7-0.7
					c0.5-0.5,0.7-1.1,0.7-1.7c0-0.6-0.3-1.3-0.7-1.7c-0.5-0.5-1.1-0.7-1.7-0.7s-1.3,0.3-1.7,0.7c-0.5,0.5-0.7,1.1-0.7,1.7
					c0,0.6,0.3,1.3,0.7,1.7C95.4,270.2,96.1,270.4,96.7,270.4z"/>
			</g>
			<g>
				<path id="m2d98770ce5_00000026136634543427383450000012291115800542783660_" class="st1" d="M256.7,150.1c0.6,0,1.3-0.3,1.7-0.7
					c0.5-0.5,0.7-1.1,0.7-1.7s-0.3-1.3-0.7-1.7c-0.5-0.5-1.1-0.7-1.7-0.7s-1.3,0.3-1.7,0.7c-0.5,0.5-0.7,1.1-0.7,1.7
					s0.3,1.3,0.7,1.7C255.5,149.8,256.1,150.1,256.7,150.1z"/>
			</g>
			<g>
				<path id="m2d98770ce5_00000154411183917728720670000001323006508170539936_" class="st1" d="M99.6,266.6c0.6,0,1.3-0.3,1.7-0.7
					c0.5-0.5,0.7-1.1,0.7-1.7c0-0.6-0.3-1.3-0.7-1.7c-0.5-0.5-1.1-0.7-1.7-0.7s-1.3,0.3-1.7,0.7c-0.5,0.5-0.7,1.1-0.7,1.7
					c0,0.6,0.3,1.3,0.7,1.7C98.4,266.4,99,266.6,99.6,266.6z"/>
			</g>
			<g>
				<path id="m2d98770ce5_00000036241256632578341860000000198291842042208157_" class="st1" d="M198.1,191.9c0.6,0,1.3-0.3,1.7-0.7
					c0.5-0.5,0.7-1.1,0.7-1.7s-0.3-1.3-0.7-1.7c-0.5-0.5-1.1-0.7-1.7-0.7s-1.3,0.3-1.7,0.7c-0.5,0.5-0.7,1.1-0.7,1.7
					s0.3,1.3,0.7,1.7C196.8,191.6,197.4,191.9,198.1,191.9z"/>
			</g>
			<g>
				<path id="m2d98770ce5_00000129911880370072924280000003601620479041556883_" class="st1" d="M286.3,120.6c0.6,0,1.3-0.3,1.7-0.7
					c0.5-0.5,0.7-1.1,0.7-1.7s-0.3-1.3-0.7-1.7c-0.5-0.5-1.1-0.7-1.7-0.7s-1.3,0.3-1.7,0.7c-0.5,0.5-0.7,1.1-0.7,1.7
					s0.3,1.3,0.7,1.7C285,120.3,285.7,120.6,286.3,120.6z"/>
			</g>
			<g>
				<path id="m2d98770ce5_00000124125287623499802250000005065778347629810587_" class="st1" d="M278.6,130.1c0.6,0,1.3-0.3,1.7-0.7
					c0.5-0.5,0.7-1.1,0.7-1.7s-0.3-1.3-0.7-1.7c-0.5-0.5-1.1-0.7-1.7-0.7s-1.3,0.3-1.7,0.7c-0.5,0.5-0.7,1.1-0.7,1.7
					s0.3,1.3,0.7,1.7C277.3,129.9,277.9,130.1,278.6,130.1z"/>
			</g>
			<g>
				<path id="m2d98770ce5_00000177481538150325870680000009000499300565565072_" class="st1" d="M188.7,200.7c0.6,0,1.3-0.3,1.7-0.7
					c0.5-0.5,0.7-1.1,0.7-1.7s-0.3-1.3-0.7-1.7c-0.5-0.5-1.1-0.7-1.7-0.7s-1.3,0.3-1.7,0.7c-0.5,0.5-0.7,1.1-0.7,1.7
					s0.3,1.3,0.7,1.7C187.5,200.4,188.1,200.7,188.7,200.7z"/>
			</g>
			<g>
				<path id="m2d98770ce5_00000128458175890200051790000011535808854011675526_" class="st1" d="M168.2,216.5c0.6,0,1.3-0.3,1.7-0.7
					c0.5-0.5,0.7-1.1,0.7-1.7s-0.3-1.3-0.7-1.7c-0.5-0.5-1.1-0.7-1.7-0.7s-1.3,0.3-1.7,0.7c-0.5,0.5-0.7,1.1-0.7,1.7
					s0.3,1.3,0.7,1.7C166.9,216.3,167.5,216.5,168.2,216.5z"/>
			</g>
			<g>
				<path id="m2d98770ce5_00000152971731984549326670000015825665086880755361_" class="st1" d="M83,279.9c0.6,0,1.3-0.3,1.7-0.7
					c0.5-0.5,0.7-1.1,0.7-1.7c0-0.6-0.3-1.3-0.7-1.7c-0.5-0.5-1.1-0.7-1.7-0.7s-1.3,0.3-1.7,0.7c-0.5,0.5-0.7,1.1-0.7,1.7
					c0,0.6,0.3,1.3,0.7,1.7C81.7,279.7,82.4,279.9,83,279.9z"/>
			</g>
			<g>
				<path id="m2d98770ce5_00000142858675269280326910000010400866656944244386_" class="st1" d="M247.2,158.7c0.6,0,1.3-0.3,1.7-0.7
					c0.5-0.5,0.7-1.1,0.7-1.7s-0.3-1.3-0.7-1.7c-0.5-0.5-1.1-0.7-1.7-0.7s-1.3,0.3-1.7,0.7c-0.5,0.5-0.7,1.1-0.7,1.7
					s0.3,1.3,0.7,1.7C245.9,158.5,246.5,158.7,247.2,158.7z"/>
			</g>
			<g>
				<path id="m2d98770ce5_00000093876049731249106410000006648290956410193029_" class="st1" d="M128.9,248c0.6,0,1.3-0.3,1.7-0.7
					c0.5-0.5,0.7-1.1,0.7-1.7s-0.3-1.3-0.7-1.7c-0.5-0.5-1.1-0.7-1.7-0.7s-1.3,0.3-1.7,0.7c-0.5,0.5-0.7,1.1-0.7,1.7
					s0.3,1.3,0.7,1.7C127.6,247.7,128.2,248,128.9,248z"/>
			</g>
			<g>
				<path id="m2d98770ce5_00000145759217852312732810000017624760165074508194_" class="st1" d="M276.2,134.6c0.6,0,1.3-0.3,1.7-0.7
					c0.5-0.5,0.7-1.1,0.7-1.7s-0.3-1.3-0.7-1.7c-0.5-0.5-1.1-0.7-1.7-0.7s-1.3,0.3-1.7,0.7c-0.5,0.5-0.7,1.1-0.7,1.7
					s0.3,1.3,0.7,1.7C275,134.3,275.6,134.6,276.2,134.6z"/>
			</g>
			<g>
				<path id="m2d98770ce5_00000049924023362372040210000001219769149878399624_" class="st1" d="M160.6,223.9c0.6,0,1.3-0.3,1.7-0.7
					c0.5-0.5,0.7-1.1,0.7-1.7s-0.3-1.3-0.7-1.7c-0.5-0.5-1.1-0.7-1.7-0.7s-1.3,0.3-1.7,0.7c-0.5,0.5-0.7,1.1-0.7,1.7
					s0.3,1.3,0.7,1.7C159.3,223.6,159.9,223.9,160.6,223.9z"/>
			</g>
			<g>
				<path id="m2d98770ce5_00000054977243130081081930000003176655578509347515_" class="st1" d="M135,241.4c0.6,0,1.3-0.3,1.7-0.7
					c0.5-0.5,0.7-1.1,0.7-1.7s-0.3-1.3-0.7-1.7c-0.5-0.5-1.1-0.7-1.7-0.7s-1.3,0.3-1.7,0.7c-0.5,0.5-0.7,1.1-0.7,1.7
					s0.3,1.3,0.7,1.7C133.7,241.1,134.3,241.4,135,241.4z"/>
			</g>
			<g>
				<path id="m2d98770ce5_00000078045900058769355380000009164320339325905028_" class="st1" d="M217,179.1c0.6,0,1.3-0.3,1.7-0.7
					c0.5-0.5,0.7-1.1,0.7-1.7s-0.3-1.3-0.7-1.7c-0.5-0.5-1.1-0.7-1.7-0.7s-1.3,0.3-1.7,0.7c-0.5,0.5-0.7,1.1-0.7,1.7
					s0.3,1.3,0.7,1.7C215.7,178.9,216.3,179.1,217,179.1z"/>
			</g>
			<g>
				<path id="m2d98770ce5_00000053516235243464728820000003841008258777734542_" class="st1" d="M144,234c0.6,0,1.3-0.3,1.7-0.7
					c0.5-0.5,0.7-1.1,0.7-1.7s-0.3-1.3-0.7-1.7c-0.5-0.5-1.1-0.7-1.7-0.7s-1.3,0.3-1.7,0.7c-0.5,0.5-0.7,1.1-0.7,1.7
					s0.3,1.3,0.7,1.7C142.7,233.7,143.4,234,144,234z"/>
			</g>
			<g>
				<path id="m2d98770ce5_00000090996494861884617690000005483270983147864973_" class="st1" d="M237,165.7c0.6,0,1.3-0.3,1.7-0.7
					c0.5-0.5,0.7-1.1,0.7-1.7s-0.3-1.3-0.7-1.7c-0.5-0.5-1.1-0.7-1.7-0.7s-1.3,0.3-1.7,0.7c-0.5,0.5-0.7,1.1-0.7,1.7
					s0.3,1.3,0.7,1.7C235.8,165.4,236.4,165.7,237,165.7z"/>
			</g>
			<g>
				<path id="m2d98770ce5_00000176728174891456456700000003382772544265621414_" class="st1" d="M222.7,168.5c0.6,0,1.3-0.3,1.7-0.7
					c0.5-0.5,0.7-1.1,0.7-1.7s-0.3-1.3-0.7-1.7c-0.5-0.5-1.1-0.7-1.7-0.7s-1.3,0.3-1.7,0.7c-0.5,0.5-0.7,1.1-0.7,1.7
					s0.3,1.3,0.7,1.7C221.5,168.2,222.1,168.5,222.7,168.5z"/>
			</g>
			<g>
				<path id="m2d98770ce5_00000029737666526037396210000010953416720330167682_" class="st1" d="M158,225.9c0.6,0,1.3-0.3,1.7-0.7
					c0.5-0.5,0.7-1.1,0.7-1.7s-0.3-1.3-0.7-1.7c-0.5-0.5-1.1-0.7-1.7-0.7s-1.3,0.3-1.7,0.7c-0.5,0.5-0.7,1.1-0.7,1.7
					s0.3,1.3,0.7,1.7C156.7,225.6,157.4,225.9,158,225.9z"/>
			</g>
			<g>
				<path id="m2d98770ce5_00000026855169702352230740000013717901787010337160_" class="st1" d="M232.9,170.4c0.6,0,1.3-0.3,1.7-0.7
					c0.5-0.5,0.7-1.1,0.7-1.7s-0.3-1.3-0.7-1.7c-0.5-0.5-1.1-0.7-1.7-0.7s-1.3,0.3-1.7,0.7c-0.5,0.5-0.7,1.1-0.7,1.7
					s0.3,1.3,0.7,1.7C231.6,170.1,232.2,170.4,232.9,170.4z"/>
			</g>
			<g>
				<path id="m2d98770ce5_00000020357163294521382090000005426927105884605350_" class="st1" d="M334.4,92.9c0.6,0,1.3-0.3,1.7-0.7
					c0.5-0.5,0.7-1.1,0.7-1.7s-0.3-1.3-0.7-1.7c-0.5-0.5-1.1-0.7-1.7-0.7s-1.3,0.3-1.7,0.7c-0.5,0.5-0.7,1.1-0.7,1.7
					s0.3,1.3,0.7,1.7C333.2,92.6,333.8,92.9,334.4,92.9z"/>
			</g>
			<g>
				<path id="m2d98770ce5_00000094613809187455513050000014434518249330074768_" class="st1" d="M232.6,172.7c0.6,0,1.3-0.3,1.7-0.7
					c0.5-0.5,0.7-1.1,0.7-1.7s-0.3-1.3-0.7-1.7c-0.5-0.5-1.1-0.7-1.7-0.7s-1.3,0.3-1.7,0.7c-0.5,0.5-0.7,1.1-0.7,1.7
					s0.3,1.3,0.7,1.7C231.3,172.4,232,172.7,232.6,172.7z"/>
			</g>
			<g>
				<path id="m2d98770ce5_00000096054450616986125850000003046478443804423066_" class="st1" d="M169.1,217.2c0.6,0,1.3-0.3,1.7-0.7
					c0.5-0.5,0.7-1.1,0.7-1.7s-0.3-1.3-0.7-1.7c-0.5-0.5-1.1-0.7-1.7-0.7s-1.3,0.3-1.7,0.7c-0.5,0.5-0.7,1.1-0.7,1.7
					s0.3,1.3,0.7,1.7C167.9,217,168.5,217.2,169.1,217.2z"/>
			</g>
			<g>
				<path id="m2d98770ce5_00000168083323868900679670000007572332467077473671_" class="st1" d="M235.4,164.6c0.6,0,1.3-0.3,1.7-0.7
					c0.5-0.5,0.7-1.1,0.7-1.7s-0.3-1.3-0.7-1.7c-0.5-0.5-1.1-0.7-1.7-0.7s-1.3,0.3-1.7,0.7c-0.5,0.5-0.7,1.1-0.7,1.7
					s0.3,1.3,0.7,1.7C234.1,164.4,234.8,164.6,235.4,164.6z"/>
			</g>
			<g>
				<path id="m2d98770ce5_00000095331934350908942470000015829944188592020414_" class="st1" d="M357.8,62.7c0.6,0,1.3-0.3,1.7-0.7
					c0.5-0.5,0.7-1.1,0.7-1.7s-0.3-1.3-0.7-1.7c-0.5-0.5-1.1-0.7-1.7-0.7s-1.3,0.3-1.7,0.7c-0.5,0.5-0.7,1.1-0.7,1.7
					s0.3,1.3,0.7,1.7C356.5,62.4,357.2,62.7,357.8,62.7z"/>
			</g>
			<g>
				<path id="m2d98770ce5_00000017493352049726998620000000199923825412281790_" class="st1" d="M125.3,250.2c0.6,0,1.3-0.3,1.7-0.7
					c0.5-0.5,0.7-1.1,0.7-1.7s-0.3-1.3-0.7-1.7c-0.5-0.5-1.1-0.7-1.7-0.7s-1.3,0.3-1.7,0.7c-0.5,0.5-0.7,1.1-0.7,1.7
					s0.3,1.3,0.7,1.7C124,250,124.6,250.2,125.3,250.2z"/>
			</g>
			<g>
				<path id="m2d98770ce5_00000101810982452398771560000016231084074911683253_" class="st1" d="M108.7,260c0.6,0,1.3-0.3,1.7-0.7
					c0.5-0.5,0.7-1.1,0.7-1.7c0-0.6-0.3-1.3-0.7-1.7c-0.5-0.5-1.1-0.7-1.7-0.7s-1.3,0.3-1.7,0.7c-0.5,0.5-0.7,1.1-0.7,1.7
					c0,0.6,0.3,1.3,0.7,1.7C107.4,259.7,108,260,108.7,260z"/>
			</g>
			<g>
				<path id="m2d98770ce5_00000026144496096757315290000015180894634675119513_" class="st1" d="M171.9,218.2c0.6,0,1.3-0.3,1.7-0.7
					c0.5-0.5,0.7-1.1,0.7-1.7s-0.3-1.3-0.7-1.7c-0.5-0.5-1.1-0.7-1.7-0.7s-1.3,0.3-1.7,0.7c-0.5,0.5-0.7,1.1-0.7,1.7
					s0.3,1.3,0.7,1.7C170.7,218,171.3,218.2,171.9,218.2z"/>
			</g>
			<g>
				<path id="m2d98770ce5_00000001630567795149424460000002435532828533711277_" class="st1" d="M210.6,183.3c0.6,0,1.3-0.3,1.7-0.7
					c0.5-0.5,0.7-1.1,0.7-1.7s-0.3-1.3-0.7-1.7c-0.5-0.5-1.1-0.7-1.7-0.7s-1.3,0.3-1.7,0.7c-0.5,0.5-0.7,1.1-0.7,1.7
					s0.3,1.3,0.7,1.7C209.3,183,210,183.3,210.6,183.3z"/>
			</g>
			<g>
				<path id="m2d98770ce5_00000001665653702448058460000013132082623448466353_" class="st1" d="M183.6,204.2c0.6,0,1.3-0.3,1.7-0.7
					c0.5-0.5,0.7-1.1,0.7-1.7s-0.3-1.3-0.7-1.7c-0.5-0.5-1.1-0.7-1.7-0.7s-1.3,0.3-1.7,0.7c-0.5,0.5-0.7,1.1-0.7,1.7
					s0.3,1.3,0.7,1.7C182.3,203.9,182.9,204.2,183.6,204.2z"/>
			</g>
			<g>
				<path id="m2d98770ce5_00000154394725245407097240000009138467772814485159_" class="st1" d="M340.3,97.3c0.6,0,1.3-0.3,1.7-0.7
					c0.5-0.5,0.7-1.1,0.7-1.7s-0.3-1.3-0.7-1.7c-0.5-0.5-1.1-0.7-1.7-0.7s-1.3,0.3-1.7,0.7c-0.5,0.5-0.7,1.1-0.7,1.7
					s0.3,1.3,0.7,1.7C339,97.1,339.6,97.3,340.3,97.3z"/>
			</g>
			<g>
				<path id="m2d98770ce5_00000021807763707658258400000001119695756715469759_" class="st1" d="M178.3,206.2c0.6,0,1.3-0.3,1.7-0.7
					c0.5-0.5,0.7-1.1,0.7-1.7s-0.3-1.3-0.7-1.7c-0.5-0.5-1.1-0.7-1.7-0.7s-1.3,0.3-1.7,0.7c-0.5,0.5-0.7,1.1-0.7,1.7
					s0.3,1.3,0.7,1.7C177,205.9,177.6,206.2,178.3,206.2z"/>
			</g>
			<g>
				<path id="m2d98770ce5_00000182530636932042187330000013109646355806034082_" class="st1" d="M244.6,160.1c0.6,0,1.3-0.3,1.7-0.7
					c0.5-0.5,0.7-1.1,0.7-1.7s-0.3-1.3-0.7-1.7c-0.5-0.5-1.1-0.7-1.7-0.7s-1.3,0.3-1.7,0.7c-0.5,0.5-0.7,1.1-0.7,1.7
					s0.3,1.3,0.7,1.7C243.3,159.8,243.9,160.1,244.6,160.1z"/>
			</g>
			<g>
				<path id="m2d98770ce5_00000137836822056740410450000017861141147355540376_" class="st1" d="M287.1,126.9c0.6,0,1.3-0.3,1.7-0.7
					c0.5-0.5,0.7-1.1,0.7-1.7s-0.3-1.3-0.7-1.7c-0.5-0.5-1.1-0.7-1.7-0.7s-1.3,0.3-1.7,0.7c-0.5,0.5-0.7,1.1-0.7,1.7
					s0.3,1.3,0.7,1.7C285.8,126.7,286.4,126.9,287.1,126.9z"/>
			</g>
			<g>
				<path id="m2d98770ce5_00000165919023185340004430000014122300473828036005_" class="st1" d="M125.6,248c0.6,0,1.3-0.3,1.7-0.7
					c0.5-0.5,0.7-1.1,0.7-1.7s-0.3-1.3-0.7-1.7c-0.5-0.5-1.1-0.7-1.7-0.7s-1.3,0.3-1.7,0.7c-0.5,0.5-0.7,1.1-0.7,1.7
					s0.3,1.3,0.7,1.7C124.3,247.8,124.9,248,125.6,248z"/>
			</g>
			<g>
				<path id="m2d98770ce5_00000148643601214565632410000014329755056970972091_" class="st1" d="M110,260.2c0.6,0,1.3-0.3,1.7-0.7
					c0.5-0.5,0.7-1.1,0.7-1.7c0-0.6-0.3-1.3-0.7-1.7c-0.5-0.5-1.1-0.7-1.7-0.7s-1.3,0.3-1.7,0.7c-0.5,0.5-0.7,1.1-0.7,1.7
					c0,0.6,0.3,1.3,0.7,1.7C108.7,259.9,109.3,260.2,110,260.2z"/>
			</g>
			<g>
				<path id="m2d98770ce5_00000064317701316585636160000001021474187248962236_" class="st1" d="M196.7,185.1c0.6,0,1.3-0.3,1.7-0.7
					c0.5-0.5,0.7-1.1,0.7-1.7s-0.3-1.3-0.7-1.7c-0.5-0.5-1.1-0.7-1.7-0.7s-1.3,0.3-1.7,0.7c-0.5,0.5-0.7,1.1-0.7,1.7
					s0.3,1.3,0.7,1.7C195.4,184.8,196.1,185.1,196.7,185.1z"/>
			</g>
			<g>
				<path id="m2d98770ce5_00000159440492111136933160000003976191977785516439_" class="st1" d="M134.8,243.6c0.6,0,1.3-0.3,1.7-0.7
					c0.5-0.5,0.7-1.1,0.7-1.7s-0.3-1.3-0.7-1.7c-0.5-0.5-1.1-0.7-1.7-0.7s-1.3,0.3-1.7,0.7c-0.5,0.5-0.7,1.1-0.7,1.7
					s0.3,1.3,0.7,1.7C133.5,243.3,134.2,243.6,134.8,243.6z"/>
			</g>
			<g>
				<path id="m2d98770ce5_00000085940728371725913770000011132532605534322356_" class="st1" d="M395.3,44.3c0.6,0,1.3-0.3,1.7-0.7
					c0.5-0.5,0.7-1.1,0.7-1.7s-0.3-1.3-0.7-1.7c-0.5-0.5-1.1-0.7-1.7-0.7s-1.3,0.3-1.7,0.7c-0.5,0.5-0.7,1.1-0.7,1.7
					s0.3,1.3,0.7,1.7C394,44,394.6,44.3,395.3,44.3z"/>
			</g>
			<g>
				<path id="m2d98770ce5_00000159438117669289405390000002979156273573456006_" class="st1" d="M301.5,115.2c0.6,0,1.3-0.3,1.7-0.7
					c0.5-0.5,0.7-1.1,0.7-1.7s-0.3-1.3-0.7-1.7c-0.5-0.5-1.1-0.7-1.7-0.7s-1.3,0.3-1.7,0.7c-0.5,0.5-0.7,1.1-0.7,1.7
					s0.3,1.3,0.7,1.7C300.3,115,300.9,115.2,301.5,115.2z"/>
			</g>
			<g>
				<path id="m2d98770ce5_00000093894352590766573130000001027329744922070167_" class="st1" d="M301.9,103.1c0.6,0,1.3-0.3,1.7-0.7
					c0.5-0.5,0.7-1.1,0.7-1.7s-0.3-1.3-0.7-1.7c-0.5-0.5-1.1-0.7-1.7-0.7s-1.3,0.3-1.7,0.7c-0.5,0.5-0.7,1.1-0.7,1.7
					s0.3,1.3,0.7,1.7C300.7,102.9,301.3,103.1,301.9,103.1z"/>
			</g>
			<g>
				<path id="m2d98770ce5_00000119800537902666747530000011716338720012287417_" class="st1" d="M339.7,76.2c0.6,0,1.3-0.3,1.7-0.7
					c0.5-0.5,0.7-1.1,0.7-1.7s-0.3-1.3-0.7-1.7c-0.5-0.5-1.1-0.7-1.7-0.7s-1.3,0.3-1.7,0.7c-0.5,0.5-0.7,1.1-0.7,1.7
					s0.3,1.3,0.7,1.7C338.4,76,339,76.2,339.7,76.2z"/>
			</g>
			<g>
				<path id="m2d98770ce5_00000066479539715965752300000009204361190846057360_" class="st1" d="M151,229.2c0.6,0,1.3-0.3,1.7-0.7
					c0.5-0.5,0.7-1.1,0.7-1.7s-0.3-1.3-0.7-1.7c-0.5-0.5-1.1-0.7-1.7-0.7s-1.3,0.3-1.7,0.7c-0.5,0.5-0.7,1.1-0.7,1.7
					s0.3,1.3,0.7,1.7C149.7,229,150.3,229.2,151,229.2z"/>
			</g>
			<g>
				<path id="m2d98770ce5_00000142892036714785703430000012798745184781770653_" class="st1" d="M252.7,153.9c0.6,0,1.3-0.3,1.7-0.7
					c0.5-0.5,0.7-1.1,0.7-1.7s-0.3-1.3-0.7-1.7c-0.5-0.5-1.1-0.7-1.7-0.7s-1.3,0.3-1.7,0.7c-0.5,0.5-0.7,1.1-0.7,1.7
					s0.3,1.3,0.7,1.7C251.4,153.6,252,153.9,252.7,153.9z"/>
			</g>
			<g>
				<path id="m2d98770ce5_00000091732007921707330030000000787214603984785326_" class="st1" d="M261.8,144.4c0.6,0,1.3-0.3,1.7-0.7
					c0.5-0.5,0.7-1.1,0.7-1.7s-0.3-1.3-0.7-1.7c-0.5-0.5-1.1-0.7-1.7-0.7s-1.3,0.3-1.7,0.7c-0.5,0.5-0.7,1.1-0.7,1.7
					s0.3,1.3,0.7,1.7C260.6,144.1,261.2,144.4,261.8,144.4z"/>
			</g>
			<g>
				<path id="m2d98770ce5_00000029729489792047875330000015941978216463135663_" class="st1" d="M314.7,101.4c0.6,0,1.3-0.3,1.7-0.7
					c0.5-0.5,0.7-1.1,0.7-1.7s-0.3-1.3-0.7-1.7c-0.5-0.5-1.1-0.7-1.7-0.7s-1.3,0.3-1.7,0.7c-0.5,0.5-0.7,1.1-0.7,1.7
					s0.3,1.3,0.7,1.7C313.5,101.2,314.1,101.4,314.7,101.4z"/>
			</g>
			<g>
				<path id="m2d98770ce5_00000165953858937447298860000014104931417393396627_" class="st1" d="M298.4,118.5c0.6,0,1.3-0.3,1.7-0.7
					c0.5-0.5,0.7-1.1,0.7-1.7s-0.3-1.3-0.7-1.7c-0.5-0.5-1.1-0.7-1.7-0.7s-1.3,0.3-1.7,0.7c-0.5,0.5-0.7,1.1-0.7,1.7
					s0.3,1.3,0.7,1.7C297.1,118.2,297.7,118.5,298.4,118.5z"/>
			</g>
			<g>
				<path id="m2d98770ce5_00000139987307455382434000000000650233305195558831_" class="st1" d="M166.3,216.4c0.6,0,1.3-0.3,1.7-0.7
					c0.5-0.5,0.7-1.1,0.7-1.7s-0.3-1.3-0.7-1.7c-0.5-0.5-1.1-0.7-1.7-0.7s-1.3,0.3-1.7,0.7c-0.5,0.5-0.7,1.1-0.7,1.7
					s0.3,1.3,0.7,1.7C165,216.2,165.6,216.4,166.3,216.4z"/>
			</g>
			<g>
				<path id="m2d98770ce5_00000062189875223294614120000016378396652632106932_" class="st1" d="M197.6,190.6c0.6,0,1.3-0.3,1.7-0.7
					c0.5-0.5,0.7-1.1,0.7-1.7s-0.3-1.3-0.7-1.7c-0.5-0.5-1.1-0.7-1.7-0.7s-1.3,0.3-1.7,0.7c-0.5,0.5-0.7,1.1-0.7,1.7
					s0.3,1.3,0.7,1.7C196.3,190.3,197,190.6,197.6,190.6z"/>
			</g>
			<g>
				<path id="m2d98770ce5_00000012459758258453922210000003544090101975068547_" class="st1" d="M195.7,194.4c0.6,0,1.3-0.3,1.7-0.7
					c0.5-0.5,0.7-1.1,0.7-1.7s-0.3-1.3-0.7-1.7c-0.5-0.5-1.1-0.7-1.7-0.7s-1.3,0.3-1.7,0.7c-0.5,0.5-0.7,1.1-0.7,1.7
					s0.3,1.3,0.7,1.7C194.5,194.1,195.1,194.4,195.7,194.4z"/>
			</g>
			<g>
				<path id="m2d98770ce5_00000159439521244323082180000017237766476794367112_" class="st1" d="M189.3,199.1c0.6,0,1.3-0.3,1.7-0.7
					c0.5-0.5,0.7-1.1,0.7-1.7s-0.3-1.3-0.7-1.7c-0.5-0.5-1.1-0.7-1.7-0.7s-1.3,0.3-1.7,0.7c-0.5,0.5-0.7,1.1-0.7,1.7
					s0.3,1.3,0.7,1.7C188,198.8,188.7,199.1,189.3,199.1z"/>
			</g>
			<g>
				<path id="m2d98770ce5_00000088839858661211610450000001726125670673360296_" class="st1" d="M342.5,74.8c0.6,0,1.3-0.3,1.7-0.7
					c0.5-0.5,0.7-1.1,0.7-1.7s-0.3-1.3-0.7-1.7c-0.5-0.5-1.1-0.7-1.7-0.7s-1.3,0.3-1.7,0.7c-0.5,0.5-0.7,1.1-0.7,1.7
					s0.3,1.3,0.7,1.7C341.2,74.6,341.8,74.8,342.5,74.8z"/>
			</g>
			<g>
				<path id="m2d98770ce5_00000003791730667328774780000007508652978184605066_" class="st1" d="M164.5,219.5c0.6,0,1.3-0.3,1.7-0.7
					c0.5-0.5,0.7-1.1,0.7-1.7s-0.3-1.3-0.7-1.7c-0.5-0.5-1.1-0.7-1.7-0.7s-1.3,0.3-1.7,0.7c-0.5,0.5-0.7,1.1-0.7,1.7
					s0.3,1.3,0.7,1.7C163.3,219.3,163.9,219.5,164.5,219.5z"/>
			</g>
			<g>
				<path id="m2d98770ce5_00000146500648809503146240000013727147385395251388_" class="st1" d="M95.3,270.2c0.6,0,1.3-0.3,1.7-0.7
					c0.5-0.5,0.7-1.1,0.7-1.7c0-0.6-0.3-1.3-0.7-1.7c-0.5-0.5-1.1-0.7-1.7-0.7s-1.3,0.3-1.7,0.7c-0.5,0.5-0.7,1.1-0.7,1.7
					c0,0.6,0.3,1.3,0.7,1.7C94,269.9,94.7,270.2,95.3,270.2z"/>
			</g>
			<g>
				<path id="m2d98770ce5_00000077291035261755261610000016577994656322949256_" class="st1" d="M355.5,76.5c0.6,0,1.3-0.3,1.7-0.7
					c0.5-0.5,0.7-1.1,0.7-1.7s-0.3-1.3-0.7-1.7c-0.5-0.5-1.1-0.7-1.7-0.7s-1.3,0.3-1.7,0.7c-0.5,0.5-0.7,1.1-0.7,1.7
					s0.3,1.3,0.7,1.7C354.3,76.2,354.9,76.5,355.5,76.5z"/>
			</g>
			<g>
				<path id="m2d98770ce5_00000036932237140812374070000004312555022426304409_" class="st1" d="M313.7,86.4c0.6,0,1.3-0.3,1.7-0.7
					c0.5-0.5,0.7-1.1,0.7-1.7s-0.3-1.3-0.7-1.7c-0.5-0.5-1.1-0.7-1.7-0.7s-1.3,0.3-1.7,0.7c-0.5,0.5-0.7,1.1-0.7,1.7
					s0.3,1.3,0.7,1.7C312.4,86.1,313,86.4,313.7,86.4z"/>
			</g>
			<g>
				<path id="m2d98770ce5_00000014595291150589430370000000611648706416993708_" class="st1" d="M404,41.3c0.6,0,1.3-0.3,1.7-0.7
					c0.5-0.5,0.7-1.1,0.7-1.7s-0.3-1.3-0.7-1.7c-0.5-0.5-1.1-0.7-1.7-0.7s-1.3,0.3-1.7,0.7c-0.5,0.5-0.7,1.1-0.7,1.7
					s0.3,1.3,0.7,1.7C402.7,41.1,403.4,41.3,404,41.3z"/>
			</g>
			<g>
				<path id="m2d98770ce5_00000085221517732608210660000000384681792243109256_" class="st1" d="M389.5,49c0.6,0,1.3-0.3,1.7-0.7
					c0.5-0.5,0.7-1.1,0.7-1.7s-0.3-1.3-0.7-1.7c-0.5-0.5-1.1-0.7-1.7-0.7s-1.3,0.3-1.7,0.7c-0.5,0.5-0.7,1.1-0.7,1.7
					s0.3,1.3,0.7,1.7C388.2,48.7,388.8,49,389.5,49z"/>
			</g>
			<g>
				<path id="m2d98770ce5_00000052093595319274138840000004683210335030512040_" class="st1" d="M198.7,193c0.6,0,1.3-0.3,1.7-0.7
					c0.5-0.5,0.7-1.1,0.7-1.7s-0.3-1.3-0.7-1.7c-0.5-0.5-1.1-0.7-1.7-0.7s-1.3,0.3-1.7,0.7c-0.5,0.5-0.7,1.1-0.7,1.7
					s0.3,1.3,0.7,1.7C197.4,192.8,198.1,193,198.7,193z"/>
			</g>
			<g>
				<path id="m2d98770ce5_00000102544773897467740310000016304893625462899593_" class="st1" d="M292.8,116.8c0.6,0,1.3-0.3,1.7-0.7
					c0.5-0.5,0.7-1.1,0.7-1.7s-0.3-1.3-0.7-1.7c-0.5-0.5-1.1-0.7-1.7-0.7s-1.3,0.3-1.7,0.7c-0.5,0.5-0.7,1.1-0.7,1.7
					s0.3,1.3,0.7,1.7C291.5,116.5,292.1,116.8,292.8,116.8z"/>
			</g>
			<g>
				<path id="m2d98770ce5_00000004544114852259070430000003820501930664080058_" class="st1" d="M304.3,95.4c0.6,0,1.3-0.3,1.7-0.7
					c0.5-0.5,0.7-1.1,0.7-1.7s-0.3-1.3-0.7-1.7c-0.5-0.5-1.1-0.7-1.7-0.7s-1.3,0.3-1.7,0.7c-0.5,0.5-0.7,1.1-0.7,1.7
					s0.3,1.3,0.7,1.7C303.1,95.2,303.7,95.4,304.3,95.4z"/>
			</g>
			<g>
				<path id="m2d98770ce5_00000151520853931278359400000000505386351106150326_" class="st1" d="M233.8,167.8c0.6,0,1.3-0.3,1.7-0.7
					c0.5-0.5,0.7-1.1,0.7-1.7s-0.3-1.3-0.7-1.7c-0.5-0.5-1.1-0.7-1.7-0.7s-1.3,0.3-1.7,0.7c-0.5,0.5-0.7,1.1-0.7,1.7
					s0.3,1.3,0.7,1.7C232.5,167.5,233.1,167.8,233.8,167.8z"/>
			</g>
			<g>
				<path id="m2d98770ce5_00000039815791189938008280000012244390115629593243_" class="st1" d="M227.8,169.2c0.6,0,1.3-0.3,1.7-0.7
					c0.5-0.5,0.7-1.1,0.7-1.7s-0.3-1.3-0.7-1.7c-0.5-0.5-1.1-0.7-1.7-0.7s-1.3,0.3-1.7,0.7c-0.5,0.5-0.7,1.1-0.7,1.7
					s0.3,1.3,0.7,1.7C226.6,169,227.2,169.2,227.8,169.2z"/>
			</g>
			<g>
				<path id="m2d98770ce5_00000127753321597805596840000011788165825554038454_" class="st1" d="M367.3,61.1c0.6,0,1.3-0.3,1.7-0.7
					c0.5-0.5,0.7-1.1,0.7-1.7s-0.3-1.3-0.7-1.7c-0.5-0.5-1.1-0.7-1.7-0.7s-1.3,0.3-1.7,0.7c-0.5,0.5-0.7,1.1-0.7,1.7
					s0.3,1.3,0.7,1.7C366,60.8,366.6,61.1,367.3,61.1z"/>
			</g>
			<g>
				<path id="m2d98770ce5_00000044142864082549968290000016842916687060861323_" class="st1" d="M90.4,274.6c0.6,0,1.3-0.3,1.7-0.7
					c0.5-0.5,0.7-1.1,0.7-1.7c0-0.6-0.3-1.3-0.7-1.7c-0.5-0.5-1.1-0.7-1.7-0.7s-1.3,0.3-1.7,0.7c-0.5,0.5-0.7,1.1-0.7,1.7
					c0,0.6,0.3,1.3,0.7,1.7C89.1,274.4,89.8,274.6,90.4,274.6z"/>
			</g>
			<g>
				<path id="m2d98770ce5_00000108273908878874367760000009242735452420948869_" class="st1" d="M237.9,141.8c0.6,0,1.3-0.3,1.7-0.7
					c0.5-0.5,0.7-1.1,0.7-1.7s-0.3-1.3-0.7-1.7c-0.5-0.5-1.1-0.7-1.7-0.7s-1.3,0.3-1.7,0.7c-0.5,0.5-0.7,1.1-0.7,1.7
					s0.3,1.3,0.7,1.7C236.6,141.6,237.3,141.8,237.9,141.8z"/>
			</g>
			<g>
				<path id="m2d98770ce5_00000046299453521982147530000014320650293716759974_" class="st1" d="M196.7,196.6c0.6,0,1.3-0.3,1.7-0.7
					c0.5-0.5,0.7-1.1,0.7-1.7s-0.3-1.3-0.7-1.7c-0.5-0.5-1.1-0.7-1.7-0.7s-1.3,0.3-1.7,0.7c-0.5,0.5-0.7,1.1-0.7,1.7
					s0.3,1.3,0.7,1.7C195.4,196.3,196,196.6,196.7,196.6z"/>
			</g>
			<g>
				<path id="m2d98770ce5_00000036972551721704914600000007265591005601544857_" class="st1" d="M129,248.2c0.6,0,1.3-0.3,1.7-0.7
					c0.5-0.5,0.7-1.1,0.7-1.7s-0.3-1.3-0.7-1.7c-0.5-0.5-1.1-0.7-1.7-0.7s-1.3,0.3-1.7,0.7c-0.5,0.5-0.7,1.1-0.7,1.7
					s0.3,1.3,0.7,1.7C127.8,248,128.4,248.2,129,248.2z"/>
			</g>
			<g>
				<path id="m2d98770ce5_00000139985626510314093560000011847708968323209917_" class="st1" d="M341.7,88c0.6,0,1.3-0.3,1.7-0.7
					c0.5-0.5,0.7-1.1,0.7-1.7s-0.3-1.3-0.7-1.7c-0.5-0.5-1.1-0.7-1.7-0.7s-1.3,0.3-1.7,0.7c-0.5,0.5-0.7,1.1-0.7,1.7
					s0.3,1.3,0.7,1.7C340.4,87.7,341,88,341.7,88z"/>
			</g>
			<g>
				<path id="m2d98770ce5_00000021813519743171875100000002182777710894192318_" class="st1" d="M372.6,62c0.6,0,1.3-0.3,1.7-0.7
					c0.5-0.5,0.7-1.1,0.7-1.7s-0.3-1.3-0.7-1.7c-0.5-0.5-1.1-0.7-1.7-0.7s-1.3,0.3-1.7,0.7c-0.5,0.5-0.7,1.1-0.7,1.7
					s0.3,1.3,0.7,1.7C371.4,61.7,372,62,372.6,62z"/>
			</g>
			<g>
				<path id="m2d98770ce5_00000070109005829722155280000000160262275678634928_" class="st1" d="M230.8,169.2c0.6,0,1.3-0.3,1.7-0.7
					c0.5-0.5,0.7-1.1,0.7-1.7s-0.3-1.3-0.7-1.7c-0.5-0.5-1.1-0.7-1.7-0.7s-1.3,0.3-1.7,0.7c-0.5,0.5-0.7,1.1-0.7,1.7
					s0.3,1.3,0.7,1.7C229.6,168.9,230.2,169.2,230.8,169.2z"/>
			</g>
			<g>
				<path id="m2d98770ce5_00000094611883323191512500000010337955486480819339_" class="st1" d="M131.5,244.6c0.6,0,1.3-0.3,1.7-0.7
					c0.5-0.5,0.7-1.1,0.7-1.7s-0.3-1.3-0.7-1.7c-0.5-0.5-1.1-0.7-1.7-0.7s-1.3,0.3-1.7,0.7c-0.5,0.5-0.7,1.1-0.7,1.7
					s0.3,1.3,0.7,1.7C130.3,244.3,130.9,244.6,131.5,244.6z"/>
			</g>
			<g>
				<path id="m2d98770ce5_00000013902233001557517000000014053688865534380975_" class="st1" d="M298.6,114.7c0.6,0,1.3-0.3,1.7-0.7
					c0.5-0.5,0.7-1.1,0.7-1.7s-0.3-1.3-0.7-1.7c-0.5-0.5-1.1-0.7-1.7-0.7s-1.3,0.3-1.7,0.7c-0.5,0.5-0.7,1.1-0.7,1.7
					s0.3,1.3,0.7,1.7C297.3,114.4,297.9,114.7,298.6,114.7z"/>
			</g>
			<g>
				<path id="m2d98770ce5_00000093166690156455147850000014541580180205494968_" class="st1" d="M156.4,226.2c0.6,0,1.3-0.3,1.7-0.7
					c0.5-0.5,0.7-1.1,0.7-1.7s-0.3-1.3-0.7-1.7c-0.5-0.5-1.1-0.7-1.7-0.7s-1.3,0.3-1.7,0.7c-0.5,0.5-0.7,1.1-0.7,1.7
					s0.3,1.3,0.7,1.7C155.1,225.9,155.7,226.2,156.4,226.2z"/>
			</g>
			<g>
				<path id="m2d98770ce5_00000094586256919876319490000000432665481573986995_" class="st1" d="M228,174.7c0.6,0,1.3-0.3,1.7-0.7
					c0.5-0.5,0.7-1.1,0.7-1.7s-0.3-1.3-0.7-1.7c-0.5-0.5-1.1-0.7-1.7-0.7s-1.3,0.3-1.7,0.7c-0.5,0.5-0.7,1.1-0.7,1.7
					s0.3,1.3,0.7,1.7C226.7,174.4,227.3,174.7,228,174.7z"/>
			</g>
		</g>
	</g>
</g>
<g id="matplotlib.axis_1">
	<g id="xtick_1">
		<g id="line2d_1">
			<g>
				<g>
					<path id="mf5e45c3702" class="st2" d="M76.6,294.6v3.5"/>
				</g>
			</g>
		</g>
		<g id="text_1">
			<text transform="matrix(1 0 0 1 66.2473 312.2778)" class="st3 st4">0.0</text>
		</g>
	</g>
	<g id="xtick_2">
		<g id="line2d_2">
			<g>
				<g>
					<path id="mf5e45c3702_00000031193145803926017270000013047937007651398077_" class="st2" d="M144.7,294.6v3.5"/>
				</g>
			</g>
		</g>
		<g id="text_2">
			<text transform="matrix(1 0 0 1 134.3308 312.2778)" class="st3 st4">0.1</text>
		</g>
	</g>
	<g id="xtick_3">
		<g id="line2d_3">
			<g>
				<g>
					<path id="mf5e45c3702_00000075861205946342142770000005722171252298150576_" class="st2" d="M212.8,294.6v3.5"/>
				</g>
			</g>
		</g>
		<g id="text_3">
			<text transform="matrix(1 0 0 1 202.4143 312.2778)" class="st3 st4">0.2</text>
		</g>
	</g>
	<g id="xtick_4">
		<g id="line2d_4">
			<g>
				<g>
					<path id="mf5e45c3702_00000034793631317779646010000001436842513466979742_" class="st2" d="M280.9,294.6v3.5"/>
				</g>
			</g>
		</g>
		<g id="text_4">
			<text transform="matrix(1 0 0 1 270.4978 312.2778)" class="st3 st4">0.3</text>
		</g>
	</g>
	<g id="xtick_5">
		<g id="line2d_5">
			<g>
				<g>
					<path id="mf5e45c3702_00000173147590856926737420000011033939502130717861_" class="st2" d="M349,294.6v3.5"/>
				</g>
			</g>
		</g>
		<g id="text_5">
			<text transform="matrix(1 0 0 1 338.5813 312.2778)" class="st3 st4">0.4</text>
		</g>
	</g>
	<g id="xtick_6">
		<g id="line2d_6">
			<g>
				<g>
					<path id="mf5e45c3702_00000110450940422777132720000002308058923199679379_" class="st2" d="M417,294.6v3.5"/>
				</g>
			</g>
		</g>
		<g id="text_6">
			<text transform="matrix(1 0 0 1 406.6648 312.2778)" class="st3 st4">0.5</text>
		</g>
	</g>
	<g id="text_7">
		<text transform="matrix(1 0 0 1 200.4415 331.3469)" class="st3 st5">Predicted FDR</text>
	</g>
</g>
<g id="matplotlib.axis_2">
	<g id="ytick_1">
		<g id="line2d_7">
			<g>
				<g>
					<path id="m1c6fb061f4" class="st2" d="M59.6,282.3h-3.5"/>
				</g>
			</g>
		</g>
		<g id="text_8">
			<text transform="matrix(1 0 0 1 31.8529 287.5711)" class="st3 st4">0.0</text>
		</g>
	</g>
	<g id="ytick_2">
		<g id="line2d_8">
			<g>
				<g>
					<path id="m1c6fb061f4_00000049195359419961730250000011386330986481518492_" class="st2" d="M59.6,232.7h-3.5"/>
				</g>
			</g>
		</g>
		<g id="text_9">
			<text transform="matrix(1 0 0 1 31.8529 238.0198)" class="st3 st4">0.1</text>
		</g>
	</g>
	<g id="ytick_3">
		<g id="line2d_9">
			<g>
				<g>
					<path id="m1c6fb061f4_00000057113497211699321830000004896833848768919994_" class="st2" d="M59.6,183.1h-3.5"/>
				</g>
			</g>
		</g>
		<g id="text_10">
			<text transform="matrix(1 0 0 1 31.8529 188.4685)" class="st3 st4">0.2</text>
		</g>
	</g>
	<g id="ytick_4">
		<g id="line2d_10">
			<g>
				<g>
					<path id="m1c6fb061f4_00000121249376704619639720000005269851160661244093_" class="st2" d="M59.6,133.6h-3.5"/>
				</g>
			</g>
		</g>
		<g id="text_11">
			<text transform="matrix(1 0 0 1 31.8529 138.9172)" class="st3 st4">0.3</text>
		</g>
	</g>
	<g id="ytick_5">
		<g id="line2d_11">
			<g>
				<g>
					<path id="m1c6fb061f4_00000035533335147003822770000014458739498583781252_" class="st2" d="M59.6,84h-3.5"/>
				</g>
			</g>
		</g>
		<g id="text_12">
			<text transform="matrix(1 0 0 1 31.8529 89.3658)" class="st3 st4">0.4</text>
		</g>
	</g>
	<g id="ytick_6">
		<g id="line2d_12">
			<g>
				<g>
					<path id="m1c6fb061f4_00000097476799213885796060000010448739236855563681_" class="st2" d="M59.6,34.5h-3.5"/>
				</g>
			</g>
		</g>
		<g id="text_13">
			<text transform="matrix(1 0 0 1 31.8529 39.8146)" class="st3 st4">0.5</text>
		</g>
	</g>
	<g id="text_14">
		<text transform="matrix(6.123234e-17 -1 1 6.123234e-17 23.0081 188.6914)" class="st3 st5">True FDR</text>
	</g>
</g>
<g id="line2d_13">
	<g>
		<defs>
			<rect id="SVGID_00000119822363238557026210000007478845586268634765_" x="59.6" y="9.7" width="391.5" height="284.9"/>
		</defs>
		<clipPath id="SVGID_00000029022114425457557980000004319640301758438278_">
			<use xlink:href="#SVGID_00000119822363238557026210000007478845586268634765_"  style="overflow:visible;"/>
		</clipPath>
		
			<path style="clip-path:url(#SVGID_00000029022114425457557980000004319640301758438278_);fill:none;stroke:#000000;stroke-width:2;stroke-linejoin:round;stroke-dasharray:7.4,3.2;" d="
			M76.6,282.3L417,34.5"/>
	</g>
</g>
<g id="line2d_14">
	<g>
		<defs>
			<rect id="SVGID_00000048482794410316361510000007915635162555191723_" x="59.6" y="9.7" width="391.5" height="284.9"/>
		</defs>
		<clipPath id="SVGID_00000123441194176176382880000008310232945479914648_">
			<use xlink:href="#SVGID_00000048482794410316361510000007915635162555191723_"  style="overflow:visible;"/>
		</clipPath>
		
			<path style="clip-path:url(#SVGID_00000123441194176176382880000008310232945479914648_);fill:none;stroke:#000000;stroke-width:2;stroke-linecap:square;stroke-linejoin:round;" d="
			M76.6,283.5L417,22.5"/>
	</g>
</g>
<g id="patch_3">
	<path class="st8" d="M59.6,294.6V9.7"/>
</g>
<g id="patch_4">
	<path class="st8" d="M451.1,294.6V9.7"/>
</g>
<g id="patch_5">
	<path class="st8" d="M59.6,294.6h391.5"/>
</g>
<g id="patch_6">
	<path class="st8" d="M59.6,9.7h391.5"/>
</g>
<g id="text_15">
	<g transform="translate(280.871304 232.70087)">
		<text transform="matrix(1 0 0 1 3.089062e-05 -0.5625)" class="st9 st5">R</text>
		<text transform="matrix(1 0 0 1 11.5547 -0.5625)" class="st9 st10"> </text>
		<text transform="matrix(1 0 0 1 12.2409 -6.6875)" class="st9 st11">2</text>
		<text transform="matrix(1 0 0 1 18.4698 -6.6875)" class="st9 st10"> </text>
		<text transform="matrix(1 0 0 1 19.8041 -0.5625)" class="st9 st5"> </text>
		<text transform="matrix(1 0 0 1 24.89 -0.5625)" class="st9 st5">=</text>
		<text transform="matrix(1 0 0 1 38.2963 -0.5625)" class="st9 st5"> </text>
		<text transform="matrix(1 0 0 1 43.3822 -0.5625)" class="st9 st5">0</text>
		<text transform="matrix(1 0 0 1 53.5619 -0.5625)" class="st9 st5">.</text>
		<text transform="matrix(1 0 0 1 58.6479 -0.5625)" class="st9 st5">9</text>
		<text transform="matrix(1 0 0 1 68.8275 -0.5625)" class="st9 st5">8</text>
	</g>
</g>
</svg>
