<?xml version="1.0" encoding="utf-8"?>
<!-- Generator: Adobe Illustrator 27.5.0, SVG Export Plug-In . SVG Version: 6.00 Build 0)  -->
<svg version="1.1" id="Layer_1" xmlns="http://www.w3.org/2000/svg" xmlns:xlink="http://www.w3.org/1999/xlink" x="0px" y="0px"
	 viewBox="0 0 460.8 345.6" style="enable-background:new 0 0 460.8 345.6;" xml:space="preserve">
<style type="text/css">
	
		.st0{opacity:0.5;clip-path:url(#SVGID_00000165199176430677775210000001959876197127283881_);fill:none;stroke:#000000;stroke-linecap:square;stroke-linejoin:round;stroke-dasharray:5,3;}
	.st1{clip-path:url(#SVGID_00000158021576705988106280000014188652242881715644_);}
	.st2{stroke:#000000;stroke-width:0.5;stroke-linejoin:round;}
	.st3{font-family:'ArialMT';}
	.st4{font-size:8px;}
	.st5{clip-path:url(#SVGID_00000152952482772857461230000011941103229441549975_);fill:none;stroke:#FF0000;stroke-linejoin:round;}
	.st6{stroke:#000000;stroke-width:0.8;stroke-linejoin:round;}
	.st7{fill:none;stroke:#000000;stroke-width:0.8;stroke-linecap:square;}
	.st8{fill:none;}
	.st9{fill:#FF0000;}
	.st10{font-family:'Arial-BoldItalicMT';}
</style>
<g>
	<defs>
		<rect id="SVGID_1_" x="138.3" y="132.3" width="112" height="112"/>
	</defs>
	<clipPath id="SVGID_00000042000677217969881960000012988003483680797319_">
		<use xlink:href="#SVGID_1_"  style="overflow:visible;"/>
	</clipPath>
	
		<path style="opacity:0.5;clip-path:url(#SVGID_00000042000677217969881960000012988003483680797319_);fill:none;stroke:#000000;stroke-linecap:square;stroke-linejoin:round;stroke-dasharray:5,3;" d="
		M143.4,237.9l101.8-95.6"/>
</g>
<g>
	<defs>
		<rect id="SVGID_00000168823544281950621740000004159009949204225198_" x="138.3" y="132.3" width="112" height="112"/>
	</defs>
	<clipPath id="SVGID_00000180335879233413930560000008068514011270255295_">
		<use xlink:href="#SVGID_00000168823544281950621740000004159009949204225198_"  style="overflow:visible;"/>
	</clipPath>
	<g style="clip-path:url(#SVGID_00000180335879233413930560000008068514011270255295_);">
		<g>
			<path id="m25989b0e91" class="st2" d="M235.7,152c0.3,0,0.5-0.1,0.7-0.3c0.2-0.2,0.3-0.4,0.3-0.7s-0.1-0.5-0.3-0.7
				c-0.2-0.2-0.4-0.3-0.7-0.3c-0.3,0-0.5,0.1-0.7,0.3c-0.2,0.2-0.3,0.4-0.3,0.7s0.1,0.5,0.3,0.7C235.2,151.9,235.4,152,235.7,152z"
				/>
		</g>
		<g>
			<path id="m25989b0e91_00000160902020051851085740000006343613586533028511_" class="st2" d="M216.7,169.1c0.3,0,0.5-0.1,0.7-0.3
				c0.2-0.2,0.3-0.4,0.3-0.7c0-0.3-0.1-0.5-0.3-0.7c-0.2-0.2-0.4-0.3-0.7-0.3c-0.3,0-0.5,0.1-0.7,0.3c-0.2,0.2-0.3,0.4-0.3,0.7
				c0,0.3,0.1,0.5,0.3,0.7C216.2,169,216.4,169.1,216.7,169.1z"/>
		</g>
		<g>
			<path id="m25989b0e91_00000001625680186474454930000003605138528823200414_" class="st2" d="M233.7,151.6c0.3,0,0.5-0.1,0.7-0.3
				c0.2-0.2,0.3-0.4,0.3-0.7s-0.1-0.5-0.3-0.7c-0.2-0.2-0.4-0.3-0.7-0.3c-0.3,0-0.5,0.1-0.7,0.3c-0.2,0.2-0.3,0.4-0.3,0.7
				s0.1,0.5,0.3,0.7C233.2,151.5,233.5,151.6,233.7,151.6z"/>
		</g>
		<g>
			<path id="m25989b0e91_00000180337562176085026650000016321271705016858036_" class="st2" d="M160.6,222.9c0.3,0,0.5-0.1,0.7-0.3
				c0.2-0.2,0.3-0.4,0.3-0.7c0-0.3-0.1-0.5-0.3-0.7c-0.2-0.2-0.4-0.3-0.7-0.3c-0.3,0-0.5,0.1-0.7,0.3c-0.2,0.2-0.3,0.4-0.3,0.7
				c0,0.3,0.1,0.5,0.3,0.7C160.1,222.8,160.4,222.9,160.6,222.9z"/>
		</g>
		<g>
			<path id="m25989b0e91_00000062162676766935371870000004399587569854112929_" class="st2" d="M238.8,149.2c0.3,0,0.5-0.1,0.7-0.3
				c0.2-0.2,0.3-0.4,0.3-0.7s-0.1-0.5-0.3-0.7c-0.2-0.2-0.4-0.3-0.7-0.3s-0.5,0.1-0.7,0.3c-0.2,0.2-0.3,0.4-0.3,0.7s0.1,0.5,0.3,0.7
				C238.3,149.1,238.5,149.2,238.8,149.2z"/>
		</g>
		<g>
			<path id="m25989b0e91_00000162343864537353578440000008558551581498027692_" class="st2" d="M214.6,174.6c0.3,0,0.5-0.1,0.7-0.3
				c0.2-0.2,0.3-0.4,0.3-0.7c0-0.3-0.1-0.5-0.3-0.7c-0.2-0.2-0.4-0.3-0.7-0.3c-0.3,0-0.5,0.1-0.7,0.3c-0.2,0.2-0.3,0.4-0.3,0.7
				c0,0.3,0.1,0.5,0.3,0.7C214.1,174.5,214.3,174.6,214.6,174.6z"/>
		</g>
		<g>
			<path id="m25989b0e91_00000067195171319603415110000016660472625408257675_" class="st2" d="M191.3,195.4c0.3,0,0.5-0.1,0.7-0.3
				c0.2-0.2,0.3-0.4,0.3-0.7c0-0.3-0.1-0.5-0.3-0.7c-0.2-0.2-0.4-0.3-0.7-0.3c-0.3,0-0.5,0.1-0.7,0.3c-0.2,0.2-0.3,0.4-0.3,0.7
				c0,0.3,0.1,0.5,0.3,0.7C190.8,195.3,191,195.4,191.3,195.4z"/>
		</g>
		<g>
			<path id="m25989b0e91_00000024710379193575137990000014645103640583713207_" class="st2" d="M189.2,197.4c0.3,0,0.5-0.1,0.7-0.3
				c0.2-0.2,0.3-0.4,0.3-0.7c0-0.3-0.1-0.5-0.3-0.7c-0.2-0.2-0.4-0.3-0.7-0.3c-0.3,0-0.5,0.1-0.7,0.3c-0.2,0.2-0.3,0.4-0.3,0.7
				c0,0.3,0.1,0.5,0.3,0.7C188.7,197.3,188.9,197.4,189.2,197.4z"/>
		</g>
		<g>
			<path id="m25989b0e91_00000141424838657465963400000017340787355997515705_" class="st2" d="M177.2,206.5c0.3,0,0.5-0.1,0.7-0.3
				c0.2-0.2,0.3-0.4,0.3-0.7s-0.1-0.5-0.3-0.7c-0.2-0.2-0.4-0.3-0.7-0.3s-0.5,0.1-0.7,0.3c-0.2,0.2-0.3,0.4-0.3,0.7s0.1,0.5,0.3,0.7
				C176.7,206.4,176.9,206.5,177.2,206.5z"/>
		</g>
		<g>
			<path id="m25989b0e91_00000032609995517292727150000002908819397538753925_" class="st2" d="M150.9,232.6c0.3,0,0.5-0.1,0.7-0.3
				c0.2-0.2,0.3-0.4,0.3-0.7c0-0.3-0.1-0.5-0.3-0.7c-0.2-0.2-0.4-0.3-0.7-0.3s-0.5,0.1-0.7,0.3c-0.2,0.2-0.3,0.4-0.3,0.7
				c0,0.3,0.1,0.5,0.3,0.7C150.4,232.5,150.7,232.6,150.9,232.6z"/>
		</g>
		<g>
			<path id="m25989b0e91_00000065069968105760211320000006898369204738004925_" class="st2" d="M163.1,220.6c0.3,0,0.5-0.1,0.7-0.3
				c0.2-0.2,0.3-0.4,0.3-0.7c0-0.3-0.1-0.5-0.3-0.7c-0.2-0.2-0.4-0.3-0.7-0.3c-0.3,0-0.5,0.1-0.7,0.3c-0.2,0.2-0.3,0.4-0.3,0.7
				c0,0.3,0.1,0.5,0.3,0.7C162.6,220.5,162.8,220.6,163.1,220.6z"/>
		</g>
		<g>
			<path id="m25989b0e91_00000132780179910563745180000005835563424079669684_" class="st2" d="M227.8,158c0.3,0,0.5-0.1,0.7-0.3
				c0.2-0.2,0.3-0.4,0.3-0.7c0-0.3-0.1-0.5-0.3-0.7c-0.2-0.2-0.4-0.3-0.7-0.3c-0.3,0-0.5,0.1-0.7,0.3c-0.2,0.2-0.3,0.4-0.3,0.7
				c0,0.3,0.1,0.5,0.3,0.7C227.3,157.9,227.6,158,227.8,158z"/>
		</g>
		<g>
			<path id="m25989b0e91_00000088842911855209122650000004645304401719946680_" class="st2" d="M152.7,231.1c0.3,0,0.5-0.1,0.7-0.3
				c0.2-0.2,0.3-0.4,0.3-0.7s-0.1-0.5-0.3-0.7c-0.2-0.2-0.4-0.3-0.7-0.3c-0.3,0-0.5,0.1-0.7,0.3c-0.2,0.2-0.3,0.4-0.3,0.7
				s0.1,0.5,0.3,0.7C152.2,231,152.4,231.1,152.7,231.1z"/>
		</g>
		<g>
			<path id="m25989b0e91_00000014624844197715814860000008696237887669742757_" class="st2" d="M170,213.6c0.3,0,0.5-0.1,0.7-0.3
				c0.2-0.2,0.3-0.4,0.3-0.7c0-0.3-0.1-0.5-0.3-0.7c-0.2-0.2-0.4-0.3-0.7-0.3c-0.3,0-0.5,0.1-0.7,0.3c-0.2,0.2-0.3,0.4-0.3,0.7
				c0,0.3,0.1,0.5,0.3,0.7S169.7,213.6,170,213.6z"/>
		</g>
		<g>
			<path id="m25989b0e91_00000001664484273113158970000008145188978381605773_" class="st2" d="M173.7,210.7c0.3,0,0.5-0.1,0.7-0.3
				c0.2-0.2,0.3-0.4,0.3-0.7c0-0.3-0.1-0.5-0.3-0.7c-0.2-0.2-0.4-0.3-0.7-0.3c-0.3,0-0.5,0.1-0.7,0.3c-0.2,0.2-0.3,0.4-0.3,0.7
				c0,0.3,0.1,0.5,0.3,0.7C173.2,210.6,173.5,210.7,173.7,210.7z"/>
		</g>
		<g>
			<path id="m25989b0e91_00000093858804519739217830000006980496528127495072_" class="st2" d="M244.2,154.1c0.3,0,0.5-0.1,0.7-0.3
				c0.2-0.2,0.3-0.4,0.3-0.7c0-0.3-0.1-0.5-0.3-0.7c-0.2-0.2-0.4-0.3-0.7-0.3c-0.3,0-0.5,0.1-0.7,0.3c-0.2,0.2-0.3,0.4-0.3,0.7
				c0,0.3,0.1,0.5,0.3,0.7C243.7,154,243.9,154.1,244.2,154.1z"/>
		</g>
		<g>
			<path id="m25989b0e91_00000015326226144868889650000003301693239657373103_" class="st2" d="M206,179.5c0.3,0,0.5-0.1,0.7-0.3
				c0.2-0.2,0.3-0.4,0.3-0.7c0-0.3-0.1-0.5-0.3-0.7c-0.2-0.2-0.4-0.3-0.7-0.3c-0.3,0-0.5,0.1-0.7,0.3c-0.2,0.2-0.3,0.4-0.3,0.7
				c0,0.3,0.1,0.5,0.3,0.7C205.5,179.4,205.8,179.5,206,179.5z"/>
		</g>
		<g>
			<path id="m25989b0e91_00000183963589370121970930000011392695702461127333_" class="st2" d="M175.4,208.5c0.3,0,0.5-0.1,0.7-0.3
				c0.2-0.2,0.3-0.4,0.3-0.7c0-0.3-0.1-0.5-0.3-0.7c-0.2-0.2-0.4-0.3-0.7-0.3c-0.3,0-0.5,0.1-0.7,0.3c-0.2,0.2-0.3,0.4-0.3,0.7
				c0,0.3,0.1,0.5,0.3,0.7C174.9,208.4,175.2,208.5,175.4,208.5z"/>
		</g>
		<g>
			<path id="m25989b0e91_00000067232987032781172290000012804555496714663335_" class="st2" d="M182.1,202.3c0.3,0,0.5-0.1,0.7-0.3
				c0.2-0.2,0.3-0.4,0.3-0.7s-0.1-0.5-0.3-0.7c-0.2-0.2-0.4-0.3-0.7-0.3c-0.3,0-0.5,0.1-0.7,0.3c-0.2,0.2-0.3,0.4-0.3,0.7
				s0.1,0.5,0.3,0.7C181.6,202.2,181.9,202.3,182.1,202.3z"/>
		</g>
		<g>
			<path id="m25989b0e91_00000122713560199475678170000015876481084572586146_" class="st2" d="M227.4,157.3c0.3,0,0.5-0.1,0.7-0.3
				c0.2-0.2,0.3-0.4,0.3-0.7c0-0.3-0.1-0.5-0.3-0.7c-0.2-0.2-0.4-0.3-0.7-0.3s-0.5,0.1-0.7,0.3c-0.2,0.2-0.3,0.4-0.3,0.7
				c0,0.3,0.1,0.5,0.3,0.7C226.9,157.2,227.1,157.3,227.4,157.3z"/>
		</g>
		<g>
			<path id="m25989b0e91_00000074434440980778655790000017762105800946013884_" class="st2" d="M157.3,227.1c0.3,0,0.5-0.1,0.7-0.3
				c0.2-0.2,0.3-0.4,0.3-0.7s-0.1-0.5-0.3-0.7c-0.2-0.2-0.4-0.3-0.7-0.3c-0.3,0-0.5,0.1-0.7,0.3c-0.2,0.2-0.3,0.4-0.3,0.7
				s0.1,0.5,0.3,0.7C156.8,227,157,227.1,157.3,227.1z"/>
		</g>
		<g>
			<path id="m25989b0e91_00000053521394936048299010000003998148969359152817_" class="st2" d="M145.5,237.9c0.3,0,0.5-0.1,0.7-0.3
				c0.2-0.2,0.3-0.4,0.3-0.7c0-0.3-0.1-0.5-0.3-0.7c-0.2-0.2-0.4-0.3-0.7-0.3c-0.3,0-0.5,0.1-0.7,0.3c-0.2,0.2-0.3,0.4-0.3,0.7
				c0,0.3,0.1,0.5,0.3,0.7C145,237.8,145.3,237.9,145.5,237.9z"/>
		</g>
		<g>
			<path id="m25989b0e91_00000028301210947211648680000004521520479151135134_" class="st2" d="M235.6,149.2c0.3,0,0.5-0.1,0.7-0.3
				c0.2-0.2,0.3-0.4,0.3-0.7c0-0.3-0.1-0.5-0.3-0.7c-0.2-0.2-0.4-0.3-0.7-0.3c-0.3,0-0.5,0.1-0.7,0.3c-0.2,0.2-0.3,0.4-0.3,0.7
				c0,0.3,0.1,0.5,0.3,0.7C235.1,149.1,235.3,149.2,235.6,149.2z"/>
		</g>
		<g>
			<path id="m25989b0e91_00000041975241317035692220000012427362164786417546_" class="st2" d="M230.1,166.4c0.3,0,0.5-0.1,0.7-0.3
				c0.2-0.2,0.3-0.4,0.3-0.7c0-0.3-0.1-0.5-0.3-0.7c-0.2-0.2-0.4-0.3-0.7-0.3s-0.5,0.1-0.7,0.3c-0.2,0.2-0.3,0.4-0.3,0.7
				c0,0.3,0.1,0.5,0.3,0.7C229.6,166.3,229.9,166.4,230.1,166.4z"/>
		</g>
		<g>
			<path id="m25989b0e91_00000139264601538646039080000016503194701146573440_" class="st2" d="M178.7,205.1c0.3,0,0.5-0.1,0.7-0.3
				c0.2-0.2,0.3-0.4,0.3-0.7c0-0.3-0.1-0.5-0.3-0.7c-0.2-0.2-0.4-0.3-0.7-0.3c-0.3,0-0.5,0.1-0.7,0.3c-0.2,0.2-0.3,0.4-0.3,0.7
				c0,0.3,0.1,0.5,0.3,0.7C178.2,205,178.4,205.1,178.7,205.1z"/>
		</g>
		<g>
			<path id="m25989b0e91_00000101805304748655990910000014269118524057499052_" class="st2" d="M227.2,160.6c0.3,0,0.5-0.1,0.7-0.3
				c0.2-0.2,0.3-0.4,0.3-0.7c0-0.3-0.1-0.5-0.3-0.7c-0.2-0.2-0.4-0.3-0.7-0.3c-0.3,0-0.5,0.1-0.7,0.3c-0.2,0.2-0.3,0.4-0.3,0.7
				c0,0.3,0.1,0.5,0.3,0.7C226.7,160.5,226.9,160.6,227.2,160.6z"/>
		</g>
		<g>
			<path id="m25989b0e91_00000018229789843313602820000016819450510787180174_" class="st2" d="M218.8,168.1c0.3,0,0.5-0.1,0.7-0.3
				c0.2-0.2,0.3-0.4,0.3-0.7c0-0.3-0.1-0.5-0.3-0.7c-0.2-0.2-0.4-0.3-0.7-0.3c-0.3,0-0.5,0.1-0.7,0.3c-0.2,0.2-0.3,0.4-0.3,0.7
				c0,0.3,0.1,0.5,0.3,0.7C218.3,168,218.5,168.1,218.8,168.1z"/>
		</g>
		<g>
			<path id="m25989b0e91_00000005227889460354585230000011815822902429123976_" class="st2" d="M197.5,185.5c0.3,0,0.5-0.1,0.7-0.3
				c0.2-0.2,0.3-0.4,0.3-0.7c0-0.3-0.1-0.5-0.3-0.7c-0.2-0.2-0.4-0.3-0.7-0.3s-0.5,0.1-0.7,0.3c-0.2,0.2-0.3,0.4-0.3,0.7
				c0,0.3,0.1,0.5,0.3,0.7C197,185.4,197.2,185.5,197.5,185.5z"/>
		</g>
		<g>
			<path id="m25989b0e91_00000051377912207670951920000001858275867340726937_" class="st2" d="M195.6,190.3c0.3,0,0.5-0.1,0.7-0.3
				c0.2-0.2,0.3-0.4,0.3-0.7c0-0.3-0.1-0.5-0.3-0.7c-0.2-0.2-0.4-0.3-0.7-0.3c-0.3,0-0.5,0.1-0.7,0.3c-0.2,0.2-0.3,0.4-0.3,0.7
				c0,0.3,0.1,0.5,0.3,0.7C195.1,190.2,195.3,190.3,195.6,190.3z"/>
		</g>
		<g>
			<path id="m25989b0e91_00000137101256366667485410000013200026237150093720_" class="st2" d="M205.5,181c0.3,0,0.5-0.1,0.7-0.3
				c0.2-0.2,0.3-0.4,0.3-0.7s-0.1-0.5-0.3-0.7c-0.2-0.2-0.4-0.3-0.7-0.3c-0.3,0-0.5,0.1-0.7,0.3c-0.2,0.2-0.3,0.4-0.3,0.7
				s0.1,0.5,0.3,0.7C205,180.9,205.3,181,205.5,181z"/>
		</g>
		<g>
			<path id="m25989b0e91_00000094615359395920576420000009441278002315847314_" class="st2" d="M220.6,167.9c0.3,0,0.5-0.1,0.7-0.3
				c0.2-0.2,0.3-0.4,0.3-0.7c0-0.3-0.1-0.5-0.3-0.7c-0.2-0.2-0.4-0.3-0.7-0.3c-0.3,0-0.5,0.1-0.7,0.3c-0.2,0.2-0.3,0.4-0.3,0.7
				c0,0.3,0.1,0.5,0.3,0.7C220.1,167.8,220.3,167.9,220.6,167.9z"/>
		</g>
		<g>
			<path id="m25989b0e91_00000107561946810334132420000003931021975818969526_" class="st2" d="M178.1,206.7c0.3,0,0.5-0.1,0.7-0.3
				c0.2-0.2,0.3-0.4,0.3-0.7c0-0.3-0.1-0.5-0.3-0.7c-0.2-0.2-0.4-0.3-0.7-0.3s-0.5,0.1-0.7,0.3c-0.2,0.2-0.3,0.4-0.3,0.7
				c0,0.3,0.1,0.5,0.3,0.7C177.6,206.6,177.9,206.7,178.1,206.7z"/>
		</g>
		<g>
			<path id="m25989b0e91_00000037659243614765082910000002579114108374908067_" class="st2" d="M197.9,185.9c0.3,0,0.5-0.1,0.7-0.3
				c0.2-0.2,0.3-0.4,0.3-0.7c0-0.3-0.1-0.5-0.3-0.7c-0.2-0.2-0.4-0.3-0.7-0.3c-0.3,0-0.5,0.1-0.7,0.3c-0.2,0.2-0.3,0.4-0.3,0.7
				c0,0.3,0.1,0.5,0.3,0.7C197.4,185.8,197.6,185.9,197.9,185.9z"/>
		</g>
		<g>
			<path id="m25989b0e91_00000015319622639832668500000004941648226482806691_" class="st2" d="M188,197c0.3,0,0.5-0.1,0.7-0.3
				c0.2-0.2,0.3-0.4,0.3-0.7s-0.1-0.5-0.3-0.7c-0.2-0.2-0.4-0.3-0.7-0.3c-0.3,0-0.5,0.1-0.7,0.3c-0.2,0.2-0.3,0.4-0.3,0.7
				s0.1,0.5,0.3,0.7C187.5,196.9,187.7,197,188,197z"/>
		</g>
		<g>
			<path id="m25989b0e91_00000154400963508629239180000014533348923388069536_" class="st2" d="M213.7,173.8c0.3,0,0.5-0.1,0.7-0.3
				c0.2-0.2,0.3-0.4,0.3-0.7s-0.1-0.5-0.3-0.7c-0.2-0.2-0.4-0.3-0.7-0.3c-0.3,0-0.5,0.1-0.7,0.3c-0.2,0.2-0.3,0.4-0.3,0.7
				s0.1,0.5,0.3,0.7C213.2,173.7,213.5,173.8,213.7,173.8z"/>
		</g>
		<g>
			<path id="m25989b0e91_00000066495216513437028840000015553244601888912282_" class="st2" d="M207.7,177.6c0.3,0,0.5-0.1,0.7-0.3
				c0.2-0.2,0.3-0.4,0.3-0.7c0-0.3-0.1-0.5-0.3-0.7c-0.2-0.2-0.4-0.3-0.7-0.3c-0.3,0-0.5,0.1-0.7,0.3c-0.2,0.2-0.3,0.4-0.3,0.7
				c0,0.3,0.1,0.5,0.3,0.7C207.2,177.5,207.4,177.6,207.7,177.6z"/>
		</g>
		<g>
			<path id="m25989b0e91_00000026138349051274448280000005030126518325329546_" class="st2" d="M187.3,197.1c0.3,0,0.5-0.1,0.7-0.3
				c0.2-0.2,0.3-0.4,0.3-0.7c0-0.3-0.1-0.5-0.3-0.7c-0.2-0.2-0.4-0.3-0.7-0.3c-0.3,0-0.5,0.1-0.7,0.3s-0.3,0.4-0.3,0.7
				c0,0.3,0.1,0.5,0.3,0.7C186.8,197,187.1,197.1,187.3,197.1z"/>
		</g>
		<g>
			<path id="m25989b0e91_00000065042462754571080060000009696707328664298417_" class="st2" d="M187.1,194.6c0.3,0,0.5-0.1,0.7-0.3
				c0.2-0.2,0.3-0.4,0.3-0.7c0-0.3-0.1-0.5-0.3-0.7c-0.2-0.2-0.4-0.3-0.7-0.3c-0.3,0-0.5,0.1-0.7,0.3c-0.2,0.2-0.3,0.4-0.3,0.7
				c0,0.3,0.1,0.5,0.3,0.7C186.6,194.5,186.8,194.6,187.1,194.6z"/>
		</g>
		<g>
			<path id="m25989b0e91_00000066492240048923515180000010584193279286899884_" class="st2" d="M221.9,163c0.3,0,0.5-0.1,0.7-0.3
				c0.2-0.2,0.3-0.4,0.3-0.7c0-0.3-0.1-0.5-0.3-0.7c-0.2-0.2-0.4-0.3-0.7-0.3c-0.3,0-0.5,0.1-0.7,0.3c-0.2,0.2-0.3,0.4-0.3,0.7
				c0,0.3,0.1,0.5,0.3,0.7C221.4,162.9,221.6,163,221.9,163z"/>
		</g>
		<g>
			<path id="m25989b0e91_00000057849571280422076870000006290221723392281759_" class="st2" d="M210.6,174c0.3,0,0.5-0.1,0.7-0.3
				c0.2-0.2,0.3-0.4,0.3-0.7c0-0.3-0.1-0.5-0.3-0.7c-0.2-0.2-0.4-0.3-0.7-0.3s-0.5,0.1-0.7,0.3c-0.2,0.2-0.3,0.4-0.3,0.7
				c0,0.3,0.1,0.5,0.3,0.7C210.1,173.9,210.3,174,210.6,174z"/>
		</g>
		<g>
			<path id="m25989b0e91_00000036936897073261438970000001896689635086784394_" class="st2" d="M151.8,231.9c0.3,0,0.5-0.1,0.7-0.3
				c0.2-0.2,0.3-0.4,0.3-0.7c0-0.3-0.1-0.5-0.3-0.7c-0.2-0.2-0.4-0.3-0.7-0.3c-0.3,0-0.5,0.1-0.7,0.3c-0.2,0.2-0.3,0.4-0.3,0.7
				c0,0.3,0.1,0.5,0.3,0.7C151.3,231.8,151.6,231.9,151.8,231.9z"/>
		</g>
		<g>
			<path id="m25989b0e91_00000075859179627594076530000014519146287156080263_" class="st2" d="M201.5,182.8c0.3,0,0.5-0.1,0.7-0.3
				c0.2-0.2,0.3-0.4,0.3-0.7s-0.1-0.5-0.3-0.7c-0.2-0.2-0.4-0.3-0.7-0.3c-0.3,0-0.5,0.1-0.7,0.3c-0.2,0.2-0.3,0.4-0.3,0.7
				s0.1,0.5,0.3,0.7C201,182.7,201.3,182.8,201.5,182.8z"/>
		</g>
		<g>
			<path id="m25989b0e91_00000047781116622579433610000007927770715198741431_" class="st2" d="M232,154.8c0.3,0,0.5-0.1,0.7-0.3
				s0.3-0.4,0.3-0.7c0-0.3-0.1-0.5-0.3-0.7c-0.2-0.2-0.4-0.3-0.7-0.3c-0.3,0-0.5,0.1-0.7,0.3c-0.2,0.2-0.3,0.4-0.3,0.7
				c0,0.3,0.1,0.5,0.3,0.7C231.5,154.7,231.7,154.8,232,154.8z"/>
		</g>
		<g>
			<path id="m25989b0e91_00000150822858814407233850000012059734148583445165_" class="st2" d="M169.9,214c0.3,0,0.5-0.1,0.7-0.3
				c0.2-0.2,0.3-0.4,0.3-0.7c0-0.3-0.1-0.5-0.3-0.7c-0.2-0.2-0.4-0.3-0.7-0.3c-0.3,0-0.5,0.1-0.7,0.3c-0.2,0.2-0.3,0.4-0.3,0.7
				c0,0.3,0.1,0.5,0.3,0.7C169.4,213.9,169.7,214,169.9,214z"/>
		</g>
		<g>
			<path id="m25989b0e91_00000034769709821890910360000009726734898592872084_" class="st2" d="M235.5,153.7c0.3,0,0.5-0.1,0.7-0.3
				c0.2-0.2,0.3-0.4,0.3-0.7c0-0.3-0.1-0.5-0.3-0.7c-0.2-0.2-0.4-0.3-0.7-0.3c-0.3,0-0.5,0.1-0.7,0.3c-0.2,0.2-0.3,0.4-0.3,0.7
				c0,0.3,0.1,0.5,0.3,0.7C235,153.6,235.3,153.7,235.5,153.7z"/>
		</g>
		<g>
			<path id="m25989b0e91_00000037687485066544726690000009346809595466535320_" class="st2" d="M169.3,214.4c0.3,0,0.5-0.1,0.7-0.3
				c0.2-0.2,0.3-0.4,0.3-0.7c0-0.3-0.1-0.5-0.3-0.7c-0.2-0.2-0.4-0.3-0.7-0.3c-0.3,0-0.5,0.1-0.7,0.3c-0.2,0.2-0.3,0.4-0.3,0.7
				c0,0.3,0.1,0.5,0.3,0.7C168.8,214.3,169.1,214.4,169.3,214.4z"/>
		</g>
		<g>
			<path id="m25989b0e91_00000088822744604654142770000003172968302971728284_" class="st2" d="M235.3,154.7c0.3,0,0.5-0.1,0.7-0.3
				c0.2-0.2,0.3-0.4,0.3-0.7s-0.1-0.5-0.3-0.7c-0.2-0.2-0.4-0.3-0.7-0.3c-0.3,0-0.5,0.1-0.7,0.3c-0.2,0.2-0.3,0.4-0.3,0.7
				s0.1,0.5,0.3,0.7C234.8,154.6,235,154.7,235.3,154.7z"/>
		</g>
		<g>
			<path id="m25989b0e91_00000159467197092158478720000001778887888769482894_" class="st2" d="M199.5,186.2c0.3,0,0.5-0.1,0.7-0.3
				c0.2-0.2,0.3-0.4,0.3-0.7s-0.1-0.5-0.3-0.7c-0.2-0.2-0.4-0.3-0.7-0.3c-0.3,0-0.5,0.1-0.7,0.3c-0.2,0.2-0.3,0.4-0.3,0.7
				s0.1,0.5,0.3,0.7C199,186,199.2,186.2,199.5,186.2z"/>
		</g>
		<g>
			<path id="m25989b0e91_00000030476387854971636850000005966260960941771151_" class="st2" d="M164.9,218.3c0.3,0,0.5-0.1,0.7-0.3
				c0.2-0.2,0.3-0.4,0.3-0.7c0-0.3-0.1-0.5-0.3-0.7c-0.2-0.2-0.4-0.3-0.7-0.3s-0.5,0.1-0.7,0.3c-0.2,0.2-0.3,0.4-0.3,0.7
				c0,0.3,0.1,0.5,0.3,0.7C164.4,218.2,164.6,218.3,164.9,218.3z"/>
		</g>
		<g>
			<path id="m25989b0e91_00000121973259506639886770000008372568159438194316_" class="st2" d="M213.8,169.9c0.3,0,0.5-0.1,0.7-0.3
				c0.2-0.2,0.3-0.4,0.3-0.7c0-0.3-0.1-0.5-0.3-0.7c-0.2-0.2-0.4-0.3-0.7-0.3c-0.3,0-0.5,0.1-0.7,0.3c-0.2,0.2-0.3,0.4-0.3,0.7
				c0,0.3,0.1,0.5,0.3,0.7S213.6,169.9,213.8,169.9z"/>
		</g>
		<g>
			<path id="m25989b0e91_00000176753925812102223820000012627667411676101789_" class="st2" d="M164,220.2c0.3,0,0.5-0.1,0.7-0.3
				c0.2-0.2,0.3-0.4,0.3-0.7c0-0.3-0.1-0.5-0.3-0.7c-0.2-0.2-0.4-0.3-0.7-0.3c-0.3,0-0.5,0.1-0.7,0.3c-0.2,0.2-0.3,0.4-0.3,0.7
				c0,0.3,0.1,0.5,0.3,0.7C163.5,220.1,163.8,220.2,164,220.2z"/>
		</g>
		<g>
			<path id="m25989b0e91_00000083069463425794574770000013683493983281856927_" class="st2" d="M201.3,182.4c0.3,0,0.5-0.1,0.7-0.3
				c0.2-0.2,0.3-0.4,0.3-0.7c0-0.3-0.1-0.5-0.3-0.7c-0.2-0.2-0.4-0.3-0.7-0.3c-0.3,0-0.5,0.1-0.7,0.3c-0.2,0.2-0.3,0.4-0.3,0.7
				c0,0.3,0.1,0.5,0.3,0.7C200.8,182.2,201,182.4,201.3,182.4z"/>
		</g>
		<g>
			<path id="m25989b0e91_00000007413546839180127970000003090482315543032704_" class="st2" d="M202.6,183.2c0.3,0,0.5-0.1,0.7-0.3
				c0.2-0.2,0.3-0.4,0.3-0.7c0-0.3-0.1-0.5-0.3-0.7c-0.2-0.2-0.4-0.3-0.7-0.3s-0.5,0.1-0.7,0.3c-0.2,0.2-0.3,0.4-0.3,0.7
				c0,0.3,0.1,0.5,0.3,0.7C202.1,183.1,202.4,183.2,202.6,183.2z"/>
		</g>
		<g>
			<path id="m25989b0e91_00000028301728388374331500000012765436515292770692_" class="st2" d="M188.5,195.5c0.3,0,0.5-0.1,0.7-0.3
				c0.2-0.2,0.3-0.4,0.3-0.7c0-0.3-0.1-0.5-0.3-0.7c-0.2-0.2-0.4-0.3-0.7-0.3c-0.3,0-0.5,0.1-0.7,0.3c-0.2,0.2-0.3,0.4-0.3,0.7
				c0,0.3,0.1,0.5,0.3,0.7C188,195.4,188.3,195.5,188.5,195.5z"/>
		</g>
		<g>
			<path id="m25989b0e91_00000155843988792661364490000011840160078805340092_" class="st2" d="M201,182.5c0.3,0,0.5-0.1,0.7-0.3
				c0.2-0.2,0.3-0.4,0.3-0.7c0-0.3-0.1-0.5-0.3-0.7c-0.2-0.2-0.4-0.3-0.7-0.3c-0.3,0-0.5,0.1-0.7,0.3c-0.2,0.2-0.3,0.4-0.3,0.7
				c0,0.3,0.1,0.5,0.3,0.7C200.5,182.4,200.7,182.5,201,182.5z"/>
		</g>
		<g>
			<path id="m25989b0e91_00000118393665684705418910000009656668845637960072_" class="st2" d="M151.5,232c0.3,0,0.5-0.1,0.7-0.3
				c0.2-0.2,0.3-0.4,0.3-0.7c0-0.3-0.1-0.5-0.3-0.7c-0.2-0.2-0.4-0.3-0.7-0.3c-0.3,0-0.5,0.1-0.7,0.3c-0.2,0.2-0.3,0.4-0.3,0.7
				c0,0.3,0.1,0.5,0.3,0.7C151,231.9,151.3,232,151.5,232z"/>
		</g>
		<g>
			<path id="m25989b0e91_00000098909872962631347360000000471766640461818796_" class="st2" d="M185.1,199.5c0.3,0,0.5-0.1,0.7-0.3
				c0.2-0.2,0.3-0.4,0.3-0.7c0-0.3-0.1-0.5-0.3-0.7c-0.2-0.2-0.4-0.3-0.7-0.3c-0.3,0-0.5,0.1-0.7,0.3c-0.2,0.2-0.3,0.4-0.3,0.7
				c0,0.3,0.1,0.5,0.3,0.7C184.6,199.4,184.8,199.5,185.1,199.5z"/>
		</g>
		<g>
			<path id="m25989b0e91_00000065755316297242541840000003320078045944323223_" class="st2" d="M173.5,209.4c0.3,0,0.5-0.1,0.7-0.3
				c0.2-0.2,0.3-0.4,0.3-0.7c0-0.3-0.1-0.5-0.3-0.7c-0.2-0.2-0.4-0.3-0.7-0.3c-0.3,0-0.5,0.1-0.7,0.3c-0.2,0.2-0.3,0.4-0.3,0.7
				c0,0.3,0.1,0.5,0.3,0.7C173,209.3,173.3,209.4,173.5,209.4z"/>
		</g>
		<g>
			<path id="m25989b0e91_00000024713746126560610240000004843619418843109270_" class="st2" d="M203.5,181.9c0.3,0,0.5-0.1,0.7-0.3
				c0.2-0.2,0.3-0.4,0.3-0.7c0-0.3-0.1-0.5-0.3-0.7c-0.2-0.2-0.4-0.3-0.7-0.3c-0.3,0-0.5,0.1-0.7,0.3c-0.2,0.2-0.3,0.4-0.3,0.7
				c0,0.3,0.1,0.5,0.3,0.7C203,181.8,203.2,181.9,203.5,181.9z"/>
		</g>
		<g>
			<path id="m25989b0e91_00000058554039904381333840000005014583292760098731_" class="st2" d="M178.7,206.1c0.3,0,0.5-0.1,0.7-0.3
				c0.2-0.2,0.3-0.4,0.3-0.7c0-0.3-0.1-0.5-0.3-0.7s-0.4-0.3-0.7-0.3c-0.3,0-0.5,0.1-0.7,0.3c-0.2,0.2-0.3,0.4-0.3,0.7
				c0,0.3,0.1,0.5,0.3,0.7C178.2,206,178.5,206.1,178.7,206.1z"/>
		</g>
		<g>
			<path id="m25989b0e91_00000067228450184692173180000000061894920379858103_" class="st2" d="M225.8,163.5c0.3,0,0.5-0.1,0.7-0.3
				c0.2-0.2,0.3-0.4,0.3-0.7s-0.1-0.5-0.3-0.7c-0.2-0.2-0.4-0.3-0.7-0.3c-0.3,0-0.5,0.1-0.7,0.3c-0.2,0.2-0.3,0.4-0.3,0.7
				s0.1,0.5,0.3,0.7C225.2,163.4,225.5,163.5,225.8,163.5z"/>
		</g>
		<g>
			<path id="m25989b0e91_00000026881986039901475640000016670107353772451460_" class="st2" d="M236.9,152.1c0.3,0,0.5-0.1,0.7-0.3
				c0.2-0.2,0.3-0.4,0.3-0.7c0-0.3-0.1-0.5-0.3-0.7c-0.2-0.2-0.4-0.3-0.7-0.3c-0.3,0-0.5,0.1-0.7,0.3c-0.2,0.2-0.3,0.4-0.3,0.7
				c0,0.3,0.1,0.5,0.3,0.7C236.4,152,236.7,152.1,236.9,152.1z"/>
		</g>
		<g>
			<path id="m25989b0e91_00000181801217351386103030000014634282818555438235_" class="st2" d="M226.4,159.6c0.3,0,0.5-0.1,0.7-0.3
				c0.2-0.2,0.3-0.4,0.3-0.7c0-0.3-0.1-0.5-0.3-0.7c-0.2-0.2-0.4-0.3-0.7-0.3c-0.3,0-0.5,0.1-0.7,0.3c-0.2,0.2-0.3,0.4-0.3,0.7
				c0,0.3,0.1,0.5,0.3,0.7C225.9,159.5,226.2,159.6,226.4,159.6z"/>
		</g>
		<g>
			<path id="m25989b0e91_00000175304074565270698450000008054749761095096454_" class="st2" d="M151.9,231c0.3,0,0.5-0.1,0.7-0.3
				c0.2-0.2,0.3-0.4,0.3-0.7c0-0.3-0.1-0.5-0.3-0.7c-0.2-0.2-0.4-0.3-0.7-0.3c-0.3,0-0.5,0.1-0.7,0.3c-0.2,0.2-0.3,0.4-0.3,0.7
				c0,0.3,0.1,0.5,0.3,0.7C151.4,230.9,151.7,231,151.9,231z"/>
		</g>
		<g>
			<path id="m25989b0e91_00000031196443714160408850000014679749134774925747_" class="st2" d="M223.7,160.4c0.3,0,0.5-0.1,0.7-0.3
				c0.2-0.2,0.3-0.4,0.3-0.7c0-0.3-0.1-0.5-0.3-0.7c-0.2-0.2-0.4-0.3-0.7-0.3c-0.3,0-0.5,0.1-0.7,0.3c-0.2,0.2-0.3,0.4-0.3,0.7
				c0,0.3,0.1,0.5,0.3,0.7C223.2,160.3,223.5,160.4,223.7,160.4z"/>
		</g>
		<g>
			<path id="m25989b0e91_00000062879022830474289080000004813614333220731292_" class="st2" d="M198.2,186.5c0.3,0,0.5-0.1,0.7-0.3
				c0.2-0.2,0.3-0.4,0.3-0.7c0-0.3-0.1-0.5-0.3-0.7c-0.2-0.2-0.4-0.3-0.7-0.3s-0.5,0.1-0.7,0.3c-0.2,0.2-0.3,0.4-0.3,0.7
				c0,0.3,0.1,0.5,0.3,0.7C197.7,186.4,198,186.5,198.2,186.5z"/>
		</g>
		<g>
			<path id="m25989b0e91_00000025442028829219272060000000278078069215291321_" class="st2" d="M221.9,164c0.3,0,0.5-0.1,0.7-0.3
				c0.2-0.2,0.3-0.4,0.3-0.7c0-0.3-0.1-0.5-0.3-0.7s-0.4-0.3-0.7-0.3c-0.3,0-0.5,0.1-0.7,0.3c-0.2,0.2-0.3,0.4-0.3,0.7
				c0,0.3,0.1,0.5,0.3,0.7C221.4,163.9,221.7,164,221.9,164z"/>
		</g>
		<g>
			<path id="m25989b0e91_00000101089543546598582260000014326840790887673781_" class="st2" d="M196.3,188.6c0.3,0,0.5-0.1,0.7-0.3
				c0.2-0.2,0.3-0.4,0.3-0.7c0-0.3-0.1-0.5-0.3-0.7c-0.2-0.2-0.4-0.3-0.7-0.3c-0.3,0-0.5,0.1-0.7,0.3c-0.2,0.2-0.3,0.4-0.3,0.7
				c0,0.3,0.1,0.5,0.3,0.7C195.8,188.5,196,188.6,196.3,188.6z"/>
		</g>
		<g>
			<path id="m25989b0e91_00000132777170380605459500000012441911861193793456_" class="st2" d="M243.2,147.2c0.3,0,0.5-0.1,0.7-0.3
				c0.2-0.2,0.3-0.4,0.3-0.7c0-0.3-0.1-0.5-0.3-0.7c-0.2-0.2-0.4-0.3-0.7-0.3c-0.3,0-0.5,0.1-0.7,0.3c-0.2,0.2-0.3,0.4-0.3,0.7
				c0,0.3,0.1,0.5,0.3,0.7C242.7,147.1,243,147.2,243.2,147.2z"/>
		</g>
		<g>
			<path id="m25989b0e91_00000145769299597071894460000000614257670834622370_" class="st2" d="M199.2,186.9c0.3,0,0.5-0.1,0.7-0.3
				c0.2-0.2,0.3-0.4,0.3-0.7s-0.1-0.5-0.3-0.7c-0.2-0.2-0.4-0.3-0.7-0.3c-0.3,0-0.5,0.1-0.7,0.3c-0.2,0.2-0.3,0.4-0.3,0.7
				s0.1,0.5,0.3,0.7C198.7,186.8,199,186.9,199.2,186.9z"/>
		</g>
		<g>
			<path id="m25989b0e91_00000145040141346299720220000008622505791677050813_" class="st2" d="M170.5,213.2c0.3,0,0.5-0.1,0.7-0.3
				c0.2-0.2,0.3-0.4,0.3-0.7c0-0.3-0.1-0.5-0.3-0.7c-0.2-0.2-0.4-0.3-0.7-0.3s-0.5,0.1-0.7,0.3c-0.2,0.2-0.3,0.4-0.3,0.7
				c0,0.3,0.1,0.5,0.3,0.7C169.9,213.1,170.2,213.2,170.5,213.2z"/>
		</g>
		<g>
			<path id="m25989b0e91_00000169522204157349159420000008371188124130508424_" class="st2" d="M186.7,197.5c0.3,0,0.5-0.1,0.7-0.3
				c0.2-0.2,0.3-0.4,0.3-0.7c0-0.3-0.1-0.5-0.3-0.7c-0.2-0.2-0.4-0.3-0.7-0.3s-0.5,0.1-0.7,0.3c-0.2,0.2-0.3,0.4-0.3,0.7
				c0,0.3,0.1,0.5,0.3,0.7C186.2,197.4,186.4,197.5,186.7,197.5z"/>
		</g>
		<g>
			<path id="m25989b0e91_00000006693799308552753580000005292991234138732980_" class="st2" d="M221.9,170c0.3,0,0.5-0.1,0.7-0.3
				c0.2-0.2,0.3-0.4,0.3-0.7s-0.1-0.5-0.3-0.7c-0.2-0.2-0.4-0.3-0.7-0.3c-0.3,0-0.5,0.1-0.7,0.3c-0.2,0.2-0.3,0.4-0.3,0.7
				s0.1,0.5,0.3,0.7C221.4,169.9,221.7,170,221.9,170z"/>
		</g>
		<g>
			<path id="m25989b0e91_00000008133844700217723590000012147734087927279796_" class="st2" d="M192.4,191.6c0.3,0,0.5-0.1,0.7-0.3
				c0.2-0.2,0.3-0.4,0.3-0.7c0-0.3-0.1-0.5-0.3-0.7s-0.4-0.3-0.7-0.3c-0.3,0-0.5,0.1-0.7,0.3c-0.2,0.2-0.3,0.4-0.3,0.7
				c0,0.3,0.1,0.5,0.3,0.7C191.9,191.5,192.2,191.6,192.4,191.6z"/>
		</g>
		<g>
			<path id="m25989b0e91_00000169535699658465020680000000176312820346827648_" class="st2" d="M164.3,218.9c0.3,0,0.5-0.1,0.7-0.3
				c0.2-0.2,0.3-0.4,0.3-0.7c0-0.3-0.1-0.5-0.3-0.7c-0.2-0.2-0.4-0.3-0.7-0.3s-0.5,0.1-0.7,0.3c-0.2,0.2-0.3,0.4-0.3,0.7
				c0,0.3,0.1,0.5,0.3,0.7C163.8,218.8,164.1,218.9,164.3,218.9z"/>
		</g>
		<g>
			<path id="m25989b0e91_00000042727795457354338090000010494663017313973937_" class="st2" d="M241.6,146.1c0.3,0,0.5-0.1,0.7-0.3
				c0.2-0.2,0.3-0.4,0.3-0.7c0-0.3-0.1-0.5-0.3-0.7c-0.2-0.2-0.4-0.3-0.7-0.3c-0.3,0-0.5,0.1-0.7,0.3c-0.2,0.2-0.3,0.4-0.3,0.7
				c0,0.3,0.1,0.5,0.3,0.7C241.1,146,241.4,146.1,241.6,146.1z"/>
		</g>
		<g>
			<path id="m25989b0e91_00000172427525649440380170000010998914645164579971_" class="st2" d="M203,181c0.3,0,0.5-0.1,0.7-0.3
				c0.2-0.2,0.3-0.4,0.3-0.7c0-0.3-0.1-0.5-0.3-0.7c-0.2-0.2-0.4-0.3-0.7-0.3c-0.3,0-0.5,0.1-0.7,0.3c-0.2,0.2-0.3,0.4-0.3,0.7
				c0,0.3,0.1,0.5,0.3,0.7C202.5,180.9,202.8,181,203,181z"/>
		</g>
		<g>
			<path id="m25989b0e91_00000128471644957273105320000005722703934429608591_" class="st2" d="M196.1,191.1c0.3,0,0.5-0.1,0.7-0.3
				c0.2-0.2,0.3-0.4,0.3-0.7c0-0.3-0.1-0.5-0.3-0.7c-0.2-0.2-0.4-0.3-0.7-0.3c-0.3,0-0.5,0.1-0.7,0.3c-0.2,0.2-0.3,0.4-0.3,0.7
				c0,0.3,0.1,0.5,0.3,0.7C195.6,191,195.8,191.1,196.1,191.1z"/>
		</g>
		<g>
			<path id="m25989b0e91_00000145032106866314698980000015679339318227347595_" class="st2" d="M155.7,228.3c0.3,0,0.5-0.1,0.7-0.3
				c0.2-0.2,0.3-0.4,0.3-0.7c0-0.3-0.1-0.5-0.3-0.7c-0.2-0.2-0.4-0.3-0.7-0.3c-0.3,0-0.5,0.1-0.7,0.3c-0.2,0.2-0.3,0.4-0.3,0.7
				c0,0.3,0.1,0.5,0.3,0.7C155.2,228.2,155.4,228.3,155.7,228.3z"/>
		</g>
		<g>
			<path id="m25989b0e91_00000149367522361031270330000014687171886741965718_" class="st2" d="M149.5,234.1c0.3,0,0.5-0.1,0.7-0.3
				c0.2-0.2,0.3-0.4,0.3-0.7s-0.1-0.5-0.3-0.7c-0.2-0.2-0.4-0.3-0.7-0.3c-0.3,0-0.5,0.1-0.7,0.3c-0.2,0.2-0.3,0.4-0.3,0.7
				s0.1,0.5,0.3,0.7C149,234,149.3,234.1,149.5,234.1z"/>
		</g>
		<g>
			<path id="m25989b0e91_00000021080134191381841700000008433065541236775588_" class="st2" d="M238.3,147.9c0.3,0,0.5-0.1,0.7-0.3
				c0.2-0.2,0.3-0.4,0.3-0.7s-0.1-0.5-0.3-0.7c-0.2-0.2-0.4-0.3-0.7-0.3s-0.5,0.1-0.7,0.3c-0.2,0.2-0.3,0.4-0.3,0.7s0.1,0.5,0.3,0.7
				C237.8,147.8,238,147.9,238.3,147.9z"/>
		</g>
		<g>
			<path id="m25989b0e91_00000119800916973583267940000016070968706189333692_" class="st2" d="M174.1,210c0.3,0,0.5-0.1,0.7-0.3
				c0.2-0.2,0.3-0.4,0.3-0.7c0-0.3-0.1-0.5-0.3-0.7c-0.2-0.2-0.4-0.3-0.7-0.3c-0.3,0-0.5,0.1-0.7,0.3c-0.2,0.2-0.3,0.4-0.3,0.7
				c0,0.3,0.1,0.5,0.3,0.7C173.6,209.9,173.8,210,174.1,210z"/>
		</g>
		<g>
			<path id="m25989b0e91_00000049916515880872699090000014133530417650623932_" class="st2" d="M146.4,237.3c0.3,0,0.5-0.1,0.7-0.3
				c0.2-0.2,0.3-0.4,0.3-0.7c0-0.3-0.1-0.5-0.3-0.7c-0.2-0.2-0.4-0.3-0.7-0.3c-0.3,0-0.5,0.1-0.7,0.3c-0.2,0.2-0.3,0.4-0.3,0.7
				c0,0.3,0.1,0.5,0.3,0.7C145.9,237.2,146.1,237.3,146.4,237.3z"/>
		</g>
		<g>
			<path id="m25989b0e91_00000152262565819697907690000017044582076375322786_" class="st2" d="M202.5,182c0.3,0,0.5-0.1,0.7-0.3
				c0.2-0.2,0.3-0.4,0.3-0.7c0-0.3-0.1-0.5-0.3-0.7c-0.2-0.2-0.4-0.3-0.7-0.3c-0.3,0-0.5,0.1-0.7,0.3c-0.2,0.2-0.3,0.4-0.3,0.7
				c0,0.3,0.1,0.5,0.3,0.7C202,181.9,202.3,182,202.5,182z"/>
		</g>
		<g>
			<path id="m25989b0e91_00000079459600958726110590000003239867062826578842_" class="st2" d="M169.4,214.9c0.3,0,0.5-0.1,0.7-0.3
				c0.2-0.2,0.3-0.4,0.3-0.7s-0.1-0.5-0.3-0.7c-0.2-0.2-0.4-0.3-0.7-0.3c-0.3,0-0.5,0.1-0.7,0.3c-0.2,0.2-0.3,0.4-0.3,0.7
				s0.1,0.5,0.3,0.7C168.9,214.8,169.2,214.9,169.4,214.9z"/>
		</g>
		<g>
			<path id="m25989b0e91_00000158716417496196612640000016798090263308818601_" class="st2" d="M216.2,170.5c0.3,0,0.5-0.1,0.7-0.3
				c0.2-0.2,0.3-0.4,0.3-0.7c0-0.3-0.1-0.5-0.3-0.7c-0.2-0.2-0.4-0.3-0.7-0.3c-0.3,0-0.5,0.1-0.7,0.3s-0.3,0.4-0.3,0.7
				c0,0.3,0.1,0.5,0.3,0.7C215.7,170.4,216,170.5,216.2,170.5z"/>
		</g>
		<g>
			<path id="m25989b0e91_00000013914745525312638440000014694065293348904367_" class="st2" d="M243,146.1c0.3,0,0.5-0.1,0.7-0.3
				c0.2-0.2,0.3-0.4,0.3-0.7c0-0.3-0.1-0.5-0.3-0.7c-0.2-0.2-0.4-0.3-0.7-0.3c-0.3,0-0.5,0.1-0.7,0.3c-0.2,0.2-0.3,0.4-0.3,0.7
				c0,0.3,0.1,0.5,0.3,0.7C242.5,146,242.7,146.1,243,146.1z"/>
		</g>
		<g>
			<path id="m25989b0e91_00000156581849359181310140000009712833325723123367_" class="st2" d="M195.3,190c0.3,0,0.5-0.1,0.7-0.3
				c0.2-0.2,0.3-0.4,0.3-0.7c0-0.3-0.1-0.5-0.3-0.7c-0.2-0.2-0.4-0.3-0.7-0.3c-0.3,0-0.5,0.1-0.7,0.3c-0.2,0.2-0.3,0.4-0.3,0.7
				c0,0.3,0.1,0.5,0.3,0.7S195,190,195.3,190z"/>
		</g>
		<g>
			<path id="m25989b0e91_00000011735579613090398820000014584418846649083041_" class="st2" d="M209.2,177.6c0.3,0,0.5-0.1,0.7-0.3
				c0.2-0.2,0.3-0.4,0.3-0.7c0-0.3-0.1-0.5-0.3-0.7c-0.2-0.2-0.4-0.3-0.7-0.3c-0.3,0-0.5,0.1-0.7,0.3c-0.2,0.2-0.3,0.4-0.3,0.7
				c0,0.3,0.1,0.5,0.3,0.7C208.7,177.5,208.9,177.6,209.2,177.6z"/>
		</g>
		<g>
			<path id="m25989b0e91_00000155144195960052415970000008744152870573108116_" class="st2" d="M172.2,211.4c0.3,0,0.5-0.1,0.7-0.3
				c0.2-0.2,0.3-0.4,0.3-0.7s-0.1-0.5-0.3-0.7c-0.2-0.2-0.4-0.3-0.7-0.3c-0.3,0-0.5,0.1-0.7,0.3c-0.2,0.2-0.3,0.4-0.3,0.7
				s0.1,0.5,0.3,0.7C171.7,211.3,171.9,211.4,172.2,211.4z"/>
		</g>
		<g>
			<path id="m25989b0e91_00000179637455332802850890000014466821933445556105_" class="st2" d="M233.1,154c0.3,0,0.5-0.1,0.7-0.3
				c0.2-0.2,0.3-0.4,0.3-0.7c0-0.3-0.1-0.5-0.3-0.7c-0.2-0.2-0.4-0.3-0.7-0.3c-0.3,0-0.5,0.1-0.7,0.3c-0.2,0.2-0.3,0.4-0.3,0.7
				c0,0.3,0.1,0.5,0.3,0.7C232.6,153.9,232.9,154,233.1,154z"/>
		</g>
		<g>
			<path id="m25989b0e91_00000009547779003382287330000009480915818920725396_" class="st2" d="M172.2,211.6c0.3,0,0.5-0.1,0.7-0.3
				c0.2-0.2,0.3-0.4,0.3-0.7c0-0.3-0.1-0.5-0.3-0.7s-0.4-0.3-0.7-0.3c-0.3,0-0.5,0.1-0.7,0.3c-0.2,0.2-0.3,0.4-0.3,0.7
				c0,0.3,0.1,0.5,0.3,0.7C171.7,211.5,171.9,211.6,172.2,211.6z"/>
		</g>
		<g>
			<path id="m25989b0e91_00000025403346647270010650000009294237607633327005_" class="st2" d="M219.1,167.1c0.3,0,0.5-0.1,0.7-0.3
				c0.2-0.2,0.3-0.4,0.3-0.7c0-0.3-0.1-0.5-0.3-0.7c-0.2-0.2-0.4-0.3-0.7-0.3c-0.3,0-0.5,0.1-0.7,0.3c-0.2,0.2-0.3,0.4-0.3,0.7
				c0,0.3,0.1,0.5,0.3,0.7C218.6,167,218.8,167.1,219.1,167.1z"/>
		</g>
		<g>
			<path id="m25989b0e91_00000078016763506432791810000001040563217424669844_" class="st2" d="M168,215.3c0.3,0,0.5-0.1,0.7-0.3
				c0.2-0.2,0.3-0.4,0.3-0.7c0-0.3-0.1-0.5-0.3-0.7c-0.2-0.2-0.4-0.3-0.7-0.3c-0.3,0-0.5,0.1-0.7,0.3c-0.2,0.2-0.3,0.4-0.3,0.7
				c0,0.3,0.1,0.5,0.3,0.7C167.5,215.2,167.8,215.3,168,215.3z"/>
		</g>
		<g>
			<path id="m25989b0e91_00000084499863581500292160000017342650469909815737_" class="st2" d="M215,169.7c0.3,0,0.5-0.1,0.7-0.3
				c0.2-0.2,0.3-0.4,0.3-0.7c0-0.3-0.1-0.5-0.3-0.7c-0.2-0.2-0.4-0.3-0.7-0.3c-0.3,0-0.5,0.1-0.7,0.3c-0.2,0.2-0.3,0.4-0.3,0.7
				c0,0.3,0.1,0.5,0.3,0.7C214.5,169.6,214.8,169.7,215,169.7z"/>
		</g>
		<g>
			<path id="m25989b0e91_00000132061222699216345940000014618159528293700542_" class="st2" d="M162.7,221.2c0.3,0,0.5-0.1,0.7-0.3
				c0.2-0.2,0.3-0.4,0.3-0.7c0-0.3-0.1-0.5-0.3-0.7c-0.2-0.2-0.4-0.3-0.7-0.3c-0.3,0-0.5,0.1-0.7,0.3c-0.2,0.2-0.3,0.4-0.3,0.7
				c0,0.3,0.1,0.5,0.3,0.7C162.2,221.1,162.5,221.2,162.7,221.2z"/>
		</g>
		<g>
			<path id="m25989b0e91_00000152243056774513377490000017403103358272862636_" class="st2" d="M157.7,226.4c0.3,0,0.5-0.1,0.7-0.3
				c0.2-0.2,0.3-0.4,0.3-0.7c0-0.3-0.1-0.5-0.3-0.7c-0.2-0.2-0.4-0.3-0.7-0.3c-0.3,0-0.5,0.1-0.7,0.3c-0.2,0.2-0.3,0.4-0.3,0.7
				c0,0.3,0.1,0.5,0.3,0.7C157.2,226.3,157.4,226.4,157.7,226.4z"/>
		</g>
		<g>
			<path id="m25989b0e91_00000176733596815651263160000012021318161621925818_" class="st2" d="M193.3,190.6c0.3,0,0.5-0.1,0.7-0.3
				c0.2-0.2,0.3-0.4,0.3-0.7s-0.1-0.5-0.3-0.7c-0.2-0.2-0.4-0.3-0.7-0.3c-0.3,0-0.5,0.1-0.7,0.3c-0.2,0.2-0.3,0.4-0.3,0.7
				s0.1,0.5,0.3,0.7C192.8,190.5,193.1,190.6,193.3,190.6z"/>
		</g>
		<g>
			<path id="m25989b0e91_00000086678452978265232530000015752159941127164332_" class="st2" d="M163.7,222.3c0.3,0,0.5-0.1,0.7-0.3
				c0.2-0.2,0.3-0.4,0.3-0.7c0-0.3-0.1-0.5-0.3-0.7c-0.2-0.2-0.4-0.3-0.7-0.3c-0.3,0-0.5,0.1-0.7,0.3c-0.2,0.2-0.3,0.4-0.3,0.7
				c0,0.3,0.1,0.5,0.3,0.7C163.2,222.2,163.4,222.3,163.7,222.3z"/>
		</g>
		<g>
			<path id="m25989b0e91_00000081629907974907605100000014866576367842583456_" class="st2" d="M200.7,187.4c0.3,0,0.5-0.1,0.7-0.3
				c0.2-0.2,0.3-0.4,0.3-0.7c0-0.3-0.1-0.5-0.3-0.7c-0.2-0.2-0.4-0.3-0.7-0.3s-0.5,0.1-0.7,0.3c-0.2,0.2-0.3,0.4-0.3,0.7
				c0,0.3,0.1,0.5,0.3,0.7C200.2,187.3,200.4,187.4,200.7,187.4z"/>
		</g>
	</g>
</g>
<g id="text_1">
	<text transform="matrix(1 0 0 1 137.5174 256.2778)" class="st3 st4">0.0</text>
</g>
<g id="text_2">
	<text transform="matrix(1 0 0 1 158.321 256.2778)" class="st3 st4">0.1</text>
</g>
<g id="text_3">
	<text transform="matrix(1 0 0 1 178.1246 256.2778)" class="st3 st4">0.2</text>
</g>
<g id="text_4">
	<text transform="matrix(1 0 0 1 198.9283 256.2778)" class="st3 st4">0.3</text>
</g>
<g id="text_5">
	<text transform="matrix(1 0 0 1 219.7319 256.2778)" class="st3 st4">0.4</text>
</g>
<g id="text_6">
	<text transform="matrix(1 0 0 1 239.5356 256.2778)" class="st3 st4">0.5</text>
</g>
<g id="text_7">
	<text transform="matrix(1 0 0 1 176.8931 267.9357)" class="st3 st4">True FDR</text>
</g>
<g id="text_8">
	<text transform="matrix(1 0 0 1 122.0706 241.2398)" class="st3 st4">0.0</text>
</g>
<g id="text_9">
	<text transform="matrix(1 0 0 1 122.0706 221.4362)" class="st3 st4">0.1</text>
</g>
<g id="text_10">
	<text transform="matrix(1 0 0 1 122.0706 200.6326)" class="st3 st4">0.2</text>
</g>
<g id="text_11">
	<text transform="matrix(1 0 0 1 122.0706 179.8289)" class="st3 st4">0.3</text>
</g>
<g id="text_12">
	<text transform="matrix(1 0 0 1 122.0706 160.0253)" class="st3 st4">0.4</text>
</g>
<g id="text_13">
	<text transform="matrix(1 0 0 1 122.0706 139.2216)" class="st3 st4">0.5</text>
</g>
<g id="text_14">
	<text transform="matrix(6.123234e-17 -1 1 6.123234e-17 115.5669 214.5088)" class="st3 st4">Predicted FDR</text>
</g>
<g>
	<defs>
		<rect id="SVGID_00000070808006749596419500000018105281980816447669_" x="138.3" y="132.3" width="112" height="112"/>
	</defs>
	<clipPath id="SVGID_00000090261196389506478710000011289483933887080836_">
		<use xlink:href="#SVGID_00000070808006749596419500000018105281980816447669_"  style="overflow:visible;"/>
	</clipPath>
	
		<path style="clip-path:url(#SVGID_00000090261196389506478710000011289483933887080836_);fill:none;stroke:#FF0000;stroke-linejoin:round;" d="
		M138.3,244.3l112-112"/>
</g>
<g>
	<g id="line2d_1">
		<g>
			<g>
				<path id="m8f127750d9" class="st6" d="M143.4,244.3v2.8"/>
			</g>
		</g>
	</g>
	<g id="line2d_2">
		<g>
			<g>
				<path id="m8f127750d9_00000011711533076729555970000007606299887091786916_" class="st6" d="M163.8,244.3v2.8"/>
			</g>
		</g>
	</g>
	<g id="line2d_3">
		<g>
			<g>
				<path id="m8f127750d9_00000093860349295329335310000010233691824108584840_" class="st6" d="M184.1,244.3v2.8"/>
			</g>
		</g>
	</g>
	<g id="line2d_4">
		<g>
			<g>
				<path id="m8f127750d9_00000062182214341661111200000015413269340956612542_" class="st6" d="M204.5,244.3v2.8"/>
			</g>
		</g>
	</g>
	<g id="line2d_5">
		<g>
			<g>
				<path id="m8f127750d9_00000094577904951687142830000000788244264933425041_" class="st6" d="M224.8,244.3v2.8"/>
			</g>
		</g>
	</g>
	<g id="line2d_6">
		<g>
			<g>
				<path id="m8f127750d9_00000018930469867424933260000008334381326015459211_" class="st6" d="M245.2,244.3v2.8"/>
			</g>
		</g>
	</g>
	<g id="line2d_7">
		<g>
			<g>
				<path id="m1386d44b90" class="st6" d="M138.3,239.2h-2.9"/>
			</g>
		</g>
	</g>
	<g id="line2d_8">
		<g>
			<g>
				<path id="m1386d44b90_00000016051694102524047320000014095777551600227239_" class="st6" d="M138.3,218.8h-2.9"/>
			</g>
		</g>
	</g>
	<g id="line2d_9">
		<g>
			<g>
				<path id="m1386d44b90_00000024712779689874564550000011805429118584233869_" class="st6" d="M138.3,198.5h-2.9"/>
			</g>
		</g>
	</g>
	<g id="line2d_10">
		<g>
			<g>
				<path id="m1386d44b90_00000024695301933118366940000011051451709579041416_" class="st6" d="M138.3,178.1h-2.9"/>
			</g>
		</g>
	</g>
	<g id="line2d_11">
		<g>
			<g>
				<path id="m1386d44b90_00000137131653949772433450000013608192964001240475_" class="st6" d="M138.3,157.7h-2.9"/>
			</g>
		</g>
	</g>
	<g id="line2d_12">
		<g>
			<g>
				<path id="m1386d44b90_00000017478250019794253820000012718025061158546056_" class="st6" d="M138.3,137.4h-2.9"/>
			</g>
		</g>
	</g>
</g>
<g id="patch_5">
	<path class="st7" d="M138.3,244.3h112"/>
</g>
<g>
	<g>
		<g id="patch_3">
			<path class="st7" d="M138.3,244.3v-112"/>
		</g>
		<g id="patch_4">
			<path class="st7" d="M250.3,244.3v-112"/>
		</g>
	</g>
	<g id="patch_6">
		<path class="st7" d="M138.3,132.3h112"/>
	</g>
</g>
<rect x="189.5" y="229.7" class="st8" width="54.7" height="8.3"/>
<text transform="matrix(1 0 0 1 196.414 235.472)"><tspan x="0" y="0" class="st9 st3 st4">RMSE = 0.02</tspan><tspan x="47.8" y="0" class="st3 st4"> </tspan></text>
<text transform="matrix(1 0 0 1 144.568 144.344)"><tspan x="0" y="0" class="st10 st4">t = 12 hr </tspan><tspan x="0" y="14" class="st3 st4">    single unit </tspan><tspan x="0" y="28" class="st3 st4">   </tspan></text>
<path id="m2d98770ce5_00000041288668202990224590000004532867874108398235_" d="M147.5,157.7c0.5,0,0.9-0.2,1.2-0.5s0.5-0.8,0.5-1.2
	s-0.2-0.9-0.5-1.2s-0.8-0.5-1.2-0.5s-0.9,0.2-1.2,0.5s-0.5,0.8-0.5,1.2s0.2,0.9,0.5,1.2S147,157.7,147.5,157.7z"/>
</svg>
