<?xml version="1.0" encoding="utf-8"?>
<!-- Generator: Adobe Illustrator 27.5.0, SVG Export Plug-In . SVG Version: 6.00 Build 0)  -->
<svg version="1.1" id="Layer_1" xmlns="http://www.w3.org/2000/svg" xmlns:xlink="http://www.w3.org/1999/xlink" x="0px" y="0px"
	 viewBox="0 0 460.8 345.6" style="enable-background:new 0 0 460.8 345.6;" xml:space="preserve">
<style type="text/css">
	.st0{stroke:#000000;stroke-width:0.8;stroke-linejoin:round;}
	.st1{font-family:'LucidaBright';}
	.st2{font-size:9px;}
	
		.st3{clip-path:url(#SVGID_00000029733111366121915520000002461743984645786519_);fill:none;stroke:#1F77B4;stroke-width:1.5;stroke-linecap:square;stroke-linejoin:round;}
	
		.st4{clip-path:url(#SVGID_00000165229927949337148020000015469690441205659055_);fill:none;stroke:#FF7F0E;stroke-width:1.5;stroke-linecap:square;stroke-linejoin:round;}
	.st5{fill:none;stroke:#000000;stroke-width:0.8;stroke-linecap:square;}
</style>
<g id="matplotlib.axis_1">
	<g id="xtick_1">
		<g id="line2d_1">
			<g>
				<g>
					<path id="m7434cf7cc8" class="st0" d="M52.4,326.9v3.5"/>
				</g>
			</g>
		</g>
		<g id="text_1">
			<text transform="matrix(1 0 0 1 49.7028 340.6896)" class="st1 st2">0</text>
		</g>
	</g>
	<g id="xtick_2">
		<g id="line2d_2">
			<g>
				<g>
					<path id="m7434cf7cc8_00000138546636762768995130000008463819164374511765_" class="st0" d="M127.8,326.9v3.5"/>
				</g>
			</g>
		</g>
		<g id="text_2">
			<text transform="matrix(1 0 0 1 119.6117 340.6896)" class="st1 st2">200</text>
		</g>
	</g>
	<g id="xtick_3">
		<g id="line2d_3">
			<g>
				<g>
					<path id="m7434cf7cc8_00000174564428687709696990000003183084396046691247_" class="st0" d="M203.2,326.9v3.5"/>
				</g>
			</g>
		</g>
		<g id="text_3">
			<text transform="matrix(1 0 0 1 194.9961 340.6896)" class="st1 st2">400</text>
		</g>
	</g>
	<g id="xtick_4">
		<g id="line2d_4">
			<g>
				<g>
					<path id="m7434cf7cc8_00000002377710741884349370000004100063513914332607_" class="st0" d="M278.6,326.9v3.5"/>
				</g>
			</g>
		</g>
		<g id="text_4">
			<text transform="matrix(1 0 0 1 270.3806 340.6896)" class="st1 st2">600</text>
		</g>
	</g>
	<g id="xtick_5">
		<g id="line2d_5">
			<g>
				<g>
					<path id="m7434cf7cc8_00000166673787100850090340000008637442334290612410_" class="st0" d="M354,326.9v3.5"/>
				</g>
			</g>
		</g>
		<g id="text_5">
			<text transform="matrix(1 0 0 1 345.7651 340.6896)" class="st1 st2">800</text>
		</g>
	</g>
	<g id="xtick_6">
		<g id="line2d_6">
			<g>
				<g>
					<path id="m7434cf7cc8_00000163779571193968662420000001693011786358197390_" class="st0" d="M429.4,326.9v3.5"/>
				</g>
			</g>
		</g>
		<g id="text_6">
			<text transform="matrix(1 0 0 1 418.4117 340.6896)" class="st1 st2">1000</text>
		</g>
	</g>
</g>
<g id="line2d_13">
	<g>
		<defs>
			<rect id="SVGID_1_" x="-463.2" y="-60.9" width="414.2" height="309.8"/>
		</defs>
		<clipPath id="SVGID_00000128487415449725922610000011635474503931986095_">
			<use xlink:href="#SVGID_1_"  style="overflow:visible;"/>
		</clipPath>
		
			<path style="clip-path:url(#SVGID_00000128487415449725922610000011635474503931986095_);fill:none;stroke:#1F77B4;stroke-width:1.5;stroke-linecap:square;stroke-linejoin:round;" d="
			M-444.4,200.7l2.3-0.2l2.6-0.5l3.4-0.9l4.5-1.4l4.9-1.8l4.5-1.9l4.5-2.1l4.5-2.3l3.8-2.2l3.4-2.3l3.4-2.6l9.8-7.7l2.3-1.4l2.3-1.1
			l2.3-0.8l3.4-1l3-0.9l1.9-0.8l1.9-1l1.9-1.3l1.9-1.6l2.3-2.2l6.4-6.6l1.9-1.5l1.9-1.2l1.5-0.7l1.9-0.6l2.3-0.4l4.5-0.8l1.5-0.5
			l1.5-0.7l1.5-0.9l1.5-1.2l1.5-1.5l1.9-2.1l2.6-3.4l5.3-7.1l2.3-2.6l1.9-1.9l1.9-1.6l1.9-1.3l1.9-1l2.3-1l2.3-0.7l1.9-0.4l1.9-0.2
			l1.9,0.1l1.9,0.3l1.9,0.5l1.9,0.8l1.9,1l2.3,1.5l3.4,2.6l3.8,2.8l2.3,1.4l1.9,0.9l1.5,0.5l1.5,0.3l1.5,0l1.5-0.3l1.5-0.5l1.5-0.8
			l1.5-1l1.5-1.3l1.9-1.9l2.3-2.6l4.1-5.2l3.8-4.6l3-3.3l3.4-3.3l6.4-6.2l2.6-2.9l2.3-2.9l2.3-3.2l2.3-3.6l2.6-4.6l3-5.8l3.4-7
			l4.1-9.1l6.8-15.6l5.7-12.8l4.5-9.6l9.8-20.5l3.4-7.8l4.5-11.1l5.3-12.8l2.6-5.9l2.3-4.5l1.9-3.3l1.9-2.9l1.5-1.9l1.5-1.6l1.1-0.9
			l1.1-0.7l1.1-0.4l1.1-0.1l1.1,0.2l1.1,0.5l1.1,0.8l1.1,1.2l1.1,1.5l1.1,1.9l1.1,2.3l1.5,3.6l1.5,4.3l1.5,5.1l1.5,5.8l1.5,6.6
			l1.9,9.5l1.9,10.8l1.9,12.1l2.3,16l2.6,20.3l8.7,68.3l2.3,15.6l2.3,14l1.9,10.4l1.9,9.3l1.9,8.2l1.9,7.1l1.9,6.2l1.9,5.3l1.5,3.6
			l1.5,3.2l1.5,2.7l1.5,2.4l1.5,2l1.9,2.1l1.9,1.8l1.9,1.5l1.9,1.2l2.3,1.2l2.3,0.9l2.6,0.9l3.4,0.9l5.3,1.1l4.1,0.7l3,0.3l3,0
			l3.4-0.2l11.7-1l0.8,0l0,0"/>
	</g>
</g>
<g id="line2d_14">
	<g>
		<defs>
			<rect id="SVGID_00000071549940130398329830000013108573742649257614_" x="-463.2" y="-60.9" width="414.2" height="309.8"/>
		</defs>
		<clipPath id="SVGID_00000020380559499310462320000010740739483864424588_">
			<use xlink:href="#SVGID_00000071549940130398329830000013108573742649257614_"  style="overflow:visible;"/>
		</clipPath>
		
			<path style="clip-path:url(#SVGID_00000020380559499310462320000010740739483864424588_);fill:none;stroke:#FF7F0E;stroke-width:1.5;stroke-linecap:square;stroke-linejoin:round;" d="
			M-444.4,64.7l3.8,0.2l3.4,0.4l3,0.6l3.4,0.9l4.5,1.4l5.7,1.8l3,0.7l2.6,0.4l2.6,0.2l3.4,0l5.7,0l3,0.3l3,0.5l5.7,1l1.9,0.1
			l1.5-0.2l1.1-0.3l1.1-0.5l1.1-0.8l1.1-1l1.1-1.3l1.1-1.7l1.1-2.1l1.1-2.5l1.1-2.9l1.5-4.6l1.5-5.4l1.9-7.7l2.3-10.5l6.8-32.8
			l1.5-6l1.5-5l1.1-3.1l1.1-2.4l0.8-1.2l0.8-0.9l0.8-0.6l0.8-0.3l0.8,0l0.8,0.2l0.8,0.5l0.8,0.7l1.1,1.6l1.1,2l1.5,3.3l1.5,3.9
			l2.3,6.5l4.5,14l3.4,10.1l2.6,7.1l2.3,5.4l2.3,4.8l2.3,4.2l2.3,3.7l2.6,3.9l3.8,5.1l5.3,7.2l3.4,5l3,4.9l3,5.4l3,5.9l3.8,7.9
			l6,12.8l2.3,4.3l2.3,3.8l1.9,2.7l1.9,2.3l1.9,2l1.9,1.6l1.9,1.3l2.3,1.3l2.6,1.3l3.4,1.4l3.4,1.2l3,0.8l2.6,0.5l2.6,0.3l2.6,0
			l2.6-0.2l2.6-0.4l2.6-0.7l2.6-1l2.6-1.2l3-1.7l8.7-5l1.9-0.8l1.9-0.5l1.5-0.2l1.5,0l1.5,0.2l1.5,0.4l1.5,0.6l1.5,0.8l1.9,1.3
			l1.9,1.6l2.3,2.2l4.1,4.4l3.4,3.5l2.6,2.4l2.3,1.8l2.3,1.5l2.6,1.4l3.4,1.5l6,2.7l2.6,1.5l2.3,1.5l2.3,1.8l2.3,2.1l2.3,2.4
			l2.3,2.8l2.6,3.6l3.8,5.6l7.5,11.2l3.8,5.1l4.5,5.7l12.4,15.2l3.8,4.3l3.4,3.5l3,2.8l3.4,2.8l3.4,2.5l3.8,2.5l3.8,2.2l3.8,2
			l4.1,1.9l4.1,1.7l4.1,1.5l4.1,1.2l3.8,0.9l3.4,0.5l3,0.3l3.4,0.1l4.1-0.2l5.7-0.3l0,0"/>
	</g>
</g>
<g id="patch_6">
	<path class="st5" d="M33.6,17.1h414.2"/>
</g>
</svg>
