<?xml version="1.0" encoding="utf-8"?>
<!-- Generator: Adobe Illustrator 27.5.0, SVG Export Plug-In . SVG Version: 6.00 Build 0)  -->
<svg version="1.1" id="Layer_1" xmlns="http://www.w3.org/2000/svg" xmlns:xlink="http://www.w3.org/1999/xlink" x="0px" y="0px"
	 viewBox="0 0 460.8 345.6" style="enable-background:new 0 0 460.8 345.6;" xml:space="preserve">
<style type="text/css">
	.st0{clip-path:url(#SVGID_00000021820942577781964000000011687661728362837941_);}
	.st1{fill:#FFA630;stroke:#FFA630;stroke-width:0.5;stroke-linejoin:round;}
	.st2{clip-path:url(#SVGID_00000033356107851070264210000007665582426057239444_);}
	.st3{fill:#3ABEFF;stroke:#3ABEFF;stroke-width:0.5;stroke-linejoin:round;}
	.st4{stroke:#000000;stroke-width:0.8;stroke-linejoin:round;}
	.st5{font-family:'ArialMT';}
	.st6{font-size:8px;}
	.st7{enable-background:new    ;}
	.st8{fill:#FFA630;}
	.st9{fill:#3ABEFF;}
	.st10{stroke:#000000;stroke-width:0.3116;stroke-linejoin:round;}
	
		.st11{opacity:0.5;clip-path:url(#SVGID_00000103264629104260211000000011298764370821467781_);fill:none;stroke:#000000;stroke-linecap:square;stroke-linejoin:round;stroke-dasharray:3.7,3;}
	
		.st12{opacity:0.5;clip-path:url(#SVGID_00000141414297280857086180000000522774613409706146_);fill:none;stroke:#000000;stroke-linecap:square;stroke-linejoin:round;stroke-dasharray:3.7,3;}
	
		.st13{clip-path:url(#SVGID_00000129171773564358830250000017801506973224614556_);fill:none;stroke:#FD0000;stroke-linejoin:round;}
	.st14{fill:none;stroke:#000000;stroke-width:0.8;stroke-linecap:square;}
	.st15{font-family:'Arial-BoldItalicMT';}
</style>
<g id="PathCollection_1">
	<g>
		<defs>
			<rect id="SVGID_1_" x="174.1" y="102.7" width="111.7" height="111.7"/>
		</defs>
		<clipPath id="SVGID_00000106831948534846946530000012931460594328001699_">
			<use xlink:href="#SVGID_1_"  style="overflow:visible;"/>
		</clipPath>
		<g style="clip-path:url(#SVGID_00000106831948534846946530000012931460594328001699_);">
			<g>
				<path id="m8552958979" class="st1" d="M183.8,205.1c0.2,0,0.5-0.1,0.6-0.3c0.2-0.2,0.3-0.4,0.3-0.6s-0.1-0.5-0.3-0.6
					c-0.2-0.2-0.4-0.3-0.6-0.3c-0.2,0-0.5,0.1-0.6,0.3c-0.2,0.2-0.3,0.4-0.3,0.6s0.1,0.5,0.3,0.6C183.3,205,183.6,205.1,183.8,205.1
					z"/>
			</g>
			<g>
				<path id="m8552958979_00000082350437673279805930000014014840616616986267_" class="st1" d="M185.9,203.4c0.2,0,0.5-0.1,0.6-0.3
					c0.2-0.2,0.3-0.4,0.3-0.6c0-0.2-0.1-0.5-0.3-0.6c-0.2-0.2-0.4-0.3-0.6-0.3s-0.5,0.1-0.6,0.3c-0.2,0.2-0.3,0.4-0.3,0.6
					c0,0.2,0.1,0.5,0.3,0.6C185.5,203.3,185.7,203.4,185.9,203.4z"/>
			</g>
			<g>
				<path id="m8552958979_00000060015413052373433290000002967917162604741310_" class="st1" d="M192.3,195.2c0.2,0,0.5-0.1,0.6-0.3
					s0.3-0.4,0.3-0.6c0-0.2-0.1-0.5-0.3-0.6c-0.2-0.2-0.4-0.3-0.6-0.3s-0.5,0.1-0.6,0.3c-0.2,0.2-0.3,0.4-0.3,0.6
					c0,0.2,0.1,0.5,0.3,0.6S192.1,195.2,192.3,195.2z"/>
			</g>
			<g>
				<path id="m8552958979_00000176044157772921515460000015625182599480234896_" class="st1" d="M203.1,182.9c0.2,0,0.5-0.1,0.6-0.3
					s0.3-0.4,0.3-0.6s-0.1-0.5-0.3-0.6s-0.4-0.3-0.6-0.3s-0.5,0.1-0.6,0.3s-0.3,0.4-0.3,0.6s0.1,0.5,0.3,0.6
					S202.9,182.9,203.1,182.9z"/>
			</g>
			<g>
				<path id="m8552958979_00000024695712473647559610000004080610318035229599_" class="st1" d="M221.5,161.1c0.2,0,0.5-0.1,0.6-0.3
					c0.2-0.2,0.3-0.4,0.3-0.6c0-0.2-0.1-0.5-0.3-0.6c-0.2-0.2-0.4-0.3-0.6-0.3c-0.2,0-0.5,0.1-0.6,0.3c-0.2,0.2-0.3,0.4-0.3,0.6
					c0,0.2,0.1,0.5,0.3,0.6C221,161,221.2,161.1,221.5,161.1z"/>
			</g>
			<g>
				<path id="m8552958979_00000046332548766775457010000015600098788215354244_" class="st1" d="M229.2,155.8c0.2,0,0.5-0.1,0.6-0.3
					c0.2-0.2,0.3-0.4,0.3-0.6c0-0.2-0.1-0.5-0.3-0.6c-0.2-0.2-0.4-0.3-0.6-0.3s-0.5,0.1-0.6,0.3c-0.2,0.2-0.3,0.4-0.3,0.6
					c0,0.2,0.1,0.5,0.3,0.6C228.7,155.7,228.9,155.8,229.2,155.8z"/>
			</g>
			<g>
				<path id="m8552958979_00000059283453828189544040000001291586449741914550_" class="st1" d="M237.1,145.8c0.2,0,0.5-0.1,0.6-0.3
					c0.2-0.2,0.3-0.4,0.3-0.6c0-0.2-0.1-0.5-0.3-0.6c-0.2-0.2-0.4-0.3-0.6-0.3c-0.2,0-0.5,0.1-0.6,0.3c-0.2,0.2-0.3,0.4-0.3,0.6
					c0,0.2,0.1,0.5,0.3,0.6C236.7,145.7,236.9,145.8,237.1,145.8z"/>
			</g>
			<g>
				<path id="m8552958979_00000118368943971459029810000010527559297177802117_" class="st1" d="M185.8,203.6c0.2,0,0.5-0.1,0.6-0.3
					c0.2-0.2,0.3-0.4,0.3-0.6s-0.1-0.5-0.3-0.6c-0.2-0.2-0.4-0.3-0.6-0.3c-0.2,0-0.5,0.1-0.6,0.3c-0.2,0.2-0.3,0.4-0.3,0.6
					s0.1,0.5,0.3,0.6C185.4,203.5,185.6,203.6,185.8,203.6z"/>
			</g>
			<g>
				<path id="m8552958979_00000145055366889507385580000003124779393782944677_" class="st1" d="M187.2,202c0.2,0,0.5-0.1,0.6-0.3
					c0.2-0.2,0.3-0.4,0.3-0.6c0-0.2-0.1-0.5-0.3-0.6c-0.2-0.2-0.4-0.3-0.6-0.3c-0.2,0-0.5,0.1-0.6,0.3c-0.2,0.2-0.3,0.4-0.3,0.6
					c0,0.2,0.1,0.5,0.3,0.6C186.8,202,187,202,187.2,202z"/>
			</g>
			<g>
				<path id="m8552958979_00000119834773333582803350000017917550734902320300_" class="st1" d="M193.3,194.9c0.2,0,0.5-0.1,0.6-0.3
					c0.2-0.2,0.3-0.4,0.3-0.6s-0.1-0.5-0.3-0.6c-0.2-0.2-0.4-0.3-0.6-0.3c-0.2,0-0.5,0.1-0.6,0.3c-0.2,0.2-0.3,0.4-0.3,0.6
					s0.1,0.5,0.3,0.6C192.9,194.8,193.1,194.9,193.3,194.9z"/>
			</g>
			<g>
				<path id="m8552958979_00000078757117153526902900000000216199400571636126_" class="st1" d="M203.5,183.4c0.2,0,0.5-0.1,0.6-0.3
					c0.2-0.2,0.3-0.4,0.3-0.6c0-0.2-0.1-0.5-0.3-0.6c-0.2-0.2-0.4-0.3-0.6-0.3c-0.2,0-0.5,0.1-0.6,0.3c-0.2,0.2-0.3,0.4-0.3,0.6
					c0,0.2,0.1,0.5,0.3,0.6C203,183.3,203.2,183.4,203.5,183.4z"/>
			</g>
			<g>
				<path id="m8552958979_00000043422484852097949280000011025647061555055537_" class="st1" d="M222.1,163.3c0.2,0,0.5-0.1,0.6-0.3
					c0.2-0.2,0.3-0.4,0.3-0.6c0-0.2-0.1-0.5-0.3-0.6c-0.2-0.2-0.4-0.3-0.6-0.3c-0.2,0-0.5,0.1-0.6,0.3c-0.2,0.2-0.3,0.4-0.3,0.6
					c0,0.2,0.1,0.5,0.3,0.6C221.6,163.2,221.9,163.3,222.1,163.3z"/>
			</g>
			<g>
				<path id="m8552958979_00000153682477491874769650000011730891305235636355_" class="st1" d="M228.9,150.7c0.2,0,0.5-0.1,0.6-0.3
					s0.3-0.4,0.3-0.6s-0.1-0.5-0.3-0.6s-0.4-0.3-0.6-0.3s-0.5,0.1-0.6,0.3s-0.3,0.4-0.3,0.6s0.1,0.5,0.3,0.6
					S228.7,150.7,228.9,150.7z"/>
			</g>
			<g>
				<path id="m8552958979_00000123443506078770979380000003169154694656703676_" class="st1" d="M235.6,145c0.2,0,0.5-0.1,0.6-0.3
					c0.2-0.2,0.3-0.4,0.3-0.6c0-0.2-0.1-0.5-0.3-0.6c-0.2-0.2-0.4-0.3-0.6-0.3c-0.2,0-0.5,0.1-0.6,0.3c-0.2,0.2-0.3,0.4-0.3,0.6
					c0,0.2,0.1,0.5,0.3,0.6C235.1,144.9,235.3,145,235.6,145z"/>
			</g>
			<g>
				<path id="m8552958979_00000009588530695329431310000015360011219639978148_" class="st1" d="M193,195.5c0.2,0,0.5-0.1,0.6-0.3
					c0.2-0.2,0.3-0.4,0.3-0.6c0-0.2-0.1-0.5-0.3-0.6c-0.2-0.2-0.4-0.3-0.6-0.3c-0.2,0-0.5,0.1-0.6,0.3c-0.2,0.2-0.3,0.4-0.3,0.6
					c0,0.2,0.1,0.5,0.3,0.6C192.5,195.4,192.7,195.5,193,195.5z"/>
			</g>
			<g>
				<path id="m8552958979_00000023270598485978983590000007523654575075280293_" class="st1" d="M193.7,195.5c0.2,0,0.5-0.1,0.6-0.3
					c0.2-0.2,0.3-0.4,0.3-0.6c0-0.2-0.1-0.5-0.3-0.6c-0.2-0.2-0.4-0.3-0.6-0.3c-0.2,0-0.5,0.1-0.6,0.3c-0.2,0.2-0.3,0.4-0.3,0.6
					c0,0.2,0.1,0.5,0.3,0.6C193.2,195.5,193.4,195.5,193.7,195.5z"/>
			</g>
			<g>
				<path id="m8552958979_00000132798754820004670350000000902501718296665510_" class="st1" d="M197.4,191.5c0.2,0,0.5-0.1,0.6-0.3
					c0.2-0.2,0.3-0.4,0.3-0.6c0-0.2-0.1-0.5-0.3-0.6c-0.2-0.2-0.4-0.3-0.6-0.3c-0.2,0-0.5,0.1-0.6,0.3c-0.2,0.2-0.3,0.4-0.3,0.6
					c0,0.2,0.1,0.5,0.3,0.6C196.9,191.4,197.1,191.5,197.4,191.5z"/>
			</g>
			<g>
				<path id="m8552958979_00000088116588830969925700000007003071419147361184_" class="st1" d="M206.8,180.4c0.2,0,0.5-0.1,0.6-0.3
					c0.2-0.2,0.3-0.4,0.3-0.6c0-0.2-0.1-0.5-0.3-0.6c-0.2-0.2-0.4-0.3-0.6-0.3c-0.2,0-0.5,0.1-0.6,0.3c-0.2,0.2-0.3,0.4-0.3,0.6
					c0,0.2,0.1,0.5,0.3,0.6C206.3,180.4,206.5,180.4,206.8,180.4z"/>
			</g>
			<g>
				<path id="m8552958979_00000075162777606265665030000007080776420188570016_" class="st1" d="M224.9,158.6c0.2,0,0.5-0.1,0.6-0.3
					c0.2-0.2,0.3-0.4,0.3-0.6c0-0.2-0.1-0.5-0.3-0.6c-0.2-0.2-0.4-0.3-0.6-0.3s-0.5,0.1-0.6,0.3c-0.2,0.2-0.3,0.4-0.3,0.6
					c0,0.2,0.1,0.5,0.3,0.6C224.4,158.5,224.6,158.6,224.9,158.6z"/>
			</g>
			<g>
				<path id="m8552958979_00000124157188553813304800000010125036562038903978_" class="st1" d="M230.6,152c0.2,0,0.5-0.1,0.6-0.3
					c0.2-0.2,0.3-0.4,0.3-0.6s-0.1-0.5-0.3-0.6c-0.2-0.2-0.4-0.3-0.6-0.3c-0.2,0-0.5,0.1-0.6,0.3c-0.2,0.2-0.3,0.4-0.3,0.6
					s0.1,0.5,0.3,0.6C230.2,151.9,230.4,152,230.6,152z"/>
			</g>
			<g>
				<path id="m8552958979_00000068655213971693900120000017173899615542217660_" class="st1" d="M238.6,144.9c0.2,0,0.5-0.1,0.6-0.3
					c0.2-0.2,0.3-0.4,0.3-0.6c0-0.2-0.1-0.5-0.3-0.6c-0.2-0.2-0.4-0.3-0.6-0.3s-0.5,0.1-0.6,0.3c-0.2,0.2-0.3,0.4-0.3,0.6
					c0,0.2,0.1,0.5,0.3,0.6C238.2,144.8,238.4,144.9,238.6,144.9z"/>
			</g>
			<g>
				<path id="m8552958979_00000023255087869228256480000014082260436754419596_" class="st1" d="M205.2,180.8c0.2,0,0.5-0.1,0.6-0.3
					c0.2-0.2,0.3-0.4,0.3-0.6c0-0.2-0.1-0.5-0.3-0.6c-0.2-0.2-0.4-0.3-0.6-0.3c-0.2,0-0.5,0.1-0.6,0.3c-0.2,0.2-0.3,0.4-0.3,0.6
					c0,0.2,0.1,0.5,0.3,0.6C204.7,180.8,205,180.8,205.2,180.8z"/>
			</g>
			<g>
				<path id="m8552958979_00000010279365041027644730000001801456507072162751_" class="st1" d="M205.6,181.6c0.2,0,0.5-0.1,0.6-0.3
					c0.2-0.2,0.3-0.4,0.3-0.6s-0.1-0.5-0.3-0.6c-0.2-0.2-0.4-0.3-0.6-0.3c-0.2,0-0.5,0.1-0.6,0.3c-0.2,0.2-0.3,0.4-0.3,0.6
					s0.1,0.5,0.3,0.6C205.1,181.5,205.3,181.6,205.6,181.6z"/>
			</g>
			<g>
				<path id="m8552958979_00000176724882994431788730000016318260881603481524_" class="st1" d="M207.7,177.4c0.2,0,0.5-0.1,0.6-0.3
					c0.2-0.2,0.3-0.4,0.3-0.6c0-0.2-0.1-0.5-0.3-0.6c-0.2-0.2-0.4-0.3-0.6-0.3s-0.5,0.1-0.6,0.3c-0.2,0.2-0.3,0.4-0.3,0.6
					c0,0.2,0.1,0.5,0.3,0.6C207.2,177.3,207.4,177.4,207.7,177.4z"/>
			</g>
			<g>
				<path id="m8552958979_00000160880848138240084080000004945530819579635330_" class="st1" d="M213.9,171.5c0.2,0,0.5-0.1,0.6-0.3
					c0.2-0.2,0.3-0.4,0.3-0.6s-0.1-0.5-0.3-0.6c-0.2-0.2-0.4-0.3-0.6-0.3c-0.2,0-0.5,0.1-0.6,0.3c-0.2,0.2-0.3,0.4-0.3,0.6
					s0.1,0.5,0.3,0.6C213.4,171.4,213.6,171.5,213.9,171.5z"/>
			</g>
			<g>
				<path id="m8552958979_00000142858633148940832000000003013959056543928963_" class="st1" d="M228.8,154.5c0.2,0,0.5-0.1,0.6-0.3
					c0.2-0.2,0.3-0.4,0.3-0.6c0-0.2-0.1-0.5-0.3-0.6c-0.2-0.2-0.4-0.3-0.6-0.3c-0.2,0-0.5,0.1-0.6,0.3c-0.2,0.2-0.3,0.4-0.3,0.6
					c0,0.2,0.1,0.5,0.3,0.6C228.3,154.4,228.5,154.5,228.8,154.5z"/>
			</g>
			<g>
				<path id="m8552958979_00000094599637316691738370000016853489902328850098_" class="st1" d="M235.9,144.4c0.2,0,0.5-0.1,0.6-0.3
					c0.2-0.2,0.3-0.4,0.3-0.6s-0.1-0.5-0.3-0.6c-0.2-0.2-0.4-0.3-0.6-0.3c-0.2,0-0.5,0.1-0.6,0.3c-0.2,0.2-0.3,0.4-0.3,0.6
					s0.1,0.5,0.3,0.6C235.4,144.3,235.6,144.4,235.9,144.4z"/>
			</g>
			<g>
				<path id="m8552958979_00000057141154418168910740000009298865469123494829_" class="st1" d="M240.4,144.3c0.2,0,0.5-0.1,0.6-0.3
					c0.2-0.2,0.3-0.4,0.3-0.6c0-0.2-0.1-0.5-0.3-0.6s-0.4-0.3-0.6-0.3s-0.5,0.1-0.6,0.3s-0.3,0.4-0.3,0.6c0,0.2,0.1,0.5,0.3,0.6
					C240,144.2,240.2,144.3,240.4,144.3z"/>
			</g>
			<g>
				<path id="m8552958979_00000017514065619812558610000003477995929637085079_" class="st1" d="M229.9,150.2c0.2,0,0.5-0.1,0.6-0.3
					s0.3-0.4,0.3-0.6s-0.1-0.5-0.3-0.6s-0.4-0.3-0.6-0.3s-0.5,0.1-0.6,0.3s-0.3,0.4-0.3,0.6s0.1,0.5,0.3,0.6
					S229.7,150.2,229.9,150.2z"/>
			</g>
			<g>
				<path id="m8552958979_00000028314878004729748380000010322770596771790505_" class="st1" d="M230.1,150c0.2,0,0.5-0.1,0.6-0.3
					c0.2-0.2,0.3-0.4,0.3-0.6c0-0.2-0.1-0.5-0.3-0.6c-0.2-0.2-0.4-0.3-0.6-0.3c-0.2,0-0.5,0.1-0.6,0.3c-0.2,0.2-0.3,0.4-0.3,0.6
					c0,0.2,0.1,0.5,0.3,0.6C229.7,149.9,229.9,150,230.1,150z"/>
			</g>
			<g>
				<path id="m8552958979_00000101066370926357184640000006463703241907713921_" class="st1" d="M231.1,150.1c0.2,0,0.5-0.1,0.6-0.3
					c0.2-0.2,0.3-0.4,0.3-0.6c0-0.2-0.1-0.5-0.3-0.6c-0.2-0.2-0.4-0.3-0.6-0.3c-0.2,0-0.5,0.1-0.6,0.3c-0.2,0.2-0.3,0.4-0.3,0.6
					c0,0.2,0.1,0.5,0.3,0.6C230.6,150,230.9,150.1,231.1,150.1z"/>
			</g>
			<g>
				<path id="m8552958979_00000101063733233334691960000009840663320573519521_" class="st1" d="M234.1,147.3c0.2,0,0.5-0.1,0.6-0.3
					c0.2-0.2,0.3-0.4,0.3-0.6c0-0.2-0.1-0.5-0.3-0.6c-0.2-0.2-0.4-0.3-0.6-0.3s-0.5,0.1-0.6,0.3c-0.2,0.2-0.3,0.4-0.3,0.6
					c0,0.2,0.1,0.5,0.3,0.6C233.7,147.2,233.9,147.3,234.1,147.3z"/>
			</g>
			<g>
				<path id="m8552958979_00000034083765350075818640000017242761071389010335_" class="st1" d="M244,137.1c0.2,0,0.5-0.1,0.6-0.3
					c0.2-0.2,0.3-0.4,0.3-0.6s-0.1-0.5-0.3-0.6c-0.2-0.2-0.4-0.3-0.6-0.3c-0.2,0-0.5,0.1-0.6,0.3c-0.2,0.2-0.3,0.4-0.3,0.6
					s0.1,0.5,0.3,0.6C243.5,137.1,243.8,137.1,244,137.1z"/>
			</g>
			<g>
				<path id="m8552958979_00000052105838160442001980000008517371605239463861_" class="st1" d="M249.2,134.7c0.2,0,0.5-0.1,0.6-0.3
					s0.3-0.4,0.3-0.6s-0.1-0.5-0.3-0.6s-0.4-0.3-0.6-0.3s-0.5,0.1-0.6,0.3c-0.2,0.2-0.3,0.4-0.3,0.6s0.1,0.5,0.3,0.6
					C248.8,134.6,249,134.7,249.2,134.7z"/>
			</g>
			<g>
				<path id="m8552958979_00000119819706448123749680000010077189724665871782_" class="st1" d="M253,128.7c0.2,0,0.5-0.1,0.6-0.3
					c0.2-0.2,0.3-0.4,0.3-0.6s-0.1-0.5-0.3-0.6c-0.2-0.2-0.4-0.3-0.6-0.3c-0.2,0-0.5,0.1-0.6,0.3c-0.2,0.2-0.3,0.4-0.3,0.6
					s0.1,0.5,0.3,0.6C252.6,128.6,252.8,128.7,253,128.7z"/>
			</g>
			<g>
				<path id="m8552958979_00000073684193824445257200000001009909480515132555_" class="st1" d="M242.4,134c0.2,0,0.5-0.1,0.6-0.3
					c0.2-0.2,0.3-0.4,0.3-0.6c0-0.2-0.1-0.5-0.3-0.6c-0.2-0.2-0.4-0.3-0.6-0.3c-0.2,0-0.5,0.1-0.6,0.3c-0.2,0.2-0.3,0.4-0.3,0.6
					c0,0.2,0.1,0.5,0.3,0.6C241.9,133.9,242.2,134,242.4,134z"/>
			</g>
			<g>
				<path id="m8552958979_00000116936471479316293130000006894024012431941271_" class="st1" d="M242.4,135c0.2,0,0.5-0.1,0.6-0.3
					c0.2-0.2,0.3-0.4,0.3-0.6c0-0.2-0.1-0.5-0.3-0.6c-0.2-0.2-0.4-0.3-0.6-0.3c-0.2,0-0.5,0.1-0.6,0.3c-0.2,0.2-0.3,0.4-0.3,0.6
					c0,0.2,0.1,0.5,0.3,0.6C242,134.9,242.2,135,242.4,135z"/>
			</g>
			<g>
				<path id="m8552958979_00000126307917856635203420000009262637292415722123_" class="st1" d="M242.9,136.8c0.2,0,0.5-0.1,0.6-0.3
					c0.2-0.2,0.3-0.4,0.3-0.6s-0.1-0.5-0.3-0.6c-0.2-0.2-0.4-0.3-0.6-0.3c-0.2,0-0.5,0.1-0.6,0.3c-0.2,0.2-0.3,0.4-0.3,0.6
					s0.1,0.5,0.3,0.6C242.4,136.7,242.6,136.8,242.9,136.8z"/>
			</g>
			<g>
				<path id="m8552958979_00000083088604082475664910000009270027992356228533_" class="st1" d="M246,131.3c0.2,0,0.5-0.1,0.6-0.3
					c0.2-0.2,0.3-0.4,0.3-0.6s-0.1-0.5-0.3-0.6c-0.2-0.2-0.4-0.3-0.6-0.3c-0.2,0-0.5,0.1-0.6,0.3c-0.2,0.2-0.3,0.4-0.3,0.6
					s0.1,0.5,0.3,0.6C245.6,131.2,245.8,131.3,246,131.3z"/>
			</g>
			<g>
				<path id="m8552958979_00000161596362713937356470000012180109977669074326_" class="st1" d="M252.4,127.6c0.2,0,0.5-0.1,0.6-0.3
					c0.2-0.2,0.3-0.4,0.3-0.6c0-0.2-0.1-0.5-0.3-0.6c-0.2-0.2-0.4-0.3-0.6-0.3c-0.2,0-0.5,0.1-0.6,0.3c-0.2,0.2-0.3,0.4-0.3,0.6
					c0,0.2,0.1,0.5,0.3,0.6C252,127.5,252.2,127.6,252.4,127.6z"/>
			</g>
			<g>
				<path id="m8552958979_00000137824319304495023080000003906425325671164822_" class="st1" d="M257.8,123.2c0.2,0,0.5-0.1,0.6-0.3
					c0.2-0.2,0.3-0.4,0.3-0.6s-0.1-0.5-0.3-0.6c-0.2-0.2-0.4-0.3-0.6-0.3c-0.2,0-0.5,0.1-0.6,0.3c-0.2,0.2-0.3,0.4-0.3,0.6
					s0.1,0.5,0.3,0.6C257.3,123.1,257.5,123.2,257.8,123.2z"/>
			</g>
			<g>
				<path id="m8552958979_00000167380290156744532870000011054722596625920414_" class="st1" d="M262.2,122.2c0.2,0,0.5-0.1,0.6-0.3
					c0.2-0.2,0.3-0.4,0.3-0.6c0-0.2-0.1-0.5-0.3-0.6c-0.2-0.2-0.4-0.3-0.6-0.3c-0.2,0-0.5,0.1-0.6,0.3c-0.2,0.2-0.3,0.4-0.3,0.6
					c0,0.2,0.1,0.5,0.3,0.6C261.8,122.1,262,122.2,262.2,122.2z"/>
			</g>
			<g>
				<path id="m8552958979_00000092427944470635529260000010490659319357072019_" class="st1" d="M254.8,120.9c0.2,0,0.5-0.1,0.6-0.3
					c0.2-0.2,0.3-0.4,0.3-0.6c0-0.2-0.1-0.5-0.3-0.6c-0.2-0.2-0.4-0.3-0.6-0.3c-0.2,0-0.5,0.1-0.6,0.3c-0.2,0.2-0.3,0.4-0.3,0.6
					c0,0.2,0.1,0.5,0.3,0.6C254.3,120.8,254.5,120.9,254.8,120.9z"/>
			</g>
			<g>
				<path id="m8552958979_00000114794193869821834430000015093700786327984041_" class="st1" d="M254.8,121c0.2,0,0.5-0.1,0.6-0.3
					c0.2-0.2,0.3-0.4,0.3-0.6c0-0.2-0.1-0.5-0.3-0.6c-0.2-0.2-0.4-0.3-0.6-0.3s-0.5,0.1-0.6,0.3c-0.2,0.2-0.3,0.4-0.3,0.6
					c0,0.2,0.1,0.5,0.3,0.6C254.3,120.9,254.5,121,254.8,121z"/>
			</g>
			<g>
				<path id="m8552958979_00000026158829781074861800000004431704845782679963_" class="st1" d="M255.3,123.7c0.2,0,0.5-0.1,0.6-0.3
					c0.2-0.2,0.3-0.4,0.3-0.6c0-0.2-0.1-0.5-0.3-0.6c-0.2-0.2-0.4-0.3-0.6-0.3c-0.2,0-0.5,0.1-0.6,0.3c-0.2,0.2-0.3,0.4-0.3,0.6
					c0,0.2,0.1,0.5,0.3,0.6C254.9,123.6,255.1,123.7,255.3,123.7z"/>
			</g>
			<g>
				<path id="m8552958979_00000056406704896319407620000003430302447840647580_" class="st1" d="M257.5,121.8c0.2,0,0.5-0.1,0.6-0.3
					c0.2-0.2,0.3-0.4,0.3-0.6c0-0.2-0.1-0.5-0.3-0.6c-0.2-0.2-0.4-0.3-0.6-0.3c-0.2,0-0.5,0.1-0.6,0.3c-0.2,0.2-0.3,0.4-0.3,0.6
					c0,0.2,0.1,0.5,0.3,0.6C257,121.7,257.3,121.8,257.5,121.8z"/>
			</g>
			<g>
				<path id="m8552958979_00000012432148850459419990000014122558350483436987_" class="st1" d="M261.4,121.2c0.2,0,0.5-0.1,0.6-0.3
					c0.2-0.2,0.3-0.4,0.3-0.6c0-0.2-0.1-0.5-0.3-0.6c-0.2-0.2-0.4-0.3-0.6-0.3s-0.5,0.1-0.6,0.3c-0.2,0.2-0.3,0.4-0.3,0.6
					c0,0.2,0.1,0.5,0.3,0.6C261,121.1,261.2,121.2,261.4,121.2z"/>
			</g>
			<g>
				<path id="m8552958979_00000118385409433028753840000007059736050203665564_" class="st1" d="M264.4,121.8c0.2,0,0.5-0.1,0.6-0.3
					c0.2-0.2,0.3-0.4,0.3-0.6c0-0.2-0.1-0.5-0.3-0.6c-0.2-0.2-0.4-0.3-0.6-0.3s-0.5,0.1-0.6,0.3c-0.2,0.2-0.3,0.4-0.3,0.6
					c0,0.2,0.1,0.5,0.3,0.6C263.9,121.7,264.2,121.8,264.4,121.8z"/>
			</g>
			<g>
				<path id="m8552958979_00000124156650866497258690000008065511453665292198_" class="st1" d="M269.2,114c0.2,0,0.5-0.1,0.6-0.3
					c0.2-0.2,0.3-0.4,0.3-0.6c0-0.2-0.1-0.5-0.3-0.6c-0.2-0.2-0.4-0.3-0.6-0.3c-0.2,0-0.5,0.1-0.6,0.3c-0.2,0.2-0.3,0.4-0.3,0.6
					c0,0.2,0.1,0.5,0.3,0.6C268.8,113.9,269,114,269.2,114z"/>
			</g>
		</g>
	</g>
</g>
<g id="PathCollection_2">
	<g>
		<defs>
			<rect id="SVGID_00000088828147523338516010000005535592940257880205_" x="174.1" y="102.7" width="111.7" height="111.7"/>
		</defs>
		<clipPath id="SVGID_00000057847401936554866840000001670305191046261408_">
			<use xlink:href="#SVGID_00000088828147523338516010000005535592940257880205_"  style="overflow:visible;"/>
		</clipPath>
		<g style="clip-path:url(#SVGID_00000057847401936554866840000001670305191046261408_);">
			<g>
				<path id="m4f23e9d928" class="st3" d="M187.1,200.8c0.2,0,0.5-0.1,0.6-0.3c0.2-0.2,0.3-0.4,0.3-0.6c0-0.2-0.1-0.5-0.3-0.6
					c-0.2-0.2-0.4-0.3-0.6-0.3c-0.2,0-0.5,0.1-0.6,0.3c-0.2,0.2-0.3,0.4-0.3,0.6c0,0.2,0.1,0.5,0.3,0.6
					C186.7,200.7,186.9,200.8,187.1,200.8z"/>
			</g>
			<g>
				<path id="m4f23e9d928_00000104691126868242852050000010999267235485553537_" class="st3" d="M192.2,196.6c0.2,0,0.5-0.1,0.6-0.3
					c0.2-0.2,0.3-0.4,0.3-0.6c0-0.2-0.1-0.5-0.3-0.6c-0.2-0.2-0.4-0.3-0.6-0.3c-0.2,0-0.5,0.1-0.6,0.3c-0.2,0.2-0.3,0.4-0.3,0.6
					c0,0.2,0.1,0.5,0.3,0.6C191.8,196.5,192,196.6,192.2,196.6z"/>
			</g>
			<g>
				<path id="m4f23e9d928_00000132771435725461546560000015539787748281251248_" class="st3" d="M203.9,182.4c0.2,0,0.5-0.1,0.6-0.3
					s0.3-0.4,0.3-0.6s-0.1-0.5-0.3-0.6s-0.4-0.3-0.6-0.3s-0.5,0.1-0.6,0.3s-0.3,0.4-0.3,0.6s0.1,0.5,0.3,0.6
					S203.6,182.4,203.9,182.4z"/>
			</g>
			<g>
				<path id="m4f23e9d928_00000046298621749371492560000004370747730458122156_" class="st3" d="M220,166.1c0.2,0,0.5-0.1,0.6-0.3
					c0.2-0.2,0.3-0.4,0.3-0.6c0-0.2-0.1-0.5-0.3-0.6c-0.2-0.2-0.4-0.3-0.6-0.3c-0.2,0-0.5,0.1-0.6,0.3c-0.2,0.2-0.3,0.4-0.3,0.6
					c0,0.2,0.1,0.5,0.3,0.6C219.5,166,219.7,166.1,220,166.1z"/>
			</g>
			<g>
				<path id="m4f23e9d928_00000003090552162081361630000003492218340393575855_" class="st3" d="M239.6,149.7c0.2,0,0.5-0.1,0.6-0.3
					c0.2-0.2,0.3-0.4,0.3-0.6s-0.1-0.5-0.3-0.6c-0.2-0.2-0.4-0.3-0.6-0.3c-0.2,0-0.5,0.1-0.6,0.3c-0.2,0.2-0.3,0.4-0.3,0.6
					s0.1,0.5,0.3,0.6C239.2,149.6,239.4,149.7,239.6,149.7z"/>
			</g>
			<g>
				<path id="m4f23e9d928_00000037684845603685557770000012937018380187371431_" class="st3" d="M247.7,145.5c0.2,0,0.5-0.1,0.6-0.3
					s0.3-0.4,0.3-0.6s-0.1-0.5-0.3-0.6s-0.4-0.3-0.6-0.3s-0.5,0.1-0.6,0.3s-0.3,0.4-0.3,0.6s0.1,0.5,0.3,0.6
					S247.5,145.5,247.7,145.5z"/>
			</g>
			<g>
				<path id="m4f23e9d928_00000137825799717783377980000016541776681332311229_" class="st3" d="M253.8,141c0.2,0,0.5-0.1,0.6-0.3
					c0.2-0.2,0.3-0.4,0.3-0.6c0-0.2-0.1-0.5-0.3-0.6c-0.2-0.2-0.4-0.3-0.6-0.3c-0.2,0-0.5,0.1-0.6,0.3c-0.2,0.2-0.3,0.4-0.3,0.6
					c0,0.2,0.1,0.5,0.3,0.6C253.3,140.9,253.6,141,253.8,141z"/>
			</g>
			<g>
				<path id="m4f23e9d928_00000100349356344483155500000004219577184576295076_" class="st3" d="M188.6,200.4c0.2,0,0.5-0.1,0.6-0.3
					c0.2-0.2,0.3-0.4,0.3-0.6c0-0.2-0.1-0.5-0.3-0.6c-0.2-0.2-0.4-0.3-0.6-0.3c-0.2,0-0.5,0.1-0.6,0.3c-0.2,0.2-0.3,0.4-0.3,0.6
					c0,0.2,0.1,0.5,0.3,0.6C188.2,200.3,188.4,200.4,188.6,200.4z"/>
			</g>
			<g>
				<path id="m4f23e9d928_00000108293238816264188320000003905238461876018574_" class="st3" d="M192.9,195.6c0.2,0,0.5-0.1,0.6-0.3
					s0.3-0.4,0.3-0.6s-0.1-0.5-0.3-0.6s-0.4-0.3-0.6-0.3s-0.5,0.1-0.6,0.3s-0.3,0.4-0.3,0.6s0.1,0.5,0.3,0.6
					S192.7,195.6,192.9,195.6z"/>
			</g>
			<g>
				<path id="m4f23e9d928_00000111161546918521032020000012563364393838442624_" class="st3" d="M204.6,180.7c0.2,0,0.5-0.1,0.6-0.3
					c0.2-0.2,0.3-0.4,0.3-0.6c0-0.2-0.1-0.5-0.3-0.6c-0.2-0.2-0.4-0.3-0.6-0.3c-0.2,0-0.5,0.1-0.6,0.3c-0.2,0.2-0.3,0.4-0.3,0.6
					c0,0.2,0.1,0.5,0.3,0.6C204.1,180.6,204.3,180.7,204.6,180.7z"/>
			</g>
			<g>
				<path id="m4f23e9d928_00000126302069780685901120000005381469327624841094_" class="st3" d="M219.5,168c0.2,0,0.5-0.1,0.6-0.3
					c0.2-0.2,0.3-0.4,0.3-0.6c0-0.2-0.1-0.5-0.3-0.6s-0.4-0.3-0.6-0.3c-0.2,0-0.5,0.1-0.6,0.3c-0.2,0.2-0.3,0.4-0.3,0.6
					c0,0.2,0.1,0.5,0.3,0.6C219,168,219.2,168,219.5,168z"/>
			</g>
			<g>
				<path id="m4f23e9d928_00000110442707002836580280000004519429107044046512_" class="st3" d="M240.2,150.5c0.2,0,0.5-0.1,0.6-0.3
					c0.2-0.2,0.3-0.4,0.3-0.6c0-0.2-0.1-0.5-0.3-0.6c-0.2-0.2-0.4-0.3-0.6-0.3s-0.5,0.1-0.6,0.3c-0.2,0.2-0.3,0.4-0.3,0.6
					c0,0.2,0.1,0.5,0.3,0.6C239.8,150.4,240,150.5,240.2,150.5z"/>
			</g>
			<g>
				<path id="m4f23e9d928_00000108989987106874767320000007064876183601876894_" class="st3" d="M245.8,144.9c0.2,0,0.5-0.1,0.6-0.3
					c0.2-0.2,0.3-0.4,0.3-0.6s-0.1-0.5-0.3-0.6c-0.2-0.2-0.4-0.3-0.6-0.3c-0.2,0-0.5,0.1-0.6,0.3c-0.2,0.2-0.3,0.4-0.3,0.6
					s0.1,0.5,0.3,0.6C245.4,144.8,245.6,144.9,245.8,144.9z"/>
			</g>
			<g>
				<path id="m4f23e9d928_00000132806155093938207410000006629447175573133701_" class="st3" d="M253,139.8c0.2,0,0.5-0.1,0.6-0.3
					c0.2-0.2,0.3-0.4,0.3-0.6c0-0.2-0.1-0.5-0.3-0.6c-0.2-0.2-0.4-0.3-0.6-0.3s-0.5,0.1-0.6,0.3c-0.2,0.2-0.3,0.4-0.3,0.6
					c0,0.2,0.1,0.5,0.3,0.6C252.6,139.7,252.8,139.8,253,139.8z"/>
			</g>
			<g>
				<path id="m4f23e9d928_00000096748257975090292800000000776355295881094829_" class="st3" d="M195,192c0.2,0,0.5-0.1,0.6-0.3
					c0.2-0.2,0.3-0.4,0.3-0.6c0-0.2-0.1-0.5-0.3-0.6c-0.2-0.2-0.4-0.3-0.6-0.3c-0.2,0-0.5,0.1-0.6,0.3c-0.2,0.2-0.3,0.4-0.3,0.6
					c0,0.2,0.1,0.5,0.3,0.6S194.8,192,195,192z"/>
			</g>
			<g>
				<path id="m4f23e9d928_00000116937072561282750620000016736328845068101785_" class="st3" d="M198.1,189.1c0.2,0,0.5-0.1,0.6-0.3
					s0.3-0.4,0.3-0.6s-0.1-0.5-0.3-0.6s-0.4-0.3-0.6-0.3s-0.5,0.1-0.6,0.3s-0.3,0.4-0.3,0.6s0.1,0.5,0.3,0.6
					S197.9,189.1,198.1,189.1z"/>
			</g>
			<g>
				<path id="m4f23e9d928_00000160903680633575804770000005863731050668544137_" class="st3" d="M206.6,180.2c0.2,0,0.5-0.1,0.6-0.3
					c0.2-0.2,0.3-0.4,0.3-0.6s-0.1-0.5-0.3-0.6c-0.2-0.2-0.4-0.3-0.6-0.3c-0.2,0-0.5,0.1-0.6,0.3s-0.3,0.4-0.3,0.6s0.1,0.5,0.3,0.6
					S206.3,180.2,206.6,180.2z"/>
			</g>
			<g>
				<path id="m4f23e9d928_00000020395516875065780950000001904849557929589133_" class="st3" d="M220.8,169.1c0.2,0,0.5-0.1,0.6-0.3
					c0.2-0.2,0.3-0.4,0.3-0.6s-0.1-0.5-0.3-0.6c-0.2-0.2-0.4-0.3-0.6-0.3c-0.2,0-0.5,0.1-0.6,0.3c-0.2,0.2-0.3,0.4-0.3,0.6
					s0.1,0.5,0.3,0.6C220.4,169,220.6,169.1,220.8,169.1z"/>
			</g>
			<g>
				<path id="m4f23e9d928_00000083811590710277878300000010264831563096095418_" class="st3" d="M241.5,148.8c0.2,0,0.5-0.1,0.6-0.3
					c0.2-0.2,0.3-0.4,0.3-0.6c0-0.2-0.1-0.5-0.3-0.6c-0.2-0.2-0.4-0.3-0.6-0.3s-0.5,0.1-0.6,0.3c-0.2,0.2-0.3,0.4-0.3,0.6
					c0,0.2,0.1,0.5,0.3,0.6C241,148.7,241.2,148.8,241.5,148.8z"/>
			</g>
			<g>
				<path id="m4f23e9d928_00000082329770371151969710000014510738190980682112_" class="st3" d="M247.3,144.3c0.2,0,0.5-0.1,0.6-0.3
					s0.3-0.4,0.3-0.6s-0.1-0.5-0.3-0.6s-0.4-0.3-0.6-0.3c-0.2,0-0.5,0.1-0.6,0.3c-0.2,0.2-0.3,0.4-0.3,0.6s0.1,0.5,0.3,0.6
					C246.8,144.3,247,144.3,247.3,144.3z"/>
			</g>
			<g>
				<path id="m4f23e9d928_00000122687074789183473510000002018373051499003023_" class="st3" d="M255,137.5c0.2,0,0.5-0.1,0.6-0.3
					c0.2-0.2,0.3-0.4,0.3-0.6c0-0.2-0.1-0.5-0.3-0.6c-0.2-0.2-0.4-0.3-0.6-0.3c-0.2,0-0.5,0.1-0.6,0.3c-0.2,0.2-0.3,0.4-0.3,0.6
					c0,0.2,0.1,0.5,0.3,0.6C254.6,137.4,254.8,137.5,255,137.5z"/>
			</g>
			<g>
				<path id="m4f23e9d928_00000002347153564747866160000000955650750022281104_" class="st3" d="M206.8,178.3c0.2,0,0.5-0.1,0.6-0.3
					c0.2-0.2,0.3-0.4,0.3-0.6s-0.1-0.5-0.3-0.6c-0.2-0.2-0.4-0.3-0.6-0.3c-0.2,0-0.5,0.1-0.6,0.3c-0.2,0.2-0.3,0.4-0.3,0.6
					s0.1,0.5,0.3,0.6C206.4,178.2,206.6,178.3,206.8,178.3z"/>
			</g>
			<g>
				<path id="m4f23e9d928_00000051382064996965214680000003270871564465978001_" class="st3" d="M208.8,177.3c0.2,0,0.5-0.1,0.6-0.3
					c0.2-0.2,0.3-0.4,0.3-0.6c0-0.2-0.1-0.5-0.3-0.6c-0.2-0.2-0.4-0.3-0.6-0.3c-0.2,0-0.5,0.1-0.6,0.3c-0.2,0.2-0.3,0.4-0.3,0.6
					c0,0.2,0.1,0.5,0.3,0.6C208.3,177.2,208.6,177.3,208.8,177.3z"/>
			</g>
			<g>
				<path id="m4f23e9d928_00000098943847025877457150000009086006813451131057_" class="st3" d="M214.8,170.5c0.2,0,0.5-0.1,0.6-0.3
					c0.2-0.2,0.3-0.4,0.3-0.6c0-0.2-0.1-0.5-0.3-0.6c-0.2-0.2-0.4-0.3-0.6-0.3c-0.2,0-0.5,0.1-0.6,0.3c-0.2,0.2-0.3,0.4-0.3,0.6
					c0,0.2,0.1,0.5,0.3,0.6C214.4,170.4,214.6,170.5,214.8,170.5z"/>
			</g>
			<g>
				<path id="m4f23e9d928_00000172417050028092519280000007935122132624728970_" class="st3" d="M225.7,160.5c0.2,0,0.5-0.1,0.6-0.3
					c0.2-0.2,0.3-0.4,0.3-0.6c0-0.2-0.1-0.5-0.3-0.6c-0.2-0.2-0.4-0.3-0.6-0.3s-0.5,0.1-0.6,0.3c-0.2,0.2-0.3,0.4-0.3,0.6
					c0,0.2,0.1,0.5,0.3,0.6C225.2,160.4,225.5,160.5,225.7,160.5z"/>
			</g>
			<g>
				<path id="m4f23e9d928_00000151535125203683373620000013585632734997018043_" class="st3" d="M243.5,147.7c0.2,0,0.5-0.1,0.6-0.3
					s0.3-0.4,0.3-0.6c0-0.2-0.1-0.5-0.3-0.6c-0.2-0.2-0.4-0.3-0.6-0.3s-0.5,0.1-0.6,0.3c-0.2,0.2-0.3,0.4-0.3,0.6
					c0,0.2,0.1,0.5,0.3,0.6S243.3,147.7,243.5,147.7z"/>
			</g>
			<g>
				<path id="m4f23e9d928_00000178165056367425280590000006342528048231871669_" class="st3" d="M252,141.1c0.2,0,0.5-0.1,0.6-0.3
					c0.2-0.2,0.3-0.4,0.3-0.6c0-0.2-0.1-0.5-0.3-0.6c-0.2-0.2-0.4-0.3-0.6-0.3s-0.5,0.1-0.6,0.3c-0.2,0.2-0.3,0.4-0.3,0.6
					c0,0.2,0.1,0.5,0.3,0.6C251.6,141,251.8,141.1,252,141.1z"/>
			</g>
			<g>
				<path id="m4f23e9d928_00000182511349193477099130000002838852836319174553_" class="st3" d="M255.8,137.4c0.2,0,0.5-0.1,0.6-0.3
					c0.2-0.2,0.3-0.4,0.3-0.6c0-0.2-0.1-0.5-0.3-0.6c-0.2-0.2-0.4-0.3-0.6-0.3s-0.5,0.1-0.6,0.3c-0.2,0.2-0.3,0.4-0.3,0.6
					c0,0.2,0.1,0.5,0.3,0.6C255.4,137.3,255.6,137.4,255.8,137.4z"/>
			</g>
			<g>
				<path id="m4f23e9d928_00000019653589766941120380000000396124306408654478_" class="st3" d="M231.1,149.3c0.2,0,0.5-0.1,0.6-0.3
					c0.2-0.2,0.3-0.4,0.3-0.6c0-0.2-0.1-0.5-0.3-0.6c-0.2-0.2-0.4-0.3-0.6-0.3c-0.2,0-0.5,0.1-0.6,0.3c-0.2,0.2-0.3,0.4-0.3,0.6
					c0,0.2,0.1,0.5,0.3,0.6C230.6,149.2,230.8,149.3,231.1,149.3z"/>
			</g>
			<g>
				<path id="m4f23e9d928_00000158014012019561023010000007439485402102603407_" class="st3" d="M232.2,148c0.2,0,0.5-0.1,0.6-0.3
					c0.2-0.2,0.3-0.4,0.3-0.6c0-0.2-0.1-0.5-0.3-0.6c-0.2-0.2-0.4-0.3-0.6-0.3s-0.5,0.1-0.6,0.3c-0.2,0.2-0.3,0.4-0.3,0.6
					c0,0.2,0.1,0.5,0.3,0.6C231.8,147.9,232,148,232.2,148z"/>
			</g>
			<g>
				<path id="m4f23e9d928_00000073695903183273430310000001633114059290576549_" class="st3" d="M235.9,146.7c0.2,0,0.5-0.1,0.6-0.3
					c0.2-0.2,0.3-0.4,0.3-0.6c0-0.2-0.1-0.5-0.3-0.6c-0.2-0.2-0.4-0.3-0.6-0.3c-0.2,0-0.5,0.1-0.6,0.3c-0.2,0.2-0.3,0.4-0.3,0.6
					c0,0.2,0.1,0.5,0.3,0.6C235.4,146.6,235.6,146.7,235.9,146.7z"/>
			</g>
			<g>
				<path id="m4f23e9d928_00000158030392034409806740000002732129944873513121_" class="st3" d="M242.7,142.9c0.2,0,0.5-0.1,0.6-0.3
					c0.2-0.2,0.3-0.4,0.3-0.6c0-0.2-0.1-0.5-0.3-0.6c-0.2-0.2-0.4-0.3-0.6-0.3c-0.2,0-0.5,0.1-0.6,0.3c-0.2,0.2-0.3,0.4-0.3,0.6
					c0,0.2,0.1,0.5,0.3,0.6C242.3,142.8,242.5,142.9,242.7,142.9z"/>
			</g>
			<g>
				<path id="m4f23e9d928_00000183945289912456551490000004304934462790933142_" class="st3" d="M255.9,135.3c0.2,0,0.5-0.1,0.6-0.3
					s0.3-0.4,0.3-0.6s-0.1-0.5-0.3-0.6s-0.4-0.3-0.6-0.3c-0.2,0-0.5,0.1-0.6,0.3c-0.2,0.2-0.3,0.4-0.3,0.6s0.1,0.5,0.3,0.6
					C255.4,135.2,255.6,135.3,255.9,135.3z"/>
			</g>
			<g>
				<path id="m4f23e9d928_00000077286984660777698930000013754889803142171546_" class="st3" d="M260.4,133.2c0.2,0,0.5-0.1,0.6-0.3
					s0.3-0.4,0.3-0.6c0-0.2-0.1-0.5-0.3-0.6c-0.2-0.2-0.4-0.3-0.6-0.3c-0.2,0-0.5,0.1-0.6,0.3c-0.2,0.2-0.3,0.4-0.3,0.6
					c0,0.2,0.1,0.5,0.3,0.6S260.2,133.2,260.4,133.2z"/>
			</g>
			<g>
				<path id="m4f23e9d928_00000130625876238880005200000009215011637195293103_" class="st3" d="M265.1,129.3c0.2,0,0.5-0.1,0.6-0.3
					s0.3-0.4,0.3-0.6s-0.1-0.5-0.3-0.6s-0.4-0.3-0.6-0.3c-0.2,0-0.5,0.1-0.6,0.3s-0.3,0.4-0.3,0.6s0.1,0.5,0.3,0.6
					S264.8,129.3,265.1,129.3z"/>
			</g>
			<g>
				<path id="m4f23e9d928_00000067949567149489863890000012846286879805220484_" class="st3" d="M243.5,134.5c0.2,0,0.5-0.1,0.6-0.3
					c0.2-0.2,0.3-0.4,0.3-0.6c0-0.2-0.1-0.5-0.3-0.6c-0.2-0.2-0.4-0.3-0.6-0.3s-0.5,0.1-0.6,0.3c-0.2,0.2-0.3,0.4-0.3,0.6
					c0,0.2,0.1,0.5,0.3,0.6C243.1,134.4,243.3,134.5,243.5,134.5z"/>
			</g>
			<g>
				<path id="m4f23e9d928_00000044142298457671783900000002934786555128743863_" class="st3" d="M244.1,133.9c0.2,0,0.5-0.1,0.6-0.3
					s0.3-0.4,0.3-0.6s-0.1-0.5-0.3-0.6s-0.4-0.3-0.6-0.3s-0.5,0.1-0.6,0.3s-0.3,0.4-0.3,0.6s0.1,0.5,0.3,0.6
					S243.9,133.9,244.1,133.9z"/>
			</g>
			<g>
				<path id="m4f23e9d928_00000178198574818188795920000016561626283790053307_" class="st3" d="M246.6,136.9c0.2,0,0.5-0.1,0.6-0.3
					c0.2-0.2,0.3-0.4,0.3-0.6c0-0.2-0.1-0.5-0.3-0.6c-0.2-0.2-0.4-0.3-0.6-0.3s-0.5,0.1-0.6,0.3c-0.2,0.2-0.3,0.4-0.3,0.6
					c0,0.2,0.1,0.5,0.3,0.6C246.1,136.8,246.3,136.9,246.6,136.9z"/>
			</g>
			<g>
				<path id="m4f23e9d928_00000015318069821119151780000013700850941042437527_" class="st3" d="M252.4,131.9c0.2,0,0.5-0.1,0.6-0.3
					c0.2-0.2,0.3-0.4,0.3-0.6c0-0.2-0.1-0.5-0.3-0.6c-0.2-0.2-0.4-0.3-0.6-0.3c-0.2,0-0.5,0.1-0.6,0.3c-0.2,0.2-0.3,0.4-0.3,0.6
					c0,0.2,0.1,0.5,0.3,0.6C251.9,131.8,252.1,131.9,252.4,131.9z"/>
			</g>
			<g>
				<path id="m4f23e9d928_00000016775764273045696370000016277413807756149407_" class="st3" d="M261.9,129c0.2,0,0.5-0.1,0.6-0.3
					s0.3-0.4,0.3-0.6c0-0.2-0.1-0.5-0.3-0.6c-0.2-0.2-0.4-0.3-0.6-0.3c-0.2,0-0.5,0.1-0.6,0.3c-0.2,0.2-0.3,0.4-0.3,0.6
					c0,0.2,0.1,0.5,0.3,0.6S261.6,129,261.9,129z"/>
			</g>
			<g>
				<path id="m4f23e9d928_00000134942522259462756920000000889857703046618531_" class="st3" d="M266.9,127.5c0.2,0,0.5-0.1,0.6-0.3
					c0.2-0.2,0.3-0.4,0.3-0.6c0-0.2-0.1-0.5-0.3-0.6c-0.2-0.2-0.4-0.3-0.6-0.3s-0.5,0.1-0.6,0.3c-0.2,0.2-0.3,0.4-0.3,0.6
					c0,0.2,0.1,0.5,0.3,0.6C266.5,127.4,266.7,127.5,266.9,127.5z"/>
			</g>
			<g>
				<path id="m4f23e9d928_00000054257987954613304910000013469175961114580906_" class="st3" d="M271,125.6c0.2,0,0.5-0.1,0.6-0.3
					c0.2-0.2,0.3-0.4,0.3-0.6c0-0.2-0.1-0.5-0.3-0.6c-0.2-0.2-0.4-0.3-0.6-0.3s-0.5,0.1-0.6,0.3c-0.2,0.2-0.3,0.4-0.3,0.6
					c0,0.2,0.1,0.5,0.3,0.6C270.6,125.5,270.8,125.6,271,125.6z"/>
			</g>
			<g>
				<path id="m4f23e9d928_00000013195491616241144780000010393932800773201329_" class="st3" d="M255.4,124.1c0.2,0,0.5-0.1,0.6-0.3
					c0.2-0.2,0.3-0.4,0.3-0.6c0-0.2-0.1-0.5-0.3-0.6c-0.2-0.2-0.4-0.3-0.6-0.3s-0.5,0.1-0.6,0.3c-0.2,0.2-0.3,0.4-0.3,0.6
					c0,0.2,0.1,0.5,0.3,0.6C255,124,255.2,124.1,255.4,124.1z"/>
			</g>
			<g>
				<path id="m4f23e9d928_00000060739265543699046970000016523209398542849192_" class="st3" d="M256.3,123.5c0.2,0,0.5-0.1,0.6-0.3
					c0.2-0.2,0.3-0.4,0.3-0.6s-0.1-0.5-0.3-0.6c-0.2-0.2-0.4-0.3-0.6-0.3s-0.5,0.1-0.6,0.3s-0.3,0.4-0.3,0.6s0.1,0.5,0.3,0.6
					C255.9,123.4,256.1,123.5,256.3,123.5z"/>
			</g>
			<g>
				<path id="m4f23e9d928_00000176766125400887779570000003752433373396648598_" class="st3" d="M258.1,126.2c0.2,0,0.5-0.1,0.6-0.3
					c0.2-0.2,0.3-0.4,0.3-0.6c0-0.2-0.1-0.5-0.3-0.6c-0.2-0.2-0.4-0.3-0.6-0.3c-0.2,0-0.5,0.1-0.6,0.3c-0.2,0.2-0.3,0.4-0.3,0.6
					c0,0.2,0.1,0.5,0.3,0.6C257.7,126.1,257.9,126.2,258.1,126.2z"/>
			</g>
			<g>
				<path id="m4f23e9d928_00000128461450400120546780000002251876003196498065_" class="st3" d="M262.2,126c0.2,0,0.5-0.1,0.6-0.3
					c0.2-0.2,0.3-0.4,0.3-0.6c0-0.2-0.1-0.5-0.3-0.6c-0.2-0.2-0.4-0.3-0.6-0.3s-0.5,0.1-0.6,0.3c-0.2,0.2-0.3,0.4-0.3,0.6
					c0,0.2,0.1,0.5,0.3,0.6C261.7,125.9,261.9,126,262.2,126z"/>
			</g>
			<g>
				<path id="m4f23e9d928_00000062909051709658320890000012772127870954208158_" class="st3" d="M268.3,127c0.2,0,0.5-0.1,0.6-0.3
					c0.2-0.2,0.3-0.4,0.3-0.6c0-0.2-0.1-0.5-0.3-0.6c-0.2-0.2-0.4-0.3-0.6-0.3s-0.5,0.1-0.6,0.3c-0.2,0.2-0.3,0.4-0.3,0.6
					c0,0.2,0.1,0.5,0.3,0.6C267.9,126.9,268.1,127,268.3,127z"/>
			</g>
			<g>
				<path id="m4f23e9d928_00000139253712055463335390000000271629743322785716_" class="st3" d="M273,124.7c0.2,0,0.5-0.1,0.6-0.3
					c0.2-0.2,0.3-0.4,0.3-0.6c0-0.2-0.1-0.5-0.3-0.6c-0.2-0.2-0.4-0.3-0.6-0.3s-0.5,0.1-0.6,0.3c-0.2,0.2-0.3,0.4-0.3,0.6
					c0,0.2,0.1,0.5,0.3,0.6C272.5,124.6,272.7,124.7,273,124.7z"/>
			</g>
			<g>
				<path id="m4f23e9d928_00000180357992467040357150000008501124368874007473_" class="st3" d="M276.3,119.5c0.2,0,0.5-0.1,0.6-0.3
					c0.2-0.2,0.3-0.4,0.3-0.6c0-0.2-0.1-0.5-0.3-0.6c-0.2-0.2-0.4-0.3-0.6-0.3s-0.5,0.1-0.6,0.3c-0.2,0.2-0.3,0.4-0.3,0.6
					c0,0.2,0.1,0.5,0.3,0.6C275.8,119.4,276.1,119.5,276.3,119.5z"/>
			</g>
		</g>
	</g>
</g>
<g id="matplotlib.axis_1">
	<g id="xtick_1">
		<g id="line2d_1">
			<g>
				<g>
					<path id="mdd728a4269" class="st4" d="M180.3,214.4v2.6"/>
				</g>
			</g>
		</g>
		<g id="text_1">
			<text transform="matrix(1 0 0 1 174.5951 224.2372)" class="st5 st6">0.0</text>
		</g>
	</g>
	<g id="xtick_3">
		<g id="line2d_3">
			<g>
				<g>
					<path id="mdd728a4269_00000177469563434663513680000005603666705719294881_" class="st4" d="M205.1,214.4v2.6"/>
				</g>
			</g>
		</g>
		<g id="text_3">
			<text transform="matrix(1 0 0 1 199.4091 224.2372)" class="st5 st6">0.1</text>
		</g>
	</g>
	<g id="xtick_5">
		<g id="line2d_5">
			<g>
				<g>
					<path id="mdd728a4269_00000096749964240613977500000001256495705565739693_" class="st4" d="M229.9,214.4v2.6"/>
				</g>
			</g>
		</g>
		<g id="text_5">
			<text transform="matrix(1 0 0 1 224.2225 224.2372)" class="st5 st6">0.2</text>
		</g>
	</g>
	<g id="xtick_7">
		<g id="line2d_7">
			<g>
				<g>
					<path id="mdd728a4269_00000085226150255527147250000002894924165099941051_" class="st4" d="M254.7,214.4v2.6"/>
				</g>
			</g>
		</g>
		<g id="text_7">
			<text transform="matrix(1 0 0 1 249.0365 224.2372)" class="st5 st6">0.3</text>
		</g>
	</g>
	<g id="xtick_9">
		<g id="line2d_9">
			<g>
				<g>
					<path id="mdd728a4269_00000091709493019506438520000011976289425450797241_" class="st4" d="M279.5,214.4v2.6"/>
				</g>
			</g>
		</g>
		<g id="text_9">
			<text transform="matrix(1 0 0 1 273.851 224.2372)" class="st5 st6">0.4</text>
		</g>
	</g>
	<g id="text_10">
		<text transform="matrix(1 0 0 1 187.1653 233.8628)" class="st7"><tspan x="0" y="0" class="st5 st6">True </tspan><tspan x="18.7" y="0" class="st8 st5 st6">Median</tspan><tspan x="44.9" y="0" class="st5 st6">/</tspan><tspan x="47.1" y="0" class="st9 st5 st6">Mean</tspan><tspan x="67.1" y="0" class="st5 st6"> FDR</tspan></text>
	</g>
</g>
<g id="ytick_1">
	<g id="line2d_10">
		<g>
			<g>
				<path id="m5c6de8f5b7" class="st4" d="M174.1,208.2h-2.5"/>
			</g>
		</g>
	</g>
	<g id="text_11">
		<text transform="matrix(1 0 0 1 158.9672 210.2381)" class="st5 st6">0.0</text>
	</g>
</g>
<g id="ytick_2">
	<g id="line2d_11">
		<g>
			<g>
				<path id="m5c6de8f5b7_00000157267237483151649310000014820311632959464582_" class="st10" d="M174.1,195.8"/>
			</g>
		</g>
	</g>
</g>
<g id="ytick_3">
	<g id="line2d_12">
		<g>
			<g>
				<path id="m5c6de8f5b7_00000033342123856144805900000005633669296111647633_" class="st4" d="M174.1,183.4h-2.5"/>
			</g>
		</g>
	</g>
	<g id="text_13">
		<text transform="matrix(1 0 0 1 158.9672 185.4237)" class="st5 st6">0.1</text>
	</g>
</g>
<g id="ytick_5">
	<g id="line2d_14">
		<g>
			<g>
				<path id="m5c6de8f5b7_00000025414217639392419970000015710921543342144661_" class="st4" d="M174.1,158.5h-2.5"/>
			</g>
		</g>
	</g>
	<g id="text_15">
		<text transform="matrix(1 0 0 1 158.9672 160.6102)" class="st5 st6">0.2</text>
	</g>
</g>
<g id="ytick_7">
	<g id="line2d_16">
		<g>
			<g>
				<path id="m5c6de8f5b7_00000149350987807140975350000008930265296504359598_" class="st4" d="M174.1,133.7h-2.5"/>
			</g>
		</g>
	</g>
	<g id="text_17">
		<text transform="matrix(1 0 0 1 158.9672 135.7967)" class="st5 st6">0.3</text>
	</g>
</g>
<g id="ytick_9">
	<g id="line2d_18">
		<g>
			<g>
				<path id="m5c6de8f5b7_00000030480867224530019120000007388060223264706750_" class="st4" d="M171.6,208.2"/>
				<path id="m5c6de8f5b7_00000122695843229951465520000009212385523534861995_" class="st4" d="M174.1,108.9h-2.5"/>
			</g>
		</g>
	</g>
	<g id="text_19">
		<text transform="matrix(1 0 0 1 158.9672 110.9823)" class="st5 st6">0.4</text>
	</g>
</g>
<g id="text_20">
	<text transform="matrix(6.123234e-17 -1 1 6.123234e-17 154.0474 210.1161)" class="st7"><tspan x="0" y="0" class="st5 st6">Predicted </tspan><tspan x="36" y="0" class="st8 st5 st6">Median</tspan><tspan x="62.3" y="0" class="st5 st6">/</tspan><tspan x="64.5" y="0" class="st9 st5 st6">Mean</tspan><tspan x="84.5" y="0" class="st5 st6"> FDR</tspan></text>
</g>
<g id="line2d_19">
	<g>
		<defs>
			<rect id="SVGID_00000028319206434756992950000010058419163974066850_" x="174.1" y="102.7" width="111.7" height="111.7"/>
		</defs>
		<clipPath id="SVGID_00000013889879070485837680000017866926346499079858_">
			<use xlink:href="#SVGID_00000028319206434756992950000010058419163974066850_"  style="overflow:visible;"/>
		</clipPath>
		
			<path style="opacity:0.5;clip-path:url(#SVGID_00000013889879070485837680000017866926346499079858_);fill:none;stroke:#000000;stroke-linecap:square;stroke-linejoin:round;stroke-dasharray:3.7,3;" d="
			M180.3,207.9l89.4-100.1"/>
	</g>
</g>
<g id="line2d_20">
	<g>
		<defs>
			<rect id="SVGID_00000133519497355727877180000010028725421135487114_" x="174.1" y="102.7" width="111.7" height="111.7"/>
		</defs>
		<clipPath id="SVGID_00000171717820743188128270000009347697597508599449_">
			<use xlink:href="#SVGID_00000133519497355727877180000010028725421135487114_"  style="overflow:visible;"/>
		</clipPath>
		
			<path style="opacity:0.5;clip-path:url(#SVGID_00000171717820743188128270000009347697597508599449_);fill:none;stroke:#000000;stroke-linecap:square;stroke-linejoin:round;stroke-dasharray:3.7,3;" d="
			M180.3,203l96.5-89.4"/>
	</g>
</g>
<g id="line2d_21">
	<g>
		<defs>
			<rect id="SVGID_00000111888704140023999210000013329106735036926858_" x="174.1" y="102.7" width="111.7" height="111.7"/>
		</defs>
		<clipPath id="SVGID_00000120538133861442810590000014397984570313278650_">
			<use xlink:href="#SVGID_00000111888704140023999210000013329106735036926858_"  style="overflow:visible;"/>
		</clipPath>
		
			<path style="clip-path:url(#SVGID_00000120538133861442810590000014397984570313278650_);fill:none;stroke:#FD0000;stroke-linejoin:round;" d="
			M174.1,214.4l111.7-111.7"/>
	</g>
</g>
<g id="patch_3">
	<path class="st14" d="M174.1,214.4V102.7"/>
</g>
<g id="patch_4">
	<path class="st14" d="M285.8,214.4V102.7"/>
</g>
<g id="patch_5">
	<path class="st14" d="M174.1,214.4h111.7"/>
</g>
<g id="patch_6">
	<path class="st14" d="M174.1,102.7h111.7"/>
</g>
<text transform="matrix(1 0 0 1 233.8755 197.9599)" class="st8 st5 st6">RMSE = 0.03</text>
<text transform="matrix(1 0 0 1 233.8752 208.366)" class="st9 st5 st6">RMSE = 0.02</text>
<text transform="matrix(1 0 0 1 178.4267 113.9333)"><tspan x="0" y="0" class="st5 st6">t = 10 min</tspan><tspan x="35.4" y="0" class="st15 st6"> </tspan><tspan x="0" y="11" class="st5 st6">   1,000 clusters </tspan><tspan x="0" y="22" class="st5 st6">   </tspan></text>
<path id="m2d98770ce5_00000041288668202990224590000004532867874108398235_" d="M180.3,124.3c0.5,0,0.9-0.2,1.2-0.5s0.5-0.8,0.5-1.2
	s-0.2-0.9-0.5-1.2s-0.8-0.5-1.2-0.5s-0.9,0.2-1.2,0.5s-0.5,0.8-0.5,1.2s0.2,0.9,0.5,1.2S179.9,124.3,180.3,124.3z"/>
<path class="st4" d="M279.5,217"/>
<path class="st4" d="M180.3,217"/>
</svg>
