<?xml version="1.0" encoding="utf-8"?>
<!-- Generator: Adobe Illustrator 27.5.0, SVG Export Plug-In . SVG Version: 6.00 Build 0)  -->
<svg version="1.1" id="Layer_1" xmlns="http://www.w3.org/2000/svg" xmlns:xlink="http://www.w3.org/1999/xlink" x="0px" y="0px"
	 viewBox="0 0 460.8 345.6" style="enable-background:new 0 0 460.8 345.6;" xml:space="preserve">
<style type="text/css">
	.st0{clip-path:url(#SVGID_00000143577489764728146550000012951471488228774028_);}
	.st1{fill:#0000FF;stroke:#0000FF;stroke-linejoin:round;}
	.st2{stroke:#000000;stroke-width:0.8;stroke-linejoin:round;}
	.st3{font-family:'LucidaBright';}
	.st4{font-size:14px;}
	.st5{font-size:9px;}
	
		.st6{clip-path:url(#SVGID_00000165925213574029601880000013670173882929299587_);fill:none;stroke:#000000;stroke-width:2;stroke-linecap:square;stroke-linejoin:round;}
	
		.st7{clip-path:url(#SVGID_00000098202274678692875860000015481038216611890076_);fill:none;stroke:#000000;stroke-width:1.5;stroke-linejoin:round;stroke-dasharray:5.55,2.4;}
	.st8{fill:none;stroke:#000000;stroke-width:0.8;stroke-linecap:square;}
</style>
<g id="PathCollection_1">
	<g>
		<defs>
			<rect id="SVGID_1_" x="105" y="15.1" width="286.7" height="286.7"/>
		</defs>
		<clipPath id="SVGID_00000011025406206163576880000010586616542038369455_">
			<use xlink:href="#SVGID_1_"  style="overflow:visible;"/>
		</clipPath>
		<g style="clip-path:url(#SVGID_00000011025406206163576880000010586616542038369455_);">
			<g>
				<path id="m7cb6c4b044" class="st1" d="M130.1,279.2c0.6,0,1.2-0.2,1.6-0.7c0.4-0.4,0.7-1,0.7-1.6c0-0.6-0.2-1.2-0.7-1.6
					c-0.4-0.4-1-0.7-1.6-0.7s-1.2,0.2-1.6,0.7c-0.4,0.4-0.7,1-0.7,1.6c0,0.6,0.2,1.2,0.7,1.6C128.9,279,129.5,279.2,130.1,279.2z"/>
			</g>
			<g>
				<path id="m7cb6c4b044_00000041997040454209434100000013490062410477107879_" class="st1" d="M135.1,274.4c0.6,0,1.2-0.2,1.6-0.7
					c0.4-0.4,0.7-1,0.7-1.6c0-0.6-0.2-1.2-0.7-1.6c-0.4-0.4-1-0.7-1.6-0.7s-1.2,0.2-1.6,0.7c-0.4,0.4-0.7,1-0.7,1.6
					c0,0.6,0.2,1.2,0.7,1.6C133.9,274.2,134.5,274.4,135.1,274.4z"/>
			</g>
			<g>
				<path id="m7cb6c4b044_00000000181484080912412190000004256351637260901551_" class="st1" d="M152,255.4c0.6,0,1.2-0.2,1.6-0.7
					c0.4-0.4,0.7-1,0.7-1.6s-0.2-1.2-0.7-1.6c-0.4-0.4-1-0.7-1.6-0.7s-1.2,0.2-1.6,0.7c-0.4,0.4-0.7,1-0.7,1.6s0.2,1.2,0.7,1.6
					C150.8,255.2,151.4,255.4,152,255.4z"/>
			</g>
			<g>
				<path id="m7cb6c4b044_00000101788075083352925990000018019980615786567591_" class="st1" d="M179.5,232.7c0.6,0,1.2-0.2,1.6-0.7
					c0.4-0.4,0.7-1,0.7-1.6s-0.2-1.2-0.7-1.6c-0.4-0.4-1-0.7-1.6-0.7s-1.2,0.2-1.6,0.7c-0.4,0.4-0.7,1-0.7,1.6s0.2,1.2,0.7,1.6
					C178.3,232.4,178.9,232.7,179.5,232.7z"/>
			</g>
			<g>
				<path id="m7cb6c4b044_00000152949417024761733470000007419553415410382260_" class="st1" d="M223.5,189.9c0.6,0,1.2-0.2,1.6-0.7
					c0.4-0.4,0.7-1,0.7-1.6s-0.2-1.2-0.7-1.6c-0.4-0.4-1-0.7-1.6-0.7s-1.2,0.2-1.6,0.7c-0.4,0.4-0.7,1-0.7,1.6s0.2,1.2,0.7,1.6
					C222.3,189.7,222.9,189.9,223.5,189.9z"/>
			</g>
			<g>
				<path id="m7cb6c4b044_00000122700681353728374040000007446399539475339193_" class="st1" d="M247,175.6c0.6,0,1.2-0.2,1.6-0.7
					c0.4-0.4,0.7-1,0.7-1.6s-0.2-1.2-0.7-1.6c-0.4-0.4-1-0.7-1.6-0.7s-1.2,0.2-1.6,0.7c-0.4,0.4-0.7,1-0.7,1.6s0.2,1.2,0.7,1.6
					C245.8,175.4,246.4,175.6,247,175.6z"/>
			</g>
			<g>
				<path id="m7cb6c4b044_00000060721141351775338400000015713685841410946480_" class="st1" d="M263.3,159.7c0.6,0,1.2-0.2,1.6-0.7
					c0.4-0.4,0.7-1,0.7-1.6s-0.2-1.2-0.7-1.6c-0.4-0.4-1-0.7-1.6-0.7s-1.2,0.2-1.6,0.7c-0.4,0.4-0.7,1-0.7,1.6s0.2,1.2,0.7,1.6
					C262.2,159.5,262.7,159.7,263.3,159.7z"/>
			</g>
			<g>
				<path id="m7cb6c4b044_00000116203024821270962190000002364876803826756249_" class="st1" d="M135.2,274.1c0.6,0,1.2-0.2,1.6-0.7
					c0.4-0.4,0.7-1,0.7-1.6c0-0.6-0.2-1.2-0.7-1.6c-0.4-0.4-1-0.7-1.6-0.7s-1.2,0.2-1.6,0.7c-0.4,0.4-0.7,1-0.7,1.6
					c0,0.6,0.2,1.2,0.7,1.6C134,273.9,134.6,274.1,135.2,274.1z"/>
			</g>
			<g>
				<path id="m7cb6c4b044_00000098196298633730404630000008842669690968021651_" class="st1" d="M138.8,272.4c0.6,0,1.2-0.2,1.6-0.7
					c0.4-0.4,0.7-1,0.7-1.6c0-0.6-0.2-1.2-0.7-1.6c-0.4-0.4-1-0.7-1.6-0.7s-1.2,0.2-1.6,0.7c-0.4,0.4-0.7,1-0.7,1.6
					c0,0.6,0.2,1.2,0.7,1.6C137.6,272.1,138.2,272.4,138.8,272.4z"/>
			</g>
			<g>
				<path id="m7cb6c4b044_00000080207023399969973260000013683842901483532929_" class="st1" d="M153.8,256.1c0.6,0,1.2-0.2,1.6-0.7
					c0.4-0.4,0.7-1,0.7-1.6s-0.2-1.2-0.7-1.6c-0.4-0.4-1-0.7-1.6-0.7s-1.2,0.2-1.6,0.7c-0.4,0.4-0.7,1-0.7,1.6s0.2,1.2,0.7,1.6
					C152.6,255.9,153.2,256.1,153.8,256.1z"/>
			</g>
			<g>
				<path id="m7cb6c4b044_00000026132280529199719380000016273323956852456360_" class="st1" d="M179.9,234.9c0.6,0,1.2-0.2,1.6-0.7
					c0.4-0.4,0.7-1,0.7-1.6s-0.2-1.2-0.7-1.6c-0.4-0.4-1-0.7-1.6-0.7s-1.2,0.2-1.6,0.7c-0.4,0.4-0.7,1-0.7,1.6s0.2,1.2,0.7,1.6
					C178.7,234.7,179.3,234.9,179.9,234.9z"/>
			</g>
			<g>
				<path id="m7cb6c4b044_00000064316103555909087960000011274947735554059961_" class="st1" d="M226.7,191.6c0.6,0,1.2-0.2,1.6-0.7
					c0.4-0.4,0.7-1,0.7-1.6s-0.2-1.2-0.7-1.6c-0.4-0.4-1-0.7-1.6-0.7s-1.2,0.2-1.6,0.7c-0.4,0.4-0.7,1-0.7,1.6s0.2,1.2,0.7,1.6
					C225.5,191.4,226.1,191.6,226.7,191.6z"/>
			</g>
			<g>
				<path id="m7cb6c4b044_00000168826238694567955290000001321904701580207534_" class="st1" d="M246.6,181c0.6,0,1.2-0.2,1.6-0.7
					c0.4-0.4,0.7-1,0.7-1.6s-0.2-1.2-0.7-1.6c-0.4-0.4-1-0.7-1.6-0.7s-1.2,0.2-1.6,0.7c-0.4,0.4-0.7,1-0.7,1.6s0.2,1.2,0.7,1.6
					C245.5,180.8,246,181,246.6,181z"/>
			</g>
			<g>
				<path id="m7cb6c4b044_00000009566544824646408320000002192810962846975890_" class="st1" d="M266.7,156.6c0.6,0,1.2-0.2,1.6-0.7
					c0.4-0.4,0.7-1,0.7-1.6s-0.2-1.2-0.7-1.6c-0.4-0.4-1-0.7-1.6-0.7s-1.2,0.2-1.6,0.7c-0.4,0.4-0.7,1-0.7,1.6s0.2,1.2,0.7,1.6
					C265.5,156.3,266.1,156.6,266.7,156.6z"/>
			</g>
			<g>
				<path id="m7cb6c4b044_00000183215449722737850270000015383801754243983757_" class="st1" d="M153.4,257c0.6,0,1.2-0.2,1.6-0.7
					c0.4-0.4,0.7-1,0.7-1.6s-0.2-1.2-0.7-1.6c-0.4-0.4-1-0.7-1.6-0.7s-1.2,0.2-1.6,0.7c-0.4,0.4-0.7,1-0.7,1.6s0.2,1.2,0.7,1.6
					C152.2,256.7,152.8,257,153.4,257z"/>
			</g>
			<g>
				<path id="m7cb6c4b044_00000020385953043630114420000013477960971107059080_" class="st1" d="M154.9,254.8c0.6,0,1.2-0.2,1.6-0.7
					c0.4-0.4,0.7-1,0.7-1.6s-0.2-1.2-0.7-1.6c-0.4-0.4-1-0.7-1.6-0.7s-1.2,0.2-1.6,0.7c-0.4,0.4-0.7,1-0.7,1.6s0.2,1.2,0.7,1.6
					C153.7,254.6,154.3,254.8,154.9,254.8z"/>
			</g>
			<g>
				<path id="m7cb6c4b044_00000150789048707516574520000007556040000031908747_" class="st1" d="M164.7,247.2c0.6,0,1.2-0.2,1.6-0.7
					c0.4-0.4,0.7-1,0.7-1.6s-0.2-1.2-0.7-1.6c-0.4-0.4-1-0.7-1.6-0.7s-1.2,0.2-1.6,0.7c-0.4,0.4-0.7,1-0.7,1.6s0.2,1.2,0.7,1.6
					C163.6,247,164.1,247.2,164.7,247.2z"/>
			</g>
			<g>
				<path id="m7cb6c4b044_00000008827559817371080760000004732100061921221276_" class="st1" d="M186.6,223.8c0.6,0,1.2-0.2,1.6-0.7
					c0.4-0.4,0.7-1,0.7-1.6s-0.2-1.2-0.7-1.6c-0.4-0.4-1-0.7-1.6-0.7s-1.2,0.2-1.6,0.7c-0.4,0.4-0.7,1-0.7,1.6s0.2,1.2,0.7,1.6
					C185.4,223.5,186,223.8,186.6,223.8z"/>
			</g>
			<g>
				<path id="m7cb6c4b044_00000043427284205892368630000012015788441043607975_" class="st1" d="M231.6,187c0.6,0,1.2-0.2,1.6-0.7
					c0.4-0.4,0.7-1,0.7-1.6s-0.2-1.2-0.7-1.6c-0.4-0.4-1-0.7-1.6-0.7s-1.2,0.2-1.6,0.7c-0.4,0.4-0.7,1-0.7,1.6s0.2,1.2,0.7,1.6
					C230.5,186.7,231,187,231.6,187z"/>
			</g>
			<g>
				<path id="m7cb6c4b044_00000089553207117191279500000002740454528767929997_" class="st1" d="M252.1,168.5c0.6,0,1.2-0.2,1.6-0.7
					c0.4-0.4,0.7-1,0.7-1.6s-0.2-1.2-0.7-1.6c-0.4-0.4-1-0.7-1.6-0.7s-1.2,0.2-1.6,0.7c-0.4,0.4-0.7,1-0.7,1.6s0.2,1.2,0.7,1.6
					C251,168.2,251.5,168.5,252.1,168.5z"/>
			</g>
			<g>
				<path id="m7cb6c4b044_00000023981542339365158480000013551246251352412347_" class="st1" d="M269.4,157.4c0.6,0,1.2-0.2,1.6-0.7
					c0.4-0.4,0.7-1,0.7-1.6s-0.2-1.2-0.7-1.6c-0.4-0.4-1-0.7-1.6-0.7s-1.2,0.2-1.6,0.7c-0.4,0.4-0.7,1-0.7,1.6s0.2,1.2,0.7,1.6
					C268.3,157.2,268.8,157.4,269.4,157.4z"/>
			</g>
			<g>
				<path id="m7cb6c4b044_00000106129874353203185820000006955643600836870329_" class="st1" d="M184.8,227c0.6,0,1.2-0.2,1.6-0.7
					c0.4-0.4,0.7-1,0.7-1.6s-0.2-1.2-0.7-1.6c-0.4-0.4-1-0.7-1.6-0.7s-1.2,0.2-1.6,0.7c-0.4,0.4-0.7,1-0.7,1.6s0.2,1.2,0.7,1.6
					C183.6,226.8,184.2,227,184.8,227z"/>
			</g>
			<g>
				<path id="m7cb6c4b044_00000051348906793907522480000007690968024510025914_" class="st1" d="M185.9,225.7c0.6,0,1.2-0.2,1.6-0.7
					c0.4-0.4,0.7-1,0.7-1.6s-0.2-1.2-0.7-1.6c-0.4-0.4-1-0.7-1.6-0.7s-1.2,0.2-1.6,0.7c-0.4,0.4-0.7,1-0.7,1.6s0.2,1.2,0.7,1.6
					C184.7,225.5,185.3,225.7,185.9,225.7z"/>
			</g>
			<g>
				<path id="m7cb6c4b044_00000135669944422255080750000011061319431027128972_" class="st1" d="M191.5,219.9c0.6,0,1.2-0.2,1.6-0.7
					c0.4-0.4,0.7-1,0.7-1.6s-0.2-1.2-0.7-1.6c-0.4-0.4-1-0.7-1.6-0.7s-1.2,0.2-1.6,0.7c-0.4,0.4-0.7,1-0.7,1.6s0.2,1.2,0.7,1.6
					C190.3,219.7,190.9,219.9,191.5,219.9z"/>
			</g>
			<g>
				<path id="m7cb6c4b044_00000114061956425853160470000005313882005351450245_" class="st1" d="M206.8,207.3c0.6,0,1.2-0.2,1.6-0.7
					c0.4-0.4,0.7-1,0.7-1.6s-0.2-1.2-0.7-1.6c-0.4-0.4-1-0.7-1.6-0.7s-1.2,0.2-1.6,0.7c-0.4,0.4-0.7,1-0.7,1.6s0.2,1.2,0.7,1.6
					C205.6,207.1,206.2,207.3,206.8,207.3z"/>
			</g>
			<g>
				<path id="m7cb6c4b044_00000035507921780428440840000003305197253425943977_" class="st1" d="M247,176.6c0.6,0,1.2-0.2,1.6-0.7
					c0.4-0.4,0.7-1,0.7-1.6s-0.2-1.2-0.7-1.6c-0.4-0.4-1-0.7-1.6-0.7s-1.2,0.2-1.6,0.7c-0.4,0.4-0.7,1-0.7,1.6s0.2,1.2,0.7,1.6
					C245.9,176.3,246.4,176.6,247,176.6z"/>
			</g>
			<g>
				<path id="m7cb6c4b044_00000039838193179773073690000012359965712290860452_" class="st1" d="M262.7,155.7c0.6,0,1.2-0.2,1.6-0.7
					c0.4-0.4,0.7-1,0.7-1.6s-0.2-1.2-0.7-1.6c-0.4-0.4-1-0.7-1.6-0.7s-1.2,0.2-1.6,0.7c-0.4,0.4-0.7,1-0.7,1.6s0.2,1.2,0.7,1.6
					C261.5,155.4,262.1,155.7,262.7,155.7z"/>
			</g>
			<g>
				<path id="m7cb6c4b044_00000129167807879353255260000013112584436738191292_" class="st1" d="M280.9,143.6c0.6,0,1.2-0.2,1.6-0.7
					c0.4-0.4,0.7-1,0.7-1.6s-0.2-1.2-0.7-1.6c-0.4-0.4-1-0.7-1.6-0.7s-1.2,0.2-1.6,0.7c-0.4,0.4-0.7,1-0.7,1.6s0.2,1.2,0.7,1.6
					C279.7,143.4,280.3,143.6,280.9,143.6z"/>
			</g>
			<g>
				<path id="m7cb6c4b044_00000070815266031352849940000011893008991410952088_" class="st1" d="M248.6,166.7c0.6,0,1.2-0.2,1.6-0.7
					c0.4-0.4,0.7-1,0.7-1.6s-0.2-1.2-0.7-1.6c-0.4-0.4-1-0.7-1.6-0.7s-1.2,0.2-1.6,0.7c-0.4,0.4-0.7,1-0.7,1.6s0.2,1.2,0.7,1.6
					C247.4,166.5,248,166.7,248.6,166.7z"/>
			</g>
			<g>
				<path id="m7cb6c4b044_00000012467240018985339490000018353797828398346674_" class="st1" d="M248.8,163.4c0.6,0,1.2-0.2,1.6-0.7
					c0.4-0.4,0.7-1,0.7-1.6s-0.2-1.2-0.7-1.6c-0.4-0.4-1-0.7-1.6-0.7s-1.2,0.2-1.6,0.7c-0.4,0.4-0.7,1-0.7,1.6s0.2,1.2,0.7,1.6
					C247.6,163.2,248.2,163.4,248.8,163.4z"/>
			</g>
			<g>
				<path id="m7cb6c4b044_00000151529755729561816180000016659191645360356017_" class="st1" d="M251.2,167.1c0.6,0,1.2-0.2,1.6-0.7
					c0.4-0.4,0.7-1,0.7-1.6s-0.2-1.2-0.7-1.6c-0.4-0.4-1-0.7-1.6-0.7s-1.2,0.2-1.6,0.7c-0.4,0.4-0.7,1-0.7,1.6s0.2,1.2,0.7,1.6
					C250.1,166.9,250.6,167.1,251.2,167.1z"/>
			</g>
			<g>
				<path id="m7cb6c4b044_00000091726857565890580240000009025142324278932913_" class="st1" d="M260.8,163.2c0.6,0,1.2-0.2,1.6-0.7
					c0.4-0.4,0.7-1,0.7-1.6s-0.2-1.2-0.7-1.6c-0.4-0.4-1-0.7-1.6-0.7s-1.2,0.2-1.6,0.7c-0.4,0.4-0.7,1-0.7,1.6s0.2,1.2,0.7,1.6
					C259.7,163,260.2,163.2,260.8,163.2z"/>
			</g>
			<g>
				<path id="m7cb6c4b044_00000022548110047031735660000015552195576212148903_" class="st1" d="M283.2,140c0.6,0,1.2-0.2,1.6-0.7
					c0.4-0.4,0.7-1,0.7-1.6s-0.2-1.2-0.7-1.6c-0.4-0.4-1-0.7-1.6-0.7s-1.2,0.2-1.6,0.7c-0.4,0.4-0.7,1-0.7,1.6s0.2,1.2,0.7,1.6
					C282,139.8,282.6,140,283.2,140z"/>
			</g>
			<g>
				<path id="m7cb6c4b044_00000142172662596129215220000015014607067268273817_" class="st1" d="M293.1,137.2c0.6,0,1.2-0.2,1.6-0.7
					c0.4-0.4,0.7-1,0.7-1.6s-0.2-1.2-0.7-1.6c-0.4-0.4-1-0.7-1.6-0.7s-1.2,0.2-1.6,0.7c-0.4,0.4-0.7,1-0.7,1.6s0.2,1.2,0.7,1.6
					C292,136.9,292.5,137.2,293.1,137.2z"/>
			</g>
			<g>
				<path id="m7cb6c4b044_00000071527145861114138550000004731793263958836099_" class="st1" d="M312.1,135c0.6,0,1.2-0.2,1.6-0.7
					c0.4-0.4,0.7-1,0.7-1.6s-0.2-1.2-0.7-1.6c-0.4-0.4-1-0.7-1.6-0.7s-1.2,0.2-1.6,0.7c-0.4,0.4-0.7,1-0.7,1.6s0.2,1.2,0.7,1.6
					C310.9,134.7,311.5,135,312.1,135z"/>
			</g>
			<g>
				<path id="m7cb6c4b044_00000078751925086353581000000017920456800816305814_" class="st1" d="M280.3,134.5c0.6,0,1.2-0.2,1.6-0.7
					c0.4-0.4,0.7-1,0.7-1.6s-0.2-1.2-0.7-1.6c-0.4-0.4-1-0.7-1.6-0.7s-1.2,0.2-1.6,0.7c-0.4,0.4-0.7,1-0.7,1.6s0.2,1.2,0.7,1.6
					C279.2,134.3,279.7,134.5,280.3,134.5z"/>
			</g>
			<g>
				<path id="m7cb6c4b044_00000062878008365644496010000018222671552277739453_" class="st1" d="M280.1,134.2c0.6,0,1.2-0.2,1.6-0.7
					c0.4-0.4,0.7-1,0.7-1.6s-0.2-1.2-0.7-1.6c-0.4-0.4-1-0.7-1.6-0.7s-1.2,0.2-1.6,0.7c-0.4,0.4-0.7,1-0.7,1.6s0.2,1.2,0.7,1.6
					C278.9,134,279.5,134.2,280.1,134.2z"/>
			</g>
			<g>
				<path id="m7cb6c4b044_00000125591734938322779730000006820224689530297777_" class="st1" d="M282.4,133c0.6,0,1.2-0.2,1.6-0.7
					c0.4-0.4,0.7-1,0.7-1.6s-0.2-1.2-0.7-1.6c-0.4-0.4-1-0.7-1.6-0.7s-1.2,0.2-1.6,0.7c-0.4,0.4-0.7,1-0.7,1.6s0.2,1.2,0.7,1.6
					C281.2,132.7,281.8,133,282.4,133z"/>
			</g>
			<g>
				<path id="m7cb6c4b044_00000009574914199819237280000013560571309513323657_" class="st1" d="M288.6,131.1c0.6,0,1.2-0.2,1.6-0.7
					c0.4-0.4,0.7-1,0.7-1.6s-0.2-1.2-0.7-1.6c-0.4-0.4-1-0.7-1.6-0.7s-1.2,0.2-1.6,0.7c-0.4,0.4-0.7,1-0.7,1.6s0.2,1.2,0.7,1.6
					C287.5,130.9,288.1,131.1,288.6,131.1z"/>
			</g>
			<g>
				<path id="m7cb6c4b044_00000131329836529715360740000016503661774537670331_" class="st1" d="M307.5,124.6c0.6,0,1.2-0.2,1.6-0.7
					c0.4-0.4,0.7-1,0.7-1.6s-0.2-1.2-0.7-1.6c-0.4-0.4-1-0.7-1.6-0.7s-1.2,0.2-1.6,0.7c-0.4,0.4-0.7,1-0.7,1.6s0.2,1.2,0.7,1.6
					C306.4,124.4,306.9,124.6,307.5,124.6z"/>
			</g>
			<g>
				<path id="m7cb6c4b044_00000141438447097289660150000012377075110687783083_" class="st1" d="M315.6,118.5c0.6,0,1.2-0.2,1.6-0.7
					c0.4-0.4,0.7-1,0.7-1.6s-0.2-1.2-0.7-1.6c-0.4-0.4-1-0.7-1.6-0.7s-1.2,0.2-1.6,0.7c-0.4,0.4-0.7,1-0.7,1.6s0.2,1.2,0.7,1.6
					C314.5,118.3,315,118.5,315.6,118.5z"/>
			</g>
			<g>
				<path id="m7cb6c4b044_00000121261173953364170770000013319104170204373179_" class="st1" d="M326.9,112.7c0.6,0,1.2-0.2,1.6-0.7
					c0.4-0.4,0.7-1,0.7-1.6s-0.2-1.2-0.7-1.6c-0.4-0.4-1-0.7-1.6-0.7s-1.2,0.2-1.6,0.7c-0.4,0.4-0.7,1-0.7,1.6s0.2,1.2,0.7,1.6
					C325.8,112.4,326.3,112.7,326.9,112.7z"/>
			</g>
			<g>
				<path id="m7cb6c4b044_00000064324236006094224370000004153994451325057959_" class="st1" d="M312.2,103.3c0.6,0,1.2-0.2,1.6-0.7
					c0.4-0.4,0.7-1,0.7-1.6s-0.2-1.2-0.7-1.6c-0.4-0.4-1-0.7-1.6-0.7s-1.2,0.2-1.6,0.7c-0.4,0.4-0.7,1-0.7,1.6s0.2,1.2,0.7,1.6
					C311.1,103.1,311.6,103.3,312.2,103.3z"/>
			</g>
			<g>
				<path id="m7cb6c4b044_00000026164458723779010640000016339878395407702975_" class="st1" d="M312.3,107.5c0.6,0,1.2-0.2,1.6-0.7
					c0.4-0.4,0.7-1,0.7-1.6s-0.2-1.2-0.7-1.6c-0.4-0.4-1-0.7-1.6-0.7s-1.2,0.2-1.6,0.7c-0.4,0.4-0.7,1-0.7,1.6s0.2,1.2,0.7,1.6
					C311.1,107.3,311.7,107.5,312.3,107.5z"/>
			</g>
			<g>
				<path id="m7cb6c4b044_00000088811573049360734520000003885984363326545554_" class="st1" d="M314.1,104.8c0.6,0,1.2-0.2,1.6-0.7
					c0.4-0.4,0.7-1,0.7-1.6s-0.2-1.2-0.7-1.6c-0.4-0.4-1-0.7-1.6-0.7s-1.2,0.2-1.6,0.7c-0.4,0.4-0.7,1-0.7,1.6s0.2,1.2,0.7,1.6
					C312.9,104.6,313.5,104.8,314.1,104.8z"/>
			</g>
			<g>
				<path id="m7cb6c4b044_00000047777193174860021840000005195351313069676460_" class="st1" d="M317.8,107.3c0.6,0,1.2-0.2,1.6-0.7
					c0.4-0.4,0.7-1,0.7-1.6s-0.2-1.2-0.7-1.6c-0.4-0.4-1-0.7-1.6-0.7s-1.2,0.2-1.6,0.7c-0.4,0.4-0.7,1-0.7,1.6s0.2,1.2,0.7,1.6
					C316.6,107.1,317.2,107.3,317.8,107.3z"/>
			</g>
			<g>
				<path id="m7cb6c4b044_00000098910283958868843530000015777189249988530878_" class="st1" d="M334,90c0.6,0,1.2-0.2,1.6-0.7
					c0.4-0.4,0.7-1,0.7-1.6s-0.2-1.2-0.7-1.6c-0.4-0.4-1-0.7-1.6-0.7s-1.2,0.2-1.6,0.7c-0.4,0.4-0.7,1-0.7,1.6s0.2,1.2,0.7,1.6
					C332.8,89.7,333.4,90,334,90z"/>
			</g>
			<g>
				<path id="m7cb6c4b044_00000001660452603122659670000017161935347469964478_" class="st1" d="M341.1,102.2c0.6,0,1.2-0.2,1.6-0.7
					c0.4-0.4,0.7-1,0.7-1.6s-0.2-1.2-0.7-1.6c-0.4-0.4-1-0.7-1.6-0.7s-1.2,0.2-1.6,0.7c-0.4,0.4-0.7,1-0.7,1.6s0.2,1.2,0.7,1.6
					C340,102,340.5,102.2,341.1,102.2z"/>
			</g>
			<g>
				<path id="m7cb6c4b044_00000165229016486730084990000011490645419112555394_" class="st1" d="M350.1,94.1c0.6,0,1.2-0.2,1.6-0.7
					c0.4-0.4,0.7-1,0.7-1.6s-0.2-1.2-0.7-1.6c-0.4-0.4-1-0.7-1.6-0.7s-1.2,0.2-1.6,0.7c-0.4,0.4-0.7,1-0.7,1.6s0.2,1.2,0.7,1.6
					C348.9,93.9,349.5,94.1,350.1,94.1z"/>
			</g>
		</g>
	</g>
</g>
<g id="matplotlib.axis_1">
	<g id="xtick_1">
		<g id="line2d_1">
			<g>
				<g>
					<path id="m9eea84cda5" class="st2" d="M121,301.8v3.5"/>
				</g>
			</g>
		</g>
		<g id="text_1">
			<text transform="matrix(1 0 0 1 106.3241 319.4778)" class="st3 st4">0.00</text>
		</g>
	</g>
	<g id="xtick_2">
		<g id="line2d_2">
			<g>
				<g>
					<path id="m9eea84cda5_00000114058661341054007160000008231751745071815093_" class="st2" d="M152.8,301.8v3.5"/>
				</g>
			</g>
		</g>
		<g id="text_2">
			<text transform="matrix(1 0 0 1 138.1818 319.4778)" class="st3 st4">0.05</text>
		</g>
	</g>
	<g id="xtick_3">
		<g id="line2d_3">
			<g>
				<g>
					<path id="m9eea84cda5_00000134227898005881345150000011418885286032040868_" class="st2" d="M184.7,301.8v3.5"/>
				</g>
			</g>
		</g>
		<g id="text_3">
			<text transform="matrix(1 0 0 1 170.0396 319.4778)" class="st3 st4">0.10</text>
		</g>
	</g>
	<g id="xtick_4">
		<g id="line2d_4">
			<g>
				<g>
					<path id="m9eea84cda5_00000118365947265553228370000009979208828172827299_" class="st2" d="M216.5,301.8v3.5"/>
				</g>
			</g>
		</g>
		<g id="text_4">
			<text transform="matrix(1 0 0 1 201.8974 319.4778)" class="st3 st4">0.15</text>
		</g>
	</g>
	<g id="xtick_5">
		<g id="line2d_5">
			<g>
				<g>
					<path id="m9eea84cda5_00000042003403147061472960000017639099475834231437_" class="st2" d="M248.4,301.8v3.5"/>
				</g>
			</g>
		</g>
		<g id="text_5">
			<text transform="matrix(1 0 0 1 233.7552 319.4778)" class="st3 st4">0.20</text>
		</g>
	</g>
	<g id="xtick_6">
		<g id="line2d_6">
			<g>
				<g>
					<path id="m9eea84cda5_00000032607492124256934380000018076509111914437778_" class="st2" d="M280.2,301.8v3.5"/>
				</g>
			</g>
		</g>
		<g id="text_6">
			<text transform="matrix(1 0 0 1 265.6129 319.4778)" class="st3 st4">0.25</text>
		</g>
	</g>
	<g id="xtick_7">
		<g id="line2d_7">
			<g>
				<g>
					<path id="m9eea84cda5_00000166635227440131980270000004862233277389775549_" class="st2" d="M312.1,301.8v3.5"/>
				</g>
			</g>
		</g>
		<g id="text_7">
			<text transform="matrix(1 0 0 1 297.4707 319.4778)" class="st3 st4">0.30</text>
		</g>
	</g>
	<g id="xtick_8">
		<g id="line2d_8">
			<g>
				<g>
					<path id="m9eea84cda5_00000112622916237868065830000013711190890160512143_" class="st2" d="M344,301.8v3.5"/>
				</g>
			</g>
		</g>
		<g id="text_8">
			<text transform="matrix(1 0 0 1 329.3285 319.4778)" class="st3 st4">0.35</text>
		</g>
	</g>
	<g id="xtick_9">
		<g id="line2d_9">
			<g>
				<g>
					<path id="m9eea84cda5_00000023992290287735660900000004224804305497850253_" class="st2" d="M375.8,301.8v3.5"/>
				</g>
			</g>
		</g>
		<g id="text_9">
			<text transform="matrix(1 0 0 1 361.1863 319.4778)" class="st3 st4">0.40</text>
		</g>
	</g>
	<g id="text_10">
		<text transform="matrix(1 0 0 1 210.6671 333.228)" class="st3 st5">True Median FDR</text>
	</g>
</g>
<g id="matplotlib.axis_2">
	<g id="ytick_1">
		<g id="line2d_10">
			<g>
				<g>
					<path id="m67f74b544b" class="st2" d="M105,285.9h-3.5"/>
				</g>
			</g>
		</g>
		<g id="text_11">
			<text transform="matrix(1 0 0 1 68.7628 291.23)" class="st3 st4">0.00</text>
		</g>
	</g>
	<g id="ytick_2">
		<g id="line2d_11">
			<g>
				<g>
					<path id="m67f74b544b_00000018953138488404009720000015221189920684872579_" class="st2" d="M105,254.1h-3.5"/>
				</g>
			</g>
		</g>
		<g id="text_12">
			<text transform="matrix(1 0 0 1 68.7628 259.3723)" class="st3 st4">0.05</text>
		</g>
	</g>
	<g id="ytick_3">
		<g id="line2d_12">
			<g>
				<g>
					<path id="m67f74b544b_00000130644270277351881500000004802939816329330338_" class="st2" d="M105,222.2h-3.5"/>
				</g>
			</g>
		</g>
		<g id="text_13">
			<text transform="matrix(1 0 0 1 68.7628 227.5145)" class="st3 st4">0.10</text>
		</g>
	</g>
	<g id="ytick_4">
		<g id="line2d_13">
			<g>
				<g>
					<path id="m67f74b544b_00000167355543714306667920000004620028869036554903_" class="st2" d="M105,190.3h-3.5"/>
				</g>
			</g>
		</g>
		<g id="text_14">
			<text transform="matrix(1 0 0 1 68.7628 195.6567)" class="st3 st4">0.15</text>
		</g>
	</g>
	<g id="ytick_5">
		<g id="line2d_14">
			<g>
				<g>
					<path id="m67f74b544b_00000144332726216615889910000012506732830215438778_" class="st2" d="M105,158.5h-3.5"/>
				</g>
			</g>
		</g>
		<g id="text_15">
			<text transform="matrix(1 0 0 1 68.7628 163.799)" class="st3 st4">0.20</text>
		</g>
	</g>
	<g id="ytick_6">
		<g id="line2d_15">
			<g>
				<g>
					<path id="m67f74b544b_00000067939332649474849020000011462632799417548431_" class="st2" d="M105,126.6h-3.5"/>
				</g>
			</g>
		</g>
		<g id="text_16">
			<text transform="matrix(1 0 0 1 68.7628 131.9412)" class="st3 st4">0.25</text>
		</g>
	</g>
	<g id="ytick_7">
		<g id="line2d_16">
			<g>
				<g>
					<path id="m67f74b544b_00000132080333174946608550000006426954570439195778_" class="st2" d="M105,94.8h-3.5"/>
				</g>
			</g>
		</g>
		<g id="text_17">
			<text transform="matrix(1 0 0 1 68.7628 100.0834)" class="st3 st4">0.30</text>
		</g>
	</g>
	<g id="ytick_8">
		<g id="line2d_17">
			<g>
				<g>
					<path id="m67f74b544b_00000172423801669770680040000015817445860837817237_" class="st2" d="M105,62.9h-3.5"/>
				</g>
			</g>
		</g>
		<g id="text_18">
			<text transform="matrix(1 0 0 1 68.7628 68.2256)" class="st3 st4">0.35</text>
		</g>
	</g>
	<g id="ytick_9">
		<g id="line2d_18">
			<g>
				<g>
					<path id="m67f74b544b_00000039098607412268622180000012760205608320018064_" class="st2" d="M105,31h-3.5"/>
				</g>
			</g>
		</g>
		<g id="text_19">
			<text transform="matrix(1 0 0 1 68.7628 36.3678)" class="st3 st4">0.40</text>
		</g>
	</g>
	<g id="text_20">
		<text transform="matrix(6.123234e-17 -1 1 6.123234e-17 60.9839 206.543)" class="st3 st5">Predicted Median FDR</text>
	</g>
</g>
<g id="line2d_19">
	<g>
		<defs>
			<rect id="SVGID_00000104708111362275253370000017931867882681195675_" x="105" y="15.1" width="286.7" height="286.7"/>
		</defs>
		<clipPath id="SVGID_00000152236681172244818040000009441492436928854175_">
			<use xlink:href="#SVGID_00000104708111362275253370000017931867882681195675_"  style="overflow:visible;"/>
		</clipPath>
		
			<path style="clip-path:url(#SVGID_00000152236681172244818040000009441492436928854175_);fill:none;stroke:#000000;stroke-width:2;stroke-linecap:square;stroke-linejoin:round;" d="
			M121,281.9L375.8,57.6"/>
	</g>
</g>
<g id="line2d_20">
	<g>
		<defs>
			<rect id="SVGID_00000103950979578133161820000008598521429963559586_" x="105" y="15.1" width="286.7" height="286.7"/>
		</defs>
		<clipPath id="SVGID_00000096053662556911734370000017574815788840106168_">
			<use xlink:href="#SVGID_00000103950979578133161820000008598521429963559586_"  style="overflow:visible;"/>
		</clipPath>
		
			<path style="clip-path:url(#SVGID_00000096053662556911734370000017574815788840106168_);fill:none;stroke:#000000;stroke-width:1.5;stroke-linejoin:round;stroke-dasharray:5.55,2.4;" d="
			M121,285.9L375.8,31"/>
	</g>
</g>
<g id="patch_3">
	<path class="st8" d="M105,301.8V15.1"/>
</g>
<g id="patch_4">
	<path class="st8" d="M391.7,301.8V15.1"/>
</g>
<g id="patch_5">
	<path class="st8" d="M105,301.8h286.7"/>
</g>
<g id="patch_6">
	<path class="st8" d="M105,15.1h286.7"/>
</g>
</svg>
