<?xml version="1.0" encoding="utf-8"?>
<!-- Generator: Adobe Illustrator 27.5.0, SVG Export Plug-In . SVG Version: 6.00 Build 0)  -->
<svg version="1.1" id="Layer_1" xmlns="http://www.w3.org/2000/svg" xmlns:xlink="http://www.w3.org/1999/xlink" x="0px" y="0px"
	 viewBox="0 0 460.8 345.6" style="enable-background:new 0 0 460.8 345.6;" xml:space="preserve">
<style type="text/css">
	.st0{clip-path:url(#SVGID_00000110466623129605109810000014257171487020286885_);}
	.st1{fill:#FF0000;fill-opacity:0.5;stroke:#FF0000;stroke-linejoin:round;stroke-opacity:0.5;}
	.st2{clip-path:url(#SVGID_00000145777408457833267410000002197664754141354669_);}
	.st3{fill:#008000;fill-opacity:0.5;stroke:#008000;stroke-linejoin:round;stroke-opacity:0.5;}
	.st4{clip-path:url(#SVGID_00000092418642680749999500000008345196078780749970_);}
	.st5{fill:#0000FF;fill-opacity:0.5;stroke:#0000FF;stroke-linejoin:round;stroke-opacity:0.5;}
	.st6{stroke:#000000;stroke-width:0.8;stroke-linejoin:round;}
	.st7{font-family:'LucidaBright';}
	.st8{font-size:9px;}
	
		.st9{clip-path:url(#SVGID_00000168810330270725486630000008650979185850059427_);fill:none;stroke:#FF0000;stroke-width:1.5;stroke-linecap:square;stroke-linejoin:round;}
	
		.st10{clip-path:url(#SVGID_00000165192205122525333320000017823491430920388742_);fill:none;stroke:#008000;stroke-width:1.5;stroke-linecap:square;stroke-linejoin:round;}
	
		.st11{clip-path:url(#SVGID_00000095328541704474081100000014697710478666257806_);fill:none;stroke:#0000FF;stroke-width:1.5;stroke-linecap:square;stroke-linejoin:round;}
	
		.st12{clip-path:url(#SVGID_00000008123399237000029670000002675264970091521970_);fill:none;stroke:#1F77B4;stroke-width:1.5;stroke-linejoin:round;}
	.st13{fill:none;stroke:#000000;stroke-width:0.8;stroke-linecap:square;}
</style>
<g id="PolyCollection_1">
	<g>
		<defs>
			<rect id="SVGID_1_" x="39.8" y="9.7" width="400" height="309.8"/>
		</defs>
		<clipPath id="SVGID_00000088116517843096626870000008595110866145038500_">
			<use xlink:href="#SVGID_1_"  style="overflow:visible;"/>
		</clipPath>
		<g style="clip-path:url(#SVGID_00000088116517843096626870000008595110866145038500_);">
			<g>
				<path id="mc01ed91470" class="st1" d="M57.9,319.5L57.9,319.5l0.4-0.1l0.4,0l0.4,0l0.4,0l0.4,0l0.4,0l0.4,0l0.4,0l0.4,0l0.4,0
					l0.4,0l0.4,0l0.4,0l0.4,0l0.4,0l0.4,0l0.4,0l0.4,0l0.4,0l0.4,0l0.4,0l0.4,0l0.4,0l0.4,0l0.4,0l0.4,0l0.4,0l0.4,0l0.4,0l0.4,0
					l0.4,0l0.4,0l0.4,0l0.4,0l0.4,0l0.4,0l0.4,0l0.4,0l0.4,0l0.4,0l0.4,0l0.4,0l0.4,0l0.4,0l0.4,0l0.4,0l0.4,0l0.4,0l0.4,0l0.4,0
					l0.4,0l0.4,0l0.4,0l0.4,0l0.4,0l0.4,0l0.4,0l0.4,0l0.4,0l0.4,0l0.4,0l0.4,0l0.4,0l0.4,0l0.4,0l0.4,0l0.4,0l0.4,0l0.4,0l0.4,0
					l0.4,0l0.4,0l0.4,0l0.4,0l0.4,0l0.4,0l0.4,0l0.4,0l0.4,0l0.4,0l0.4,0l0.4,0l0.4,0l0.4,0l0.4,0l0.4,0l0.4,0l0.4,0l0.4,0l0.4,0
					l0.4,0l0.4,0l0.4,0l0.4,0l0.4,0l0.4,0l0.4,0l0.4,0l0.4,0l0.4,0l0.4,0l0.4,0l0.4,0l0.4,0l0.4,0l0.4,0l0.4,0l0.4,0l0.4,0l0.4,0
					l0.4,0l0.4,0l0.4,0l0.4,0l0.4,0l0.4,0l0.4,0l0.4,0l0.4,0l0.4,0l0.4,0l0.4,0l0.4,0l0.4,0l0.4,0l0.4,0l0.4,0l0.4,0l0.4,0l0.4,0
					l0.4,0l0.4,0l0.4,0l0.4,0l0.4,0l0.4,0l0.4,0l0.4,0l0.4,0l0.4,0l0.4,0l0.4,0l0.4,0l0.4-0.1l0.4-0.1l0.4-0.1l0.4-0.1l0.4-0.1
					l0.4-0.1l0.4-0.1l0.4-0.1l0.4-0.1l0.4-0.1l0.4-0.1l0.4-0.1l0.4-0.1l0.4-0.1l0.4-0.1l0.4-0.1l0.4-0.1l0.4-0.1l0.4-0.1l0.4-0.1
					l0.4-0.1l0.4-0.1l0.4-0.1l0.4-0.1l0.4-0.1l0.4-0.1l0.4-0.1l0.4-0.1l0.4-0.1l0.4-0.1l0.4-0.1l0.4-0.1l0.4-0.1l0.4-0.1l0.4-0.1
					l0.4-0.1l0.4-0.1l0.4-0.1l0.4-0.1l0.4-0.1l0.4-0.1l0.4-0.1l0.4-0.1l0.4-0.1l0.4-0.1l0.4-0.1l0.4-0.1l0.4-0.1l0.4-0.1l0.4-0.1
					l0.4-0.1l0.4-0.1l0.4-0.1l0.4-0.1l0.4-0.1l0.4-0.1l0.4-0.1l0.4-0.1l0.4-0.1l0.4-0.1l0.4-0.1l0.4-0.1l0.4-0.1l0.4-0.1l0.4-0.1
					l0.4-0.1l0.4-0.1l0.4-0.1l0.4-0.1l0.4-0.1l0.4-0.1l0.4-0.1l0.4-0.1l0.4-0.1l0.4-0.1l0.4-0.1l0.4-0.2l0.4-0.2l0.4-0.2l0.4-0.2
					l0.4-0.2l0.4-0.2l0.4-0.2l0.4-0.2l0.4-0.2l0.4-0.2l0.4-0.2l0.4-0.2l0.4-0.2l0.4-0.2l0.4-0.2l0.4-0.2l0.4-0.2l0.4-0.2l0.4-0.2
					l0.4-0.2l0.4-0.2l0.4-0.2l0.4-0.2l0.4-0.2l0.4-0.2l0.4-0.2l0.4-0.2l0.4-0.2l0.4-0.2l0.4-0.2l0.4-0.2l0.4-0.2l0.4-0.2l0.4-0.2
					l0.4-0.2l0.4-0.2l0.4-0.2l0.4-0.2l0.4-0.2l0.4-0.2l0.4-0.2l0.4-0.2l0.4-0.2l0.4-0.2l0.4-0.2l0.4-0.2l0.4-0.2l0.4-0.2l0.4-0.2
					l0.4-0.2l0.4-0.3l0.4-0.3l0.4-0.3l0.4-0.3l0.4-0.3l0.4-0.3l0.4-0.3l0.4-0.3l0.4-0.3l0.4-0.3l0.4-0.3l0.4-0.3l0.4-0.3l0.4-0.3
					l0.4-0.3l0.4-0.3l0.4-0.3l0.4-0.3l0.4-0.3l0.4-0.3l0.4-0.3l0.4-0.3l0.4-0.3l0.4-0.3l0.4-0.3l0.4-0.3l0.4-0.3l0.4-0.3l0.4-0.3
					l0.4-0.3l0.4-0.3l0.4-0.3l0.4-0.3l0.4-0.3l0.4-0.3l0.4-0.3l0.4-0.3l0.4-0.3l0.4-0.3l0.4-0.3l0.4-0.3l0.4-0.3l0.4-0.3l0.4-0.3
					l0.4-0.3l0.4-0.3l0.4-0.3l0.4-0.3l0.4-0.3l0.4-0.3l0.4-0.3l0.4-0.3l0.4-0.4l0.4-0.4l0.4-0.4l0.4-0.4l0.4-0.4l0.4-0.4l0.4-0.4
					l0.4-0.4l0.4-0.4l0.4-0.4l0.4-0.4l0.4-0.4l0.4-0.4l0.4-0.4l0.4-0.4l0.4-0.4l0.4-0.4l0.4-0.4l0.4-0.4l0.4-0.4l0.4-0.4l0.4-0.4
					l0.4-0.4l0.4-0.4l0.4-0.4l0.4-0.4l0.4-0.4l0.4-0.4l0.4-0.4l0.4-0.4l0.4-0.4l0.4-0.4l0.4-0.4l0.4-0.4l0.4-0.4l0.4-0.4l0.4-0.4
					l0.4-0.4l0.4-0.4l0.4-0.4l0.4-0.4l0.4-0.4l0.4-0.4l0.4-0.4l0.4-0.4l0.4-0.4l0.4-0.4l0.4-0.4l0.4-0.4l0.4-0.4l0.4-0.4l0.4-0.4
					l0.4-0.4l0.4-0.4l0.4-0.4l0.4-0.4l0.4-0.4l0.4-0.4l0.4-0.4l0.4-0.4l0.4-0.4l0.4-0.4l0.4-0.4l0.4-0.4l0.4-0.4l0.4-0.4l0.4-0.4
					l0.4-0.4l0.4-0.4l0.4-0.4l0.4-0.4l0.4-0.4l0.4-0.4l0.4-0.4l0.4-0.4l0.4-0.4l0.4-0.4l0.4-0.4l0.4-0.4l0.4-0.4l0.4-0.4l0.4-0.4
					l0.4-0.4l0.4-0.4l0.4-0.3l0.4-0.3l0.4-0.3l0.4-0.3l0.4-0.3l0.4-0.3l0.4-0.3l0.4-0.3l0.4-0.3l0.4-0.3l0.4-0.3l0.4-0.3l0.4-0.3
					l0.4-0.3l0.4-0.3l0.4-0.3l0.4-0.3l0.4-0.3l0.4-0.3l0.4-0.3l0.4-0.3l0.4-0.3l0.4-0.3l0.4-0.3l0.4-0.3l0.4-0.3l0.4-0.3l0.4-0.3
					l0.4-0.3l0.4-0.3l0.4-0.3l0.4-0.3l0.4-0.3l0.4-0.3l0.4-0.3l0.4-0.3l0.4-0.3l0.4-0.2l0.4-0.2l0.4-0.2l0.4-0.2l0.4-0.2l0.4-0.2
					l0.4-0.2l0.4-0.2l0.4-0.2l0.4-0.2l0.4-0.2l0.4-0.2l0.4-0.2l0.4-0.2l0.4-0.2l0.4-0.2l0.4-0.2l0.4-0.2l0.4-0.2l0.4-0.2l0.4-0.2
					l0.4-0.2l0.4-0.2l0.4-0.2l0.4-0.2l0.4-0.1l0.4-0.1l0.4-0.1l0.4-0.1l0.4-0.1l0.4-0.1l0.4-0.1l0.4-0.1l0.4-0.1l0.4-0.1l0.4-0.1
					l0.4-0.1l0.4-0.1l0.4-0.1l0.4-0.1l0.4-0.1l0.4-0.1l0.4-0.1l0.4-0.1l0.4-0.1l0.4-0.1l0.4-0.1l0.4,0l0.4,0l0.4,0l0.4,0l0.4,0
					l0.4,0l0.4,0l0.4,0l0.4,0l0.4,0h0.4l0.4,0l0.4,0l0.4,0l0.4,0l0.4,0l0.4,0l0.4,0l0.4,0l0.4,0l0.4,0l0.4,0.1l0.4,0.1l0.4,0.1
					l0.4,0.1l0.4,0.1l0.4,0.1l0.4,0.1l0.4,0.1l0.4,0.1l0.4,0.1l0.4,0.1l0.4,0.1l0.4,0.1l0.4,0.1l0.4,0.1l0.4,0.1l0.4,0.1l0.4,0.1
					l0.4,0.1l0.4,0.1l0.4,0.1l0.4,0.1l0.4,0.2l0.4,0.2l0.4,0.2l0.4,0.2l0.4,0.2l0.4,0.2l0.4,0.2l0.4,0.2l0.4,0.2l0.4,0.2l0.4,0.2
					l0.4,0.2l0.4,0.2l0.4,0.2l0.4,0.2l0.4,0.2l0.4,0.2l0.4,0.2l0.4,0.2l0.4,0.2l0.4,0.2l0.4,0.2l0.4,0.2l0.4,0.2l0.4,0.2l0.4,0.3
					l0.4,0.3l0.4,0.3l0.4,0.3l0.4,0.3l0.4,0.3l0.4,0.3l0.4,0.3l0.4,0.3l0.4,0.3l0.4,0.3l0.4,0.3l0.4,0.3l0.4,0.3l0.4,0.3l0.4,0.3
					l0.4,0.3l0.4,0.3l0.4,0.3l0.4,0.3l0.4,0.3l0.4,0.3l0.4,0.3l0.4,0.3l0.4,0.3l0.4,0.3l0.4,0.3l0.4,0.3l0.4,0.3l0.4,0.3l0.4,0.3
					l0.4,0.3l0.4,0.3l0.4,0.3l0.4,0.3l0.4,0.3l0.4,0.3l0.4,0.4l0.4,0.4l0.4,0.4l0.4,0.4l0.4,0.4l0.4,0.4l0.4,0.4l0.4,0.4l0.4,0.4
					l0.4,0.4l0.4,0.4l0.4,0.4l0.4,0.4l0.4,0.4l0.4,0.4l0.4,0.4l0.4,0.4l0.4,0.4l0.4,0.4l0.4,0.4l0.4,0.4l0.4,0.4l0.4,0.4l0.4,0.4
					l0.4,0.4l0.4,0.4l0.4,0.4l0.4,0.4l0.4,0.4l0.4,0.4l0.4,0.4l0.4,0.4l0.4,0.4l0.4,0.4l0.4,0.4l0.4,0.4l0.4,0.4l0.4,0.4l0.4,0.4
					l0.4,0.4l0.4,0.4l0.4,0.4l0.4,0.4l0.4,0.4l0.4,0.4l0.4,0.4l0.4,0.4l0.4,0.4l0.4,0.4l0.4,0.4l0.4,0.4l0.4,0.4l0.4,0.4l0.4,0.4
					l0.4,0.4l0.4,0.4l0.4,0.4l0.4,0.4l0.4,0.4l0.4,0.4l0.4,0.4l0.4,0.4l0.4,0.4l0.4,0.4l0.4,0.4l0.4,0.4l0.4,0.4l0.4,0.4l0.4,0.4
					l0.4,0.4l0.4,0.4l0.4,0.4l0.4,0.4l0.4,0.4l0.4,0.4l0.4,0.4l0.4,0.4l0.4,0.4l0.4,0.4l0.4,0.4l0.4,0.4l0.4,0.4l0.4,0.4l0.4,0.4
					l0.4,0.3l0.4,0.3l0.4,0.3l0.4,0.3l0.4,0.3l0.4,0.3l0.4,0.3l0.4,0.3l0.4,0.3l0.4,0.3l0.4,0.3l0.4,0.3l0.4,0.3l0.4,0.3l0.4,0.3
					l0.4,0.3l0.4,0.3l0.4,0.3l0.4,0.3l0.4,0.3l0.4,0.3l0.4,0.3l0.4,0.3l0.4,0.3l0.4,0.3l0.4,0.3l0.4,0.3l0.4,0.3l0.4,0.3l0.4,0.3
					l0.4,0.3l0.4,0.3l0.4,0.3l0.4,0.3l0.4,0.3l0.4,0.3l0.4,0.3l0.4,0.3l0.4,0.3l0.4,0.3l0.4,0.3l0.4,0.3l0.4,0.3l0.4,0.3l0.4,0.3
					l0.4,0.3l0.4,0.3l0.4,0.3l0.4,0.3l0.4,0.3l0.4,0.3l0.4,0.3l0.4,0.2l0.4,0.2l0.4,0.2l0.4,0.2l0.4,0.2l0.4,0.2l0.4,0.2l0.4,0.2
					l0.4,0.2l0.4,0.2l0.4,0.2l0.4,0.2l0.4,0.2l0.4,0.2l0.4,0.2l0.4,0.2l0.4,0.2l0.4,0.2l0.4,0.2l0.4,0.2l0.4,0.2l0.4,0.2l0.4,0.2
					l0.4,0.2l0.4,0.2l0.4,0.2l0.4,0.2l0.4,0.2l0.4,0.2l0.4,0.2l0.4,0.2l0.4,0.2l0.4,0.2l0.4,0.2l0.4,0.2l0.4,0.2l0.4,0.2l0.4,0.2
					l0.4,0.2l0.4,0.2l0.4,0.2l0.4,0.2l0.4,0.2l0.4,0.2l0.4,0.2l0.4,0.2l0.4,0.2l0.4,0.2l0.4,0.2l0.4,0.2l0.4,0.1l0.4,0.1l0.4,0.1
					l0.4,0.1l0.4,0.1l0.4,0.1l0.4,0.1l0.4,0.1l0.4,0.1l0.4,0.1l0.4,0.1l0.4,0.1l0.4,0.1l0.4,0.1l0.4,0.1l0.4,0.1l0.4,0.1l0.4,0.1
					l0.4,0.1l0.4,0.1l0.4,0.1l0.4,0.1l0.4,0.1l0.4,0.1l0.4,0.1l0.4,0.1l0.4,0.1l0.4,0.1l0.4,0.1l0.4,0.1l0.4,0.1l0.4,0.1l0.4,0.1
					l0.4,0.1l0.4,0.1l0.4,0.1l0.4,0.1l0.4,0.1l0.4,0.1l0.4,0.1l0.4,0.1l0.4,0.1l0.4,0.1l0.4,0.1l0.4,0.1l0.4,0.1l0.4,0.1l0.4,0.1
					l0.4,0.1l0.4,0.1l0.4,0.1l0.4,0.1l0.4,0.1l0.4,0.1l0.4,0.1l0.4,0.1l0.4,0.1l0.4,0.1l0.4,0.1l0.4,0.1l0.4,0.1l0.4,0.1l0.4,0.1
					l0.4,0.1l0.4,0.1l0.4,0.1l0.4,0.1l0.4,0.1l0.4,0.1l0.4,0.1l0.4,0.1l0.4,0.1l0.4,0.1l0.4,0.1l0.4,0.1l0.4,0.1l0.4,0l0.4,0l0.4,0
					l0.4,0l0.4,0l0.4,0l0.4,0l0.4,0l0.4,0l0.4,0l0.4,0l0.4,0l0.4,0l0.4,0l0.4,0l0.4,0l0.4,0l0.4,0l0.4,0l0.4,0l0.4,0l0.4,0l0.4,0
					l0.4,0l0.4,0l0.4,0l0.4,0l0.4,0l0.4,0l0.4,0l0.4,0l0.4,0l0.4,0l0.4,0l0.4,0l0.4,0l0.4,0l0.4,0l0.4,0l0.4,0l0.4,0l0.4,0l0.4,0
					l0.4,0l0.4,0l0.4,0l0.4,0l0.4,0l0.4,0l0.4,0l0.4,0l0.4,0l0.4,0l0.4,0l0.4,0l0.4,0l0.4,0l0.4,0l0.4,0l0.4,0l0.4,0l0.4,0l0.4,0
					l0.4,0l0.4,0l0.4,0l0.4,0l0.4,0l0.4,0l0.4,0l0.4,0l0.4,0l0.4,0l0.4,0l0.4,0l0.4,0l0.4,0l0.4,0l0.4,0l0.4,0l0.4,0l0.4,0l0.4,0
					l0.4,0l0.4,0l0.4,0l0.4,0l0.4,0l0.4,0l0.4,0l0.4,0l0.4,0l0.4,0l0.4,0l0.4,0l0.4,0l0.4,0l0.4,0l0.4,0l0.4,0l0.4,0l0.4,0l0.4,0
					l0.4,0l0.4,0l0.4,0l0.4,0l0.4,0l0.4,0l0.4,0l0.4,0l0.4,0l0.4,0l0.4,0l0.4,0l0.4,0l0.4,0l0.4,0l0.4,0l0.4,0l0.4,0l0.4,0l0.4,0
					l0.4,0l0.4,0l0.4,0l0.4,0l0.4,0l0.4,0l0.4,0l0.4,0l0.4,0l0.4,0l0.4,0l0.4,0l0.4,0l0.4,0l0.4,0l0.4,0l0.4,0l0.4,0l0.4,0l0.4,0
					v0.1l0,0h-0.4h-0.4h-0.4h-0.4h-0.4h-0.4h-0.4h-0.4h-0.4H418h-0.4h-0.4h-0.4h-0.4h-0.4h-0.4h-0.4h-0.4h-0.4h-0.4H414h-0.4h-0.4
					h-0.4h-0.4h-0.4h-0.4h-0.4h-0.4h-0.4h-0.4H410h-0.4h-0.4h-0.4h-0.4h-0.4h-0.4h-0.4H407h-0.4h-0.4H406h-0.4h-0.4h-0.4h-0.4h-0.4
					h-0.4h-0.4H403h-0.4h-0.4H402h-0.4h-0.4h-0.4h-0.4h-0.4h-0.4h-0.4H399h-0.4h-0.4h-0.4h-0.4h-0.4h-0.4h-0.4h-0.4h-0.4h-0.4H395
					h-0.4h-0.4h-0.4h-0.4h-0.4h-0.4h-0.4h-0.4h-0.4h-0.4H391h-0.4h-0.4h-0.4h-0.4h-0.4h-0.4h-0.4h-0.4h-0.4h-0.4H387h-0.4h-0.4h-0.4
					h-0.4h-0.4h-0.4h-0.4h-0.4h-0.4h-0.4H383h-0.4h-0.4h-0.4h-0.4h-0.4h-0.4h-0.4h-0.4h-0.4h-0.4H379h-0.4h-0.4h-0.4h-0.4h-0.4h-0.4
					h-0.4h-0.4h-0.4h-0.4H375h-0.4h-0.4h-0.4h-0.4h-0.4h-0.4h-0.4h-0.4h-0.4h-0.4H371h-0.4h-0.4h-0.4h-0.4h-0.4h-0.4h-0.4h-0.4h-0.4
					h-0.4H367h-0.4h-0.4h-0.4h-0.4h-0.4h-0.4h-0.4h-0.4h-0.4h-0.4H363h-0.4h-0.4h-0.4h-0.4h-0.4h-0.4h-0.4h-0.4h-0.4h-0.4H359h-0.4
					h-0.4h-0.4h-0.4h-0.4h-0.4h-0.4h-0.4h-0.4h-0.4H355h-0.4h-0.4h-0.4h-0.4h-0.4h-0.4h-0.4h-0.4h-0.4h-0.4H351h-0.4h-0.4h-0.4h-0.4
					h-0.4h-0.4h-0.4h-0.4h-0.4h-0.4H347h-0.4h-0.4h-0.4h-0.4h-0.4h-0.4h-0.4h-0.4h-0.4h-0.4H343h-0.4h-0.4h-0.4h-0.4h-0.4h-0.4h-0.4
					h-0.4h-0.4h-0.4H339h-0.4h-0.4h-0.4h-0.4h-0.4h-0.4h-0.4h-0.4h-0.4h-0.4H335h-0.4h-0.4h-0.4h-0.4h-0.4h-0.4h-0.4h-0.4h-0.4h-0.4
					H331h-0.4h-0.4h-0.4h-0.4h-0.4h-0.4h-0.4h-0.4h-0.4h-0.4H327h-0.4h-0.4h-0.4h-0.4h-0.4h-0.4h-0.4H324h-0.4h-0.4H323h-0.4h-0.4
					h-0.4h-0.4h-0.4h-0.4h-0.4H320h-0.4h-0.4H319h-0.4h-0.4h-0.4h-0.4h-0.4h-0.4h-0.4H316h-0.4h-0.4h-0.4h-0.4h-0.4h-0.4h-0.4h-0.4
					h-0.4h-0.4H312h-0.4h-0.4h-0.4h-0.4h-0.4h-0.4h-0.4h-0.4h-0.4h-0.4H308h-0.4h-0.4h-0.4h-0.4h-0.4h-0.4h-0.4h-0.4h-0.4h-0.4H304
					h-0.4h-0.4h-0.4h-0.4h-0.4h-0.4h-0.4h-0.4h-0.4h-0.4H300h-0.4h-0.4h-0.4h-0.4h-0.4h-0.4h-0.4h-0.4h-0.4h-0.4H296h-0.4h-0.4h-0.4
					h-0.4h-0.4h-0.4h-0.4h-0.4h-0.4h-0.4H292h-0.4h-0.4h-0.4h-0.4h-0.4h-0.4h-0.4h-0.4h-0.4h-0.4H288h-0.4h-0.4h-0.4h-0.4h-0.4h-0.4
					h-0.4h-0.4h-0.4h-0.4H284h-0.4h-0.4h-0.4h-0.4h-0.4h-0.4h-0.4h-0.4h-0.4h-0.4H280h-0.4h-0.4h-0.4h-0.4h-0.4h-0.4h-0.4h-0.4h-0.4
					h-0.4H276h-0.4h-0.4h-0.4h-0.4h-0.4h-0.4h-0.4h-0.4h-0.4h-0.4H272h-0.4h-0.4h-0.4h-0.4h-0.4h-0.4h-0.4h-0.4h-0.4h-0.4H268h-0.4
					h-0.4h-0.4h-0.4h-0.4h-0.4h-0.4h-0.4h-0.4h-0.4H264h-0.4h-0.4h-0.4h-0.4h-0.4h-0.4h-0.4h-0.4h-0.4h-0.4H260h-0.4h-0.4h-0.4h-0.4
					h-0.4h-0.4h-0.4h-0.4h-0.4h-0.4H256h-0.4h-0.4h-0.4h-0.4h-0.4h-0.4h-0.4h-0.4h-0.4h-0.4H252h-0.4h-0.4h-0.4h-0.4h-0.4h-0.4h-0.4
					h-0.4h-0.4h-0.4H248h-0.4h-0.4h-0.4h-0.4h-0.4h-0.4h-0.4h-0.4h-0.4h-0.4H244h-0.4h-0.4h-0.4h-0.4h-0.4h-0.4h-0.4h-0.4h-0.4h-0.4
					H240h-0.4h-0.4h-0.4h-0.4h-0.4h-0.4h-0.4H237h-0.4h-0.4H236h-0.4h-0.4h-0.4h-0.4h-0.4h-0.4h-0.4H233h-0.4h-0.4h-0.4h-0.4h-0.4
					h-0.4h-0.4h-0.4h-0.4h-0.4H229h-0.4h-0.4h-0.4h-0.4h-0.4h-0.4h-0.4h-0.4h-0.4h-0.4H225h-0.4h-0.4h-0.4h-0.4h-0.4h-0.4h-0.4h-0.4
					h-0.4h-0.4H221h-0.4h-0.4h-0.4h-0.4h-0.4h-0.4h-0.4h-0.4h-0.4h-0.4H217h-0.4h-0.4h-0.4h-0.4h-0.4h-0.4h-0.4h-0.4h-0.4h-0.4H213
					h-0.4h-0.4h-0.4h-0.4h-0.4h-0.4h-0.4h-0.4h-0.4h-0.4H209h-0.4h-0.4h-0.4h-0.4h-0.4h-0.4h-0.4h-0.4h-0.4h-0.4H205h-0.4h-0.4h-0.4
					h-0.4h-0.4h-0.4h-0.4h-0.4h-0.4h-0.4H201h-0.4h-0.4h-0.4h-0.4h-0.4h-0.4h-0.4h-0.4h-0.4h-0.4H197h-0.4h-0.4h-0.4h-0.4h-0.4h-0.4
					h-0.4h-0.4h-0.4h-0.4H193h-0.4h-0.4h-0.4h-0.4h-0.4h-0.4h-0.4h-0.4h-0.4h-0.4H189h-0.4h-0.4h-0.4h-0.4h-0.4h-0.4h-0.4h-0.4h-0.4
					h-0.4H185h-0.4h-0.4h-0.4h-0.4h-0.4h-0.4h-0.4h-0.4h-0.4h-0.4H181h-0.4h-0.4h-0.4h-0.4h-0.4h-0.4h-0.4h-0.4h-0.4h-0.4H177h-0.4
					h-0.4h-0.4h-0.4h-0.4h-0.4h-0.4h-0.4h-0.4h-0.4H173h-0.4h-0.4h-0.4h-0.4h-0.4h-0.4h-0.4h-0.4h-0.4h-0.4H169h-0.4h-0.4h-0.4h-0.4
					h-0.4h-0.4h-0.4h-0.4h-0.4h-0.4H165h-0.4h-0.4h-0.4h-0.4h-0.4h-0.4h-0.4h-0.4h-0.4h-0.4H161h-0.4h-0.4h-0.4h-0.4h-0.4h-0.4h-0.4
					h-0.4h-0.4h-0.4H157h-0.4h-0.4h-0.4h-0.4h-0.4h-0.4h-0.4H154h-0.4h-0.4H153h-0.4h-0.4h-0.4h-0.4h-0.4h-0.4h-0.4H150h-0.4h-0.4
					H149h-0.4h-0.4h-0.4h-0.4h-0.4h-0.4h-0.4H146h-0.4h-0.4h-0.4h-0.4h-0.4h-0.4h-0.4h-0.4h-0.4h-0.4H142h-0.4h-0.4h-0.4h-0.4h-0.4
					h-0.4h-0.4h-0.4h-0.4h-0.4H138h-0.4h-0.4h-0.4h-0.4h-0.4h-0.4h-0.4h-0.4h-0.4h-0.4H134h-0.4h-0.4h-0.4h-0.4h-0.4h-0.4h-0.4h-0.4
					h-0.4h-0.4H130h-0.4h-0.4h-0.4h-0.4h-0.4h-0.4h-0.4h-0.4h-0.4h-0.4H126h-0.4h-0.4h-0.4h-0.4h-0.4h-0.4h-0.4h-0.4h-0.4h-0.4H122
					h-0.4h-0.4h-0.4h-0.4h-0.4h-0.4h-0.4h-0.4h-0.4h-0.4H118h-0.4h-0.4h-0.4h-0.4h-0.4h-0.4h-0.4h-0.4h-0.4h-0.4H114h-0.4h-0.4h-0.4
					h-0.4h-0.4h-0.4h-0.4h-0.4h-0.4h-0.4H110h-0.4h-0.4h-0.4h-0.4h-0.4h-0.4h-0.4h-0.4h-0.4h-0.4H106h-0.4h-0.4h-0.4h-0.4h-0.4h-0.4
					h-0.4h-0.4h-0.4h-0.4H102h-0.4h-0.4h-0.4h-0.4h-0.4h-0.4h-0.4h-0.4h-0.4h-0.4H98h-0.4h-0.4h-0.4h-0.4h-0.4h-0.4h-0.4h-0.4h-0.4
					h-0.4H94h-0.4h-0.4h-0.4h-0.4h-0.4h-0.4h-0.4h-0.4h-0.4h-0.4H90h-0.4h-0.4h-0.4h-0.4h-0.4h-0.4h-0.4h-0.4h-0.4h-0.4H86h-0.4
					h-0.4h-0.4h-0.4h-0.4h-0.4h-0.4h-0.4h-0.4h-0.4H82h-0.4h-0.4h-0.4h-0.4h-0.4h-0.4h-0.4h-0.4h-0.4h-0.4H78h-0.4h-0.4h-0.4h-0.4
					h-0.4h-0.4h-0.4h-0.4h-0.4h-0.4H74h-0.4h-0.4h-0.4h-0.4h-0.4h-0.4h-0.4H71h-0.4h-0.4H70h-0.4h-0.4h-0.4h-0.4h-0.4h-0.4h-0.4H67
					h-0.4h-0.4H66h-0.4h-0.4h-0.4h-0.4h-0.4h-0.4h-0.4H63h-0.4h-0.4h-0.4h-0.4h-0.4h-0.4h-0.4h-0.4h-0.4h-0.4H59h-0.4h-0.4H57.9z"/>
			</g>
		</g>
	</g>
</g>
<g id="PolyCollection_2">
	<g>
		<defs>
			<rect id="SVGID_00000000915799073205097360000006182356247174943669_" x="39.8" y="9.7" width="400" height="309.8"/>
		</defs>
		<clipPath id="SVGID_00000127044746791396979740000007284715230340639896_">
			<use xlink:href="#SVGID_00000000915799073205097360000006182356247174943669_"  style="overflow:visible;"/>
		</clipPath>
		<g style="clip-path:url(#SVGID_00000127044746791396979740000007284715230340639896_);">
			<g>
				<path id="m3d328b8f57" class="st3" d="M135.2,319.5v-0.1l0.2,0l0.2,0l0.2,0l0.2,0l0.2,0l0.2,0l0.2,0l0.2,0l0.2,0l0.2,0l0.2,0
					l0.2,0l0.2,0l0.2,0l0.2,0l0.2,0l0.2,0l0.2,0l0.2,0l0.2,0l0.2,0l0.2,0l0.2,0l0.2,0l0.2,0l0.2,0l0.2,0l0.2,0l0.2,0l0.2,0l0.2,0
					l0.2,0l0.2,0l0.2,0l0.2,0l0.2,0l0.2,0l0.2,0l0.2,0l0.2,0l0.2,0l0.2,0l0.2,0l0.2,0l0.2,0l0.2,0l0.2,0l0.2,0l0.2,0l0.2,0l0.2,0
					l0.2,0l0.2,0l0.2,0l0.2,0l0.2,0l0.2,0l0.2,0l0.2,0l0.2,0l0.2,0l0.2,0l0.2,0l0.2,0l0.2,0l0.2,0l0.2,0l0.2,0l0.2,0l0.2,0l0.2,0
					l0.2,0l0.2,0l0.2,0l0.2,0l0.2,0l0.2,0l0.2,0l0.2,0l0.2,0l0.2,0l0.2,0l0.2,0l0.2,0l0.2,0l0.2,0l0.2,0l0.2,0l0.2,0l0.2,0l0.2,0
					l0.2,0l0.2,0l0.2,0l0.2,0l0.2,0l0.2,0l0.2,0l0.2,0l0.2,0l0.2,0l0.2,0l0.2,0l0.2,0l0.2,0l0.2,0l0.2,0l0.2,0l0.2,0l0.2,0l0.2,0
					l0.2,0l0.2,0l0.2-0.1l0.2-0.1l0.2-0.1l0.2-0.1l0.2-0.1l0.2-0.1l0.2-0.1l0.2-0.1l0.2-0.1l0.2-0.1l0.2-0.1l0.2-0.1l0.2-0.1
					l0.2-0.1l0.2-0.1l0.2-0.1l0.2-0.1l0.2-0.1l0.2-0.1l0.2-0.1l0.2-0.1l0.2-0.1l0.2-0.1l0.2-0.1l0.2-0.1l0.2-0.1l0.2-0.1l0.2-0.1
					l0.2-0.1l0.2-0.1l0.2-0.1l0.2-0.1l0.2-0.1l0.2-0.1l0.2-0.1l0.2-0.1l0.2-0.1l0.2-0.1l0.2-0.1l0.2-0.1l0.2-0.1l0.2-0.1l0.2-0.1
					l0.2-0.1l0.2-0.1l0.2-0.1l0.2-0.1l0.2-0.1l0.2-0.1l0.2-0.1l0.2-0.1l0.2-0.1l0.2-0.1l0.2-0.1l0.2-0.1l0.2-0.1l0.2-0.1l0.2-0.1
					l0.2-0.1l0.2-0.1l0.2-0.1l0.2-0.1l0.2-0.1l0.2-0.1l0.2-0.1l0.2-0.1l0.2-0.2l0.2-0.2l0.2-0.2l0.2-0.2l0.2-0.2l0.2-0.2l0.2-0.2
					l0.2-0.2l0.2-0.2l0.2-0.2l0.2-0.2l0.2-0.2l0.2-0.2l0.2-0.2l0.2-0.2l0.2-0.2l0.2-0.2l0.2-0.2l0.2-0.2l0.2-0.2l0.2-0.2l0.2-0.2
					l0.2-0.2l0.2-0.2l0.2-0.2l0.2-0.2l0.2-0.2l0.2-0.2l0.2-0.2l0.2-0.2l0.2-0.2l0.2-0.2l0.2-0.2l0.2-0.2l0.2-0.2l0.2-0.2l0.2-0.2
					l0.2-0.2l0.2-0.3l0.2-0.3l0.2-0.3l0.2-0.3l0.2-0.3l0.2-0.3l0.2-0.3l0.2-0.3l0.2-0.3l0.2-0.3l0.2-0.3l0.2-0.3l0.2-0.3l0.2-0.3
					l0.2-0.3l0.2-0.3l0.2-0.3l0.2-0.3l0.2-0.3l0.2-0.3l0.2-0.3l0.2-0.3l0.2-0.3l0.2-0.3l0.2-0.3l0.2-0.3l0.2-0.3l0.2-0.3l0.2-0.3
					l0.2-0.3l0.2-0.4l0.2-0.4l0.2-0.4l0.2-0.4l0.2-0.4l0.2-0.4l0.2-0.4l0.2-0.4l0.2-0.4l0.2-0.4l0.2-0.4l0.2-0.4l0.2-0.4l0.2-0.4
					l0.2-0.4l0.2-0.4l0.2-0.4l0.2-0.4l0.2-0.4l0.2-0.4l0.2-0.4l0.2-0.4l0.2-0.4l0.2-0.4l0.2-0.4l0.2-0.4l0.2-0.4l0.2-0.4l0.2-0.5
					l0.2-0.5l0.2-0.5l0.2-0.5l0.2-0.5l0.2-0.5l0.2-0.5l0.2-0.5l0.2-0.5l0.2-0.5l0.2-0.5l0.2-0.5l0.2-0.5l0.2-0.5l0.2-0.5l0.2-0.5
					l0.2-0.5l0.2-0.5l0.2-0.5l0.2-0.5l0.2-0.5l0.2-0.5l0.2-0.5l0.2-0.5l0.2-0.5l0.2-0.5l0.2-0.5l0.2-0.5l0.2-0.5l0.2-0.5l0.2-0.6
					l0.2-0.6l0.2-0.6l0.2-0.6l0.2-0.6l0.2-0.6l0.2-0.6l0.2-0.6l0.2-0.6l0.2-0.6l0.2-0.6l0.2-0.6l0.2-0.6l0.2-0.6l0.2-0.6l0.2-0.6
					l0.2-0.6l0.2-0.6l0.2-0.6l0.2-0.6l0.2-0.6l0.2-0.6l0.2-0.6l0.2-0.6l0.2-0.6l0.2-0.6l0.2-0.6l0.2-0.6l0.2-0.6l0.2-0.6l0.2-0.6
					l0.2-0.6l0.2-0.6l0.2-0.6l0.2-0.6l0.2-0.6l0.2-0.6l0.2-0.6l0.2-0.6l0.2-0.6l0.2-0.6l0.2-0.6l0.2-0.6l0.2-0.6l0.2-0.6l0.2-0.7
					l0.2-0.7l0.2-0.7l0.2-0.7l0.2-0.7l0.2-0.7l0.2-0.7l0.2-0.7l0.2-0.7l0.2-0.7l0.2-0.7l0.2-0.7l0.2-0.7l0.2-0.7l0.2-0.7l0.2-0.7
					l0.2-0.7l0.2-0.7l0.2-0.7l0.2-0.7l0.2-0.7l0.2-0.7l0.2-0.7l0.2-0.7l0.2-0.7l0.2-0.7l0.2-0.7l0.2-0.7l0.2-0.7l0.2-0.7l0.2-0.6
					l0.2-0.6l0.2-0.6l0.2-0.6l0.2-0.6l0.2-0.6l0.2-0.6l0.2-0.6l0.2-0.6l0.2-0.6l0.2-0.6l0.2-0.6l0.2-0.6l0.2-0.6l0.2-0.6l0.2-0.6
					l0.2-0.6l0.2-0.6l0.2-0.6l0.2-0.6l0.2-0.6l0.2-0.6l0.2-0.6l0.2-0.6l0.2-0.6l0.2-0.6l0.2-0.6l0.2-0.6l0.2-0.6l0.2-0.6l0.2-0.6
					l0.2-0.6l0.2-0.6l0.2-0.6l0.2-0.6l0.2-0.6l0.2-0.6l0.2-0.6l0.2-0.5l0.2-0.5l0.2-0.5l0.2-0.5l0.2-0.5l0.2-0.5l0.2-0.5l0.2-0.5
					l0.2-0.5l0.2-0.5l0.2-0.5l0.2-0.5l0.2-0.5l0.2-0.5l0.2-0.5l0.2-0.5l0.2-0.5l0.2-0.5l0.2-0.5l0.2-0.5l0.2-0.4l0.2-0.4l0.2-0.4
					l0.2-0.4l0.2-0.4l0.2-0.4l0.2-0.4l0.2-0.4l0.2-0.4l0.2-0.4l0.2-0.4l0.2-0.4l0.2-0.4l0.2-0.4l0.2-0.4l0.2-0.4l0.2-0.3l0.2-0.3
					l0.2-0.3l0.2-0.3l0.2-0.3l0.2-0.3l0.2-0.3l0.2-0.3l0.2-0.3l0.2-0.3l0.2-0.3l0.2-0.3l0.2-0.3l0.2-0.3l0.2-0.2l0.2-0.2l0.2-0.2
					l0.2-0.2l0.2-0.2l0.2-0.2l0.2-0.2l0.2-0.2l0.2-0.2l0.2-0.2l0.2-0.2l0.2-0.2l0.2-0.2l0.2-0.1l0.2-0.1l0.2-0.1l0.2-0.1l0.2-0.1
					l0.2-0.1l0.2-0.1l0.2-0.1l0.2-0.1l0.2-0.1l0.2-0.1l0.2-0.1l0.2,0l0.2,0l0.2,0l0.2,0l0.2,0l0.2,0h0.2l0.2,0l0.2,0l0.2,0l0.2,0
					l0.2,0l0.2,0l0.2,0.1l0.2,0.1l0.2,0.1l0.2,0.1l0.2,0.1l0.2,0.1l0.2,0.1l0.2,0.1l0.2,0.1l0.2,0.1l0.2,0.1l0.2,0.1l0.2,0.2
					l0.2,0.2l0.2,0.2l0.2,0.2l0.2,0.2l0.2,0.2l0.2,0.2l0.2,0.2l0.2,0.2l0.2,0.2l0.2,0.2l0.2,0.2l0.2,0.2l0.2,0.3l0.2,0.3l0.2,0.3
					l0.2,0.3l0.2,0.3l0.2,0.3l0.2,0.3l0.2,0.3l0.2,0.3l0.2,0.3l0.2,0.3l0.2,0.3l0.2,0.3l0.2,0.3l0.2,0.4l0.2,0.4l0.2,0.4l0.2,0.4
					l0.2,0.4l0.2,0.4l0.2,0.4l0.2,0.4l0.2,0.4l0.2,0.4l0.2,0.4l0.2,0.4l0.2,0.4l0.2,0.4l0.2,0.4l0.2,0.4l0.2,0.5l0.2,0.5l0.2,0.5
					l0.2,0.5l0.2,0.5l0.2,0.5l0.2,0.5l0.2,0.5l0.2,0.5l0.2,0.5l0.2,0.5l0.2,0.5l0.2,0.5l0.2,0.5l0.2,0.5l0.2,0.5l0.2,0.5l0.2,0.5
					l0.2,0.5l0.2,0.5l0.2,0.6l0.2,0.6l0.2,0.6l0.2,0.6l0.2,0.6l0.2,0.6l0.2,0.6l0.2,0.6l0.2,0.6l0.2,0.6l0.2,0.6l0.2,0.6l0.2,0.6
					l0.2,0.6l0.2,0.6l0.2,0.6l0.2,0.6l0.2,0.6l0.2,0.6l0.2,0.6l0.2,0.6l0.2,0.6l0.2,0.6l0.2,0.6l0.2,0.6l0.2,0.6l0.2,0.6l0.2,0.6
					l0.2,0.6l0.2,0.6l0.2,0.6l0.2,0.6l0.2,0.6l0.2,0.6l0.2,0.6l0.2,0.6l0.2,0.6l0.2,0.6l0.2,0.7l0.2,0.7l0.2,0.7l0.2,0.7l0.2,0.7
					l0.2,0.7l0.2,0.7l0.2,0.7l0.2,0.7l0.2,0.7l0.2,0.7l0.2,0.7l0.2,0.7l0.2,0.7l0.2,0.7l0.2,0.7l0.2,0.7l0.2,0.7l0.2,0.7l0.2,0.7
					l0.2,0.7l0.2,0.7l0.2,0.7l0.2,0.7l0.2,0.7l0.2,0.7l0.2,0.7l0.2,0.7l0.2,0.7l0.2,0.7l0.2,0.6l0.2,0.6l0.2,0.6l0.2,0.6l0.2,0.6
					l0.2,0.6l0.2,0.6l0.2,0.6l0.2,0.6l0.2,0.6l0.2,0.6l0.2,0.6l0.2,0.6l0.2,0.6l0.2,0.6l0.2,0.6l0.2,0.6l0.2,0.6l0.2,0.6l0.2,0.6
					l0.2,0.6l0.2,0.6l0.2,0.6l0.2,0.6l0.2,0.6l0.2,0.6l0.2,0.6l0.2,0.6l0.2,0.6l0.2,0.6l0.2,0.6l0.2,0.6l0.2,0.6l0.2,0.6l0.2,0.6
					l0.2,0.6l0.2,0.6l0.2,0.6l0.2,0.6l0.2,0.6l0.2,0.6l0.2,0.6l0.2,0.6l0.2,0.6l0.2,0.6l0.2,0.5l0.2,0.5l0.2,0.5l0.2,0.5l0.2,0.5
					l0.2,0.5l0.2,0.5l0.2,0.5l0.2,0.5l0.2,0.5l0.2,0.5l0.2,0.5l0.2,0.5l0.2,0.5l0.2,0.5l0.2,0.5l0.2,0.5l0.2,0.5l0.2,0.5l0.2,0.5
					l0.2,0.5l0.2,0.5l0.2,0.5l0.2,0.5l0.2,0.5l0.2,0.5l0.2,0.5l0.2,0.5l0.2,0.5l0.2,0.5l0.2,0.4l0.2,0.4l0.2,0.4l0.2,0.4l0.2,0.4
					l0.2,0.4l0.2,0.4l0.2,0.4l0.2,0.4l0.2,0.4l0.2,0.4l0.2,0.4l0.2,0.4l0.2,0.4l0.2,0.4l0.2,0.4l0.2,0.4l0.2,0.4l0.2,0.4l0.2,0.4
					l0.2,0.4l0.2,0.4l0.2,0.4l0.2,0.4l0.2,0.4l0.2,0.4l0.2,0.4l0.2,0.4l0.2,0.3l0.2,0.3l0.2,0.3l0.2,0.3l0.2,0.3l0.2,0.3l0.2,0.3
					l0.2,0.3l0.2,0.3l0.2,0.3l0.2,0.3l0.2,0.3l0.2,0.3l0.2,0.3l0.2,0.3l0.2,0.3l0.2,0.3l0.2,0.3l0.2,0.3l0.2,0.3l0.2,0.3l0.2,0.3
					l0.2,0.3l0.2,0.3l0.2,0.3l0.2,0.3l0.2,0.3l0.2,0.3l0.2,0.3l0.2,0.3l0.2,0.2l0.2,0.2l0.2,0.2l0.2,0.2l0.2,0.2l0.2,0.2l0.2,0.2
					l0.2,0.2l0.2,0.2l0.2,0.2l0.2,0.2l0.2,0.2l0.2,0.2l0.2,0.2l0.2,0.2l0.2,0.2l0.2,0.2l0.2,0.2l0.2,0.2l0.2,0.2l0.2,0.2l0.2,0.2
					l0.2,0.2l0.2,0.2l0.2,0.2l0.2,0.2l0.2,0.2l0.2,0.2l0.2,0.2l0.2,0.2l0.2,0.2l0.2,0.2l0.2,0.2l0.2,0.2l0.2,0.2l0.2,0.2l0.2,0.2
					l0.2,0.2l0.2,0.1l0.2,0.1l0.2,0.1l0.2,0.1l0.2,0.1l0.2,0.1l0.2,0.1l0.2,0.1l0.2,0.1l0.2,0.1l0.2,0.1l0.2,0.1l0.2,0.1l0.2,0.1
					l0.2,0.1l0.2,0.1l0.2,0.1l0.2,0.1l0.2,0.1l0.2,0.1l0.2,0.1l0.2,0.1l0.2,0.1l0.2,0.1l0.2,0.1l0.2,0.1l0.2,0.1l0.2,0.1l0.2,0.1
					l0.2,0.1l0.2,0.1l0.2,0.1l0.2,0.1l0.2,0.1l0.2,0.1l0.2,0.1l0.2,0.1l0.2,0.1l0.2,0.1l0.2,0.1l0.2,0.1l0.2,0.1l0.2,0.1l0.2,0.1
					l0.2,0.1l0.2,0.1l0.2,0.1l0.2,0.1l0.2,0.1l0.2,0.1l0.2,0.1l0.2,0.1l0.2,0.1l0.2,0.1l0.2,0.1l0.2,0.1l0.2,0.1l0.2,0.1l0.2,0.1
					l0.2,0.1l0.2,0.1l0.2,0.1l0.2,0.1l0.2,0.1l0.2,0.1l0.2,0.1l0.2,0l0.2,0l0.2,0l0.2,0l0.2,0l0.2,0l0.2,0l0.2,0l0.2,0l0.2,0l0.2,0
					l0.2,0l0.2,0l0.2,0l0.2,0l0.2,0l0.2,0l0.2,0l0.2,0l0.2,0l0.2,0l0.2,0l0.2,0l0.2,0l0.2,0l0.2,0l0.2,0l0.2,0l0.2,0l0.2,0l0.2,0
					l0.2,0l0.2,0l0.2,0l0.2,0l0.2,0l0.2,0l0.2,0l0.2,0l0.2,0l0.2,0l0.2,0l0.2,0l0.2,0l0.2,0l0.2,0l0.2,0l0.2,0l0.2,0l0.2,0l0.2,0
					l0.2,0l0.2,0l0.2,0l0.2,0l0.2,0l0.2,0l0.2,0l0.2,0l0.2,0l0.2,0l0.2,0l0.2,0l0.2,0l0.2,0l0.2,0l0.2,0l0.2,0l0.2,0l0.2,0l0.2,0
					l0.2,0l0.2,0l0.2,0l0.2,0l0.2,0l0.2,0l0.2,0l0.2,0l0.2,0l0.2,0l0.2,0l0.2,0l0.2,0l0.2,0l0.2,0l0.2,0l0.2,0l0.2,0l0.2,0l0.2,0
					l0.2,0l0.2,0l0.2,0l0.2,0l0.2,0l0.2,0l0.2,0l0.2,0l0.2,0l0.2,0l0.2,0l0.2,0l0.2,0l0.2,0l0.2,0l0.2,0l0.2,0l0.2,0l0.2,0l0.2,0
					l0.2,0l0.2,0v0.1l0,0h-0.2h-0.2h-0.2H348h-0.2h-0.2h-0.2h-0.2h-0.2h-0.2h-0.2h-0.2h-0.2h-0.2h-0.2h-0.2h-0.2H345h-0.2h-0.2h-0.2
					h-0.2H344h-0.2h-0.2h-0.2h-0.2h-0.2h-0.2h-0.2h-0.2H342h-0.2h-0.2h-0.2h-0.2H341h-0.2h-0.2h-0.2h-0.2h-0.2h-0.2h-0.2h-0.2H339
					h-0.2h-0.2h-0.2h-0.2H338h-0.2h-0.2h-0.2h-0.2h-0.2h-0.2h-0.2h-0.2H336h-0.2h-0.2h-0.2h-0.2H335h-0.2h-0.2h-0.2h-0.2h-0.2h-0.2
					h-0.2h-0.2H333h-0.2h-0.2h-0.2h-0.2H332h-0.2h-0.2h-0.2h-0.2h-0.2h-0.2h-0.2h-0.2h-0.2h-0.2h-0.2h-0.2h-0.2H329h-0.2h-0.2h-0.2
					h-0.2h-0.2h-0.2h-0.2h-0.2h-0.2h-0.2h-0.2h-0.2h-0.2H326h-0.2h-0.2h-0.2h-0.2h-0.2h-0.2h-0.2h-0.2h-0.2h-0.2h-0.2h-0.2h-0.2H323
					h-0.2h-0.2h-0.2h-0.2h-0.2h-0.2h-0.2h-0.2h-0.2h-0.2h-0.2h-0.2h-0.2H320h-0.2h-0.2h-0.2h-0.2h-0.2h-0.2h-0.2h-0.2h-0.2h-0.2
					h-0.2h-0.2h-0.2H317h-0.2h-0.2h-0.2h-0.2h-0.2h-0.2h-0.2h-0.2h-0.2h-0.2h-0.2h-0.2h-0.2H314h-0.2h-0.2h-0.2h-0.2h-0.2h-0.2h-0.2
					h-0.2h-0.2h-0.2h-0.2h-0.2h-0.2H311h-0.2h-0.2h-0.2h-0.2h-0.2h-0.2h-0.2h-0.2h-0.2h-0.2h-0.2h-0.2h-0.2H308h-0.2h-0.2h-0.2h-0.2
					H307h-0.2h-0.2h-0.2h-0.2h-0.2h-0.2h-0.2h-0.2H305h-0.2h-0.2h-0.2h-0.2H304h-0.2h-0.2h-0.2h-0.2h-0.2h-0.2h-0.2h-0.2H302h-0.2
					h-0.2h-0.2h-0.2H301h-0.2h-0.2h-0.2h-0.2h-0.2h-0.2h-0.2h-0.2H299h-0.2h-0.2h-0.2h-0.2H298h-0.2h-0.2h-0.2h-0.2h-0.2h-0.2h-0.2
					h-0.2H296h-0.2h-0.2h-0.2h-0.2H295h-0.2h-0.2h-0.2h-0.2h-0.2h-0.2h-0.2h-0.2h-0.2h-0.2h-0.2h-0.2h-0.2H292h-0.2h-0.2h-0.2h-0.2
					h-0.2h-0.2h-0.2h-0.2h-0.2h-0.2h-0.2h-0.2h-0.2H289h-0.2h-0.2h-0.2h-0.2h-0.2h-0.2h-0.2h-0.2h-0.2h-0.2h-0.2h-0.2h-0.2H286h-0.2
					h-0.2h-0.2h-0.2h-0.2h-0.2h-0.2h-0.2h-0.2h-0.2h-0.2h-0.2h-0.2H283h-0.2h-0.2h-0.2h-0.2h-0.2h-0.2h-0.2h-0.2h-0.2h-0.2h-0.2
					h-0.2h-0.2H280h-0.2h-0.2h-0.2h-0.2h-0.2h-0.2h-0.2h-0.2h-0.2h-0.2h-0.2h-0.2h-0.2H277h-0.2h-0.2h-0.2h-0.2h-0.2h-0.2h-0.2h-0.2
					h-0.2h-0.2h-0.2h-0.2h-0.2H274h-0.2h-0.2h-0.2h-0.2h-0.2h-0.2h-0.2h-0.2h-0.2h-0.2h-0.2h-0.2h-0.2H271h-0.2h-0.2h-0.2h-0.2H270
					h-0.2h-0.2h-0.2h-0.2h-0.2h-0.2h-0.2h-0.2H268h-0.2h-0.2h-0.2h-0.2H267h-0.2h-0.2h-0.2h-0.2h-0.2h-0.2h-0.2h-0.2H265h-0.2h-0.2
					h-0.2h-0.2H264h-0.2h-0.2h-0.2h-0.2h-0.2h-0.2h-0.2h-0.2H262h-0.2h-0.2h-0.2h-0.2H261h-0.2h-0.2h-0.2h-0.2h-0.2h-0.2h-0.2h-0.2
					H259h-0.2h-0.2h-0.2h-0.2H258h-0.2h-0.2h-0.2h-0.2h-0.2h-0.2h-0.2h-0.2h-0.2h-0.2h-0.2h-0.2h-0.2H255h-0.2h-0.2h-0.2h-0.2h-0.2
					h-0.2h-0.2h-0.2h-0.2h-0.2h-0.2h-0.2h-0.2H252h-0.2h-0.2h-0.2h-0.2h-0.2h-0.2h-0.2h-0.2h-0.2h-0.2h-0.2h-0.2h-0.2H249h-0.2h-0.2
					h-0.2h-0.2h-0.2h-0.2h-0.2h-0.2h-0.2h-0.2h-0.2h-0.2h-0.2H246h-0.2h-0.2h-0.2h-0.2h-0.2h-0.2h-0.2h-0.2h-0.2h-0.2h-0.2h-0.2
					h-0.2H243h-0.2h-0.2h-0.2h-0.2h-0.2h-0.2h-0.2h-0.2h-0.2h-0.2h-0.2h-0.2h-0.2H240h-0.2h-0.2h-0.2h-0.2h-0.2h-0.2h-0.2h-0.2h-0.2
					h-0.2h-0.2h-0.2h-0.2H237h-0.2h-0.2h-0.2h-0.2h-0.2h-0.2h-0.2h-0.2h-0.2h-0.2h-0.2h-0.2h-0.2H234h-0.2h-0.2h-0.2h-0.2H233h-0.2
					h-0.2h-0.2h-0.2h-0.2h-0.2h-0.2h-0.2H231h-0.2h-0.2h-0.2h-0.2H230h-0.2h-0.2h-0.2h-0.2h-0.2h-0.2h-0.2h-0.2H228h-0.2h-0.2h-0.2
					h-0.2H227h-0.2h-0.2h-0.2h-0.2h-0.2h-0.2h-0.2h-0.2H225h-0.2h-0.2h-0.2h-0.2H224h-0.2h-0.2h-0.2h-0.2h-0.2h-0.2h-0.2h-0.2H222
					h-0.2h-0.2h-0.2h-0.2H221h-0.2h-0.2h-0.2h-0.2h-0.2h-0.2h-0.2h-0.2h-0.2h-0.2h-0.2h-0.2h-0.2H218h-0.2h-0.2h-0.2h-0.2h-0.2h-0.2
					h-0.2h-0.2h-0.2h-0.2h-0.2h-0.2h-0.2H215h-0.2h-0.2h-0.2h-0.2h-0.2h-0.2h-0.2h-0.2h-0.2h-0.2h-0.2h-0.2h-0.2H212h-0.2h-0.2h-0.2
					h-0.2h-0.2h-0.2h-0.2h-0.2h-0.2h-0.2h-0.2h-0.2h-0.2H209h-0.2h-0.2h-0.2h-0.2h-0.2h-0.2h-0.2h-0.2h-0.2h-0.2h-0.2h-0.2h-0.2H206
					h-0.2h-0.2h-0.2h-0.2h-0.2h-0.2h-0.2h-0.2h-0.2h-0.2h-0.2h-0.2h-0.2H203h-0.2h-0.2h-0.2h-0.2h-0.2h-0.2h-0.2h-0.2h-0.2h-0.2
					h-0.2h-0.2h-0.2H200h-0.2h-0.2h-0.2h-0.2h-0.2h-0.2h-0.2h-0.2h-0.2h-0.2h-0.2h-0.2h-0.2H197h-0.2h-0.2h-0.2h-0.2H196h-0.2h-0.2
					h-0.2h-0.2h-0.2h-0.2h-0.2h-0.2H194h-0.2h-0.2h-0.2h-0.2H193h-0.2h-0.2h-0.2h-0.2h-0.2h-0.2h-0.2h-0.2H191h-0.2h-0.2h-0.2h-0.2
					H190h-0.2h-0.2h-0.2h-0.2h-0.2h-0.2h-0.2h-0.2H188h-0.2h-0.2h-0.2h-0.2H187h-0.2h-0.2h-0.2h-0.2h-0.2h-0.2h-0.2h-0.2H185h-0.2
					h-0.2h-0.2h-0.2H184h-0.2h-0.2h-0.2h-0.2h-0.2h-0.2h-0.2h-0.2h-0.2h-0.2h-0.2h-0.2h-0.2H181h-0.2h-0.2h-0.2h-0.2h-0.2h-0.2h-0.2
					h-0.2h-0.2h-0.2h-0.2h-0.2h-0.2H178h-0.2h-0.2h-0.2h-0.2h-0.2h-0.2h-0.2h-0.2h-0.2h-0.2h-0.2h-0.2h-0.2H175h-0.2h-0.2h-0.2h-0.2
					h-0.2h-0.2h-0.2h-0.2h-0.2h-0.2h-0.2h-0.2h-0.2H172h-0.2h-0.2h-0.2h-0.2h-0.2h-0.2h-0.2h-0.2h-0.2h-0.2h-0.2h-0.2h-0.2H169h-0.2
					h-0.2h-0.2h-0.2h-0.2h-0.2h-0.2h-0.2h-0.2h-0.2h-0.2h-0.2h-0.2H166h-0.2h-0.2h-0.2h-0.2h-0.2h-0.2h-0.2h-0.2h-0.2h-0.2h-0.2
					h-0.2h-0.2H163h-0.2h-0.2h-0.2h-0.2H162h-0.2h-0.2h-0.2h-0.2h-0.2h-0.2h-0.2h-0.2H160h-0.2h-0.2h-0.2h-0.2H159h-0.2h-0.2h-0.2
					h-0.2h-0.2h-0.2h-0.2h-0.2H157h-0.2h-0.2h-0.2h-0.2H156h-0.2h-0.2h-0.2h-0.2h-0.2h-0.2h-0.2h-0.2H154h-0.2h-0.2h-0.2h-0.2H153
					h-0.2h-0.2h-0.2h-0.2h-0.2h-0.2h-0.2h-0.2H151h-0.2h-0.2h-0.2h-0.2H150h-0.2h-0.2h-0.2h-0.2h-0.2h-0.2h-0.2h-0.2H148h-0.2h-0.2
					h-0.2h-0.2H147h-0.2h-0.2h-0.2h-0.2h-0.2h-0.2h-0.2h-0.2h-0.2h-0.2h-0.2h-0.2h-0.2H144h-0.2h-0.2h-0.2h-0.2h-0.2h-0.2h-0.2h-0.2
					h-0.2h-0.2h-0.2h-0.2h-0.2H141h-0.2h-0.2h-0.2h-0.2h-0.2h-0.2h-0.2h-0.2h-0.2h-0.2h-0.2h-0.2h-0.2H138h-0.2h-0.2h-0.2h-0.2h-0.2
					h-0.2h-0.2h-0.2h-0.2h-0.2h-0.2h-0.2H135.2z"/>
			</g>
		</g>
	</g>
</g>
<g id="PolyCollection_3">
	<g>
		<defs>
			<rect id="SVGID_00000004543669070624254870000016767766656673906107_" x="39.8" y="9.7" width="400" height="309.8"/>
		</defs>
		<clipPath id="SVGID_00000155844180362193509320000003804262036974021781_">
			<use xlink:href="#SVGID_00000004543669070624254870000016767766656673906107_"  style="overflow:visible;"/>
		</clipPath>
		<g style="clip-path:url(#SVGID_00000155844180362193509320000003804262036974021781_);">
			<g>
				<path id="m23126f8085" class="st5" d="M188.4,319.5v-0.3l0.1,0l0.1,0l0.1,0l0.1,0l0.1,0l0.1,0l0.1,0l0.1,0l0.1,0l0.1,0l0.1,0
					l0.1,0l0.1,0l0.1,0l0.1,0l0.1,0l0.1,0l0.1,0l0.1,0l0.1,0l0.1,0l0.1,0l0.1,0l0.1,0l0.1,0l0.1,0l0.1,0l0.1,0l0.1,0l0.1,0l0.1,0
					l0.1,0l0.1,0l0.1,0l0.1,0l0.1,0l0.1,0l0.1,0l0.1,0l0.1,0l0.1,0l0.1,0l0.1,0l0.1,0l0.1,0l0.1,0l0.1,0l0.1,0l0.1,0l0.1,0l0.1,0
					l0.1,0l0.1,0l0.1,0l0.1,0l0.1,0l0.1,0l0.1,0l0.1,0l0.1,0l0.1,0l0.1,0l0.1,0l0.1,0l0.1,0l0.1,0l0.1,0l0.1,0l0.1,0l0.1,0l0.1,0
					l0.1,0l0.1,0l0.1,0l0.1,0l0.1,0l0.1,0l0.1,0l0.1-0.1l0.1-0.1l0.1-0.1l0.1-0.1l0.1-0.1l0.1-0.1l0.1-0.1l0.1-0.1l0.1-0.1l0.1-0.1
					l0.1-0.1l0.1-0.1l0.1-0.1l0.1-0.1l0.1-0.1l0.1-0.1l0.1-0.1l0.1-0.1l0.1-0.1l0.1-0.1l0.1-0.1l0.1-0.1l0.1-0.1l0.1-0.1l0.1-0.1
					l0.1-0.1l0.1-0.1l0.1-0.1l0.1-0.1l0.1-0.1l0.1-0.1l0.1-0.1l0.1-0.1l0.1-0.1l0.1-0.1l0.1-0.1l0.1-0.1l0.1-0.1l0.1-0.1l0.1-0.1
					l0.1-0.1l0.1-0.1l0.1-0.1l0.1-0.1l0.1-0.1l0.1-0.1l0.1-0.1l0.1-0.1l0.1-0.1l0.1-0.1l0.1-0.1l0.1-0.1l0.1-0.1l0.1-0.1l0.1-0.1
					l0.1-0.1l0.1-0.1l0.1-0.2l0.1-0.2l0.1-0.2l0.1-0.2l0.1-0.2l0.1-0.2l0.1-0.2l0.1-0.2l0.1-0.2l0.1-0.2l0.1-0.2l0.1-0.2l0.1-0.2
					l0.1-0.2l0.1-0.2l0.1-0.2l0.1-0.2l0.1-0.2l0.1-0.2l0.1-0.2l0.1-0.2l0.1-0.2l0.1-0.2l0.1-0.2l0.1-0.2l0.1-0.2l0.1-0.2l0.1-0.2
					l0.1-0.2l0.1-0.2l0.1-0.2l0.1-0.3l0.1-0.3l0.1-0.3l0.1-0.3l0.1-0.3l0.1-0.3l0.1-0.3l0.1-0.3l0.1-0.3l0.1-0.3l0.1-0.3l0.1-0.3
					l0.1-0.3l0.1-0.3l0.1-0.3l0.1-0.3l0.1-0.3l0.1-0.3l0.1-0.3l0.1-0.3l0.1-0.3l0.1-0.3l0.1-0.3l0.1-0.4l0.1-0.4l0.1-0.4l0.1-0.4
					l0.1-0.4l0.1-0.4l0.1-0.4l0.1-0.4l0.1-0.4l0.1-0.4l0.1-0.4l0.1-0.4l0.1-0.4l0.1-0.4l0.1-0.4l0.1-0.4l0.1-0.4l0.1-0.4l0.1-0.4
					l0.1-0.5l0.1-0.5l0.1-0.5l0.1-0.5l0.1-0.5l0.1-0.5l0.1-0.5l0.1-0.5l0.1-0.5l0.1-0.5l0.1-0.5l0.1-0.5l0.1-0.5l0.1-0.5l0.1-0.5
					l0.1-0.5l0.1-0.6l0.1-0.6l0.1-0.6l0.1-0.6l0.1-0.6l0.1-0.6l0.1-0.6l0.1-0.6l0.1-0.6l0.1-0.6l0.1-0.6l0.1-0.6l0.1-0.6l0.1-0.6
					l0.1-0.6l0.1-0.7l0.1-0.7l0.1-0.7l0.1-0.7l0.1-0.7l0.1-0.7l0.1-0.7l0.1-0.7l0.1-0.7l0.1-0.7l0.1-0.7l0.1-0.7l0.1-0.7l0.1-0.7
					l0.1-0.8l0.1-0.8l0.1-0.8l0.1-0.8l0.1-0.8l0.1-0.8l0.1-0.8l0.1-0.8l0.1-0.8l0.1-0.8l0.1-0.8l0.1-0.8l0.1-0.8l0.1-0.8l0.1-0.9
					l0.1-0.9l0.1-0.9l0.1-0.9l0.1-0.9l0.1-0.9l0.1-0.9l0.1-0.9l0.1-0.9l0.1-0.9l0.1-0.9l0.1-0.9l0.1-0.9l0.1-0.9l0.1-1l0.1-1l0.1-1
					l0.1-1l0.1-1l0.1-1l0.1-1l0.1-1l0.1-1l0.1-1l0.1-1l0.1-1l0.1-1l0.1-1l0.1-1.1l0.1-1.1l0.1-1.1l0.1-1.1l0.1-1.1l0.1-1.1l0.1-1.1
					l0.1-1.1l0.1-1.1l0.1-1.1l0.1-1.1l0.1-1.1l0.1-1.1l0.1-1.1l0.1-1.1l0.1-1.1l0.1-1.2l0.1-1.2l0.1-1.2l0.1-1.2l0.1-1.2l0.1-1.2
					l0.1-1.2l0.1-1.2l0.1-1.2l0.1-1.2l0.1-1.2l0.1-1.2l0.1-1.2l0.1-1.2l0.1-1.2l0.1-1.2l0.1-1.2l0.1-1.2l0.1-1.2l0.1-1.3l0.1-1.3
					l0.1-1.3l0.1-1.3l0.1-1.3l0.1-1.3l0.1-1.3l0.1-1.3l0.1-1.3l0.1-1.3l0.1-1.3l0.1-1.3l0.1-1.3l0.1-1.3l0.1-1.3l0.1-1.3l0.1-1.3
					l0.1-1.3l0.1-1.3l0.1-1.3l0.1-1.3l0.1-1.3l0.1-1.3l0.1-1.3l0.1-1.3l0.1-1.3l0.1-1.3l0.1-1.3l0.1-1.3l0.1-1.3l0.1-1.3l0.1-1.3
					l0.1-1.3l0.1-1.3l0.1-1.3l0.1-1.3l0.1-1.3l0.1-1.3l0.1-1.3l0.1-1.3l0.1-1.3l0.1-1.3l0.1-1.3l0.1-1.3l0.1-1.3l0.1-1.3l0.1-1.3
					l0.1-1.3l0.1-1.3l0.1-1.3l0.1-1.3l0.1-1.3l0.1-1.3l0.1-1.3l0.1-1.3l0.1-1.3l0.1-1.3l0.1-1.3l0.1-1.3l0.1-1.3l0.1-1.3l0.1-1.3
					l0.1-1.3l0.1-1.3l0.1-1.3l0.1-1.3l0.1-1.3l0.1-1.3l0.1-1.2l0.1-1.2l0.1-1.2l0.1-1.2l0.1-1.2l0.1-1.2l0.1-1.2l0.1-1.2l0.1-1.2
					l0.1-1.2l0.1-1.2l0.1-1.2l0.1-1.2l0.1-1.2l0.1-1.2l0.1-1.1l0.1-1.1l0.1-1.1l0.1-1.1l0.1-1.1l0.1-1.1l0.1-1.1l0.1-1.1l0.1-1.1
					l0.1-1.1l0.1-1.1l0.1-1l0.1-1l0.1-1l0.1-1l0.1-1l0.1-1l0.1-1l0.1-1l0.1-1l0.1-1l0.1-0.9l0.1-0.9l0.1-0.9l0.1-0.9l0.1-0.9
					l0.1-0.9l0.1-0.9l0.1-0.9l0.1-0.9l0.1-0.8l0.1-0.8l0.1-0.8l0.1-0.8l0.1-0.8l0.1-0.8l0.1-0.8l0.1-0.7l0.1-0.7l0.1-0.7l0.1-0.7
					l0.1-0.7l0.1-0.7l0.1-0.7l0.1-0.7l0.1-0.6L237,37l0.1-0.6l0.1-0.6l0.1-0.6l0.1-0.6l0.1-0.6l0.1-0.5l0.1-0.5l0.1-0.5L238,32
					l0.1-0.5l0.1-0.5l0.1-0.4l0.1-0.4l0.1-0.4l0.1-0.4l0.1-0.4l0.1-0.4l0.1-0.4l0.1-0.3l0.1-0.3l0.1-0.3l0.1-0.3l0.1-0.3l0.1-0.3
					l0.1-0.2l0.1-0.2l0.1-0.2l0.1-0.2l0.1-0.2l0.1-0.2l0.1-0.1l0.1-0.1l0.1-0.1l0.1-0.1l0.1-0.1l0.1-0.1l0.1,0l0.1,0l0.1,0h0.1
					l0.1,0l0.1,0l0.1,0l0.1,0.1l0.1,0.1l0.1,0.1l0.1,0.1l0.1,0.1l0.1,0.1l0.1,0.2l0.1,0.2l0.1,0.2l0.1,0.2l0.1,0.2l0.1,0.2l0.1,0.3
					l0.1,0.3l0.1,0.3l0.1,0.3l0.1,0.3l0.1,0.3l0.1,0.4l0.1,0.4l0.1,0.4l0.1,0.4l0.1,0.4l0.1,0.4l0.1,0.4l0.1,0.5l0.1,0.5l0.1,0.5
					l0.1,0.5l0.1,0.5l0.1,0.5l0.1,0.6l0.1,0.6l0.1,0.6l0.1,0.6l0.1,0.6l0.1,0.6l0.1,0.6l0.1,0.7l0.1,0.7l0.1,0.7l0.1,0.7l0.1,0.7
					l0.1,0.7l0.1,0.7l0.1,0.7l0.1,0.8l0.1,0.8l0.1,0.8l0.1,0.8l0.1,0.8l0.1,0.8l0.1,0.8l0.1,0.9l0.1,0.9l0.1,0.9l0.1,0.9l0.1,0.9
					l0.1,0.9l0.1,0.9l0.1,0.9l0.1,0.9l0.1,1l0.1,1l0.1,1l0.1,1l0.1,1l0.1,1l0.1,1l0.1,1l0.1,1l0.1,1l0.1,1.1l0.1,1.1l0.1,1.1
					l0.1,1.1l0.1,1.1l0.1,1.1l0.1,1.1l0.1,1.1l0.1,1.1l0.1,1.1l0.1,1.1l0.1,1.2l0.1,1.2l0.1,1.2l0.1,1.2l0.1,1.2l0.1,1.2l0.1,1.2
					l0.1,1.2l0.1,1.2l0.1,1.2l0.1,1.2l0.1,1.2l0.1,1.2l0.1,1.2l0.1,1.2L252,99l0.1,1.3l0.1,1.3l0.1,1.3l0.1,1.3l0.1,1.3l0.1,1.3
					l0.1,1.3l0.1,1.3l0.1,1.3l0.1,1.3l0.1,1.3l0.1,1.3l0.1,1.3l0.1,1.3l0.1,1.3l0.1,1.3l0.1,1.3l0.1,1.3l0.1,1.3l0.1,1.3l0.1,1.3
					l0.1,1.3l0.1,1.3l0.1,1.3l0.1,1.3l0.1,1.3l0.1,1.3l0.1,1.3l0.1,1.3l0.1,1.3l0.1,1.3l0.1,1.3l0.1,1.3l0.1,1.3l0.1,1.3l0.1,1.3
					l0.1,1.3l0.1,1.3l0.1,1.3l0.1,1.3l0.1,1.3l0.1,1.3l0.1,1.3l0.1,1.3l0.1,1.3l0.1,1.3l0.1,1.3l0.1,1.3l0.1,1.3l0.1,1.3l0.1,1.3
					l0.1,1.3l0.1,1.3l0.1,1.3l0.1,1.3l0.1,1.3l0.1,1.3l0.1,1.3l0.1,1.3l0.1,1.3l0.1,1.3l0.1,1.3l0.1,1.3l0.1,1.3l0.1,1.3l0.1,1.3
					l0.1,1.3l0.1,1.2l0.1,1.2l0.1,1.2l0.1,1.2l0.1,1.2l0.1,1.2l0.1,1.2l0.1,1.2l0.1,1.2l0.1,1.2l0.1,1.2l0.1,1.2l0.1,1.2l0.1,1.2
					l0.1,1.2l0.1,1.2l0.1,1.2l0.1,1.2l0.1,1.2l0.1,1.1l0.1,1.1l0.1,1.1l0.1,1.1l0.1,1.1l0.1,1.1l0.1,1.1l0.1,1.1l0.1,1.1l0.1,1.1
					l0.1,1.1l0.1,1.1l0.1,1.1l0.1,1.1l0.1,1.1l0.1,1.1l0.1,1l0.1,1l0.1,1l0.1,1l0.1,1l0.1,1l0.1,1l0.1,1l0.1,1l0.1,1l0.1,1l0.1,1
					l0.1,1l0.1,1l0.1,0.9l0.1,0.9l0.1,0.9l0.1,0.9l0.1,0.9l0.1,0.9l0.1,0.9l0.1,0.9l0.1,0.9l0.1,0.9l0.1,0.9l0.1,0.9l0.1,0.9
					l0.1,0.9l0.1,0.8l0.1,0.8l0.1,0.8l0.1,0.8l0.1,0.8l0.1,0.8l0.1,0.8l0.1,0.8l0.1,0.8l0.1,0.8l0.1,0.8l0.1,0.8l0.1,0.8l0.1,0.8
					l0.1,0.7l0.1,0.7l0.1,0.7l0.1,0.7l0.1,0.7l0.1,0.7l0.1,0.7l0.1,0.7l0.1,0.7l0.1,0.7l0.1,0.7l0.1,0.7l0.1,0.7l0.1,0.7l0.1,0.6
					l0.1,0.6l0.1,0.6l0.1,0.6l0.1,0.6l0.1,0.6l0.1,0.6l0.1,0.6l0.1,0.6l0.1,0.6l0.1,0.6l0.1,0.6l0.1,0.6l0.1,0.6l0.1,0.6l0.1,0.5
					l0.1,0.5l0.1,0.5l0.1,0.5l0.1,0.5l0.1,0.5l0.1,0.5l0.1,0.5l0.1,0.5l0.1,0.5l0.1,0.5l0.1,0.5l0.1,0.5l0.1,0.5l0.1,0.5l0.1,0.5
					l0.1,0.4l0.1,0.4l0.1,0.4l0.1,0.4l0.1,0.4l0.1,0.4l0.1,0.4l0.1,0.4l0.1,0.4l0.1,0.4l0.1,0.4l0.1,0.4l0.1,0.4l0.1,0.4l0.1,0.4
					l0.1,0.4l0.1,0.4l0.1,0.4l0.1,0.4l0.1,0.3l0.1,0.3l0.1,0.3l0.1,0.3l0.1,0.3l0.1,0.3l0.1,0.3l0.1,0.3l0.1,0.3l0.1,0.3l0.1,0.3
					l0.1,0.3l0.1,0.3l0.1,0.3l0.1,0.3l0.1,0.3l0.1,0.3l0.1,0.3l0.1,0.3l0.1,0.3l0.1,0.3l0.1,0.3l0.1,0.3l0.1,0.2l0.1,0.2l0.1,0.2
					l0.1,0.2l0.1,0.2l0.1,0.2l0.1,0.2l0.1,0.2l0.1,0.2l0.1,0.2l0.1,0.2l0.1,0.2l0.1,0.2l0.1,0.2l0.1,0.2l0.1,0.2l0.1,0.2l0.1,0.2
					l0.1,0.2l0.1,0.2l0.1,0.2l0.1,0.2l0.1,0.2l0.1,0.2l0.1,0.2l0.1,0.2l0.1,0.2l0.1,0.2l0.1,0.2l0.1,0.2l0.1,0.2l0.1,0.1l0.1,0.1
					l0.1,0.1l0.1,0.1l0.1,0.1l0.1,0.1l0.1,0.1l0.1,0.1l0.1,0.1l0.1,0.1l0.1,0.1l0.1,0.1l0.1,0.1l0.1,0.1l0.1,0.1l0.1,0.1l0.1,0.1
					l0.1,0.1l0.1,0.1l0.1,0.1l0.1,0.1l0.1,0.1l0.1,0.1l0.1,0.1l0.1,0.1l0.1,0.1l0.1,0.1l0.1,0.1l0.1,0.1l0.1,0.1l0.1,0.1l0.1,0.1
					l0.1,0.1l0.1,0.1l0.1,0.1l0.1,0.1l0.1,0.1l0.1,0.1l0.1,0.1l0.1,0.1l0.1,0.1l0.1,0.1l0.1,0.1l0.1,0.1l0.1,0.1l0.1,0.1l0.1,0.1
					l0.1,0.1l0.1,0.1l0.1,0.1l0.1,0.1l0.1,0.1l0.1,0.1l0.1,0.1l0.1,0.1l0.1,0.1l0.1,0.1l0.1,0l0.1,0l0.1,0l0.1,0l0.1,0l0.1,0l0.1,0
					l0.1,0l0.1,0l0.1,0l0.1,0l0.1,0l0.1,0l0.1,0l0.1,0l0.1,0l0.1,0l0.1,0l0.1,0l0.1,0l0.1,0l0.1,0l0.1,0l0.1,0l0.1,0l0.1,0l0.1,0
					l0.1,0l0.1,0l0.1,0l0.1,0l0.1,0l0.1,0l0.1,0l0.1,0l0.1,0l0.1,0l0.1,0l0.1,0l0.1,0l0.1,0l0.1,0l0.1,0l0.1,0l0.1,0l0.1,0l0.1,0
					l0.1,0l0.1,0l0.1,0l0.1,0l0.1,0l0.1,0l0.1,0l0.1,0l0.1,0l0.1,0l0.1,0l0.1,0l0.1,0l0.1,0l0.1,0l0.1,0l0.1,0l0.1,0l0.1,0l0.1,0
					l0.1,0l0.1,0l0.1,0l0.1,0l0.1,0l0.1,0l0.1,0l0.1,0l0.1,0l0.1,0l0.1,0v0.3l0,0h-0.1h-0.1h-0.1h-0.1h-0.1h-0.1h-0.1h-0.1h-0.1
					h-0.1h-0.1h-0.1h-0.1h-0.1h-0.1h-0.1h-0.1h-0.1H292h-0.1h-0.1h-0.1h-0.1h-0.1h-0.1h-0.1h-0.1H291h-0.1h-0.1h-0.1h-0.1h-0.1h-0.1
					h-0.1h-0.1h-0.1H290h-0.1h-0.1h-0.1h-0.1h-0.1h-0.1h-0.1h-0.1H289h-0.1h-0.1h-0.1h-0.1h-0.1h-0.1h-0.1h-0.1h-0.1H288h-0.1h-0.1
					h-0.1h-0.1h-0.1h-0.1h-0.1h-0.1H287h-0.1h-0.1h-0.1h-0.1h-0.1h-0.1h-0.1h-0.1h-0.1H286h-0.1h-0.1h-0.1h-0.1h-0.1h-0.1h-0.1h-0.1
					H285h-0.1h-0.1h-0.1h-0.1h-0.1h-0.1h-0.1h-0.1h-0.1H284h-0.1h-0.1h-0.1h-0.1h-0.1h-0.1h-0.1h-0.1H283h-0.1h-0.1h-0.1h-0.1h-0.1
					h-0.1h-0.1h-0.1h-0.1H282h-0.1h-0.1h-0.1h-0.1h-0.1h-0.1h-0.1h-0.1H281h-0.1h-0.1h-0.1h-0.1h-0.1h-0.1h-0.1h-0.1h-0.1h-0.1h-0.1
					h-0.1h-0.1h-0.1h-0.1h-0.1h-0.1h-0.1H279h-0.1h-0.1h-0.1h-0.1h-0.1h-0.1h-0.1h-0.1H278h-0.1h-0.1h-0.1h-0.1h-0.1h-0.1h-0.1h-0.1
					h-0.1H277h-0.1h-0.1h-0.1h-0.1h-0.1h-0.1h-0.1h-0.1H276h-0.1h-0.1h-0.1h-0.1h-0.1h-0.1h-0.1h-0.1h-0.1H275h-0.1h-0.1h-0.1h-0.1
					h-0.1h-0.1h-0.1h-0.1H274h-0.1h-0.1h-0.1h-0.1h-0.1h-0.1h-0.1h-0.1h-0.1H273h-0.1h-0.1h-0.1h-0.1h-0.1h-0.1h-0.1h-0.1H272h-0.1
					h-0.1h-0.1h-0.1h-0.1h-0.1h-0.1h-0.1h-0.1H271h-0.1h-0.1h-0.1h-0.1h-0.1h-0.1h-0.1h-0.1H270h-0.1h-0.1h-0.1h-0.1h-0.1h-0.1h-0.1
					h-0.1h-0.1H269h-0.1h-0.1h-0.1h-0.1h-0.1h-0.1h-0.1h-0.1H268h-0.1h-0.1h-0.1h-0.1h-0.1h-0.1h-0.1h-0.1h-0.1h-0.1h-0.1h-0.1h-0.1
					h-0.1h-0.1h-0.1h-0.1h-0.1H266h-0.1h-0.1h-0.1h-0.1h-0.1h-0.1h-0.1h-0.1H265h-0.1h-0.1h-0.1h-0.1h-0.1h-0.1h-0.1h-0.1h-0.1H264
					h-0.1h-0.1h-0.1h-0.1h-0.1h-0.1h-0.1h-0.1H263h-0.1h-0.1h-0.1h-0.1h-0.1h-0.1h-0.1h-0.1h-0.1H262h-0.1h-0.1h-0.1h-0.1h-0.1h-0.1
					h-0.1h-0.1H261h-0.1h-0.1h-0.1h-0.1h-0.1h-0.1h-0.1h-0.1h-0.1H260h-0.1h-0.1h-0.1h-0.1h-0.1h-0.1h-0.1h-0.1H259h-0.1h-0.1h-0.1
					h-0.1h-0.1h-0.1h-0.1h-0.1h-0.1H258h-0.1h-0.1h-0.1h-0.1h-0.1h-0.1h-0.1h-0.1H257h-0.1h-0.1h-0.1h-0.1h-0.1h-0.1h-0.1h-0.1h-0.1
					H256h-0.1h-0.1h-0.1h-0.1h-0.1h-0.1h-0.1h-0.1H255h-0.1h-0.1h-0.1h-0.1h-0.1h-0.1h-0.1h-0.1h-0.1h-0.1h-0.1h-0.1h-0.1h-0.1h-0.1
					h-0.1h-0.1h-0.1H253h-0.1h-0.1h-0.1h-0.1h-0.1h-0.1h-0.1h-0.1H252h-0.1h-0.1h-0.1h-0.1h-0.1h-0.1h-0.1h-0.1h-0.1H251h-0.1h-0.1
					h-0.1h-0.1h-0.1h-0.1h-0.1h-0.1H250h-0.1h-0.1h-0.1h-0.1h-0.1h-0.1h-0.1h-0.1h-0.1H249h-0.1h-0.1h-0.1h-0.1h-0.1h-0.1h-0.1h-0.1
					H248h-0.1h-0.1h-0.1h-0.1h-0.1h-0.1h-0.1h-0.1h-0.1H247h-0.1h-0.1h-0.1h-0.1h-0.1h-0.1h-0.1h-0.1H246h-0.1h-0.1h-0.1h-0.1h-0.1
					h-0.1h-0.1h-0.1h-0.1H245h-0.1h-0.1h-0.1h-0.1h-0.1h-0.1h-0.1h-0.1H244h-0.1h-0.1h-0.1h-0.1h-0.1h-0.1h-0.1h-0.1h-0.1H243h-0.1
					h-0.1h-0.1h-0.1h-0.1h-0.1h-0.1h-0.1H242h-0.1h-0.1h-0.1h-0.1h-0.1h-0.1h-0.1h-0.1h-0.1h-0.1h-0.1h-0.1h-0.1h-0.1h-0.1h-0.1
					h-0.1h-0.1H240h-0.1h-0.1h-0.1h-0.1h-0.1h-0.1h-0.1h-0.1H239h-0.1h-0.1h-0.1h-0.1h-0.1h-0.1h-0.1h-0.1h-0.1H238h-0.1h-0.1h-0.1
					h-0.1h-0.1h-0.1h-0.1h-0.1H237h-0.1h-0.1h-0.1h-0.1h-0.1h-0.1h-0.1h-0.1h-0.1H236h-0.1h-0.1h-0.1h-0.1h-0.1h-0.1h-0.1h-0.1H235
					h-0.1h-0.1h-0.1h-0.1h-0.1h-0.1h-0.1h-0.1h-0.1H234h-0.1h-0.1h-0.1h-0.1h-0.1h-0.1h-0.1h-0.1H233h-0.1h-0.1h-0.1h-0.1h-0.1h-0.1
					h-0.1h-0.1h-0.1H232h-0.1h-0.1h-0.1h-0.1h-0.1h-0.1h-0.1h-0.1H231h-0.1h-0.1h-0.1h-0.1h-0.1h-0.1h-0.1h-0.1h-0.1H230h-0.1h-0.1
					h-0.1h-0.1h-0.1h-0.1h-0.1h-0.1H229h-0.1h-0.1h-0.1h-0.1h-0.1h-0.1h-0.1h-0.1h-0.1h-0.1h-0.1h-0.1h-0.1h-0.1h-0.1h-0.1h-0.1
					h-0.1H227h-0.1h-0.1h-0.1h-0.1h-0.1h-0.1h-0.1h-0.1H226h-0.1h-0.1h-0.1h-0.1h-0.1h-0.1h-0.1h-0.1h-0.1H225h-0.1h-0.1h-0.1h-0.1
					h-0.1h-0.1h-0.1h-0.1H224h-0.1h-0.1h-0.1h-0.1h-0.1h-0.1h-0.1h-0.1h-0.1H223h-0.1h-0.1h-0.1h-0.1h-0.1h-0.1h-0.1h-0.1H222h-0.1
					h-0.1h-0.1h-0.1h-0.1h-0.1h-0.1h-0.1h-0.1H221h-0.1h-0.1h-0.1h-0.1h-0.1h-0.1h-0.1h-0.1H220h-0.1h-0.1h-0.1h-0.1h-0.1h-0.1h-0.1
					h-0.1h-0.1H219h-0.1h-0.1h-0.1h-0.1h-0.1h-0.1h-0.1h-0.1H218h-0.1h-0.1h-0.1h-0.1h-0.1h-0.1h-0.1h-0.1h-0.1H217h-0.1h-0.1h-0.1
					h-0.1h-0.1h-0.1h-0.1h-0.1H216h-0.1h-0.1h-0.1h-0.1h-0.1h-0.1h-0.1h-0.1h-0.1h-0.1h-0.1h-0.1h-0.1h-0.1h-0.1h-0.1h-0.1h-0.1H214
					h-0.1h-0.1h-0.1h-0.1h-0.1h-0.1h-0.1h-0.1H213h-0.1h-0.1h-0.1h-0.1h-0.1h-0.1h-0.1h-0.1h-0.1H212h-0.1h-0.1h-0.1h-0.1h-0.1h-0.1
					h-0.1h-0.1H211h-0.1h-0.1h-0.1h-0.1h-0.1h-0.1h-0.1h-0.1h-0.1H210h-0.1h-0.1h-0.1h-0.1h-0.1h-0.1h-0.1h-0.1H209h-0.1h-0.1h-0.1
					h-0.1h-0.1h-0.1h-0.1h-0.1h-0.1H208h-0.1h-0.1h-0.1h-0.1h-0.1h-0.1h-0.1h-0.1H207h-0.1h-0.1h-0.1h-0.1h-0.1h-0.1h-0.1h-0.1h-0.1
					H206h-0.1h-0.1h-0.1h-0.1h-0.1h-0.1h-0.1h-0.1H205h-0.1h-0.1h-0.1h-0.1h-0.1h-0.1h-0.1h-0.1h-0.1H204h-0.1h-0.1h-0.1h-0.1h-0.1
					h-0.1h-0.1h-0.1H203h-0.1h-0.1h-0.1h-0.1h-0.1h-0.1h-0.1h-0.1h-0.1h-0.1h-0.1h-0.1h-0.1h-0.1h-0.1h-0.1h-0.1h-0.1H201h-0.1h-0.1
					h-0.1h-0.1h-0.1h-0.1h-0.1h-0.1H200h-0.1h-0.1h-0.1h-0.1h-0.1h-0.1h-0.1h-0.1h-0.1H199h-0.1h-0.1h-0.1h-0.1h-0.1h-0.1h-0.1h-0.1
					H198h-0.1h-0.1h-0.1h-0.1h-0.1h-0.1h-0.1h-0.1h-0.1H197h-0.1h-0.1h-0.1h-0.1h-0.1h-0.1h-0.1h-0.1H196h-0.1h-0.1h-0.1h-0.1h-0.1
					h-0.1h-0.1h-0.1h-0.1H195h-0.1h-0.1h-0.1h-0.1h-0.1h-0.1h-0.1h-0.1H194h-0.1h-0.1h-0.1h-0.1h-0.1h-0.1h-0.1h-0.1h-0.1H193h-0.1
					h-0.1h-0.1h-0.1h-0.1h-0.1h-0.1h-0.1H192h-0.1h-0.1h-0.1h-0.1h-0.1h-0.1h-0.1h-0.1h-0.1H191h-0.1h-0.1h-0.1h-0.1h-0.1h-0.1h-0.1
					h-0.1H190h-0.1h-0.1h-0.1h-0.1h-0.1h-0.1h-0.1h-0.1h-0.1h-0.1h-0.1h-0.1h-0.1h-0.1H188.4z"/>
			</g>
		</g>
	</g>
</g>
<g id="matplotlib.axis_1">
	<g id="xtick_1">
		<g id="line2d_1">
			<g>
				<g>
					<path id="m88391f8ce9" class="st6" d="M45,319.5v3.5"/>
				</g>
			</g>
		</g>
		<g id="text_1">
			<text transform="matrix(1 0 0 1 32.8353 333.3586)" class="st7 st8">0.001</text>
		</g>
	</g>
	<g id="xtick_2">
		<g id="line2d_2">
			<g>
				<g>
					<path id="m88391f8ce9_00000098193264999678131210000005401346895130171266_" class="st6" d="M94.1,319.5v3.5"/>
				</g>
			</g>
		</g>
		<g id="text_2">
			<text transform="matrix(1 0 0 1 81.9528 333.3586)" class="st7 st8">0.002</text>
		</g>
	</g>
	<g id="xtick_3">
		<g id="line2d_3">
			<g>
				<g>
					<path id="m88391f8ce9_00000072965535222454895200000006628206824971230877_" class="st6" d="M143.2,319.5v3.5"/>
				</g>
			</g>
		</g>
		<g id="text_3">
			<text transform="matrix(1 0 0 1 131.0702 333.3586)" class="st7 st8">0.003</text>
		</g>
	</g>
	<g id="xtick_4">
		<g id="line2d_4">
			<g>
				<g>
					<path id="m88391f8ce9_00000132088790050976538720000017264683711096376459_" class="st6" d="M192.3,319.5v3.5"/>
				</g>
			</g>
		</g>
		<g id="text_4">
			<text transform="matrix(1 0 0 1 180.1876 333.3586)" class="st7 st8">0.004</text>
		</g>
	</g>
	<g id="xtick_5">
		<g id="line2d_5">
			<g>
				<g>
					<path id="m88391f8ce9_00000145046428593644057040000002060543267265199283_" class="st6" d="M241.4,319.5v3.5"/>
				</g>
			</g>
		</g>
		<g id="text_5">
			<text transform="matrix(1 0 0 1 229.3051 333.3586)" class="st7 st8">0.005</text>
		</g>
	</g>
	<g id="xtick_6">
		<g id="line2d_6">
			<g>
				<g>
					<path id="m88391f8ce9_00000038387383867985770850000009675702654432316296_" class="st6" d="M290.6,319.5v3.5"/>
				</g>
			</g>
		</g>
		<g id="text_6">
			<text transform="matrix(1 0 0 1 278.4225 333.3586)" class="st7 st8">0.006</text>
		</g>
	</g>
	<g id="xtick_7">
		<g id="line2d_7">
			<g>
				<g>
					<path id="m88391f8ce9_00000034048637108307332940000007023805958290746772_" class="st6" d="M339.7,319.5v3.5"/>
				</g>
			</g>
		</g>
		<g id="text_7">
			<text transform="matrix(1 0 0 1 327.5399 333.3586)" class="st7 st8">0.007</text>
		</g>
	</g>
	<g id="xtick_8">
		<g id="line2d_8">
			<g>
				<g>
					<path id="m88391f8ce9_00000157281403460983208330000000614220179310707635_" class="st6" d="M388.8,319.5v3.5"/>
				</g>
			</g>
		</g>
		<g id="text_8">
			<text transform="matrix(1 0 0 1 376.6573 333.3586)" class="st7 st8">0.008</text>
		</g>
	</g>
	<g id="xtick_9">
		<g id="line2d_9">
			<g>
				<g>
					<path id="m88391f8ce9_00000158741002741575223920000012568764302404645567_" class="st6" d="M437.9,319.5v3.5"/>
				</g>
			</g>
		</g>
		<g id="text_9">
			<text transform="matrix(1 0 0 1 425.7747 333.3586)" class="st7 st8">0.009</text>
		</g>
	</g>
</g>
<g id="matplotlib.axis_2">
	<g id="ytick_1">
		<g id="line2d_10">
			<g>
				<g>
					<path id="mf5bcce7c43" class="st6" d="M39.8,319.5h-3.5"/>
				</g>
			</g>
		</g>
		<g id="text_10">
			<text transform="matrix(1 0 0 1 27.2844 322.9393)" class="st7 st8">0</text>
		</g>
	</g>
	<g id="ytick_2">
		<g id="line2d_11">
			<g>
				<g>
					<path id="mf5bcce7c43_00000083071575518700060540000004233170556694968715_" class="st6" d="M39.8,276.8h-3.5"/>
				</g>
			</g>
		</g>
		<g id="text_11">
			<text transform="matrix(1 0 0 1 16.3332 280.1909)" class="st7 st8">200</text>
		</g>
	</g>
	<g id="ytick_3">
		<g id="line2d_12">
			<g>
				<g>
					<path id="mf5bcce7c43_00000100382328756715560130000018040258060453417146_" class="st6" d="M39.8,234h-3.5"/>
				</g>
			</g>
		</g>
		<g id="text_12">
			<text transform="matrix(1 0 0 1 16.3332 237.4424)" class="st7 st8">400</text>
		</g>
	</g>
	<g id="ytick_4">
		<g id="line2d_13">
			<g>
				<g>
					<path id="mf5bcce7c43_00000140703709874829396060000002341933641801111688_" class="st6" d="M39.8,191.3h-3.5"/>
				</g>
			</g>
		</g>
		<g id="text_13">
			<text transform="matrix(1 0 0 1 16.3332 194.694)" class="st7 st8">600</text>
		</g>
	</g>
	<g id="ytick_5">
		<g id="line2d_14">
			<g>
				<g>
					<path id="mf5bcce7c43_00000032623076302889689480000017769885249966928002_" class="st6" d="M39.8,148.5h-3.5"/>
				</g>
			</g>
		</g>
		<g id="text_14">
			<text transform="matrix(1 0 0 1 16.3332 151.9456)" class="st7 st8">800</text>
		</g>
	</g>
	<g id="ytick_6">
		<g id="line2d_15">
			<g>
				<g>
					<path id="mf5bcce7c43_00000150815114284067196480000010653147456698590096_" class="st6" d="M39.8,105.8h-3.5"/>
				</g>
			</g>
		</g>
		<g id="text_15">
			<text transform="matrix(1 0 0 1 10.8577 109.1971)" class="st7 st8">1000</text>
		</g>
	</g>
	<g id="ytick_7">
		<g id="line2d_16">
			<g>
				<g>
					<path id="mf5bcce7c43_00000171714124889963060580000018426963235180880309_" class="st6" d="M39.8,63h-3.5"/>
				</g>
			</g>
		</g>
		<g id="text_16">
			<text transform="matrix(1 0 0 1 10.8577 66.4487)" class="st7 st8">1200</text>
		</g>
	</g>
	<g id="ytick_8">
		<g id="line2d_17">
			<g>
				<g>
					<path id="mf5bcce7c43_00000058581440854433192550000000963908522086553236_" class="st6" d="M39.8,20.3h-3.5"/>
				</g>
			</g>
		</g>
		<g id="text_17">
			<text transform="matrix(1 0 0 1 10.8577 23.7003)" class="st7 st8">1400</text>
		</g>
	</g>
</g>
<g id="line2d_18">
	<g>
		<defs>
			<rect id="SVGID_00000082357819524918906840000018055842607938844035_" x="39.8" y="9.7" width="400" height="309.8"/>
		</defs>
		<clipPath id="SVGID_00000096751014068045317570000015549403089831607219_">
			<use xlink:href="#SVGID_00000082357819524918906840000018055842607938844035_"  style="overflow:visible;"/>
		</clipPath>
		
			<path style="clip-path:url(#SVGID_00000096751014068045317570000015549403089831607219_);fill:none;stroke:#FF0000;stroke-width:1.5;stroke-linecap:square;stroke-linejoin:round;" d="
			M57.9,319.4l17.8-0.2l11.6-0.4l8.7-0.5l7.3-0.6l6.6-0.8l5.8-0.9l5.1-1l4.7-1.2l4.7-1.4l4.4-1.5l4.4-1.8l4-1.8l4-2.1l4-2.3l4-2.6
			l4-2.8l4.4-3.4l4.4-3.7l4.7-4.3l5.1-4.9l6.2-6.3l11.3-11.9l6.9-7.1l5.1-5l4-3.6l3.6-3l3.3-2.4l3.3-2.2l2.9-1.7l2.9-1.4l2.5-1
			l2.5-0.8l2.5-0.6l2.5-0.3l2.5-0.1l2.5,0.1l2.5,0.4l2.5,0.6l2.5,0.8l2.5,1l2.9,1.4l2.9,1.7l3.3,2.2l3.3,2.5l3.6,3l4,3.6l4.7,4.6
			l6.2,6.4l18.6,19.4l5.5,5.2l4.7,4.2l4.4,3.6l4.4,3.3l4,2.8l4,2.5l4,2.3l4,2l4,1.8l4.4,1.7l4.4,1.5l4.7,1.4l4.7,1.1l5.1,1l5.5,0.8
			l6.2,0.7l6.9,0.6l8.4,0.5l10.2,0.3l13.8,0.2l6.2,0l0,0"/>
	</g>
</g>
<g id="line2d_19">
	<g>
		<defs>
			<rect id="SVGID_00000067223568835641521050000006107849344565195414_" x="39.8" y="9.7" width="400" height="309.8"/>
		</defs>
		<clipPath id="SVGID_00000138572813314084234060000015900548846566974866_">
			<use xlink:href="#SVGID_00000067223568835641521050000006107849344565195414_"  style="overflow:visible;"/>
		</clipPath>
		
			<path style="clip-path:url(#SVGID_00000138572813314084234060000015900548846566974866_);fill:none;stroke:#008000;stroke-width:1.5;stroke-linecap:square;stroke-linejoin:round;" d="
			M135.2,319.4l8.3-0.3l5.8-0.4l4.7-0.5l3.8-0.7l3.4-0.8l3-0.9l2.8-1.1l2.6-1.2l2.6-1.5l2.4-1.6l2.4-1.9l2.4-2.2l2.4-2.6l2.4-2.9
			l2.4-3.3l2.4-3.7l2.4-4.2l2.4-4.6l2.6-5.5l2.8-6.5l3-7.7l3.2-8.8l3.8-11.3l6.8-20.9l4.7-14.1l3.2-8.9l2.6-6.5l2.4-5.4l1.9-3.9
			l1.9-3.4l1.7-2.6l1.5-1.9l1.5-1.5l1.3-1l1.3-0.7l1.1-0.4l1.1-0.2l1.1,0l1.1,0.2l1.1,0.4l1.3,0.8l1.3,1.1l1.3,1.4l1.5,1.9l1.5,2.3
			l1.7,3l1.9,3.8l2.1,4.8l2.4,5.9l2.8,7.5l3.4,10l5.8,17.6l5.8,17.4l3.6,10.3l3.2,8.4l2.8,6.7l2.8,6.1l2.6,5.1l2.6,4.6l2.4,3.8
			l2.4,3.4l2.4,3l2.4,2.6l2.4,2.3l2.4,1.9l2.4,1.7l2.6,1.5l2.6,1.3l2.8,1.1l3,1l3.2,0.8l3.6,0.7l4.3,0.5l5.1,0.4l6.6,0.3l3.4,0.1
			l0,0"/>
	</g>
</g>
<g id="line2d_20">
	<g>
		<defs>
			<rect id="SVGID_00000166658846544257254150000005626223024704960416_" x="39.8" y="9.7" width="400" height="309.8"/>
		</defs>
		<clipPath id="SVGID_00000165213883724365941450000009636911277773034421_">
			<use xlink:href="#SVGID_00000166658846544257254150000005626223024704960416_"  style="overflow:visible;"/>
		</clipPath>
		
			<path style="clip-path:url(#SVGID_00000165213883724365941450000009636911277773034421_);fill:none;stroke:#0000FF;stroke-width:1.5;stroke-linecap:square;stroke-linejoin:round;" d="
			M188.4,319.2l3.1-0.3l2.3-0.5l1.9-0.6l1.7-0.8l1.5-0.9l1.4-1.1l1.3-1.3l1.3-1.7l1.3-2l1.3-2.5l1.3-3l1.3-3.6l1.3-4.3l1.3-5
			l1.4-6.4l1.4-7.4l1.5-9.3l1.6-11.5l1.6-13.1l1.8-16.8l2-21.1l2.3-27l3.6-44.7l3.5-42.6l2-21.9l1.6-15l1.4-10.9l1.2-7.5l1-4.8
			l0.8-3.3l0.7-2l0.6-1.1l0.5-0.5l0.4-0.1l0.4,0.2l0.4,0.4l0.5,0.9l0.6,1.6l0.7,2.6l0.8,3.9l1,5.5l1.1,7.4l1.3,10.6l1.5,14.3
			l1.8,19.7l2.4,29.3l6.4,79l2.2,23.8l1.9,18.1l1.8,15l1.6,11.5l1.6,9.9l1.5,7.9l1.5,6.7l1.4,5.2l1.4,4.3l1.4,3.6l1.3,2.7l1.3,2.2
			l1.3,1.8l1.4,1.6l1.4,1.3l1.5,1l1.6,0.8l1.7,0.6l2,0.5l2.4,0.4l1.8,0.2l0,0"/>
	</g>
</g>
<g id="LineCollection_1">
	<g>
		<defs>
			<rect id="SVGID_00000168081413799641962620000017317125332974015151_" x="39.8" y="9.7" width="400" height="309.8"/>
		</defs>
		<clipPath id="SVGID_00000085931255989532853860000012174641078476000957_">
			<use xlink:href="#SVGID_00000168081413799641962620000017317125332974015151_"  style="overflow:visible;"/>
		</clipPath>
		
			<path style="clip-path:url(#SVGID_00000085931255989532853860000012174641078476000957_);fill:none;stroke:#1F77B4;stroke-width:1.5;stroke-linejoin:round;" d="
			M241.4,319.5V105.8"/>
	</g>
</g>
<g id="patch_3">
	<path class="st13" d="M39.8,319.5V9.7"/>
</g>
<g id="patch_4">
	<path class="st13" d="M439.8,319.5V9.7"/>
</g>
<g id="patch_5">
	<path class="st13" d="M39.8,319.5h400"/>
</g>
<g id="patch_6">
	<path class="st13" d="M39.8,9.7h400"/>
</g>
</svg>
