<?xml version="1.0" encoding="utf-8"?>
<!-- Generator: Adobe Illustrator 27.5.0, SVG Export Plug-In . SVG Version: 6.00 Build 0)  -->
<svg version="1.1" id="Layer_1" xmlns="http://www.w3.org/2000/svg" xmlns:xlink="http://www.w3.org/1999/xlink" x="0px" y="0px"
	 viewBox="0 0 460.8 345.6" style="enable-background:new 0 0 460.8 345.6;" xml:space="preserve">
<style type="text/css">
	.st0{clip-path:url(#SVGID_00000113329338354687890960000009759249014013384113_);}
	.st1{fill:#0000FF;stroke:#0000FF;stroke-linejoin:round;}
	.st2{stroke:#000000;stroke-width:0.8;stroke-linejoin:round;}
	.st3{font-family:'LucidaBright';}
	.st4{font-size:14px;}
	.st5{font-size:16px;}
	
		.st6{clip-path:url(#SVGID_00000134967363741934669090000002102521349841726336_);fill:none;stroke:#000000;stroke-width:2;stroke-linejoin:round;stroke-dasharray:7.4,3.2;}
	
		.st7{clip-path:url(#SVGID_00000142148322610579929880000015901978276796013715_);fill:none;stroke:#000000;stroke-width:2;stroke-linecap:square;stroke-linejoin:round;}
	.st8{fill:none;stroke:#000000;stroke-width:0.8;stroke-linecap:square;}
	.st9{font-family:'ArialMT';}
	.st10{font-size:12px;}
	.st11{font-size:11.2px;}
</style>
<g id="PathCollection_1">
	<g>
		<defs>
			<rect id="SVGID_1_" x="59.6" y="9.7" width="388.8" height="284.9"/>
		</defs>
		<clipPath id="SVGID_00000181085807677687308110000006627438159634786986_">
			<use xlink:href="#SVGID_1_"  style="overflow:visible;"/>
		</clipPath>
		<g style="clip-path:url(#SVGID_00000181085807677687308110000006627438159634786986_);">
			<g>
				<path id="me3a858cda0" class="st1" d="M377.4,153c0.6,0,1.3-0.3,1.7-0.7c0.5-0.5,0.7-1.1,0.7-1.7s-0.3-1.3-0.7-1.7
					c-0.5-0.5-1.1-0.7-1.7-0.7s-1.3,0.3-1.7,0.7c-0.5,0.5-0.7,1.1-0.7,1.7s0.3,1.3,0.7,1.7C376.2,152.7,376.8,153,377.4,153z"/>
			</g>
			<g>
				<path id="me3a858cda0_00000012469060960165521700000014459405357018370485_" class="st1" d="M95.6,261.9c0.6,0,1.3-0.3,1.7-0.7
					c0.5-0.5,0.7-1.1,0.7-1.7c0-0.6-0.3-1.3-0.7-1.7c-0.5-0.5-1.1-0.7-1.7-0.7s-1.3,0.3-1.7,0.7c-0.5,0.5-0.7,1.1-0.7,1.7
					c0,0.6,0.3,1.3,0.7,1.7C94.4,261.6,95,261.9,95.6,261.9z"/>
			</g>
			<g>
				<path id="me3a858cda0_00000182516718054786860110000005448939295899126413_" class="st1" d="M139.1,201.5c0.6,0,1.3-0.3,1.7-0.7
					c0.5-0.5,0.7-1.1,0.7-1.7s-0.3-1.3-0.7-1.7c-0.5-0.5-1.1-0.7-1.7-0.7s-1.3,0.3-1.7,0.7c-0.5,0.5-0.7,1.1-0.7,1.7
					s0.3,1.3,0.7,1.7C137.8,201.2,138.4,201.5,139.1,201.5z"/>
			</g>
			<g>
				<path id="me3a858cda0_00000160176646683434696950000008246130679991741320_" class="st1" d="M377.4,129.9c0.6,0,1.3-0.3,1.7-0.7
					c0.5-0.5,0.7-1.1,0.7-1.7c0-0.6-0.3-1.3-0.7-1.7c-0.5-0.5-1.1-0.7-1.7-0.7s-1.3,0.3-1.7,0.7c-0.5,0.5-0.7,1.1-0.7,1.7
					c0,0.6,0.3,1.3,0.7,1.7C376.2,129.7,376.8,129.9,377.4,129.9z"/>
			</g>
			<g>
				<path id="me3a858cda0_00000103250683614585594570000004615509399842520471_" class="st1" d="M172.5,210.2c0.6,0,1.3-0.3,1.7-0.7
					c0.5-0.5,0.7-1.1,0.7-1.7s-0.3-1.3-0.7-1.7c-0.5-0.5-1.1-0.7-1.7-0.7s-1.3,0.3-1.7,0.7c-0.5,0.5-0.7,1.1-0.7,1.7
					s0.3,1.3,0.7,1.7C171.3,209.9,171.9,210.2,172.5,210.2z"/>
			</g>
			<g>
				<path id="me3a858cda0_00000072971989319003667050000017542343618219998363_" class="st1" d="M195.8,173.6c0.6,0,1.3-0.3,1.7-0.7
					c0.5-0.5,0.7-1.1,0.7-1.7s-0.3-1.3-0.7-1.7c-0.5-0.5-1.1-0.7-1.7-0.7s-1.3,0.3-1.7,0.7c-0.5,0.5-0.7,1.1-0.7,1.7
					s0.3,1.3,0.7,1.7C194.6,173.3,195.2,173.6,195.8,173.6z"/>
			</g>
			<g>
				<path id="me3a858cda0_00000100350856994496121660000003147487044149441701_" class="st1" d="M392.9,68c0.6,0,1.3-0.3,1.7-0.7
					c0.5-0.5,0.7-1.1,0.7-1.7s-0.3-1.3-0.7-1.7c-0.5-0.5-1.1-0.7-1.7-0.7s-1.3,0.3-1.7,0.7c-0.5,0.5-0.7,1.1-0.7,1.7
					s0.3,1.3,0.7,1.7C391.6,67.8,392.2,68,392.9,68z"/>
			</g>
			<g>
				<path id="me3a858cda0_00000129173352272057988890000017011268355153750950_" class="st1" d="M159,207.8c0.6,0,1.3-0.3,1.7-0.7
					c0.5-0.5,0.7-1.1,0.7-1.7s-0.3-1.3-0.7-1.7c-0.5-0.5-1.1-0.7-1.7-0.7s-1.3,0.3-1.7,0.7c-0.5,0.5-0.7,1.1-0.7,1.7
					s0.3,1.3,0.7,1.7C157.7,207.5,158.3,207.8,159,207.8z"/>
			</g>
			<g>
				<path id="me3a858cda0_00000029766706243402036170000012321707039356792989_" class="st1" d="M68.9,254.3c0.6,0,1.3-0.3,1.7-0.7
					c0.5-0.5,0.7-1.1,0.7-1.7s-0.3-1.3-0.7-1.7c-0.5-0.5-1.1-0.7-1.7-0.7s-1.3,0.3-1.7,0.7c-0.5,0.5-0.7,1.1-0.7,1.7
					s0.3,1.3,0.7,1.7C67.6,254,68.2,254.3,68.9,254.3z"/>
			</g>
			<g>
				<path id="me3a858cda0_00000046331520359639498240000001717381362514602905_" class="st1" d="M377.4,144.7c0.6,0,1.3-0.3,1.7-0.7
					c0.5-0.5,0.7-1.1,0.7-1.7s-0.3-1.3-0.7-1.7c-0.5-0.5-1.1-0.7-1.7-0.7s-1.3,0.3-1.7,0.7c-0.5,0.5-0.7,1.1-0.7,1.7
					s0.3,1.3,0.7,1.7C376.2,144.5,376.8,144.7,377.4,144.7z"/>
			</g>
			<g>
				<path id="me3a858cda0_00000098195840641227852240000015994986967599530135_" class="st1" d="M152.3,240.8c0.6,0,1.3-0.3,1.7-0.7
					c0.5-0.5,0.7-1.1,0.7-1.7s-0.3-1.3-0.7-1.7c-0.5-0.5-1.1-0.7-1.7-0.7s-1.3,0.3-1.7,0.7c-0.5,0.5-0.7,1.1-0.7,1.7
					s0.3,1.3,0.7,1.7C151,240.6,151.6,240.8,152.3,240.8z"/>
			</g>
			<g>
				<path id="me3a858cda0_00000155116900430114066570000007344132251378680968_" class="st1" d="M127.2,130.3c0.6,0,1.3-0.3,1.7-0.7
					c0.5-0.5,0.7-1.1,0.7-1.7c0-0.6-0.3-1.3-0.7-1.7c-0.5-0.5-1.1-0.7-1.7-0.7s-1.3,0.3-1.7,0.7c-0.5,0.5-0.7,1.1-0.7,1.7
					c0,0.6,0.3,1.3,0.7,1.7C126,130,126.6,130.3,127.2,130.3z"/>
			</g>
			<g>
				<path id="me3a858cda0_00000041984720421839900680000014873968270807220151_" class="st1" d="M173.9,210c0.6,0,1.3-0.3,1.7-0.7
					c0.5-0.5,0.7-1.1,0.7-1.7s-0.3-1.3-0.7-1.7c-0.5-0.5-1.1-0.7-1.7-0.7s-1.3,0.3-1.7,0.7c-0.5,0.5-0.7,1.1-0.7,1.7
					s0.3,1.3,0.7,1.7C172.6,209.7,173.2,210,173.9,210z"/>
			</g>
			<g>
				<path id="me3a858cda0_00000023244234523144071940000017433362767139548548_" class="st1" d="M68.9,284.2c0.6,0,1.3-0.3,1.7-0.7
					c0.5-0.5,0.7-1.1,0.7-1.7c0-0.6-0.3-1.3-0.7-1.7c-0.5-0.5-1.1-0.7-1.7-0.7s-1.3,0.3-1.7,0.7c-0.5,0.5-0.7,1.1-0.7,1.7
					c0,0.6,0.3,1.3,0.7,1.7C67.6,283.9,68.2,284.2,68.9,284.2z"/>
			</g>
			<g>
				<path id="me3a858cda0_00000042697737565542058400000015575420877748487827_" class="st1" d="M386.3,108.3c0.6,0,1.3-0.3,1.7-0.7
					c0.5-0.5,0.7-1.1,0.7-1.7s-0.3-1.3-0.7-1.7c-0.5-0.5-1.1-0.7-1.7-0.7s-1.3,0.3-1.7,0.7c-0.5,0.5-0.7,1.1-0.7,1.7
					s0.3,1.3,0.7,1.7C385,108.1,385.6,108.3,386.3,108.3z"/>
			</g>
			<g>
				<path id="me3a858cda0_00000092432520181364833510000008764645234786012573_" class="st1" d="M172.9,229.8c0.6,0,1.3-0.3,1.7-0.7
					c0.5-0.5,0.7-1.1,0.7-1.7s-0.3-1.3-0.7-1.7c-0.5-0.5-1.1-0.7-1.7-0.7s-1.3,0.3-1.7,0.7c-0.5,0.5-0.7,1.1-0.7,1.7
					s0.3,1.3,0.7,1.7C171.6,229.6,172.2,229.8,172.9,229.8z"/>
			</g>
			<g>
				<path id="me3a858cda0_00000024706848705089684090000009631746549303115939_" class="st1" d="M296,83.1c0.6,0,1.3-0.3,1.7-0.7
					c0.5-0.5,0.7-1.1,0.7-1.7s-0.3-1.3-0.7-1.7c-0.5-0.5-1.1-0.7-1.7-0.7s-1.3,0.3-1.7,0.7c-0.5,0.5-0.7,1.1-0.7,1.7
					s0.3,1.3,0.7,1.7C294.8,82.8,295.4,83.1,296,83.1z"/>
			</g>
			<g>
				<path id="me3a858cda0_00000103956126687840531690000004922758625658968963_" class="st1" d="M251.7,118.8c0.6,0,1.3-0.3,1.7-0.7
					c0.5-0.5,0.7-1.1,0.7-1.7s-0.3-1.3-0.7-1.7c-0.5-0.5-1.1-0.7-1.7-0.7s-1.3,0.3-1.7,0.7c-0.5,0.5-0.7,1.1-0.7,1.7
					s0.3,1.3,0.7,1.7C250.4,118.5,251,118.8,251.7,118.8z"/>
			</g>
			<g>
				<path id="me3a858cda0_00000163771483932564078040000015252865720096702338_" class="st1" d="M256.2,123.3c0.6,0,1.3-0.3,1.7-0.7
					c0.5-0.5,0.7-1.1,0.7-1.7s-0.3-1.3-0.7-1.7c-0.5-0.5-1.1-0.7-1.7-0.7c-0.6,0-1.3,0.3-1.7,0.7c-0.5,0.5-0.7,1.1-0.7,1.7
					s0.3,1.3,0.7,1.7C254.9,123.1,255.6,123.3,256.2,123.3z"/>
			</g>
			<g>
				<path id="me3a858cda0_00000012452503108759931700000008293464034094976385_" class="st1" d="M200.4,177.8c0.6,0,1.3-0.3,1.7-0.7
					c0.5-0.5,0.7-1.1,0.7-1.7s-0.3-1.3-0.7-1.7c-0.5-0.5-1.1-0.7-1.7-0.7s-1.3,0.3-1.7,0.7c-0.5,0.5-0.7,1.1-0.7,1.7
					s0.3,1.3,0.7,1.7C199.1,177.5,199.8,177.8,200.4,177.8z"/>
			</g>
			<g>
				<path id="me3a858cda0_00000141449343886412376260000017362450972855756447_" class="st1" d="M113.5,91.7c0.6,0,1.3-0.3,1.7-0.7
					c0.5-0.5,0.7-1.1,0.7-1.7s-0.3-1.3-0.7-1.7c-0.5-0.5-1.1-0.7-1.7-0.7s-1.3,0.3-1.7,0.7c-0.5,0.5-0.7,1.1-0.7,1.7
					s0.3,1.3,0.7,1.7C112.2,91.4,112.8,91.7,113.5,91.7z"/>
			</g>
			<g>
				<path id="me3a858cda0_00000072277732180226766120000002866384870620446143_" class="st1" d="M144.7,188.3c0.6,0,1.3-0.3,1.7-0.7
					c0.5-0.5,0.7-1.1,0.7-1.7s-0.3-1.3-0.7-1.7c-0.5-0.5-1.1-0.7-1.7-0.7s-1.3,0.3-1.7,0.7c-0.5,0.5-0.7,1.1-0.7,1.7
					s0.3,1.3,0.7,1.7C143.4,188,144,188.3,144.7,188.3z"/>
			</g>
			<g>
				<path id="me3a858cda0_00000045595262194950125100000010584943869258230944_" class="st1" d="M156.3,189.4c0.6,0,1.3-0.3,1.7-0.7
					c0.5-0.5,0.7-1.1,0.7-1.7s-0.3-1.3-0.7-1.7c-0.5-0.5-1.1-0.7-1.7-0.7s-1.3,0.3-1.7,0.7c-0.5,0.5-0.7,1.1-0.7,1.7
					s0.3,1.3,0.7,1.7C155,189.2,155.6,189.4,156.3,189.4z"/>
			</g>
			<g>
				<path id="me3a858cda0_00000028289290825983587090000014234700977078143382_" class="st1" d="M377.4,86.5c0.6,0,1.3-0.3,1.7-0.7
					c0.5-0.5,0.7-1.1,0.7-1.7s-0.3-1.3-0.7-1.7c-0.5-0.5-1.1-0.7-1.7-0.7s-1.3,0.3-1.7,0.7c-0.5,0.5-0.7,1.1-0.7,1.7
					s0.3,1.3,0.7,1.7C376.2,86.2,376.8,86.5,377.4,86.5z"/>
			</g>
			<g>
				<path id="me3a858cda0_00000074422731296474612860000010879509502373880212_" class="st1" d="M190.2,185.4c0.6,0,1.3-0.3,1.7-0.7
					c0.5-0.5,0.7-1.1,0.7-1.7s-0.3-1.3-0.7-1.7c-0.5-0.5-1.1-0.7-1.7-0.7s-1.3,0.3-1.7,0.7c-0.5,0.5-0.7,1.1-0.7,1.7
					s0.3,1.3,0.7,1.7C188.9,185.1,189.6,185.4,190.2,185.4z"/>
			</g>
			<g>
				<path id="me3a858cda0_00000044143398967305706730000008623967652609119365_" class="st1" d="M317.9,59.7c0.6,0,1.3-0.3,1.7-0.7
					c0.5-0.5,0.7-1.1,0.7-1.7s-0.3-1.3-0.7-1.7c-0.5-0.5-1.1-0.7-1.7-0.7s-1.3,0.3-1.7,0.7c-0.5,0.5-0.7,1.1-0.7,1.7
					s0.3,1.3,0.7,1.7C316.6,59.4,317.2,59.7,317.9,59.7z"/>
			</g>
			<g>
				<path id="me3a858cda0_00000028309644019598668840000000653050619057799351_" class="st1" d="M160.6,241c0.6,0,1.3-0.3,1.7-0.7
					c0.5-0.5,0.7-1.1,0.7-1.7s-0.3-1.3-0.7-1.7c-0.5-0.5-1.1-0.7-1.7-0.7s-1.3,0.3-1.7,0.7c-0.5,0.5-0.7,1.1-0.7,1.7
					s0.3,1.3,0.7,1.7C159.3,240.7,160,241,160.6,241z"/>
			</g>
			<g>
				<path id="me3a858cda0_00000126292803322147144780000015724313243365546673_" class="st1" d="M265.3,113.1c0.6,0,1.3-0.3,1.7-0.7
					c0.5-0.5,0.7-1.1,0.7-1.7s-0.3-1.3-0.7-1.7c-0.5-0.5-1.1-0.7-1.7-0.7s-1.3,0.3-1.7,0.7c-0.5,0.5-0.7,1.1-0.7,1.7
					s0.3,1.3,0.7,1.7C264,112.8,264.6,113.1,265.3,113.1z"/>
			</g>
			<g>
				<path id="me3a858cda0_00000096763425158331095760000004492719770225140653_" class="st1" d="M254,163.7c0.6,0,1.3-0.3,1.7-0.7
					c0.5-0.5,0.7-1.1,0.7-1.7s-0.3-1.3-0.7-1.7c-0.5-0.5-1.1-0.7-1.7-0.7s-1.3,0.3-1.7,0.7c-0.5,0.5-0.7,1.1-0.7,1.7
					s0.3,1.3,0.7,1.7C252.7,163.4,253.4,163.7,254,163.7z"/>
			</g>
			<g>
				<path id="me3a858cda0_00000110447622531752965300000004252701619104960442_" class="st1" d="M82.8,285.3c0.6,0,1.3-0.3,1.7-0.7
					c0.5-0.5,0.7-1.1,0.7-1.7c0-0.6-0.3-1.3-0.7-1.7c-0.5-0.5-1.1-0.7-1.7-0.7s-1.3,0.3-1.7,0.7c-0.5,0.5-0.7,1.1-0.7,1.7
					c0,0.6,0.3,1.3,0.7,1.7C81.5,285.1,82.1,285.3,82.8,285.3z"/>
			</g>
			<g>
				<path id="me3a858cda0_00000103965852060388368270000001633975227150113422_" class="st1" d="M307.7,114c0.6,0,1.3-0.3,1.7-0.7
					c0.5-0.5,0.7-1.1,0.7-1.7s-0.3-1.3-0.7-1.7c-0.5-0.5-1.1-0.7-1.7-0.7s-1.3,0.3-1.7,0.7c-0.5,0.5-0.7,1.1-0.7,1.7
					s0.3,1.3,0.7,1.7C306.4,113.7,307,114,307.7,114z"/>
			</g>
			<g>
				<path id="me3a858cda0_00000155118988176857465670000014462541415860170390_" class="st1" d="M89.8,262.9c0.6,0,1.3-0.3,1.7-0.7
					c0.5-0.5,0.7-1.1,0.7-1.7c0-0.6-0.3-1.3-0.7-1.7c-0.5-0.5-1.1-0.7-1.7-0.7s-1.3,0.3-1.7,0.7c-0.5,0.5-0.7,1.1-0.7,1.7
					c0,0.6,0.3,1.3,0.7,1.7C88.6,262.6,89.2,262.9,89.8,262.9z"/>
			</g>
			<g>
				<path id="me3a858cda0_00000145749170313489004340000011164156784797933466_" class="st1" d="M89.5,228.6c0.6,0,1.3-0.3,1.7-0.7
					c0.5-0.5,0.7-1.1,0.7-1.7s-0.3-1.3-0.7-1.7c-0.5-0.5-1.1-0.7-1.7-0.7s-1.3,0.3-1.7,0.7c-0.5,0.5-0.7,1.1-0.7,1.7
					s0.3,1.3,0.7,1.7C88.2,228.4,88.9,228.6,89.5,228.6z"/>
			</g>
			<g>
				<path id="me3a858cda0_00000081634280088583467080000016920111271291111813_" class="st1" d="M154.8,198.3c0.6,0,1.3-0.3,1.7-0.7
					c0.5-0.5,0.7-1.1,0.7-1.7s-0.3-1.3-0.7-1.7c-0.5-0.5-1.1-0.7-1.7-0.7s-1.3,0.3-1.7,0.7c-0.5,0.5-0.7,1.1-0.7,1.7
					s0.3,1.3,0.7,1.7C153.6,198,154.2,198.3,154.8,198.3z"/>
			</g>
			<g>
				<path id="me3a858cda0_00000047061961366952258330000015506401758221002135_" class="st1" d="M141.2,237.2c0.6,0,1.3-0.3,1.7-0.7
					c0.5-0.5,0.7-1.1,0.7-1.7s-0.3-1.3-0.7-1.7c-0.5-0.5-1.1-0.7-1.7-0.7s-1.3,0.3-1.7,0.7c-0.5,0.5-0.7,1.1-0.7,1.7
					s0.3,1.3,0.7,1.7C139.9,237,140.6,237.2,141.2,237.2z"/>
			</g>
			<g>
				<path id="me3a858cda0_00000055664837469280322320000010747402061639823752_" class="st1" d="M68.9,269.9c0.6,0,1.3-0.3,1.7-0.7
					c0.5-0.5,0.7-1.1,0.7-1.7c0-0.6-0.3-1.3-0.7-1.7c-0.5-0.5-1.1-0.7-1.7-0.7s-1.3,0.3-1.7,0.7c-0.5,0.5-0.7,1.1-0.7,1.7
					c0,0.6,0.3,1.3,0.7,1.7C67.6,269.7,68.2,269.9,68.9,269.9z"/>
			</g>
			<g>
				<path id="me3a858cda0_00000160891702217276024030000013567805201122979249_" class="st1" d="M147.7,231.6c0.6,0,1.3-0.3,1.7-0.7
					c0.5-0.5,0.7-1.1,0.7-1.7s-0.3-1.3-0.7-1.7c-0.5-0.5-1.1-0.7-1.7-0.7s-1.3,0.3-1.7,0.7c-0.5,0.5-0.7,1.1-0.7,1.7
					s0.3,1.3,0.7,1.7C146.4,231.4,147,231.6,147.7,231.6z"/>
			</g>
			<g>
				<path id="me3a858cda0_00000093855753173318956560000017362949998662058661_" class="st1" d="M187.6,88.7c0.6,0,1.3-0.3,1.7-0.7
					c0.5-0.5,0.7-1.1,0.7-1.7s-0.3-1.3-0.7-1.7c-0.5-0.5-1.1-0.7-1.7-0.7s-1.3,0.3-1.7,0.7c-0.5,0.5-0.7,1.1-0.7,1.7
					s0.3,1.3,0.7,1.7C186.3,88.4,187,88.7,187.6,88.7z"/>
			</g>
			<g>
				<path id="me3a858cda0_00000042701635930921159420000010759845791826282417_" class="st1" d="M315.7,126.2c0.6,0,1.3-0.3,1.7-0.7
					c0.5-0.5,0.7-1.1,0.7-1.7s-0.3-1.3-0.7-1.7c-0.5-0.5-1.1-0.7-1.7-0.7s-1.3,0.3-1.7,0.7c-0.5,0.5-0.7,1.1-0.7,1.7
					s0.3,1.3,0.7,1.7C314.5,126,315.1,126.2,315.7,126.2z"/>
			</g>
			<g>
				<path id="me3a858cda0_00000114783804418764775220000005256293740482592191_" class="st1" d="M377.4,178.4c0.6,0,1.3-0.3,1.7-0.7
					c0.5-0.5,0.7-1.1,0.7-1.7s-0.3-1.3-0.7-1.7c-0.5-0.5-1.1-0.7-1.7-0.7s-1.3,0.3-1.7,0.7c-0.5,0.5-0.7,1.1-0.7,1.7
					s0.3,1.3,0.7,1.7C376.2,178.1,376.8,178.4,377.4,178.4z"/>
			</g>
			<g>
				<path id="me3a858cda0_00000080902463712977718440000009815120207675856017_" class="st1" d="M398,144.5c0.6,0,1.3-0.3,1.7-0.7
					c0.5-0.5,0.7-1.1,0.7-1.7s-0.3-1.3-0.7-1.7c-0.5-0.5-1.1-0.7-1.7-0.7s-1.3,0.3-1.7,0.7c-0.5,0.5-0.7,1.1-0.7,1.7
					s0.3,1.3,0.7,1.7C396.7,144.2,397.4,144.5,398,144.5z"/>
			</g>
			<g>
				<path id="me3a858cda0_00000173139059878011562470000013579314885217667257_" class="st1" d="M255.3,193.4c0.6,0,1.3-0.3,1.7-0.7
					c0.5-0.5,0.7-1.1,0.7-1.7s-0.3-1.3-0.7-1.7c-0.5-0.5-1.1-0.7-1.7-0.7s-1.3,0.3-1.7,0.7c-0.5,0.5-0.7,1.1-0.7,1.7
					s0.3,1.3,0.7,1.7C254,193.2,254.6,193.4,255.3,193.4z"/>
			</g>
			<g>
				<path id="me3a858cda0_00000041277140712251636230000006682981732041647515_" class="st1" d="M211.7,139.9c0.6,0,1.3-0.3,1.7-0.7
					c0.5-0.5,0.7-1.1,0.7-1.7s-0.3-1.3-0.7-1.7c-0.5-0.5-1.1-0.7-1.7-0.7s-1.3,0.3-1.7,0.7c-0.5,0.5-0.7,1.1-0.7,1.7
					s0.3,1.3,0.7,1.7C210.4,139.6,211,139.9,211.7,139.9z"/>
			</g>
			<g>
				<path id="me3a858cda0_00000022524787068810266030000005530466791978592425_" class="st1" d="M177.4,199.4c0.6,0,1.3-0.3,1.7-0.7
					c0.5-0.5,0.7-1.1,0.7-1.7s-0.3-1.3-0.7-1.7c-0.5-0.5-1.1-0.7-1.7-0.7s-1.3,0.3-1.7,0.7c-0.5,0.5-0.7,1.1-0.7,1.7
					s0.3,1.3,0.7,1.7C176.1,199.2,176.7,199.4,177.4,199.4z"/>
			</g>
			<g>
				<path id="me3a858cda0_00000091733804549327944150000001246459966533099651_" class="st1" d="M215.4,180.4c0.6,0,1.3-0.3,1.7-0.7
					c0.5-0.5,0.7-1.1,0.7-1.7s-0.3-1.3-0.7-1.7c-0.5-0.5-1.1-0.7-1.7-0.7s-1.3,0.3-1.7,0.7c-0.5,0.5-0.7,1.1-0.7,1.7
					s0.3,1.3,0.7,1.7C214.2,180.2,214.8,180.4,215.4,180.4z"/>
			</g>
			<g>
				<path id="me3a858cda0_00000057142735872390281690000007444642747770557074_" class="st1" d="M402.1,91.5c0.6,0,1.3-0.3,1.7-0.7
					c0.5-0.5,0.7-1.1,0.7-1.7s-0.3-1.3-0.7-1.7c-0.5-0.5-1.1-0.7-1.7-0.7s-1.3,0.3-1.7,0.7c-0.5,0.5-0.7,1.1-0.7,1.7
					s0.3,1.3,0.7,1.7C400.9,91.2,401.5,91.5,402.1,91.5z"/>
			</g>
			<g>
				<path id="me3a858cda0_00000021807730194767205320000004994410977438364834_" class="st1" d="M212.4,247.6c0.6,0,1.3-0.3,1.7-0.7
					c0.5-0.5,0.7-1.1,0.7-1.7s-0.3-1.3-0.7-1.7c-0.5-0.5-1.1-0.7-1.7-0.7s-1.3,0.3-1.7,0.7c-0.5,0.5-0.7,1.1-0.7,1.7
					s0.3,1.3,0.7,1.7C211.1,247.3,211.7,247.6,212.4,247.6z"/>
			</g>
			<g>
				<path id="me3a858cda0_00000042710538109385192290000017447190114909730986_" class="st1" d="M204.6,93.6c0.6,0,1.3-0.3,1.7-0.7
					c0.5-0.5,0.7-1.1,0.7-1.7s-0.3-1.3-0.7-1.7c-0.5-0.5-1.1-0.7-1.7-0.7s-1.3,0.3-1.7,0.7c-0.5,0.5-0.7,1.1-0.7,1.7
					s0.3,1.3,0.7,1.7C203.3,93.3,204,93.6,204.6,93.6z"/>
			</g>
			<g>
				<path id="me3a858cda0_00000070815278333201657180000011747689304363562933_" class="st1" d="M392.9,169.3c0.6,0,1.3-0.3,1.7-0.7
					c0.5-0.5,0.7-1.1,0.7-1.7s-0.3-1.3-0.7-1.7c-0.5-0.5-1.1-0.7-1.7-0.7s-1.3,0.3-1.7,0.7c-0.5,0.5-0.7,1.1-0.7,1.7
					s0.3,1.3,0.7,1.7C391.6,169,392.2,169.3,392.9,169.3z"/>
			</g>
			<g>
				<path id="me3a858cda0_00000122683301000907168730000010795093357497119368_" class="st1" d="M173.6,205.6c0.6,0,1.3-0.3,1.7-0.7
					c0.5-0.5,0.7-1.1,0.7-1.7s-0.3-1.3-0.7-1.7c-0.5-0.5-1.1-0.7-1.7-0.7s-1.3,0.3-1.7,0.7c-0.5,0.5-0.7,1.1-0.7,1.7
					s0.3,1.3,0.7,1.7C172.4,205.3,173,205.6,173.6,205.6z"/>
			</g>
			<g>
				<path id="me3a858cda0_00000143593919351249033390000005966282492523173546_" class="st1" d="M133.8,260.9c0.6,0,1.3-0.3,1.7-0.7
					c0.5-0.5,0.7-1.1,0.7-1.7c0-0.6-0.3-1.3-0.7-1.7c-0.5-0.5-1.1-0.7-1.7-0.7s-1.3,0.3-1.7,0.7c-0.5,0.5-0.7,1.1-0.7,1.7
					c0,0.6,0.3,1.3,0.7,1.7C132.5,260.7,133.1,260.9,133.8,260.9z"/>
			</g>
			<g>
				<path id="me3a858cda0_00000026157236609725178530000010064176272313589652_" class="st1" d="M268.7,197.5c0.6,0,1.3-0.3,1.7-0.7
					c0.5-0.5,0.7-1.1,0.7-1.7s-0.3-1.3-0.7-1.7c-0.5-0.5-1.1-0.7-1.7-0.7s-1.3,0.3-1.7,0.7c-0.5,0.5-0.7,1.1-0.7,1.7
					s0.3,1.3,0.7,1.7C267.5,197.2,268.1,197.5,268.7,197.5z"/>
			</g>
			<g>
				<path id="me3a858cda0_00000140705523731873606180000005907131123412765840_" class="st1" d="M211.2,199c0.6,0,1.3-0.3,1.7-0.7
					c0.5-0.5,0.7-1.1,0.7-1.7s-0.3-1.3-0.7-1.7c-0.5-0.5-1.1-0.7-1.7-0.7s-1.3,0.3-1.7,0.7c-0.5,0.5-0.7,1.1-0.7,1.7
					s0.3,1.3,0.7,1.7C210,198.7,210.6,199,211.2,199z"/>
			</g>
			<g>
				<path id="me3a858cda0_00000170962158417114422280000015790181667624727936_" class="st1" d="M194.5,192.1c0.6,0,1.3-0.3,1.7-0.7
					c0.5-0.5,0.7-1.1,0.7-1.7s-0.3-1.3-0.7-1.7c-0.5-0.5-1.1-0.7-1.7-0.7s-1.3,0.3-1.7,0.7c-0.5,0.5-0.7,1.1-0.7,1.7
					s0.3,1.3,0.7,1.7C193.2,191.8,193.8,192.1,194.5,192.1z"/>
			</g>
			<g>
				<path id="me3a858cda0_00000152262237475482844220000016668579593421899952_" class="st1" d="M234.5,82.8c0.6,0,1.3-0.3,1.7-0.7
					c0.5-0.5,0.7-1.1,0.7-1.7s-0.3-1.3-0.7-1.7c-0.5-0.5-1.1-0.7-1.7-0.7s-1.3,0.3-1.7,0.7c-0.5,0.5-0.7,1.1-0.7,1.7
					s0.3,1.3,0.7,1.7C233.2,82.6,233.9,82.8,234.5,82.8z"/>
			</g>
			<g>
				<path id="me3a858cda0_00000043445940844737230660000010965628134142343355_" class="st1" d="M130.1,236c0.6,0,1.3-0.3,1.7-0.7
					c0.5-0.5,0.7-1.1,0.7-1.7s-0.3-1.3-0.7-1.7c-0.5-0.5-1.1-0.7-1.7-0.7s-1.3,0.3-1.7,0.7c-0.5,0.5-0.7,1.1-0.7,1.7
					s0.3,1.3,0.7,1.7C128.8,235.7,129.4,236,130.1,236z"/>
			</g>
			<g>
				<path id="me3a858cda0_00000066476262053571370310000014362303708382907047_" class="st1" d="M232.4,135.8c0.6,0,1.3-0.3,1.7-0.7
					c0.5-0.5,0.7-1.1,0.7-1.7s-0.3-1.3-0.7-1.7c-0.5-0.5-1.1-0.7-1.7-0.7s-1.3,0.3-1.7,0.7c-0.5,0.5-0.7,1.1-0.7,1.7
					s0.3,1.3,0.7,1.7C231.1,135.6,231.7,135.8,232.4,135.8z"/>
			</g>
			<g>
				<path id="me3a858cda0_00000144299028937873832990000013029619238169237651_" class="st1" d="M242.8,175.5c0.6,0,1.3-0.3,1.7-0.7
					c0.5-0.5,0.7-1.1,0.7-1.7s-0.3-1.3-0.7-1.7c-0.5-0.5-1.1-0.7-1.7-0.7s-1.3,0.3-1.7,0.7c-0.5,0.5-0.7,1.1-0.7,1.7
					s0.3,1.3,0.7,1.7C241.5,175.2,242.1,175.5,242.8,175.5z"/>
			</g>
			<g>
				<path id="me3a858cda0_00000101104417441572306200000007381690635805613991_" class="st1" d="M288.7,209.5c0.6,0,1.3-0.3,1.7-0.7
					c0.5-0.5,0.7-1.1,0.7-1.7s-0.3-1.3-0.7-1.7c-0.5-0.5-1.1-0.7-1.7-0.7s-1.3,0.3-1.7,0.7c-0.5,0.5-0.7,1.1-0.7,1.7
					s0.3,1.3,0.7,1.7C287.4,209.2,288,209.5,288.7,209.5z"/>
			</g>
			<g>
				<path id="me3a858cda0_00000067199664829758235580000003273437172120440484_" class="st1" d="M315.7,161c0.6,0,1.3-0.3,1.7-0.7
					c0.5-0.5,0.7-1.1,0.7-1.7s-0.3-1.3-0.7-1.7c-0.5-0.5-1.1-0.7-1.7-0.7s-1.3,0.3-1.7,0.7c-0.5,0.5-0.7,1.1-0.7,1.7
					s0.3,1.3,0.7,1.7C314.5,160.7,315.1,161,315.7,161z"/>
			</g>
			<g>
				<path id="me3a858cda0_00000003821582376497734490000010165233072846197646_" class="st1" d="M271.5,22.5c0.6,0,1.3-0.3,1.7-0.7
					c0.5-0.5,0.7-1.1,0.7-1.7s-0.3-1.3-0.7-1.7c-0.5-0.5-1.1-0.7-1.7-0.7s-1.3,0.3-1.7,0.7c-0.5,0.5-0.7,1.1-0.7,1.7
					s0.3,1.3,0.7,1.7C270.3,22.2,270.9,22.5,271.5,22.5z"/>
			</g>
			<g>
				<path id="me3a858cda0_00000017496163325349949700000010213297341604527797_" class="st1" d="M119.7,259.3c0.6,0,1.3-0.3,1.7-0.7
					c0.5-0.5,0.7-1.1,0.7-1.7c0-0.6-0.3-1.3-0.7-1.7c-0.5-0.5-1.1-0.7-1.7-0.7s-1.3,0.3-1.7,0.7c-0.5,0.5-0.7,1.1-0.7,1.7
					c0,0.6,0.3,1.3,0.7,1.7C118.4,259,119,259.3,119.7,259.3z"/>
			</g>
			<g>
				<path id="me3a858cda0_00000090996342663400770240000001236437783303658915_" class="st1" d="M225.4,91.8c0.6,0,1.3-0.3,1.7-0.7
					c0.5-0.5,0.7-1.1,0.7-1.7s-0.3-1.3-0.7-1.7c-0.5-0.5-1.1-0.7-1.7-0.7s-1.3,0.3-1.7,0.7c-0.5,0.5-0.7,1.1-0.7,1.7
					s0.3,1.3,0.7,1.7C224.1,91.5,224.7,91.8,225.4,91.8z"/>
			</g>
			<g>
				<path id="me3a858cda0_00000150803180429707560760000011283541647295376817_" class="st1" d="M112.7,102.3c0.6,0,1.3-0.3,1.7-0.7
					c0.5-0.5,0.7-1.1,0.7-1.7s-0.3-1.3-0.7-1.7c-0.5-0.5-1.1-0.7-1.7-0.7s-1.3,0.3-1.7,0.7c-0.5,0.5-0.7,1.1-0.7,1.7
					s0.3,1.3,0.7,1.7C111.4,102,112,102.3,112.7,102.3z"/>
			</g>
			<g>
				<path id="me3a858cda0_00000077324711279923927460000012075918025954517162_" class="st1" d="M402.1,109.1c0.6,0,1.3-0.3,1.7-0.7
					c0.5-0.5,0.7-1.1,0.7-1.7s-0.3-1.3-0.7-1.7c-0.5-0.5-1.1-0.7-1.7-0.7s-1.3,0.3-1.7,0.7c-0.5,0.5-0.7,1.1-0.7,1.7
					s0.3,1.3,0.7,1.7C400.9,108.8,401.5,109.1,402.1,109.1z"/>
			</g>
			<g>
				<path id="me3a858cda0_00000151524694395682829260000009415968993400820117_" class="st1" d="M134.8,253.5c0.6,0,1.3-0.3,1.7-0.7
					c0.5-0.5,0.7-1.1,0.7-1.7s-0.3-1.3-0.7-1.7c-0.5-0.5-1.1-0.7-1.7-0.7s-1.3,0.3-1.7,0.7c-0.5,0.5-0.7,1.1-0.7,1.7
					s0.3,1.3,0.7,1.7C133.5,253.2,134.1,253.5,134.8,253.5z"/>
			</g>
			<g>
				<path id="me3a858cda0_00000020368130334547573900000010642644030737404073_" class="st1" d="M78,261.9c0.6,0,1.3-0.3,1.7-0.7
					c0.5-0.5,0.7-1.1,0.7-1.7c0-0.6-0.3-1.3-0.7-1.7c-0.5-0.5-1.1-0.7-1.7-0.7s-1.3,0.3-1.7,0.7c-0.5,0.5-0.7,1.1-0.7,1.7
					c0,0.6,0.3,1.3,0.7,1.7C76.7,261.7,77.4,261.9,78,261.9z"/>
			</g>
			<g>
				<path id="me3a858cda0_00000133506245759977386070000009496738187249707158_" class="st1" d="M176.1,190.5c0.6,0,1.3-0.3,1.7-0.7
					c0.5-0.5,0.7-1.1,0.7-1.7s-0.3-1.3-0.7-1.7c-0.5-0.5-1.1-0.7-1.7-0.7s-1.3,0.3-1.7,0.7c-0.5,0.5-0.7,1.1-0.7,1.7
					s0.3,1.3,0.7,1.7C174.9,190.3,175.5,190.5,176.1,190.5z"/>
			</g>
			<g>
				<path id="me3a858cda0_00000170966770170454846020000005996503797533240225_" class="st1" d="M204.2,163.1c0.6,0,1.3-0.3,1.7-0.7
					c0.5-0.5,0.7-1.1,0.7-1.7s-0.3-1.3-0.7-1.7c-0.5-0.5-1.1-0.7-1.7-0.7s-1.3,0.3-1.7,0.7c-0.5,0.5-0.7,1.1-0.7,1.7
					s0.3,1.3,0.7,1.7C202.9,162.8,203.5,163.1,204.2,163.1z"/>
			</g>
			<g>
				<path id="me3a858cda0_00000177454282976462994120000007395478805613601450_" class="st1" d="M174.4,212.2c0.6,0,1.3-0.3,1.7-0.7
					c0.5-0.5,0.7-1.1,0.7-1.7s-0.3-1.3-0.7-1.7c-0.5-0.5-1.1-0.7-1.7-0.7s-1.3,0.3-1.7,0.7c-0.5,0.5-0.7,1.1-0.7,1.7
					s0.3,1.3,0.7,1.7C173.1,212,173.8,212.2,174.4,212.2z"/>
			</g>
			<g>
				<path id="me3a858cda0_00000065055336211525537530000013248837730238455948_" class="st1" d="M97.7,272.4c0.6,0,1.3-0.3,1.7-0.7
					c0.5-0.5,0.7-1.1,0.7-1.7c0-0.6-0.3-1.3-0.7-1.7c-0.5-0.5-1.1-0.7-1.7-0.7s-1.3,0.3-1.7,0.7c-0.5,0.5-0.7,1.1-0.7,1.7
					c0,0.6,0.3,1.3,0.7,1.7C96.4,272.1,97,272.4,97.7,272.4z"/>
			</g>
			<g>
				<path id="me3a858cda0_00000149346024785805000240000015168174485470954646_" class="st1" d="M365.1,162.1c0.6,0,1.3-0.3,1.7-0.7
					c0.5-0.5,0.7-1.1,0.7-1.7s-0.3-1.3-0.7-1.7c-0.5-0.5-1.1-0.7-1.7-0.7s-1.3,0.3-1.7,0.7c-0.5,0.5-0.7,1.1-0.7,1.7
					s0.3,1.3,0.7,1.7C363.8,161.9,364.5,162.1,365.1,162.1z"/>
			</g>
			<g>
				<path id="me3a858cda0_00000142176652550352165060000009629331168524611234_" class="st1" d="M101.2,230.6c0.6,0,1.3-0.3,1.7-0.7
					c0.5-0.5,0.7-1.1,0.7-1.7s-0.3-1.3-0.7-1.7c-0.5-0.5-1.1-0.7-1.7-0.7s-1.3,0.3-1.7,0.7c-0.5,0.5-0.7,1.1-0.7,1.7
					s0.3,1.3,0.7,1.7C100,230.3,100.6,230.6,101.2,230.6z"/>
			</g>
			<g>
				<path id="me3a858cda0_00000044150415183167206080000008398176257254403742_" class="st1" d="M128.5,205.1c0.6,0,1.3-0.3,1.7-0.7
					c0.5-0.5,0.7-1.1,0.7-1.7s-0.3-1.3-0.7-1.7c-0.5-0.5-1.1-0.7-1.7-0.7s-1.3,0.3-1.7,0.7c-0.5,0.5-0.7,1.1-0.7,1.7
					s0.3,1.3,0.7,1.7C127.3,204.8,127.9,205.1,128.5,205.1z"/>
			</g>
			<g>
				<path id="me3a858cda0_00000064322284758751923390000014637189999208922282_" class="st1" d="M145.9,181.4c0.6,0,1.3-0.3,1.7-0.7
					c0.5-0.5,0.7-1.1,0.7-1.7s-0.3-1.3-0.7-1.7c-0.5-0.5-1.1-0.7-1.7-0.7s-1.3,0.3-1.7,0.7c-0.5,0.5-0.7,1.1-0.7,1.7
					s0.3,1.3,0.7,1.7C144.6,181.1,145.3,181.4,145.9,181.4z"/>
			</g>
			<g>
				<path id="me3a858cda0_00000079452517661445618210000001367950939534281144_" class="st1" d="M95.9,250.8c0.6,0,1.3-0.3,1.7-0.7
					c0.5-0.5,0.7-1.1,0.7-1.7s-0.3-1.3-0.7-1.7c-0.5-0.5-1.1-0.7-1.7-0.7s-1.3,0.3-1.7,0.7c-0.5,0.5-0.7,1.1-0.7,1.7
					s0.3,1.3,0.7,1.7C94.7,250.5,95.3,250.8,95.9,250.8z"/>
			</g>
			<g>
				<path id="me3a858cda0_00000022527925865237928410000013271930930705099665_" class="st1" d="M68.9,281.7c0.6,0,1.3-0.3,1.7-0.7
					c0.5-0.5,0.7-1.1,0.7-1.7c0-0.6-0.3-1.3-0.7-1.7c-0.5-0.5-1.1-0.7-1.7-0.7s-1.3,0.3-1.7,0.7c-0.5,0.5-0.7,1.1-0.7,1.7
					c0,0.6,0.3,1.3,0.7,1.7C67.6,281.5,68.2,281.7,68.9,281.7z"/>
			</g>
			<g>
				<path id="me3a858cda0_00000138558217355254141020000006997382123799486646_" class="st1" d="M191.7,73.5c0.6,0,1.3-0.3,1.7-0.7
					c0.5-0.5,0.7-1.1,0.7-1.7s-0.3-1.3-0.7-1.7c-0.5-0.5-1.1-0.7-1.7-0.7s-1.3,0.3-1.7,0.7c-0.5,0.5-0.7,1.1-0.7,1.7
					s0.3,1.3,0.7,1.7C190.5,73.2,191.1,73.5,191.7,73.5z"/>
			</g>
			<g>
				<path id="me3a858cda0_00000036215276344140513360000016221909791242541195_" class="st1" d="M307.5,74.3c0.6,0,1.3-0.3,1.7-0.7
					c0.5-0.5,0.7-1.1,0.7-1.7s-0.3-1.3-0.7-1.7c-0.5-0.5-1.1-0.7-1.7-0.7s-1.3,0.3-1.7,0.7c-0.5,0.5-0.7,1.1-0.7,1.7
					s0.3,1.3,0.7,1.7C306.2,74,306.8,74.3,307.5,74.3z"/>
			</g>
			<g>
				<path id="me3a858cda0_00000003074598653384194960000018060316377705746871_" class="st1" d="M133.4,219.5c0.6,0,1.3-0.3,1.7-0.7
					c0.5-0.5,0.7-1.1,0.7-1.7s-0.3-1.3-0.7-1.7c-0.5-0.5-1.1-0.7-1.7-0.7s-1.3,0.3-1.7,0.7c-0.5,0.5-0.7,1.1-0.7,1.7
					s0.3,1.3,0.7,1.7C132.2,219.2,132.8,219.5,133.4,219.5z"/>
			</g>
			<g>
				<path id="me3a858cda0_00000109011473731142649620000007206581372227360692_" class="st1" d="M266.7,97.7c0.6,0,1.3-0.3,1.7-0.7
					c0.5-0.5,0.7-1.1,0.7-1.7s-0.3-1.3-0.7-1.7c-0.5-0.5-1.1-0.7-1.7-0.7s-1.3,0.3-1.7,0.7c-0.5,0.5-0.7,1.1-0.7,1.7
					s0.3,1.3,0.7,1.7C265.4,97.4,266.1,97.7,266.7,97.7z"/>
			</g>
			<g>
				<path id="me3a858cda0_00000032619443001243184380000003773879956596612736_" class="st1" d="M245.6,126.1c0.6,0,1.3-0.3,1.7-0.7
					c0.5-0.5,0.7-1.1,0.7-1.7s-0.3-1.3-0.7-1.7c-0.5-0.5-1.1-0.7-1.7-0.7s-1.3,0.3-1.7,0.7c-0.5,0.5-0.7,1.1-0.7,1.7
					s0.3,1.3,0.7,1.7C244.3,125.8,244.9,126.1,245.6,126.1z"/>
			</g>
			<g>
				<path id="me3a858cda0_00000127759632968755968900000017016968631138075283_" class="st1" d="M123.4,278.4c0.6,0,1.3-0.3,1.7-0.7
					c0.5-0.5,0.7-1.1,0.7-1.7c0-0.6-0.3-1.3-0.7-1.7c-0.5-0.5-1.1-0.7-1.7-0.7s-1.3,0.3-1.7,0.7c-0.5,0.5-0.7,1.1-0.7,1.7
					c0,0.6,0.3,1.3,0.7,1.7C122.1,278.2,122.8,278.4,123.4,278.4z"/>
			</g>
			<g>
				<path id="me3a858cda0_00000118382146029083321630000004126674708668827327_" class="st1" d="M104.5,181.9c0.6,0,1.3-0.3,1.7-0.7
					c0.5-0.5,0.7-1.1,0.7-1.7s-0.3-1.3-0.7-1.7c-0.5-0.5-1.1-0.7-1.7-0.7s-1.3,0.3-1.7,0.7c-0.5,0.5-0.7,1.1-0.7,1.7
					s0.3,1.3,0.7,1.7C103.2,181.7,103.8,181.9,104.5,181.9z"/>
			</g>
			<g>
				<path id="me3a858cda0_00000063592662153433436600000011503052009485625266_" class="st1" d="M98.6,266.3c0.6,0,1.3-0.3,1.7-0.7
					c0.5-0.5,0.7-1.1,0.7-1.7c0-0.6-0.3-1.3-0.7-1.7c-0.5-0.5-1.1-0.7-1.7-0.7s-1.3,0.3-1.7,0.7c-0.5,0.5-0.7,1.1-0.7,1.7
					c0,0.6,0.3,1.3,0.7,1.7C97.3,266.1,97.9,266.3,98.6,266.3z"/>
			</g>
			<g>
				<path id="me3a858cda0_00000083781642321970454030000005938798964101282177_" class="st1" d="M112.4,210.6c0.6,0,1.3-0.3,1.7-0.7
					c0.5-0.5,0.7-1.1,0.7-1.7s-0.3-1.3-0.7-1.7c-0.5-0.5-1.1-0.7-1.7-0.7s-1.3,0.3-1.7,0.7c-0.5,0.5-0.7,1.1-0.7,1.7
					s0.3,1.3,0.7,1.7C111.1,210.4,111.7,210.6,112.4,210.6z"/>
			</g>
			<g>
				<path id="me3a858cda0_00000077290839279888933040000006655631695923270312_" class="st1" d="M176.1,182.8c0.6,0,1.3-0.3,1.7-0.7
					c0.5-0.5,0.7-1.1,0.7-1.7s-0.3-1.3-0.7-1.7c-0.5-0.5-1.1-0.7-1.7-0.7s-1.3,0.3-1.7,0.7c-0.5,0.5-0.7,1.1-0.7,1.7
					s0.3,1.3,0.7,1.7C174.8,182.6,175.5,182.8,176.1,182.8z"/>
			</g>
			<g>
				<path id="me3a858cda0_00000010999266419042299940000004765750127199707307_" class="st1" d="M125.6,261.8c0.6,0,1.3-0.3,1.7-0.7
					c0.5-0.5,0.7-1.1,0.7-1.7c0-0.6-0.3-1.3-0.7-1.7c-0.5-0.5-1.1-0.7-1.7-0.7s-1.3,0.3-1.7,0.7c-0.5,0.5-0.7,1.1-0.7,1.7
					c0,0.6,0.3,1.3,0.7,1.7C124.3,261.6,125,261.8,125.6,261.8z"/>
			</g>
			<g>
				<path id="me3a858cda0_00000056427181746347036660000013063430093050148010_" class="st1" d="M402.1,102.6c0.6,0,1.3-0.3,1.7-0.7
					c0.5-0.5,0.7-1.1,0.7-1.7s-0.3-1.3-0.7-1.7c-0.5-0.5-1.1-0.7-1.7-0.7s-1.3,0.3-1.7,0.7c-0.5,0.5-0.7,1.1-0.7,1.7
					s0.3,1.3,0.7,1.7C400.9,102.4,401.5,102.6,402.1,102.6z"/>
			</g>
			<g>
				<path id="me3a858cda0_00000000200303570045018860000000912623881775572135_" class="st1" d="M275.6,111.3c0.6,0,1.3-0.3,1.7-0.7
					c0.5-0.5,0.7-1.1,0.7-1.7s-0.3-1.3-0.7-1.7c-0.5-0.5-1.1-0.7-1.7-0.7s-1.3,0.3-1.7,0.7c-0.5,0.5-0.7,1.1-0.7,1.7
					s0.3,1.3,0.7,1.7C274.3,111,274.9,111.3,275.6,111.3z"/>
			</g>
			<g>
				<path id="me3a858cda0_00000153691616829277403230000007415293488467166372_" class="st1" d="M71.7,287.2c0.6,0,1.3-0.3,1.7-0.7
					c0.5-0.5,0.7-1.1,0.7-1.7c0-0.6-0.3-1.3-0.7-1.7c-0.5-0.5-1.1-0.7-1.7-0.7s-1.3,0.3-1.7,0.7c-0.5,0.5-0.7,1.1-0.7,1.7
					c0,0.6,0.3,1.3,0.7,1.7C70.4,286.9,71,287.2,71.7,287.2z"/>
			</g>
			<g>
				<path id="me3a858cda0_00000085209971574673391020000004705390007765778603_" class="st1" d="M86.2,278.4c0.6,0,1.3-0.3,1.7-0.7
					c0.5-0.5,0.7-1.1,0.7-1.7c0-0.6-0.3-1.3-0.7-1.7c-0.5-0.5-1.1-0.7-1.7-0.7s-1.3,0.3-1.7,0.7c-0.5,0.5-0.7,1.1-0.7,1.7
					c0,0.6,0.3,1.3,0.7,1.7C85,278.2,85.6,278.4,86.2,278.4z"/>
			</g>
			<g>
				<path id="me3a858cda0_00000180329540848790529180000008228725838961955713_" class="st1" d="M82.2,284.4c0.6,0,1.3-0.3,1.7-0.7
					c0.5-0.5,0.7-1.1,0.7-1.7c0-0.6-0.3-1.3-0.7-1.7c-0.5-0.5-1.1-0.7-1.7-0.7s-1.3,0.3-1.7,0.7c-0.5,0.5-0.7,1.1-0.7,1.7
					c0,0.6,0.3,1.3,0.7,1.7C81,284.2,81.6,284.4,82.2,284.4z"/>
			</g>
			<g>
				<path id="me3a858cda0_00000057142390406731321020000016179980874844735931_" class="st1" d="M365.1,144.2c0.6,0,1.3-0.3,1.7-0.7
					c0.5-0.5,0.7-1.1,0.7-1.7s-0.3-1.3-0.7-1.7c-0.5-0.5-1.1-0.7-1.7-0.7s-1.3,0.3-1.7,0.7c-0.5,0.5-0.7,1.1-0.7,1.7
					s0.3,1.3,0.7,1.7C363.8,144,364.5,144.2,365.1,144.2z"/>
			</g>
			<g>
				<path id="me3a858cda0_00000134247001812497633810000004261943523734440882_" class="st1" d="M313,110.1c0.6,0,1.3-0.3,1.7-0.7
					c0.5-0.5,0.7-1.1,0.7-1.7s-0.3-1.3-0.7-1.7c-0.5-0.5-1.1-0.7-1.7-0.7s-1.3,0.3-1.7,0.7c-0.5,0.5-0.7,1.1-0.7,1.7
					s0.3,1.3,0.7,1.7C311.7,109.9,312.3,110.1,313,110.1z"/>
			</g>
			<g>
				<path id="me3a858cda0_00000147181544544409563470000014592822624119446460_" class="st1" d="M235.1,134.8c0.6,0,1.3-0.3,1.7-0.7
					c0.5-0.5,0.7-1.1,0.7-1.7s-0.3-1.3-0.7-1.7c-0.5-0.5-1.1-0.7-1.7-0.7s-1.3,0.3-1.7,0.7c-0.5,0.5-0.7,1.1-0.7,1.7
					s0.3,1.3,0.7,1.7C233.9,134.5,234.5,134.8,235.1,134.8z"/>
			</g>
			<g>
				<path id="me3a858cda0_00000046302989161101829960000006956913586997210543_" class="st1" d="M68.9,267.1c0.6,0,1.3-0.3,1.7-0.7
					c0.5-0.5,0.7-1.1,0.7-1.7c0-0.6-0.3-1.3-0.7-1.7c-0.5-0.5-1.1-0.7-1.7-0.7s-1.3,0.3-1.7,0.7c-0.5,0.5-0.7,1.1-0.7,1.7
					c0,0.6,0.3,1.3,0.7,1.7C67.6,266.8,68.2,267.1,68.9,267.1z"/>
			</g>
			<g>
				<path id="me3a858cda0_00000128478885069695984940000005641225038446644360_" class="st1" d="M346.6,247.5c0.6,0,1.3-0.3,1.7-0.7
					c0.5-0.5,0.7-1.1,0.7-1.7s-0.3-1.3-0.7-1.7c-0.5-0.5-1.1-0.7-1.7-0.7s-1.3,0.3-1.7,0.7c-0.5,0.5-0.7,1.1-0.7,1.7
					s0.3,1.3,0.7,1.7C345.3,247.3,345.9,247.5,346.6,247.5z"/>
			</g>
			<g>
				<path id="me3a858cda0_00000151540891352311623810000008878376637001737117_" class="st1" d="M392.9,67c0.6,0,1.3-0.3,1.7-0.7
					c0.5-0.5,0.7-1.1,0.7-1.7s-0.3-1.3-0.7-1.7c-0.5-0.5-1.1-0.7-1.7-0.7s-1.3,0.3-1.7,0.7c-0.5,0.5-0.7,1.1-0.7,1.7
					s0.3,1.3,0.7,1.7C391.6,66.7,392.2,67,392.9,67z"/>
			</g>
			<g>
				<path id="me3a858cda0_00000045578435315155682400000015380278415241423773_" class="st1" d="M285.6,158.8c0.6,0,1.3-0.3,1.7-0.7
					c0.5-0.5,0.7-1.1,0.7-1.7s-0.3-1.3-0.7-1.7c-0.5-0.5-1.1-0.7-1.7-0.7s-1.3,0.3-1.7,0.7c-0.5,0.5-0.7,1.1-0.7,1.7
					s0.3,1.3,0.7,1.7C284.3,158.5,284.9,158.8,285.6,158.8z"/>
			</g>
		</g>
	</g>
</g>
<g id="matplotlib.axis_1">
	<g id="xtick_1">
		<g id="line2d_1">
			<g>
				<g>
					<path id="m3ee8aa2f1f" class="st2" d="M68.9,294.6v3.5"/>
				</g>
			</g>
		</g>
		<g id="text_1">
			<text transform="matrix(1 0 0 1 58.4842 312.2778)" class="st3 st4">0.0</text>
		</g>
	</g>
	<g id="xtick_2">
		<g id="line2d_2">
			<g>
				<g>
					<path id="m3ee8aa2f1f_00000080179888453952238080000018039434197415612056_" class="st2" d="M142.9,294.6v3.5"/>
				</g>
			</g>
		</g>
		<g id="text_2">
			<text transform="matrix(1 0 0 1 132.5457 312.2778)" class="st3 st4">0.2</text>
		</g>
	</g>
	<g id="xtick_3">
		<g id="line2d_3">
			<g>
				<g>
					<path id="m3ee8aa2f1f_00000097463111263567387350000006778243975082134657_" class="st2" d="M217,294.6v3.5"/>
				</g>
			</g>
		</g>
		<g id="text_3">
			<text transform="matrix(1 0 0 1 206.6071 312.2778)" class="st3 st4">0.4</text>
		</g>
	</g>
	<g id="xtick_4">
		<g id="line2d_4">
			<g>
				<g>
					<path id="m3ee8aa2f1f_00000101067784678601473440000008746889893836583324_" class="st2" d="M291,294.6v3.5"/>
				</g>
			</g>
		</g>
		<g id="text_4">
			<text transform="matrix(1 0 0 1 280.6686 312.2778)" class="st3 st4">0.6</text>
		</g>
	</g>
	<g id="xtick_5">
		<g id="line2d_5">
			<g>
				<g>
					<path id="m3ee8aa2f1f_00000070800814240444660080000012696660635607345286_" class="st2" d="M365.1,294.6v3.5"/>
				</g>
			</g>
		</g>
		<g id="text_5">
			<text transform="matrix(1 0 0 1 354.7301 312.2778)" class="st3 st4">0.8</text>
		</g>
	</g>
	<g id="xtick_6">
		<g id="line2d_6">
			<g>
				<g>
					<path id="m3ee8aa2f1f_00000070076391861708103910000001669066586377821582_" class="st2" d="M439.2,294.6v3.5"/>
				</g>
			</g>
		</g>
		<g id="text_6">
			<text transform="matrix(1 0 0 1 428.7916 312.2778)" class="st3 st4">1.0</text>
		</g>
	</g>
	<g id="text_7">
		<text transform="matrix(1 0 0 1 199.113 331.3469)" class="st3 st5">Predicted FDR</text>
	</g>
</g>
<g id="matplotlib.axis_2">
	<g id="ytick_1">
		<g id="line2d_7">
			<g>
				<g>
					<path id="mcd2fa49f18" class="st2" d="M59.6,287.9h-3.5"/>
				</g>
			</g>
		</g>
		<g id="text_8">
			<text transform="matrix(1 0 0 1 31.8529 293.1751)" class="st3 st4">0.0</text>
		</g>
	</g>
	<g id="ytick_2">
		<g id="line2d_8">
			<g>
				<g>
					<path id="mcd2fa49f18_00000022530190679427031260000005868182062488960703_" class="st2" d="M59.6,233.6h-3.5"/>
				</g>
			</g>
		</g>
		<g id="text_9">
			<text transform="matrix(1 0 0 1 31.8529 238.9047)" class="st3 st4">0.2</text>
		</g>
	</g>
	<g id="ytick_3">
		<g id="line2d_9">
			<g>
				<g>
					<path id="mcd2fa49f18_00000155839345350950444030000009211573292831024816_" class="st2" d="M59.6,179.3h-3.5"/>
				</g>
			</g>
		</g>
		<g id="text_10">
			<text transform="matrix(1 0 0 1 31.8529 184.6342)" class="st3 st4">0.4</text>
		</g>
	</g>
	<g id="ytick_4">
		<g id="line2d_10">
			<g>
				<g>
					<path id="mcd2fa49f18_00000183939294032979823520000015379362779968777869_" class="st2" d="M59.6,125h-3.5"/>
				</g>
			</g>
		</g>
		<g id="text_11">
			<text transform="matrix(1 0 0 1 31.8529 130.3636)" class="st3 st4">0.6</text>
		</g>
	</g>
	<g id="ytick_5">
		<g id="line2d_11">
			<g>
				<g>
					<path id="mcd2fa49f18_00000079460950181749787970000016005564650705558174_" class="st2" d="M59.6,70.8h-3.5"/>
				</g>
			</g>
		</g>
		<g id="text_12">
			<text transform="matrix(1 0 0 1 31.8529 76.0932)" class="st3 st4">0.8</text>
		</g>
	</g>
	<g id="ytick_6">
		<g id="line2d_12">
			<g>
				<g>
					<path id="mcd2fa49f18_00000096034503885669469440000009527457332534716334_" class="st2" d="M59.6,16.5h-3.5"/>
				</g>
			</g>
		</g>
		<g id="text_13">
			<text transform="matrix(1 0 0 1 31.8529 21.8228)" class="st3 st4">1.0</text>
		</g>
	</g>
	<g id="text_14">
		<text transform="matrix(6.123234e-17 -1 1 6.123234e-17 23.0081 188.6914)" class="st3 st5">True FDR</text>
	</g>
</g>
<g id="line2d_13">
	<g>
		<defs>
			<rect id="SVGID_00000142886430778119512230000010360151811792089775_" x="59.6" y="9.7" width="388.8" height="284.9"/>
		</defs>
		<clipPath id="SVGID_00000147184762238940277700000011682675170649892287_">
			<use xlink:href="#SVGID_00000142886430778119512230000010360151811792089775_"  style="overflow:visible;"/>
		</clipPath>
		
			<path style="clip-path:url(#SVGID_00000147184762238940277700000011682675170649892287_);fill:none;stroke:#000000;stroke-width:2;stroke-linejoin:round;stroke-dasharray:7.4,3.2;" d="
			M68.9,287.9L439.2,16.5"/>
	</g>
</g>
<g id="line2d_14">
	<g>
		<defs>
			<rect id="SVGID_00000118368549412838693350000009310202606365249690_" x="59.6" y="9.7" width="388.8" height="284.9"/>
		</defs>
		<clipPath id="SVGID_00000116203661340380918490000006893953827893389197_">
			<use xlink:href="#SVGID_00000118368549412838693350000009310202606365249690_"  style="overflow:visible;"/>
		</clipPath>
		
			<path style="clip-path:url(#SVGID_00000116203661340380918490000006893953827893389197_);fill:none;stroke:#000000;stroke-width:2;stroke-linecap:square;stroke-linejoin:round;" d="
			M68.9,241.6L439.2,73"/>
	</g>
</g>
<g id="patch_3">
	<path class="st8" d="M59.6,294.6V9.7"/>
</g>
<g id="patch_4">
	<path class="st8" d="M448.4,294.6V9.7"/>
</g>
<g id="patch_5">
	<path class="st8" d="M59.6,294.6h388.8"/>
</g>
<g id="patch_6">
	<path class="st8" d="M59.6,9.7h388.8"/>
</g>
<g id="text_15">
	<g transform="translate(179.949932 260.720952)">
		<text transform="matrix(1 0 0 1 0 -0.5625)" class="st9 st5">R</text>
		<text transform="matrix(1 0 0 1 11.5547 -0.5625)" class="st9 st10"> </text>
		<text transform="matrix(1 0 0 1 12.2408 -6.6875)" class="st9 st11">2</text>
		<text transform="matrix(1 0 0 1 18.4697 -6.6875)" class="st9 st10"> </text>
		<text transform="matrix(1 0 0 1 19.8041 -0.5625)" class="st9 st5"> </text>
		<text transform="matrix(1 0 0 1 24.8901 -0.5625)" class="st9 st5">=</text>
		<text transform="matrix(1 0 0 1 38.2963 -0.5625)" class="st9 st5"> </text>
		<text transform="matrix(1 0 0 1 43.3822 -0.5625)" class="st9 st5">0</text>
		<text transform="matrix(1 0 0 1 53.5619 -0.5625)" class="st9 st5">.</text>
		<text transform="matrix(1 0 0 1 58.6479 -0.5625)" class="st9 st5">9</text>
		<text transform="matrix(1 0 0 1 68.8276 -0.5625)" class="st9 st5">8</text>
	</g>
</g>
</svg>
