<?xml version="1.0" encoding="utf-8"?>
<!-- Generator: Adobe Illustrator 27.5.0, SVG Export Plug-In . SVG Version: 6.00 Build 0)  -->
<svg version="1.1" id="Layer_1" xmlns="http://www.w3.org/2000/svg" xmlns:xlink="http://www.w3.org/1999/xlink" x="0px" y="0px"
	 viewBox="0 0 460.8 345.6" style="enable-background:new 0 0 460.8 345.6;" xml:space="preserve">
<style type="text/css">
	.st0{clip-path:url(#SVGID_00000149346053870402495880000018035434465185494185_);}
	.st1{stroke:#000000;stroke-width:0.5;stroke-linejoin:round;}
	.st2{font-family:'ArialMT';}
	.st3{font-size:8px;}
	.st4{clip-path:url(#SVGID_00000112604544729664261960000007941692407388434851_);fill:none;stroke:#FF0000;stroke-linejoin:round;}
	
		.st5{opacity:0.5;clip-path:url(#SVGID_00000072992074010632162060000001501303374636119738_);fill:none;stroke:#000000;stroke-linecap:square;stroke-linejoin:round;stroke-dasharray:5,3;}
	.st6{stroke:#000000;stroke-width:0.8;stroke-linejoin:round;}
	.st7{fill:none;stroke:#000000;stroke-width:0.8;stroke-linecap:square;}
</style>
<g id="PathCollection_1">
	<g>
		<defs>
			<rect id="SVGID_1_" x="90.1" y="9.7" width="284.9" height="284.9"/>
		</defs>
		<clipPath id="SVGID_00000121254597394881217540000016040975150954444946_">
			<use xlink:href="#SVGID_1_"  style="overflow:visible;"/>
		</clipPath>
		<g style="clip-path:url(#SVGID_00000121254597394881217540000016040975150954444946_);">
			<g>
				<path id="m3ea37ee918" class="st1" d="M225.1,125.7c0.3,0,0.5-0.1,0.7-0.3c0.2-0.2,0.3-0.4,0.3-0.7c0-0.3-0.1-0.5-0.3-0.7
					s-0.4-0.3-0.7-0.3c-0.3,0-0.5,0.1-0.7,0.3c-0.2,0.2-0.3,0.4-0.3,0.7c0,0.3,0.1,0.5,0.3,0.7C224.6,125.6,224.9,125.7,225.1,125.7
					z"/>
			</g>
			<g>
				<path id="m3ea37ee918_00000036934800855541992080000016624642804932986763_" class="st1" d="M182.3,206.9c0.3,0,0.5-0.1,0.7-0.3
					c0.2-0.2,0.3-0.4,0.3-0.7c0-0.3-0.1-0.5-0.3-0.7c-0.2-0.2-0.4-0.3-0.7-0.3c-0.3,0-0.5,0.1-0.7,0.3c-0.2,0.2-0.3,0.4-0.3,0.7
					c0,0.3,0.1,0.5,0.3,0.7C181.8,206.8,182.1,206.9,182.3,206.9z"/>
			</g>
			<g>
				<path id="m3ea37ee918_00000085214903607146586030000013677051310447819158_" class="st1" d="M206.1,194.4c0.3,0,0.5-0.1,0.7-0.3
					c0.2-0.2,0.3-0.4,0.3-0.7c0-0.3-0.1-0.5-0.3-0.7c-0.2-0.2-0.4-0.3-0.7-0.3c-0.3,0-0.5,0.1-0.7,0.3c-0.2,0.2-0.3,0.4-0.3,0.7
					c0,0.3,0.1,0.5,0.3,0.7C205.6,194.3,205.8,194.4,206.1,194.4z"/>
			</g>
			<g>
				<path id="m3ea37ee918_00000018237250486255409230000011445503787425368767_" class="st1" d="M234.2,125.7c0.3,0,0.5-0.1,0.7-0.3
					c0.2-0.2,0.3-0.4,0.3-0.7c0-0.3-0.1-0.5-0.3-0.7c-0.2-0.2-0.4-0.3-0.7-0.3c-0.3,0-0.5,0.1-0.7,0.3c-0.2,0.2-0.3,0.4-0.3,0.7
					c0,0.3,0.1,0.5,0.3,0.7C233.7,125.6,233.9,125.7,234.2,125.7z"/>
			</g>
			<g>
				<path id="m3ea37ee918_00000161589665680623530300000007932600166659163569_" class="st1" d="M202.6,184.7c0.3,0,0.5-0.1,0.7-0.3
					c0.2-0.2,0.3-0.4,0.3-0.7s-0.1-0.5-0.3-0.7c-0.2-0.2-0.4-0.3-0.7-0.3c-0.3,0-0.5,0.1-0.7,0.3c-0.2,0.2-0.3,0.4-0.3,0.7
					s0.1,0.5,0.3,0.7C202.1,184.6,202.4,184.7,202.6,184.7z"/>
			</g>
			<g>
				<path id="m3ea37ee918_00000057127102314358393820000005408686443067312789_" class="st1" d="M217,178c0.3,0,0.5-0.1,0.7-0.3
					c0.2-0.2,0.3-0.4,0.3-0.7c0-0.3-0.1-0.5-0.3-0.7c-0.2-0.2-0.4-0.3-0.7-0.3s-0.5,0.1-0.7,0.3c-0.2,0.2-0.3,0.4-0.3,0.7
					c0,0.3,0.1,0.5,0.3,0.7C216.5,177.9,216.8,178,217,178z"/>
			</g>
			<g>
				<path id="m3ea37ee918_00000086692909975360054080000007898401096255864474_" class="st1" d="M258.5,121.2c0.3,0,0.5-0.1,0.7-0.3
					s0.3-0.4,0.3-0.7s-0.1-0.5-0.3-0.7c-0.2-0.2-0.4-0.3-0.7-0.3c-0.3,0-0.5,0.1-0.7,0.3c-0.2,0.2-0.3,0.4-0.3,0.7s0.1,0.5,0.3,0.7
					C258,121.1,258.3,121.2,258.5,121.2z"/>
			</g>
			<g>
				<path id="m3ea37ee918_00000155847285579476899750000013993493298752172933_" class="st1" d="M203.6,188.6c0.3,0,0.5-0.1,0.7-0.3
					c0.2-0.2,0.3-0.4,0.3-0.7c0-0.3-0.1-0.5-0.3-0.7c-0.2-0.2-0.4-0.3-0.7-0.3s-0.5,0.1-0.7,0.3c-0.2,0.2-0.3,0.4-0.3,0.7
					c0,0.3,0.1,0.5,0.3,0.7C203.1,188.5,203.3,188.6,203.6,188.6z"/>
			</g>
			<g>
				<path id="m3ea37ee918_00000130630295672218914290000003652306364804941489_" class="st1" d="M185.3,214.6c0.3,0,0.5-0.1,0.7-0.3
					c0.2-0.2,0.3-0.4,0.3-0.7s-0.1-0.5-0.3-0.7c-0.2-0.2-0.4-0.3-0.7-0.3c-0.3,0-0.5,0.1-0.7,0.3c-0.2,0.2-0.3,0.4-0.3,0.7
					s0.1,0.5,0.3,0.7C184.8,214.5,185.1,214.6,185.3,214.6z"/>
			</g>
			<g>
				<path id="m3ea37ee918_00000139283242427888612850000009427058893809053863_" class="st1" d="M228.4,125.7c0.3,0,0.5-0.1,0.7-0.3
					c0.2-0.2,0.3-0.4,0.3-0.7c0-0.3-0.1-0.5-0.3-0.7c-0.2-0.2-0.4-0.3-0.7-0.3c-0.3,0-0.5,0.1-0.7,0.3c-0.2,0.2-0.3,0.4-0.3,0.7
					c0,0.3,0.1,0.5,0.3,0.7C227.9,125.6,228.1,125.7,228.4,125.7z"/>
			</g>
			<g>
				<path id="m3ea37ee918_00000016787975187749468020000013582631906511992225_" class="st1" d="M190.6,190.6c0.3,0,0.5-0.1,0.7-0.3
					c0.2-0.2,0.3-0.4,0.3-0.7c0-0.3-0.1-0.5-0.3-0.7c-0.2-0.2-0.4-0.3-0.7-0.3c-0.3,0-0.5,0.1-0.7,0.3c-0.2,0.2-0.3,0.4-0.3,0.7
					c0,0.3,0.1,0.5,0.3,0.7C190.1,190.5,190.3,190.6,190.6,190.6z"/>
			</g>
			<g>
				<path id="m3ea37ee918_00000118375819099299589320000005718966037352834976_" class="st1" d="M234.1,197.8c0.3,0,0.5-0.1,0.7-0.3
					c0.2-0.2,0.3-0.4,0.3-0.7c0-0.3-0.1-0.5-0.3-0.7c-0.2-0.2-0.4-0.3-0.7-0.3c-0.3,0-0.5,0.1-0.7,0.3c-0.2,0.2-0.3,0.4-0.3,0.7
					c0,0.3,0.1,0.5,0.3,0.7C233.6,197.7,233.8,197.8,234.1,197.8z"/>
			</g>
			<g>
				<path id="m3ea37ee918_00000138562393789473547850000016408219089462823868_" class="st1" d="M202.7,184.3c0.3,0,0.5-0.1,0.7-0.3
					c0.2-0.2,0.3-0.4,0.3-0.7c0-0.3-0.1-0.5-0.3-0.7c-0.2-0.2-0.4-0.3-0.7-0.3c-0.3,0-0.5,0.1-0.7,0.3s-0.3,0.4-0.3,0.7
					c0,0.3,0.1,0.5,0.3,0.7C202.2,184.2,202.5,184.3,202.7,184.3z"/>
			</g>
			<g>
				<path id="m3ea37ee918_00000083808699770929923540000006122474377037163687_" class="st1" d="M173.5,214.6c0.3,0,0.5-0.1,0.7-0.3
					c0.2-0.2,0.3-0.4,0.3-0.7s-0.1-0.5-0.3-0.7c-0.2-0.2-0.4-0.3-0.7-0.3c-0.3,0-0.5,0.1-0.7,0.3c-0.2,0.2-0.3,0.4-0.3,0.7
					s0.1,0.5,0.3,0.7C173,214.5,173.3,214.6,173.5,214.6z"/>
			</g>
			<g>
				<path id="m3ea37ee918_00000068641406628846838650000017048108707735411870_" class="st1" d="M242.7,123.1c0.3,0,0.5-0.1,0.7-0.3
					c0.2-0.2,0.3-0.4,0.3-0.7s-0.1-0.5-0.3-0.7c-0.2-0.2-0.4-0.3-0.7-0.3c-0.3,0-0.5,0.1-0.7,0.3s-0.3,0.4-0.3,0.7s0.1,0.5,0.3,0.7
					S242.4,123.1,242.7,123.1z"/>
			</g>
			<g>
				<path id="m3ea37ee918_00000107577966247672550470000007448352134224398482_" class="st1" d="M194.9,184.6c0.3,0,0.5-0.1,0.7-0.3
					c0.2-0.2,0.3-0.4,0.3-0.7c0-0.3-0.1-0.5-0.3-0.7c-0.2-0.2-0.4-0.3-0.7-0.3c-0.3,0-0.5,0.1-0.7,0.3c-0.2,0.2-0.3,0.4-0.3,0.7
					c0,0.3,0.1,0.5,0.3,0.7C194.4,184.5,194.7,184.6,194.9,184.6z"/>
			</g>
			<g>
				<path id="m3ea37ee918_00000008114127007874367970000015280850342371026308_" class="st1" d="M252.6,149.1c0.3,0,0.5-0.1,0.7-0.3
					c0.2-0.2,0.3-0.4,0.3-0.7c0-0.3-0.1-0.5-0.3-0.7c-0.2-0.2-0.4-0.3-0.7-0.3c-0.3,0-0.5,0.1-0.7,0.3c-0.2,0.2-0.3,0.4-0.3,0.7
					c0,0.3,0.1,0.5,0.3,0.7C252.1,149,252.4,149.1,252.6,149.1z"/>
			</g>
			<g>
				<path id="m3ea37ee918_00000175283305765457316110000008592575861899456945_" class="st1" d="M238.6,161.9c0.3,0,0.5-0.1,0.7-0.3
					c0.2-0.2,0.3-0.4,0.3-0.7s-0.1-0.5-0.3-0.7c-0.2-0.2-0.4-0.3-0.7-0.3s-0.5,0.1-0.7,0.3c-0.2,0.2-0.3,0.4-0.3,0.7
					s0.1,0.5,0.3,0.7C238.1,161.8,238.3,161.9,238.6,161.9z"/>
			</g>
			<g>
				<path id="m3ea37ee918_00000031886000096006972690000000344835433837187241_" class="st1" d="M236.8,160.6c0.3,0,0.5-0.1,0.7-0.3
					c0.2-0.2,0.3-0.4,0.3-0.7c0-0.3-0.1-0.5-0.3-0.7c-0.2-0.2-0.4-0.3-0.7-0.3s-0.5,0.1-0.7,0.3c-0.2,0.2-0.3,0.4-0.3,0.7
					c0,0.3,0.1,0.5,0.3,0.7C236.3,160.5,236.5,160.6,236.8,160.6z"/>
			</g>
			<g>
				<path id="m3ea37ee918_00000040544244324984129610000016089851130690805133_" class="st1" d="M215.4,176.7c0.3,0,0.5-0.1,0.7-0.3
					c0.2-0.2,0.3-0.4,0.3-0.7c0-0.3-0.1-0.5-0.3-0.7c-0.2-0.2-0.4-0.3-0.7-0.3c-0.3,0-0.5,0.1-0.7,0.3c-0.2,0.2-0.3,0.4-0.3,0.7
					c0,0.3,0.1,0.5,0.3,0.7C214.9,176.6,215.1,176.7,215.4,176.7z"/>
			</g>
			<g>
				<path id="m3ea37ee918_00000153693157174686525520000017817185863705396151_" class="st1" d="M249.2,201.7c0.3,0,0.5-0.1,0.7-0.3
					c0.2-0.2,0.3-0.4,0.3-0.7c0-0.3-0.1-0.5-0.3-0.7c-0.2-0.2-0.4-0.3-0.7-0.3c-0.3,0-0.5,0.1-0.7,0.3c-0.2,0.2-0.3,0.4-0.3,0.7
					c0,0.3,0.1,0.5,0.3,0.7C248.7,201.6,249,201.7,249.2,201.7z"/>
			</g>
			<g>
				<path id="m3ea37ee918_00000082354526191221884440000006555447725208778639_" class="st1" d="M211.3,192.7c0.3,0,0.5-0.1,0.7-0.3
					c0.2-0.2,0.3-0.4,0.3-0.7c0-0.3-0.1-0.5-0.3-0.7c-0.2-0.2-0.4-0.3-0.7-0.3c-0.3,0-0.5,0.1-0.7,0.3c-0.2,0.2-0.3,0.4-0.3,0.7
					c0,0.3,0.1,0.5,0.3,0.7C210.8,192.6,211,192.7,211.3,192.7z"/>
			</g>
			<g>
				<path id="m3ea37ee918_00000142170277166527635470000006727109915152019602_" class="st1" d="M210.8,189.4c0.3,0,0.5-0.1,0.7-0.3
					c0.2-0.2,0.3-0.4,0.3-0.7c0-0.3-0.1-0.5-0.3-0.7c-0.2-0.2-0.4-0.3-0.7-0.3c-0.3,0-0.5,0.1-0.7,0.3c-0.2,0.2-0.3,0.4-0.3,0.7
					c0,0.3,0.1,0.5,0.3,0.7C210.3,189.3,210.5,189.4,210.8,189.4z"/>
			</g>
			<g>
				<path id="m3ea37ee918_00000150092629086855941380000016731903904622489497_" class="st1" d="M251.3,125.7c0.3,0,0.5-0.1,0.7-0.3
					c0.2-0.2,0.3-0.4,0.3-0.7c0-0.3-0.1-0.5-0.3-0.7c-0.2-0.2-0.4-0.3-0.7-0.3c-0.3,0-0.5,0.1-0.7,0.3c-0.2,0.2-0.3,0.4-0.3,0.7
					c0,0.3,0.1,0.5,0.3,0.7C250.8,125.6,251,125.7,251.3,125.7z"/>
			</g>
			<g>
				<path id="m3ea37ee918_00000143598730614258621200000003294165768022067864_" class="st1" d="M212.4,179.6c0.3,0,0.5-0.1,0.7-0.3
					c0.2-0.2,0.3-0.4,0.3-0.7c0-0.3-0.1-0.5-0.3-0.7s-0.4-0.3-0.7-0.3c-0.3,0-0.5,0.1-0.7,0.3c-0.2,0.2-0.3,0.4-0.3,0.7
					c0,0.3,0.1,0.5,0.3,0.7C211.9,179.5,212.1,179.6,212.4,179.6z"/>
			</g>
			<g>
				<path id="m3ea37ee918_00000169519029415657021970000006159255430898048439_" class="st1" d="M261.8,142.9c0.3,0,0.5-0.1,0.7-0.3
					c0.2-0.2,0.3-0.4,0.3-0.7c0-0.3-0.1-0.5-0.3-0.7c-0.2-0.2-0.4-0.3-0.7-0.3c-0.3,0-0.5,0.1-0.7,0.3c-0.2,0.2-0.3,0.4-0.3,0.7
					c0,0.3,0.1,0.5,0.3,0.7C261.3,142.8,261.6,142.9,261.8,142.9z"/>
			</g>
			<g>
				<path id="m3ea37ee918_00000110438882847825684510000004372641778967511720_" class="st1" d="M190.5,188.2c0.3,0,0.5-0.1,0.7-0.3
					c0.2-0.2,0.3-0.4,0.3-0.7c0-0.3-0.1-0.5-0.3-0.7c-0.2-0.2-0.4-0.3-0.7-0.3c-0.3,0-0.5,0.1-0.7,0.3c-0.2,0.2-0.3,0.4-0.3,0.7
					c0,0.3,0.1,0.5,0.3,0.7C190,188.1,190.3,188.2,190.5,188.2z"/>
			</g>
			<g>
				<path id="m3ea37ee918_00000140718668951724643050000003005747137122446775_" class="st1" d="M240.8,158c0.3,0,0.5-0.1,0.7-0.3
					c0.2-0.2,0.3-0.4,0.3-0.7s-0.1-0.5-0.3-0.7c-0.2-0.2-0.4-0.3-0.7-0.3c-0.3,0-0.5,0.1-0.7,0.3c-0.2,0.2-0.3,0.4-0.3,0.7
					s0.1,0.5,0.3,0.7C240.3,157.9,240.6,158,240.8,158z"/>
			</g>
			<g>
				<path id="m3ea37ee918_00000139265583966134457400000012865133365061000379_" class="st1" d="M220.9,161.2c0.3,0,0.5-0.1,0.7-0.3
					c0.2-0.2,0.3-0.4,0.3-0.7s-0.1-0.5-0.3-0.7c-0.2-0.2-0.4-0.3-0.7-0.3s-0.5,0.1-0.7,0.3c-0.2,0.2-0.3,0.4-0.3,0.7
					s0.1,0.5,0.3,0.7C220.4,161.1,220.7,161.2,220.9,161.2z"/>
			</g>
			<g>
				<path id="m3ea37ee918_00000090282779089335722000000018246797123155090840_" class="st1" d="M173.1,210.6c0.3,0,0.5-0.1,0.7-0.3
					c0.2-0.2,0.3-0.4,0.3-0.7c0-0.3-0.1-0.5-0.3-0.7c-0.2-0.2-0.4-0.3-0.7-0.3c-0.3,0-0.5,0.1-0.7,0.3c-0.2,0.2-0.3,0.4-0.3,0.7
					c0,0.3,0.1,0.5,0.3,0.7C172.6,210.5,172.9,210.6,173.1,210.6z"/>
			</g>
			<g>
				<path id="m3ea37ee918_00000102526743194050954360000000467736950223548596_" class="st1" d="M240.5,145.8c0.3,0,0.5-0.1,0.7-0.3
					c0.2-0.2,0.3-0.4,0.3-0.7c0-0.3-0.1-0.5-0.3-0.7c-0.2-0.2-0.4-0.3-0.7-0.3c-0.3,0-0.5,0.1-0.7,0.3c-0.2,0.2-0.3,0.4-0.3,0.7
					c0,0.3,0.1,0.5,0.3,0.7C240,145.7,240.2,145.8,240.5,145.8z"/>
			</g>
			<g>
				<path id="m3ea37ee918_00000028304351605609970730000015492430150312747920_" class="st1" d="M181.9,208.5c0.3,0,0.5-0.1,0.7-0.3
					c0.2-0.2,0.3-0.4,0.3-0.7c0-0.3-0.1-0.5-0.3-0.7c-0.2-0.2-0.4-0.3-0.7-0.3c-0.3,0-0.5,0.1-0.7,0.3c-0.2,0.2-0.3,0.4-0.3,0.7
					c0,0.3,0.1,0.5,0.3,0.7C181.4,208.4,181.7,208.5,181.9,208.5z"/>
			</g>
			<g>
				<path id="m3ea37ee918_00000109028610123027240090000018358673471374040743_" class="st1" d="M195.4,208.6c0.3,0,0.5-0.1,0.7-0.3
					c0.2-0.2,0.3-0.4,0.3-0.7s-0.1-0.5-0.3-0.7c-0.2-0.2-0.4-0.3-0.7-0.3c-0.3,0-0.5,0.1-0.7,0.3c-0.2,0.2-0.3,0.4-0.3,0.7
					s0.1,0.5,0.3,0.7C194.9,208.5,195.1,208.6,195.4,208.6z"/>
			</g>
			<g>
				<path id="m3ea37ee918_00000173849517415809854790000014391157114722045373_" class="st1" d="M207.3,189.8c0.3,0,0.5-0.1,0.7-0.3
					c0.2-0.2,0.3-0.4,0.3-0.7c0-0.3-0.1-0.5-0.3-0.7c-0.2-0.2-0.4-0.3-0.7-0.3c-0.3,0-0.5,0.1-0.7,0.3c-0.2,0.2-0.3,0.4-0.3,0.7
					c0,0.3,0.1,0.5,0.3,0.7C206.8,189.7,207.1,189.8,207.3,189.8z"/>
			</g>
			<g>
				<path id="m3ea37ee918_00000160175625963623214110000003388903520846437554_" class="st1" d="M192,193.7c0.3,0,0.5-0.1,0.7-0.3
					c0.2-0.2,0.3-0.4,0.3-0.7c0-0.3-0.1-0.5-0.3-0.7c-0.2-0.2-0.4-0.3-0.7-0.3s-0.5,0.1-0.7,0.3c-0.2,0.2-0.3,0.4-0.3,0.7
					c0,0.3,0.1,0.5,0.3,0.7C191.5,193.6,191.7,193.7,192,193.7z"/>
			</g>
			<g>
				<path id="m3ea37ee918_00000023267594120734127880000011664037591042951811_" class="st1" d="M179.2,214.6c0.3,0,0.5-0.1,0.7-0.3
					c0.2-0.2,0.3-0.4,0.3-0.7s-0.1-0.5-0.3-0.7c-0.2-0.2-0.4-0.3-0.7-0.3c-0.3,0-0.5,0.1-0.7,0.3c-0.2,0.2-0.3,0.4-0.3,0.7
					s0.1,0.5,0.3,0.7C178.7,214.5,178.9,214.6,179.2,214.6z"/>
			</g>
			<g>
				<path id="m3ea37ee918_00000171679097262977728440000007371514179166141070_" class="st1" d="M194.2,191.9c0.3,0,0.5-0.1,0.7-0.3
					c0.2-0.2,0.3-0.4,0.3-0.7s-0.1-0.5-0.3-0.7c-0.2-0.2-0.4-0.3-0.7-0.3c-0.3,0-0.5,0.1-0.7,0.3c-0.2,0.2-0.3,0.4-0.3,0.7
					s0.1,0.5,0.3,0.7C193.7,191.8,194,191.9,194.2,191.9z"/>
			</g>
			<g>
				<path id="m3ea37ee918_00000026157288507302435330000004845450140605835700_" class="st1" d="M250.4,180.4c0.3,0,0.5-0.1,0.7-0.3
					c0.2-0.2,0.3-0.4,0.3-0.7c0-0.3-0.1-0.5-0.3-0.7c-0.2-0.2-0.4-0.3-0.7-0.3c-0.3,0-0.5,0.1-0.7,0.3c-0.2,0.2-0.3,0.4-0.3,0.7
					c0,0.3,0.1,0.5,0.3,0.7C249.9,180.3,250.1,180.4,250.4,180.4z"/>
			</g>
			<g>
				<path id="m3ea37ee918_00000065752815249131149480000011495767457236354182_" class="st1" d="M235.6,143.5c0.3,0,0.5-0.1,0.7-0.3
					c0.2-0.2,0.3-0.4,0.3-0.7s-0.1-0.5-0.3-0.7c-0.2-0.2-0.4-0.3-0.7-0.3c-0.3,0-0.5,0.1-0.7,0.3c-0.2,0.2-0.3,0.4-0.3,0.7
					s0.1,0.5,0.3,0.7C235.1,143.4,235.4,143.5,235.6,143.5z"/>
			</g>
			<g>
				<path id="m3ea37ee918_00000150098483214045278860000006768748416105404558_" class="st1" d="M215.1,125.7c0.3,0,0.5-0.1,0.7-0.3
					c0.2-0.2,0.3-0.4,0.3-0.7c0-0.3-0.1-0.5-0.3-0.7c-0.2-0.2-0.4-0.3-0.7-0.3s-0.5,0.1-0.7,0.3c-0.2,0.2-0.3,0.4-0.3,0.7
					c0,0.3,0.1,0.5,0.3,0.7C214.6,125.6,214.9,125.7,215.1,125.7z"/>
			</g>
			<g>
				<path id="m3ea37ee918_00000039838107744331709370000013071156764490899602_" class="st1" d="M228.5,119.8c0.3,0,0.5-0.1,0.7-0.3
					c0.2-0.2,0.3-0.4,0.3-0.7s-0.1-0.5-0.3-0.7c-0.2-0.2-0.4-0.3-0.7-0.3c-0.3,0-0.5,0.1-0.7,0.3c-0.2,0.2-0.3,0.4-0.3,0.7
					s0.1,0.5,0.3,0.7C228,119.7,228.2,119.8,228.5,119.8z"/>
			</g>
			<g>
				<path id="m3ea37ee918_00000087402257238775695530000014243529660869236159_" class="st1" d="M209.2,160.9c0.3,0,0.5-0.1,0.7-0.3
					c0.2-0.2,0.3-0.4,0.3-0.7c0-0.3-0.1-0.5-0.3-0.7c-0.2-0.2-0.4-0.3-0.7-0.3c-0.3,0-0.5,0.1-0.7,0.3c-0.2,0.2-0.3,0.4-0.3,0.7
					c0,0.3,0.1,0.5,0.3,0.7C208.7,160.8,209,160.9,209.2,160.9z"/>
			</g>
			<g>
				<path id="m3ea37ee918_00000017507942030116582840000004494670475186340779_" class="st1" d="M230.3,173.4c0.3,0,0.5-0.1,0.7-0.3
					c0.2-0.2,0.3-0.4,0.3-0.7c0-0.3-0.1-0.5-0.3-0.7c-0.2-0.2-0.4-0.3-0.7-0.3c-0.3,0-0.5,0.1-0.7,0.3c-0.2,0.2-0.3,0.4-0.3,0.7
					c0,0.3,0.1,0.5,0.3,0.7C229.8,173.3,230,173.4,230.3,173.4z"/>
			</g>
			<g>
				<path id="m3ea37ee918_00000072982124732476522030000003593672138458132666_" class="st1" d="M206.9,183.3c0.3,0,0.5-0.1,0.7-0.3
					c0.2-0.2,0.3-0.4,0.3-0.7c0-0.3-0.1-0.5-0.3-0.7c-0.2-0.2-0.4-0.3-0.7-0.3c-0.3,0-0.5,0.1-0.7,0.3c-0.2,0.2-0.3,0.4-0.3,0.7
					c0,0.3,0.1,0.5,0.3,0.7C206.4,183.2,206.6,183.3,206.9,183.3z"/>
			</g>
			<g>
				<path id="m3ea37ee918_00000152241276802150255960000000677200435982709389_" class="st1" d="M214.3,172.4c0.3,0,0.5-0.1,0.7-0.3
					c0.2-0.2,0.3-0.4,0.3-0.7s-0.1-0.5-0.3-0.7c-0.2-0.2-0.4-0.3-0.7-0.3c-0.3,0-0.5,0.1-0.7,0.3c-0.2,0.2-0.3,0.4-0.3,0.7
					s0.1,0.5,0.3,0.7C213.8,172.3,214.1,172.4,214.3,172.4z"/>
			</g>
			<g>
				<path id="m3ea37ee918_00000011009098849169642610000006338294762677888943_" class="st1" d="M249.3,118.6c0.3,0,0.5-0.1,0.7-0.3
					c0.2-0.2,0.3-0.4,0.3-0.7s-0.1-0.5-0.3-0.7c-0.2-0.2-0.4-0.3-0.7-0.3c-0.3,0-0.5,0.1-0.7,0.3c-0.2,0.2-0.3,0.4-0.3,0.7
					s0.1,0.5,0.3,0.7C248.8,118.5,249.1,118.6,249.3,118.6z"/>
			</g>
			<g>
				<path id="m3ea37ee918_00000082331604719664600660000014416454411780289213_" class="st1" d="M187.9,173.2c0.3,0,0.5-0.1,0.7-0.3
					c0.2-0.2,0.3-0.4,0.3-0.7s-0.1-0.5-0.3-0.7c-0.2-0.2-0.4-0.3-0.7-0.3c-0.3,0-0.5,0.1-0.7,0.3c-0.2,0.2-0.3,0.4-0.3,0.7
					s0.1,0.5,0.3,0.7C187.4,173.1,187.7,173.2,187.9,173.2z"/>
			</g>
			<g>
				<path id="m3ea37ee918_00000124119243865076234020000005135739522192894893_" class="st1" d="M248.5,175.5c0.3,0,0.5-0.1,0.7-0.3
					c0.2-0.2,0.3-0.4,0.3-0.7c0-0.3-0.1-0.5-0.3-0.7c-0.2-0.2-0.4-0.3-0.7-0.3c-0.3,0-0.5,0.1-0.7,0.3c-0.2,0.2-0.3,0.4-0.3,0.7
					c0,0.3,0.1,0.5,0.3,0.7C248,175.4,248.2,175.5,248.5,175.5z"/>
			</g>
			<g>
				<path id="m3ea37ee918_00000051381631631047400930000011589226972194866582_" class="st1" d="M218.7,121.2c0.3,0,0.5-0.1,0.7-0.3
					c0.2-0.2,0.3-0.4,0.3-0.7s-0.1-0.5-0.3-0.7c-0.2-0.2-0.4-0.3-0.7-0.3s-0.5,0.1-0.7,0.3c-0.2,0.2-0.3,0.4-0.3,0.7
					s0.1,0.5,0.3,0.7C218.2,121.1,218.5,121.2,218.7,121.2z"/>
			</g>
			<g>
				<path id="m3ea37ee918_00000099630025067134631700000009359898748964193418_" class="st1" d="M204.5,184.4c0.3,0,0.5-0.1,0.7-0.3
					c0.2-0.2,0.3-0.4,0.3-0.7c0-0.3-0.1-0.5-0.3-0.7c-0.2-0.2-0.4-0.3-0.7-0.3c-0.3,0-0.5,0.1-0.7,0.3c-0.2,0.2-0.3,0.4-0.3,0.7
					c0,0.3,0.1,0.5,0.3,0.7C204,184.3,204.2,184.4,204.5,184.4z"/>
			</g>
			<g>
				<path id="m3ea37ee918_00000044864450087080445060000018098659875968879521_" class="st1" d="M182.7,195.9c0.3,0,0.5-0.1,0.7-0.3
					c0.2-0.2,0.3-0.4,0.3-0.7s-0.1-0.5-0.3-0.7c-0.2-0.2-0.4-0.3-0.7-0.3c-0.3,0-0.5,0.1-0.7,0.3c-0.2,0.2-0.3,0.4-0.3,0.7
					s0.1,0.5,0.3,0.7C182.2,195.8,182.4,195.9,182.7,195.9z"/>
			</g>
			<g>
				<path id="m3ea37ee918_00000142133864782222354920000010797016732084910464_" class="st1" d="M207.6,157c0.3,0,0.5-0.1,0.7-0.3
					c0.2-0.2,0.3-0.4,0.3-0.7c0-0.3-0.1-0.5-0.3-0.7c-0.2-0.2-0.4-0.3-0.7-0.3s-0.5,0.1-0.7,0.3c-0.2,0.2-0.3,0.4-0.3,0.7
					c0,0.3,0.1,0.5,0.3,0.7C207.1,156.9,207.4,157,207.6,157z"/>
			</g>
			<g>
				<path id="m3ea37ee918_00000013182565104771268990000016661284833367074210_" class="st1" d="M207.1,173.6c0.3,0,0.5-0.1,0.7-0.3
					c0.2-0.2,0.3-0.4,0.3-0.7s-0.1-0.5-0.3-0.7c-0.2-0.2-0.4-0.3-0.7-0.3s-0.5,0.1-0.7,0.3c-0.2,0.2-0.3,0.4-0.3,0.7
					s0.1,0.5,0.3,0.7C206.6,173.5,206.8,173.6,207.1,173.6z"/>
			</g>
			<g>
				<path id="m3ea37ee918_00000023251308795433649200000016202888848353140124_" class="st1" d="M209.8,178.4c0.3,0,0.5-0.1,0.7-0.3
					c0.2-0.2,0.3-0.4,0.3-0.7c0-0.3-0.1-0.5-0.3-0.7c-0.2-0.2-0.4-0.3-0.7-0.3c-0.3,0-0.5,0.1-0.7,0.3c-0.2,0.2-0.3,0.4-0.3,0.7
					c0,0.3,0.1,0.5,0.3,0.7C209.3,178.3,209.5,178.4,209.8,178.4z"/>
			</g>
			<g>
				<path id="m3ea37ee918_00000159471693864701682410000014628644687110560171_" class="st1" d="M252.7,166.9c0.3,0,0.5-0.1,0.7-0.3
					c0.2-0.2,0.3-0.4,0.3-0.7c0-0.3-0.1-0.5-0.3-0.7c-0.2-0.2-0.4-0.3-0.7-0.3c-0.3,0-0.5,0.1-0.7,0.3c-0.2,0.2-0.3,0.4-0.3,0.7
					c0,0.3,0.1,0.5,0.3,0.7C252.2,166.8,252.4,166.9,252.7,166.9z"/>
			</g>
			<g>
				<path id="m3ea37ee918_00000163752726638030421900000005870206555571455673_" class="st1" d="M192.5,197c0.3,0,0.5-0.1,0.7-0.3
					c0.2-0.2,0.3-0.4,0.3-0.7c0-0.3-0.1-0.5-0.3-0.7c-0.2-0.2-0.4-0.3-0.7-0.3c-0.3,0-0.5,0.1-0.7,0.3c-0.2,0.2-0.3,0.4-0.3,0.7
					c0,0.3,0.1,0.5,0.3,0.7C192,196.8,192.3,197,192.5,197z"/>
			</g>
			<g>
				<path id="m3ea37ee918_00000159451109251110206580000016267371457887186103_" class="st1" d="M231.9,167.5c0.3,0,0.5-0.1,0.7-0.3
					c0.2-0.2,0.3-0.4,0.3-0.7c0-0.3-0.1-0.5-0.3-0.7c-0.2-0.2-0.4-0.3-0.7-0.3s-0.5,0.1-0.7,0.3c-0.2,0.2-0.3,0.4-0.3,0.7
					c0,0.3,0.1,0.5,0.3,0.7C231.4,167.4,231.6,167.5,231.9,167.5z"/>
			</g>
			<g>
				<path id="m3ea37ee918_00000152261297083863837540000012206461719675818386_" class="st1" d="M216.3,164.5c0.3,0,0.5-0.1,0.7-0.3
					c0.2-0.2,0.3-0.4,0.3-0.7s-0.1-0.5-0.3-0.7c-0.2-0.2-0.4-0.3-0.7-0.3c-0.3,0-0.5,0.1-0.7,0.3c-0.2,0.2-0.3,0.4-0.3,0.7
					s0.1,0.5,0.3,0.7C215.8,164.4,216,164.5,216.3,164.5z"/>
			</g>
			<g>
				<path id="m3ea37ee918_00000151510313027187011040000001625464604897121921_" class="st1" d="M202.9,151.3c0.3,0,0.5-0.1,0.7-0.3
					c0.2-0.2,0.3-0.4,0.3-0.7c0-0.3-0.1-0.5-0.3-0.7c-0.2-0.2-0.4-0.3-0.7-0.3c-0.3,0-0.5,0.1-0.7,0.3c-0.2,0.2-0.3,0.4-0.3,0.7
					c0,0.3,0.1,0.5,0.3,0.7C202.4,151.2,202.7,151.3,202.9,151.3z"/>
			</g>
			<g>
				<path id="m3ea37ee918_00000144311600446614075870000014197910224693008553_" class="st1" d="M222,143.5c0.3,0,0.5-0.1,0.7-0.3
					c0.2-0.2,0.3-0.4,0.3-0.7s-0.1-0.5-0.3-0.7c-0.2-0.2-0.4-0.3-0.7-0.3c-0.3,0-0.5,0.1-0.7,0.3c-0.2,0.2-0.3,0.4-0.3,0.7
					s0.1,0.5,0.3,0.7C221.5,143.4,221.7,143.5,222,143.5z"/>
			</g>
			<g>
				<path id="m3ea37ee918_00000101796883520763328240000014616553226277275819_" class="st1" d="M276.4,156.2c0.3,0,0.5-0.1,0.7-0.3
					c0.2-0.2,0.3-0.4,0.3-0.7c0-0.3-0.1-0.5-0.3-0.7c-0.2-0.2-0.4-0.3-0.7-0.3s-0.5,0.1-0.7,0.3c-0.2,0.2-0.3,0.4-0.3,0.7
					c0,0.3,0.1,0.5,0.3,0.7C275.9,156.1,276.2,156.2,276.4,156.2z"/>
			</g>
			<g>
				<path id="m3ea37ee918_00000029041489790650875120000009534609531665794196_" class="st1" d="M183.3,200c0.3,0,0.5-0.1,0.7-0.3
					c0.2-0.2,0.3-0.4,0.3-0.7c0-0.3-0.1-0.5-0.3-0.7c-0.2-0.2-0.4-0.3-0.7-0.3c-0.3,0-0.5,0.1-0.7,0.3c-0.2,0.2-0.3,0.4-0.3,0.7
					c0,0.3,0.1,0.5,0.3,0.7C182.8,199.9,183.1,200,183.3,200z"/>
			</g>
			<g>
				<path id="m3ea37ee918_00000078754794297610497020000000716001610594266503_" class="st1" d="M249.2,169.5c0.3,0,0.5-0.1,0.7-0.3
					c0.2-0.2,0.3-0.4,0.3-0.7c0-0.3-0.1-0.5-0.3-0.7c-0.2-0.2-0.4-0.3-0.7-0.3c-0.3,0-0.5,0.1-0.7,0.3c-0.2,0.2-0.3,0.4-0.3,0.7
					c0,0.3,0.1,0.5,0.3,0.7C248.7,169.4,248.9,169.5,249.2,169.5z"/>
			</g>
			<g>
				<path id="m3ea37ee918_00000158026789234821807500000010453427216869230217_" class="st1" d="M245.1,202c0.3,0,0.5-0.1,0.7-0.3
					c0.2-0.2,0.3-0.4,0.3-0.7c0-0.3-0.1-0.5-0.3-0.7c-0.2-0.2-0.4-0.3-0.7-0.3c-0.3,0-0.5,0.1-0.7,0.3c-0.2,0.2-0.3,0.4-0.3,0.7
					c0,0.3,0.1,0.5,0.3,0.7C244.6,201.9,244.8,202,245.1,202z"/>
			</g>
			<g>
				<path id="m3ea37ee918_00000085247083084641166910000011867605615228235904_" class="st1" d="M242.4,118.6c0.3,0,0.5-0.1,0.7-0.3
					c0.2-0.2,0.3-0.4,0.3-0.7s-0.1-0.5-0.3-0.7c-0.2-0.2-0.4-0.3-0.7-0.3c-0.3,0-0.5,0.1-0.7,0.3c-0.2,0.2-0.3,0.4-0.3,0.7
					s0.1,0.5,0.3,0.7C241.9,118.5,242.1,118.6,242.4,118.6z"/>
			</g>
			<g>
				<path id="m3ea37ee918_00000008117906711137541840000005491566352931539893_" class="st1" d="M185.6,195.6c0.3,0,0.5-0.1,0.7-0.3
					c0.2-0.2,0.3-0.4,0.3-0.7c0-0.3-0.1-0.5-0.3-0.7s-0.4-0.3-0.7-0.3c-0.3,0-0.5,0.1-0.7,0.3c-0.2,0.2-0.3,0.4-0.3,0.7
					c0,0.3,0.1,0.5,0.3,0.7C185.1,195.5,185.4,195.6,185.6,195.6z"/>
			</g>
			<g>
				<path id="m3ea37ee918_00000155862403324919892000000017503611325237726341_" class="st1" d="M182.3,212c0.3,0,0.5-0.1,0.7-0.3
					c0.2-0.2,0.3-0.4,0.3-0.7s-0.1-0.5-0.3-0.7c-0.2-0.2-0.4-0.3-0.7-0.3c-0.3,0-0.5,0.1-0.7,0.3c-0.2,0.2-0.3,0.4-0.3,0.7
					s0.1,0.5,0.3,0.7C181.8,211.8,182,212,182.3,212z"/>
			</g>
			<g>
				<path id="m3ea37ee918_00000084502628671152983670000010511819961940765089_" class="st1" d="M210.4,183.7c0.3,0,0.5-0.1,0.7-0.3
					c0.2-0.2,0.3-0.4,0.3-0.7c0-0.3-0.1-0.5-0.3-0.7c-0.2-0.2-0.4-0.3-0.7-0.3c-0.3,0-0.5,0.1-0.7,0.3c-0.2,0.2-0.3,0.4-0.3,0.7
					c0,0.3,0.1,0.5,0.3,0.7C209.9,183.6,210.1,183.7,210.4,183.7z"/>
			</g>
			<g>
				<path id="m3ea37ee918_00000049203468357549812910000012518255867658487705_" class="st1" d="M221.2,175.6c0.3,0,0.5-0.1,0.7-0.3
					c0.2-0.2,0.3-0.4,0.3-0.7c0-0.3-0.1-0.5-0.3-0.7c-0.2-0.2-0.4-0.3-0.7-0.3c-0.3,0-0.5,0.1-0.7,0.3c-0.2,0.2-0.3,0.4-0.3,0.7
					c0,0.3,0.1,0.5,0.3,0.7C220.7,175.5,220.9,175.6,221.2,175.6z"/>
			</g>
			<g>
				<path id="m3ea37ee918_00000071546119767285122500000014716820480824394646_" class="st1" d="M201.8,184.2c0.3,0,0.5-0.1,0.7-0.3
					c0.2-0.2,0.3-0.4,0.3-0.7c0-0.3-0.1-0.5-0.3-0.7c-0.2-0.2-0.4-0.3-0.7-0.3c-0.3,0-0.5,0.1-0.7,0.3c-0.2,0.2-0.3,0.4-0.3,0.7
					c0,0.3,0.1,0.5,0.3,0.7C201.3,184.1,201.6,184.2,201.8,184.2z"/>
			</g>
			<g>
				<path id="m3ea37ee918_00000125563122662667532600000002630104859273864882_" class="st1" d="M178.2,206.3c0.3,0,0.5-0.1,0.7-0.3
					c0.2-0.2,0.3-0.4,0.3-0.7c0-0.3-0.1-0.5-0.3-0.7c-0.2-0.2-0.4-0.3-0.7-0.3c-0.3,0-0.5,0.1-0.7,0.3c-0.2,0.2-0.3,0.4-0.3,0.7
					c0,0.3,0.1,0.5,0.3,0.7C177.7,206.2,177.9,206.3,178.2,206.3z"/>
			</g>
			<g>
				<path id="m3ea37ee918_00000119812630451733365310000013413855871096099205_" class="st1" d="M221.5,129.2c0.3,0,0.5-0.1,0.7-0.3
					c0.2-0.2,0.3-0.4,0.3-0.7c0-0.3-0.1-0.5-0.3-0.7c-0.2-0.2-0.4-0.3-0.7-0.3c-0.3,0-0.5,0.1-0.7,0.3c-0.2,0.2-0.3,0.4-0.3,0.7
					c0,0.3,0.1,0.5,0.3,0.7C221,129.1,221.3,129.2,221.5,129.2z"/>
			</g>
			<g>
				<path id="m3ea37ee918_00000167395238005273793140000011618617434005345441_" class="st1" d="M194.6,205.3c0.3,0,0.5-0.1,0.7-0.3
					c0.2-0.2,0.3-0.4,0.3-0.7c0-0.3-0.1-0.5-0.3-0.7c-0.2-0.2-0.4-0.3-0.7-0.3c-0.3,0-0.5,0.1-0.7,0.3c-0.2,0.2-0.3,0.4-0.3,0.7
					c0,0.3,0.1,0.5,0.3,0.7C194.1,205.2,194.4,205.3,194.6,205.3z"/>
			</g>
			<g>
				<path id="m3ea37ee918_00000016076329960219426650000011738168604519669645_" class="st1" d="M204.7,197.4c0.3,0,0.5-0.1,0.7-0.3
					c0.2-0.2,0.3-0.4,0.3-0.7c0-0.3-0.1-0.5-0.3-0.7c-0.2-0.2-0.4-0.3-0.7-0.3c-0.3,0-0.5,0.1-0.7,0.3c-0.2,0.2-0.3,0.4-0.3,0.7
					c0,0.3,0.1,0.5,0.3,0.7C204.2,197.3,204.4,197.4,204.7,197.4z"/>
			</g>
			<g>
				<path id="m3ea37ee918_00000096766307242585836340000012817443292486109072_" class="st1" d="M214,192.4c0.3,0,0.5-0.1,0.7-0.3
					c0.2-0.2,0.3-0.4,0.3-0.7c0-0.3-0.1-0.5-0.3-0.7c-0.2-0.2-0.4-0.3-0.7-0.3c-0.3,0-0.5,0.1-0.7,0.3c-0.2,0.2-0.3,0.4-0.3,0.7
					c0,0.3,0.1,0.5,0.3,0.7C213.5,192.3,213.7,192.4,214,192.4z"/>
			</g>
			<g>
				<path id="m3ea37ee918_00000137816825622804740720000006934257785800299154_" class="st1" d="M186.7,206.8c0.3,0,0.5-0.1,0.7-0.3
					c0.2-0.2,0.3-0.4,0.3-0.7c0-0.3-0.1-0.5-0.3-0.7c-0.2-0.2-0.4-0.3-0.7-0.3c-0.3,0-0.5,0.1-0.7,0.3c-0.2,0.2-0.3,0.4-0.3,0.7
					c0,0.3,0.1,0.5,0.3,0.7C186.2,206.7,186.4,206.8,186.7,206.8z"/>
			</g>
			<g>
				<path id="m3ea37ee918_00000168810524155173595520000005823426063797388730_" class="st1" d="M174.5,214.6c0.3,0,0.5-0.1,0.7-0.3
					c0.2-0.2,0.3-0.4,0.3-0.7s-0.1-0.5-0.3-0.7c-0.2-0.2-0.4-0.3-0.7-0.3s-0.5,0.1-0.7,0.3c-0.2,0.2-0.3,0.4-0.3,0.7
					s0.1,0.5,0.3,0.7C174,214.5,174.3,214.6,174.5,214.6z"/>
			</g>
			<g>
				<path id="m3ea37ee918_00000181081545016201994360000013834779793326587299_" class="st1" d="M256.4,179.2c0.3,0,0.5-0.1,0.7-0.3
					c0.2-0.2,0.3-0.4,0.3-0.7s-0.1-0.5-0.3-0.7c-0.2-0.2-0.4-0.3-0.7-0.3s-0.5,0.1-0.7,0.3c-0.2,0.2-0.3,0.4-0.3,0.7
					s0.1,0.5,0.3,0.7C255.9,179.1,256.1,179.2,256.4,179.2z"/>
			</g>
			<g>
				<path id="m3ea37ee918_00000085230309702799373350000002030523917104253364_" class="st1" d="M256.1,145.8c0.3,0,0.5-0.1,0.7-0.3
					c0.2-0.2,0.3-0.4,0.3-0.7c0-0.3-0.1-0.5-0.3-0.7c-0.2-0.2-0.4-0.3-0.7-0.3s-0.5,0.1-0.7,0.3c-0.2,0.2-0.3,0.4-0.3,0.7
					c0,0.3,0.1,0.5,0.3,0.7C255.6,145.7,255.8,145.8,256.1,145.8z"/>
			</g>
			<g>
				<path id="m3ea37ee918_00000000910559819711623660000010874793633389263512_" class="st1" d="M199,196c0.3,0,0.5-0.1,0.7-0.3
					c0.2-0.2,0.3-0.4,0.3-0.7s-0.1-0.5-0.3-0.7c-0.2-0.2-0.4-0.3-0.7-0.3c-0.3,0-0.5,0.1-0.7,0.3c-0.2,0.2-0.3,0.4-0.3,0.7
					s0.1,0.5,0.3,0.7C198.5,195.9,198.7,196,199,196z"/>
			</g>
			<g>
				<path id="m3ea37ee918_00000167361114619280124770000008476392642948335793_" class="st1" d="M246.9,157.6c0.3,0,0.5-0.1,0.7-0.3
					c0.2-0.2,0.3-0.4,0.3-0.7c0-0.3-0.1-0.5-0.3-0.7c-0.2-0.2-0.4-0.3-0.7-0.3c-0.3,0-0.5,0.1-0.7,0.3c-0.2,0.2-0.3,0.4-0.3,0.7
					c0,0.3,0.1,0.5,0.3,0.7C246.4,157.5,246.6,157.6,246.9,157.6z"/>
			</g>
			<g>
				<path id="m3ea37ee918_00000149380077762146945580000004906739755915985851_" class="st1" d="M235.7,163.7c0.3,0,0.5-0.1,0.7-0.3
					c0.2-0.2,0.3-0.4,0.3-0.7s-0.1-0.5-0.3-0.7c-0.2-0.2-0.4-0.3-0.7-0.3c-0.3,0-0.5,0.1-0.7,0.3c-0.2,0.2-0.3,0.4-0.3,0.7
					s0.1,0.5,0.3,0.7C235.2,163.6,235.5,163.7,235.7,163.7z"/>
			</g>
			<g>
				<path id="m3ea37ee918_00000168796036887027503550000003511500088898813856_" class="st1" d="M175.8,198.9c0.3,0,0.5-0.1,0.7-0.3
					c0.2-0.2,0.3-0.4,0.3-0.7c0-0.3-0.1-0.5-0.3-0.7c-0.2-0.2-0.4-0.3-0.7-0.3c-0.3,0-0.5,0.1-0.7,0.3c-0.2,0.2-0.3,0.4-0.3,0.7
					c0,0.3,0.1,0.5,0.3,0.7C175.3,198.8,175.6,198.9,175.8,198.9z"/>
			</g>
			<g>
				<path id="m3ea37ee918_00000056428254925121821020000001814222300100100996_" class="st1" d="M213.8,204.3c0.3,0,0.5-0.1,0.7-0.3
					c0.2-0.2,0.3-0.4,0.3-0.7c0-0.3-0.1-0.5-0.3-0.7c-0.2-0.2-0.4-0.3-0.7-0.3c-0.3,0-0.5,0.1-0.7,0.3c-0.2,0.2-0.3,0.4-0.3,0.7
					c0,0.3,0.1,0.5,0.3,0.7C213.3,204.2,213.5,204.3,213.8,204.3z"/>
			</g>
			<g>
				<path id="m3ea37ee918_00000136398142120230776510000011635019052032346554_" class="st1" d="M180.6,206c0.3,0,0.5-0.1,0.7-0.3
					c0.2-0.2,0.3-0.4,0.3-0.7s-0.1-0.5-0.3-0.7c-0.2-0.2-0.4-0.3-0.7-0.3c-0.3,0-0.5,0.1-0.7,0.3c-0.2,0.2-0.3,0.4-0.3,0.7
					s0.1,0.5,0.3,0.7C180.1,205.9,180.3,206,180.6,206z"/>
			</g>
			<g>
				<path id="m3ea37ee918_00000176001483342265778490000012343095493489858212_" class="st1" d="M202.5,202c0.3,0,0.5-0.1,0.7-0.3
					c0.2-0.2,0.3-0.4,0.3-0.7c0-0.3-0.1-0.5-0.3-0.7c-0.2-0.2-0.4-0.3-0.7-0.3c-0.3,0-0.5,0.1-0.7,0.3c-0.2,0.2-0.3,0.4-0.3,0.7
					c0,0.3,0.1,0.5,0.3,0.7C202,201.9,202.2,202,202.5,202z"/>
			</g>
			<g>
				<path id="m3ea37ee918_00000153668126926094020100000017446379176460466055_" class="st1" d="M213.4,183.7c0.3,0,0.5-0.1,0.7-0.3
					c0.2-0.2,0.3-0.4,0.3-0.7s-0.1-0.5-0.3-0.7c-0.2-0.2-0.4-0.3-0.7-0.3s-0.5,0.1-0.7,0.3c-0.2,0.2-0.3,0.4-0.3,0.7
					s0.1,0.5,0.3,0.7C212.9,183.6,213.1,183.7,213.4,183.7z"/>
			</g>
			<g>
				<path id="m3ea37ee918_00000134961058276160309070000014629673458176938684_" class="st1" d="M182.3,198.2c0.3,0,0.5-0.1,0.7-0.3
					c0.2-0.2,0.3-0.4,0.3-0.7c0-0.3-0.1-0.5-0.3-0.7c-0.2-0.2-0.4-0.3-0.7-0.3s-0.5,0.1-0.7,0.3c-0.2,0.2-0.3,0.4-0.3,0.7
					c0,0.3,0.1,0.5,0.3,0.7C181.8,198.1,182.1,198.2,182.3,198.2z"/>
			</g>
			<g>
				<path id="m3ea37ee918_00000105419850964357769120000017271672048052234888_" class="st1" d="M244.9,118.6c0.3,0,0.5-0.1,0.7-0.3
					c0.2-0.2,0.3-0.4,0.3-0.7s-0.1-0.5-0.3-0.7c-0.2-0.2-0.4-0.3-0.7-0.3s-0.5,0.1-0.7,0.3c-0.2,0.2-0.3,0.4-0.3,0.7
					s0.1,0.5,0.3,0.7C244.4,118.5,244.7,118.6,244.9,118.6z"/>
			</g>
			<g>
				<path id="m3ea37ee918_00000096054270219059878090000004295029065157989812_" class="st1" d="M241.5,155c0.3,0,0.5-0.1,0.7-0.3
					c0.2-0.2,0.3-0.4,0.3-0.7s-0.1-0.5-0.3-0.7c-0.2-0.2-0.4-0.3-0.7-0.3s-0.5,0.1-0.7,0.3c-0.2,0.2-0.3,0.4-0.3,0.7
					s0.1,0.5,0.3,0.7C241,154.9,241.3,155,241.5,155z"/>
			</g>
			<g>
				<path id="m3ea37ee918_00000171692075564725801010000018130143901135198868_" class="st1" d="M172.4,213.8c0.3,0,0.5-0.1,0.7-0.3
					c0.2-0.2,0.3-0.4,0.3-0.7s-0.1-0.5-0.3-0.7c-0.2-0.2-0.4-0.3-0.7-0.3s-0.5,0.1-0.7,0.3c-0.2,0.2-0.3,0.4-0.3,0.7
					s0.1,0.5,0.3,0.7C171.9,213.7,172.1,213.8,172.4,213.8z"/>
			</g>
			<g>
				<path id="m3ea37ee918_00000044143846683503015990000008382233703479340929_" class="st1" d="M175.8,209.6c0.3,0,0.5-0.1,0.7-0.3
					c0.2-0.2,0.3-0.4,0.3-0.7s-0.1-0.5-0.3-0.7c-0.2-0.2-0.4-0.3-0.7-0.3c-0.3,0-0.5,0.1-0.7,0.3c-0.2,0.2-0.3,0.4-0.3,0.7
					s0.1,0.5,0.3,0.7C175.3,209.5,175.6,209.6,175.8,209.6z"/>
			</g>
			<g>
				<path id="m3ea37ee918_00000091718645846671590300000004707400713859189436_" class="st1" d="M173.5,210.7c0.3,0,0.5-0.1,0.7-0.3
					c0.2-0.2,0.3-0.4,0.3-0.7s-0.1-0.5-0.3-0.7c-0.2-0.2-0.4-0.3-0.7-0.3c-0.3,0-0.5,0.1-0.7,0.3c-0.2,0.2-0.3,0.4-0.3,0.7
					s0.1,0.5,0.3,0.7C173,210.6,173.2,210.7,173.5,210.7z"/>
			</g>
			<g>
				<path id="m3ea37ee918_00000111154117263714992560000000077867695384299397_" class="st1" d="M228.6,129.2c0.3,0,0.5-0.1,0.7-0.3
					c0.2-0.2,0.3-0.4,0.3-0.7c0-0.3-0.1-0.5-0.3-0.7c-0.2-0.2-0.4-0.3-0.7-0.3c-0.3,0-0.5,0.1-0.7,0.3c-0.2,0.2-0.3,0.4-0.3,0.7
					c0,0.3,0.1,0.5,0.3,0.7C228.1,129.1,228.3,129.2,228.6,129.2z"/>
			</g>
			<g>
				<path id="m3ea37ee918_00000170961148821338315850000015894525760371299974_" class="st1" d="M242,144.3c0.3,0,0.5-0.1,0.7-0.3
					c0.2-0.2,0.3-0.4,0.3-0.7c0-0.3-0.1-0.5-0.3-0.7c-0.2-0.2-0.4-0.3-0.7-0.3s-0.5,0.1-0.7,0.3c-0.2,0.2-0.3,0.4-0.3,0.7
					c0,0.3,0.1,0.5,0.3,0.7C241.5,144.2,241.7,144.3,242,144.3z"/>
			</g>
			<g>
				<path id="m3ea37ee918_00000072241959209878660110000011550491432945831082_" class="st1" d="M232.3,166.7c0.3,0,0.5-0.1,0.7-0.3
					c0.2-0.2,0.3-0.4,0.3-0.7s-0.1-0.5-0.3-0.7c-0.2-0.2-0.4-0.3-0.7-0.3c-0.3,0-0.5,0.1-0.7,0.3c-0.2,0.2-0.3,0.4-0.3,0.7
					s0.1,0.5,0.3,0.7C231.8,166.6,232,166.7,232.3,166.7z"/>
			</g>
			<g>
				<path id="m3ea37ee918_00000121243147093687370280000011217890231828037554_" class="st1" d="M180.3,214.6c0.3,0,0.5-0.1,0.7-0.3
					c0.2-0.2,0.3-0.4,0.3-0.7s-0.1-0.5-0.3-0.7c-0.2-0.2-0.4-0.3-0.7-0.3c-0.3,0-0.5,0.1-0.7,0.3c-0.2,0.2-0.3,0.4-0.3,0.7
					s0.1,0.5,0.3,0.7C179.8,214.5,180,214.6,180.3,214.6z"/>
			</g>
			<g>
				<path id="m3ea37ee918_00000153700376672933166560000008749909088092303540_" class="st1" d="M188,134.6c0.3,0,0.5-0.1,0.7-0.3
					c0.2-0.2,0.3-0.4,0.3-0.7c0-0.3-0.1-0.5-0.3-0.7c-0.2-0.2-0.4-0.3-0.7-0.3c-0.3,0-0.5,0.1-0.7,0.3c-0.2,0.2-0.3,0.4-0.3,0.7
					c0,0.3,0.1,0.5,0.3,0.7C187.5,134.5,187.7,134.6,188,134.6z"/>
			</g>
			<g>
				<path id="m3ea37ee918_00000055667308597167683550000015459708738028541113_" class="st1" d="M258.9,121.2c0.3,0,0.5-0.1,0.7-0.3
					s0.3-0.4,0.3-0.7s-0.1-0.5-0.3-0.7c-0.2-0.2-0.4-0.3-0.7-0.3c-0.3,0-0.5,0.1-0.7,0.3c-0.2,0.2-0.3,0.4-0.3,0.7s0.1,0.5,0.3,0.7
					C258.4,121.1,258.7,121.2,258.9,121.2z"/>
			</g>
			<g>
				<path id="m3ea37ee918_00000020381263951672639340000002213595375888729261_" class="st1" d="M222.8,152.2c0.3,0,0.5-0.1,0.7-0.3
					c0.2-0.2,0.3-0.4,0.3-0.7c0-0.3-0.1-0.5-0.3-0.7c-0.2-0.2-0.4-0.3-0.7-0.3s-0.5,0.1-0.7,0.3c-0.2,0.2-0.3,0.4-0.3,0.7
					c0,0.3,0.1,0.5,0.3,0.7C222.3,152.1,222.6,152.2,222.8,152.2z"/>
			</g>
		</g>
	</g>
</g>
<g id="text_1">
	<text transform="matrix(1 0 0 1 165.5383 227.2778)" class="st2 st3">0.0</text>
</g>
<g id="text_2">
	<text transform="matrix(1 0 0 1 186.8087 227.2778)" class="st2 st3">0.2</text>
</g>
<g id="text_3">
	<text transform="matrix(1 0 0 1 208.0792 227.2778)" class="st2 st3">0.4</text>
</g>
<g id="text_4">
	<text transform="matrix(1 0 0 1 229.3497 227.2778)" class="st2 st3">0.6</text>
</g>
<g id="text_5">
	<text transform="matrix(1 0 0 1 250.6202 227.2778)" class="st2 st3">0.8</text>
</g>
<g id="text_6">
	<text transform="matrix(1 0 0 1 271.8907 227.2778)" class="st2 st3">1.0</text>
</g>
<g id="text_7">
	<text transform="matrix(1 0 0 1 207.0747 239.3469)" class="st2 st3">True FDR</text>
</g>
<g id="text_8">
	<text transform="matrix(1 0 0 1 152.3809 216.1751)" class="st2 st3">0.0</text>
</g>
<g id="text_9">
	<text transform="matrix(1 0 0 1 152.3809 194.9047)" class="st2 st3">0.2</text>
</g>
<g id="text_10">
	<text transform="matrix(1 0 0 1 152.3809 173.6342)" class="st2 st3">0.4</text>
</g>
<g id="text_11">
	<text transform="matrix(1 0 0 1 152.3809 151.3636)" class="st2 st3">0.6</text>
</g>
<g id="text_12">
	<text transform="matrix(1 0 0 1 152.3809 130.0932)" class="st2 st3">0.8</text>
</g>
<g id="text_13">
	<text transform="matrix(1 0 0 1 152.3809 108.8228)" class="st2 st3">1.0</text>
</g>
<g id="text_14">
	<text transform="matrix(6.123234e-17 -1 1 6.123234e-17 144.5361 186.5156)" class="st2 st3">Predicted FDR</text>
</g>
<g id="line2d_13">
	<g>
		<defs>
			<rect id="SVGID_00000006672353737742626260000018391088781042966967_" x="168.5" y="104.3" width="112" height="112"/>
		</defs>
		<clipPath id="SVGID_00000009560335489050744210000014573996559045279116_">
			<use xlink:href="#SVGID_00000006672353737742626260000018391088781042966967_"  style="overflow:visible;"/>
		</clipPath>
		
			<path style="clip-path:url(#SVGID_00000009560335489050744210000014573996559045279116_);fill:none;stroke:#FF0000;stroke-linejoin:round;" d="
			M168.5,216.3l112-112"/>
	</g>
</g>
<g id="line2d_14">
	<g>
		<defs>
			<rect id="SVGID_00000171709137641302632830000002254561147970285209_" x="168.5" y="104.3" width="112" height="112"/>
		</defs>
		<clipPath id="SVGID_00000124843867846870271320000004953605097193494680_">
			<use xlink:href="#SVGID_00000171709137641302632830000002254561147970285209_"  style="overflow:visible;"/>
		</clipPath>
		
			<path style="opacity:0.5;clip-path:url(#SVGID_00000124843867846870271320000004953605097193494680_);fill:none;stroke:#000000;stroke-linecap:square;stroke-linejoin:round;stroke-dasharray:5,3;" d="
			M171.1,206.9l106.7-83.3"/>
	</g>
</g>
<g>
	<g id="line2d_1">
		<g>
			<g>
				<path id="m614438d6bb" class="st6" d="M171.1,216.3v2.8"/>
			</g>
		</g>
	</g>
	<g id="line2d_2">
		<g>
			<g>
				<path id="m614438d6bb_00000094611730487852042180000003314682799054293170_" class="st6" d="M192.5,216.3v2.8"/>
			</g>
		</g>
	</g>
	<g id="line2d_3">
		<g>
			<g>
				<path id="m614438d6bb_00000165204087029017201920000001096002533914876857_" class="st6" d="M213.8,216.3v2.8"/>
			</g>
		</g>
	</g>
	<g id="line2d_4">
		<g>
			<g>
				<path id="m614438d6bb_00000121966322941400207570000008098076435003458714_" class="st6" d="M235.2,216.3v2.8"/>
			</g>
		</g>
	</g>
	<g id="line2d_5">
		<g>
			<g>
				<path id="m614438d6bb_00000145060034529384946850000003047561171599762620_" class="st6" d="M256.5,216.3v2.8"/>
			</g>
		</g>
	</g>
	<g id="line2d_6">
		<g>
			<g>
				<path id="m614438d6bb_00000109711923329045150640000009955308455399784090_" class="st6" d="M277.8,216.3v2.8"/>
			</g>
		</g>
	</g>
	<g id="line2d_7">
		<g>
			<g>
				<path id="mdf3cadc031" class="st6" d="M168.5,213.6h-2.8"/>
			</g>
		</g>
	</g>
	<g id="line2d_8">
		<g>
			<g>
				<path id="mdf3cadc031_00000003101183654483706320000002200823948728818080_" class="st6" d="M168.5,192.3h-2.8"/>
			</g>
		</g>
	</g>
	<g id="line2d_9">
		<g>
			<g>
				<path id="mdf3cadc031_00000127725852185603752820000012074751567101519249_" class="st6" d="M168.5,171h-2.8"/>
			</g>
		</g>
	</g>
	<g id="line2d_10">
		<g>
			<g>
				<path id="mdf3cadc031_00000150079268582083852860000004339247743162268320_" class="st6" d="M168.5,149.6h-2.8"/>
			</g>
		</g>
	</g>
	<g id="line2d_11">
		<g>
			<g>
				<path id="mdf3cadc031_00000036240253895088014020000012096472167725554606_" class="st6" d="M168.5,128.3h-2.8"/>
			</g>
		</g>
	</g>
	<g id="line2d_12">
		<g>
			<g>
				<path id="mdf3cadc031_00000134964902870527573840000012072119498943958456_" class="st6" d="M168.5,106.9h-2.8"/>
			</g>
		</g>
	</g>
</g>
<g id="patch_3">
	<path class="st7" d="M168.5,216.3v-112"/>
</g>
<g id="patch_4">
	<path class="st7" d="M280.5,216.3v-112"/>
</g>
<g id="patch_5">
	<path class="st7" d="M168.5,216.3h112"/>
</g>
<g id="patch_6">
	<path class="st7" d="M168.5,104.3h112"/>
</g>
</svg>
