<?xml version="1.0" encoding="utf-8"?>
<!-- Generator: Adobe Illustrator 27.5.0, SVG Export Plug-In . SVG Version: 6.00 Build 0)  -->
<svg version="1.1" id="Layer_1" xmlns="http://www.w3.org/2000/svg" xmlns:xlink="http://www.w3.org/1999/xlink" x="0px" y="0px"
	 viewBox="0 0 460.8 345.6" style="enable-background:new 0 0 460.8 345.6;" xml:space="preserve">
<style type="text/css">
	.st0{clip-path:url(#SVGID_00000157300907591222404710000008669964028396999049_);}
	.st1{stroke:#000000;stroke-width:0.5;stroke-linecap:square;}
	.st2{stroke:#000000;stroke-width:0.8;stroke-linejoin:round;}
	.st3{font-family:'ArialMT';}
	.st4{font-size:8px;}
	.st5{clip-path:url(#SVGID_00000109721134853768077210000010535413425418169228_);fill:none;stroke:#FD0000;stroke-linejoin:round;}
	
		.st6{opacity:0.5;clip-path:url(#SVGID_00000119837034124454109730000016884999689560516224_);fill:none;stroke:#000000;stroke-linecap:square;stroke-linejoin:round;stroke-dasharray:3.7,3;}
	.st7{fill:none;stroke:#000000;stroke-width:0.8;stroke-linecap:square;}
</style>
<g id="PathCollection_1">
	<g>
		<g>
			<defs>
				<rect id="SVGID_1_" x="59.5" y="207.4" width="111.6" height="111.6"/>
			</defs>
			<clipPath id="SVGID_00000033334343531727948330000014240952065717111697_">
				<use xlink:href="#SVGID_1_"  style="overflow:visible;"/>
			</clipPath>
			<g style="clip-path:url(#SVGID_00000033334343531727948330000014240952065717111697_);">
				<g>
					<path id="m67b5d96fe0" class="st1" d="M124.2,272.3c0.2,0,0.5-0.1,0.7-0.3c0.2-0.2,0.3-0.4,0.3-0.7c0-0.2-0.1-0.5-0.3-0.7
						c-0.2-0.2-0.4-0.3-0.7-0.3s-0.5,0.1-0.7,0.3c-0.2,0.2-0.3,0.4-0.3,0.7c0,0.2,0.1,0.5,0.3,0.7
						C123.7,272.2,123.9,272.3,124.2,272.3z"/>
				</g>
				<g>
					<path id="m67b5d96fe0_00000099646293612760195770000017096242738922564264_" class="st1" d="M105.6,277.1
						c0.2,0,0.5-0.1,0.7-0.3c0.2-0.2,0.3-0.4,0.3-0.7c0-0.2-0.1-0.5-0.3-0.7c-0.2-0.2-0.4-0.3-0.7-0.3s-0.5,0.1-0.7,0.3
						c-0.2,0.2-0.3,0.4-0.3,0.7c0,0.2,0.1,0.5,0.3,0.7C105.1,277,105.3,277.1,105.6,277.1z"/>
				</g>
				<g>
					<path id="m67b5d96fe0_00000156562486463489665520000013373832130649046965_" class="st1" d="M100,288c0.2,0,0.5-0.1,0.7-0.3
						c0.2-0.2,0.3-0.4,0.3-0.7c0-0.2-0.1-0.5-0.3-0.7c-0.2-0.2-0.4-0.3-0.7-0.3s-0.5,0.1-0.7,0.3c-0.2,0.2-0.3,0.4-0.3,0.7
						c0,0.2,0.1,0.5,0.3,0.7C99.5,287.9,99.7,288,100,288z"/>
				</g>
				<g>
					<path id="m67b5d96fe0_00000163044498829320483190000001420180815532332971_" class="st1" d="M119.3,259c0.2,0,0.5-0.1,0.7-0.3
						c0.2-0.2,0.3-0.4,0.3-0.7c0-0.2-0.1-0.5-0.3-0.7c-0.2-0.2-0.4-0.3-0.7-0.3s-0.5,0.1-0.7,0.3c-0.2,0.2-0.3,0.4-0.3,0.7
						c0,0.2,0.1,0.5,0.3,0.7C118.8,258.9,119.1,259,119.3,259z"/>
				</g>
				<g>
					<path id="m67b5d96fe0_00000004517245715084036910000018134936386300101267_" class="st1" d="M69,307.4c0.2,0,0.5-0.1,0.7-0.3
						c0.2-0.2,0.3-0.4,0.3-0.7s-0.1-0.5-0.3-0.7c-0.2-0.2-0.4-0.3-0.7-0.3c-0.2,0-0.5,0.1-0.7,0.3c-0.2,0.2-0.3,0.4-0.3,0.7
						s0.1,0.5,0.3,0.7C68.6,307.3,68.8,307.4,69,307.4z"/>
				</g>
				<g>
					<path id="m67b5d96fe0_00000025432418384496313610000002131148097653994902_" class="st1" d="M107.6,271.5
						c0.2,0,0.5-0.1,0.7-0.3c0.2-0.2,0.3-0.4,0.3-0.7c0-0.2-0.1-0.5-0.3-0.7c-0.2-0.2-0.4-0.3-0.7-0.3s-0.5,0.1-0.7,0.3
						c-0.2,0.2-0.3,0.4-0.3,0.7c0,0.2,0.1,0.5,0.3,0.7C107.1,271.3,107.3,271.5,107.6,271.5z"/>
				</g>
				<g>
					<path id="m67b5d96fe0_00000075869771005376233690000015813693913989197241_" class="st1" d="M147.2,237.6
						c0.2,0,0.5-0.1,0.7-0.3c0.2-0.2,0.3-0.4,0.3-0.7s-0.1-0.5-0.3-0.7c-0.2-0.2-0.4-0.3-0.7-0.3s-0.5,0.1-0.7,0.3
						c-0.2,0.2-0.3,0.4-0.3,0.7s0.1,0.5,0.3,0.7C146.7,237.5,146.9,237.6,147.2,237.6z"/>
				</g>
				<g>
					<path id="m67b5d96fe0_00000048469014976948861370000002177687171353912752_" class="st1" d="M118.4,269.8
						c0.2,0,0.5-0.1,0.7-0.3c0.2-0.2,0.3-0.4,0.3-0.7c0-0.2-0.1-0.5-0.3-0.7c-0.2-0.2-0.4-0.3-0.7-0.3s-0.5,0.1-0.7,0.3
						c-0.2,0.2-0.3,0.4-0.3,0.7c0,0.2,0.1,0.5,0.3,0.7C117.9,269.7,118.1,269.8,118.4,269.8z"/>
				</g>
				<g>
					<path id="m67b5d96fe0_00000101061248449640291430000001742898618180170376_" class="st1" d="M105.8,269.6
						c0.2,0,0.5-0.1,0.7-0.3c0.2-0.2,0.3-0.4,0.3-0.7c0-0.2-0.1-0.5-0.3-0.7c-0.2-0.2-0.4-0.3-0.7-0.3s-0.5,0.1-0.7,0.3
						c-0.2,0.2-0.3,0.4-0.3,0.7c0,0.2,0.1,0.5,0.3,0.7C105.3,269.5,105.6,269.6,105.8,269.6z"/>
				</g>
				<g>
					<path id="m67b5d96fe0_00000129165043883181945470000008805258991990562974_" class="st1" d="M69.9,308.9c0.2,0,0.5-0.1,0.7-0.3
						c0.2-0.2,0.3-0.4,0.3-0.7c0-0.2-0.1-0.5-0.3-0.7c-0.2-0.2-0.4-0.3-0.7-0.3s-0.5,0.1-0.7,0.3c-0.2,0.2-0.3,0.4-0.3,0.7
						c0,0.2,0.1,0.5,0.3,0.7C69.5,308.7,69.7,308.9,69.9,308.9z"/>
				</g>
				<g>
					<path id="m67b5d96fe0_00000102532042383545013680000016049731046500320129_" class="st1" d="M147.8,237.6
						c0.2,0,0.5-0.1,0.7-0.3c0.2-0.2,0.3-0.4,0.3-0.7s-0.1-0.5-0.3-0.7c-0.2-0.2-0.4-0.3-0.7-0.3c-0.2,0-0.5,0.1-0.7,0.3
						c-0.2,0.2-0.3,0.4-0.3,0.7s0.1,0.5,0.3,0.7S147.5,237.6,147.8,237.6z"/>
				</g>
				<g>
					<path id="m67b5d96fe0_00000111910663379041821930000018176340317231335843_" class="st1" d="M163.4,237.6
						c0.2,0,0.5-0.1,0.7-0.3c0.2-0.2,0.3-0.4,0.3-0.7s-0.1-0.5-0.3-0.7c-0.2-0.2-0.4-0.3-0.7-0.3c-0.2,0-0.5,0.1-0.7,0.3
						c-0.2,0.2-0.3,0.4-0.3,0.7s0.1,0.5,0.3,0.7S163.1,237.6,163.4,237.6z"/>
				</g>
				<g>
					<path id="m67b5d96fe0_00000062168550575208632670000004680857058295955123_" class="st1" d="M119.6,265.3
						c0.2,0,0.5-0.1,0.7-0.3c0.2-0.2,0.3-0.4,0.3-0.7c0-0.2-0.1-0.5-0.3-0.7c-0.2-0.2-0.4-0.3-0.7-0.3c-0.2,0-0.5,0.1-0.7,0.3
						c-0.2,0.2-0.3,0.4-0.3,0.7c0,0.2,0.1,0.5,0.3,0.7C119.1,265.3,119.4,265.3,119.6,265.3z"/>
				</g>
				<g>
					<path id="m67b5d96fe0_00000044869280177581108490000000079698208639733683_" class="st1" d="M76.4,317.3c0.2,0,0.5-0.1,0.7-0.3
						c0.2-0.2,0.3-0.4,0.3-0.7s-0.1-0.5-0.3-0.7c-0.2-0.2-0.4-0.3-0.7-0.3s-0.5,0.1-0.7,0.3c-0.2,0.2-0.3,0.4-0.3,0.7
						s0.1,0.5,0.3,0.7C75.9,317.2,76.1,317.3,76.4,317.3z"/>
				</g>
				<g>
					<path id="m67b5d96fe0_00000136408297241995682280000018307617996587644817_" class="st1" d="M94.1,281.3c0.2,0,0.5-0.1,0.7-0.3
						c0.2-0.2,0.3-0.4,0.3-0.7c0-0.2-0.1-0.5-0.3-0.7c-0.2-0.2-0.4-0.3-0.7-0.3c-0.2,0-0.5,0.1-0.7,0.3c-0.2,0.2-0.3,0.4-0.3,0.7
						c0,0.2,0.1,0.5,0.3,0.7C93.6,281.2,93.9,281.3,94.1,281.3z"/>
				</g>
				<g>
					<path id="m67b5d96fe0_00000039814074759082878090000007044221937753022110_" class="st1" d="M97,276.4c0.2,0,0.5-0.1,0.7-0.3
						c0.2-0.2,0.3-0.4,0.3-0.7c0-0.2-0.1-0.5-0.3-0.7c-0.2-0.2-0.4-0.3-0.7-0.3s-0.5,0.1-0.7,0.3c-0.2,0.2-0.3,0.4-0.3,0.7
						c0,0.2,0.1,0.5,0.3,0.7C96.5,276.4,96.7,276.4,97,276.4z"/>
				</g>
				<g>
					<path id="m67b5d96fe0_00000181068761688544451010000009976132271610001537_" class="st1" d="M158.8,237.6
						c0.2,0,0.5-0.1,0.7-0.3c0.2-0.2,0.3-0.4,0.3-0.7s-0.1-0.5-0.3-0.7c-0.2-0.2-0.4-0.3-0.7-0.3s-0.5,0.1-0.7,0.3
						c-0.2,0.2-0.3,0.4-0.3,0.7s0.1,0.5,0.3,0.7C158.3,237.5,158.6,237.6,158.8,237.6z"/>
				</g>
				<g>
					<path id="m67b5d96fe0_00000076597948016544140650000016913540602672388799_" class="st1" d="M111.4,271.5
						c0.2,0,0.5-0.1,0.7-0.3c0.2-0.2,0.3-0.4,0.3-0.7c0-0.2-0.1-0.5-0.3-0.7c-0.2-0.2-0.4-0.3-0.7-0.3c-0.2,0-0.5,0.1-0.7,0.3
						c-0.2,0.2-0.3,0.4-0.3,0.7c0,0.2,0.1,0.5,0.3,0.7C110.9,271.4,111.1,271.5,111.4,271.5z"/>
				</g>
				<g>
					<path id="m67b5d96fe0_00000022538276008497492200000005270382829351024013_" class="st1" d="M62.7,317.3c0.2,0,0.5-0.1,0.7-0.3
						c0.2-0.2,0.3-0.4,0.3-0.7s-0.1-0.5-0.3-0.7c-0.2-0.2-0.4-0.3-0.7-0.3c-0.2,0-0.5,0.1-0.7,0.3c-0.2,0.2-0.3,0.4-0.3,0.7
						s0.1,0.5,0.3,0.7C62.2,317.2,62.4,317.3,62.7,317.3z"/>
				</g>
				<g>
					<path id="m67b5d96fe0_00000036937759905619188080000010532282514651645826_" class="st1" d="M88.2,268.4c0.2,0,0.5-0.1,0.7-0.3
						c0.2-0.2,0.3-0.4,0.3-0.7c0-0.2-0.1-0.5-0.3-0.7c-0.2-0.2-0.4-0.3-0.7-0.3s-0.5,0.1-0.7,0.3c-0.2,0.2-0.3,0.4-0.3,0.7
						c0,0.2,0.1,0.5,0.3,0.7C87.7,268.3,87.9,268.4,88.2,268.4z"/>
				</g>
				<g>
					<path id="m67b5d96fe0_00000179611026122067025000000009355543509665024181_" class="st1" d="M68.8,305.2c0.2,0,0.5-0.1,0.7-0.3
						c0.2-0.2,0.3-0.4,0.3-0.7c0-0.2-0.1-0.5-0.3-0.7c-0.2-0.2-0.4-0.3-0.7-0.3c-0.2,0-0.5,0.1-0.7,0.3c-0.2,0.2-0.3,0.4-0.3,0.7
						c0,0.2,0.1,0.5,0.3,0.7C68.3,305.1,68.5,305.2,68.8,305.2z"/>
				</g>
				<g>
					<path id="m67b5d96fe0_00000062901232362242335090000012063255422315201695_" class="st1" d="M108.1,262.7
						c0.2,0,0.5-0.1,0.7-0.3c0.2-0.2,0.3-0.4,0.3-0.7c0-0.2-0.1-0.5-0.3-0.7c-0.2-0.2-0.4-0.3-0.7-0.3c-0.2,0-0.5,0.1-0.7,0.3
						c-0.2,0.2-0.3,0.4-0.3,0.7c0,0.2,0.1,0.5,0.3,0.7C107.6,262.6,107.8,262.7,108.1,262.7z"/>
				</g>
				<g>
					<path id="m67b5d96fe0_00000138565479614550084520000001855443600155562405_" class="st1" d="M99.9,317.3c0.2,0,0.5-0.1,0.7-0.3
						c0.2-0.2,0.3-0.4,0.3-0.7s-0.1-0.5-0.3-0.7c-0.2-0.2-0.4-0.3-0.7-0.3c-0.2,0-0.5,0.1-0.7,0.3c-0.2,0.2-0.3,0.4-0.3,0.7
						s0.1,0.5,0.3,0.7S99.7,317.3,99.9,317.3z"/>
				</g>
				<g>
					<path id="m67b5d96fe0_00000057856130536078184810000004991794216030067364_" class="st1" d="M119,237.6c0.2,0,0.5-0.1,0.7-0.3
						c0.2-0.2,0.3-0.4,0.3-0.7s-0.1-0.5-0.3-0.7c-0.2-0.2-0.4-0.3-0.7-0.3c-0.2,0-0.5,0.1-0.7,0.3c-0.2,0.2-0.3,0.4-0.3,0.7
						s0.1,0.5,0.3,0.7C118.5,237.5,118.7,237.6,119,237.6z"/>
				</g>
				<g>
					<path id="m67b5d96fe0_00000089561472921517831840000016990127739983940782_" class="st1" d="M106.3,272.5
						c0.2,0,0.5-0.1,0.7-0.3c0.2-0.2,0.3-0.4,0.3-0.7c0-0.2-0.1-0.5-0.3-0.7c-0.2-0.2-0.4-0.3-0.7-0.3s-0.5,0.1-0.7,0.3
						c-0.2,0.2-0.3,0.4-0.3,0.7c0,0.2,0.1,0.5,0.3,0.7C105.8,272.4,106,272.5,106.3,272.5z"/>
				</g>
				<g>
					<path id="m67b5d96fe0_00000127043537160483674820000006047736838042857628_" class="st1" d="M123.7,268.6
						c0.2,0,0.5-0.1,0.7-0.3c0.2-0.2,0.3-0.4,0.3-0.7c0-0.2-0.1-0.5-0.3-0.7c-0.2-0.2-0.4-0.3-0.7-0.3c-0.2,0-0.5,0.1-0.7,0.3
						c-0.2,0.2-0.3,0.4-0.3,0.7c0,0.2,0.1,0.5,0.3,0.7C123.2,268.6,123.4,268.6,123.7,268.6z"/>
				</g>
				<g>
					<path id="m67b5d96fe0_00000047757069955690470900000007706062138879077800_" class="st1" d="M68.4,310.4c0.2,0,0.5-0.1,0.7-0.3
						c0.2-0.2,0.3-0.4,0.3-0.7c0-0.2-0.1-0.5-0.3-0.7c-0.2-0.2-0.4-0.3-0.7-0.3s-0.5,0.1-0.7,0.3c-0.2,0.2-0.3,0.4-0.3,0.7
						c0,0.2,0.1,0.5,0.3,0.7C67.9,310.3,68.1,310.4,68.4,310.4z"/>
				</g>
				<g>
					<path id="m67b5d96fe0_00000000921781674369173800000016622650249133258137_" class="st1" d="M114.2,267c0.2,0,0.5-0.1,0.7-0.3
						c0.2-0.2,0.3-0.4,0.3-0.7c0-0.2-0.1-0.5-0.3-0.7c-0.2-0.2-0.4-0.3-0.7-0.3s-0.5,0.1-0.7,0.3c-0.2,0.2-0.3,0.4-0.3,0.7
						c0,0.2,0.1,0.5,0.3,0.7C113.8,266.8,114,267,114.2,267z"/>
				</g>
				<g>
					<path id="m67b5d96fe0_00000002346552073525241400000010265194902896799649_" class="st1" d="M88.2,290.3c0.2,0,0.5-0.1,0.7-0.3
						c0.2-0.2,0.3-0.4,0.3-0.7c0-0.2-0.1-0.5-0.3-0.7c-0.2-0.2-0.4-0.3-0.7-0.3s-0.5,0.1-0.7,0.3c-0.2,0.2-0.3,0.4-0.3,0.7
						c0,0.2,0.1,0.5,0.3,0.7C87.7,290.2,87.9,290.3,88.2,290.3z"/>
				</g>
				<g>
					<path id="m67b5d96fe0_00000110470805131546426730000014612604891667267495_" class="st1" d="M108.6,297.3
						c0.2,0,0.5-0.1,0.7-0.3c0.2-0.2,0.3-0.4,0.3-0.7c0-0.2-0.1-0.5-0.3-0.7c-0.2-0.2-0.4-0.3-0.7-0.3s-0.5,0.1-0.7,0.3
						c-0.2,0.2-0.3,0.4-0.3,0.7c0,0.2,0.1,0.5,0.3,0.7C108.1,297.2,108.4,297.3,108.6,297.3z"/>
				</g>
				<g>
					<path id="m67b5d96fe0_00000090993367624787744290000003518481415989690522_" class="st1" d="M101.3,253.3
						c0.2,0,0.5-0.1,0.7-0.3c0.2-0.2,0.3-0.4,0.3-0.7s-0.1-0.5-0.3-0.7c-0.2-0.2-0.4-0.3-0.7-0.3s-0.5,0.1-0.7,0.3
						c-0.2,0.2-0.3,0.4-0.3,0.7s0.1,0.5,0.3,0.7C100.8,253.2,101.1,253.3,101.3,253.3z"/>
				</g>
				<g>
					<path id="m67b5d96fe0_00000139989972776011836720000006403699019721588612_" class="st1" d="M65.5,317.3c0.2,0,0.5-0.1,0.7-0.3
						c0.2-0.2,0.3-0.4,0.3-0.7s-0.1-0.5-0.3-0.7c-0.2-0.2-0.4-0.3-0.7-0.3s-0.5,0.1-0.7,0.3c-0.2,0.2-0.3,0.4-0.3,0.7
						s0.1,0.5,0.3,0.7C65,317.2,65.3,317.3,65.5,317.3z"/>
				</g>
				<g>
					<path id="m67b5d96fe0_00000063633008909721356340000012950108045070671772_" class="st1" d="M99.1,270.8c0.2,0,0.5-0.1,0.7-0.3
						c0.2-0.2,0.3-0.4,0.3-0.7c0-0.2-0.1-0.5-0.3-0.7c-0.2-0.2-0.4-0.3-0.7-0.3s-0.5,0.1-0.7,0.3c-0.2,0.2-0.3,0.4-0.3,0.7
						c0,0.2,0.1,0.5,0.3,0.7C98.6,270.6,98.8,270.8,99.1,270.8z"/>
				</g>
				<g>
					<path id="m67b5d96fe0_00000062191557699986634510000013392057839625844653_" class="st1" d="M126.2,253.9
						c0.2,0,0.5-0.1,0.7-0.3c0.2-0.2,0.3-0.4,0.3-0.7s-0.1-0.5-0.3-0.7c-0.2-0.2-0.4-0.3-0.7-0.3s-0.5,0.1-0.7,0.3
						c-0.2,0.2-0.3,0.4-0.3,0.7s0.1,0.5,0.3,0.7C125.7,253.8,125.9,253.9,126.2,253.9z"/>
				</g>
				<g>
					<path id="m67b5d96fe0_00000134212961342714989710000004049165636857283003_" class="st1" d="M152.4,237.6
						c0.2,0,0.5-0.1,0.7-0.3c0.2-0.2,0.3-0.4,0.3-0.7s-0.1-0.5-0.3-0.7c-0.2-0.2-0.4-0.3-0.7-0.3c-0.2,0-0.5,0.1-0.7,0.3
						c-0.2,0.2-0.3,0.4-0.3,0.7s0.1,0.5,0.3,0.7S152.1,237.6,152.4,237.6z"/>
				</g>
				<g>
					<path id="m67b5d96fe0_00000173127029188588292960000006294706740662603395_" class="st1" d="M97.4,303.6c0.2,0,0.5-0.1,0.7-0.3
						c0.2-0.2,0.3-0.4,0.3-0.7c0-0.2-0.1-0.5-0.3-0.7c-0.2-0.2-0.4-0.3-0.7-0.3s-0.5,0.1-0.7,0.3c-0.2,0.2-0.3,0.4-0.3,0.7
						c0,0.2,0.1,0.5,0.3,0.7C97,303.5,97.2,303.6,97.4,303.6z"/>
				</g>
				<g>
					<path id="m67b5d96fe0_00000116211615760648114580000014789268068872759485_" class="st1" d="M118,237.6c0.2,0,0.5-0.1,0.7-0.3
						c0.2-0.2,0.3-0.4,0.3-0.7s-0.1-0.5-0.3-0.7c-0.2-0.2-0.4-0.3-0.7-0.3s-0.5,0.1-0.7,0.3c-0.2,0.2-0.3,0.4-0.3,0.7
						s0.1,0.5,0.3,0.7C117.5,237.5,117.8,237.6,118,237.6z"/>
				</g>
				<g>
					<path id="m67b5d96fe0_00000026134369376909072610000010075260475920203692_" class="st1" d="M144.3,258.3
						c0.2,0,0.5-0.1,0.7-0.3c0.2-0.2,0.3-0.4,0.3-0.7c0-0.2-0.1-0.5-0.3-0.7c-0.2-0.2-0.4-0.3-0.7-0.3c-0.2,0-0.5,0.1-0.7,0.3
						c-0.2,0.2-0.3,0.4-0.3,0.7c0,0.2,0.1,0.5,0.3,0.7C143.8,258.2,144,258.3,144.3,258.3z"/>
				</g>
				<g>
					<path id="m67b5d96fe0_00000106865733772191069540000004549163572709903256_" class="st1" d="M131.4,255.4
						c0.2,0,0.5-0.1,0.7-0.3c0.2-0.2,0.3-0.4,0.3-0.7s-0.1-0.5-0.3-0.7c-0.2-0.2-0.4-0.3-0.7-0.3c-0.2,0-0.5,0.1-0.7,0.3
						c-0.2,0.2-0.3,0.4-0.3,0.7s0.1,0.5,0.3,0.7C130.9,255.3,131.1,255.4,131.4,255.4z"/>
				</g>
				<g>
					<path id="m67b5d96fe0_00000053532248439776354190000011404500295211856022_" class="st1" d="M89.2,290.8c0.2,0,0.5-0.1,0.7-0.3
						c0.2-0.2,0.3-0.4,0.3-0.7c0-0.2-0.1-0.5-0.3-0.7c-0.2-0.2-0.4-0.3-0.7-0.3s-0.5,0.1-0.7,0.3c-0.2,0.2-0.3,0.4-0.3,0.7
						c0,0.2,0.1,0.5,0.3,0.7C88.7,290.8,88.9,290.8,89.2,290.8z"/>
				</g>
				<g>
					<path id="m67b5d96fe0_00000140715776883960548240000012295676605620567996_" class="st1" d="M84.7,288.7c0.2,0,0.5-0.1,0.7-0.3
						c0.2-0.2,0.3-0.4,0.3-0.7c0-0.2-0.1-0.5-0.3-0.7c-0.2-0.2-0.4-0.3-0.7-0.3s-0.5,0.1-0.7,0.3c-0.2,0.2-0.3,0.4-0.3,0.7
						c0,0.2,0.1,0.5,0.3,0.7C84.1,288.6,84.4,288.7,84.7,288.7z"/>
				</g>
				<g>
					<path id="m67b5d96fe0_00000177476833867935322980000004942078088246793910_" class="st1" d="M151.7,237.6
						c0.2,0,0.5-0.1,0.7-0.3c0.2-0.2,0.3-0.4,0.3-0.7s-0.1-0.5-0.3-0.7c-0.2-0.2-0.4-0.3-0.7-0.3c-0.2,0-0.5,0.1-0.7,0.3
						c-0.2,0.2-0.3,0.4-0.3,0.7s0.1,0.5,0.3,0.7C151.2,237.5,151.5,237.6,151.7,237.6z"/>
				</g>
				<g>
					<path id="m67b5d96fe0_00000127736874338464137510000008075175124265582500_" class="st1" d="M130.1,258.9
						c0.2,0,0.5-0.1,0.7-0.3c0.2-0.2,0.3-0.4,0.3-0.7s-0.1-0.5-0.3-0.7c-0.2-0.2-0.4-0.3-0.7-0.3c-0.2,0-0.5,0.1-0.7,0.3
						c-0.2,0.2-0.3,0.4-0.3,0.7s0.1,0.5,0.3,0.7C129.6,258.8,129.9,258.9,130.1,258.9z"/>
				</g>
				<g>
					<path id="m67b5d96fe0_00000131358885235218656670000010856732448345749691_" class="st1" d="M88.1,293.4c0.2,0,0.5-0.1,0.7-0.3
						c0.2-0.2,0.3-0.4,0.3-0.7c0-0.2-0.1-0.5-0.3-0.7c-0.2-0.2-0.4-0.3-0.7-0.3s-0.5,0.1-0.7,0.3c-0.2,0.2-0.3,0.4-0.3,0.7
						c0,0.2,0.1,0.5,0.3,0.7C87.6,293.2,87.9,293.4,88.1,293.4z"/>
				</g>
				<g>
					<path id="m67b5d96fe0_00000015355182217148590700000016965832831569100708_" class="st1" d="M76.9,298.7c0.2,0,0.5-0.1,0.7-0.3
						c0.2-0.2,0.3-0.4,0.3-0.7c0-0.2-0.1-0.5-0.3-0.7c-0.2-0.2-0.4-0.3-0.7-0.3s-0.5,0.1-0.7,0.3c-0.2,0.2-0.3,0.4-0.3,0.7
						c0,0.2,0.1,0.5,0.3,0.7C76.4,298.6,76.7,298.7,76.9,298.7z"/>
				</g>
				<g>
					<path id="m67b5d96fe0_00000128480357748468740130000000774391496483057593_" class="st1" d="M84.5,278.5c0.2,0,0.5-0.1,0.7-0.3
						c0.2-0.2,0.3-0.4,0.3-0.7c0-0.2-0.1-0.5-0.3-0.7c-0.2-0.2-0.4-0.3-0.7-0.3s-0.5,0.1-0.7,0.3c-0.2,0.2-0.3,0.4-0.3,0.7
						c0,0.2,0.1,0.5,0.3,0.7C84.1,278.4,84.3,278.5,84.5,278.5z"/>
				</g>
				<g>
					<path id="m67b5d96fe0_00000087402242600245604790000006348552268638544038_" class="st1" d="M118.4,267.4
						c0.2,0,0.5-0.1,0.7-0.3c0.2-0.2,0.3-0.4,0.3-0.7s-0.1-0.5-0.3-0.7c-0.2-0.2-0.4-0.3-0.7-0.3s-0.5,0.1-0.7,0.3
						c-0.2,0.2-0.3,0.4-0.3,0.7s0.1,0.5,0.3,0.7C117.9,267.3,118.1,267.4,118.4,267.4z"/>
				</g>
				<g>
					<path id="m67b5d96fe0_00000096022169625884600900000012503926295622271674_" class="st1" d="M138.1,268.6
						c0.2,0,0.5-0.1,0.7-0.3c0.2-0.2,0.3-0.4,0.3-0.7c0-0.2-0.1-0.5-0.3-0.7c-0.2-0.2-0.4-0.3-0.7-0.3c-0.2,0-0.5,0.1-0.7,0.3
						c-0.2,0.2-0.3,0.4-0.3,0.7c0,0.2,0.1,0.5,0.3,0.7C137.6,268.5,137.8,268.6,138.1,268.6z"/>
				</g>
				<g>
					<path id="m67b5d96fe0_00000076596654383671091830000015030751421718344578_" class="st1" d="M81.2,289.8c0.2,0,0.5-0.1,0.7-0.3
						c0.2-0.2,0.3-0.4,0.3-0.7s-0.1-0.5-0.3-0.7c-0.2-0.2-0.4-0.3-0.7-0.3c-0.2,0-0.5,0.1-0.7,0.3c-0.2,0.2-0.3,0.4-0.3,0.7
						s0.1,0.5,0.3,0.7C80.7,289.7,81,289.8,81.2,289.8z"/>
				</g>
				<g>
					<path id="m67b5d96fe0_00000097494729181270178960000006373210891748734084_" class="st1" d="M139.5,252.9
						c0.2,0,0.5-0.1,0.7-0.3c0.2-0.2,0.3-0.4,0.3-0.7s-0.1-0.5-0.3-0.7c-0.2-0.2-0.4-0.3-0.7-0.3c-0.2,0-0.5,0.1-0.7,0.3
						c-0.2,0.2-0.3,0.4-0.3,0.7s0.1,0.5,0.3,0.7C139,252.8,139.3,252.9,139.5,252.9z"/>
				</g>
				<g>
					<path id="m67b5d96fe0_00000055689137685716427310000017601508277947467137_" class="st1" d="M122.4,267.1
						c0.2,0,0.5-0.1,0.7-0.3c0.2-0.2,0.3-0.4,0.3-0.7c0-0.2-0.1-0.5-0.3-0.7c-0.2-0.2-0.4-0.3-0.7-0.3s-0.5,0.1-0.7,0.3
						c-0.2,0.2-0.3,0.4-0.3,0.7c0,0.2,0.1,0.5,0.3,0.7C121.9,267,122.2,267.1,122.4,267.1z"/>
				</g>
				<g>
					<path id="m67b5d96fe0_00000103237832780871416890000004095577305991410340_" class="st1" d="M74.2,300.9c0.2,0,0.5-0.1,0.7-0.3
						c0.2-0.2,0.3-0.4,0.3-0.7c0-0.2-0.1-0.5-0.3-0.7c-0.2-0.2-0.4-0.3-0.7-0.3s-0.5,0.1-0.7,0.3c-0.2,0.2-0.3,0.4-0.3,0.7
						c0,0.2,0.1,0.5,0.3,0.7C73.7,300.8,74,300.9,74.2,300.9z"/>
				</g>
				<g>
					<path id="m67b5d96fe0_00000101089237306823390470000014312246715716188090_" class="st1" d="M102,266.7c0.2,0,0.5-0.1,0.7-0.3
						c0.2-0.2,0.3-0.4,0.3-0.7c0-0.2-0.1-0.5-0.3-0.7c-0.2-0.2-0.4-0.3-0.7-0.3c-0.2,0-0.5,0.1-0.7,0.3c-0.2,0.2-0.3,0.4-0.3,0.7
						c0,0.2,0.1,0.5,0.3,0.7C101.5,266.6,101.7,266.7,102,266.7z"/>
				</g>
				<g>
					<path id="m67b5d96fe0_00000050658325305277633320000009077603741892029327_" class="st1" d="M106.4,237.6
						c0.2,0,0.5-0.1,0.7-0.3c0.2-0.2,0.3-0.4,0.3-0.7s-0.1-0.5-0.3-0.7c-0.2-0.2-0.4-0.3-0.7-0.3s-0.5,0.1-0.7,0.3
						c-0.2,0.2-0.3,0.4-0.3,0.7s0.1,0.5,0.3,0.7S106.1,237.6,106.4,237.6z"/>
				</g>
				<g>
					<path id="m67b5d96fe0_00000173159101717332875470000006106221835489357735_" class="st1" d="M102.9,273.4
						c0.2,0,0.5-0.1,0.7-0.3c0.2-0.2,0.3-0.4,0.3-0.7c0-0.2-0.1-0.5-0.3-0.7c-0.2-0.2-0.4-0.3-0.7-0.3c-0.2,0-0.5,0.1-0.7,0.3
						c-0.2,0.2-0.3,0.4-0.3,0.7c0,0.2,0.1,0.5,0.3,0.7C102.4,273.3,102.7,273.4,102.9,273.4z"/>
				</g>
				<g>
					<path id="m67b5d96fe0_00000074402602632187752040000014465817778613827263_" class="st1" d="M143.4,237.6
						c0.2,0,0.5-0.1,0.7-0.3c0.2-0.2,0.3-0.4,0.3-0.7s-0.1-0.5-0.3-0.7c-0.2-0.2-0.4-0.3-0.7-0.3c-0.2,0-0.5,0.1-0.7,0.3
						c-0.2,0.2-0.3,0.4-0.3,0.7s0.1,0.5,0.3,0.7S143.2,237.6,143.4,237.6z"/>
				</g>
				<g>
					<path id="m67b5d96fe0_00000044894686418429599840000003247291052295953553_" class="st1" d="M101.2,263.2
						c0.2,0,0.5-0.1,0.7-0.3c0.2-0.2,0.3-0.4,0.3-0.7c0-0.2-0.1-0.5-0.3-0.7c-0.2-0.2-0.4-0.3-0.7-0.3c-0.2,0-0.5,0.1-0.7,0.3
						c-0.2,0.2-0.3,0.4-0.3,0.7c0,0.2,0.1,0.5,0.3,0.7C100.7,263.1,100.9,263.2,101.2,263.2z"/>
				</g>
				<g>
					<path id="m67b5d96fe0_00000006710185860011814170000012106337460689226653_" class="st1" d="M69.1,311.5c0.2,0,0.5-0.1,0.7-0.3
						c0.2-0.2,0.3-0.4,0.3-0.7s-0.1-0.5-0.3-0.7c-0.2-0.2-0.4-0.3-0.7-0.3s-0.5,0.1-0.7,0.3c-0.2,0.2-0.3,0.4-0.3,0.7
						s0.1,0.5,0.3,0.7C68.6,311.4,68.8,311.5,69.1,311.5z"/>
				</g>
				<g>
					<path id="m67b5d96fe0_00000138566238320719688150000005034397624514500747_" class="st1" d="M93.4,278c0.2,0,0.5-0.1,0.7-0.3
						c0.2-0.2,0.3-0.4,0.3-0.7c0-0.2-0.1-0.5-0.3-0.7c-0.2-0.2-0.4-0.3-0.7-0.3c-0.2,0-0.5,0.1-0.7,0.3c-0.2,0.2-0.3,0.4-0.3,0.7
						c0,0.2,0.1,0.5,0.3,0.7C92.9,277.9,93.2,278,93.4,278z"/>
				</g>
				<g>
					<path id="m67b5d96fe0_00000028295504162467593640000010368693578076415388_" class="st1" d="M156.7,237.6
						c0.2,0,0.5-0.1,0.7-0.3c0.2-0.2,0.3-0.4,0.3-0.7s-0.1-0.5-0.3-0.7c-0.2-0.2-0.4-0.3-0.7-0.3s-0.5,0.1-0.7,0.3
						c-0.2,0.2-0.3,0.4-0.3,0.7s0.1,0.5,0.3,0.7S156.4,237.6,156.7,237.6z"/>
				</g>
				<g>
					<path id="m67b5d96fe0_00000005964157165511512610000000281047734147737771_" class="st1" d="M76.8,301.1c0.2,0,0.5-0.1,0.7-0.3
						c0.2-0.2,0.3-0.4,0.3-0.7c0-0.2-0.1-0.5-0.3-0.7c-0.2-0.2-0.4-0.3-0.7-0.3c-0.2,0-0.5,0.1-0.7,0.3c-0.2,0.2-0.3,0.4-0.3,0.7
						c0,0.2,0.1,0.5,0.3,0.7C76.3,301,76.5,301.1,76.8,301.1z"/>
				</g>
				<g>
					<path id="m67b5d96fe0_00000127003610183919474160000011869758410521916863_" class="st1" d="M95.4,273.5c0.2,0,0.5-0.1,0.7-0.3
						c0.2-0.2,0.3-0.4,0.3-0.7c0-0.2-0.1-0.5-0.3-0.7c-0.2-0.2-0.4-0.3-0.7-0.3c-0.2,0-0.5,0.1-0.7,0.3c-0.2,0.2-0.3,0.4-0.3,0.7
						c0,0.2,0.1,0.5,0.3,0.7C94.9,273.4,95.2,273.5,95.4,273.5z"/>
				</g>
				<g>
					<path id="m67b5d96fe0_00000006685237632284013050000001839362867662027445_" class="st1" d="M64.1,317.3c0.2,0,0.5-0.1,0.7-0.3
						c0.2-0.2,0.3-0.4,0.3-0.7s-0.1-0.5-0.3-0.7c-0.2-0.2-0.4-0.3-0.7-0.3c-0.2,0-0.5,0.1-0.7,0.3c-0.2,0.2-0.3,0.4-0.3,0.7
						s0.1,0.5,0.3,0.7C63.6,317.2,63.8,317.3,64.1,317.3z"/>
				</g>
				<g>
					<path id="m67b5d96fe0_00000063613723374251708620000002498893605399170187_" class="st1" d="M140.3,255.3
						c0.2,0,0.5-0.1,0.7-0.3c0.2-0.2,0.3-0.4,0.3-0.7s-0.1-0.5-0.3-0.7c-0.2-0.2-0.4-0.3-0.7-0.3c-0.2,0-0.5,0.1-0.7,0.3
						c-0.2,0.2-0.3,0.4-0.3,0.7s0.1,0.5,0.3,0.7C139.8,255.2,140,255.3,140.3,255.3z"/>
				</g>
				<g>
					<path id="m67b5d96fe0_00000152955204105307745220000017857283421207368080_" class="st1" d="M93.4,295.2c0.2,0,0.5-0.1,0.7-0.3
						c0.2-0.2,0.3-0.4,0.3-0.7c0-0.2-0.1-0.5-0.3-0.7c-0.2-0.2-0.4-0.3-0.7-0.3c-0.2,0-0.5,0.1-0.7,0.3c-0.2,0.2-0.3,0.4-0.3,0.7
						c0,0.2,0.1,0.5,0.3,0.7C92.9,295.1,93.1,295.2,93.4,295.2z"/>
				</g>
				<g>
					<path id="m67b5d96fe0_00000063612511016969289480000000523399225252478090_" class="st1" d="M101.3,262.7
						c0.2,0,0.5-0.1,0.7-0.3c0.2-0.2,0.3-0.4,0.3-0.7c0-0.2-0.1-0.5-0.3-0.7c-0.2-0.2-0.4-0.3-0.7-0.3c-0.2,0-0.5,0.1-0.7,0.3
						c-0.2,0.2-0.3,0.4-0.3,0.7c0,0.2,0.1,0.5,0.3,0.7C100.8,262.6,101,262.7,101.3,262.7z"/>
				</g>
				<g>
					<path id="m67b5d96fe0_00000078729939262121617720000016657371202328320658_" class="st1" d="M120,265.7c0.2,0,0.5-0.1,0.7-0.3
						c0.2-0.2,0.3-0.4,0.3-0.7c0-0.2-0.1-0.5-0.3-0.7c-0.2-0.2-0.4-0.3-0.7-0.3c-0.2,0-0.5,0.1-0.7,0.3c-0.2,0.2-0.3,0.4-0.3,0.7
						c0,0.2,0.1,0.5,0.3,0.7C119.5,265.7,119.8,265.7,120,265.7z"/>
				</g>
				<g>
					<path id="m67b5d96fe0_00000153671146295238753560000011769758850138864525_" class="st1" d="M127.5,251.6
						c0.2,0,0.5-0.1,0.7-0.3c0.2-0.2,0.3-0.4,0.3-0.7s-0.1-0.5-0.3-0.7c-0.2-0.2-0.4-0.3-0.7-0.3s-0.5,0.1-0.7,0.3
						c-0.2,0.2-0.3,0.4-0.3,0.7s0.1,0.5,0.3,0.7C127.1,251.5,127.3,251.6,127.5,251.6z"/>
				</g>
				<g>
					<path id="m67b5d96fe0_00000173856833172231019530000003410938815681089930_" class="st1" d="M109.4,265.3
						c0.2,0,0.5-0.1,0.7-0.3c0.2-0.2,0.3-0.4,0.3-0.7c0-0.2-0.1-0.5-0.3-0.7c-0.2-0.2-0.4-0.3-0.7-0.3c-0.2,0-0.5,0.1-0.7,0.3
						c-0.2,0.2-0.3,0.4-0.3,0.7c0,0.2,0.1,0.5,0.3,0.7C108.9,265.2,109.1,265.3,109.4,265.3z"/>
				</g>
				<g>
					<path id="m67b5d96fe0_00000018201953788767279590000008027481496884668602_" class="st1" d="M126.5,264.3
						c0.2,0,0.5-0.1,0.7-0.3c0.2-0.2,0.3-0.4,0.3-0.7c0-0.2-0.1-0.5-0.3-0.7c-0.2-0.2-0.4-0.3-0.7-0.3s-0.5,0.1-0.7,0.3
						c-0.2,0.2-0.3,0.4-0.3,0.7c0,0.2,0.1,0.5,0.3,0.7C126.1,264.3,126.3,264.3,126.5,264.3z"/>
				</g>
				<g>
					<path id="m67b5d96fe0_00000126320061344157398990000001582214322235934340_" class="st1" d="M67.5,314.1c0.2,0,0.5-0.1,0.7-0.3
						c0.2-0.2,0.3-0.4,0.3-0.7c0-0.2-0.1-0.5-0.3-0.7c-0.2-0.2-0.4-0.3-0.7-0.3s-0.5,0.1-0.7,0.3c-0.2,0.2-0.3,0.4-0.3,0.7
						c0,0.2,0.1,0.5,0.3,0.7C67,314,67.2,314.1,67.5,314.1z"/>
				</g>
				<g>
					<path id="m67b5d96fe0_00000131342775627705437910000002836315023436308883_" class="st1" d="M120.5,262.9
						c0.2,0,0.5-0.1,0.7-0.3c0.2-0.2,0.3-0.4,0.3-0.7c0-0.2-0.1-0.5-0.3-0.7c-0.2-0.2-0.4-0.3-0.7-0.3s-0.5,0.1-0.7,0.3
						c-0.2,0.2-0.3,0.4-0.3,0.7c0,0.2,0.1,0.5,0.3,0.7C120,262.8,120.3,262.9,120.5,262.9z"/>
				</g>
				<g>
					<path id="m67b5d96fe0_00000124140496294704229120000003554833902666047882_" class="st1" d="M109,259.4c0.2,0,0.5-0.1,0.7-0.3
						c0.2-0.2,0.3-0.4,0.3-0.7c0-0.2-0.1-0.5-0.3-0.7c-0.2-0.2-0.4-0.3-0.7-0.3s-0.5,0.1-0.7,0.3c-0.2,0.2-0.3,0.4-0.3,0.7
						c0,0.2,0.1,0.5,0.3,0.7C108.5,259.4,108.7,259.4,109,259.4z"/>
				</g>
				<g>
					<path id="m67b5d96fe0_00000152949290303120639140000017713846147055263619_" class="st1" d="M87.6,290c0.2,0,0.5-0.1,0.7-0.3
						c0.2-0.2,0.3-0.4,0.3-0.7c0-0.2-0.1-0.5-0.3-0.7c-0.2-0.2-0.4-0.3-0.7-0.3s-0.5,0.1-0.7,0.3c-0.2,0.2-0.3,0.4-0.3,0.7
						c0,0.2,0.1,0.5,0.3,0.7C87,289.9,87.3,290,87.6,290z"/>
				</g>
				<g>
					<path id="m67b5d96fe0_00000142894156660163661810000002971126946182973347_" class="st1" d="M112,280.1c0.2,0,0.5-0.1,0.7-0.3
						c0.2-0.2,0.3-0.4,0.3-0.7c0-0.2-0.1-0.5-0.3-0.7c-0.2-0.2-0.4-0.3-0.7-0.3s-0.5,0.1-0.7,0.3c-0.2,0.2-0.3,0.4-0.3,0.7
						c0,0.2,0.1,0.5,0.3,0.7C111.5,280,111.7,280.1,112,280.1z"/>
				</g>
				<g>
					<path id="m67b5d96fe0_00000160894531028570711030000018278013331080110517_" class="st1" d="M64.2,314.2c0.2,0,0.5-0.1,0.7-0.3
						c0.2-0.2,0.3-0.4,0.3-0.7c0-0.2-0.1-0.5-0.3-0.7c-0.2-0.2-0.4-0.3-0.7-0.3c-0.2,0-0.5,0.1-0.7,0.3c-0.2,0.2-0.3,0.4-0.3,0.7
						c0,0.2,0.1,0.5,0.3,0.7C63.7,314,64,314.2,64.2,314.2z"/>
				</g>
				<g>
					<path id="m67b5d96fe0_00000179626573093181855540000014694116237367493007_" class="st1" d="M145.1,237.6
						c0.2,0,0.5-0.1,0.7-0.3c0.2-0.2,0.3-0.4,0.3-0.7s-0.1-0.5-0.3-0.7c-0.2-0.2-0.4-0.3-0.7-0.3s-0.5,0.1-0.7,0.3
						c-0.2,0.2-0.3,0.4-0.3,0.7s0.1,0.5,0.3,0.7C144.7,237.5,144.9,237.6,145.1,237.6z"/>
				</g>
				<g>
					<path id="m67b5d96fe0_00000152972092726642608560000000571545253983774647_" class="st1" d="M111.6,317.3
						c0.2,0,0.5-0.1,0.7-0.3c0.2-0.2,0.3-0.4,0.3-0.7s-0.1-0.5-0.3-0.7c-0.2-0.2-0.4-0.3-0.7-0.3s-0.5,0.1-0.7,0.3
						c-0.2,0.2-0.3,0.4-0.3,0.7s0.1,0.5,0.3,0.7S111.3,317.3,111.6,317.3z"/>
				</g>
				<g>
					<path id="m67b5d96fe0_00000065045397829168071720000010932079756023915947_" class="st1" d="M102.7,278.7
						c0.2,0,0.5-0.1,0.7-0.3c0.2-0.2,0.3-0.4,0.3-0.7c0-0.2-0.1-0.5-0.3-0.7c-0.2-0.2-0.4-0.3-0.7-0.3s-0.5,0.1-0.7,0.3
						c-0.2,0.2-0.3,0.4-0.3,0.7c0,0.2,0.1,0.5,0.3,0.7C102.2,278.5,102.4,278.7,102.7,278.7z"/>
				</g>
				<g>
					<path id="m67b5d96fe0_00000132773997436718662130000000078671546498858133_" class="st1" d="M83.4,301c0.2,0,0.5-0.1,0.7-0.3
						c0.2-0.2,0.3-0.4,0.3-0.7s-0.1-0.5-0.3-0.7c-0.2-0.2-0.4-0.3-0.7-0.3s-0.5,0.1-0.7,0.3c-0.2,0.2-0.3,0.4-0.3,0.7
						s0.1,0.5,0.3,0.7C82.9,300.9,83.2,301,83.4,301z"/>
				</g>
				<g>
					<path id="m67b5d96fe0_00000156558570613294940990000001402927530809229455_" class="st1" d="M92.1,296c0.2,0,0.5-0.1,0.7-0.3
						c0.2-0.2,0.3-0.4,0.3-0.7c0-0.2-0.1-0.5-0.3-0.7c-0.2-0.2-0.4-0.3-0.7-0.3c-0.2,0-0.5,0.1-0.7,0.3c-0.2,0.2-0.3,0.4-0.3,0.7
						c0,0.2,0.1,0.5,0.3,0.7C91.6,295.9,91.9,296,92.1,296z"/>
				</g>
				<g>
					<path id="m67b5d96fe0_00000113347653523227927750000012014024730415954318_" class="st1" d="M121.1,272.5
						c0.2,0,0.5-0.1,0.7-0.3c0.2-0.2,0.3-0.4,0.3-0.7c0-0.2-0.1-0.5-0.3-0.7c-0.2-0.2-0.4-0.3-0.7-0.3s-0.5,0.1-0.7,0.3
						c-0.2,0.2-0.3,0.4-0.3,0.7c0,0.2,0.1,0.5,0.3,0.7C120.6,272.4,120.8,272.5,121.1,272.5z"/>
				</g>
				<g>
					<path id="m67b5d96fe0_00000114795030691259889590000014523186126766087103_" class="st1" d="M107.2,289.1
						c0.2,0,0.5-0.1,0.7-0.3c0.2-0.2,0.3-0.4,0.3-0.7c0-0.2-0.1-0.5-0.3-0.7c-0.2-0.2-0.4-0.3-0.7-0.3s-0.5,0.1-0.7,0.3
						c-0.2,0.2-0.3,0.4-0.3,0.7c0,0.2,0.1,0.5,0.3,0.7C106.7,289,106.9,289.1,107.2,289.1z"/>
				</g>
				<g>
					<path id="m67b5d96fe0_00000147920349466738921340000001176117605267537038_" class="st1" d="M113.1,284.4
						c0.2,0,0.5-0.1,0.7-0.3c0.2-0.2,0.3-0.4,0.3-0.7c0-0.2-0.1-0.5-0.3-0.7c-0.2-0.2-0.4-0.3-0.7-0.3s-0.5,0.1-0.7,0.3
						c-0.2,0.2-0.3,0.4-0.3,0.7c0,0.2,0.1,0.5,0.3,0.7C112.6,284.3,112.8,284.4,113.1,284.4z"/>
				</g>
				<g>
					<path id="m67b5d96fe0_00000074400413422934080580000007522207212145321378_" class="st1" d="M70.1,307.5c0.2,0,0.5-0.1,0.7-0.3
						c0.2-0.2,0.3-0.4,0.3-0.7c0-0.2-0.1-0.5-0.3-0.7c-0.2-0.2-0.4-0.3-0.7-0.3s-0.5,0.1-0.7,0.3c-0.2,0.2-0.3,0.4-0.3,0.7
						c0,0.2,0.1,0.5,0.3,0.7C69.6,307.4,69.9,307.5,70.1,307.5z"/>
				</g>
				<g>
					<path id="m67b5d96fe0_00000136402182688232521450000001126288414831696532_" class="st1" d="M149.8,237.6
						c0.2,0,0.5-0.1,0.7-0.3c0.2-0.2,0.3-0.4,0.3-0.7s-0.1-0.5-0.3-0.7c-0.2-0.2-0.4-0.3-0.7-0.3c-0.2,0-0.5,0.1-0.7,0.3
						c-0.2,0.2-0.3,0.4-0.3,0.7s0.1,0.5,0.3,0.7C149.3,237.5,149.5,237.6,149.8,237.6z"/>
				</g>
				<g>
					<path id="m67b5d96fe0_00000080178529794098638550000008134131399811370936_" class="st1" d="M70.6,299.5c0.2,0,0.5-0.1,0.7-0.3
						c0.2-0.2,0.3-0.4,0.3-0.7c0-0.2-0.1-0.5-0.3-0.7c-0.2-0.2-0.4-0.3-0.7-0.3c-0.2,0-0.5,0.1-0.7,0.3c-0.2,0.2-0.3,0.4-0.3,0.7
						c0,0.2,0.1,0.5,0.3,0.7C70,299.5,70.3,299.5,70.6,299.5z"/>
				</g>
				<g>
					<path id="m67b5d96fe0_00000147929200099947052430000013746196685110073267_" class="st1" d="M74.7,298.1c0.2,0,0.5-0.1,0.7-0.3
						c0.2-0.2,0.3-0.4,0.3-0.7c0-0.2-0.1-0.5-0.3-0.7c-0.2-0.2-0.4-0.3-0.7-0.3c-0.2,0-0.5,0.1-0.7,0.3c-0.2,0.2-0.3,0.4-0.3,0.7
						c0,0.2,0.1,0.5,0.3,0.7C74.2,298.1,74.5,298.1,74.7,298.1z"/>
				</g>
				<g>
					<path id="m67b5d96fe0_00000078015631250426670600000013527124167413953980_" class="st1" d="M87.2,297.6c0.2,0,0.5-0.1,0.7-0.3
						c0.2-0.2,0.3-0.4,0.3-0.7c0-0.2-0.1-0.5-0.3-0.7c-0.2-0.2-0.4-0.3-0.7-0.3s-0.5,0.1-0.7,0.3c-0.2,0.2-0.3,0.4-0.3,0.7
						c0,0.2,0.1,0.5,0.3,0.7C86.8,297.5,87,297.6,87.2,297.6z"/>
				</g>
				<g>
					<path id="m67b5d96fe0_00000171704019711790044590000010898436632317715883_" class="st1" d="M86.8,274.8c0.2,0,0.5-0.1,0.7-0.3
						c0.2-0.2,0.3-0.4,0.3-0.7c0-0.2-0.1-0.5-0.3-0.7c-0.2-0.2-0.4-0.3-0.7-0.3s-0.5,0.1-0.7,0.3c-0.2,0.2-0.3,0.4-0.3,0.7
						c0,0.2,0.1,0.5,0.3,0.7C86.3,274.7,86.5,274.8,86.8,274.8z"/>
				</g>
				<g>
					<path id="m67b5d96fe0_00000105390984626377436910000011994644097231385249_" class="st1" d="M98.8,296.8c0.2,0,0.5-0.1,0.7-0.3
						c0.2-0.2,0.3-0.4,0.3-0.7c0-0.2-0.1-0.5-0.3-0.7c-0.2-0.2-0.4-0.3-0.7-0.3s-0.5,0.1-0.7,0.3c-0.2,0.2-0.3,0.4-0.3,0.7
						c0,0.2,0.1,0.5,0.3,0.7C98.2,296.6,98.5,296.8,98.8,296.8z"/>
				</g>
				<g>
					<path id="m67b5d96fe0_00000090279441919335078560000013359555620475059110_" class="st1" d="M152,237.6c0.2,0,0.5-0.1,0.7-0.3
						c0.2-0.2,0.3-0.4,0.3-0.7s-0.1-0.5-0.3-0.7c-0.2-0.2-0.4-0.3-0.7-0.3s-0.5,0.1-0.7,0.3c-0.2,0.2-0.3,0.4-0.3,0.7
						s0.1,0.5,0.3,0.7S151.7,237.6,152,237.6z"/>
				</g>
				<g>
					<path id="m67b5d96fe0_00000016065623904422828650000006795424778719786921_" class="st1" d="M110,245.8c0.2,0,0.5-0.1,0.7-0.3
						c0.2-0.2,0.3-0.4,0.3-0.7s-0.1-0.5-0.3-0.7c-0.2-0.2-0.4-0.3-0.7-0.3s-0.5,0.1-0.7,0.3c-0.2,0.2-0.3,0.4-0.3,0.7
						s0.1,0.5,0.3,0.7C109.4,245.7,109.7,245.8,110,245.8z"/>
				</g>
				<g>
					<path id="m67b5d96fe0_00000167386768850521234930000004988813720022121628_" class="st1" d="M72.7,304.3c0.2,0,0.5-0.1,0.7-0.3
						c0.2-0.2,0.3-0.4,0.3-0.7c0-0.2-0.1-0.5-0.3-0.7c-0.2-0.2-0.4-0.3-0.7-0.3c-0.2,0-0.5,0.1-0.7,0.3c-0.2,0.2-0.3,0.4-0.3,0.7
						c0,0.2,0.1,0.5,0.3,0.7C72.2,304.2,72.4,304.3,72.7,304.3z"/>
				</g>
				<g>
					<path id="m67b5d96fe0_00000112615943472127749140000000158505523010159517_" class="st1" d="M143.7,237.6
						c0.2,0,0.5-0.1,0.7-0.3c0.2-0.2,0.3-0.4,0.3-0.7s-0.1-0.5-0.3-0.7c-0.2-0.2-0.4-0.3-0.7-0.3c-0.2,0-0.5,0.1-0.7,0.3
						c-0.2,0.2-0.3,0.4-0.3,0.7s0.1,0.5,0.3,0.7C143.2,237.5,143.4,237.6,143.7,237.6z"/>
				</g>
				<g>
					<path id="m67b5d96fe0_00000016793107968411611470000001469793851712784318_" class="st1" d="M87.9,278.7c0.2,0,0.5-0.1,0.7-0.3
						c0.2-0.2,0.3-0.4,0.3-0.7c0-0.2-0.1-0.5-0.3-0.7c-0.2-0.2-0.4-0.3-0.7-0.3s-0.5,0.1-0.7,0.3c-0.2,0.2-0.3,0.4-0.3,0.7
						c0,0.2,0.1,0.5,0.3,0.7C87.4,278.7,87.7,278.7,87.9,278.7z"/>
				</g>
				<g>
					<path id="m67b5d96fe0_00000160879209945419991580000012639894547805884595_" class="st1" d="M168.3,237.6
						c0.2,0,0.5-0.1,0.7-0.3c0.2-0.2,0.3-0.4,0.3-0.7s-0.1-0.5-0.3-0.7c-0.2-0.2-0.4-0.3-0.7-0.3s-0.5,0.1-0.7,0.3
						c-0.2,0.2-0.3,0.4-0.3,0.7s0.1,0.5,0.3,0.7S168,237.6,168.3,237.6z"/>
				</g>
				<g>
					<path id="m67b5d96fe0_00000116228049568247981870000006980306484488412070_" class="st1" d="M99.5,287.5c0.2,0,0.5-0.1,0.7-0.3
						c0.2-0.2,0.3-0.4,0.3-0.7c0-0.2-0.1-0.5-0.3-0.7c-0.2-0.2-0.4-0.3-0.7-0.3s-0.5,0.1-0.7,0.3c-0.2,0.2-0.3,0.4-0.3,0.7
						c0,0.2,0.1,0.5,0.3,0.7C99,287.4,99.3,287.5,99.5,287.5z"/>
				</g>
				<g>
					<path id="m67b5d96fe0_00000008126176290360746270000011054112686039685308_" class="st1" d="M153.9,237.6
						c0.2,0,0.5-0.1,0.7-0.3c0.2-0.2,0.3-0.4,0.3-0.7s-0.1-0.5-0.3-0.7c-0.2-0.2-0.4-0.3-0.7-0.3c-0.2,0-0.5,0.1-0.7,0.3
						c-0.2,0.2-0.3,0.4-0.3,0.7s0.1,0.5,0.3,0.7C153.4,237.5,153.6,237.6,153.9,237.6z"/>
				</g>
				<g>
					<path id="m67b5d96fe0_00000080915075109206072930000006278990624142242688_" class="st1" d="M95.8,282.9c0.2,0,0.5-0.1,0.7-0.3
						c0.2-0.2,0.3-0.4,0.3-0.7c0-0.2-0.1-0.5-0.3-0.7c-0.2-0.2-0.4-0.3-0.7-0.3s-0.5,0.1-0.7,0.3c-0.2,0.2-0.3,0.4-0.3,0.7
						c0,0.2,0.1,0.5,0.3,0.7C95.3,282.8,95.5,282.9,95.8,282.9z"/>
				</g>
			</g>
		</g>
	</g>
</g>
<g id="matplotlib.axis_1">
	<g id="xtick_1">
		<g id="line2d_1">
			<g>
				<g>
					<path id="m5256358ecc" class="st2" d="M62.1,319v2.6"/>
				</g>
			</g>
		</g>
		<g id="text_1">
			<text transform="matrix(1 0 0 1 57.0757 329.9326)" class="st3 st4">0.0</text>
		</g>
	</g>
	<g id="xtick_2">
		<g id="line2d_2">
			<g>
				<g>
					<path id="m5256358ecc_00000049919243102935511610000011748432936330070679_" class="st2" d="M83.4,319v2.6"/>
				</g>
			</g>
		</g>
		<g id="text_2">
			<text transform="matrix(1 0 0 1 78.3335 329.9326)" class="st3 st4">0.2</text>
		</g>
	</g>
	<g id="xtick_3">
		<g id="line2d_3">
			<g>
				<g>
					<path id="m5256358ecc_00000075137590687993636220000015083429158099907258_" class="st2" d="M104.7,319v2.6"/>
				</g>
			</g>
		</g>
		<g id="text_3">
			<text transform="matrix(1 0 0 1 99.5889 329.9326)" class="st3 st4">0.4</text>
		</g>
	</g>
	<g id="xtick_4">
		<g id="line2d_4">
			<g>
				<g>
					<path id="m5256358ecc_00000020362465612756148880000002026624656930714011_" class="st2" d="M125.9,319v2.6"/>
				</g>
			</g>
		</g>
		<g id="text_4">
			<text transform="matrix(1 0 0 1 120.8452 329.9326)" class="st3 st4">0.6</text>
		</g>
	</g>
	<g id="xtick_5">
		<g id="line2d_5">
			<g>
				<g>
					<path id="m5256358ecc_00000080204285760027693060000016997008778367041185_" class="st2" d="M147.2,319v2.6"/>
				</g>
			</g>
		</g>
		<g id="text_5">
			<text transform="matrix(1 0 0 1 142.1011 329.9326)" class="st3 st4">0.8</text>
		</g>
	</g>
	<g id="xtick_6">
		<g id="line2d_6">
			<g>
				<g>
					<path id="m5256358ecc_00000153678997962701452570000000779758310213399950_" class="st2" d="M168.4,319v2.6"/>
				</g>
			</g>
		</g>
		<g id="text_6">
			<text transform="matrix(1 0 0 1 163.3579 329.9326)" class="st3 st4">1.0</text>
		</g>
	</g>
	<g id="text_7">
		<text transform="matrix(1 0 0 1 97.8572 339.4004)" class="st3 st4">True FDR</text>
	</g>
</g>
<g id="ytick_1">
	<g id="line2d_7">
		<g>
			<g>
				<path id="m9cc60e921c" class="st2" d="M59.5,316.4h-2.6"/>
			</g>
		</g>
	</g>
	<g id="text_8">
		<text transform="matrix(1 0 0 1 43.6152 318.4492)" class="st3 st4">0.0</text>
	</g>
</g>
<g id="ytick_2">
	<g id="line2d_8">
		<g>
			<g>
				<path id="m9cc60e921c_00000084508605966718201010000018151637201490303373_" class="st2" d="M59.5,295.1h-2.6"/>
			</g>
		</g>
	</g>
	<g id="text_9">
		<text transform="matrix(1 0 0 1 43.6152 297.1934)" class="st3 st4">0.2</text>
	</g>
</g>
<g id="ytick_3">
	<g id="line2d_9">
		<g>
			<g>
				<path id="m9cc60e921c_00000146483300521616680760000014310800024115518122_" class="st2" d="M59.5,273.8h-2.6"/>
			</g>
		</g>
	</g>
	<g id="text_10">
		<text transform="matrix(1 0 0 1 43.6152 275.9375)" class="st3 st4">0.4</text>
	</g>
</g>
<g id="ytick_4">
	<g id="line2d_10">
		<g>
			<g>
				<path id="m9cc60e921c_00000080886831651985945100000000285049030417565091_" class="st2" d="M59.5,252.6h-2.6"/>
			</g>
		</g>
	</g>
	<g id="text_11">
		<text transform="matrix(1 0 0 1 43.6152 254.6816)" class="st3 st4">0.6</text>
	</g>
</g>
<g id="ytick_5">
	<g id="line2d_11">
		<g>
			<g>
				<path id="m9cc60e921c_00000006704778921268885650000005410726888330254262_" class="st2" d="M59.5,231.4h-2.6"/>
			</g>
		</g>
	</g>
	<g id="text_12">
		<text transform="matrix(1 0 0 1 43.6152 233.4238)" class="st3 st4">0.8</text>
	</g>
</g>
<g id="ytick_6">
	<g id="line2d_12">
		<g>
			<g>
				<path id="m9cc60e921c_00000098181199095063973630000003055112381934179226_" class="st2" d="M56.9,316.4"/>
				<path id="m9cc60e921c_00000039114593432229994780000016317296362202459028_" class="st2" d="M59.5,210.1h-2.6"/>
			</g>
		</g>
	</g>
	<g id="text_13">
		<text transform="matrix(1 0 0 1 43.6152 212.1689)" class="st3 st4">1.0</text>
	</g>
</g>
<g id="text_14">
	<text transform="matrix(6.123233e-17 -1 1 6.123233e-17 39.1504 289.4438)" class="st3 st4">Predicted FDR</text>
</g>
<g id="line2d_13">
	<g>
		<g>
			<defs>
				<rect id="SVGID_00000098191891519938625170000004351752204047133569_" x="59.5" y="207.4" width="111.6" height="111.6"/>
			</defs>
			<clipPath id="SVGID_00000171680061096456073170000015484294768149333691_">
				<use xlink:href="#SVGID_00000098191891519938625170000004351752204047133569_"  style="overflow:visible;"/>
			</clipPath>
			
				<path style="clip-path:url(#SVGID_00000171680061096456073170000015484294768149333691_);fill:none;stroke:#FD0000;stroke-linejoin:round;" d="
				M59.5,319l111.6-111.6"/>
		</g>
	</g>
</g>
<g id="line2d_14">
	<g>
		<g>
			<defs>
				<rect id="SVGID_00000126313356545438023440000002910520429201728943_" x="59.5" y="207.4" width="111.6" height="111.6"/>
			</defs>
			<clipPath id="SVGID_00000047022180936052646410000013599312351797978005_">
				<use xlink:href="#SVGID_00000126313356545438023440000002910520429201728943_"  style="overflow:visible;"/>
			</clipPath>
			
				<path style="opacity:0.5;clip-path:url(#SVGID_00000047022180936052646410000013599312351797978005_);fill:none;stroke:#000000;stroke-linecap:square;stroke-linejoin:round;stroke-dasharray:3.7,3;" d="
				M62.1,310l106.3-85.4"/>
		</g>
	</g>
</g>
<g id="patch_3">
	<path class="st7" d="M59.5,319V207.4"/>
</g>
<g id="patch_4">
	<path class="st7" d="M171.1,319V207.4"/>
</g>
<g id="patch_5">
	<path class="st7" d="M59.5,319h111.6"/>
</g>
<g id="patch_6">
	<path class="st7" d="M59.5,207.4h111.6"/>
</g>
<g id="text_15">
	<g transform="translate(178.317524 260.720952)">
		<text transform="matrix(1 0 0 1 -59.0956 53.2467)" class="st3 st4">RMSE = 0.13</text>
	</g>
</g>
<text transform="matrix(1 0 0 1 64.1353 218.7127)"><tspan x="0" y="0" class="st3 st4">t = 10 min</tspan><tspan x="35.4" y="0" class="st3 st4"> </tspan><tspan x="0" y="14" class="st3 st4">   </tspan></text>
<path id="m2d98770ce5_00000171680901935946323740000017423313456946181532_" d="M66.1,227.9c0.5,0,0.9-0.2,1.2-0.5
	c0.3-0.3,0.5-0.8,0.5-1.2s-0.2-0.9-0.5-1.2c-0.3-0.3-0.8-0.5-1.2-0.5s-0.9,0.2-1.2,0.5c-0.3,0.3-0.5,0.8-0.5,1.2s0.2,0.9,0.5,1.2
	S65.6,227.9,66.1,227.9z"/>
<text transform="matrix(1 0 0 1 70.6695 228.672)" class="st3 st4">1 cluster</text>
</svg>
