<?xml version="1.0" encoding="utf-8"?>
<!-- Generator: Adobe Illustrator 28.0.0, SVG Export Plug-In . SVG Version: 6.00 Build 0)  -->
<svg version="1.1" id="Layer_1" xmlns="http://www.w3.org/2000/svg" xmlns:xlink="http://www.w3.org/1999/xlink" x="0px" y="0px"
	 viewBox="0 0 460.8 345.6" style="enable-background:new 0 0 460.8 345.6;" xml:space="preserve">
<style type="text/css">
	.st0{clip-path:url(#SVGID_00000152251645614932531160000017472270454752627614_);}
	.st1{fill:#0000FF;stroke:#0000FF;stroke-linejoin:round;}
	.st2{stroke:#000000;stroke-width:0.8;stroke-linejoin:round;}
	.st3{font-family:'LucidaBright';}
	.st4{font-size:14px;}
	.st5{font-size:16px;}
	
		.st6{clip-path:url(#SVGID_00000108286609793069382590000007940200048557772201_);fill:none;stroke:#000000;stroke-width:2;stroke-linejoin:round;stroke-dasharray:7.4,3.2;}
	
		.st7{clip-path:url(#SVGID_00000009580863131471160630000013313815457760735889_);fill:none;stroke:#000000;stroke-width:2;stroke-linecap:square;stroke-linejoin:round;}
	.st8{fill:none;stroke:#000000;stroke-width:0.8;stroke-linecap:square;}
	.st9{font-family:'ArialMT';}
	.st10{font-size:12px;}
	.st11{font-size:11.2px;}
</style>
<g id="PathCollection_1">
	<g>
		<defs>
			<rect id="SVGID_1_" x="97.4" y="28.7" width="266" height="266"/>
		</defs>
		<clipPath id="SVGID_00000180368190503757720130000016866558800401929905_">
			<use xlink:href="#SVGID_1_"  style="overflow:visible;"/>
		</clipPath>
		<g style="clip-path:url(#SVGID_00000180368190503757720130000016866558800401929905_);">
			<g>
				<path id="mc0bb6d3a1d" class="st1" d="M268.2,124.1c0.6,0,1.3-0.3,1.7-0.7c0.5-0.5,0.7-1.1,0.7-1.7s-0.3-1.3-0.7-1.7
					c-0.5-0.5-1.1-0.7-1.7-0.7s-1.3,0.3-1.7,0.7c-0.5,0.5-0.7,1.1-0.7,1.7s0.3,1.3,0.7,1.7C266.9,123.9,267.5,124.1,268.2,124.1z"/>
			</g>
			<g>
				<path id="mc0bb6d3a1d_00000042702709283317424490000007406481218729360019_" class="st1" d="M338.5,53.2c0.6,0,1.3-0.3,1.7-0.7
					c0.5-0.5,0.7-1.1,0.7-1.7s-0.3-1.3-0.7-1.7c-0.5-0.5-1.1-0.7-1.7-0.7s-1.3,0.3-1.7,0.7c-0.5,0.5-0.7,1.1-0.7,1.7
					s0.3,1.3,0.7,1.7C337.2,52.9,337.9,53.2,338.5,53.2z"/>
			</g>
			<g>
				<path id="mc0bb6d3a1d_00000015315901209744865530000005575758600918534294_" class="st1" d="M309.5,86c0.6,0,1.3-0.3,1.7-0.7
					c0.5-0.5,0.7-1.1,0.7-1.7s-0.3-1.3-0.7-1.7c-0.5-0.5-1.1-0.7-1.7-0.7s-1.3,0.3-1.7,0.7c-0.5,0.5-0.7,1.1-0.7,1.7
					s0.3,1.3,0.7,1.7C308.2,85.8,308.8,86,309.5,86z"/>
			</g>
			<g>
				<path id="mc0bb6d3a1d_00000117644031745201515940000011400169779240757665_" class="st1" d="M326.8,63.9c0.6,0,1.3-0.3,1.7-0.7
					c0.5-0.5,0.7-1.1,0.7-1.7s-0.3-1.3-0.7-1.7c-0.5-0.5-1.1-0.7-1.7-0.7s-1.3,0.3-1.7,0.7c-0.5,0.5-0.7,1.1-0.7,1.7
					s0.3,1.3,0.7,1.7C325.6,63.6,326.2,63.9,326.8,63.9z"/>
			</g>
			<g>
				<path id="mc0bb6d3a1d_00000003095345980849482950000007974184728782599054_" class="st1" d="M258.9,139.8c0.6,0,1.3-0.3,1.7-0.7
					c0.5-0.5,0.7-1.1,0.7-1.7s-0.3-1.3-0.7-1.7c-0.5-0.5-1.1-0.7-1.7-0.7s-1.3,0.3-1.7,0.7c-0.5,0.5-0.7,1.1-0.7,1.7
					s0.3,1.3,0.7,1.7C257.7,139.5,258.3,139.8,258.9,139.8z"/>
			</g>
			<g>
				<path id="mc0bb6d3a1d_00000015339878982792966770000010018968177373242009_" class="st1" d="M187.1,200.4c0.6,0,1.3-0.3,1.7-0.7
					c0.5-0.5,0.7-1.1,0.7-1.7s-0.3-1.3-0.7-1.7c-0.5-0.5-1.1-0.7-1.7-0.7s-1.3,0.3-1.7,0.7c-0.5,0.5-0.7,1.1-0.7,1.7
					s0.3,1.3,0.7,1.7C185.8,200.1,186.4,200.4,187.1,200.4z"/>
			</g>
			<g>
				<path id="mc0bb6d3a1d_00000095321362958556214050000007714828387801732542_" class="st1" d="M269.3,121.5c0.6,0,1.3-0.3,1.7-0.7
					c0.5-0.5,0.7-1.1,0.7-1.7s-0.3-1.3-0.7-1.7c-0.5-0.5-1.1-0.7-1.7-0.7s-1.3,0.3-1.7,0.7c-0.5,0.5-0.7,1.1-0.7,1.7
					s0.3,1.3,0.7,1.7C268,121.2,268.6,121.5,269.3,121.5z"/>
			</g>
			<g>
				<path id="mc0bb6d3a1d_00000086652063068430116000000015859808009073786023_" class="st1" d="M236,159.1c0.6,0,1.3-0.3,1.7-0.7
					c0.5-0.5,0.7-1.1,0.7-1.7s-0.3-1.3-0.7-1.7c-0.5-0.5-1.1-0.7-1.7-0.7s-1.3,0.3-1.7,0.7c-0.5,0.5-0.7,1.1-0.7,1.7
					s0.3,1.3,0.7,1.7C234.8,158.9,235.4,159.1,236,159.1z"/>
			</g>
			<g>
				<path id="mc0bb6d3a1d_00000157274925800038735460000003537153436732402325_" class="st1" d="M295.1,96.3c0.6,0,1.3-0.3,1.7-0.7
					c0.5-0.5,0.7-1.1,0.7-1.7s-0.3-1.3-0.7-1.7c-0.5-0.5-1.1-0.7-1.7-0.7s-1.3,0.3-1.7,0.7c-0.5,0.5-0.7,1.1-0.7,1.7
					s0.3,1.3,0.7,1.7C293.9,96.1,294.5,96.3,295.1,96.3z"/>
			</g>
			<g>
				<path id="mc0bb6d3a1d_00000110464783358190076460000009633441596183596714_" class="st1" d="M230.5,159.2c0.6,0,1.3-0.3,1.7-0.7
					c0.5-0.5,0.7-1.1,0.7-1.7s-0.3-1.3-0.7-1.7c-0.5-0.5-1.1-0.7-1.7-0.7s-1.3,0.3-1.7,0.7c-0.5,0.5-0.7,1.1-0.7,1.7
					s0.3,1.3,0.7,1.7C229.3,158.9,229.9,159.2,230.5,159.2z"/>
			</g>
			<g>
				<path id="mc0bb6d3a1d_00000164474637592790739000000012423366076545928596_" class="st1" d="M281.5,121.4c0.6,0,1.3-0.3,1.7-0.7
					c0.5-0.5,0.7-1.1,0.7-1.7s-0.3-1.3-0.7-1.7c-0.5-0.5-1.1-0.7-1.7-0.7s-1.3,0.3-1.7,0.7c-0.5,0.5-0.7,1.1-0.7,1.7
					s0.3,1.3,0.7,1.7C280.2,121.1,280.8,121.4,281.5,121.4z"/>
			</g>
			<g>
				<path id="mc0bb6d3a1d_00000169550758181978616600000010754924751488595584_" class="st1" d="M192.9,198.2c0.6,0,1.3-0.3,1.7-0.7
					c0.5-0.5,0.7-1.1,0.7-1.7s-0.3-1.3-0.7-1.7c-0.5-0.5-1.1-0.7-1.7-0.7s-1.3,0.3-1.7,0.7c-0.5,0.5-0.7,1.1-0.7,1.7
					s0.3,1.3,0.7,1.7C191.6,197.9,192.3,198.2,192.9,198.2z"/>
			</g>
			<g>
				<path id="mc0bb6d3a1d_00000116215241973828883040000015954071735644950687_" class="st1" d="M196.6,182.4c0.6,0,1.3-0.3,1.7-0.7
					c0.5-0.5,0.7-1.1,0.7-1.7s-0.3-1.3-0.7-1.7c-0.5-0.5-1.1-0.7-1.7-0.7s-1.3,0.3-1.7,0.7c-0.5,0.5-0.7,1.1-0.7,1.7
					s0.3,1.3,0.7,1.7C195.4,182.1,196,182.4,196.6,182.4z"/>
			</g>
			<g>
				<path id="mc0bb6d3a1d_00000120528015429480492290000009457584514529264780_" class="st1" d="M130.5,266.2c0.6,0,1.3-0.3,1.7-0.7
					c0.5-0.5,0.7-1.1,0.7-1.7c0-0.6-0.3-1.3-0.7-1.7c-0.5-0.5-1.1-0.7-1.7-0.7s-1.3,0.3-1.7,0.7c-0.5,0.5-0.7,1.1-0.7,1.7
					c0,0.6,0.3,1.3,0.7,1.7C129.2,266,129.8,266.2,130.5,266.2z"/>
			</g>
			<g>
				<path id="mc0bb6d3a1d_00000052089071171524259950000011007572521607186577_" class="st1" d="M270.6,119.1c0.6,0,1.3-0.3,1.7-0.7
					c0.5-0.5,0.7-1.1,0.7-1.7s-0.3-1.3-0.7-1.7c-0.5-0.5-1.1-0.7-1.7-0.7s-1.3,0.3-1.7,0.7c-0.5,0.5-0.7,1.1-0.7,1.7
					s0.3,1.3,0.7,1.7C269.4,118.8,270,119.1,270.6,119.1z"/>
			</g>
			<g>
				<path id="mc0bb6d3a1d_00000061458248218042162770000005369440136303917484_" class="st1" d="M299.4,112c0.6,0,1.3-0.3,1.7-0.7
					c0.5-0.5,0.7-1.1,0.7-1.7s-0.3-1.3-0.7-1.7c-0.5-0.5-1.1-0.7-1.7-0.7s-1.3,0.3-1.7,0.7c-0.5,0.5-0.7,1.1-0.7,1.7
					s0.3,1.3,0.7,1.7C298.1,111.7,298.7,112,299.4,112z"/>
			</g>
			<g>
				<path id="mc0bb6d3a1d_00000026129286267226727170000005287216900594846129_" class="st1" d="M324.4,68.3c0.6,0,1.3-0.3,1.7-0.7
					c0.5-0.5,0.7-1.1,0.7-1.7s-0.3-1.3-0.7-1.7c-0.5-0.5-1.1-0.7-1.7-0.7s-1.3,0.3-1.7,0.7c-0.5,0.5-0.7,1.1-0.7,1.7
					s0.3,1.3,0.7,1.7C323.1,68,323.8,68.3,324.4,68.3z"/>
			</g>
			<g>
				<path id="mc0bb6d3a1d_00000023272424581016094850000014088658170676155321_" class="st1" d="M325.9,53c0.6,0,1.3-0.3,1.7-0.7
					c0.5-0.5,0.7-1.1,0.7-1.7s-0.3-1.3-0.7-1.7c-0.5-0.5-1.1-0.7-1.7-0.7s-1.3,0.3-1.7,0.7c-0.5,0.5-0.7,1.1-0.7,1.7
					s0.3,1.3,0.7,1.7C324.6,52.8,325.2,53,325.9,53z"/>
			</g>
			<g>
				<path id="mc0bb6d3a1d_00000016049637397309316010000007977679831324240573_" class="st1" d="M297.3,109.2c0.6,0,1.3-0.3,1.7-0.7
					c0.5-0.5,0.7-1.1,0.7-1.7s-0.3-1.3-0.7-1.7c-0.5-0.5-1.1-0.7-1.7-0.7s-1.3,0.3-1.7,0.7c-0.5,0.5-0.7,1.1-0.7,1.7
					s0.3,1.3,0.7,1.7C296,108.9,296.6,109.2,297.3,109.2z"/>
			</g>
			<g>
				<path id="mc0bb6d3a1d_00000127025026654070045010000007063340996890257539_" class="st1" d="M201.1,189.1c0.6,0,1.3-0.3,1.7-0.7
					c0.5-0.5,0.7-1.1,0.7-1.7s-0.3-1.3-0.7-1.7c-0.5-0.5-1.1-0.7-1.7-0.7s-1.3,0.3-1.7,0.7c-0.5,0.5-0.7,1.1-0.7,1.7
					s0.3,1.3,0.7,1.7C199.9,188.8,200.5,189.1,201.1,189.1z"/>
			</g>
			<g>
				<path id="mc0bb6d3a1d_00000026164984712074094230000012999949349244499612_" class="st1" d="M145,247.3c0.6,0,1.3-0.3,1.7-0.7
					c0.5-0.5,0.7-1.1,0.7-1.7s-0.3-1.3-0.7-1.7c-0.5-0.5-1.1-0.7-1.7-0.7s-1.3,0.3-1.7,0.7c-0.5,0.5-0.7,1.1-0.7,1.7
					s0.3,1.3,0.7,1.7C143.7,247.1,144.3,247.3,145,247.3z"/>
			</g>
			<g>
				<path id="mc0bb6d3a1d_00000152944930197823522850000009918422940095874988_" class="st1" d="M206.6,187.1c0.6,0,1.3-0.3,1.7-0.7
					c0.5-0.5,0.7-1.1,0.7-1.7s-0.3-1.3-0.7-1.7c-0.5-0.5-1.1-0.7-1.7-0.7s-1.3,0.3-1.7,0.7c-0.5,0.5-0.7,1.1-0.7,1.7
					s0.3,1.3,0.7,1.7C205.3,186.8,205.9,187.1,206.6,187.1z"/>
			</g>
			<g>
				<path id="mc0bb6d3a1d_00000031185609218196827640000004502629884002071692_" class="st1" d="M264.7,137.1c0.6,0,1.3-0.3,1.7-0.7
					c0.5-0.5,0.7-1.1,0.7-1.7s-0.3-1.3-0.7-1.7c-0.5-0.5-1.1-0.7-1.7-0.7s-1.3,0.3-1.7,0.7c-0.5,0.5-0.7,1.1-0.7,1.7
					s0.3,1.3,0.7,1.7C263.4,136.8,264.1,137.1,264.7,137.1z"/>
			</g>
			<g>
				<path id="mc0bb6d3a1d_00000105385543292610674760000010605674039435743881_" class="st1" d="M153.2,241.4c0.6,0,1.3-0.3,1.7-0.7
					c0.5-0.5,0.7-1.1,0.7-1.7s-0.3-1.3-0.7-1.7c-0.5-0.5-1.1-0.7-1.7-0.7s-1.3,0.3-1.7,0.7c-0.5,0.5-0.7,1.1-0.7,1.7
					s0.3,1.3,0.7,1.7C152,241.1,152.6,241.4,153.2,241.4z"/>
			</g>
			<g>
				<path id="mc0bb6d3a1d_00000065040349464394826100000016109672252411660165_" class="st1" d="M220,162.1c0.6,0,1.3-0.3,1.7-0.7
					c0.5-0.5,0.7-1.1,0.7-1.7s-0.3-1.3-0.7-1.7c-0.5-0.5-1.1-0.7-1.7-0.7s-1.3,0.3-1.7,0.7c-0.5,0.5-0.7,1.1-0.7,1.7
					s0.3,1.3,0.7,1.7C218.8,161.8,219.4,162.1,220,162.1z"/>
			</g>
			<g>
				<path id="mc0bb6d3a1d_00000093869788881655144030000000621005928136889783_" class="st1" d="M333.9,55.6c0.6,0,1.3-0.3,1.7-0.7
					c0.5-0.5,0.7-1.1,0.7-1.7s-0.3-1.3-0.7-1.7c-0.5-0.5-1.1-0.7-1.7-0.7s-1.3,0.3-1.7,0.7c-0.5,0.5-0.7,1.1-0.7,1.7
					s0.3,1.3,0.7,1.7C332.6,55.3,333.2,55.6,333.9,55.6z"/>
			</g>
			<g>
				<path id="mc0bb6d3a1d_00000063635297038532212850000015000738534582440859_" class="st1" d="M176,220.3c0.6,0,1.3-0.3,1.7-0.7
					c0.5-0.5,0.7-1.1,0.7-1.7s-0.3-1.3-0.7-1.7c-0.5-0.5-1.1-0.7-1.7-0.7s-1.3,0.3-1.7,0.7c-0.5,0.5-0.7,1.1-0.7,1.7
					s0.3,1.3,0.7,1.7C174.7,220,175.4,220.3,176,220.3z"/>
			</g>
			<g>
				<path id="mc0bb6d3a1d_00000148650599630119248530000008625169131932614031_" class="st1" d="M164.5,231.1c0.6,0,1.3-0.3,1.7-0.7
					c0.5-0.5,0.7-1.1,0.7-1.7s-0.3-1.3-0.7-1.7c-0.5-0.5-1.1-0.7-1.7-0.7s-1.3,0.3-1.7,0.7c-0.5,0.5-0.7,1.1-0.7,1.7
					s0.3,1.3,0.7,1.7C163.3,230.9,163.9,231.1,164.5,231.1z"/>
			</g>
			<g>
				<path id="mc0bb6d3a1d_00000081617206785890057970000014208607427853017258_" class="st1" d="M278.4,118.9c0.6,0,1.3-0.3,1.7-0.7
					c0.5-0.5,0.7-1.1,0.7-1.7s-0.3-1.3-0.7-1.7c-0.5-0.5-1.1-0.7-1.7-0.7s-1.3,0.3-1.7,0.7c-0.5,0.5-0.7,1.1-0.7,1.7
					s0.3,1.3,0.7,1.7C277.1,118.7,277.7,118.9,278.4,118.9z"/>
			</g>
			<g>
				<path id="mc0bb6d3a1d_00000126317943889218454650000012009459021594260114_" class="st1" d="M258,129.8c0.6,0,1.3-0.3,1.7-0.7
					c0.5-0.5,0.7-1.1,0.7-1.7s-0.3-1.3-0.7-1.7c-0.5-0.5-1.1-0.7-1.7-0.7s-1.3,0.3-1.7,0.7c-0.5,0.5-0.7,1.1-0.7,1.7
					s0.3,1.3,0.7,1.7C256.7,129.6,257.4,129.8,258,129.8z"/>
			</g>
			<g>
				<path id="mc0bb6d3a1d_00000065764507222629536240000011810461480986310581_" class="st1" d="M272.1,126.3c0.6,0,1.3-0.3,1.7-0.7
					c0.5-0.5,0.7-1.1,0.7-1.7s-0.3-1.3-0.7-1.7c-0.5-0.5-1.1-0.7-1.7-0.7s-1.3,0.3-1.7,0.7c-0.5,0.5-0.7,1.1-0.7,1.7
					s0.3,1.3,0.7,1.7C270.8,126.1,271.4,126.3,272.1,126.3z"/>
			</g>
			<g>
				<path id="mc0bb6d3a1d_00000096046118748363327340000011767645799966097565_" class="st1" d="M205.8,191.4c0.6,0,1.3-0.3,1.7-0.7
					c0.5-0.5,0.7-1.1,0.7-1.7s-0.3-1.3-0.7-1.7c-0.5-0.5-1.1-0.7-1.7-0.7s-1.3,0.3-1.7,0.7c-0.5,0.5-0.7,1.1-0.7,1.7
					s0.3,1.3,0.7,1.7C204.5,191.1,205.1,191.4,205.8,191.4z"/>
			</g>
			<g>
				<path id="mc0bb6d3a1d_00000134240793846360576900000000543437700816069794_" class="st1" d="M300.7,118.8c0.6,0,1.3-0.3,1.7-0.7
					c0.5-0.5,0.7-1.1,0.7-1.7s-0.3-1.3-0.7-1.7c-0.5-0.5-1.1-0.7-1.7-0.7s-1.3,0.3-1.7,0.7c-0.5,0.5-0.7,1.1-0.7,1.7
					s0.3,1.3,0.7,1.7C299.4,118.5,300.1,118.8,300.7,118.8z"/>
			</g>
			<g>
				<path id="mc0bb6d3a1d_00000054262173358041171470000016885501101183558318_" class="st1" d="M290.2,111.9c0.6,0,1.3-0.3,1.7-0.7
					c0.5-0.5,0.7-1.1,0.7-1.7s-0.3-1.3-0.7-1.7c-0.5-0.5-1.1-0.7-1.7-0.7s-1.3,0.3-1.7,0.7c-0.5,0.5-0.7,1.1-0.7,1.7
					s0.3,1.3,0.7,1.7C288.9,111.6,289.5,111.9,290.2,111.9z"/>
			</g>
			<g>
				<path id="mc0bb6d3a1d_00000176037071501081121460000006237703035161918599_" class="st1" d="M192.4,217.3c0.6,0,1.3-0.3,1.7-0.7
					c0.5-0.5,0.7-1.1,0.7-1.7s-0.3-1.3-0.7-1.7c-0.5-0.5-1.1-0.7-1.7-0.7s-1.3,0.3-1.7,0.7c-0.5,0.5-0.7,1.1-0.7,1.7
					s0.3,1.3,0.7,1.7C191.1,217,191.7,217.3,192.4,217.3z"/>
			</g>
			<g>
				<path id="mc0bb6d3a1d_00000044140004292381493520000003109048968613724587_" class="st1" d="M332.6,71.2c0.6,0,1.3-0.3,1.7-0.7
					c0.5-0.5,0.7-1.1,0.7-1.7s-0.3-1.3-0.7-1.7c-0.5-0.5-1.1-0.7-1.7-0.7s-1.3,0.3-1.7,0.7c-0.5,0.5-0.7,1.1-0.7,1.7
					s0.3,1.3,0.7,1.7C331.4,71,332,71.2,332.6,71.2z"/>
			</g>
			<g>
				<path id="mc0bb6d3a1d_00000105409603771772836430000012268762052504767361_" class="st1" d="M332.9,67.1c0.6,0,1.3-0.3,1.7-0.7
					c0.5-0.5,0.7-1.1,0.7-1.7s-0.3-1.3-0.7-1.7c-0.5-0.5-1.1-0.7-1.7-0.7s-1.3,0.3-1.7,0.7c-0.5,0.5-0.7,1.1-0.7,1.7
					s0.3,1.3,0.7,1.7C331.6,66.8,332.2,67.1,332.9,67.1z"/>
			</g>
			<g>
				<path id="mc0bb6d3a1d_00000053515426183368496440000011264983469045117342_" class="st1" d="M307.4,81.7c0.6,0,1.3-0.3,1.7-0.7
					c0.5-0.5,0.7-1.1,0.7-1.7s-0.3-1.3-0.7-1.7c-0.5-0.5-1.1-0.7-1.7-0.7s-1.3,0.3-1.7,0.7c-0.5,0.5-0.7,1.1-0.7,1.7
					s0.3,1.3,0.7,1.7C306.1,81.4,306.7,81.7,307.4,81.7z"/>
			</g>
			<g>
				<path id="mc0bb6d3a1d_00000075874489700532835670000018431321746683274119_" class="st1" d="M311.9,96.7c0.6,0,1.3-0.3,1.7-0.7
					c0.5-0.5,0.7-1.1,0.7-1.7s-0.3-1.3-0.7-1.7c-0.5-0.5-1.1-0.7-1.7-0.7s-1.3,0.3-1.7,0.7c-0.5,0.5-0.7,1.1-0.7,1.7
					s0.3,1.3,0.7,1.7C310.6,96.4,311.2,96.7,311.9,96.7z"/>
			</g>
			<g>
				<path id="mc0bb6d3a1d_00000085933010049510397830000000678307883191109551_" class="st1" d="M136.7,258.6c0.6,0,1.3-0.3,1.7-0.7
					c0.5-0.5,0.7-1.1,0.7-1.7c0-0.6-0.3-1.3-0.7-1.7c-0.5-0.5-1.1-0.7-1.7-0.7s-1.3,0.3-1.7,0.7c-0.5,0.5-0.7,1.1-0.7,1.7
					c0,0.6,0.3,1.3,0.7,1.7C135.4,258.3,136.1,258.6,136.7,258.6z"/>
			</g>
			<g>
				<path id="mc0bb6d3a1d_00000090275593463634454900000009813533381691210122_" class="st1" d="M180.6,212.2c0.6,0,1.3-0.3,1.7-0.7
					c0.5-0.5,0.7-1.1,0.7-1.7s-0.3-1.3-0.7-1.7c-0.5-0.5-1.1-0.7-1.7-0.7s-1.3,0.3-1.7,0.7c-0.5,0.5-0.7,1.1-0.7,1.7
					s0.3,1.3,0.7,1.7C179.4,212,180,212.2,180.6,212.2z"/>
			</g>
			<g>
				<path id="mc0bb6d3a1d_00000034812460079335547850000016725983806435355793_" class="st1" d="M176.5,217.7c0.6,0,1.3-0.3,1.7-0.7
					c0.5-0.5,0.7-1.1,0.7-1.7s-0.3-1.3-0.7-1.7c-0.5-0.5-1.1-0.7-1.7-0.7s-1.3,0.3-1.7,0.7c-0.5,0.5-0.7,1.1-0.7,1.7
					s0.3,1.3,0.7,1.7C175.2,217.4,175.8,217.7,176.5,217.7z"/>
			</g>
			<g>
				<path id="mc0bb6d3a1d_00000097471584255175116080000010591962512768550049_" class="st1" d="M127.4,263.8c0.6,0,1.3-0.3,1.7-0.7
					c0.5-0.5,0.7-1.1,0.7-1.7c0-0.6-0.3-1.3-0.7-1.7c-0.5-0.5-1.1-0.7-1.7-0.7s-1.3,0.3-1.7,0.7c-0.5,0.5-0.7,1.1-0.7,1.7
					c0,0.6,0.3,1.3,0.7,1.7C126.1,263.6,126.7,263.8,127.4,263.8z"/>
			</g>
			<g>
				<path id="mc0bb6d3a1d_00000105412412604668049430000010311916599185483955_" class="st1" d="M328.5,63.1c0.6,0,1.3-0.3,1.7-0.7
					c0.5-0.5,0.7-1.1,0.7-1.7s-0.3-1.3-0.7-1.7c-0.5-0.5-1.1-0.7-1.7-0.7s-1.3,0.3-1.7,0.7c-0.5,0.5-0.7,1.1-0.7,1.7
					s0.3,1.3,0.7,1.7C327.2,62.8,327.8,63.1,328.5,63.1z"/>
			</g>
			<g>
				<path id="mc0bb6d3a1d_00000103244262456418797690000000335324259915105453_" class="st1" d="M192.1,201.2c0.6,0,1.3-0.3,1.7-0.7
					c0.5-0.5,0.7-1.1,0.7-1.7s-0.3-1.3-0.7-1.7c-0.5-0.5-1.1-0.7-1.7-0.7s-1.3,0.3-1.7,0.7c-0.5,0.5-0.7,1.1-0.7,1.7
					s0.3,1.3,0.7,1.7C190.9,200.9,191.5,201.2,192.1,201.2z"/>
			</g>
			<g>
				<path id="mc0bb6d3a1d_00000062870530892147181590000004727052913324921218_" class="st1" d="M131,263.9c0.6,0,1.3-0.3,1.7-0.7
					c0.5-0.5,0.7-1.1,0.7-1.7c0-0.6-0.3-1.3-0.7-1.7c-0.5-0.5-1.1-0.7-1.7-0.7s-1.3,0.3-1.7,0.7c-0.5,0.5-0.7,1.1-0.7,1.7
					c0,0.6,0.3,1.3,0.7,1.7C129.8,263.6,130.4,263.9,131,263.9z"/>
			</g>
			<g>
				<path id="mc0bb6d3a1d_00000096057450248913759160000001372211283285866917_" class="st1" d="M184.3,210.4c0.6,0,1.3-0.3,1.7-0.7
					c0.5-0.5,0.7-1.1,0.7-1.7s-0.3-1.3-0.7-1.7c-0.5-0.5-1.1-0.7-1.7-0.7s-1.3,0.3-1.7,0.7c-0.5,0.5-0.7,1.1-0.7,1.7
					s0.3,1.3,0.7,1.7C183,210.1,183.6,210.4,184.3,210.4z"/>
			</g>
			<g>
				<path id="mc0bb6d3a1d_00000075867514658851533230000007264429514296161453_" class="st1" d="M280.5,109.7c0.6,0,1.3-0.3,1.7-0.7
					c0.5-0.5,0.7-1.1,0.7-1.7s-0.3-1.3-0.7-1.7c-0.5-0.5-1.1-0.7-1.7-0.7s-1.3,0.3-1.7,0.7c-0.5,0.5-0.7,1.1-0.7,1.7
					s0.3,1.3,0.7,1.7C279.2,109.5,279.8,109.7,280.5,109.7z"/>
			</g>
			<g>
				<path id="mc0bb6d3a1d_00000143584793026218507150000015770004212104523191_" class="st1" d="M132,261.8c0.6,0,1.3-0.3,1.7-0.7
					c0.5-0.5,0.7-1.1,0.7-1.7c0-0.6-0.3-1.3-0.7-1.7c-0.5-0.5-1.1-0.7-1.7-0.7s-1.3,0.3-1.7,0.7c-0.5,0.5-0.7,1.1-0.7,1.7
					c0,0.6,0.3,1.3,0.7,1.7C130.8,261.5,131.4,261.8,132,261.8z"/>
			</g>
			<g>
				<path id="mc0bb6d3a1d_00000006698677534796727530000003181848142032774790_" class="st1" d="M129.3,258.9c0.6,0,1.3-0.3,1.7-0.7
					c0.5-0.5,0.7-1.1,0.7-1.7c0-0.6-0.3-1.3-0.7-1.7c-0.5-0.5-1.1-0.7-1.7-0.7s-1.3,0.3-1.7,0.7c-0.5,0.5-0.7,1.1-0.7,1.7
					c0,0.6,0.3,1.3,0.7,1.7C128,258.6,128.6,258.9,129.3,258.9z"/>
			</g>
			<g>
				<path id="mc0bb6d3a1d_00000126295536702724890390000010646558187440014241_" class="st1" d="M344.5,43.2c0.6,0,1.3-0.3,1.7-0.7
					c0.5-0.5,0.7-1.1,0.7-1.7s-0.3-1.3-0.7-1.7c-0.5-0.5-1.1-0.7-1.7-0.7s-1.3,0.3-1.7,0.7c-0.5,0.5-0.7,1.1-0.7,1.7
					s0.3,1.3,0.7,1.7C343.3,43,343.9,43.2,344.5,43.2z"/>
			</g>
			<g>
				<path id="mc0bb6d3a1d_00000165953307465250949240000007144632531786833048_" class="st1" d="M271.8,109.3c0.6,0,1.3-0.3,1.7-0.7
					c0.5-0.5,0.7-1.1,0.7-1.7s-0.3-1.3-0.7-1.7c-0.5-0.5-1.1-0.7-1.7-0.7s-1.3,0.3-1.7,0.7c-0.5,0.5-0.7,1.1-0.7,1.7
					s0.3,1.3,0.7,1.7C270.5,109,271.1,109.3,271.8,109.3z"/>
			</g>
			<g>
				<path id="mc0bb6d3a1d_00000157282091579683964980000013860048907946784403_" class="st1" d="M350.5,63.8c0.6,0,1.3-0.3,1.7-0.7
					c0.5-0.5,0.7-1.1,0.7-1.7s-0.3-1.3-0.7-1.7c-0.5-0.5-1.1-0.7-1.7-0.7s-1.3,0.3-1.7,0.7c-0.5,0.5-0.7,1.1-0.7,1.7
					s0.3,1.3,0.7,1.7C349.3,63.5,349.9,63.8,350.5,63.8z"/>
			</g>
			<g>
				<path id="mc0bb6d3a1d_00000176729108057789605770000010293752027393347495_" class="st1" d="M200.5,198c0.6,0,1.3-0.3,1.7-0.7
					c0.5-0.5,0.7-1.1,0.7-1.7s-0.3-1.3-0.7-1.7c-0.5-0.5-1.1-0.7-1.7-0.7s-1.3,0.3-1.7,0.7c-0.5,0.5-0.7,1.1-0.7,1.7
					s0.3,1.3,0.7,1.7C199.2,197.7,199.9,198,200.5,198z"/>
			</g>
			<g>
				<path id="mc0bb6d3a1d_00000127758782432882511790000017652470035755380649_" class="st1" d="M219.8,177c0.6,0,1.3-0.3,1.7-0.7
					c0.5-0.5,0.7-1.1,0.7-1.7s-0.3-1.3-0.7-1.7c-0.5-0.5-1.1-0.7-1.7-0.7s-1.3,0.3-1.7,0.7c-0.5,0.5-0.7,1.1-0.7,1.7
					s0.3,1.3,0.7,1.7C218.6,176.7,219.2,177,219.8,177z"/>
			</g>
			<g>
				<path id="mc0bb6d3a1d_00000044857807115046809520000000795849229961351569_" class="st1" d="M213.3,181c0.6,0,1.3-0.3,1.7-0.7
					c0.5-0.5,0.7-1.1,0.7-1.7s-0.3-1.3-0.7-1.7c-0.5-0.5-1.1-0.7-1.7-0.7s-1.3,0.3-1.7,0.7c-0.5,0.5-0.7,1.1-0.7,1.7
					s0.3,1.3,0.7,1.7C212,180.7,212.7,181,213.3,181z"/>
			</g>
			<g>
				<path id="mc0bb6d3a1d_00000078725737602486218950000004374101539961264012_" class="st1" d="M217.9,177c0.6,0,1.3-0.3,1.7-0.7
					c0.5-0.5,0.7-1.1,0.7-1.7s-0.3-1.3-0.7-1.7c-0.5-0.5-1.1-0.7-1.7-0.7s-1.3,0.3-1.7,0.7c-0.5,0.5-0.7,1.1-0.7,1.7
					s0.3,1.3,0.7,1.7C216.6,176.7,217.2,177,217.9,177z"/>
			</g>
			<g>
				<path id="mc0bb6d3a1d_00000029735109790486448830000010027197680913201082_" class="st1" d="M214.2,183.3c0.6,0,1.3-0.3,1.7-0.7
					c0.5-0.5,0.7-1.1,0.7-1.7s-0.3-1.3-0.7-1.7c-0.5-0.5-1.1-0.7-1.7-0.7s-1.3,0.3-1.7,0.7c-0.5,0.5-0.7,1.1-0.7,1.7
					s0.3,1.3,0.7,1.7C212.9,183.1,213.5,183.3,214.2,183.3z"/>
			</g>
			<g>
				<path id="mc0bb6d3a1d_00000013883305630998086050000014970265925862277278_" class="st1" d="M266.6,126.6c0.6,0,1.3-0.3,1.7-0.7
					c0.5-0.5,0.7-1.1,0.7-1.7s-0.3-1.3-0.7-1.7c-0.5-0.5-1.1-0.7-1.7-0.7s-1.3,0.3-1.7,0.7c-0.5,0.5-0.7,1.1-0.7,1.7
					s0.3,1.3,0.7,1.7C265.3,126.3,266,126.6,266.6,126.6z"/>
			</g>
			<g>
				<path id="mc0bb6d3a1d_00000096743645368298243280000012682051078296281517_" class="st1" d="M244.2,138.7c0.6,0,1.3-0.3,1.7-0.7
					c0.5-0.5,0.7-1.1,0.7-1.7s-0.3-1.3-0.7-1.7c-0.5-0.5-1.1-0.7-1.7-0.7s-1.3,0.3-1.7,0.7c-0.5,0.5-0.7,1.1-0.7,1.7
					s0.3,1.3,0.7,1.7C242.9,138.5,243.5,138.7,244.2,138.7z"/>
			</g>
			<g>
				<path id="mc0bb6d3a1d_00000081607275124626229810000001123250655467407752_" class="st1" d="M118.5,276c0.6,0,1.3-0.3,1.7-0.7
					c0.5-0.5,0.7-1.1,0.7-1.7c0-0.6-0.3-1.3-0.7-1.7c-0.5-0.5-1.1-0.7-1.7-0.7s-1.3,0.3-1.7,0.7c-0.5,0.5-0.7,1.1-0.7,1.7
					c0,0.6,0.3,1.3,0.7,1.7C117.3,275.8,117.9,276,118.5,276z"/>
			</g>
			<g>
				<path id="mc0bb6d3a1d_00000026874378317312089570000011947577140191544199_" class="st1" d="M133.1,265.3c0.6,0,1.3-0.3,1.7-0.7
					c0.5-0.5,0.7-1.1,0.7-1.7c0-0.6-0.3-1.3-0.7-1.7c-0.5-0.5-1.1-0.7-1.7-0.7s-1.3,0.3-1.7,0.7c-0.5,0.5-0.7,1.1-0.7,1.7
					c0,0.6,0.3,1.3,0.7,1.7C131.8,265.1,132.4,265.3,133.1,265.3z"/>
			</g>
			<g>
				<path id="mc0bb6d3a1d_00000011008073444369175340000012708732157841532325_" class="st1" d="M330.5,74.7c0.6,0,1.3-0.3,1.7-0.7
					c0.5-0.5,0.7-1.1,0.7-1.7s-0.3-1.3-0.7-1.7c-0.5-0.5-1.1-0.7-1.7-0.7s-1.3,0.3-1.7,0.7c-0.5,0.5-0.7,1.1-0.7,1.7
					s0.3,1.3,0.7,1.7C329.2,74.4,329.8,74.7,330.5,74.7z"/>
			</g>
			<g>
				<path id="mc0bb6d3a1d_00000011004183451657669330000005155284629669017525_" class="st1" d="M320,71.2c0.6,0,1.3-0.3,1.7-0.7
					c0.5-0.5,0.7-1.1,0.7-1.7s-0.3-1.3-0.7-1.7c-0.5-0.5-1.1-0.7-1.7-0.7s-1.3,0.3-1.7,0.7c-0.5,0.5-0.7,1.1-0.7,1.7
					s0.3,1.3,0.7,1.7C318.7,70.9,319.4,71.2,320,71.2z"/>
			</g>
			<g>
				<path id="mc0bb6d3a1d_00000180342583209297994450000006532305072850263480_" class="st1" d="M155.9,238.8c0.6,0,1.3-0.3,1.7-0.7
					c0.5-0.5,0.7-1.1,0.7-1.7s-0.3-1.3-0.7-1.7c-0.5-0.5-1.1-0.7-1.7-0.7s-1.3,0.3-1.7,0.7c-0.5,0.5-0.7,1.1-0.7,1.7
					s0.3,1.3,0.7,1.7C154.6,238.5,155.2,238.8,155.9,238.8z"/>
			</g>
			<g>
				<path id="mc0bb6d3a1d_00000079473009272457873870000010563864991715259547_" class="st1" d="M185.5,212.2c0.6,0,1.3-0.3,1.7-0.7
					c0.5-0.5,0.7-1.1,0.7-1.7s-0.3-1.3-0.7-1.7c-0.5-0.5-1.1-0.7-1.7-0.7s-1.3,0.3-1.7,0.7c-0.5,0.5-0.7,1.1-0.7,1.7
					s0.3,1.3,0.7,1.7C184.2,211.9,184.9,212.2,185.5,212.2z"/>
			</g>
			<g>
				<path id="mc0bb6d3a1d_00000070078860944654517640000014836450626546434436_" class="st1" d="M217.1,176.3c0.6,0,1.3-0.3,1.7-0.7
					c0.5-0.5,0.7-1.1,0.7-1.7s-0.3-1.3-0.7-1.7c-0.5-0.5-1.1-0.7-1.7-0.7s-1.3,0.3-1.7,0.7c-0.5,0.5-0.7,1.1-0.7,1.7
					s0.3,1.3,0.7,1.7C215.8,176.1,216.5,176.3,217.1,176.3z"/>
			</g>
			<g>
				<path id="mc0bb6d3a1d_00000141437875189058741360000009061321189750625969_" class="st1" d="M211.1,188.2c0.6,0,1.3-0.3,1.7-0.7
					c0.5-0.5,0.7-1.1,0.7-1.7s-0.3-1.3-0.7-1.7c-0.5-0.5-1.1-0.7-1.7-0.7s-1.3,0.3-1.7,0.7c-0.5,0.5-0.7,1.1-0.7,1.7
					s0.3,1.3,0.7,1.7C209.8,188,210.4,188.2,211.1,188.2z"/>
			</g>
			<g>
				<path id="mc0bb6d3a1d_00000023961319696288781460000000789007065713605259_" class="st1" d="M133.1,260.9c0.6,0,1.3-0.3,1.7-0.7
					c0.5-0.5,0.7-1.1,0.7-1.7c0-0.6-0.3-1.3-0.7-1.7c-0.5-0.5-1.1-0.7-1.7-0.7s-1.3,0.3-1.7,0.7c-0.5,0.5-0.7,1.1-0.7,1.7
					c0,0.6,0.3,1.3,0.7,1.7C131.8,260.6,132.5,260.9,133.1,260.9z"/>
			</g>
			<g>
				<path id="mc0bb6d3a1d_00000173844220180613755210000007577119163953054089_" class="st1" d="M248.7,146.4c0.6,0,1.3-0.3,1.7-0.7
					c0.5-0.5,0.7-1.1,0.7-1.7s-0.3-1.3-0.7-1.7c-0.5-0.5-1.1-0.7-1.7-0.7s-1.3,0.3-1.7,0.7c-0.5,0.5-0.7,1.1-0.7,1.7
					s0.3,1.3,0.7,1.7C247.4,146.2,248,146.4,248.7,146.4z"/>
			</g>
			<g>
				<path id="mc0bb6d3a1d_00000101089050090112387940000017164180539846595995_" class="st1" d="M189.9,203.4c0.6,0,1.3-0.3,1.7-0.7
					c0.5-0.5,0.7-1.1,0.7-1.7s-0.3-1.3-0.7-1.7c-0.5-0.5-1.1-0.7-1.7-0.7s-1.3,0.3-1.7,0.7c-0.5,0.5-0.7,1.1-0.7,1.7
					s0.3,1.3,0.7,1.7C188.6,203.1,189.2,203.4,189.9,203.4z"/>
			</g>
			<g>
				<path id="mc0bb6d3a1d_00000124871421601980968230000007045956687054598814_" class="st1" d="M264.3,112.5c0.6,0,1.3-0.3,1.7-0.7
					c0.5-0.5,0.7-1.1,0.7-1.7s-0.3-1.3-0.7-1.7c-0.5-0.5-1.1-0.7-1.7-0.7s-1.3,0.3-1.7,0.7c-0.5,0.5-0.7,1.1-0.7,1.7
					s0.3,1.3,0.7,1.7C263,112.3,263.6,112.5,264.3,112.5z"/>
			</g>
			<g>
				<path id="mc0bb6d3a1d_00000112605898938458334660000002921001811953252799_" class="st1" d="M264.4,134.1c0.6,0,1.3-0.3,1.7-0.7
					c0.5-0.5,0.7-1.1,0.7-1.7s-0.3-1.3-0.7-1.7c-0.5-0.5-1.1-0.7-1.7-0.7s-1.3,0.3-1.7,0.7c-0.5,0.5-0.7,1.1-0.7,1.7
					s0.3,1.3,0.7,1.7C263.1,133.8,263.7,134.1,264.4,134.1z"/>
			</g>
			<g>
				<path id="mc0bb6d3a1d_00000132061407884495485650000013006607551646600124_" class="st1" d="M141.8,248.3c0.6,0,1.3-0.3,1.7-0.7
					c0.5-0.5,0.7-1.1,0.7-1.7s-0.3-1.3-0.7-1.7c-0.5-0.5-1.1-0.7-1.7-0.7s-1.3,0.3-1.7,0.7c-0.5,0.5-0.7,1.1-0.7,1.7
					s0.3,1.3,0.7,1.7C140.5,248,141.1,248.3,141.8,248.3z"/>
			</g>
			<g>
				<path id="mc0bb6d3a1d_00000070815910118479435410000016329651731014045339_" class="st1" d="M333.6,57.7c0.6,0,1.3-0.3,1.7-0.7
					c0.5-0.5,0.7-1.1,0.7-1.7s-0.3-1.3-0.7-1.7c-0.5-0.5-1.1-0.7-1.7-0.7s-1.3,0.3-1.7,0.7c-0.5,0.5-0.7,1.1-0.7,1.7
					s0.3,1.3,0.7,1.7C332.3,57.4,332.9,57.7,333.6,57.7z"/>
			</g>
			<g>
				<path id="mc0bb6d3a1d_00000129180317866150219260000004043252114661790347_" class="st1" d="M142.7,250.7c0.6,0,1.3-0.3,1.7-0.7
					c0.5-0.5,0.7-1.1,0.7-1.7s-0.3-1.3-0.7-1.7c-0.5-0.5-1.1-0.7-1.7-0.7s-1.3,0.3-1.7,0.7c-0.5,0.5-0.7,1.1-0.7,1.7
					s0.3,1.3,0.7,1.7C141.4,250.4,142,250.7,142.7,250.7z"/>
			</g>
			<g>
				<path id="mc0bb6d3a1d_00000045590459086313478240000018352786163252652163_" class="st1" d="M326.7,72.8c0.6,0,1.3-0.3,1.7-0.7
					c0.5-0.5,0.7-1.1,0.7-1.7s-0.3-1.3-0.7-1.7c-0.5-0.5-1.1-0.7-1.7-0.7s-1.3,0.3-1.7,0.7c-0.5,0.5-0.7,1.1-0.7,1.7
					s0.3,1.3,0.7,1.7C325.4,72.5,326,72.8,326.7,72.8z"/>
			</g>
			<g>
				<path id="mc0bb6d3a1d_00000045583226965716351750000011154851900564868238_" class="st1" d="M325.3,72.3c0.6,0,1.3-0.3,1.7-0.7
					c0.5-0.5,0.7-1.1,0.7-1.7s-0.3-1.3-0.7-1.7c-0.5-0.5-1.1-0.7-1.7-0.7s-1.3,0.3-1.7,0.7c-0.5,0.5-0.7,1.1-0.7,1.7
					s0.3,1.3,0.7,1.7C324,72,324.7,72.3,325.3,72.3z"/>
			</g>
			<g>
				<path id="mc0bb6d3a1d_00000085238217296597318630000017053357291931595918_" class="st1" d="M182.1,215c0.6,0,1.3-0.3,1.7-0.7
					c0.5-0.5,0.7-1.1,0.7-1.7s-0.3-1.3-0.7-1.7c-0.5-0.5-1.1-0.7-1.7-0.7s-1.3,0.3-1.7,0.7c-0.5,0.5-0.7,1.1-0.7,1.7
					s0.3,1.3,0.7,1.7C180.9,214.7,181.5,215,182.1,215z"/>
			</g>
			<g>
				<path id="mc0bb6d3a1d_00000078039508061621936800000011674130243059630466_" class="st1" d="M296.1,125c0.6,0,1.3-0.3,1.7-0.7
					c0.5-0.5,0.7-1.1,0.7-1.7s-0.3-1.3-0.7-1.7c-0.5-0.5-1.1-0.7-1.7-0.7s-1.3,0.3-1.7,0.7c-0.5,0.5-0.7,1.1-0.7,1.7
					s0.3,1.3,0.7,1.7C294.8,124.7,295.4,125,296.1,125z"/>
			</g>
			<g>
				<path id="mc0bb6d3a1d_00000052820879292827215740000006676347393863858320_" class="st1" d="M243.5,155.7c0.6,0,1.3-0.3,1.7-0.7
					c0.5-0.5,0.7-1.1,0.7-1.7s-0.3-1.3-0.7-1.7c-0.5-0.5-1.1-0.7-1.7-0.7s-1.3,0.3-1.7,0.7c-0.5,0.5-0.7,1.1-0.7,1.7
					s0.3,1.3,0.7,1.7C242.2,155.4,242.8,155.7,243.5,155.7z"/>
			</g>
			<g>
				<path id="mc0bb6d3a1d_00000004513641393043415240000003555600482253719465_" class="st1" d="M126.1,269.6c0.6,0,1.3-0.3,1.7-0.7
					c0.5-0.5,0.7-1.1,0.7-1.7c0-0.6-0.3-1.3-0.7-1.7c-0.5-0.5-1.1-0.7-1.7-0.7s-1.3,0.3-1.7,0.7c-0.5,0.5-0.7,1.1-0.7,1.7
					c0,0.6,0.3,1.3,0.7,1.7C124.8,269.3,125.5,269.6,126.1,269.6z"/>
			</g>
			<g>
				<path id="mc0bb6d3a1d_00000167376722561575313990000004452454584457156276_" class="st1" d="M231.9,165.7c0.6,0,1.3-0.3,1.7-0.7
					c0.5-0.5,0.7-1.1,0.7-1.7s-0.3-1.3-0.7-1.7c-0.5-0.5-1.1-0.7-1.7-0.7s-1.3,0.3-1.7,0.7c-0.5,0.5-0.7,1.1-0.7,1.7
					s0.3,1.3,0.7,1.7C230.6,165.5,231.3,165.7,231.9,165.7z"/>
			</g>
			<g>
				<path id="mc0bb6d3a1d_00000111875069213435471350000012719662332890587306_" class="st1" d="M113.3,281.1c0.6,0,1.3-0.3,1.7-0.7
					c0.5-0.5,0.7-1.1,0.7-1.7c0-0.6-0.3-1.3-0.7-1.7c-0.5-0.5-1.1-0.7-1.7-0.7s-1.3,0.3-1.7,0.7c-0.5,0.5-0.7,1.1-0.7,1.7
					c0,0.6,0.3,1.3,0.7,1.7C112,280.8,112.7,281.1,113.3,281.1z"/>
			</g>
			<g>
				<path id="mc0bb6d3a1d_00000073713810129916483290000016512754239067414690_" class="st1" d="M303.6,93.6c0.6,0,1.3-0.3,1.7-0.7
					c0.5-0.5,0.7-1.1,0.7-1.7s-0.3-1.3-0.7-1.7c-0.5-0.5-1.1-0.7-1.7-0.7s-1.3,0.3-1.7,0.7c-0.5,0.5-0.7,1.1-0.7,1.7
					s0.3,1.3,0.7,1.7C302.4,93.4,303,93.6,303.6,93.6z"/>
			</g>
			<g>
				<path id="mc0bb6d3a1d_00000163782753305010940350000005785489849521815990_" class="st1" d="M141.6,252.3c0.6,0,1.3-0.3,1.7-0.7
					c0.5-0.5,0.7-1.1,0.7-1.7s-0.3-1.3-0.7-1.7c-0.5-0.5-1.1-0.7-1.7-0.7s-1.3,0.3-1.7,0.7c-0.5,0.5-0.7,1.1-0.7,1.7
					s0.3,1.3,0.7,1.7C140.3,252.1,141,252.3,141.6,252.3z"/>
			</g>
			<g>
				<path id="mc0bb6d3a1d_00000039094393529876594440000000159870342854528670_" class="st1" d="M251.8,132.2c0.6,0,1.3-0.3,1.7-0.7
					c0.5-0.5,0.7-1.1,0.7-1.7s-0.3-1.3-0.7-1.7c-0.5-0.5-1.1-0.7-1.7-0.7s-1.3,0.3-1.7,0.7c-0.5,0.5-0.7,1.1-0.7,1.7
					s0.3,1.3,0.7,1.7C250.5,131.9,251.2,132.2,251.8,132.2z"/>
			</g>
			<g>
				<path id="mc0bb6d3a1d_00000180336342713792850280000016843173644675737987_" class="st1" d="M148.7,243.4c0.6,0,1.3-0.3,1.7-0.7
					c0.5-0.5,0.7-1.1,0.7-1.7s-0.3-1.3-0.7-1.7c-0.5-0.5-1.1-0.7-1.7-0.7s-1.3,0.3-1.7,0.7c-0.5,0.5-0.7,1.1-0.7,1.7
					s0.3,1.3,0.7,1.7C147.4,243.1,148,243.4,148.7,243.4z"/>
			</g>
			<g>
				<path id="mc0bb6d3a1d_00000026847828345243030840000007851844840614750140_" class="st1" d="M133,261.3c0.6,0,1.3-0.3,1.7-0.7
					c0.5-0.5,0.7-1.1,0.7-1.7c0-0.6-0.3-1.3-0.7-1.7c-0.5-0.5-1.1-0.7-1.7-0.7s-1.3,0.3-1.7,0.7c-0.5,0.5-0.7,1.1-0.7,1.7
					c0,0.6,0.3,1.3,0.7,1.7C131.8,261,132.4,261.3,133,261.3z"/>
			</g>
			<g>
				<path id="mc0bb6d3a1d_00000124846327724009618920000011230289016523583161_" class="st1" d="M338.2,51.5c0.6,0,1.3-0.3,1.7-0.7
					c0.5-0.5,0.7-1.1,0.7-1.7s-0.3-1.3-0.7-1.7c-0.5-0.5-1.1-0.7-1.7-0.7s-1.3,0.3-1.7,0.7c-0.5,0.5-0.7,1.1-0.7,1.7
					s0.3,1.3,0.7,1.7C336.9,51.3,337.5,51.5,338.2,51.5z"/>
			</g>
			<g>
				<path id="mc0bb6d3a1d_00000103256187985008623490000017116546970571807391_" class="st1" d="M112.6,282.4c0.6,0,1.3-0.3,1.7-0.7
					c0.5-0.5,0.7-1.1,0.7-1.7c0-0.6-0.3-1.3-0.7-1.7c-0.5-0.5-1.1-0.7-1.7-0.7s-1.3,0.3-1.7,0.7c-0.5,0.5-0.7,1.1-0.7,1.7
					c0,0.6,0.3,1.3,0.7,1.7C111.4,282.2,112,282.4,112.6,282.4z"/>
			</g>
			<g>
				<path id="mc0bb6d3a1d_00000031188752148527247210000013443247910790515350_" class="st1" d="M342.7,74.6c0.6,0,1.3-0.3,1.7-0.7
					c0.5-0.5,0.7-1.1,0.7-1.7s-0.3-1.3-0.7-1.7c-0.5-0.5-1.1-0.7-1.7-0.7s-1.3,0.3-1.7,0.7c-0.5,0.5-0.7,1.1-0.7,1.7
					s0.3,1.3,0.7,1.7C341.4,74.3,342,74.6,342.7,74.6z"/>
			</g>
			<g>
				<path id="mc0bb6d3a1d_00000057828065068377265430000005639894828312453791_" class="st1" d="M291.2,92.3c0.6,0,1.3-0.3,1.7-0.7
					c0.5-0.5,0.7-1.1,0.7-1.7s-0.3-1.3-0.7-1.7c-0.5-0.5-1.1-0.7-1.7-0.7s-1.3,0.3-1.7,0.7c-0.5,0.5-0.7,1.1-0.7,1.7
					s0.3,1.3,0.7,1.7C289.9,92,290.5,92.3,291.2,92.3z"/>
			</g>
			<g>
				<path id="mc0bb6d3a1d_00000013911775662968215560000014045430914863016124_" class="st1" d="M151,244.9c0.6,0,1.3-0.3,1.7-0.7
					c0.5-0.5,0.7-1.1,0.7-1.7s-0.3-1.3-0.7-1.7c-0.5-0.5-1.1-0.7-1.7-0.7s-1.3,0.3-1.7,0.7c-0.5,0.5-0.7,1.1-0.7,1.7
					s0.3,1.3,0.7,1.7C149.7,244.7,150.3,244.9,151,244.9z"/>
			</g>
			<g>
				<path id="mc0bb6d3a1d_00000032631553385204878270000007115132301218802588_" class="st1" d="M331,57.4c0.6,0,1.3-0.3,1.7-0.7
					c0.5-0.5,0.7-1.1,0.7-1.7s-0.3-1.3-0.7-1.7c-0.5-0.5-1.1-0.7-1.7-0.7s-1.3,0.3-1.7,0.7c-0.5,0.5-0.7,1.1-0.7,1.7
					s0.3,1.3,0.7,1.7C329.8,57.1,330.4,57.4,331,57.4z"/>
			</g>
			<g>
				<path id="mc0bb6d3a1d_00000165210340345410885030000005154610103603868070_" class="st1" d="M167.7,230.3c0.6,0,1.3-0.3,1.7-0.7
					c0.5-0.5,0.7-1.1,0.7-1.7s-0.3-1.3-0.7-1.7c-0.5-0.5-1.1-0.7-1.7-0.7s-1.3,0.3-1.7,0.7c-0.5,0.5-0.7,1.1-0.7,1.7
					s0.3,1.3,0.7,1.7C166.5,230.1,167.1,230.3,167.7,230.3z"/>
			</g>
			<g>
				<path id="mc0bb6d3a1d_00000127764309349860363700000014072255764219614381_" class="st1" d="M122.9,270.3c0.6,0,1.3-0.3,1.7-0.7
					c0.5-0.5,0.7-1.1,0.7-1.7c0-0.6-0.3-1.3-0.7-1.7c-0.5-0.5-1.1-0.7-1.7-0.7s-1.3,0.3-1.7,0.7c-0.5,0.5-0.7,1.1-0.7,1.7
					c0,0.6,0.3,1.3,0.7,1.7C121.6,270,122.2,270.3,122.9,270.3z"/>
			</g>
			<g>
				<path id="mc0bb6d3a1d_00000057827593700390176220000005312886992521537183_" class="st1" d="M180.7,212.7c0.6,0,1.3-0.3,1.7-0.7
					c0.5-0.5,0.7-1.1,0.7-1.7s-0.3-1.3-0.7-1.7c-0.5-0.5-1.1-0.7-1.7-0.7s-1.3,0.3-1.7,0.7c-0.5,0.5-0.7,1.1-0.7,1.7
					s0.3,1.3,0.7,1.7C179.5,212.5,180.1,212.7,180.7,212.7z"/>
			</g>
			<g>
				<path id="mc0bb6d3a1d_00000093158706994287543850000011456119743191158716_" class="st1" d="M288.6,106c0.6,0,1.3-0.3,1.7-0.7
					c0.5-0.5,0.7-1.1,0.7-1.7s-0.3-1.3-0.7-1.7c-0.5-0.5-1.1-0.7-1.7-0.7s-1.3,0.3-1.7,0.7c-0.5,0.5-0.7,1.1-0.7,1.7
					s0.3,1.3,0.7,1.7C287.3,105.7,288,106,288.6,106z"/>
			</g>
			<g>
				<path id="mc0bb6d3a1d_00000174577318319596345700000006652417918252669110_" class="st1" d="M185.9,208c0.6,0,1.3-0.3,1.7-0.7
					c0.5-0.5,0.7-1.1,0.7-1.7s-0.3-1.3-0.7-1.7c-0.5-0.5-1.1-0.7-1.7-0.7s-1.3,0.3-1.7,0.7c-0.5,0.5-0.7,1.1-0.7,1.7
					s0.3,1.3,0.7,1.7C184.6,207.7,185.3,208,185.9,208z"/>
			</g>
		</g>
	</g>
</g>
<g id="matplotlib.axis_1">
	<g id="xtick_1">
		<g id="line2d_1">
			<g>
				<g>
					<path id="m2533c3a13f" class="st2" d="M109.5,294.6v3.5"/>
				</g>
			</g>
		</g>
		<g id="text_1">
			<text transform="matrix(1 0 0 1 99.1356 312.2778)" class="st3 st4">0.0</text>
		</g>
	</g>
	<g id="xtick_2">
		<g id="line2d_2">
			<g>
				<g>
					<path id="m2533c3a13f_00000137094071567225977360000002995823183173556926_" class="st2" d="M157.9,294.6v3.5"/>
				</g>
			</g>
		</g>
		<g id="text_2">
			<text transform="matrix(1 0 0 1 147.4919 312.2778)" class="st3 st4">0.1</text>
		</g>
	</g>
	<g id="xtick_3">
		<g id="line2d_3">
			<g>
				<g>
					<path id="m2533c3a13f_00000102519979713202305410000013953388371589877152_" class="st2" d="M206.2,294.6v3.5"/>
				</g>
			</g>
		</g>
		<g id="text_3">
			<text transform="matrix(1 0 0 1 195.8483 312.2778)" class="st3 st4">0.2</text>
		</g>
	</g>
	<g id="xtick_4">
		<g id="line2d_4">
			<g>
				<g>
					<path id="m2533c3a13f_00000011749071319005690180000000604791039177384576_" class="st2" d="M254.6,294.6v3.5"/>
				</g>
			</g>
		</g>
		<g id="text_4">
			<text transform="matrix(1 0 0 1 244.2047 312.2778)" class="st3 st4">0.3</text>
		</g>
	</g>
	<g id="xtick_5">
		<g id="line2d_5">
			<g>
				<g>
					<path id="m2533c3a13f_00000111879464550043576180000014108930447445662649_" class="st2" d="M302.9,294.6v3.5"/>
				</g>
			</g>
		</g>
		<g id="text_5">
			<text transform="matrix(1 0 0 1 292.561 312.2778)" class="st3 st4">0.4</text>
		</g>
	</g>
	<g id="xtick_6">
		<g id="line2d_6">
			<g>
				<g>
					<path id="m2533c3a13f_00000175281986052005153980000001805347139714326919_" class="st2" d="M351.3,294.6v3.5"/>
				</g>
			</g>
		</g>
		<g id="text_6">
			<text transform="matrix(1 0 0 1 340.9174 312.2778)" class="st3 st4">0.5</text>
		</g>
	</g>
	<g id="text_7">
		<text transform="matrix(1 0 0 1 193.8883 331.3469)" class="st3 st5">True FDR</text>
	</g>
</g>
<g id="matplotlib.axis_2">
	<g id="ytick_1">
		<g id="line2d_7">
			<g>
				<g>
					<path id="mb7268a922d" class="st2" d="M97.4,282.6h-3.5"/>
				</g>
			</g>
		</g>
		<g id="text_8">
			<text transform="matrix(1 0 0 1 69.6729 287.8698)" class="st3 st4">0.0</text>
		</g>
	</g>
	<g id="ytick_2">
		<g id="line2d_8">
			<g>
				<g>
					<path id="mb7268a922d_00000071540669647004487830000005103160025550264507_" class="st2" d="M97.4,234.2h-3.5"/>
				</g>
			</g>
		</g>
		<g id="text_9">
			<text transform="matrix(1 0 0 1 69.6729 239.5135)" class="st3 st4">0.1</text>
		</g>
	</g>
	<g id="ytick_3">
		<g id="line2d_9">
			<g>
				<g>
					<path id="mb7268a922d_00000092422326190100295500000002166239970611478706_" class="st2" d="M97.4,185.8h-3.5"/>
				</g>
			</g>
		</g>
		<g id="text_10">
			<text transform="matrix(1 0 0 1 69.6729 191.1571)" class="st3 st4">0.2</text>
		</g>
	</g>
	<g id="ytick_4">
		<g id="line2d_10">
			<g>
				<g>
					<path id="mb7268a922d_00000098222496428705879150000016248377279246179225_" class="st2" d="M97.4,137.5h-3.5"/>
				</g>
			</g>
		</g>
		<g id="text_11">
			<text transform="matrix(1 0 0 1 69.6729 142.8007)" class="st3 st4">0.3</text>
		</g>
	</g>
	<g id="ytick_5">
		<g id="line2d_11">
			<g>
				<g>
					<path id="mb7268a922d_00000026160999354470246650000004902479698184814474_" class="st2" d="M97.4,89.1h-3.5"/>
				</g>
			</g>
		</g>
		<g id="text_12">
			<text transform="matrix(1 0 0 1 69.6729 94.4444)" class="st3 st4">0.4</text>
		</g>
	</g>
	<g id="ytick_6">
		<g id="line2d_12">
			<g>
				<g>
					<path id="mb7268a922d_00000057116014941712161250000008569693855743367341_" class="st2" d="M97.4,40.8h-3.5"/>
				</g>
			</g>
		</g>
		<g id="text_13">
			<text transform="matrix(1 0 0 1 69.6729 46.088)" class="st3 st4">0.5</text>
		</g>
	</g>
	<g id="text_14">
		<text transform="matrix(6.123234e-17 -1 1 6.123234e-17 60.8281 216.5586)" class="st3 st5">Predicted FDR</text>
	</g>
</g>
<g id="line2d_13">
	<g>
		<defs>
			<rect id="SVGID_00000093893982781463090490000001360942682521192868_" x="97.4" y="28.7" width="266" height="266"/>
		</defs>
		<clipPath id="SVGID_00000025409528789632034800000007639135452664012202_">
			<use xlink:href="#SVGID_00000093893982781463090490000001360942682521192868_"  style="overflow:visible;"/>
		</clipPath>
		
			<path style="clip-path:url(#SVGID_00000025409528789632034800000007639135452664012202_);fill:none;stroke:#000000;stroke-width:2;stroke-linejoin:round;stroke-dasharray:7.4,3.2;" d="
			M109.5,282.6L351.3,40.8"/>
	</g>
</g>
<g id="line2d_14">
	<g>
		<defs>
			<rect id="SVGID_00000093173135625971674540000013213704730986159241_" x="97.4" y="28.7" width="266" height="266"/>
		</defs>
		<clipPath id="SVGID_00000060746964069788099530000006284518631187854758_">
			<use xlink:href="#SVGID_00000093173135625971674540000013213704730986159241_"  style="overflow:visible;"/>
		</clipPath>
		
			<path style="clip-path:url(#SVGID_00000060746964069788099530000006284518631187854758_);fill:none;stroke:#000000;stroke-width:2;stroke-linecap:square;stroke-linejoin:round;" d="
			M109.5,281L351.3,43.2"/>
	</g>
</g>
<g id="patch_3">
	<path class="st8" d="M97.4,294.6v-266"/>
</g>
<g id="patch_4">
	<path class="st8" d="M363.4,294.6v-266"/>
</g>
<g id="patch_5">
	<path class="st8" d="M97.4,294.6h266"/>
</g>
<g id="patch_6">
	<path class="st8" d="M97.4,28.7h266"/>
</g>
<g id="text_15">
	<g transform="translate(254.578182 234.194545)">
		<text transform="matrix(1 0 0 1 0 -0.5625)" class="st9 st5">R</text>
		<text transform="matrix(1 0 0 1 11.5547 -0.5625)" class="st9 st10"> </text>
		<text transform="matrix(1 0 0 1 12.2408 -6.6875)" class="st9 st11">2</text>
		<text transform="matrix(1 0 0 1 18.4697 -6.6875)" class="st9 st10"> </text>
		<text transform="matrix(1 0 0 1 19.8041 -0.5625)" class="st9 st5"> </text>
		<text transform="matrix(1 0 0 1 24.8901 -0.5625)" class="st9 st5">=</text>
		<text transform="matrix(1 0 0 1 38.2963 -0.5625)" class="st9 st5"> </text>
		<text transform="matrix(1 0 0 1 43.3823 -0.5625)" class="st9 st5">0</text>
		<text transform="matrix(1 0 0 1 53.562 -0.5625)" class="st9 st5">.</text>
		<text transform="matrix(1 0 0 1 58.6479 -0.5625)" class="st9 st5">9</text>
		<text transform="matrix(1 0 0 1 68.8276 -0.5625)" class="st9 st5">8</text>
	</g>
</g>
</svg>
