<?xml version="1.0" encoding="utf-8"?>
<!-- Generator: Adobe Illustrator 28.0.0, SVG Export Plug-In . SVG Version: 6.00 Build 0)  -->
<svg version="1.1" id="Layer_1" xmlns="http://www.w3.org/2000/svg" xmlns:xlink="http://www.w3.org/1999/xlink" x="0px" y="0px"
	 viewBox="0 0 460.8 345.6" style="enable-background:new 0 0 460.8 345.6;" xml:space="preserve">
<style type="text/css">
	.st0{clip-path:url(#SVGID_00000160890230206883511640000010634234269939096979_);}
	.st1{fill:#0000FF;stroke:#0000FF;stroke-linejoin:round;}
	.st2{stroke:#000000;stroke-width:0.8;stroke-linejoin:round;}
	.st3{font-family:'LucidaBright';}
	.st4{font-size:14px;}
	.st5{font-size:16px;}
	
		.st6{clip-path:url(#SVGID_00000134952443367121788770000010051526246276270217_);fill:none;stroke:#000000;stroke-width:2;stroke-linejoin:round;stroke-dasharray:7.4,3.2;}
	
		.st7{clip-path:url(#SVGID_00000067951340377512434400000010354858376584696208_);fill:none;stroke:#000000;stroke-width:2;stroke-linecap:square;stroke-linejoin:round;}
	.st8{fill:none;stroke:#000000;stroke-width:0.8;stroke-linecap:square;}
	.st9{font-family:'ArialMT';}
	.st10{font-size:12px;}
	.st11{font-size:11.2px;}
</style>
<g id="PathCollection_1">
	<g>
		<defs>
			<rect id="SVGID_1_" x="97.4" y="28.7" width="266" height="266"/>
		</defs>
		<clipPath id="SVGID_00000107564822342069121410000008981476496325969310_">
			<use xlink:href="#SVGID_1_"  style="overflow:visible;"/>
		</clipPath>
		<g style="clip-path:url(#SVGID_00000107564822342069121410000008981476496325969310_);">
			<g>
				<path id="m1889899e65" class="st1" d="M179.2,217.7c0.6,0,1.3-0.3,1.7-0.7c0.5-0.5,0.7-1.1,0.7-1.7s-0.3-1.3-0.7-1.7
					c-0.5-0.5-1.1-0.7-1.7-0.7s-1.3,0.3-1.7,0.7c-0.5,0.5-0.7,1.1-0.7,1.7s0.3,1.3,0.7,1.7C177.9,217.5,178.6,217.7,179.2,217.7z"/>
			</g>
			<g>
				<path id="m1889899e65_00000063602827619540148810000006420931696332863663_" class="st1" d="M301.5,104.6c0.6,0,1.3-0.3,1.7-0.7
					c0.5-0.5,0.7-1.1,0.7-1.7s-0.3-1.3-0.7-1.7c-0.5-0.5-1.1-0.7-1.7-0.7s-1.3,0.3-1.7,0.7c-0.5,0.5-0.7,1.1-0.7,1.7
					s0.3,1.3,0.7,1.7C300.3,104.4,300.9,104.6,301.5,104.6z"/>
			</g>
			<g>
				<path id="m1889899e65_00000069357329026355144390000010268038358795801218_" class="st1" d="M274.2,131.4c0.6,0,1.3-0.3,1.7-0.7
					c0.5-0.5,0.7-1.1,0.7-1.7s-0.3-1.3-0.7-1.7c-0.5-0.5-1.1-0.7-1.7-0.7s-1.3,0.3-1.7,0.7c-0.5,0.5-0.7,1.1-0.7,1.7
					s0.3,1.3,0.7,1.7C272.9,131.1,273.6,131.4,274.2,131.4z"/>
			</g>
			<g>
				<path id="m1889899e65_00000183223621991099531520000001254684399837195401_" class="st1" d="M113,281.3c0.6,0,1.3-0.3,1.7-0.7
					c0.5-0.5,0.7-1.1,0.7-1.7c0-0.6-0.3-1.3-0.7-1.7c-0.5-0.5-1.1-0.7-1.7-0.7s-1.3,0.3-1.7,0.7c-0.5,0.5-0.7,1.1-0.7,1.7
					c0,0.6,0.3,1.3,0.7,1.7C111.7,281.1,112.3,281.3,113,281.3z"/>
			</g>
			<g>
				<path id="m1889899e65_00000137815822641027379310000017909999978974208642_" class="st1" d="M195.3,196.3c0.6,0,1.3-0.3,1.7-0.7
					c0.5-0.5,0.7-1.1,0.7-1.7s-0.3-1.3-0.7-1.7c-0.5-0.5-1.1-0.7-1.7-0.7s-1.3,0.3-1.7,0.7c-0.5,0.5-0.7,1.1-0.7,1.7
					s0.3,1.3,0.7,1.7C194.1,196,194.7,196.3,195.3,196.3z"/>
			</g>
			<g>
				<path id="m1889899e65_00000156577469564605184400000018369226987791660169_" class="st1" d="M244.6,153.7c0.6,0,1.3-0.3,1.7-0.7
					c0.5-0.5,0.7-1.1,0.7-1.7s-0.3-1.3-0.7-1.7c-0.5-0.5-1.1-0.7-1.7-0.7s-1.3,0.3-1.7,0.7c-0.5,0.5-0.7,1.1-0.7,1.7
					s0.3,1.3,0.7,1.7C243.3,153.4,244,153.7,244.6,153.7z"/>
			</g>
			<g>
				<path id="m1889899e65_00000109029168654189575830000001171414250655573895_" class="st1" d="M240.9,142.9c0.6,0,1.3-0.3,1.7-0.7
					c0.5-0.5,0.7-1.1,0.7-1.7s-0.3-1.3-0.7-1.7c-0.5-0.5-1.1-0.7-1.7-0.7s-1.3,0.3-1.7,0.7c-0.5,0.5-0.7,1.1-0.7,1.7
					s0.3,1.3,0.7,1.7C239.6,142.6,240.3,142.9,240.9,142.9z"/>
			</g>
			<g>
				<path id="m1889899e65_00000021081755318502776130000010510791482445683873_" class="st1" d="M340.9,84.6c0.6,0,1.3-0.3,1.7-0.7
					c0.5-0.5,0.7-1.1,0.7-1.7s-0.3-1.3-0.7-1.7c-0.5-0.5-1.1-0.7-1.7-0.7s-1.3,0.3-1.7,0.7c-0.5,0.5-0.7,1.1-0.7,1.7
					s0.3,1.3,0.7,1.7C339.6,84.3,340.2,84.6,340.9,84.6z"/>
			</g>
			<g>
				<path id="m1889899e65_00000119094746114493575130000017754977459199421344_" class="st1" d="M124.6,271.8c0.6,0,1.3-0.3,1.7-0.7
					c0.5-0.5,0.7-1.1,0.7-1.7c0-0.6-0.3-1.3-0.7-1.7c-0.5-0.5-1.1-0.7-1.7-0.7s-1.3,0.3-1.7,0.7c-0.5,0.5-0.7,1.1-0.7,1.7
					c0,0.6,0.3,1.3,0.7,1.7C123.3,271.5,123.9,271.8,124.6,271.8z"/>
			</g>
			<g>
				<path id="m1889899e65_00000019676241877493973580000014952140085201881763_" class="st1" d="M285.6,120.2c0.6,0,1.3-0.3,1.7-0.7
					c0.5-0.5,0.7-1.1,0.7-1.7s-0.3-1.3-0.7-1.7c-0.5-0.5-1.1-0.7-1.7-0.7s-1.3,0.3-1.7,0.7c-0.5,0.5-0.7,1.1-0.7,1.7
					s0.3,1.3,0.7,1.7C284.3,119.9,284.9,120.2,285.6,120.2z"/>
			</g>
			<g>
				<path id="m1889899e65_00000086673353978688643760000004334884688778587551_" class="st1" d="M252.6,150.2c0.6,0,1.3-0.3,1.7-0.7
					c0.5-0.5,0.7-1.1,0.7-1.7s-0.3-1.3-0.7-1.7c-0.5-0.5-1.1-0.7-1.7-0.7s-1.3,0.3-1.7,0.7c-0.5,0.5-0.7,1.1-0.7,1.7
					s0.3,1.3,0.7,1.7C251.4,150,252,150.2,252.6,150.2z"/>
			</g>
			<g>
				<path id="m1889899e65_00000026132421567314873840000004856859966554845611_" class="st1" d="M139.8,256.7c0.6,0,1.3-0.3,1.7-0.7
					c0.5-0.5,0.7-1.1,0.7-1.7s-0.3-1.3-0.7-1.7c-0.5-0.5-1.1-0.7-1.7-0.7s-1.3,0.3-1.7,0.7c-0.5,0.5-0.7,1.1-0.7,1.7
					s0.3,1.3,0.7,1.7C138.5,256.4,139.1,256.7,139.8,256.7z"/>
			</g>
			<g>
				<path id="m1889899e65_00000145058874986794657850000006284217865337701052_" class="st1" d="M138.1,256.1c0.6,0,1.3-0.3,1.7-0.7
					c0.5-0.5,0.7-1.1,0.7-1.7s-0.3-1.3-0.7-1.7c-0.5-0.5-1.1-0.7-1.7-0.7s-1.3,0.3-1.7,0.7c-0.5,0.5-0.7,1.1-0.7,1.7
					s0.3,1.3,0.7,1.7C136.8,255.8,137.4,256.1,138.1,256.1z"/>
			</g>
			<g>
				<path id="m1889899e65_00000029726307200159841720000016085057366868138884_" class="st1" d="M222.2,170.9c0.6,0,1.3-0.3,1.7-0.7
					c0.5-0.5,0.7-1.1,0.7-1.7s-0.3-1.3-0.7-1.7c-0.5-0.5-1.1-0.7-1.7-0.7s-1.3,0.3-1.7,0.7c-0.5,0.5-0.7,1.1-0.7,1.7
					s0.3,1.3,0.7,1.7C221,170.7,221.6,170.9,222.2,170.9z"/>
			</g>
			<g>
				<path id="m1889899e65_00000166641966109414372290000005470417985336949889_" class="st1" d="M307.2,104.5c0.6,0,1.3-0.3,1.7-0.7
					c0.5-0.5,0.7-1.1,0.7-1.7s-0.3-1.3-0.7-1.7c-0.5-0.5-1.1-0.7-1.7-0.7s-1.3,0.3-1.7,0.7c-0.5,0.5-0.7,1.1-0.7,1.7
					s0.3,1.3,0.7,1.7C305.9,104.2,306.5,104.5,307.2,104.5z"/>
			</g>
			<g>
				<path id="m1889899e65_00000145761177619824760340000003705071623208638110_" class="st1" d="M262.8,136.4c0.6,0,1.3-0.3,1.7-0.7
					c0.5-0.5,0.7-1.1,0.7-1.7s-0.3-1.3-0.7-1.7c-0.5-0.5-1.1-0.7-1.7-0.7s-1.3,0.3-1.7,0.7c-0.5,0.5-0.7,1.1-0.7,1.7
					s0.3,1.3,0.7,1.7C261.5,136.1,262.2,136.4,262.8,136.4z"/>
			</g>
			<g>
				<path id="m1889899e65_00000010298606627218660040000000260153718572818091_" class="st1" d="M262.9,137.3c0.6,0,1.3-0.3,1.7-0.7
					c0.5-0.5,0.7-1.1,0.7-1.7s-0.3-1.3-0.7-1.7c-0.5-0.5-1.1-0.7-1.7-0.7s-1.3,0.3-1.7,0.7c-0.5,0.5-0.7,1.1-0.7,1.7
					s0.3,1.3,0.7,1.7C261.7,137,262.3,137.3,262.9,137.3z"/>
			</g>
			<g>
				<path id="m1889899e65_00000126292669559201888080000000555726328352449153_" class="st1" d="M252.3,146.3c0.6,0,1.3-0.3,1.7-0.7
					c0.5-0.5,0.7-1.1,0.7-1.7s-0.3-1.3-0.7-1.7c-0.5-0.5-1.1-0.7-1.7-0.7s-1.3,0.3-1.7,0.7c-0.5,0.5-0.7,1.1-0.7,1.7
					s0.3,1.3,0.7,1.7C251,146,251.6,146.3,252.3,146.3z"/>
			</g>
			<g>
				<path id="m1889899e65_00000119832897117984448270000001303244627016091528_" class="st1" d="M289.7,112.7c0.6,0,1.3-0.3,1.7-0.7
					c0.5-0.5,0.7-1.1,0.7-1.7s-0.3-1.3-0.7-1.7c-0.5-0.5-1.1-0.7-1.7-0.7s-1.3,0.3-1.7,0.7c-0.5,0.5-0.7,1.1-0.7,1.7
					s0.3,1.3,0.7,1.7C288.5,112.5,289.1,112.7,289.7,112.7z"/>
			</g>
			<g>
				<path id="m1889899e65_00000087393636729251319700000015369389543786998926_" class="st1" d="M293.4,110.9c0.6,0,1.3-0.3,1.7-0.7
					c0.5-0.5,0.7-1.1,0.7-1.7s-0.3-1.3-0.7-1.7c-0.5-0.5-1.1-0.7-1.7-0.7s-1.3,0.3-1.7,0.7c-0.5,0.5-0.7,1.1-0.7,1.7
					s0.3,1.3,0.7,1.7C292.1,110.6,292.7,110.9,293.4,110.9z"/>
			</g>
			<g>
				<path id="m1889899e65_00000085221682926976470220000014021422705588943798_" class="st1" d="M130.2,263.8c0.6,0,1.3-0.3,1.7-0.7
					c0.5-0.5,0.7-1.1,0.7-1.7c0-0.6-0.3-1.3-0.7-1.7c-0.5-0.5-1.1-0.7-1.7-0.7s-1.3,0.3-1.7,0.7c-0.5,0.5-0.7,1.1-0.7,1.7
					c0,0.6,0.3,1.3,0.7,1.7C128.9,263.5,129.6,263.8,130.2,263.8z"/>
			</g>
			<g>
				<path id="m1889899e65_00000150813775983564331610000018126514356133405630_" class="st1" d="M329.5,74.1c0.6,0,1.3-0.3,1.7-0.7
					c0.5-0.5,0.7-1.1,0.7-1.7s-0.3-1.3-0.7-1.7c-0.5-0.5-1.1-0.7-1.7-0.7s-1.3,0.3-1.7,0.7c-0.5,0.5-0.7,1.1-0.7,1.7
					s0.3,1.3,0.7,1.7C328.2,73.8,328.9,74.1,329.5,74.1z"/>
			</g>
			<g>
				<path id="m1889899e65_00000092446660385700966420000002736435550441064614_" class="st1" d="M150.5,240.6c0.6,0,1.3-0.3,1.7-0.7
					c0.5-0.5,0.7-1.1,0.7-1.7s-0.3-1.3-0.7-1.7c-0.5-0.5-1.1-0.7-1.7-0.7s-1.3,0.3-1.7,0.7c-0.5,0.5-0.7,1.1-0.7,1.7
					s0.3,1.3,0.7,1.7C149.2,240.4,149.9,240.6,150.5,240.6z"/>
			</g>
			<g>
				<path id="m1889899e65_00000058566366214337243380000000200850375604624016_" class="st1" d="M197.5,199c0.6,0,1.3-0.3,1.7-0.7
					c0.5-0.5,0.7-1.1,0.7-1.7s-0.3-1.3-0.7-1.7c-0.5-0.5-1.1-0.7-1.7-0.7s-1.3,0.3-1.7,0.7c-0.5,0.5-0.7,1.1-0.7,1.7
					s0.3,1.3,0.7,1.7C196.3,198.7,196.9,199,197.5,199z"/>
			</g>
			<g>
				<path id="m1889899e65_00000106112101835207190750000012323973205804073911_" class="st1" d="M308.5,94.8c0.6,0,1.3-0.3,1.7-0.7
					c0.5-0.5,0.7-1.1,0.7-1.7s-0.3-1.3-0.7-1.7c-0.5-0.5-1.1-0.7-1.7-0.7s-1.3,0.3-1.7,0.7c-0.5,0.5-0.7,1.1-0.7,1.7
					s0.3,1.3,0.7,1.7C307.2,94.6,307.9,94.8,308.5,94.8z"/>
			</g>
			<g>
				<path id="m1889899e65_00000159448779904323265030000013979021770609227693_" class="st1" d="M301.4,98.3c0.6,0,1.3-0.3,1.7-0.7
					c0.5-0.5,0.7-1.1,0.7-1.7s-0.3-1.3-0.7-1.7c-0.5-0.5-1.1-0.7-1.7-0.7s-1.3,0.3-1.7,0.7c-0.5,0.5-0.7,1.1-0.7,1.7
					s0.3,1.3,0.7,1.7C300.1,98,300.7,98.3,301.4,98.3z"/>
			</g>
			<g>
				<path id="m1889899e65_00000044159715542314656440000011989679679734529683_" class="st1" d="M344.4,43.2c0.6,0,1.3-0.3,1.7-0.7
					c0.5-0.5,0.7-1.1,0.7-1.7s-0.3-1.3-0.7-1.7c-0.5-0.5-1.1-0.7-1.7-0.7s-1.3,0.3-1.7,0.7c-0.5,0.5-0.7,1.1-0.7,1.7
					s0.3,1.3,0.7,1.7C343.1,43,343.7,43.2,344.4,43.2z"/>
			</g>
			<g>
				<path id="m1889899e65_00000147942726524180820220000015873095535191347087_" class="st1" d="M311.5,91.1c0.6,0,1.3-0.3,1.7-0.7
					c0.5-0.5,0.7-1.1,0.7-1.7s-0.3-1.3-0.7-1.7c-0.5-0.5-1.1-0.7-1.7-0.7s-1.3,0.3-1.7,0.7c-0.5,0.5-0.7,1.1-0.7,1.7
					s0.3,1.3,0.7,1.7C310.3,90.8,310.9,91.1,311.5,91.1z"/>
			</g>
			<g>
				<path id="m1889899e65_00000179608736175015484190000009904011124970430094_" class="st1" d="M350.4,43.2c0.6,0,1.3-0.3,1.7-0.7
					c0.5-0.5,0.7-1.1,0.7-1.7s-0.3-1.3-0.7-1.7c-0.5-0.5-1.1-0.7-1.7-0.7s-1.3,0.3-1.7,0.7c-0.5,0.5-0.7,1.1-0.7,1.7
					s0.3,1.3,0.7,1.7C349.1,43,349.8,43.2,350.4,43.2z"/>
			</g>
			<g>
				<path id="m1889899e65_00000123420045311334562110000002206702169907762103_" class="st1" d="M332.4,72.7c0.6,0,1.3-0.3,1.7-0.7
					c0.5-0.5,0.7-1.1,0.7-1.7s-0.3-1.3-0.7-1.7c-0.5-0.5-1.1-0.7-1.7-0.7s-1.3,0.3-1.7,0.7c-0.5,0.5-0.7,1.1-0.7,1.7
					s0.3,1.3,0.7,1.7C331.1,72.5,331.7,72.7,332.4,72.7z"/>
			</g>
			<g>
				<path id="m1889899e65_00000103247140189544877480000007175802286922422419_" class="st1" d="M279.8,109.9c0.6,0,1.3-0.3,1.7-0.7
					c0.5-0.5,0.7-1.1,0.7-1.7s-0.3-1.3-0.7-1.7c-0.5-0.5-1.1-0.7-1.7-0.7s-1.3,0.3-1.7,0.7c-0.5,0.5-0.7,1.1-0.7,1.7
					s0.3,1.3,0.7,1.7C278.5,109.6,279.1,109.9,279.8,109.9z"/>
			</g>
			<g>
				<path id="m1889899e65_00000059995525245568505980000017748740306890141107_" class="st1" d="M203.7,191.7c0.6,0,1.3-0.3,1.7-0.7
					c0.5-0.5,0.7-1.1,0.7-1.7s-0.3-1.3-0.7-1.7c-0.5-0.5-1.1-0.7-1.7-0.7s-1.3,0.3-1.7,0.7c-0.5,0.5-0.7,1.1-0.7,1.7
					s0.3,1.3,0.7,1.7C202.5,191.4,203.1,191.7,203.7,191.7z"/>
			</g>
			<g>
				<path id="m1889899e65_00000093138954309231676810000005462956662041985968_" class="st1" d="M138.1,256.4c0.6,0,1.3-0.3,1.7-0.7
					c0.5-0.5,0.7-1.1,0.7-1.7s-0.3-1.3-0.7-1.7c-0.5-0.5-1.1-0.7-1.7-0.7s-1.3,0.3-1.7,0.7c-0.5,0.5-0.7,1.1-0.7,1.7
					s0.3,1.3,0.7,1.7C136.8,256.2,137.5,256.4,138.1,256.4z"/>
			</g>
			<g>
				<path id="m1889899e65_00000023992023389066356440000000388835113534796464_" class="st1" d="M200.2,192.5c0.6,0,1.3-0.3,1.7-0.7
					c0.5-0.5,0.7-1.1,0.7-1.7s-0.3-1.3-0.7-1.7c-0.5-0.5-1.1-0.7-1.7-0.7s-1.3,0.3-1.7,0.7c-0.5,0.5-0.7,1.1-0.7,1.7
					s0.3,1.3,0.7,1.7C198.9,192.2,199.5,192.5,200.2,192.5z"/>
			</g>
			<g>
				<path id="m1889899e65_00000049918906961351328350000010552726266276738484_" class="st1" d="M339.4,65.8c0.6,0,1.3-0.3,1.7-0.7
					c0.5-0.5,0.7-1.1,0.7-1.7s-0.3-1.3-0.7-1.7c-0.5-0.5-1.1-0.7-1.7-0.7s-1.3,0.3-1.7,0.7c-0.5,0.5-0.7,1.1-0.7,1.7
					s0.3,1.3,0.7,1.7C338.2,65.6,338.8,65.8,339.4,65.8z"/>
			</g>
			<g>
				<path id="m1889899e65_00000145756098592925097310000013330655166629174667_" class="st1" d="M198.6,197.2c0.6,0,1.3-0.3,1.7-0.7
					c0.5-0.5,0.7-1.1,0.7-1.7s-0.3-1.3-0.7-1.7c-0.5-0.5-1.1-0.7-1.7-0.7s-1.3,0.3-1.7,0.7c-0.5,0.5-0.7,1.1-0.7,1.7
					s0.3,1.3,0.7,1.7C197.3,197,197.9,197.2,198.6,197.2z"/>
			</g>
			<g>
				<path id="m1889899e65_00000021836846555990281070000018343905457018545555_" class="st1" d="M217.3,169.1c0.6,0,1.3-0.3,1.7-0.7
					c0.5-0.5,0.7-1.1,0.7-1.7s-0.3-1.3-0.7-1.7c-0.5-0.5-1.1-0.7-1.7-0.7s-1.3,0.3-1.7,0.7c-0.5,0.5-0.7,1.1-0.7,1.7
					s0.3,1.3,0.7,1.7C216,168.8,216.6,169.1,217.3,169.1z"/>
			</g>
			<g>
				<path id="m1889899e65_00000111168245222942607700000014969262664663206833_" class="st1" d="M332.7,64.4c0.6,0,1.3-0.3,1.7-0.7
					c0.5-0.5,0.7-1.1,0.7-1.7s-0.3-1.3-0.7-1.7c-0.5-0.5-1.1-0.7-1.7-0.7s-1.3,0.3-1.7,0.7c-0.5,0.5-0.7,1.1-0.7,1.7
					s0.3,1.3,0.7,1.7C331.5,64.2,332.1,64.4,332.7,64.4z"/>
			</g>
			<g>
				<path id="m1889899e65_00000034809594688756371450000007235604349042140350_" class="st1" d="M162.5,233.9c0.6,0,1.3-0.3,1.7-0.7
					c0.5-0.5,0.7-1.1,0.7-1.7s-0.3-1.3-0.7-1.7c-0.5-0.5-1.1-0.7-1.7-0.7s-1.3,0.3-1.7,0.7c-0.5,0.5-0.7,1.1-0.7,1.7
					s0.3,1.3,0.7,1.7C161.2,233.6,161.8,233.9,162.5,233.9z"/>
			</g>
			<g>
				<path id="m1889899e65_00000085932091472608883070000012341014873617162418_" class="st1" d="M293.7,111c0.6,0,1.3-0.3,1.7-0.7
					c0.5-0.5,0.7-1.1,0.7-1.7s-0.3-1.3-0.7-1.7c-0.5-0.5-1.1-0.7-1.7-0.7s-1.3,0.3-1.7,0.7c-0.5,0.5-0.7,1.1-0.7,1.7
					s0.3,1.3,0.7,1.7C292.5,110.8,293.1,111,293.7,111z"/>
			</g>
			<g>
				<path id="m1889899e65_00000128473017052381133020000010411146466529685636_" class="st1" d="M151.4,244.5c0.6,0,1.3-0.3,1.7-0.7
					c0.5-0.5,0.7-1.1,0.7-1.7s-0.3-1.3-0.7-1.7c-0.5-0.5-1.1-0.7-1.7-0.7s-1.3,0.3-1.7,0.7c-0.5,0.5-0.7,1.1-0.7,1.7
					s0.3,1.3,0.7,1.7C150.1,244.2,150.7,244.5,151.4,244.5z"/>
			</g>
			<g>
				<path id="m1889899e65_00000012451827775974175890000015727255684933984943_" class="st1" d="M148.3,247.9c0.6,0,1.3-0.3,1.7-0.7
					c0.5-0.5,0.7-1.1,0.7-1.7s-0.3-1.3-0.7-1.7c-0.5-0.5-1.1-0.7-1.7-0.7s-1.3,0.3-1.7,0.7c-0.5,0.5-0.7,1.1-0.7,1.7
					s0.3,1.3,0.7,1.7C147,247.6,147.6,247.9,148.3,247.9z"/>
			</g>
			<g>
				<path id="m1889899e65_00000011753082593596071000000017537608838053637263_" class="st1" d="M112.8,284.2c0.6,0,1.3-0.3,1.7-0.7
					c0.5-0.5,0.7-1.1,0.7-1.7c0-0.6-0.3-1.3-0.7-1.7c-0.5-0.5-1.1-0.7-1.7-0.7s-1.3,0.3-1.7,0.7c-0.5,0.5-0.7,1.1-0.7,1.7
					c0,0.6,0.3,1.3,0.7,1.7C111.5,283.9,112.1,284.2,112.8,284.2z"/>
			</g>
			<g>
				<path id="m1889899e65_00000106130579552150654300000013763138363806067875_" class="st1" d="M306.7,109.6c0.6,0,1.3-0.3,1.7-0.7
					c0.5-0.5,0.7-1.1,0.7-1.7s-0.3-1.3-0.7-1.7c-0.5-0.5-1.1-0.7-1.7-0.7s-1.3,0.3-1.7,0.7c-0.5,0.5-0.7,1.1-0.7,1.7
					s0.3,1.3,0.7,1.7C305.4,109.4,306.1,109.6,306.7,109.6z"/>
			</g>
			<g>
				<path id="m1889899e65_00000005234017945756156530000017526670264928449410_" class="st1" d="M246.8,147.6c0.6,0,1.3-0.3,1.7-0.7
					c0.5-0.5,0.7-1.1,0.7-1.7s-0.3-1.3-0.7-1.7c-0.5-0.5-1.1-0.7-1.7-0.7s-1.3,0.3-1.7,0.7c-0.5,0.5-0.7,1.1-0.7,1.7
					s0.3,1.3,0.7,1.7C245.6,147.4,246.2,147.6,246.8,147.6z"/>
			</g>
			<g>
				<path id="m1889899e65_00000021842303773608714750000002216828667861031575_" class="st1" d="M122.2,272.6c0.6,0,1.3-0.3,1.7-0.7
					c0.5-0.5,0.7-1.1,0.7-1.7c0-0.6-0.3-1.3-0.7-1.7c-0.5-0.5-1.1-0.7-1.7-0.7s-1.3,0.3-1.7,0.7c-0.5,0.5-0.7,1.1-0.7,1.7
					c0,0.6,0.3,1.3,0.7,1.7C120.9,272.3,121.6,272.6,122.2,272.6z"/>
			</g>
			<g>
				<path id="m1889899e65_00000122695278045803480520000015281729746823248532_" class="st1" d="M331.9,43.2c0.6,0,1.3-0.3,1.7-0.7
					c0.5-0.5,0.7-1.1,0.7-1.7s-0.3-1.3-0.7-1.7c-0.5-0.5-1.1-0.7-1.7-0.7s-1.3,0.3-1.7,0.7c-0.5,0.5-0.7,1.1-0.7,1.7
					s0.3,1.3,0.7,1.7C330.7,43,331.3,43.2,331.9,43.2z"/>
			</g>
			<g>
				<path id="m1889899e65_00000121966765317968486500000011503405519396609440_" class="st1" d="M181.2,211.9c0.6,0,1.3-0.3,1.7-0.7
					c0.5-0.5,0.7-1.1,0.7-1.7s-0.3-1.3-0.7-1.7c-0.5-0.5-1.1-0.7-1.7-0.7s-1.3,0.3-1.7,0.7c-0.5,0.5-0.7,1.1-0.7,1.7
					s0.3,1.3,0.7,1.7C180,211.6,180.6,211.9,181.2,211.9z"/>
			</g>
			<g>
				<path id="m1889899e65_00000109022747468173009610000009603491643094403745_" class="st1" d="M154.1,240.5c0.6,0,1.3-0.3,1.7-0.7
					c0.5-0.5,0.7-1.1,0.7-1.7s-0.3-1.3-0.7-1.7c-0.5-0.5-1.1-0.7-1.7-0.7s-1.3,0.3-1.7,0.7c-0.5,0.5-0.7,1.1-0.7,1.7
					s0.3,1.3,0.7,1.7C152.8,240.2,153.4,240.5,154.1,240.5z"/>
			</g>
			<g>
				<path id="m1889899e65_00000116215869850305931340000013583697784145397924_" class="st1" d="M145.2,247.3c0.6,0,1.3-0.3,1.7-0.7
					c0.5-0.5,0.7-1.1,0.7-1.7s-0.3-1.3-0.7-1.7c-0.5-0.5-1.1-0.7-1.7-0.7s-1.3,0.3-1.7,0.7c-0.5,0.5-0.7,1.1-0.7,1.7
					s0.3,1.3,0.7,1.7C143.9,247,144.6,247.3,145.2,247.3z"/>
			</g>
			<g>
				<path id="m1889899e65_00000033335719318195716370000016886820279538666631_" class="st1" d="M287.6,107c0.6,0,1.3-0.3,1.7-0.7
					c0.5-0.5,0.7-1.1,0.7-1.7s-0.3-1.3-0.7-1.7c-0.5-0.5-1.1-0.7-1.7-0.7s-1.3,0.3-1.7,0.7c-0.5,0.5-0.7,1.1-0.7,1.7
					s0.3,1.3,0.7,1.7C286.4,106.7,287,107,287.6,107z"/>
			</g>
			<g>
				<path id="m1889899e65_00000151534769584279724310000013938494772830470077_" class="st1" d="M188.1,209.2c0.6,0,1.3-0.3,1.7-0.7
					c0.5-0.5,0.7-1.1,0.7-1.7s-0.3-1.3-0.7-1.7c-0.5-0.5-1.1-0.7-1.7-0.7s-1.3,0.3-1.7,0.7c-0.5,0.5-0.7,1.1-0.7,1.7
					s0.3,1.3,0.7,1.7C186.9,209,187.5,209.2,188.1,209.2z"/>
			</g>
			<g>
				<path id="m1889899e65_00000160169135250744574200000009440668563069543848_" class="st1" d="M276.3,128.1c0.6,0,1.3-0.3,1.7-0.7
					c0.5-0.5,0.7-1.1,0.7-1.7s-0.3-1.3-0.7-1.7c-0.5-0.5-1.1-0.7-1.7-0.7s-1.3,0.3-1.7,0.7c-0.5,0.5-0.7,1.1-0.7,1.7
					s0.3,1.3,0.7,1.7C275.1,127.8,275.7,128.1,276.3,128.1z"/>
			</g>
			<g>
				<path id="m1889899e65_00000163751866873691459330000001752061989397756850_" class="st1" d="M148.1,247.8c0.6,0,1.3-0.3,1.7-0.7
					c0.5-0.5,0.7-1.1,0.7-1.7s-0.3-1.3-0.7-1.7c-0.5-0.5-1.1-0.7-1.7-0.7s-1.3,0.3-1.7,0.7c-0.5,0.5-0.7,1.1-0.7,1.7
					s0.3,1.3,0.7,1.7C146.9,247.5,147.5,247.8,148.1,247.8z"/>
			</g>
			<g>
				<path id="m1889899e65_00000041974117688496697270000004874829673086560141_" class="st1" d="M209.6,188.6c0.6,0,1.3-0.3,1.7-0.7
					c0.5-0.5,0.7-1.1,0.7-1.7s-0.3-1.3-0.7-1.7c-0.5-0.5-1.1-0.7-1.7-0.7s-1.3,0.3-1.7,0.7c-0.5,0.5-0.7,1.1-0.7,1.7
					s0.3,1.3,0.7,1.7C208.4,188.3,209,188.6,209.6,188.6z"/>
			</g>
			<g>
				<path id="m1889899e65_00000034787205629672373450000014727829996009548440_" class="st1" d="M334.6,43.2c0.6,0,1.3-0.3,1.7-0.7
					c0.5-0.5,0.7-1.1,0.7-1.7s-0.3-1.3-0.7-1.7c-0.5-0.5-1.1-0.7-1.7-0.7s-1.3,0.3-1.7,0.7c-0.5,0.5-0.7,1.1-0.7,1.7
					s0.3,1.3,0.7,1.7C333.3,43,333.9,43.2,334.6,43.2z"/>
			</g>
			<g>
				<path id="m1889899e65_00000007386836115591148590000011049883065299059097_" class="st1" d="M183.5,213c0.6,0,1.3-0.3,1.7-0.7
					c0.5-0.5,0.7-1.1,0.7-1.7s-0.3-1.3-0.7-1.7c-0.5-0.5-1.1-0.7-1.7-0.7s-1.3,0.3-1.7,0.7c-0.5,0.5-0.7,1.1-0.7,1.7
					s0.3,1.3,0.7,1.7C182.2,212.7,182.8,213,183.5,213z"/>
			</g>
			<g>
				<path id="m1889899e65_00000172426401564426350080000009216988756734128285_" class="st1" d="M118.1,275.5c0.6,0,1.3-0.3,1.7-0.7
					c0.5-0.5,0.7-1.1,0.7-1.7c0-0.6-0.3-1.3-0.7-1.7c-0.5-0.5-1.1-0.7-1.7-0.7s-1.3,0.3-1.7,0.7c-0.5,0.5-0.7,1.1-0.7,1.7
					c0,0.6,0.3,1.3,0.7,1.7C116.8,275.2,117.5,275.5,118.1,275.5z"/>
			</g>
			<g>
				<path id="m1889899e65_00000160152439306409825690000009157302840312372155_" class="st1" d="M262.8,134.8c0.6,0,1.3-0.3,1.7-0.7
					c0.5-0.5,0.7-1.1,0.7-1.7s-0.3-1.3-0.7-1.7c-0.5-0.5-1.1-0.7-1.7-0.7s-1.3,0.3-1.7,0.7c-0.5,0.5-0.7,1.1-0.7,1.7
					s0.3,1.3,0.7,1.7C261.5,134.5,262.1,134.8,262.8,134.8z"/>
			</g>
			<g>
				<path id="m1889899e65_00000057843738073990683000000010945803906543678862_" class="st1" d="M342.4,43.2c0.6,0,1.3-0.3,1.7-0.7
					c0.5-0.5,0.7-1.1,0.7-1.7s-0.3-1.3-0.7-1.7c-0.5-0.5-1.1-0.7-1.7-0.7s-1.3,0.3-1.7,0.7c-0.5,0.5-0.7,1.1-0.7,1.7
					s0.3,1.3,0.7,1.7C341.1,43,341.7,43.2,342.4,43.2z"/>
			</g>
			<g>
				<path id="m1889899e65_00000160907397172008734320000000779705665109517741_" class="st1" d="M166.9,228.7c0.6,0,1.3-0.3,1.7-0.7
					c0.5-0.5,0.7-1.1,0.7-1.7s-0.3-1.3-0.7-1.7c-0.5-0.5-1.1-0.7-1.7-0.7s-1.3,0.3-1.7,0.7c-0.5,0.5-0.7,1.1-0.7,1.7
					s0.3,1.3,0.7,1.7C165.6,228.5,166.2,228.7,166.9,228.7z"/>
			</g>
			<g>
				<path id="m1889899e65_00000048467975857163703740000005996816545721654944_" class="st1" d="M324.6,69.9c0.6,0,1.3-0.3,1.7-0.7
					c0.5-0.5,0.7-1.1,0.7-1.7s-0.3-1.3-0.7-1.7c-0.5-0.5-1.1-0.7-1.7-0.7s-1.3,0.3-1.7,0.7c-0.5,0.5-0.7,1.1-0.7,1.7
					s0.3,1.3,0.7,1.7C323.4,69.6,324,69.9,324.6,69.9z"/>
			</g>
			<g>
				<path id="m1889899e65_00000072974204568472858850000014868656317421823902_" class="st1" d="M135.5,257.4c0.6,0,1.3-0.3,1.7-0.7
					c0.5-0.5,0.7-1.1,0.7-1.7s-0.3-1.3-0.7-1.7c-0.5-0.5-1.1-0.7-1.7-0.7s-1.3,0.3-1.7,0.7c-0.5,0.5-0.7,1.1-0.7,1.7
					s0.3,1.3,0.7,1.7C134.3,257.2,134.9,257.4,135.5,257.4z"/>
			</g>
			<g>
				<path id="m1889899e65_00000023974586433877010210000005602745909891529398_" class="st1" d="M132.2,261.2c0.6,0,1.3-0.3,1.7-0.7
					c0.5-0.5,0.7-1.1,0.7-1.7c0-0.6-0.3-1.3-0.7-1.7c-0.5-0.5-1.1-0.7-1.7-0.7s-1.3,0.3-1.7,0.7c-0.5,0.5-0.7,1.1-0.7,1.7
					c0,0.6,0.3,1.3,0.7,1.7C130.9,260.9,131.5,261.2,132.2,261.2z"/>
			</g>
			<g>
				<path id="m1889899e65_00000021100007057120363630000006141823506309321360_" class="st1" d="M226,165.1c0.6,0,1.3-0.3,1.7-0.7
					c0.5-0.5,0.7-1.1,0.7-1.7s-0.3-1.3-0.7-1.7c-0.5-0.5-1.1-0.7-1.7-0.7s-1.3,0.3-1.7,0.7c-0.5,0.5-0.7,1.1-0.7,1.7
					s0.3,1.3,0.7,1.7C224.7,164.8,225.3,165.1,226,165.1z"/>
			</g>
			<g>
				<path id="m1889899e65_00000150822458659921672460000004378118281898633358_" class="st1" d="M136,260c0.6,0,1.3-0.3,1.7-0.7
					c0.5-0.5,0.7-1.1,0.7-1.7c0-0.6-0.3-1.3-0.7-1.7c-0.5-0.5-1.1-0.7-1.7-0.7s-1.3,0.3-1.7,0.7c-0.5,0.5-0.7,1.1-0.7,1.7
					c0,0.6,0.3,1.3,0.7,1.7C134.8,259.7,135.4,260,136,260z"/>
			</g>
			<g>
				<path id="m1889899e65_00000176751478881848414850000001282957889956723615_" class="st1" d="M288,105.1c0.6,0,1.3-0.3,1.7-0.7
					c0.5-0.5,0.7-1.1,0.7-1.7s-0.3-1.3-0.7-1.7c-0.5-0.5-1.1-0.7-1.7-0.7s-1.3,0.3-1.7,0.7c-0.5,0.5-0.7,1.1-0.7,1.7
					s0.3,1.3,0.7,1.7C286.7,104.9,287.3,105.1,288,105.1z"/>
			</g>
			<g>
				<path id="m1889899e65_00000163777854127627739490000013358272588803093435_" class="st1" d="M165.6,227.6c0.6,0,1.3-0.3,1.7-0.7
					c0.5-0.5,0.7-1.1,0.7-1.7s-0.3-1.3-0.7-1.7c-0.5-0.5-1.1-0.7-1.7-0.7s-1.3,0.3-1.7,0.7c-0.5,0.5-0.7,1.1-0.7,1.7
					s0.3,1.3,0.7,1.7C164.3,227.3,164.9,227.6,165.6,227.6z"/>
			</g>
			<g>
				<path id="m1889899e65_00000092428192304795925840000001371959507060667008_" class="st1" d="M344.6,59.3c0.6,0,1.3-0.3,1.7-0.7
					c0.5-0.5,0.7-1.1,0.7-1.7s-0.3-1.3-0.7-1.7c-0.5-0.5-1.1-0.7-1.7-0.7s-1.3,0.3-1.7,0.7c-0.5,0.5-0.7,1.1-0.7,1.7
					s0.3,1.3,0.7,1.7C343.4,59.1,344,59.3,344.6,59.3z"/>
			</g>
			<g>
				<path id="m1889899e65_00000154384000220430778030000004842892823111406727_" class="st1" d="M175.5,218.5c0.6,0,1.3-0.3,1.7-0.7
					c0.5-0.5,0.7-1.1,0.7-1.7s-0.3-1.3-0.7-1.7c-0.5-0.5-1.1-0.7-1.7-0.7s-1.3,0.3-1.7,0.7c-0.5,0.5-0.7,1.1-0.7,1.7
					s0.3,1.3,0.7,1.7C174.3,218.3,174.9,218.5,175.5,218.5z"/>
			</g>
			<g>
				<path id="m1889899e65_00000150100550622322607270000000667619639131513022_" class="st1" d="M182,217.8c0.6,0,1.3-0.3,1.7-0.7
					c0.5-0.5,0.7-1.1,0.7-1.7s-0.3-1.3-0.7-1.7c-0.5-0.5-1.1-0.7-1.7-0.7s-1.3,0.3-1.7,0.7c-0.5,0.5-0.7,1.1-0.7,1.7
					s0.3,1.3,0.7,1.7C180.8,217.5,181.4,217.8,182,217.8z"/>
			</g>
			<g>
				<path id="m1889899e65_00000018230368163995842270000011942477674409122457_" class="st1" d="M309.1,78c0.6,0,1.3-0.3,1.7-0.7
					c0.5-0.5,0.7-1.1,0.7-1.7s-0.3-1.3-0.7-1.7c-0.5-0.5-1.1-0.7-1.7-0.7s-1.3,0.3-1.7,0.7c-0.5,0.5-0.7,1.1-0.7,1.7
					s0.3,1.3,0.7,1.7C307.9,77.7,308.5,78,309.1,78z"/>
			</g>
			<g>
				<path id="m1889899e65_00000056397351849815943920000009894647462744339892_" class="st1" d="M143.7,254.2c0.6,0,1.3-0.3,1.7-0.7
					c0.5-0.5,0.7-1.1,0.7-1.7s-0.3-1.3-0.7-1.7c-0.5-0.5-1.1-0.7-1.7-0.7s-1.3,0.3-1.7,0.7c-0.5,0.5-0.7,1.1-0.7,1.7
					s0.3,1.3,0.7,1.7C142.4,253.9,143,254.2,143.7,254.2z"/>
			</g>
			<g>
				<path id="m1889899e65_00000053515683223039840250000011974097072555233427_" class="st1" d="M333.1,65.5c0.6,0,1.3-0.3,1.7-0.7
					s0.7-1.1,0.7-1.7s-0.3-1.3-0.7-1.7c-0.5-0.5-1.1-0.7-1.7-0.7s-1.3,0.3-1.7,0.7c-0.5,0.5-0.7,1.1-0.7,1.7s0.3,1.3,0.7,1.7
					S332.5,65.5,333.1,65.5z"/>
			</g>
			<g>
				<path id="m1889899e65_00000008870787275829293150000015718006726631097777_" class="st1" d="M269.8,122.9c0.6,0,1.3-0.3,1.7-0.7
					c0.5-0.5,0.7-1.1,0.7-1.7s-0.3-1.3-0.7-1.7c-0.5-0.5-1.1-0.7-1.7-0.7s-1.3,0.3-1.7,0.7c-0.5,0.5-0.7,1.1-0.7,1.7
					s0.3,1.3,0.7,1.7C268.5,122.7,269.2,122.9,269.8,122.9z"/>
			</g>
			<g>
				<path id="m1889899e65_00000086687269541272594930000008517151130879197580_" class="st1" d="M335.8,67.1c0.6,0,1.3-0.3,1.7-0.7
					c0.5-0.5,0.7-1.1,0.7-1.7s-0.3-1.3-0.7-1.7c-0.5-0.5-1.1-0.7-1.7-0.7s-1.3,0.3-1.7,0.7c-0.5,0.5-0.7,1.1-0.7,1.7
					s0.3,1.3,0.7,1.7C334.5,66.8,335.2,67.1,335.8,67.1z"/>
			</g>
			<g>
				<path id="m1889899e65_00000123428785271072004640000014229612542725311923_" class="st1" d="M211.9,185.2c0.6,0,1.3-0.3,1.7-0.7
					c0.5-0.5,0.7-1.1,0.7-1.7s-0.3-1.3-0.7-1.7c-0.5-0.5-1.1-0.7-1.7-0.7s-1.3,0.3-1.7,0.7c-0.5,0.5-0.7,1.1-0.7,1.7
					s0.3,1.3,0.7,1.7C210.6,185,211.2,185.2,211.9,185.2z"/>
			</g>
			<g>
				<path id="m1889899e65_00000151529213349450464290000009685221636862106782_" class="st1" d="M279.3,122.4c0.6,0,1.3-0.3,1.7-0.7
					c0.5-0.5,0.7-1.1,0.7-1.7s-0.3-1.3-0.7-1.7c-0.5-0.5-1.1-0.7-1.7-0.7s-1.3,0.3-1.7,0.7c-0.5,0.5-0.7,1.1-0.7,1.7
					s0.3,1.3,0.7,1.7C278,122.1,278.6,122.4,279.3,122.4z"/>
			</g>
			<g>
				<path id="m1889899e65_00000111174359532569869090000003787054107426033292_" class="st1" d="M338.3,52.7c0.6,0,1.3-0.3,1.7-0.7
					c0.5-0.5,0.7-1.1,0.7-1.7s-0.3-1.3-0.7-1.7c-0.5-0.5-1.1-0.7-1.7-0.7s-1.3,0.3-1.7,0.7c-0.5,0.5-0.7,1.1-0.7,1.7
					s0.3,1.3,0.7,1.7C337.1,52.4,337.7,52.7,338.3,52.7z"/>
			</g>
			<g>
				<path id="m1889899e65_00000052797568029724249700000005592814427529974950_" class="st1" d="M186.1,205.8c0.6,0,1.3-0.3,1.7-0.7
					c0.5-0.5,0.7-1.1,0.7-1.7s-0.3-1.3-0.7-1.7c-0.5-0.5-1.1-0.7-1.7-0.7s-1.3,0.3-1.7,0.7c-0.5,0.5-0.7,1.1-0.7,1.7
					s0.3,1.3,0.7,1.7C184.8,205.5,185.4,205.8,186.1,205.8z"/>
			</g>
			<g>
				<path id="m1889899e65_00000047052116965895029200000011195085511520041122_" class="st1" d="M348.4,65.2c0.6,0,1.3-0.3,1.7-0.7
					c0.5-0.5,0.7-1.1,0.7-1.7s-0.3-1.3-0.7-1.7c-0.5-0.5-1.1-0.7-1.7-0.7s-1.3,0.3-1.7,0.7c-0.5,0.5-0.7,1.1-0.7,1.7
					s0.3,1.3,0.7,1.7C347.1,64.9,347.8,65.2,348.4,65.2z"/>
			</g>
			<g>
				<path id="m1889899e65_00000043430293987355381770000011151381447728073391_" class="st1" d="M213.7,176.7c0.6,0,1.3-0.3,1.7-0.7
					c0.5-0.5,0.7-1.1,0.7-1.7s-0.3-1.3-0.7-1.7c-0.5-0.5-1.1-0.7-1.7-0.7s-1.3,0.3-1.7,0.7c-0.5,0.5-0.7,1.1-0.7,1.7
					s0.3,1.3,0.7,1.7C212.5,176.5,213.1,176.7,213.7,176.7z"/>
			</g>
			<g>
				<path id="m1889899e65_00000009553852663331581160000003368613028521672370_" class="st1" d="M309.1,78.1c0.6,0,1.3-0.3,1.7-0.7
					c0.5-0.5,0.7-1.1,0.7-1.7s-0.3-1.3-0.7-1.7c-0.5-0.5-1.1-0.7-1.7-0.7s-1.3,0.3-1.7,0.7c-0.5,0.5-0.7,1.1-0.7,1.7
					s0.3,1.3,0.7,1.7C307.8,77.8,308.4,78.1,309.1,78.1z"/>
			</g>
			<g>
				<path id="m1889899e65_00000147193241176920928300000016495529183860126112_" class="st1" d="M258.7,149c0.6,0,1.3-0.3,1.7-0.7
					c0.5-0.5,0.7-1.1,0.7-1.7s-0.3-1.3-0.7-1.7c-0.5-0.5-1.1-0.7-1.7-0.7s-1.3,0.3-1.7,0.7c-0.5,0.5-0.7,1.1-0.7,1.7
					s0.3,1.3,0.7,1.7C257.5,148.8,258.1,149,258.7,149z"/>
			</g>
			<g>
				<path id="m1889899e65_00000039833056217932571870000018125164527755578524_" class="st1" d="M206.3,193.3c0.6,0,1.3-0.3,1.7-0.7
					c0.5-0.5,0.7-1.1,0.7-1.7s-0.3-1.3-0.7-1.7c-0.5-0.5-1.1-0.7-1.7-0.7s-1.3,0.3-1.7,0.7c-0.5,0.5-0.7,1.1-0.7,1.7
					s0.3,1.3,0.7,1.7C205,193,205.6,193.3,206.3,193.3z"/>
			</g>
			<g>
				<path id="m1889899e65_00000062165028667799660270000004348191522664790963_" class="st1" d="M339.7,73c0.6,0,1.3-0.3,1.7-0.7
					c0.5-0.5,0.7-1.1,0.7-1.7s-0.3-1.3-0.7-1.7c-0.5-0.5-1.1-0.7-1.7-0.7s-1.3,0.3-1.7,0.7c-0.5,0.5-0.7,1.1-0.7,1.7
					s0.3,1.3,0.7,1.7C338.4,72.7,339,73,339.7,73z"/>
			</g>
			<g>
				<path id="m1889899e65_00000013188891967639046910000007185636617876970902_" class="st1" d="M222.8,172c0.6,0,1.3-0.3,1.7-0.7
					c0.5-0.5,0.7-1.1,0.7-1.7s-0.3-1.3-0.7-1.7c-0.5-0.5-1.1-0.7-1.7-0.7s-1.3,0.3-1.7,0.7c-0.5,0.5-0.7,1.1-0.7,1.7
					s0.3,1.3,0.7,1.7C221.5,171.7,222.1,172,222.8,172z"/>
			</g>
			<g>
				<path id="m1889899e65_00000057126866274998329160000014876422581751700896_" class="st1" d="M130.8,264.6c0.6,0,1.3-0.3,1.7-0.7
					c0.5-0.5,0.7-1.1,0.7-1.7c0-0.6-0.3-1.3-0.7-1.7c-0.5-0.5-1.1-0.7-1.7-0.7s-1.3,0.3-1.7,0.7c-0.5,0.5-0.7,1.1-0.7,1.7
					c0,0.6,0.3,1.3,0.7,1.7C129.5,264.3,130.1,264.6,130.8,264.6z"/>
			</g>
			<g>
				<path id="m1889899e65_00000026853512315776472310000017319920962326269583_" class="st1" d="M250.4,153.6c0.6,0,1.3-0.3,1.7-0.7
					c0.5-0.5,0.7-1.1,0.7-1.7s-0.3-1.3-0.7-1.7c-0.5-0.5-1.1-0.7-1.7-0.7s-1.3,0.3-1.7,0.7c-0.5,0.5-0.7,1.1-0.7,1.7
					s0.3,1.3,0.7,1.7C249.1,153.3,249.7,153.6,250.4,153.6z"/>
			</g>
			<g>
				<path id="m1889899e65_00000117641069640233922370000015680188507049317535_" class="st1" d="M331.3,66.9c0.6,0,1.3-0.3,1.7-0.7
					c0.5-0.5,0.7-1.1,0.7-1.7s-0.3-1.3-0.7-1.7c-0.5-0.5-1.1-0.7-1.7-0.7s-1.3,0.3-1.7,0.7c-0.5,0.5-0.7,1.1-0.7,1.7
					s0.3,1.3,0.7,1.7C330.1,66.6,330.7,66.9,331.3,66.9z"/>
			</g>
			<g>
				<path id="m1889899e65_00000049208401113095088240000017837822920952642217_" class="st1" d="M290,108.8c0.6,0,1.3-0.3,1.7-0.7
					c0.5-0.5,0.7-1.1,0.7-1.7s-0.3-1.3-0.7-1.7c-0.5-0.5-1.1-0.7-1.7-0.7s-1.3,0.3-1.7,0.7c-0.5,0.5-0.7,1.1-0.7,1.7
					s0.3,1.3,0.7,1.7C288.7,108.5,289.3,108.8,290,108.8z"/>
			</g>
			<g>
				<path id="m1889899e65_00000083796764806288837570000018025471156596850599_" class="st1" d="M278.5,112.6c0.6,0,1.3-0.3,1.7-0.7
					c0.5-0.5,0.7-1.1,0.7-1.7s-0.3-1.3-0.7-1.7c-0.5-0.5-1.1-0.7-1.7-0.7s-1.3,0.3-1.7,0.7c-0.5,0.5-0.7,1.1-0.7,1.7
					s0.3,1.3,0.7,1.7C277.3,112.4,277.9,112.6,278.5,112.6z"/>
			</g>
			<g>
				<path id="m1889899e65_00000065042273797623579510000012569462387079248815_" class="st1" d="M146.6,247.9c0.6,0,1.3-0.3,1.7-0.7
					c0.5-0.5,0.7-1.1,0.7-1.7s-0.3-1.3-0.7-1.7c-0.5-0.5-1.1-0.7-1.7-0.7s-1.3,0.3-1.7,0.7c-0.5,0.5-0.7,1.1-0.7,1.7
					s0.3,1.3,0.7,1.7C145.3,247.6,145.9,247.9,146.6,247.9z"/>
			</g>
			<g>
				<path id="m1889899e65_00000023249807834856817200000018268296651793955763_" class="st1" d="M226.3,156.5c0.6,0,1.3-0.3,1.7-0.7
					c0.5-0.5,0.7-1.1,0.7-1.7s-0.3-1.3-0.7-1.7c-0.5-0.5-1.1-0.7-1.7-0.7s-1.3,0.3-1.7,0.7c-0.5,0.5-0.7,1.1-0.7,1.7
					s0.3,1.3,0.7,1.7C225,156.2,225.6,156.5,226.3,156.5z"/>
			</g>
			<g>
				<path id="m1889899e65_00000180349304955825897280000003791932060017001607_" class="st1" d="M259.1,132.5c0.6,0,1.3-0.3,1.7-0.7
					c0.5-0.5,0.7-1.1,0.7-1.7s-0.3-1.3-0.7-1.7c-0.5-0.5-1.1-0.7-1.7-0.7s-1.3,0.3-1.7,0.7c-0.5,0.5-0.7,1.1-0.7,1.7
					s0.3,1.3,0.7,1.7C257.8,132.2,258.4,132.5,259.1,132.5z"/>
			</g>
			<g>
				<path id="m1889899e65_00000074419823662908426590000007263834075335208599_" class="st1" d="M265.2,130.1c0.6,0,1.3-0.3,1.7-0.7
					c0.5-0.5,0.7-1.1,0.7-1.7c0-0.6-0.3-1.3-0.7-1.7c-0.5-0.5-1.1-0.7-1.7-0.7s-1.3,0.3-1.7,0.7c-0.5,0.5-0.7,1.1-0.7,1.7
					c0,0.6,0.3,1.3,0.7,1.7C263.9,129.9,264.6,130.1,265.2,130.1z"/>
			</g>
			<g>
				<path id="m1889899e65_00000168103999294565978790000017678298980304079512_" class="st1" d="M232.7,167.8c0.6,0,1.3-0.3,1.7-0.7
					c0.5-0.5,0.7-1.1,0.7-1.7s-0.3-1.3-0.7-1.7c-0.5-0.5-1.1-0.7-1.7-0.7s-1.3,0.3-1.7,0.7c-0.5,0.5-0.7,1.1-0.7,1.7
					s0.3,1.3,0.7,1.7C231.4,167.5,232.1,167.8,232.7,167.8z"/>
			</g>
			<g>
				<path id="m1889899e65_00000151526679303695008900000005675986402445713027_" class="st1" d="M210.2,190.7c0.6,0,1.3-0.3,1.7-0.7
					c0.5-0.5,0.7-1.1,0.7-1.7s-0.3-1.3-0.7-1.7c-0.5-0.5-1.1-0.7-1.7-0.7s-1.3,0.3-1.7,0.7c-0.5,0.5-0.7,1.1-0.7,1.7
					s0.3,1.3,0.7,1.7C208.9,190.4,209.5,190.7,210.2,190.7z"/>
			</g>
			<g>
				<path id="m1889899e65_00000049192774240707242340000004624180261413033375_" class="st1" d="M294.2,93.5c0.6,0,1.3-0.3,1.7-0.7
					c0.5-0.5,0.7-1.1,0.7-1.7s-0.3-1.3-0.7-1.7c-0.5-0.5-1.1-0.7-1.7-0.7s-1.3,0.3-1.7,0.7c-0.5,0.5-0.7,1.1-0.7,1.7
					s0.3,1.3,0.7,1.7C292.9,93.3,293.6,93.5,294.2,93.5z"/>
			</g>
			<g>
				<path id="m1889899e65_00000147195973197281788090000001329334643283891630_" class="st1" d="M312.6,94c0.6,0,1.3-0.3,1.7-0.7
					c0.5-0.5,0.7-1.1,0.7-1.7s-0.3-1.3-0.7-1.7c-0.5-0.5-1.1-0.7-1.7-0.7s-1.3,0.3-1.7,0.7c-0.5,0.5-0.7,1.1-0.7,1.7
					s0.3,1.3,0.7,1.7C311.3,93.7,311.9,94,312.6,94z"/>
			</g>
		</g>
	</g>
</g>
<g id="matplotlib.axis_1">
	<g id="xtick_1">
		<g id="line2d_1">
			<g>
				<g>
					<path id="mc98582c2af" class="st2" d="M109.5,294.6v3.5"/>
				</g>
			</g>
		</g>
		<g id="text_1">
			<text transform="matrix(1 0 0 1 99.1356 312.2778)" class="st3 st4">0.0</text>
		</g>
	</g>
	<g id="xtick_2">
		<g id="line2d_2">
			<g>
				<g>
					<path id="mc98582c2af_00000101784279144893920780000014301811901095029413_" class="st2" d="M157.9,294.6v3.5"/>
				</g>
			</g>
		</g>
		<g id="text_2">
			<text transform="matrix(1 0 0 1 147.4919 312.2778)" class="st3 st4">0.1</text>
		</g>
	</g>
	<g id="xtick_3">
		<g id="line2d_3">
			<g>
				<g>
					<path id="mc98582c2af_00000097486166503868920620000018226165054692952458_" class="st2" d="M206.2,294.6v3.5"/>
				</g>
			</g>
		</g>
		<g id="text_3">
			<text transform="matrix(1 0 0 1 195.8483 312.2778)" class="st3 st4">0.2</text>
		</g>
	</g>
	<g id="xtick_4">
		<g id="line2d_4">
			<g>
				<g>
					<path id="mc98582c2af_00000138575000123095879900000002916181025887847053_" class="st2" d="M254.6,294.6v3.5"/>
				</g>
			</g>
		</g>
		<g id="text_4">
			<text transform="matrix(1 0 0 1 244.2047 312.2778)" class="st3 st4">0.3</text>
		</g>
	</g>
	<g id="xtick_5">
		<g id="line2d_5">
			<g>
				<g>
					<path id="mc98582c2af_00000005973577755662180490000015804217819610753212_" class="st2" d="M302.9,294.6v3.5"/>
				</g>
			</g>
		</g>
		<g id="text_5">
			<text transform="matrix(1 0 0 1 292.561 312.2778)" class="st3 st4">0.4</text>
		</g>
	</g>
	<g id="xtick_6">
		<g id="line2d_6">
			<g>
				<g>
					<path id="mc98582c2af_00000067221722389861114130000015043847951887109020_" class="st2" d="M351.3,294.6v3.5"/>
				</g>
			</g>
		</g>
		<g id="text_6">
			<text transform="matrix(1 0 0 1 340.9174 312.2778)" class="st3 st4">0.5</text>
		</g>
	</g>
	<g id="text_7">
		<text transform="matrix(1 0 0 1 193.8883 331.3469)" class="st3 st5">True FDR</text>
	</g>
</g>
<g id="matplotlib.axis_2">
	<g id="ytick_1">
		<g id="line2d_7">
			<g>
				<g>
					<path id="m225cc540ac" class="st2" d="M97.4,282.6h-3.5"/>
				</g>
			</g>
		</g>
		<g id="text_8">
			<text transform="matrix(1 0 0 1 69.6729 287.8698)" class="st3 st4">0.0</text>
		</g>
	</g>
	<g id="ytick_2">
		<g id="line2d_8">
			<g>
				<g>
					<path id="m225cc540ac_00000025418811861572192210000011463846904350316985_" class="st2" d="M97.4,234.2h-3.5"/>
				</g>
			</g>
		</g>
		<g id="text_9">
			<text transform="matrix(1 0 0 1 69.6729 239.5135)" class="st3 st4">0.1</text>
		</g>
	</g>
	<g id="ytick_3">
		<g id="line2d_9">
			<g>
				<g>
					<path id="m225cc540ac_00000120537192816091239260000016614615563818438846_" class="st2" d="M97.4,185.8h-3.5"/>
				</g>
			</g>
		</g>
		<g id="text_10">
			<text transform="matrix(1 0 0 1 69.6729 191.1571)" class="st3 st4">0.2</text>
		</g>
	</g>
	<g id="ytick_4">
		<g id="line2d_10">
			<g>
				<g>
					<path id="m225cc540ac_00000141446048795605159430000000851438813231354243_" class="st2" d="M97.4,137.5h-3.5"/>
				</g>
			</g>
		</g>
		<g id="text_11">
			<text transform="matrix(1 0 0 1 69.6729 142.8007)" class="st3 st4">0.3</text>
		</g>
	</g>
	<g id="ytick_5">
		<g id="line2d_11">
			<g>
				<g>
					<path id="m225cc540ac_00000070081914659966681020000009797240594901849236_" class="st2" d="M97.4,89.1h-3.5"/>
				</g>
			</g>
		</g>
		<g id="text_12">
			<text transform="matrix(1 0 0 1 69.6729 94.4444)" class="st3 st4">0.4</text>
		</g>
	</g>
	<g id="ytick_6">
		<g id="line2d_12">
			<g>
				<g>
					<path id="m225cc540ac_00000060019075807805479900000009646732795166319261_" class="st2" d="M97.4,40.8h-3.5"/>
				</g>
			</g>
		</g>
		<g id="text_13">
			<text transform="matrix(1 0 0 1 69.6729 46.088)" class="st3 st4">0.5</text>
		</g>
	</g>
	<g id="text_14">
		<text transform="matrix(6.123234e-17 -1 1 6.123234e-17 60.8281 216.5586)" class="st3 st5">Predicted FDR</text>
	</g>
</g>
<g id="line2d_13">
	<g>
		<defs>
			<rect id="SVGID_00000065042789364811447500000015764380273388652444_" x="97.4" y="28.7" width="266" height="266"/>
		</defs>
		<clipPath id="SVGID_00000152967377426460894710000015305977646655100319_">
			<use xlink:href="#SVGID_00000065042789364811447500000015764380273388652444_"  style="overflow:visible;"/>
		</clipPath>
		
			<path style="clip-path:url(#SVGID_00000152967377426460894710000015305977646655100319_);fill:none;stroke:#000000;stroke-width:2;stroke-linejoin:round;stroke-dasharray:7.4,3.2;" d="
			M109.5,282.6L351.3,40.8"/>
	</g>
</g>
<g id="line2d_14">
	<g>
		<defs>
			<rect id="SVGID_00000026136239850618852080000004989931172175372420_" x="97.4" y="28.7" width="266" height="266"/>
		</defs>
		<clipPath id="SVGID_00000078022815848657178800000010438840640517163671_">
			<use xlink:href="#SVGID_00000026136239850618852080000004989931172175372420_"  style="overflow:visible;"/>
		</clipPath>
		
			<path style="clip-path:url(#SVGID_00000078022815848657178800000010438840640517163671_);fill:none;stroke:#000000;stroke-width:2;stroke-linecap:square;stroke-linejoin:round;" d="
			M109.5,281.6L351.3,46.2"/>
	</g>
</g>
<g id="patch_3">
	<path class="st8" d="M97.4,294.6v-266"/>
</g>
<g id="patch_4">
	<path class="st8" d="M363.4,294.6v-266"/>
</g>
<g id="patch_5">
	<path class="st8" d="M97.4,294.6h266"/>
</g>
<g id="patch_6">
	<path class="st8" d="M97.4,28.7h266"/>
</g>
<g id="text_15">
	<g transform="translate(254.578182 234.194545)">
		<text transform="matrix(1 0 0 1 0 -0.5625)" class="st9 st5">R</text>
		<text transform="matrix(1 0 0 1 11.5547 -0.5625)" class="st9 st10"> </text>
		<text transform="matrix(1 0 0 1 12.2408 -6.6875)" class="st9 st11">2</text>
		<text transform="matrix(1 0 0 1 18.4697 -6.6875)" class="st9 st10"> </text>
		<text transform="matrix(1 0 0 1 19.8041 -0.5625)" class="st9 st5"> </text>
		<text transform="matrix(1 0 0 1 24.8901 -0.5625)" class="st9 st5">=</text>
		<text transform="matrix(1 0 0 1 38.2963 -0.5625)" class="st9 st5"> </text>
		<text transform="matrix(1 0 0 1 43.3823 -0.5625)" class="st9 st5">0</text>
		<text transform="matrix(1 0 0 1 53.562 -0.5625)" class="st9 st5">.</text>
		<text transform="matrix(1 0 0 1 58.6479 -0.5625)" class="st9 st5">9</text>
		<text transform="matrix(1 0 0 1 68.8276 -0.5625)" class="st9 st5">8</text>
	</g>
</g>
<g id="text_16">
	<text transform="matrix(1 0 0 1 121.9977 22.6801)" class="st3 st5">CV0.5_gamma5_05-14-2024</text>
</g>
</svg>
