<?xml version="1.0" encoding="utf-8"?>
<!-- Generator: Adobe Illustrator 28.0.0, SVG Export Plug-In . SVG Version: 6.00 Build 0)  -->
<svg version="1.1" id="Layer_1" xmlns="http://www.w3.org/2000/svg" xmlns:xlink="http://www.w3.org/1999/xlink" x="0px" y="0px"
	 viewBox="0 0 460.8 345.6" style="enable-background:new 0 0 460.8 345.6;" xml:space="preserve">
<style type="text/css">
	.st0{fill:#FFFFFF;}
	.st1{clip-path:url(#SVGID_00000055696009794063146030000009990839872145069968_);}
	.st2{fill:#0000FF;stroke:#0000FF;stroke-linejoin:round;}
	.st3{stroke:#000000;stroke-width:0.8;stroke-linejoin:round;}
	.st4{font-family:'LucidaBright';}
	.st5{font-size:14px;}
	.st6{font-size:16px;}
	
		.st7{clip-path:url(#SVGID_00000071532634514513359620000005286261298730618286_);fill:none;stroke:#000000;stroke-width:2;stroke-linejoin:round;stroke-dasharray:7.4,3.2;}
	
		.st8{clip-path:url(#SVGID_00000168796765511829942630000009447422477874966171_);fill:none;stroke:#000000;stroke-width:2;stroke-linecap:square;stroke-linejoin:round;}
	.st9{fill:none;stroke:#000000;stroke-width:0.8;stroke-linecap:square;}
	.st10{font-family:'ArialMT';}
	.st11{font-size:12px;}
	.st12{font-size:11.2px;}
</style>
<g id="axes_1">
	<g id="patch_2">
		<path class="st0" d="M97.4,294.6h266v-266h-266V294.6z"/>
	</g>
	<g id="PathCollection_1">
		<g>
			<defs>
				<rect id="SVGID_1_" x="97.4" y="28.7" width="266" height="266"/>
			</defs>
			<clipPath id="SVGID_00000118377420315660709810000009431826587350406792_">
				<use xlink:href="#SVGID_1_"  style="overflow:visible;"/>
			</clipPath>
			<g style="clip-path:url(#SVGID_00000118377420315660709810000009431826587350406792_);">
				<g>
					<path id="m2a1008c272" class="st2" d="M140.6,256.3c0.6,0,1.3-0.3,1.7-0.7c0.5-0.5,0.7-1.1,0.7-1.7s-0.3-1.3-0.7-1.7
						c-0.5-0.5-1.1-0.7-1.7-0.7s-1.3,0.3-1.7,0.7c-0.5,0.5-0.7,1.1-0.7,1.7s0.3,1.3,0.7,1.7C139.3,256,139.9,256.3,140.6,256.3z"/>
				</g>
				<g>
					<path id="m2a1008c272_00000090282624605110990620000016961690858780520076_" class="st2" d="M178.9,217.7
						c0.6,0,1.3-0.3,1.7-0.7c0.5-0.5,0.7-1.1,0.7-1.7s-0.3-1.3-0.7-1.7c-0.5-0.5-1.1-0.7-1.7-0.7s-1.3,0.3-1.7,0.7
						c-0.5,0.5-0.7,1.1-0.7,1.7s0.3,1.3,0.7,1.7C177.6,217.5,178.2,217.7,178.9,217.7z"/>
				</g>
				<g>
					<path id="m2a1008c272_00000119810874210767644530000008660236738492957079_" class="st2" d="M226.5,176c0.6,0,1.3-0.3,1.7-0.7
						c0.5-0.5,0.7-1.1,0.7-1.7s-0.3-1.3-0.7-1.7c-0.5-0.5-1.1-0.7-1.7-0.7s-1.3,0.3-1.7,0.7c-0.5,0.5-0.7,1.1-0.7,1.7
						s0.3,1.3,0.7,1.7C225.2,175.7,225.9,176,226.5,176z"/>
				</g>
				<g>
					<path id="m2a1008c272_00000061437380171759125600000006064278474008356536_" class="st2" d="M336.8,63.9c0.6,0,1.3-0.3,1.7-0.7
						c0.5-0.5,0.7-1.1,0.7-1.7s-0.3-1.3-0.7-1.7c-0.5-0.5-1.1-0.7-1.7-0.7s-1.3,0.3-1.7,0.7c-0.5,0.5-0.7,1.1-0.7,1.7
						s0.3,1.3,0.7,1.7C335.5,63.6,336.1,63.9,336.8,63.9z"/>
				</g>
				<g>
					<path id="m2a1008c272_00000175319864709341674660000005652239488634598550_" class="st2" d="M256.1,139.1
						c0.6,0,1.3-0.3,1.7-0.7c0.5-0.5,0.7-1.1,0.7-1.7s-0.3-1.3-0.7-1.7c-0.5-0.5-1.1-0.7-1.7-0.7c-0.6,0-1.3,0.3-1.7,0.7
						c-0.5,0.5-0.7,1.1-0.7,1.7s0.3,1.3,0.7,1.7C254.9,138.9,255.5,139.1,256.1,139.1z"/>
				</g>
				<g>
					<path id="m2a1008c272_00000166657410143306421150000010521729219295473322_" class="st2" d="M257.3,139c0.6,0,1.3-0.3,1.7-0.7
						c0.5-0.5,0.7-1.1,0.7-1.7s-0.3-1.3-0.7-1.7c-0.5-0.5-1.1-0.7-1.7-0.7s-1.3,0.3-1.7,0.7c-0.5,0.5-0.7,1.1-0.7,1.7
						s0.3,1.3,0.7,1.7C256,138.7,256.6,139,257.3,139z"/>
				</g>
				<g>
					<path id="m2a1008c272_00000159457396683776814250000009050633468279303565_" class="st2" d="M183.6,210.2
						c0.6,0,1.3-0.3,1.7-0.7c0.5-0.5,0.7-1.1,0.7-1.7s-0.3-1.3-0.7-1.7c-0.5-0.5-1.1-0.7-1.7-0.7s-1.3,0.3-1.7,0.7
						c-0.5,0.5-0.7,1.1-0.7,1.7s0.3,1.3,0.7,1.7C182.4,209.9,183,210.2,183.6,210.2z"/>
				</g>
				<g>
					<path id="m2a1008c272_00000022530546516288411290000006223549090421257602_" class="st2" d="M154.4,241.5
						c0.6,0,1.3-0.3,1.7-0.7c0.5-0.5,0.7-1.1,0.7-1.7s-0.3-1.3-0.7-1.7c-0.5-0.5-1.1-0.7-1.7-0.7s-1.3,0.3-1.7,0.7
						c-0.5,0.5-0.7,1.1-0.7,1.7s0.3,1.3,0.7,1.7C153.1,241.2,153.7,241.5,154.4,241.5z"/>
				</g>
				<g>
					<path id="m2a1008c272_00000094617027964230999740000007312199224347550875_" class="st2" d="M280.9,117.5
						c0.6,0,1.3-0.3,1.7-0.7c0.5-0.5,0.7-1.1,0.7-1.7s-0.3-1.3-0.7-1.7c-0.5-0.5-1.1-0.7-1.7-0.7s-1.3,0.3-1.7,0.7
						c-0.5,0.5-0.7,1.1-0.7,1.7s0.3,1.3,0.7,1.7C279.7,117.2,280.3,117.5,280.9,117.5z"/>
				</g>
				<g>
					<path id="m2a1008c272_00000149376860929525406040000018419278432843324592_" class="st2" d="M325.9,78.4c0.6,0,1.3-0.3,1.7-0.7
						c0.5-0.5,0.7-1.1,0.7-1.7s-0.3-1.3-0.7-1.7c-0.5-0.5-1.1-0.7-1.7-0.7s-1.3,0.3-1.7,0.7c-0.5,0.5-0.7,1.1-0.7,1.7
						s0.3,1.3,0.7,1.7C324.6,78.1,325.2,78.4,325.9,78.4z"/>
				</g>
				<g>
					<path id="m2a1008c272_00000016797391492867598580000013825722428528418436_" class="st2" d="M116.6,278.4
						c0.6,0,1.3-0.3,1.7-0.7c0.5-0.5,0.7-1.1,0.7-1.7c0-0.6-0.3-1.3-0.7-1.7c-0.5-0.5-1.1-0.7-1.7-0.7s-1.3,0.3-1.7,0.7
						c-0.5,0.5-0.7,1.1-0.7,1.7c0,0.6,0.3,1.3,0.7,1.7C115.3,278.1,116,278.4,116.6,278.4z"/>
				</g>
				<g>
					<path id="m2a1008c272_00000048502921708649353490000005452418450267372975_" class="st2" d="M143.7,250.8
						c0.6,0,1.3-0.3,1.7-0.7c0.5-0.5,0.7-1.1,0.7-1.7s-0.3-1.3-0.7-1.7c-0.5-0.5-1.1-0.7-1.7-0.7s-1.3,0.3-1.7,0.7
						c-0.5,0.5-0.7,1.1-0.7,1.7s0.3,1.3,0.7,1.7C142.4,250.5,143.1,250.8,143.7,250.8z"/>
				</g>
				<g>
					<path id="m2a1008c272_00000077317782039301240110000010137650605164838058_" class="st2" d="M275.4,137.6
						c0.6,0,1.3-0.3,1.7-0.7c0.5-0.5,0.7-1.1,0.7-1.7s-0.3-1.3-0.7-1.7c-0.5-0.5-1.1-0.7-1.7-0.7s-1.3,0.3-1.7,0.7
						c-0.5,0.5-0.7,1.1-0.7,1.7s0.3,1.3,0.7,1.7C274.1,137.3,274.7,137.6,275.4,137.6z"/>
				</g>
				<g>
					<path id="m2a1008c272_00000102539421675787663060000009591291550716086684_" class="st2" d="M307.8,77.7c0.6,0,1.3-0.3,1.7-0.7
						c0.5-0.5,0.7-1.1,0.7-1.7s-0.3-1.3-0.7-1.7c-0.5-0.5-1.1-0.7-1.7-0.7s-1.3,0.3-1.7,0.7c-0.5,0.5-0.7,1.1-0.7,1.7
						s0.3,1.3,0.7,1.7C306.5,77.4,307.2,77.7,307.8,77.7z"/>
				</g>
				<g>
					<path id="m2a1008c272_00000155122696887177948770000016301675576588570289_" class="st2" d="M274.2,116c0.6,0,1.3-0.3,1.7-0.7
						c0.5-0.5,0.7-1.1,0.7-1.7s-0.3-1.3-0.7-1.7c-0.5-0.5-1.1-0.7-1.7-0.7s-1.3,0.3-1.7,0.7c-0.5,0.5-0.7,1.1-0.7,1.7
						s0.3,1.3,0.7,1.7C273,115.7,273.6,116,274.2,116z"/>
				</g>
				<g>
					<path id="m2a1008c272_00000166663064990721600050000010306861784149377954_" class="st2" d="M261.8,132.8
						c0.6,0,1.3-0.3,1.7-0.7c0.5-0.5,0.7-1.1,0.7-1.7s-0.3-1.3-0.7-1.7c-0.5-0.5-1.1-0.7-1.7-0.7s-1.3,0.3-1.7,0.7
						c-0.5,0.5-0.7,1.1-0.7,1.7s0.3,1.3,0.7,1.7C260.6,132.5,261.2,132.8,261.8,132.8z"/>
				</g>
				<g>
					<path id="m2a1008c272_00000017505650834434760490000006767232507233234839_" class="st2" d="M322.1,82.1c0.6,0,1.3-0.3,1.7-0.7
						c0.5-0.5,0.7-1.1,0.7-1.7s-0.3-1.3-0.7-1.7c-0.5-0.5-1.1-0.7-1.7-0.7s-1.3,0.3-1.7,0.7c-0.5,0.5-0.7,1.1-0.7,1.7
						s0.3,1.3,0.7,1.7C320.9,81.8,321.5,82.1,322.1,82.1z"/>
				</g>
				<g>
					<path id="m2a1008c272_00000072272096254022072400000007241619325911073931_" class="st2" d="M204.9,192.9
						c0.6,0,1.3-0.3,1.7-0.7c0.5-0.5,0.7-1.1,0.7-1.7s-0.3-1.3-0.7-1.7c-0.5-0.5-1.1-0.7-1.7-0.7s-1.3,0.3-1.7,0.7
						c-0.5,0.5-0.7,1.1-0.7,1.7s0.3,1.3,0.7,1.7C203.7,192.7,204.3,192.9,204.9,192.9z"/>
				</g>
				<g>
					<path id="m2a1008c272_00000007428158815925382370000006556041987759227575_" class="st2" d="M345.5,64.4c0.6,0,1.3-0.3,1.7-0.7
						c0.5-0.5,0.7-1.1,0.7-1.7s-0.3-1.3-0.7-1.7c-0.5-0.5-1.1-0.7-1.7-0.7s-1.3,0.3-1.7,0.7c-0.5,0.5-0.7,1.1-0.7,1.7
						s0.3,1.3,0.7,1.7C344.2,64.2,344.8,64.4,345.5,64.4z"/>
				</g>
				<g>
					<path id="m2a1008c272_00000165219883669484593650000014748090177963145600_" class="st2" d="M202.6,194.2
						c0.6,0,1.3-0.3,1.7-0.7c0.5-0.5,0.7-1.1,0.7-1.7s-0.3-1.3-0.7-1.7c-0.5-0.5-1.1-0.7-1.7-0.7s-1.3,0.3-1.7,0.7
						c-0.5,0.5-0.7,1.1-0.7,1.7s0.3,1.3,0.7,1.7C201.4,194,202,194.2,202.6,194.2z"/>
				</g>
				<g>
					<path id="m2a1008c272_00000176036952850934035400000009888092466688593578_" class="st2" d="M288.3,106.4
						c0.6,0,1.3-0.3,1.7-0.7c0.5-0.5,0.7-1.1,0.7-1.7s-0.3-1.3-0.7-1.7c-0.5-0.5-1.1-0.7-1.7-0.7s-1.3,0.3-1.7,0.7
						c-0.5,0.5-0.7,1.1-0.7,1.7s0.3,1.3,0.7,1.7C287,106.1,287.7,106.4,288.3,106.4z"/>
				</g>
				<g>
					<path id="m2a1008c272_00000141435314956422063370000013452241439539081625_" class="st2" d="M200.2,200.5
						c0.6,0,1.3-0.3,1.7-0.7c0.5-0.5,0.7-1.1,0.7-1.7s-0.3-1.3-0.7-1.7c-0.5-0.5-1.1-0.7-1.7-0.7s-1.3,0.3-1.7,0.7
						c-0.5,0.5-0.7,1.1-0.7,1.7s0.3,1.3,0.7,1.7C198.9,200.2,199.5,200.5,200.2,200.5z"/>
				</g>
				<g>
					<path id="m2a1008c272_00000088855837656859973500000009707104706863300273_" class="st2" d="M201.5,194.9
						c0.6,0,1.3-0.3,1.7-0.7c0.5-0.5,0.7-1.1,0.7-1.7s-0.3-1.3-0.7-1.7c-0.5-0.5-1.1-0.7-1.7-0.7s-1.3,0.3-1.7,0.7
						c-0.5,0.5-0.7,1.1-0.7,1.7s0.3,1.3,0.7,1.7C200.2,194.7,200.8,194.9,201.5,194.9z"/>
				</g>
				<g>
					<path id="m2a1008c272_00000106124991175660902620000017994080656001484963_" class="st2" d="M318.6,78.9c0.6,0,1.3-0.3,1.7-0.7
						c0.5-0.5,0.7-1.1,0.7-1.7s-0.3-1.3-0.7-1.7c-0.5-0.5-1.1-0.7-1.7-0.7s-1.3,0.3-1.7,0.7c-0.5,0.5-0.7,1.1-0.7,1.7
						s0.3,1.3,0.7,1.7C317.3,78.6,317.9,78.9,318.6,78.9z"/>
				</g>
				<g>
					<path id="m2a1008c272_00000116938640219789666420000016121810396082129086_" class="st2" d="M161.6,236.6
						c0.6,0,1.3-0.3,1.7-0.7c0.5-0.5,0.7-1.1,0.7-1.7s-0.3-1.3-0.7-1.7c-0.5-0.5-1.1-0.7-1.7-0.7s-1.3,0.3-1.7,0.7
						c-0.5,0.5-0.7,1.1-0.7,1.7s0.3,1.3,0.7,1.7C160.3,236.3,160.9,236.6,161.6,236.6z"/>
				</g>
				<g>
					<path id="m2a1008c272_00000163071947238498119870000000525592947457795760_" class="st2" d="M169.8,229.2
						c0.6,0,1.3-0.3,1.7-0.7c0.5-0.5,0.7-1.1,0.7-1.7s-0.3-1.3-0.7-1.7c-0.5-0.5-1.1-0.7-1.7-0.7s-1.3,0.3-1.7,0.7
						c-0.5,0.5-0.7,1.1-0.7,1.7s0.3,1.3,0.7,1.7C168.6,229,169.2,229.2,169.8,229.2z"/>
				</g>
				<g>
					<path id="m2a1008c272_00000024696394098833036010000010638241674979910288_" class="st2" d="M185.5,210.3
						c0.6,0,1.3-0.3,1.7-0.7c0.5-0.5,0.7-1.1,0.7-1.7s-0.3-1.3-0.7-1.7c-0.5-0.5-1.1-0.7-1.7-0.7s-1.3,0.3-1.7,0.7
						c-0.5,0.5-0.7,1.1-0.7,1.7s0.3,1.3,0.7,1.7C184.2,210,184.8,210.3,185.5,210.3z"/>
				</g>
				<g>
					<path id="m2a1008c272_00000180357594159374716190000013083382275072332182_" class="st2" d="M329.9,66.1c0.6,0,1.3-0.3,1.7-0.7
						s0.7-1.1,0.7-1.7c0-0.6-0.3-1.3-0.7-1.7c-0.5-0.5-1.1-0.7-1.7-0.7s-1.3,0.3-1.7,0.7c-0.5,0.5-0.7,1.1-0.7,1.7
						c0,0.6,0.3,1.3,0.7,1.7S329.3,66.1,329.9,66.1z"/>
				</g>
				<g>
					<path id="m2a1008c272_00000014622711168200964030000004261946988051893438_" class="st2" d="M316.7,103.3
						c0.6,0,1.3-0.3,1.7-0.7c0.5-0.5,0.7-1.1,0.7-1.7s-0.3-1.3-0.7-1.7c-0.5-0.5-1.1-0.7-1.7-0.7s-1.3,0.3-1.7,0.7
						c-0.5,0.5-0.7,1.1-0.7,1.7s0.3,1.3,0.7,1.7C315.4,103.1,316,103.3,316.7,103.3z"/>
				</g>
				<g>
					<path id="m2a1008c272_00000016754876092209044130000011816717977845444240_" class="st2" d="M151.8,241.7
						c0.6,0,1.3-0.3,1.7-0.7c0.5-0.5,0.7-1.1,0.7-1.7s-0.3-1.3-0.7-1.7c-0.5-0.5-1.1-0.7-1.7-0.7s-1.3,0.3-1.7,0.7
						c-0.5,0.5-0.7,1.1-0.7,1.7s0.3,1.3,0.7,1.7C150.6,241.4,151.2,241.7,151.8,241.7z"/>
				</g>
				<g>
					<path id="m2a1008c272_00000038411913765868046940000001035371590064045745_" class="st2" d="M128.8,266.3
						c0.6,0,1.3-0.3,1.7-0.7c0.5-0.5,0.7-1.1,0.7-1.7c0-0.6-0.3-1.3-0.7-1.7c-0.5-0.5-1.1-0.7-1.7-0.7s-1.3,0.3-1.7,0.7
						c-0.5,0.5-0.7,1.1-0.7,1.7c0,0.6,0.3,1.3,0.7,1.7C127.5,266,128.1,266.3,128.8,266.3z"/>
				</g>
				<g>
					<path id="m2a1008c272_00000096737934838892604130000004745350104560369313_" class="st2" d="M350.9,43.2c0.6,0,1.3-0.3,1.7-0.7
						c0.5-0.5,0.7-1.1,0.7-1.7s-0.3-1.3-0.7-1.7c-0.5-0.5-1.1-0.7-1.7-0.7s-1.3,0.3-1.7,0.7c-0.5,0.5-0.7,1.1-0.7,1.7
						s0.3,1.3,0.7,1.7C349.6,43,350.3,43.2,350.9,43.2z"/>
				</g>
				<g>
					<path id="m2a1008c272_00000072253333342482388930000007851932217084315276_" class="st2" d="M163.5,232.5
						c0.6,0,1.3-0.3,1.7-0.7c0.5-0.5,0.7-1.1,0.7-1.7s-0.3-1.3-0.7-1.7c-0.5-0.5-1.1-0.7-1.7-0.7s-1.3,0.3-1.7,0.7
						c-0.5,0.5-0.7,1.1-0.7,1.7s0.3,1.3,0.7,1.7C162.3,232.3,162.9,232.5,163.5,232.5z"/>
				</g>
				<g>
					<path id="m2a1008c272_00000183961924024652189510000001434586512074850975_" class="st2" d="M325,73.4c0.6,0,1.3-0.3,1.7-0.7
						c0.5-0.5,0.7-1.1,0.7-1.7s-0.3-1.3-0.7-1.7c-0.5-0.5-1.1-0.7-1.7-0.7s-1.3,0.3-1.7,0.7c-0.5,0.5-0.7,1.1-0.7,1.7
						s0.3,1.3,0.7,1.7C323.7,73.2,324.4,73.4,325,73.4z"/>
				</g>
				<g>
					<path id="m2a1008c272_00000129887040116476146610000006918383427803671464_" class="st2" d="M256.3,155.2
						c0.6,0,1.3-0.3,1.7-0.7c0.5-0.5,0.7-1.1,0.7-1.7s-0.3-1.3-0.7-1.7c-0.5-0.5-1.1-0.7-1.7-0.7c-0.6,0-1.3,0.3-1.7,0.7
						c-0.5,0.5-0.7,1.1-0.7,1.7s0.3,1.3,0.7,1.7C255,155,255.6,155.2,256.3,155.2z"/>
				</g>
				<g>
					<path id="m2a1008c272_00000001648927466659127810000010227968906924006059_" class="st2" d="M252.5,148.2
						c0.6,0,1.3-0.3,1.7-0.7c0.5-0.5,0.7-1.1,0.7-1.7s-0.3-1.3-0.7-1.7c-0.5-0.5-1.1-0.7-1.7-0.7s-1.3,0.3-1.7,0.7
						c-0.5,0.5-0.7,1.1-0.7,1.7s0.3,1.3,0.7,1.7C251.2,148,251.8,148.2,252.5,148.2z"/>
				</g>
				<g>
					<path id="m2a1008c272_00000092429165468986851610000010011924104387908741_" class="st2" d="M192.4,201.7
						c0.6,0,1.3-0.3,1.7-0.7c0.5-0.5,0.7-1.1,0.7-1.7s-0.3-1.3-0.7-1.7c-0.5-0.5-1.1-0.7-1.7-0.7s-1.3,0.3-1.7,0.7
						c-0.5,0.5-0.7,1.1-0.7,1.7s0.3,1.3,0.7,1.7C191.1,201.5,191.8,201.7,192.4,201.7z"/>
				</g>
				<g>
					<path id="m2a1008c272_00000094584925678949193720000003338827715796841144_" class="st2" d="M179.4,213.6
						c0.6,0,1.3-0.3,1.7-0.7c0.5-0.5,0.7-1.1,0.7-1.7s-0.3-1.3-0.7-1.7c-0.5-0.5-1.1-0.7-1.7-0.7s-1.3,0.3-1.7,0.7
						c-0.5,0.5-0.7,1.1-0.7,1.7s0.3,1.3,0.7,1.7C178.1,213.3,178.8,213.6,179.4,213.6z"/>
				</g>
				<g>
					<path id="m2a1008c272_00000026869995586441182600000010286765972624879028_" class="st2" d="M301.5,97.6c0.6,0,1.3-0.3,1.7-0.7
						c0.5-0.5,0.7-1.1,0.7-1.7s-0.3-1.3-0.7-1.7c-0.5-0.5-1.1-0.7-1.7-0.7s-1.3,0.3-1.7,0.7c-0.5,0.5-0.7,1.1-0.7,1.7
						s0.3,1.3,0.7,1.7C300.2,97.3,300.9,97.6,301.5,97.6z"/>
				</g>
				<g>
					<path id="m2a1008c272_00000039135727904225047790000000966704113066311356_" class="st2" d="M288.3,113.6
						c0.6,0,1.3-0.3,1.7-0.7c0.5-0.5,0.7-1.1,0.7-1.7s-0.3-1.3-0.7-1.7c-0.5-0.5-1.1-0.7-1.7-0.7s-1.3,0.3-1.7,0.7
						c-0.5,0.5-0.7,1.1-0.7,1.7s0.3,1.3,0.7,1.7C287,113.4,287.6,113.6,288.3,113.6z"/>
				</g>
				<g>
					<path id="m2a1008c272_00000004527605474439095910000018199936701524286884_" class="st2" d="M258.7,146c0.6,0,1.3-0.3,1.7-0.7
						c0.5-0.5,0.7-1.1,0.7-1.7s-0.3-1.3-0.7-1.7c-0.5-0.5-1.1-0.7-1.7-0.7s-1.3,0.3-1.7,0.7c-0.5,0.5-0.7,1.1-0.7,1.7
						s0.3,1.3,0.7,1.7C257.5,145.7,258.1,146,258.7,146z"/>
				</g>
				<g>
					<path id="m2a1008c272_00000066494193317705932160000011507077985394607774_" class="st2" d="M162.8,233.5
						c0.6,0,1.3-0.3,1.7-0.7c0.5-0.5,0.7-1.1,0.7-1.7s-0.3-1.3-0.7-1.7c-0.5-0.5-1.1-0.7-1.7-0.7s-1.3,0.3-1.7,0.7
						c-0.5,0.5-0.7,1.1-0.7,1.7s0.3,1.3,0.7,1.7C161.5,233.2,162.1,233.5,162.8,233.5z"/>
				</g>
				<g>
					<path id="m2a1008c272_00000017511226192250242300000001097780306707107995_" class="st2" d="M131.6,261.7
						c0.6,0,1.3-0.3,1.7-0.7c0.5-0.5,0.7-1.1,0.7-1.7c0-0.6-0.3-1.3-0.7-1.7c-0.5-0.5-1.1-0.7-1.7-0.7s-1.3,0.3-1.7,0.7
						c-0.5,0.5-0.7,1.1-0.7,1.7c0,0.6,0.3,1.3,0.7,1.7C130.3,261.4,130.9,261.7,131.6,261.7z"/>
				</g>
				<g>
					<path id="m2a1008c272_00000012432386375124017200000009559233661434546066_" class="st2" d="M344.1,43.2c0.6,0,1.3-0.3,1.7-0.7
						c0.5-0.5,0.7-1.1,0.7-1.7s-0.3-1.3-0.7-1.7c-0.5-0.5-1.1-0.7-1.7-0.7s-1.3,0.3-1.7,0.7c-0.5,0.5-0.7,1.1-0.7,1.7
						s0.3,1.3,0.7,1.7C342.8,43,343.4,43.2,344.1,43.2z"/>
				</g>
				<g>
					<path id="m2a1008c272_00000096769169188852187830000006977799713132590765_" class="st2" d="M226.9,174.9
						c0.6,0,1.3-0.3,1.7-0.7c0.5-0.5,0.7-1.1,0.7-1.7s-0.3-1.3-0.7-1.7c-0.5-0.5-1.1-0.7-1.7-0.7s-1.3,0.3-1.7,0.7
						c-0.5,0.5-0.7,1.1-0.7,1.7s0.3,1.3,0.7,1.7C225.6,174.7,226.2,174.9,226.9,174.9z"/>
				</g>
				<g>
					<path id="m2a1008c272_00000142151923091659590680000003420874369059216799_" class="st2" d="M346.5,45.7c0.6,0,1.3-0.3,1.7-0.7
						c0.5-0.5,0.7-1.1,0.7-1.7s-0.3-1.3-0.7-1.7c-0.5-0.5-1.1-0.7-1.7-0.7s-1.3,0.3-1.7,0.7c-0.5,0.5-0.7,1.1-0.7,1.7
						s0.3,1.3,0.7,1.7C345.2,45.5,345.9,45.7,346.5,45.7z"/>
				</g>
				<g>
					<path id="m2a1008c272_00000083784136559946741170000000544656977009502876_" class="st2" d="M232.2,157.9
						c0.6,0,1.3-0.3,1.7-0.7c0.5-0.5,0.7-1.1,0.7-1.7s-0.3-1.3-0.7-1.7c-0.5-0.5-1.1-0.7-1.7-0.7s-1.3,0.3-1.7,0.7
						c-0.5,0.5-0.7,1.1-0.7,1.7s0.3,1.3,0.7,1.7C230.9,157.6,231.5,157.9,232.2,157.9z"/>
				</g>
				<g>
					<path id="m2a1008c272_00000084510382565762879950000013886552759439084978_" class="st2" d="M130.9,261.8
						c0.6,0,1.3-0.3,1.7-0.7c0.5-0.5,0.7-1.1,0.7-1.7c0-0.6-0.3-1.3-0.7-1.7c-0.5-0.5-1.1-0.7-1.7-0.7s-1.3,0.3-1.7,0.7
						c-0.5,0.5-0.7,1.1-0.7,1.7c0,0.6,0.3,1.3,0.7,1.7C129.7,261.5,130.3,261.8,130.9,261.8z"/>
				</g>
				<g>
					<path id="m2a1008c272_00000163049656873626149220000009035159158469097607_" class="st2" d="M144.2,253.8
						c0.6,0,1.3-0.3,1.7-0.7c0.5-0.5,0.7-1.1,0.7-1.7s-0.3-1.3-0.7-1.7c-0.5-0.5-1.1-0.7-1.7-0.7s-1.3,0.3-1.7,0.7
						c-0.5,0.5-0.7,1.1-0.7,1.7s0.3,1.3,0.7,1.7C142.9,253.5,143.5,253.8,144.2,253.8z"/>
				</g>
				<g>
					<path id="m2a1008c272_00000035494413062355735250000000803864756938807435_" class="st2" d="M223,173.9c0.6,0,1.3-0.3,1.7-0.7
						c0.5-0.5,0.7-1.1,0.7-1.7s-0.3-1.3-0.7-1.7c-0.5-0.5-1.1-0.7-1.7-0.7s-1.3,0.3-1.7,0.7c-0.5,0.5-0.7,1.1-0.7,1.7
						s0.3,1.3,0.7,1.7C221.7,173.6,222.3,173.9,223,173.9z"/>
				</g>
				<g>
					<path id="m2a1008c272_00000055671873695564631330000014770247902825814461_" class="st2" d="M340.8,50.4c0.6,0,1.3-0.3,1.7-0.7
						c0.5-0.5,0.7-1.1,0.7-1.7s-0.3-1.3-0.7-1.7c-0.5-0.5-1.1-0.7-1.7-0.7s-1.3,0.3-1.7,0.7c-0.5,0.5-0.7,1.1-0.7,1.7
						s0.3,1.3,0.7,1.7C339.6,50.1,340.2,50.4,340.8,50.4z"/>
				</g>
				<g>
					<path id="m2a1008c272_00000067946347574272036790000001735783773264338835_" class="st2" d="M339.4,56.6c0.6,0,1.3-0.3,1.7-0.7
						c0.5-0.5,0.7-1.1,0.7-1.7s-0.3-1.3-0.7-1.7c-0.5-0.5-1.1-0.7-1.7-0.7s-1.3,0.3-1.7,0.7c-0.5,0.5-0.7,1.1-0.7,1.7
						s0.3,1.3,0.7,1.7C338.1,56.4,338.7,56.6,339.4,56.6z"/>
				</g>
				<g>
					<path id="m2a1008c272_00000024694244297904980890000017791240307413680812_" class="st2" d="M348.9,43.2c0.6,0,1.3-0.3,1.7-0.7
						c0.5-0.5,0.7-1.1,0.7-1.7s-0.3-1.3-0.7-1.7c-0.5-0.5-1.1-0.7-1.7-0.7s-1.3,0.3-1.7,0.7c-0.5,0.5-0.7,1.1-0.7,1.7
						s0.3,1.3,0.7,1.7C347.6,43,348.2,43.2,348.9,43.2z"/>
				</g>
				<g>
					<path id="m2a1008c272_00000058547971997615346870000018202099194178854809_" class="st2" d="M207.9,190.7
						c0.6,0,1.3-0.3,1.7-0.7c0.5-0.5,0.7-1.1,0.7-1.7s-0.3-1.3-0.7-1.7c-0.5-0.5-1.1-0.7-1.7-0.7s-1.3,0.3-1.7,0.7
						c-0.5,0.5-0.7,1.1-0.7,1.7s0.3,1.3,0.7,1.7C206.6,190.4,207.2,190.7,207.9,190.7z"/>
				</g>
				<g>
					<path id="m2a1008c272_00000173142926028791771920000016154428397191612044_" class="st2" d="M325.4,76.6c0.6,0,1.3-0.3,1.7-0.7
						c0.5-0.5,0.7-1.1,0.7-1.7s-0.3-1.3-0.7-1.7c-0.5-0.5-1.1-0.7-1.7-0.7s-1.3,0.3-1.7,0.7c-0.5,0.5-0.7,1.1-0.7,1.7
						s0.3,1.3,0.7,1.7C324.2,76.4,324.8,76.6,325.4,76.6z"/>
				</g>
				<g>
					<path id="m2a1008c272_00000136369641939883148960000014621602640740567452_" class="st2" d="M211,187.1c0.6,0,1.3-0.3,1.7-0.7
						c0.5-0.5,0.7-1.1,0.7-1.7s-0.3-1.3-0.7-1.7c-0.5-0.5-1.1-0.7-1.7-0.7s-1.3,0.3-1.7,0.7c-0.5,0.5-0.7,1.1-0.7,1.7
						s0.3,1.3,0.7,1.7C209.7,186.9,210.3,187.1,211,187.1z"/>
				</g>
				<g>
					<path id="m2a1008c272_00000059279194103588180340000012206790924153893256_" class="st2" d="M173.5,219.1
						c0.6,0,1.3-0.3,1.7-0.7c0.5-0.5,0.7-1.1,0.7-1.7s-0.3-1.3-0.7-1.7c-0.5-0.5-1.1-0.7-1.7-0.7s-1.3,0.3-1.7,0.7
						c-0.5,0.5-0.7,1.1-0.7,1.7s0.3,1.3,0.7,1.7C172.2,218.9,172.8,219.1,173.5,219.1z"/>
				</g>
				<g>
					<path id="m2a1008c272_00000090256665839858793640000017614100344337530260_" class="st2" d="M117.8,277.9
						c0.6,0,1.3-0.3,1.7-0.7c0.5-0.5,0.7-1.1,0.7-1.7c0-0.6-0.3-1.3-0.7-1.7c-0.5-0.5-1.1-0.7-1.7-0.7s-1.3,0.3-1.7,0.7
						c-0.5,0.5-0.7,1.1-0.7,1.7c0,0.6,0.3,1.3,0.7,1.7C116.6,277.6,117.2,277.9,117.8,277.9z"/>
				</g>
				<g>
					<path id="m2a1008c272_00000065046822235949441030000013873876260392439428_" class="st2" d="M230.6,164.8
						c0.6,0,1.3-0.3,1.7-0.7c0.5-0.5,0.7-1.1,0.7-1.7s-0.3-1.3-0.7-1.7c-0.5-0.5-1.1-0.7-1.7-0.7s-1.3,0.3-1.7,0.7
						c-0.5,0.5-0.7,1.1-0.7,1.7s0.3,1.3,0.7,1.7C229.4,164.6,230,164.8,230.6,164.8z"/>
				</g>
				<g>
					<path id="m2a1008c272_00000133500830992857417310000014312059088528350894_" class="st2" d="M256.9,140.1
						c0.6,0,1.3-0.3,1.7-0.7c0.5-0.5,0.7-1.1,0.7-1.7s-0.3-1.3-0.7-1.7c-0.5-0.5-1.1-0.7-1.7-0.7s-1.3,0.3-1.7,0.7
						c-0.5,0.5-0.7,1.1-0.7,1.7s0.3,1.3,0.7,1.7C255.6,139.8,256.2,140.1,256.9,140.1z"/>
				</g>
				<g>
					<path id="m2a1008c272_00000124874926659043132620000001493363144238549680_" class="st2" d="M131.2,262.4
						c0.6,0,1.3-0.3,1.7-0.7c0.5-0.5,0.7-1.1,0.7-1.7c0-0.6-0.3-1.3-0.7-1.7c-0.5-0.5-1.1-0.7-1.7-0.7s-1.3,0.3-1.7,0.7
						c-0.5,0.5-0.7,1.1-0.7,1.7c0,0.6,0.3,1.3,0.7,1.7C129.9,262.1,130.5,262.4,131.2,262.4z"/>
				</g>
				<g>
					<path id="m2a1008c272_00000116225008281300061420000007895474850935025850_" class="st2" d="M116.8,278.7
						c0.6,0,1.3-0.3,1.7-0.7c0.5-0.5,0.7-1.1,0.7-1.7c0-0.6-0.3-1.3-0.7-1.7c-0.5-0.5-1.1-0.7-1.7-0.7s-1.3,0.3-1.7,0.7
						c-0.5,0.5-0.7,1.1-0.7,1.7c0,0.6,0.3,1.3,0.7,1.7C115.6,278.4,116.2,278.7,116.8,278.7z"/>
				</g>
				<g>
					<path id="m2a1008c272_00000165203694697875747760000009649239699521034892_" class="st2" d="M254.5,144.7
						c0.6,0,1.3-0.3,1.7-0.7c0.5-0.5,0.7-1.1,0.7-1.7s-0.3-1.3-0.7-1.7c-0.5-0.5-1.1-0.7-1.7-0.7s-1.3,0.3-1.7,0.7
						c-0.5,0.5-0.7,1.1-0.7,1.7s0.3,1.3,0.7,1.7C253.2,144.4,253.8,144.7,254.5,144.7z"/>
				</g>
				<g>
					<path id="m2a1008c272_00000090996205208559500660000008023976869691673225_" class="st2" d="M351.2,60.3c0.6,0,1.3-0.3,1.7-0.7
						c0.5-0.5,0.7-1.1,0.7-1.7s-0.3-1.3-0.7-1.7c-0.5-0.5-1.1-0.7-1.7-0.7s-1.3,0.3-1.7,0.7c-0.5,0.5-0.7,1.1-0.7,1.7
						s0.3,1.3,0.7,1.7C349.9,60,350.6,60.3,351.2,60.3z"/>
				</g>
				<g>
					<path id="m2a1008c272_00000183228672546244757170000003721168852062311319_" class="st2" d="M213.1,185.7
						c0.6,0,1.3-0.3,1.7-0.7c0.5-0.5,0.7-1.1,0.7-1.7s-0.3-1.3-0.7-1.7c-0.5-0.5-1.1-0.7-1.7-0.7s-1.3,0.3-1.7,0.7
						c-0.5,0.5-0.7,1.1-0.7,1.7s0.3,1.3,0.7,1.7C211.8,185.4,212.4,185.7,213.1,185.7z"/>
				</g>
				<g>
					<path id="m2a1008c272_00000093161241902876403490000009649947373575709827_" class="st2" d="M170.1,223.1
						c0.6,0,1.3-0.3,1.7-0.7c0.5-0.5,0.7-1.1,0.7-1.7s-0.3-1.3-0.7-1.7c-0.5-0.5-1.1-0.7-1.7-0.7s-1.3,0.3-1.7,0.7
						c-0.5,0.5-0.7,1.1-0.7,1.7s0.3,1.3,0.7,1.7C168.8,222.8,169.4,223.1,170.1,223.1z"/>
				</g>
				<g>
					<path id="m2a1008c272_00000007414973491137495120000009809341167108957096_" class="st2" d="M301,87.2c0.6,0,1.3-0.3,1.7-0.7
						c0.5-0.5,0.7-1.1,0.7-1.7s-0.3-1.3-0.7-1.7c-0.5-0.5-1.1-0.7-1.7-0.7s-1.3,0.3-1.7,0.7c-0.5,0.5-0.7,1.1-0.7,1.7
						s0.3,1.3,0.7,1.7C299.7,87,300.4,87.2,301,87.2z"/>
				</g>
				<g>
					<path id="m2a1008c272_00000012442554085696930700000006385458223259472293_" class="st2" d="M223.7,171.1
						c0.6,0,1.3-0.3,1.7-0.7c0.5-0.5,0.7-1.1,0.7-1.7s-0.3-1.3-0.7-1.7c-0.5-0.5-1.1-0.7-1.7-0.7s-1.3,0.3-1.7,0.7
						c-0.5,0.5-0.7,1.1-0.7,1.7s0.3,1.3,0.7,1.7C222.5,170.8,223.1,171.1,223.7,171.1z"/>
				</g>
				<g>
					<path id="m2a1008c272_00000167373837861489038120000003239057622755211694_" class="st2" d="M325.8,65.6c0.6,0,1.3-0.3,1.7-0.7
						c0.5-0.5,0.7-1.1,0.7-1.7s-0.3-1.3-0.7-1.7c-0.5-0.5-1.1-0.7-1.7-0.7s-1.3,0.3-1.7,0.7c-0.5,0.5-0.7,1.1-0.7,1.7
						s0.3,1.3,0.7,1.7C324.5,65.3,325.1,65.6,325.8,65.6z"/>
				</g>
				<g>
					<path id="m2a1008c272_00000116217675867605234630000011813543671803956879_" class="st2" d="M213.2,180.9
						c0.6,0,1.3-0.3,1.7-0.7c0.5-0.5,0.7-1.1,0.7-1.7s-0.3-1.3-0.7-1.7c-0.5-0.5-1.1-0.7-1.7-0.7s-1.3,0.3-1.7,0.7
						c-0.5,0.5-0.7,1.1-0.7,1.7s0.3,1.3,0.7,1.7C212,180.6,212.6,180.9,213.2,180.9z"/>
				</g>
				<g>
					<path id="m2a1008c272_00000026873341214894042420000011420058007558501299_" class="st2" d="M123.4,271.1
						c0.6,0,1.3-0.3,1.7-0.7c0.5-0.5,0.7-1.1,0.7-1.7c0-0.6-0.3-1.3-0.7-1.7c-0.5-0.5-1.1-0.7-1.7-0.7s-1.3,0.3-1.7,0.7
						c-0.5,0.5-0.7,1.1-0.7,1.7c0,0.6,0.3,1.3,0.7,1.7C122.2,270.9,122.8,271.1,123.4,271.1z"/>
				</g>
				<g>
					<path id="m2a1008c272_00000062186595208720514330000009931106310459906460_" class="st2" d="M289.6,129.8
						c0.6,0,1.3-0.3,1.7-0.7c0.5-0.5,0.7-1.1,0.7-1.7s-0.3-1.3-0.7-1.7c-0.5-0.5-1.1-0.7-1.7-0.7s-1.3,0.3-1.7,0.7
						c-0.5,0.5-0.7,1.1-0.7,1.7s0.3,1.3,0.7,1.7C288.3,129.5,289,129.8,289.6,129.8z"/>
				</g>
				<g>
					<path id="m2a1008c272_00000111887077457638603210000007510072553080290183_" class="st2" d="M146.7,251.9
						c0.6,0,1.3-0.3,1.7-0.7c0.5-0.5,0.7-1.1,0.7-1.7s-0.3-1.3-0.7-1.7c-0.5-0.5-1.1-0.7-1.7-0.7s-1.3,0.3-1.7,0.7
						c-0.5,0.5-0.7,1.1-0.7,1.7s0.3,1.3,0.7,1.7C145.5,251.6,146.1,251.9,146.7,251.9z"/>
				</g>
				<g>
					<path id="m2a1008c272_00000126286802042650930110000004553535771336186811_" class="st2" d="M181.9,217.6
						c0.6,0,1.3-0.3,1.7-0.7c0.5-0.5,0.7-1.1,0.7-1.7s-0.3-1.3-0.7-1.7c-0.5-0.5-1.1-0.7-1.7-0.7s-1.3,0.3-1.7,0.7
						c-0.5,0.5-0.7,1.1-0.7,1.7s0.3,1.3,0.7,1.7C180.6,217.3,181.2,217.6,181.9,217.6z"/>
				</g>
				<g>
					<path id="m2a1008c272_00000056389881252764638340000003279604396679994780_" class="st2" d="M147.5,245.7
						c0.6,0,1.3-0.3,1.7-0.7c0.5-0.5,0.7-1.1,0.7-1.7s-0.3-1.3-0.7-1.7c-0.5-0.5-1.1-0.7-1.7-0.7s-1.3,0.3-1.7,0.7
						c-0.5,0.5-0.7,1.1-0.7,1.7s0.3,1.3,0.7,1.7C146.3,245.5,146.9,245.7,147.5,245.7z"/>
				</g>
				<g>
					<path id="m2a1008c272_00000101093570599997483080000016170760411231905687_" class="st2" d="M251.9,135.1
						c0.6,0,1.3-0.3,1.7-0.7c0.5-0.5,0.7-1.1,0.7-1.7s-0.3-1.3-0.7-1.7c-0.5-0.5-1.1-0.7-1.7-0.7s-1.3,0.3-1.7,0.7
						c-0.5,0.5-0.7,1.1-0.7,1.7s0.3,1.3,0.7,1.7C250.6,134.9,251.3,135.1,251.9,135.1z"/>
				</g>
				<g>
					<path id="m2a1008c272_00000180368501781117786910000000558994645884170933_" class="st2" d="M209.4,186.5
						c0.6,0,1.3-0.3,1.7-0.7c0.5-0.5,0.7-1.1,0.7-1.7s-0.3-1.3-0.7-1.7c-0.5-0.5-1.1-0.7-1.7-0.7s-1.3,0.3-1.7,0.7
						c-0.5,0.5-0.7,1.1-0.7,1.7s0.3,1.3,0.7,1.7C208.2,186.3,208.8,186.5,209.4,186.5z"/>
				</g>
				<g>
					<path id="m2a1008c272_00000002363830183890471180000007926728857831115150_" class="st2" d="M258.9,134c0.6,0,1.3-0.3,1.7-0.7
						c0.5-0.5,0.7-1.1,0.7-1.7s-0.3-1.3-0.7-1.7c-0.5-0.5-1.1-0.7-1.7-0.7s-1.3,0.3-1.7,0.7c-0.5,0.5-0.7,1.1-0.7,1.7
						s0.3,1.3,0.7,1.7C257.6,133.7,258.2,134,258.9,134z"/>
				</g>
				<g>
					<path id="m2a1008c272_00000158707400114341129060000000479982822806095032_" class="st2" d="M230.5,177.2
						c0.6,0,1.3-0.3,1.7-0.7c0.5-0.5,0.7-1.1,0.7-1.7s-0.3-1.3-0.7-1.7c-0.5-0.5-1.1-0.7-1.7-0.7s-1.3,0.3-1.7,0.7
						c-0.5,0.5-0.7,1.1-0.7,1.7s0.3,1.3,0.7,1.7C229.2,176.9,229.8,177.2,230.5,177.2z"/>
				</g>
				<g>
					<path id="m2a1008c272_00000003067476678088136150000013339359853304912277_" class="st2" d="M327.2,78.8c0.6,0,1.3-0.3,1.7-0.7
						c0.5-0.5,0.7-1.1,0.7-1.7s-0.3-1.3-0.7-1.7c-0.5-0.5-1.1-0.7-1.7-0.7s-1.3,0.3-1.7,0.7c-0.5,0.5-0.7,1.1-0.7,1.7
						s0.3,1.3,0.7,1.7C325.9,78.5,326.6,78.8,327.2,78.8z"/>
				</g>
				<g>
					<path id="m2a1008c272_00000148656439585189442580000014712779996148162727_" class="st2" d="M165.7,226.1
						c0.6,0,1.3-0.3,1.7-0.7c0.5-0.5,0.7-1.1,0.7-1.7s-0.3-1.3-0.7-1.7c-0.5-0.5-1.1-0.7-1.7-0.7s-1.3,0.3-1.7,0.7
						c-0.5,0.5-0.7,1.1-0.7,1.7s0.3,1.3,0.7,1.7C164.4,225.8,165,226.1,165.7,226.1z"/>
				</g>
				<g>
					<path id="m2a1008c272_00000054978216686840842680000014311463229451147421_" class="st2" d="M148.9,248.1
						c0.6,0,1.3-0.3,1.7-0.7c0.5-0.5,0.7-1.1,0.7-1.7s-0.3-1.3-0.7-1.7c-0.5-0.5-1.1-0.7-1.7-0.7s-1.3,0.3-1.7,0.7
						c-0.5,0.5-0.7,1.1-0.7,1.7s0.3,1.3,0.7,1.7C147.6,247.9,148.2,248.1,148.9,248.1z"/>
				</g>
				<g>
					<path id="m2a1008c272_00000018231135135666806630000002903110933941260427_" class="st2" d="M328.2,72.6c0.6,0,1.3-0.3,1.7-0.7
						c0.5-0.5,0.7-1.1,0.7-1.7s-0.3-1.3-0.7-1.7c-0.5-0.5-1.1-0.7-1.7-0.7s-1.3,0.3-1.7,0.7c-0.5,0.5-0.7,1.1-0.7,1.7
						s0.3,1.3,0.7,1.7C326.9,72.3,327.5,72.6,328.2,72.6z"/>
				</g>
				<g>
					<path id="m2a1008c272_00000175294386450935054200000001311716750720832146_" class="st2" d="M317.8,57c0.6,0,1.3-0.3,1.7-0.7
						c0.5-0.5,0.7-1.1,0.7-1.7s-0.3-1.3-0.7-1.7c-0.5-0.5-1.1-0.7-1.7-0.7s-1.3,0.3-1.7,0.7c-0.5,0.5-0.7,1.1-0.7,1.7
						s0.3,1.3,0.7,1.7C316.6,56.7,317.2,57,317.8,57z"/>
				</g>
				<g>
					<path id="m2a1008c272_00000134958155725613915310000004453713512696994186_" class="st2" d="M230.1,159.3
						c0.6,0,1.3-0.3,1.7-0.7c0.5-0.5,0.7-1.1,0.7-1.7s-0.3-1.3-0.7-1.7c-0.5-0.5-1.1-0.7-1.7-0.7s-1.3,0.3-1.7,0.7
						c-0.5,0.5-0.7,1.1-0.7,1.7s0.3,1.3,0.7,1.7C228.8,159,229.4,159.3,230.1,159.3z"/>
				</g>
				<g>
					<path id="m2a1008c272_00000164491823186944340260000009648640609035858329_" class="st2" d="M157.5,234.5
						c0.6,0,1.3-0.3,1.7-0.7c0.5-0.5,0.7-1.1,0.7-1.7s-0.3-1.3-0.7-1.7c-0.5-0.5-1.1-0.7-1.7-0.7s-1.3,0.3-1.7,0.7
						c-0.5,0.5-0.7,1.1-0.7,1.7s0.3,1.3,0.7,1.7C156.2,234.2,156.8,234.5,157.5,234.5z"/>
				</g>
				<g>
					<path id="m2a1008c272_00000094613113777861153890000004343210855936820394_" class="st2" d="M240.4,155c0.6,0,1.3-0.3,1.7-0.7
						c0.5-0.5,0.7-1.1,0.7-1.7s-0.3-1.3-0.7-1.7c-0.5-0.5-1.1-0.7-1.7-0.7s-1.3,0.3-1.7,0.7c-0.5,0.5-0.7,1.1-0.7,1.7
						s0.3,1.3,0.7,1.7C239.1,154.8,239.7,155,240.4,155z"/>
				</g>
				<g>
					<path id="m2a1008c272_00000167358260961495533100000018288004335792108987_" class="st2" d="M322.1,86.8c0.6,0,1.3-0.3,1.7-0.7
						c0.5-0.5,0.7-1.1,0.7-1.7s-0.3-1.3-0.7-1.7c-0.5-0.5-1.1-0.7-1.7-0.7s-1.3,0.3-1.7,0.7c-0.5,0.5-0.7,1.1-0.7,1.7
						s0.3,1.3,0.7,1.7C320.8,86.6,321.4,86.8,322.1,86.8z"/>
				</g>
				<g>
					<path id="m2a1008c272_00000144302194301822451460000012288104019600879513_" class="st2" d="M212.6,183.6
						c0.6,0,1.3-0.3,1.7-0.7c0.5-0.5,0.7-1.1,0.7-1.7s-0.3-1.3-0.7-1.7c-0.5-0.5-1.1-0.7-1.7-0.7s-1.3,0.3-1.7,0.7
						c-0.5,0.5-0.7,1.1-0.7,1.7s0.3,1.3,0.7,1.7C211.3,183.3,211.9,183.6,212.6,183.6z"/>
				</g>
				<g>
					<path id="m2a1008c272_00000083806919761799177760000012302086024661703827_" class="st2" d="M223.7,166.8
						c0.6,0,1.3-0.3,1.7-0.7c0.5-0.5,0.7-1.1,0.7-1.7s-0.3-1.3-0.7-1.7c-0.5-0.5-1.1-0.7-1.7-0.7s-1.3,0.3-1.7,0.7
						c-0.5,0.5-0.7,1.1-0.7,1.7s0.3,1.3,0.7,1.7C222.5,166.5,223.1,166.8,223.7,166.8z"/>
				</g>
				<g>
					<path id="m2a1008c272_00000127032008403918185250000004188010382316408501_" class="st2" d="M142.5,252c0.6,0,1.3-0.3,1.7-0.7
						c0.5-0.5,0.7-1.1,0.7-1.7s-0.3-1.3-0.7-1.7c-0.5-0.5-1.1-0.7-1.7-0.7s-1.3,0.3-1.7,0.7c-0.5,0.5-0.7,1.1-0.7,1.7
						s0.3,1.3,0.7,1.7C141.2,251.7,141.9,252,142.5,252z"/>
				</g>
				<g>
					<path id="m2a1008c272_00000008833725143033812090000002122744098635194289_" class="st2" d="M278.8,98c0.6,0,1.3-0.3,1.7-0.7
						c0.5-0.5,0.7-1.1,0.7-1.7s-0.3-1.3-0.7-1.7c-0.5-0.5-1.1-0.7-1.7-0.7s-1.3,0.3-1.7,0.7c-0.5,0.5-0.7,1.1-0.7,1.7
						s0.3,1.3,0.7,1.7C277.6,97.7,278.2,98,278.8,98z"/>
				</g>
				<g>
					<path id="m2a1008c272_00000098913085551194421620000007934496271528223931_" class="st2" d="M184.6,213.1
						c0.6,0,1.3-0.3,1.7-0.7c0.5-0.5,0.7-1.1,0.7-1.7s-0.3-1.3-0.7-1.7c-0.5-0.5-1.1-0.7-1.7-0.7s-1.3,0.3-1.7,0.7
						c-0.5,0.5-0.7,1.1-0.7,1.7s0.3,1.3,0.7,1.7C183.3,212.8,183.9,213.1,184.6,213.1z"/>
				</g>
				<g>
					<path id="m2a1008c272_00000050630254008806827410000003440125332475000981_" class="st2" d="M229.4,178.2
						c0.6,0,1.3-0.3,1.7-0.7c0.5-0.5,0.7-1.1,0.7-1.7s-0.3-1.3-0.7-1.7c-0.5-0.5-1.1-0.7-1.7-0.7s-1.3,0.3-1.7,0.7
						c-0.5,0.5-0.7,1.1-0.7,1.7s0.3,1.3,0.7,1.7C228.1,177.9,228.7,178.2,229.4,178.2z"/>
				</g>
				<g>
					<path id="m2a1008c272_00000047776904933197617790000004372243594590069132_" class="st2" d="M206.4,188.3
						c0.6,0,1.3-0.3,1.7-0.7c0.5-0.5,0.7-1.1,0.7-1.7s-0.3-1.3-0.7-1.7c-0.5-0.5-1.1-0.7-1.7-0.7s-1.3,0.3-1.7,0.7
						c-0.5,0.5-0.7,1.1-0.7,1.7s0.3,1.3,0.7,1.7C205.1,188.1,205.7,188.3,206.4,188.3z"/>
				</g>
				<g>
					<path id="m2a1008c272_00000170971110606593569430000001741703376865924778_" class="st2" d="M268.1,129.7
						c0.6,0,1.3-0.3,1.7-0.7c0.5-0.5,0.7-1.1,0.7-1.7s-0.3-1.3-0.7-1.7c-0.5-0.5-1.1-0.7-1.7-0.7s-1.3,0.3-1.7,0.7
						c-0.5,0.5-0.7,1.1-0.7,1.7s0.3,1.3,0.7,1.7C266.8,129.5,267.4,129.7,268.1,129.7z"/>
				</g>
				<g>
					<path id="m2a1008c272_00000011003786979450755010000003115072528548951214_" class="st2" d="M117.1,277.6
						c0.6,0,1.3-0.3,1.7-0.7c0.5-0.5,0.7-1.1,0.7-1.7c0-0.6-0.3-1.3-0.7-1.7c-0.5-0.5-1.1-0.7-1.7-0.7s-1.3,0.3-1.7,0.7
						c-0.5,0.5-0.7,1.1-0.7,1.7c0,0.6,0.3,1.3,0.7,1.7C115.8,277.4,116.4,277.6,117.1,277.6z"/>
				</g>
				<g>
					<path id="m2a1008c272_00000091012679111934396890000015521764993984836002_" class="st2" d="M157,238.7c0.6,0,1.3-0.3,1.7-0.7
						c0.5-0.5,0.7-1.1,0.7-1.7s-0.3-1.3-0.7-1.7c-0.5-0.5-1.1-0.7-1.7-0.7s-1.3,0.3-1.7,0.7c-0.5,0.5-0.7,1.1-0.7,1.7
						s0.3,1.3,0.7,1.7C155.7,238.4,156.3,238.7,157,238.7z"/>
				</g>
				<g>
					<path id="m2a1008c272_00000058568916844034089970000011392020953811150267_" class="st2" d="M187.7,198.6
						c0.6,0,1.3-0.3,1.7-0.7c0.5-0.5,0.7-1.1,0.7-1.7s-0.3-1.3-0.7-1.7c-0.5-0.5-1.1-0.7-1.7-0.7s-1.3,0.3-1.7,0.7
						c-0.5,0.5-0.7,1.1-0.7,1.7s0.3,1.3,0.7,1.7C186.5,198.4,187.1,198.6,187.7,198.6z"/>
				</g>
				<g>
					<path id="m2a1008c272_00000180358608213876924990000001071271724557307264_" class="st2" d="M123,271.4c0.6,0,1.3-0.3,1.7-0.7
						c0.5-0.5,0.7-1.1,0.7-1.7c0-0.6-0.3-1.3-0.7-1.7c-0.5-0.5-1.1-0.7-1.7-0.7s-1.3,0.3-1.7,0.7c-0.5,0.5-0.7,1.1-0.7,1.7
						c0,0.6,0.3,1.3,0.7,1.7C121.8,271.2,122.4,271.4,123,271.4z"/>
				</g>
			</g>
		</g>
	</g>
	<g id="matplotlib.axis_1">
		<g id="xtick_1">
			<g id="line2d_1">
				<g>
					<g>
						<path id="m3dbd05dfe6" class="st3" d="M109.5,294.6v3.5"/>
					</g>
				</g>
			</g>
			<g id="text_1">
				<text transform="matrix(1 0 0 1 99.1356 312.2778)" class="st4 st5">0.0</text>
			</g>
		</g>
		<g id="xtick_2">
			<g id="line2d_2">
				<g>
					<g>
						<path id="m3dbd05dfe6_00000091728684519746705260000017292090467316901045_" class="st3" d="M157.9,294.6v3.5"/>
					</g>
				</g>
			</g>
			<g id="text_2">
				<text transform="matrix(1 0 0 1 147.4919 312.2778)" class="st4 st5">0.1</text>
			</g>
		</g>
		<g id="xtick_3">
			<g id="line2d_3">
				<g>
					<g>
						<path id="m3dbd05dfe6_00000051382928613535239820000014776935250157097637_" class="st3" d="M206.2,294.6v3.5"/>
					</g>
				</g>
			</g>
			<g id="text_3">
				<text transform="matrix(1 0 0 1 195.8483 312.2778)" class="st4 st5">0.2</text>
			</g>
		</g>
		<g id="xtick_4">
			<g id="line2d_4">
				<g>
					<g>
						<path id="m3dbd05dfe6_00000152259429286768048620000014358260758362719395_" class="st3" d="M254.6,294.6v3.5"/>
					</g>
				</g>
			</g>
			<g id="text_4">
				<text transform="matrix(1 0 0 1 244.2047 312.2778)" class="st4 st5">0.3</text>
			</g>
		</g>
		<g id="xtick_5">
			<g id="line2d_5">
				<g>
					<g>
						<path id="m3dbd05dfe6_00000023985855751137993410000017854982005581099664_" class="st3" d="M302.9,294.6v3.5"/>
					</g>
				</g>
			</g>
			<g id="text_5">
				<text transform="matrix(1 0 0 1 292.561 312.2778)" class="st4 st5">0.4</text>
			</g>
		</g>
		<g id="xtick_6">
			<g id="line2d_6">
				<g>
					<g>
						<path id="m3dbd05dfe6_00000119808730972578895690000008895716609148112027_" class="st3" d="M351.3,294.6v3.5"/>
					</g>
				</g>
			</g>
			<g id="text_6">
				<text transform="matrix(1 0 0 1 340.9174 312.2778)" class="st4 st5">0.5</text>
			</g>
		</g>
		<g id="text_7">
			<text transform="matrix(1 0 0 1 193.8883 331.3469)" class="st4 st6">True FDR</text>
		</g>
	</g>
	<g id="matplotlib.axis_2">
		<g id="ytick_1">
			<g id="line2d_7">
				<g>
					<g>
						<path id="mb67cf92619" class="st3" d="M97.4,282.6h-3.5"/>
					</g>
				</g>
			</g>
			<g id="text_8">
				<text transform="matrix(1 0 0 1 69.6729 287.8698)" class="st4 st5">0.0</text>
			</g>
		</g>
		<g id="ytick_2">
			<g id="line2d_8">
				<g>
					<g>
						<path id="mb67cf92619_00000106128276228445704300000013518904154640872344_" class="st3" d="M97.4,234.2h-3.5"/>
					</g>
				</g>
			</g>
			<g id="text_9">
				<text transform="matrix(1 0 0 1 69.6729 239.5135)" class="st4 st5">0.1</text>
			</g>
		</g>
		<g id="ytick_3">
			<g id="line2d_9">
				<g>
					<g>
						<path id="mb67cf92619_00000173118434240858809510000009819827095049226678_" class="st3" d="M97.4,185.8h-3.5"/>
					</g>
				</g>
			</g>
			<g id="text_10">
				<text transform="matrix(1 0 0 1 69.6729 191.1571)" class="st4 st5">0.2</text>
			</g>
		</g>
		<g id="ytick_4">
			<g id="line2d_10">
				<g>
					<g>
						<path id="mb67cf92619_00000112595138422259871320000012835954495938744511_" class="st3" d="M97.4,137.5h-3.5"/>
					</g>
				</g>
			</g>
			<g id="text_11">
				<text transform="matrix(1 0 0 1 69.6729 142.8007)" class="st4 st5">0.3</text>
			</g>
		</g>
		<g id="ytick_5">
			<g id="line2d_11">
				<g>
					<g>
						<path id="mb67cf92619_00000087387424895117526430000010918842044548199339_" class="st3" d="M97.4,89.1h-3.5"/>
					</g>
				</g>
			</g>
			<g id="text_12">
				<text transform="matrix(1 0 0 1 69.6729 94.4444)" class="st4 st5">0.4</text>
			</g>
		</g>
		<g id="ytick_6">
			<g id="line2d_12">
				<g>
					<g>
						<path id="mb67cf92619_00000074431859454032117710000017242817535646010287_" class="st3" d="M97.4,40.8h-3.5"/>
					</g>
				</g>
			</g>
			<g id="text_13">
				<text transform="matrix(1 0 0 1 69.6729 46.088)" class="st4 st5">0.5</text>
			</g>
		</g>
		<g id="text_14">
			<text transform="matrix(6.123234e-17 -1 1 6.123234e-17 60.8281 216.5586)" class="st4 st6">Predicted FDR</text>
		</g>
	</g>
	<g id="line2d_13">
		<g>
			<defs>
				<rect id="SVGID_00000158029950240196350070000002435222989129974956_" x="97.4" y="28.7" width="266" height="266"/>
			</defs>
			<clipPath id="SVGID_00000147179291004598583960000008387051585923134359_">
				<use xlink:href="#SVGID_00000158029950240196350070000002435222989129974956_"  style="overflow:visible;"/>
			</clipPath>
			
				<path style="clip-path:url(#SVGID_00000147179291004598583960000008387051585923134359_);fill:none;stroke:#000000;stroke-width:2;stroke-linejoin:round;stroke-dasharray:7.4,3.2;" d="
				M109.5,282.6L351.3,40.8"/>
		</g>
	</g>
	<g id="line2d_14">
		<g>
			<defs>
				<rect id="SVGID_00000047053156983648298670000002137863651995511942_" x="97.4" y="28.7" width="266" height="266"/>
			</defs>
			<clipPath id="SVGID_00000162342374523603923890000000499861097091342254_">
				<use xlink:href="#SVGID_00000047053156983648298670000002137863651995511942_"  style="overflow:visible;"/>
			</clipPath>
			
				<path style="clip-path:url(#SVGID_00000162342374523603923890000000499861097091342254_);fill:none;stroke:#000000;stroke-width:2;stroke-linecap:square;stroke-linejoin:round;" d="
				M109.5,282.6L351.3,45.3"/>
		</g>
	</g>
	<g id="patch_3">
		<path class="st9" d="M97.4,294.6v-266"/>
	</g>
	<g id="patch_4">
		<path class="st9" d="M363.4,294.6v-266"/>
	</g>
	<g id="patch_5">
		<path class="st9" d="M97.4,294.6h266"/>
	</g>
	<g id="patch_6">
		<path class="st9" d="M97.4,28.7h266"/>
	</g>
	<g id="text_15">
		<g transform="translate(254.578182 234.194545)">
			<text transform="matrix(1 0 0 1 0 -0.5625)" class="st10 st6">R</text>
			<text transform="matrix(1 0 0 1 11.5547 -0.5625)" class="st10 st11"> </text>
			<text transform="matrix(1 0 0 1 12.2408 -6.6875)" class="st10 st12">2</text>
			<text transform="matrix(1 0 0 1 18.4697 -6.6875)" class="st10 st11"> </text>
			<text transform="matrix(1 0 0 1 19.8041 -0.5625)" class="st10 st6"> </text>
			<text transform="matrix(1 0 0 1 24.8901 -0.5625)" class="st10 st6">=</text>
			<text transform="matrix(1 0 0 1 38.2963 -0.5625)" class="st10 st6"> </text>
			<text transform="matrix(1 0 0 1 43.3823 -0.5625)" class="st10 st6">0</text>
			<text transform="matrix(1 0 0 1 53.562 -0.5625)" class="st10 st6">.</text>
			<text transform="matrix(1 0 0 1 58.6479 -0.5625)" class="st10 st6">9</text>
			<text transform="matrix(1 0 0 1 68.8276 -0.5625)" class="st10 st6">9</text>
		</g>
	</g>
	<g id="text_16">
		<text transform="matrix(1 0 0 1 126.8649 22.6801)" class="st4 st6">CV0.1_gamma_05-08-2024</text>
	</g>
</g>
</svg>
