<?xml version="1.0" encoding="utf-8"?>
<!-- Generator: Adobe Illustrator 28.0.0, SVG Export Plug-In . SVG Version: 6.00 Build 0)  -->
<svg version="1.1" id="Layer_1" xmlns="http://www.w3.org/2000/svg" xmlns:xlink="http://www.w3.org/1999/xlink" x="0px" y="0px"
	 viewBox="0 0 460.8 345.6" style="enable-background:new 0 0 460.8 345.6;" xml:space="preserve">
<style type="text/css">
	.st0{clip-path:url(#SVGID_00000096053753107760555970000014661839277782386341_);}
	.st1{fill:#0000FF;stroke:#0000FF;stroke-linejoin:round;}
	.st2{stroke:#000000;stroke-width:0.8;stroke-linejoin:round;}
	.st3{font-family:'LucidaBright';}
	.st4{font-size:14px;}
	.st5{font-size:16px;}
	
		.st6{clip-path:url(#SVGID_00000116939000569295108930000006545734311962414214_);fill:none;stroke:#000000;stroke-width:2;stroke-linejoin:round;stroke-dasharray:7.4,3.2;}
	
		.st7{clip-path:url(#SVGID_00000110449233725221713130000005426133709168432296_);fill:none;stroke:#000000;stroke-width:2;stroke-linecap:square;stroke-linejoin:round;}
	.st8{fill:none;stroke:#000000;stroke-width:0.8;stroke-linecap:square;}
	.st9{font-family:'ArialMT';}
	.st10{font-size:12px;}
	.st11{font-size:11.2px;}
</style>
<g id="PathCollection_1">
	<g>
		<defs>
			<rect id="SVGID_1_" x="97.4" y="28.7" width="266" height="266"/>
		</defs>
		<clipPath id="SVGID_00000028302413515718591690000016164129007401995197_">
			<use xlink:href="#SVGID_1_"  style="overflow:visible;"/>
		</clipPath>
		<g style="clip-path:url(#SVGID_00000028302413515718591690000016164129007401995197_);">
			<g>
				<path id="m3e331dd79e" class="st1" d="M156.3,245.9c0.6,0,1.3-0.3,1.7-0.7c0.5-0.5,0.7-1.1,0.7-1.7s-0.3-1.3-0.7-1.7
					c-0.5-0.5-1.1-0.7-1.7-0.7s-1.3,0.3-1.7,0.7c-0.5,0.5-0.7,1.1-0.7,1.7s0.3,1.3,0.7,1.7C155,245.6,155.7,245.9,156.3,245.9z"/>
			</g>
			<g>
				<path id="m3e331dd79e_00000031171901644041240450000002467515187473622458_" class="st1" d="M173.5,221.5c0.6,0,1.3-0.3,1.7-0.7
					c0.5-0.5,0.7-1.1,0.7-1.7s-0.3-1.3-0.7-1.7c-0.5-0.5-1.1-0.7-1.7-0.7s-1.3,0.3-1.7,0.7c-0.5,0.5-0.7,1.1-0.7,1.7
					s0.3,1.3,0.7,1.7C172.2,221.2,172.8,221.5,173.5,221.5z"/>
			</g>
			<g>
				<path id="m3e331dd79e_00000085219395990562465950000001470385369501213578_" class="st1" d="M135.6,263.4c0.6,0,1.3-0.3,1.7-0.7
					c0.5-0.5,0.7-1.1,0.7-1.7c0-0.6-0.3-1.3-0.7-1.7c-0.5-0.5-1.1-0.7-1.7-0.7s-1.3,0.3-1.7,0.7c-0.5,0.5-0.7,1.1-0.7,1.7
					c0,0.6,0.3,1.3,0.7,1.7C134.3,263.2,134.9,263.4,135.6,263.4z"/>
			</g>
			<g>
				<path id="m3e331dd79e_00000158709459209648359730000003086909852843767209_" class="st1" d="M179.3,218.1c0.6,0,1.3-0.3,1.7-0.7
					c0.5-0.5,0.7-1.1,0.7-1.7s-0.3-1.3-0.7-1.7c-0.5-0.5-1.1-0.7-1.7-0.7s-1.3,0.3-1.7,0.7c-0.5,0.5-0.7,1.1-0.7,1.7
					s0.3,1.3,0.7,1.7C178,217.8,178.7,218.1,179.3,218.1z"/>
			</g>
			<g>
				<path id="m3e331dd79e_00000078033013205072215190000004003149050441138073_" class="st1" d="M145.9,250.2c0.6,0,1.3-0.3,1.7-0.7
					c0.5-0.5,0.7-1.1,0.7-1.7s-0.3-1.3-0.7-1.7c-0.5-0.5-1.1-0.7-1.7-0.7s-1.3,0.3-1.7,0.7c-0.5,0.5-0.7,1.1-0.7,1.7
					s0.3,1.3,0.7,1.7C144.6,249.9,145.2,250.2,145.9,250.2z"/>
			</g>
			<g>
				<path id="m3e331dd79e_00000155840091707608701150000014776314633561286280_" class="st1" d="M326.2,55.8c0.6,0,1.3-0.3,1.7-0.7
					c0.5-0.5,0.7-1.1,0.7-1.7s-0.3-1.3-0.7-1.7c-0.5-0.5-1.1-0.7-1.7-0.7s-1.3,0.3-1.7,0.7c-0.5,0.5-0.7,1.1-0.7,1.7
					s0.3,1.3,0.7,1.7C325,55.5,325.6,55.8,326.2,55.8z"/>
			</g>
			<g>
				<path id="m3e331dd79e_00000080192595134663681780000007109628594064123277_" class="st1" d="M175.8,214.6c0.6,0,1.3-0.3,1.7-0.7
					c0.5-0.5,0.7-1.1,0.7-1.7s-0.3-1.3-0.7-1.7c-0.5-0.5-1.1-0.7-1.7-0.7s-1.3,0.3-1.7,0.7c-0.5,0.5-0.7,1.1-0.7,1.7
					s0.3,1.3,0.7,1.7C174.5,214.3,175.2,214.6,175.8,214.6z"/>
			</g>
			<g>
				<path id="m3e331dd79e_00000014605453929886891350000014742156300422837420_" class="st1" d="M174.7,221.2c0.6,0,1.3-0.3,1.7-0.7
					c0.5-0.5,0.7-1.1,0.7-1.7s-0.3-1.3-0.7-1.7c-0.5-0.5-1.1-0.7-1.7-0.7s-1.3,0.3-1.7,0.7c-0.5,0.5-0.7,1.1-0.7,1.7
					s0.3,1.3,0.7,1.7C173.4,220.9,174,221.2,174.7,221.2z"/>
			</g>
			<g>
				<path id="m3e331dd79e_00000126298646161496853550000000913399287997012887_" class="st1" d="M259.5,137.7c0.6,0,1.3-0.3,1.7-0.7
					c0.5-0.5,0.7-1.1,0.7-1.7s-0.3-1.3-0.7-1.7c-0.5-0.5-1.1-0.7-1.7-0.7s-1.3,0.3-1.7,0.7c-0.5,0.5-0.7,1.1-0.7,1.7
					s0.3,1.3,0.7,1.7C258.2,137.5,258.8,137.7,259.5,137.7z"/>
			</g>
			<g>
				<path id="m3e331dd79e_00000176733788665423394510000012491017695425601680_" class="st1" d="M296.7,102.6c0.6,0,1.3-0.3,1.7-0.7
					c0.5-0.5,0.7-1.1,0.7-1.7s-0.3-1.3-0.7-1.7c-0.5-0.5-1.1-0.7-1.7-0.7s-1.3,0.3-1.7,0.7c-0.5,0.5-0.7,1.1-0.7,1.7
					s0.3,1.3,0.7,1.7C295.4,102.3,296.1,102.6,296.7,102.6z"/>
			</g>
			<g>
				<path id="m3e331dd79e_00000048459564388656511330000000166217316288054664_" class="st1" d="M168.2,225.8c0.6,0,1.3-0.3,1.7-0.7
					c0.5-0.5,0.7-1.1,0.7-1.7s-0.3-1.3-0.7-1.7c-0.5-0.5-1.1-0.7-1.7-0.7s-1.3,0.3-1.7,0.7c-0.5,0.5-0.7,1.1-0.7,1.7
					s0.3,1.3,0.7,1.7C167,225.5,167.6,225.8,168.2,225.8z"/>
			</g>
			<g>
				<path id="m3e331dd79e_00000145740704825050148380000015236873370815328165_" class="st1" d="M147.5,246.2c0.6,0,1.3-0.3,1.7-0.7
					c0.5-0.5,0.7-1.1,0.7-1.7s-0.3-1.3-0.7-1.7c-0.5-0.5-1.1-0.7-1.7-0.7s-1.3,0.3-1.7,0.7c-0.5,0.5-0.7,1.1-0.7,1.7
					s0.3,1.3,0.7,1.7C146.2,245.9,146.8,246.2,147.5,246.2z"/>
			</g>
			<g>
				<path id="m3e331dd79e_00000177470681944339159840000002094046976472174724_" class="st1" d="M309.4,90.7c0.6,0,1.3-0.3,1.7-0.7
					c0.5-0.5,0.7-1.1,0.7-1.7s-0.3-1.3-0.7-1.7c-0.5-0.5-1.1-0.7-1.7-0.7s-1.3,0.3-1.7,0.7c-0.5,0.5-0.7,1.1-0.7,1.7
					s0.3,1.3,0.7,1.7C308.2,90.5,308.8,90.7,309.4,90.7z"/>
			</g>
			<g>
				<path id="m3e331dd79e_00000083777191420375912560000005272615554634337699_" class="st1" d="M218.1,180.7c0.6,0,1.3-0.3,1.7-0.7
					c0.5-0.5,0.7-1.1,0.7-1.7s-0.3-1.3-0.7-1.7c-0.5-0.5-1.1-0.7-1.7-0.7s-1.3,0.3-1.7,0.7c-0.5,0.5-0.7,1.1-0.7,1.7
					s0.3,1.3,0.7,1.7C216.8,180.5,217.5,180.7,218.1,180.7z"/>
			</g>
			<g>
				<path id="m3e331dd79e_00000119812611792296242620000003586613466305853078_" class="st1" d="M197.4,206.3c0.6,0,1.3-0.3,1.7-0.7
					c0.5-0.5,0.7-1.1,0.7-1.7s-0.3-1.3-0.7-1.7c-0.5-0.5-1.1-0.7-1.7-0.7s-1.3,0.3-1.7,0.7c-0.5,0.5-0.7,1.1-0.7,1.7
					s0.3,1.3,0.7,1.7C196.2,206,196.8,206.3,197.4,206.3z"/>
			</g>
			<g>
				<path id="m3e331dd79e_00000159443557673959874210000013151463705477190052_" class="st1" d="M233,166.1c0.6,0,1.3-0.3,1.7-0.7
					c0.5-0.5,0.7-1.1,0.7-1.7s-0.3-1.3-0.7-1.7c-0.5-0.5-1.1-0.7-1.7-0.7s-1.3,0.3-1.7,0.7c-0.5,0.5-0.7,1.1-0.7,1.7
					s0.3,1.3,0.7,1.7C231.7,165.8,232.4,166.1,233,166.1z"/>
			</g>
			<g>
				<path id="m3e331dd79e_00000056386891627624308940000013296233897616014234_" class="st1" d="M348.9,70.5c0.6,0,1.3-0.3,1.7-0.7
					c0.5-0.5,0.7-1.1,0.7-1.7s-0.3-1.3-0.7-1.7c-0.5-0.5-1.1-0.7-1.7-0.7s-1.3,0.3-1.7,0.7c-0.5,0.5-0.7,1.1-0.7,1.7
					s0.3,1.3,0.7,1.7C347.7,70.2,348.3,70.5,348.9,70.5z"/>
			</g>
			<g>
				<path id="m3e331dd79e_00000100343133713139358080000009403861503703657124_" class="st1" d="M298.5,86.4c0.6,0,1.3-0.3,1.7-0.7
					c0.5-0.5,0.7-1.1,0.7-1.7s-0.3-1.3-0.7-1.7c-0.5-0.5-1.1-0.7-1.7-0.7s-1.3,0.3-1.7,0.7c-0.5,0.5-0.7,1.1-0.7,1.7
					s0.3,1.3,0.7,1.7C297.2,86.1,297.8,86.4,298.5,86.4z"/>
			</g>
			<g>
				<path id="m3e331dd79e_00000028317832072364998820000006520327985971426230_" class="st1" d="M206.1,192.2c0.6,0,1.3-0.3,1.7-0.7
					c0.5-0.5,0.7-1.1,0.7-1.7s-0.3-1.3-0.7-1.7c-0.5-0.5-1.1-0.7-1.7-0.7s-1.3,0.3-1.7,0.7c-0.5,0.5-0.7,1.1-0.7,1.7
					s0.3,1.3,0.7,1.7C204.8,192,205.4,192.2,206.1,192.2z"/>
			</g>
			<g>
				<path id="m3e331dd79e_00000095313692863513519530000004596841490331413947_" class="st1" d="M263.6,132.6c0.6,0,1.3-0.3,1.7-0.7
					c0.5-0.5,0.7-1.1,0.7-1.7s-0.3-1.3-0.7-1.7c-0.5-0.5-1.1-0.7-1.7-0.7s-1.3,0.3-1.7,0.7c-0.5,0.5-0.7,1.1-0.7,1.7
					s0.3,1.3,0.7,1.7C262.3,132.4,263,132.6,263.6,132.6z"/>
			</g>
			<g>
				<path id="m3e331dd79e_00000059274444413605166910000003729550007134388359_" class="st1" d="M191.1,205.2c0.6,0,1.3-0.3,1.7-0.7
					c0.5-0.5,0.7-1.1,0.7-1.7s-0.3-1.3-0.7-1.7c-0.5-0.5-1.1-0.7-1.7-0.7s-1.3,0.3-1.7,0.7c-0.5,0.5-0.7,1.1-0.7,1.7
					s0.3,1.3,0.7,1.7C189.8,204.9,190.4,205.2,191.1,205.2z"/>
			</g>
			<g>
				<path id="m3e331dd79e_00000137113563023545530760000012279426550899028116_" class="st1" d="M186.7,211.8c0.6,0,1.3-0.3,1.7-0.7
					c0.5-0.5,0.7-1.1,0.7-1.7s-0.3-1.3-0.7-1.7c-0.5-0.5-1.1-0.7-1.7-0.7s-1.3,0.3-1.7,0.7c-0.5,0.5-0.7,1.1-0.7,1.7
					s0.3,1.3,0.7,1.7C185.5,211.5,186.1,211.8,186.7,211.8z"/>
			</g>
			<g>
				<path id="m3e331dd79e_00000163782961041307533760000001274484277524147332_" class="st1" d="M327.1,69.5c0.6,0,1.3-0.3,1.7-0.7
					c0.5-0.5,0.7-1.1,0.7-1.7s-0.3-1.3-0.7-1.7c-0.5-0.5-1.1-0.7-1.7-0.7s-1.3,0.3-1.7,0.7c-0.5,0.5-0.7,1.1-0.7,1.7
					s0.3,1.3,0.7,1.7C325.9,69.3,326.5,69.5,327.1,69.5z"/>
			</g>
			<g>
				<path id="m3e331dd79e_00000020376116258531628860000009353026473648210304_" class="st1" d="M280.3,111.8c0.6,0,1.3-0.3,1.7-0.7
					c0.5-0.5,0.7-1.1,0.7-1.7s-0.3-1.3-0.7-1.7c-0.5-0.5-1.1-0.7-1.7-0.7s-1.3,0.3-1.7,0.7c-0.5,0.5-0.7,1.1-0.7,1.7
					s0.3,1.3,0.7,1.7C279,111.5,279.6,111.8,280.3,111.8z"/>
			</g>
			<g>
				<path id="m3e331dd79e_00000037687259626714307630000010563270225584664741_" class="st1" d="M145,249.8c0.6,0,1.3-0.3,1.7-0.7
					c0.5-0.5,0.7-1.1,0.7-1.7s-0.3-1.3-0.7-1.7c-0.5-0.5-1.1-0.7-1.7-0.7s-1.3,0.3-1.7,0.7c-0.5,0.5-0.7,1.1-0.7,1.7
					s0.3,1.3,0.7,1.7C143.8,249.6,144.4,249.8,145,249.8z"/>
			</g>
			<g>
				<path id="m3e331dd79e_00000021121188868208110270000015005414401558905778_" class="st1" d="M177.8,216.5c0.6,0,1.3-0.3,1.7-0.7
					c0.5-0.5,0.7-1.1,0.7-1.7s-0.3-1.3-0.7-1.7c-0.5-0.5-1.1-0.7-1.7-0.7s-1.3,0.3-1.7,0.7c-0.5,0.5-0.7,1.1-0.7,1.7
					s0.3,1.3,0.7,1.7C176.5,216.2,177.2,216.5,177.8,216.5z"/>
			</g>
			<g>
				<path id="m3e331dd79e_00000057841643745620414460000015723569943444877470_" class="st1" d="M291.9,110.6c0.6,0,1.3-0.3,1.7-0.7
					c0.5-0.5,0.7-1.1,0.7-1.7s-0.3-1.3-0.7-1.7c-0.5-0.5-1.1-0.7-1.7-0.7s-1.3,0.3-1.7,0.7c-0.5,0.5-0.7,1.1-0.7,1.7
					s0.3,1.3,0.7,1.7C290.7,110.4,291.3,110.6,291.9,110.6z"/>
			</g>
			<g>
				<path id="m3e331dd79e_00000015356276508329944940000018278568196579195288_" class="st1" d="M280.7,120c0.6,0,1.3-0.3,1.7-0.7
					c0.5-0.5,0.7-1.1,0.7-1.7s-0.3-1.3-0.7-1.7c-0.5-0.5-1.1-0.7-1.7-0.7s-1.3,0.3-1.7,0.7c-0.5,0.5-0.7,1.1-0.7,1.7
					s0.3,1.3,0.7,1.7C279.4,119.8,280,120,280.7,120z"/>
			</g>
			<g>
				<path id="m3e331dd79e_00000146458896419778727690000006154036286955668871_" class="st1" d="M137.1,258.9c0.6,0,1.3-0.3,1.7-0.7
					c0.5-0.5,0.7-1.1,0.7-1.7c0-0.6-0.3-1.3-0.7-1.7c-0.5-0.5-1.1-0.7-1.7-0.7s-1.3,0.3-1.7,0.7c-0.5,0.5-0.7,1.1-0.7,1.7
					c0,0.6,0.3,1.3,0.7,1.7C135.8,258.6,136.4,258.9,137.1,258.9z"/>
			</g>
			<g>
				<path id="m3e331dd79e_00000119824009075257495060000010628304074849570702_" class="st1" d="M185.3,208.4c0.6,0,1.3-0.3,1.7-0.7
					c0.5-0.5,0.7-1.1,0.7-1.7s-0.3-1.3-0.7-1.7c-0.5-0.5-1.1-0.7-1.7-0.7s-1.3,0.3-1.7,0.7c-0.5,0.5-0.7,1.1-0.7,1.7
					s0.3,1.3,0.7,1.7C184.1,208.1,184.7,208.4,185.3,208.4z"/>
			</g>
			<g>
				<path id="m3e331dd79e_00000006674472882489322880000013661932147524968875_" class="st1" d="M179.3,212.9c0.6,0,1.3-0.3,1.7-0.7
					c0.5-0.5,0.7-1.1,0.7-1.7s-0.3-1.3-0.7-1.7c-0.5-0.5-1.1-0.7-1.7-0.7s-1.3,0.3-1.7,0.7c-0.5,0.5-0.7,1.1-0.7,1.7
					s0.3,1.3,0.7,1.7C178.1,212.6,178.7,212.9,179.3,212.9z"/>
			</g>
			<g>
				<path id="m3e331dd79e_00000144323058234108337500000006143901224789120661_" class="st1" d="M329.9,73.2c0.6,0,1.3-0.3,1.7-0.7
					c0.5-0.5,0.7-1.1,0.7-1.7s-0.3-1.3-0.7-1.7c-0.5-0.5-1.1-0.7-1.7-0.7s-1.3,0.3-1.7,0.7c-0.5,0.5-0.7,1.1-0.7,1.7
					s0.3,1.3,0.7,1.7C328.6,73,329.3,73.2,329.9,73.2z"/>
			</g>
			<g>
				<path id="m3e331dd79e_00000130620998443396596840000000063626189721686935_" class="st1" d="M321.6,79.9c0.6,0,1.3-0.3,1.7-0.7
					c0.5-0.5,0.7-1.1,0.7-1.7s-0.3-1.3-0.7-1.7c-0.5-0.5-1.1-0.7-1.7-0.7s-1.3,0.3-1.7,0.7c-0.5,0.5-0.7,1.1-0.7,1.7
					s0.3,1.3,0.7,1.7C320.4,79.6,321,79.9,321.6,79.9z"/>
			</g>
			<g>
				<path id="m3e331dd79e_00000021832724993332523240000004591324052321359233_" class="st1" d="M143.4,251.9c0.6,0,1.3-0.3,1.7-0.7
					c0.5-0.5,0.7-1.1,0.7-1.7s-0.3-1.3-0.7-1.7c-0.5-0.5-1.1-0.7-1.7-0.7s-1.3,0.3-1.7,0.7c-0.5,0.5-0.7,1.1-0.7,1.7
					s0.3,1.3,0.7,1.7C142.1,251.6,142.7,251.9,143.4,251.9z"/>
			</g>
			<g>
				<path id="m3e331dd79e_00000126291421174714109210000018242726466104569773_" class="st1" d="M146.6,247.6c0.6,0,1.3-0.3,1.7-0.7
					c0.5-0.5,0.7-1.1,0.7-1.7s-0.3-1.3-0.7-1.7c-0.5-0.5-1.1-0.7-1.7-0.7s-1.3,0.3-1.7,0.7c-0.5,0.5-0.7,1.1-0.7,1.7
					s0.3,1.3,0.7,1.7C145.4,247.3,146,247.6,146.6,247.6z"/>
			</g>
			<g>
				<path id="m3e331dd79e_00000060020050068810230640000007100906397999436959_" class="st1" d="M220.3,183c0.6,0,1.3-0.3,1.7-0.7
					c0.5-0.5,0.7-1.1,0.7-1.7s-0.3-1.3-0.7-1.7c-0.5-0.5-1.1-0.7-1.7-0.7s-1.3,0.3-1.7,0.7c-0.5,0.5-0.7,1.1-0.7,1.7
					s0.3,1.3,0.7,1.7C219,182.7,219.7,183,220.3,183z"/>
			</g>
			<g>
				<path id="m3e331dd79e_00000043426412325696680660000014216533313790313874_" class="st1" d="M221.7,174.4c0.6,0,1.3-0.3,1.7-0.7
					c0.5-0.5,0.7-1.1,0.7-1.7s-0.3-1.3-0.7-1.7c-0.5-0.5-1.1-0.7-1.7-0.7s-1.3,0.3-1.7,0.7c-0.5,0.5-0.7,1.1-0.7,1.7
					s0.3,1.3,0.7,1.7C220.4,174.2,221.1,174.4,221.7,174.4z"/>
			</g>
			<g>
				<path id="m3e331dd79e_00000008139481065523280740000004716013920999876766_" class="st1" d="M337.9,58c0.6,0,1.3-0.3,1.7-0.7
					c0.5-0.5,0.7-1.1,0.7-1.7s-0.3-1.3-0.7-1.7c-0.5-0.5-1.1-0.7-1.7-0.7s-1.3,0.3-1.7,0.7c-0.5,0.5-0.7,1.1-0.7,1.7
					s0.3,1.3,0.7,1.7C336.6,57.8,337.3,58,337.9,58z"/>
			</g>
			<g>
				<path id="m3e331dd79e_00000021825942667453458160000015719689553737076612_" class="st1" d="M295,75.3c0.6,0,1.3-0.3,1.7-0.7
					c0.5-0.5,0.7-1.1,0.7-1.7s-0.3-1.3-0.7-1.7c-0.5-0.5-1.1-0.7-1.7-0.7s-1.3,0.3-1.7,0.7c-0.5,0.5-0.7,1.1-0.7,1.7
					s0.3,1.3,0.7,1.7C293.7,75.1,294.3,75.3,295,75.3z"/>
			</g>
			<g>
				<path id="m3e331dd79e_00000157998288490664353670000001442923677858534032_" class="st1" d="M281.7,132.1c0.6,0,1.3-0.3,1.7-0.7
					c0.5-0.5,0.7-1.1,0.7-1.7s-0.3-1.3-0.7-1.7c-0.5-0.5-1.1-0.7-1.7-0.7s-1.3,0.3-1.7,0.7c-0.5,0.5-0.7,1.1-0.7,1.7
					s0.3,1.3,0.7,1.7C280.4,131.8,281,132.1,281.7,132.1z"/>
			</g>
			<g>
				<path id="m3e331dd79e_00000102504986968882548580000014347603091619102904_" class="st1" d="M261.2,137c0.6,0,1.3-0.3,1.7-0.7
					c0.5-0.5,0.7-1.1,0.7-1.7s-0.3-1.3-0.7-1.7c-0.5-0.5-1.1-0.7-1.7-0.7s-1.3,0.3-1.7,0.7c-0.5,0.5-0.7,1.1-0.7,1.7
					s0.3,1.3,0.7,1.7C260,136.7,260.6,137,261.2,137z"/>
			</g>
			<g>
				<path id="m3e331dd79e_00000172441419505424012280000010044948199358128568_" class="st1" d="M280.1,109.7c0.6,0,1.3-0.3,1.7-0.7
					c0.5-0.5,0.7-1.1,0.7-1.7s-0.3-1.3-0.7-1.7c-0.5-0.5-1.1-0.7-1.7-0.7s-1.3,0.3-1.7,0.7c-0.5,0.5-0.7,1.1-0.7,1.7
					s0.3,1.3,0.7,1.7C278.9,109.4,279.5,109.7,280.1,109.7z"/>
			</g>
			<g>
				<path id="m3e331dd79e_00000060720008736907942910000010074715871665522361_" class="st1" d="M147.7,249.8c0.6,0,1.3-0.3,1.7-0.7
					c0.5-0.5,0.7-1.1,0.7-1.7s-0.3-1.3-0.7-1.7c-0.5-0.5-1.1-0.7-1.7-0.7s-1.3,0.3-1.7,0.7c-0.5,0.5-0.7,1.1-0.7,1.7
					s0.3,1.3,0.7,1.7C146.5,249.6,147.1,249.8,147.7,249.8z"/>
			</g>
			<g>
				<path id="m3e331dd79e_00000039816807743414130560000014329098847837250473_" class="st1" d="M207.1,191.4c0.6,0,1.3-0.3,1.7-0.7
					c0.5-0.5,0.7-1.1,0.7-1.7s-0.3-1.3-0.7-1.7c-0.5-0.5-1.1-0.7-1.7-0.7s-1.3,0.3-1.7,0.7c-0.5,0.5-0.7,1.1-0.7,1.7
					s0.3,1.3,0.7,1.7C205.9,191.2,206.5,191.4,207.1,191.4z"/>
			</g>
			<g>
				<path id="m3e331dd79e_00000096033314065387010710000013348976578376119441_" class="st1" d="M269.3,126.3c0.6,0,1.3-0.3,1.7-0.7
					c0.5-0.5,0.7-1.1,0.7-1.7s-0.3-1.3-0.7-1.7c-0.5-0.5-1.1-0.7-1.7-0.7s-1.3,0.3-1.7,0.7c-0.5,0.5-0.7,1.1-0.7,1.7
					s0.3,1.3,0.7,1.7C268.1,126.1,268.7,126.3,269.3,126.3z"/>
			</g>
			<g>
				<path id="m3e331dd79e_00000075869147341713786910000007826118482267172271_" class="st1" d="M330.3,87c0.6,0,1.3-0.3,1.7-0.7
					c0.5-0.5,0.7-1.1,0.7-1.7s-0.3-1.3-0.7-1.7c-0.5-0.5-1.1-0.7-1.7-0.7s-1.3,0.3-1.7,0.7c-0.5,0.5-0.7,1.1-0.7,1.7
					s0.3,1.3,0.7,1.7C329.1,86.8,329.7,87,330.3,87z"/>
			</g>
			<g>
				<path id="m3e331dd79e_00000088132812909133361510000004646876913217648797_" class="st1" d="M184.9,206.4c0.6,0,1.3-0.3,1.7-0.7
					c0.5-0.5,0.7-1.1,0.7-1.7s-0.3-1.3-0.7-1.7c-0.5-0.5-1.1-0.7-1.7-0.7s-1.3,0.3-1.7,0.7c-0.5,0.5-0.7,1.1-0.7,1.7
					s0.3,1.3,0.7,1.7C183.6,206.2,184.2,206.4,184.9,206.4z"/>
			</g>
			<g>
				<path id="m3e331dd79e_00000085216289749729574560000006277780311349761952_" class="st1" d="M234.9,158.1c0.6,0,1.3-0.3,1.7-0.7
					c0.5-0.5,0.7-1.1,0.7-1.7s-0.3-1.3-0.7-1.7c-0.5-0.5-1.1-0.7-1.7-0.7s-1.3,0.3-1.7,0.7c-0.5,0.5-0.7,1.1-0.7,1.7
					s0.3,1.3,0.7,1.7C233.6,157.9,234.3,158.1,234.9,158.1z"/>
			</g>
			<g>
				<path id="m3e331dd79e_00000036930683639231540490000011077912956787898548_" class="st1" d="M126.2,268.6c0.6,0,1.3-0.3,1.7-0.7
					c0.5-0.5,0.7-1.1,0.7-1.7c0-0.6-0.3-1.3-0.7-1.7c-0.5-0.5-1.1-0.7-1.7-0.7s-1.3,0.3-1.7,0.7c-0.5,0.5-0.7,1.1-0.7,1.7
					c0,0.6,0.3,1.3,0.7,1.7C124.9,268.4,125.5,268.6,126.2,268.6z"/>
			</g>
			<g>
				<path id="m3e331dd79e_00000106131503264730933450000003136545192391088824_" class="st1" d="M209.7,181.8c0.6,0,1.3-0.3,1.7-0.7
					c0.5-0.5,0.7-1.1,0.7-1.7s-0.3-1.3-0.7-1.7c-0.5-0.5-1.1-0.7-1.7-0.7s-1.3,0.3-1.7,0.7c-0.5,0.5-0.7,1.1-0.7,1.7
					s0.3,1.3,0.7,1.7C208.4,181.5,209.1,181.8,209.7,181.8z"/>
			</g>
			<g>
				<path id="m3e331dd79e_00000054956783127504525120000009852059677903871919_" class="st1" d="M278.6,119.2c0.6,0,1.3-0.3,1.7-0.7
					c0.5-0.5,0.7-1.1,0.7-1.7s-0.3-1.3-0.7-1.7c-0.5-0.5-1.1-0.7-1.7-0.7s-1.3,0.3-1.7,0.7c-0.5,0.5-0.7,1.1-0.7,1.7
					s0.3,1.3,0.7,1.7C277.3,119,277.9,119.2,278.6,119.2z"/>
			</g>
			<g>
				<path id="m3e331dd79e_00000115510359855703235310000000667286690890985621_" class="st1" d="M303.7,90.8c0.6,0,1.3-0.3,1.7-0.7
					c0.5-0.5,0.7-1.1,0.7-1.7s-0.3-1.3-0.7-1.7c-0.5-0.5-1.1-0.7-1.7-0.7s-1.3,0.3-1.7,0.7c-0.5,0.5-0.7,1.1-0.7,1.7
					s0.3,1.3,0.7,1.7C302.4,90.6,303,90.8,303.7,90.8z"/>
			</g>
			<g>
				<path id="m3e331dd79e_00000021814743730852225520000005037514073785503419_" class="st1" d="M113.9,280.1c0.6,0,1.3-0.3,1.7-0.7
					c0.5-0.5,0.7-1.1,0.7-1.7c0-0.6-0.3-1.3-0.7-1.7c-0.5-0.5-1.1-0.7-1.7-0.7s-1.3,0.3-1.7,0.7c-0.5,0.5-0.7,1.1-0.7,1.7
					c0,0.6,0.3,1.3,0.7,1.7C112.6,279.8,113.2,280.1,113.9,280.1z"/>
			</g>
			<g>
				<path id="m3e331dd79e_00000118359993281970085850000011891705787957776782_" class="st1" d="M236.3,163.1c0.6,0,1.3-0.3,1.7-0.7
					c0.5-0.5,0.7-1.1,0.7-1.7s-0.3-1.3-0.7-1.7c-0.5-0.5-1.1-0.7-1.7-0.7s-1.3,0.3-1.7,0.7c-0.5,0.5-0.7,1.1-0.7,1.7
					s0.3,1.3,0.7,1.7C235.1,162.9,235.7,163.1,236.3,163.1z"/>
			</g>
			<g>
				<path id="m3e331dd79e_00000083074070981316279440000017148611014411447206_" class="st1" d="M120.6,270.6c0.6,0,1.3-0.3,1.7-0.7
					c0.5-0.5,0.7-1.1,0.7-1.7c0-0.6-0.3-1.3-0.7-1.7c-0.5-0.5-1.1-0.7-1.7-0.7s-1.3,0.3-1.7,0.7c-0.5,0.5-0.7,1.1-0.7,1.7
					c0,0.6,0.3,1.3,0.7,1.7C119.4,270.4,120,270.6,120.6,270.6z"/>
			</g>
			<g>
				<path id="m3e331dd79e_00000026844726988815304460000009678616295633245372_" class="st1" d="M319.5,83.6c0.6,0,1.3-0.3,1.7-0.7
					c0.5-0.5,0.7-1.1,0.7-1.7s-0.3-1.3-0.7-1.7c-0.5-0.5-1.1-0.7-1.7-0.7s-1.3,0.3-1.7,0.7c-0.5,0.5-0.7,1.1-0.7,1.7
					s0.3,1.3,0.7,1.7C318.2,83.3,318.8,83.6,319.5,83.6z"/>
			</g>
			<g>
				<path id="m3e331dd79e_00000099655121471035505700000012189395543371499925_" class="st1" d="M343.4,43.2c0.6,0,1.3-0.3,1.7-0.7
					c0.5-0.5,0.7-1.1,0.7-1.7s-0.3-1.3-0.7-1.7c-0.5-0.5-1.1-0.7-1.7-0.7s-1.3,0.3-1.7,0.7c-0.5,0.5-0.7,1.1-0.7,1.7
					s0.3,1.3,0.7,1.7C342.1,43,342.7,43.2,343.4,43.2z"/>
			</g>
			<g>
				<path id="m3e331dd79e_00000127011807970134588070000014410191003867512505_" class="st1" d="M313.8,90.2c0.6,0,1.3-0.3,1.7-0.7
					c0.5-0.5,0.7-1.1,0.7-1.7s-0.3-1.3-0.7-1.7c-0.5-0.5-1.1-0.7-1.7-0.7s-1.3,0.3-1.7,0.7c-0.5,0.5-0.7,1.1-0.7,1.7
					s0.3,1.3,0.7,1.7C312.5,89.9,313.1,90.2,313.8,90.2z"/>
			</g>
			<g>
				<path id="m3e331dd79e_00000134930788235909332430000007663735590344520864_" class="st1" d="M173.8,221.9c0.6,0,1.3-0.3,1.7-0.7
					c0.5-0.5,0.7-1.1,0.7-1.7s-0.3-1.3-0.7-1.7c-0.5-0.5-1.1-0.7-1.7-0.7s-1.3,0.3-1.7,0.7c-0.5,0.5-0.7,1.1-0.7,1.7
					s0.3,1.3,0.7,1.7C172.5,221.6,173.1,221.9,173.8,221.9z"/>
			</g>
			<g>
				<path id="m3e331dd79e_00000148649756578645567240000005827719851120504988_" class="st1" d="M342.6,43.2c0.6,0,1.3-0.3,1.7-0.7
					c0.5-0.5,0.7-1.1,0.7-1.7s-0.3-1.3-0.7-1.7c-0.5-0.5-1.1-0.7-1.7-0.7s-1.3,0.3-1.7,0.7c-0.5,0.5-0.7,1.1-0.7,1.7
					s0.3,1.3,0.7,1.7C341.3,43,341.9,43.2,342.6,43.2z"/>
			</g>
			<g>
				<path id="m3e331dd79e_00000110434212868667276710000013370345728415164559_" class="st1" d="M230.6,168.1c0.6,0,1.3-0.3,1.7-0.7
					c0.5-0.5,0.7-1.1,0.7-1.7s-0.3-1.3-0.7-1.7c-0.5-0.5-1.1-0.7-1.7-0.7s-1.3,0.3-1.7,0.7c-0.5,0.5-0.7,1.1-0.7,1.7
					s0.3,1.3,0.7,1.7C229.3,167.9,229.9,168.1,230.6,168.1z"/>
			</g>
			<g>
				<path id="m3e331dd79e_00000105419532977960690620000009220854724190699673_" class="st1" d="M336.8,71c0.6,0,1.3-0.3,1.7-0.7
					c0.5-0.5,0.7-1.1,0.7-1.7s-0.3-1.3-0.7-1.7c-0.5-0.5-1.1-0.7-1.7-0.7s-1.3,0.3-1.7,0.7c-0.5,0.5-0.7,1.1-0.7,1.7
					s0.3,1.3,0.7,1.7C335.6,70.7,336.2,71,336.8,71z"/>
			</g>
			<g>
				<path id="m3e331dd79e_00000031182906609032809270000008333321361453860500_" class="st1" d="M300.1,123.4c0.6,0,1.3-0.3,1.7-0.7
					c0.5-0.5,0.7-1.1,0.7-1.7s-0.3-1.3-0.7-1.7c-0.5-0.5-1.1-0.7-1.7-0.7s-1.3,0.3-1.7,0.7c-0.5,0.5-0.7,1.1-0.7,1.7
					s0.3,1.3,0.7,1.7C298.8,123.2,299.4,123.4,300.1,123.4z"/>
			</g>
			<g>
				<path id="m3e331dd79e_00000168796850447272196550000004337945072489635753_" class="st1" d="M262.1,134.3c0.6,0,1.3-0.3,1.7-0.7
					c0.5-0.5,0.7-1.1,0.7-1.7s-0.3-1.3-0.7-1.7c-0.5-0.5-1.1-0.7-1.7-0.7s-1.3,0.3-1.7,0.7c-0.5,0.5-0.7,1.1-0.7,1.7
					s0.3,1.3,0.7,1.7C260.8,134,261.4,134.3,262.1,134.3z"/>
			</g>
			<g>
				<path id="m3e331dd79e_00000179628018967557428860000001258988846602754982_" class="st1" d="M113.1,279.7c0.6,0,1.3-0.3,1.7-0.7
					c0.5-0.5,0.7-1.1,0.7-1.7c0-0.6-0.3-1.3-0.7-1.7c-0.5-0.5-1.1-0.7-1.7-0.7s-1.3,0.3-1.7,0.7c-0.5,0.5-0.7,1.1-0.7,1.7
					c0,0.6,0.3,1.3,0.7,1.7C111.8,279.4,112.5,279.7,113.1,279.7z"/>
			</g>
			<g>
				<path id="m3e331dd79e_00000174599071882232069900000008792736692142478238_" class="st1" d="M226.1,154.3c0.6,0,1.3-0.3,1.7-0.7
					c0.5-0.5,0.7-1.1,0.7-1.7s-0.3-1.3-0.7-1.7c-0.5-0.5-1.1-0.7-1.7-0.7s-1.3,0.3-1.7,0.7c-0.5,0.5-0.7,1.1-0.7,1.7
					s0.3,1.3,0.7,1.7C224.8,154.1,225.5,154.3,226.1,154.3z"/>
			</g>
			<g>
				<path id="m3e331dd79e_00000098179126690253786940000018143970140437427114_" class="st1" d="M187.1,207.1c0.6,0,1.3-0.3,1.7-0.7
					c0.5-0.5,0.7-1.1,0.7-1.7s-0.3-1.3-0.7-1.7c-0.5-0.5-1.1-0.7-1.7-0.7s-1.3,0.3-1.7,0.7c-0.5,0.5-0.7,1.1-0.7,1.7
					s0.3,1.3,0.7,1.7C185.9,206.8,186.5,207.1,187.1,207.1z"/>
			</g>
			<g>
				<path id="m3e331dd79e_00000059997466397852986000000014756139985946516395_" class="st1" d="M329.3,62.7c0.6,0,1.3-0.3,1.7-0.7
					c0.5-0.5,0.7-1.1,0.7-1.7s-0.3-1.3-0.7-1.7c-0.5-0.5-1.1-0.7-1.7-0.7s-1.3,0.3-1.7,0.7c-0.5,0.5-0.7,1.1-0.7,1.7
					s0.3,1.3,0.7,1.7C328,62.4,328.6,62.7,329.3,62.7z"/>
			</g>
			<g>
				<path id="m3e331dd79e_00000160900930953277105290000004801312868709850786_" class="st1" d="M318.2,80.7c0.6,0,1.3-0.3,1.7-0.7
					c0.5-0.5,0.7-1.1,0.7-1.7s-0.3-1.3-0.7-1.7c-0.5-0.5-1.1-0.7-1.7-0.7s-1.3,0.3-1.7,0.7c-0.5,0.5-0.7,1.1-0.7,1.7
					s0.3,1.3,0.7,1.7C316.9,80.5,317.5,80.7,318.2,80.7z"/>
			</g>
			<g>
				<path id="m3e331dd79e_00000147920227024379652620000006119200662083332750_" class="st1" d="M263.3,126.6c0.6,0,1.3-0.3,1.7-0.7
					c0.5-0.5,0.7-1.1,0.7-1.7s-0.3-1.3-0.7-1.7c-0.5-0.5-1.1-0.7-1.7-0.7s-1.3,0.3-1.7,0.7c-0.5,0.5-0.7,1.1-0.7,1.7
					s0.3,1.3,0.7,1.7C262,126.3,262.7,126.6,263.3,126.6z"/>
			</g>
			<g>
				<path id="m3e331dd79e_00000111891896730423937600000007412380841984375485_" class="st1" d="M234.7,162.5c0.6,0,1.3-0.3,1.7-0.7
					c0.5-0.5,0.7-1.1,0.7-1.7s-0.3-1.3-0.7-1.7c-0.5-0.5-1.1-0.7-1.7-0.7s-1.3,0.3-1.7,0.7c-0.5,0.5-0.7,1.1-0.7,1.7
					s0.3,1.3,0.7,1.7C233.4,162.3,234,162.5,234.7,162.5z"/>
			</g>
			<g>
				<path id="m3e331dd79e_00000157300077055809781850000012144793202800561570_" class="st1" d="M167.7,227.6c0.6,0,1.3-0.3,1.7-0.7
					c0.5-0.5,0.7-1.1,0.7-1.7s-0.3-1.3-0.7-1.7c-0.5-0.5-1.1-0.7-1.7-0.7s-1.3,0.3-1.7,0.7c-0.5,0.5-0.7,1.1-0.7,1.7
					s0.3,1.3,0.7,1.7C166.4,227.3,167,227.6,167.7,227.6z"/>
			</g>
			<g>
				<path id="m3e331dd79e_00000178891515783829137420000015221653117573766053_" class="st1" d="M313.1,87.4c0.6,0,1.3-0.3,1.7-0.7
					c0.5-0.5,0.7-1.1,0.7-1.7s-0.3-1.3-0.7-1.7c-0.5-0.5-1.1-0.7-1.7-0.7s-1.3,0.3-1.7,0.7c-0.5,0.5-0.7,1.1-0.7,1.7
					s0.3,1.3,0.7,1.7C311.8,87.1,312.4,87.4,313.1,87.4z"/>
			</g>
			<g>
				<path id="m3e331dd79e_00000168094903797887699830000005390377583385825423_" class="st1" d="M288.8,110.9c0.6,0,1.3-0.3,1.7-0.7
					c0.5-0.5,0.7-1.1,0.7-1.7s-0.3-1.3-0.7-1.7c-0.5-0.5-1.1-0.7-1.7-0.7s-1.3,0.3-1.7,0.7c-0.5,0.5-0.7,1.1-0.7,1.7
					s0.3,1.3,0.7,1.7C287.5,110.6,288.1,110.9,288.8,110.9z"/>
			</g>
			<g>
				<path id="m3e331dd79e_00000011748110560822810250000001948592083795553725_" class="st1" d="M198.5,197.9c0.6,0,1.3-0.3,1.7-0.7
					c0.5-0.5,0.7-1.1,0.7-1.7s-0.3-1.3-0.7-1.7c-0.5-0.5-1.1-0.7-1.7-0.7s-1.3,0.3-1.7,0.7c-0.5,0.5-0.7,1.1-0.7,1.7
					s0.3,1.3,0.7,1.7C197.2,197.6,197.9,197.9,198.5,197.9z"/>
			</g>
			<g>
				<path id="m3e331dd79e_00000158724927986419941850000014628273337210676923_" class="st1" d="M262.4,138.7c0.6,0,1.3-0.3,1.7-0.7
					c0.5-0.5,0.7-1.1,0.7-1.7s-0.3-1.3-0.7-1.7c-0.5-0.5-1.1-0.7-1.7-0.7s-1.3,0.3-1.7,0.7c-0.5,0.5-0.7,1.1-0.7,1.7
					s0.3,1.3,0.7,1.7C261.2,138.4,261.8,138.7,262.4,138.7z"/>
			</g>
			<g>
				<path id="m3e331dd79e_00000062190731579660808150000009288096288245703853_" class="st1" d="M249.5,135.9c0.6,0,1.3-0.3,1.7-0.7
					c0.5-0.5,0.7-1.1,0.7-1.7s-0.3-1.3-0.7-1.7c-0.5-0.5-1.1-0.7-1.7-0.7s-1.3,0.3-1.7,0.7c-0.5,0.5-0.7,1.1-0.7,1.7
					s0.3,1.3,0.7,1.7C248.2,135.6,248.8,135.9,249.5,135.9z"/>
			</g>
			<g>
				<path id="m3e331dd79e_00000129176187165661927480000002339536021886766209_" class="st1" d="M140.2,255.3c0.6,0,1.3-0.3,1.7-0.7
					c0.5-0.5,0.7-1.1,0.7-1.7s-0.3-1.3-0.7-1.7c-0.5-0.5-1.1-0.7-1.7-0.7s-1.3,0.3-1.7,0.7c-0.5,0.5-0.7,1.1-0.7,1.7
					s0.3,1.3,0.7,1.7C138.9,255.1,139.5,255.3,140.2,255.3z"/>
			</g>
			<g>
				<path id="m3e331dd79e_00000101097631412958977810000005657407752961517493_" class="st1" d="M195.7,201.6c0.6,0,1.3-0.3,1.7-0.7
					c0.5-0.5,0.7-1.1,0.7-1.7s-0.3-1.3-0.7-1.7c-0.5-0.5-1.1-0.7-1.7-0.7s-1.3,0.3-1.7,0.7c-0.5,0.5-0.7,1.1-0.7,1.7
					s0.3,1.3,0.7,1.7C194.4,201.4,195,201.6,195.7,201.6z"/>
			</g>
			<g>
				<path id="m3e331dd79e_00000123426140201764685550000010602435250489509523_" class="st1" d="M114.6,280.4c0.6,0,1.3-0.3,1.7-0.7
					c0.5-0.5,0.7-1.1,0.7-1.7c0-0.6-0.3-1.3-0.7-1.7c-0.5-0.5-1.1-0.7-1.7-0.7s-1.3,0.3-1.7,0.7c-0.5,0.5-0.7,1.1-0.7,1.7
					c0,0.6,0.3,1.3,0.7,1.7C113.3,280.1,113.9,280.4,114.6,280.4z"/>
			</g>
			<g>
				<path id="m3e331dd79e_00000173162886358487140870000013198132841294924180_" class="st1" d="M218.2,172.9c0.6,0,1.3-0.3,1.7-0.7
					c0.5-0.5,0.7-1.1,0.7-1.7s-0.3-1.3-0.7-1.7c-0.5-0.5-1.1-0.7-1.7-0.7s-1.3,0.3-1.7,0.7c-0.5,0.5-0.7,1.1-0.7,1.7
					s0.3,1.3,0.7,1.7C216.9,172.7,217.5,172.9,218.2,172.9z"/>
			</g>
			<g>
				<path id="m3e331dd79e_00000123403648801241583600000012791376663486063541_" class="st1" d="M192.2,207.4c0.6,0,1.3-0.3,1.7-0.7
					c0.5-0.5,0.7-1.1,0.7-1.7s-0.3-1.3-0.7-1.7c-0.5-0.5-1.1-0.7-1.7-0.7s-1.3,0.3-1.7,0.7c-0.5,0.5-0.7,1.1-0.7,1.7
					s0.3,1.3,0.7,1.7C191,207.2,191.6,207.4,192.2,207.4z"/>
			</g>
			<g>
				<path id="m3e331dd79e_00000138563194909580816320000004084026223004177544_" class="st1" d="M214.5,178.4c0.6,0,1.3-0.3,1.7-0.7
					c0.5-0.5,0.7-1.1,0.7-1.7s-0.3-1.3-0.7-1.7c-0.5-0.5-1.1-0.7-1.7-0.7s-1.3,0.3-1.7,0.7c-0.5,0.5-0.7,1.1-0.7,1.7
					s0.3,1.3,0.7,1.7C213.2,178.2,213.9,178.4,214.5,178.4z"/>
			</g>
			<g>
				<path id="m3e331dd79e_00000120537153878169680860000006961294242496984201_" class="st1" d="M239.8,166.3c0.6,0,1.3-0.3,1.7-0.7
					c0.5-0.5,0.7-1.1,0.7-1.7s-0.3-1.3-0.7-1.7c-0.5-0.5-1.1-0.7-1.7-0.7s-1.3,0.3-1.7,0.7c-0.5,0.5-0.7,1.1-0.7,1.7
					s0.3,1.3,0.7,1.7C238.5,166,239.1,166.3,239.8,166.3z"/>
			</g>
			<g>
				<path id="m3e331dd79e_00000004506313204350390840000017878602824580407178_" class="st1" d="M320.7,81.8c0.6,0,1.3-0.3,1.7-0.7
					c0.5-0.5,0.7-1.1,0.7-1.7s-0.3-1.3-0.7-1.7c-0.5-0.5-1.1-0.7-1.7-0.7s-1.3,0.3-1.7,0.7c-0.5,0.5-0.7,1.1-0.7,1.7
					s0.3,1.3,0.7,1.7C319.5,81.5,320.1,81.8,320.7,81.8z"/>
			</g>
			<g>
				<path id="m3e331dd79e_00000076587384566523154340000000521268108960996232_" class="st1" d="M150.8,244c0.6,0,1.3-0.3,1.7-0.7
					c0.5-0.5,0.7-1.1,0.7-1.7s-0.3-1.3-0.7-1.7c-0.5-0.5-1.1-0.7-1.7-0.7s-1.3,0.3-1.7,0.7c-0.5,0.5-0.7,1.1-0.7,1.7
					s0.3,1.3,0.7,1.7C149.5,243.8,150.1,244,150.8,244z"/>
			</g>
			<g>
				<path id="m3e331dd79e_00000097478652379738483610000015568473234874399877_" class="st1" d="M266.4,126.7c0.6,0,1.3-0.3,1.7-0.7
					c0.5-0.5,0.7-1.1,0.7-1.7s-0.3-1.3-0.7-1.7c-0.5-0.5-1.1-0.7-1.7-0.7s-1.3,0.3-1.7,0.7c-0.5,0.5-0.7,1.1-0.7,1.7
					s0.3,1.3,0.7,1.7C265.1,126.4,265.7,126.7,266.4,126.7z"/>
			</g>
			<g>
				<path id="m3e331dd79e_00000064348272066059999660000011233228211195707033_" class="st1" d="M115.8,279.2c0.6,0,1.3-0.3,1.7-0.7
					c0.5-0.5,0.7-1.1,0.7-1.7c0-0.6-0.3-1.3-0.7-1.7c-0.5-0.5-1.1-0.7-1.7-0.7s-1.3,0.3-1.7,0.7c-0.5,0.5-0.7,1.1-0.7,1.7
					c0,0.6,0.3,1.3,0.7,1.7C114.5,279,115.1,279.2,115.8,279.2z"/>
			</g>
			<g>
				<path id="m3e331dd79e_00000162314759085266154090000009244062424248865459_" class="st1" d="M323.6,79.6c0.6,0,1.3-0.3,1.7-0.7
					c0.5-0.5,0.7-1.1,0.7-1.7s-0.3-1.3-0.7-1.7c-0.5-0.5-1.1-0.7-1.7-0.7s-1.3,0.3-1.7,0.7c-0.5,0.5-0.7,1.1-0.7,1.7
					s0.3,1.3,0.7,1.7C322.3,79.3,322.9,79.6,323.6,79.6z"/>
			</g>
			<g>
				<path id="m3e331dd79e_00000026147655648814556720000005888242630993343932_" class="st1" d="M176.3,207.2c0.6,0,1.3-0.3,1.7-0.7
					c0.5-0.5,0.7-1.1,0.7-1.7s-0.3-1.3-0.7-1.7c-0.5-0.5-1.1-0.7-1.7-0.7s-1.3,0.3-1.7,0.7c-0.5,0.5-0.7,1.1-0.7,1.7
					s0.3,1.3,0.7,1.7C175,207,175.6,207.2,176.3,207.2z"/>
			</g>
			<g>
				<path id="m3e331dd79e_00000121276969806605307930000012039261718716210581_" class="st1" d="M149,245.2c0.6,0,1.3-0.3,1.7-0.7
					c0.5-0.5,0.7-1.1,0.7-1.7s-0.3-1.3-0.7-1.7c-0.5-0.5-1.1-0.7-1.7-0.7s-1.3,0.3-1.7,0.7c-0.5,0.5-0.7,1.1-0.7,1.7
					s0.3,1.3,0.7,1.7C147.7,244.9,148.3,245.2,149,245.2z"/>
			</g>
			<g>
				<path id="m3e331dd79e_00000122703767160627323650000015175906485704323458_" class="st1" d="M188.4,206.6c0.6,0,1.3-0.3,1.7-0.7
					c0.5-0.5,0.7-1.1,0.7-1.7s-0.3-1.3-0.7-1.7c-0.5-0.5-1.1-0.7-1.7-0.7s-1.3,0.3-1.7,0.7c-0.5,0.5-0.7,1.1-0.7,1.7
					s0.3,1.3,0.7,1.7C187.1,206.4,187.7,206.6,188.4,206.6z"/>
			</g>
			<g>
				<path id="m3e331dd79e_00000052797800420908050820000012918295632169609650_" class="st1" d="M146.8,246.5c0.6,0,1.3-0.3,1.7-0.7
					c0.5-0.5,0.7-1.1,0.7-1.7s-0.3-1.3-0.7-1.7c-0.5-0.5-1.1-0.7-1.7-0.7s-1.3,0.3-1.7,0.7c-0.5,0.5-0.7,1.1-0.7,1.7
					s0.3,1.3,0.7,1.7C145.6,246.2,146.2,246.5,146.8,246.5z"/>
			</g>
			<g>
				<path id="m3e331dd79e_00000110447954446093612190000018398958520471425438_" class="st1" d="M314.3,77.6c0.6,0,1.3-0.3,1.7-0.7
					c0.5-0.5,0.7-1.1,0.7-1.7s-0.3-1.3-0.7-1.7c-0.5-0.5-1.1-0.7-1.7-0.7s-1.3,0.3-1.7,0.7c-0.5,0.5-0.7,1.1-0.7,1.7
					s0.3,1.3,0.7,1.7C313,77.3,313.7,77.6,314.3,77.6z"/>
			</g>
			<g>
				<path id="m3e331dd79e_00000161619064372548009550000008466618154706503843_" class="st1" d="M129.3,267.1c0.6,0,1.3-0.3,1.7-0.7
					c0.5-0.5,0.7-1.1,0.7-1.7c0-0.6-0.3-1.3-0.7-1.7c-0.5-0.5-1.1-0.7-1.7-0.7s-1.3,0.3-1.7,0.7c-0.5,0.5-0.7,1.1-0.7,1.7
					c0,0.6,0.3,1.3,0.7,1.7C128,266.8,128.6,267.1,129.3,267.1z"/>
			</g>
			<g>
				<path id="m3e331dd79e_00000053508233877704107770000009257271288663405745_" class="st1" d="M309.4,94.5c0.6,0,1.3-0.3,1.7-0.7
					c0.5-0.5,0.7-1.1,0.7-1.7s-0.3-1.3-0.7-1.7c-0.5-0.5-1.1-0.7-1.7-0.7s-1.3,0.3-1.7,0.7c-0.5,0.5-0.7,1.1-0.7,1.7
					s0.3,1.3,0.7,1.7C308.1,94.2,308.7,94.5,309.4,94.5z"/>
			</g>
			<g>
				<path id="m3e331dd79e_00000005229173413923701940000014670966102304119936_" class="st1" d="M199,196.6c0.6,0,1.3-0.3,1.7-0.7
					c0.5-0.5,0.7-1.1,0.7-1.7s-0.3-1.3-0.7-1.7c-0.5-0.5-1.1-0.7-1.7-0.7s-1.3,0.3-1.7,0.7c-0.5,0.5-0.7,1.1-0.7,1.7
					s0.3,1.3,0.7,1.7C197.7,196.3,198.3,196.6,199,196.6z"/>
			</g>
			<g>
				<path id="m3e331dd79e_00000090997144931433581760000004472570476039110790_" class="st1" d="M180.2,214.8c0.6,0,1.3-0.3,1.7-0.7
					c0.5-0.5,0.7-1.1,0.7-1.7s-0.3-1.3-0.7-1.7c-0.5-0.5-1.1-0.7-1.7-0.7s-1.3,0.3-1.7,0.7c-0.5,0.5-0.7,1.1-0.7,1.7
					s0.3,1.3,0.7,1.7C178.9,214.6,179.6,214.8,180.2,214.8z"/>
			</g>
			<g>
				<path id="m3e331dd79e_00000162314450465309155200000001602983638837044632_" class="st1" d="M268.1,122.6c0.6,0,1.3-0.3,1.7-0.7
					c0.5-0.5,0.7-1.1,0.7-1.7s-0.3-1.3-0.7-1.7c-0.5-0.5-1.1-0.7-1.7-0.7s-1.3,0.3-1.7,0.7c-0.5,0.5-0.7,1.1-0.7,1.7
					s0.3,1.3,0.7,1.7C266.8,122.4,267.5,122.6,268.1,122.6z"/>
			</g>
			<g>
				<path id="m3e331dd79e_00000052805676153429204480000012843730193679101056_" class="st1" d="M291,101c0.6,0,1.3-0.3,1.7-0.7
					c0.5-0.5,0.7-1.1,0.7-1.7s-0.3-1.3-0.7-1.7c-0.5-0.5-1.1-0.7-1.7-0.7s-1.3,0.3-1.7,0.7c-0.5,0.5-0.7,1.1-0.7,1.7
					s0.3,1.3,0.7,1.7C289.7,100.7,290.3,101,291,101z"/>
			</g>
		</g>
	</g>
</g>
<g id="matplotlib.axis_1">
	<g id="xtick_1">
		<g id="line2d_1">
			<g>
				<g>
					<path id="m6efc2625c5" class="st2" d="M109.5,294.6v3.5"/>
				</g>
			</g>
		</g>
		<g id="text_1">
			<text transform="matrix(1 0 0 1 99.1356 312.2778)" class="st3 st4">0.0</text>
		</g>
	</g>
	<g id="xtick_2">
		<g id="line2d_2">
			<g>
				<g>
					<path id="m6efc2625c5_00000113318472270495703410000012733399935653404039_" class="st2" d="M157.9,294.6v3.5"/>
				</g>
			</g>
		</g>
		<g id="text_2">
			<text transform="matrix(1 0 0 1 147.4919 312.2778)" class="st3 st4">0.1</text>
		</g>
	</g>
	<g id="xtick_3">
		<g id="line2d_3">
			<g>
				<g>
					<path id="m6efc2625c5_00000044856866570659424960000002262601784401715356_" class="st2" d="M206.2,294.6v3.5"/>
				</g>
			</g>
		</g>
		<g id="text_3">
			<text transform="matrix(1 0 0 1 195.8483 312.2778)" class="st3 st4">0.2</text>
		</g>
	</g>
	<g id="xtick_4">
		<g id="line2d_4">
			<g>
				<g>
					<path id="m6efc2625c5_00000112602242315618206850000007446422095809727133_" class="st2" d="M254.6,294.6v3.5"/>
				</g>
			</g>
		</g>
		<g id="text_4">
			<text transform="matrix(1 0 0 1 244.2047 312.2778)" class="st3 st4">0.3</text>
		</g>
	</g>
	<g id="xtick_5">
		<g id="line2d_5">
			<g>
				<g>
					<path id="m6efc2625c5_00000008138781806572750400000018389406042324701629_" class="st2" d="M302.9,294.6v3.5"/>
				</g>
			</g>
		</g>
		<g id="text_5">
			<text transform="matrix(1 0 0 1 292.561 312.2778)" class="st3 st4">0.4</text>
		</g>
	</g>
	<g id="xtick_6">
		<g id="line2d_6">
			<g>
				<g>
					<path id="m6efc2625c5_00000057845499511874307570000006293836687101416859_" class="st2" d="M351.3,294.6v3.5"/>
				</g>
			</g>
		</g>
		<g id="text_6">
			<text transform="matrix(1 0 0 1 340.9174 312.2778)" class="st3 st4">0.5</text>
		</g>
	</g>
	<g id="text_7">
		<text transform="matrix(1 0 0 1 193.8883 331.3469)" class="st3 st5">True FDR</text>
	</g>
</g>
<g id="matplotlib.axis_2">
	<g id="ytick_1">
		<g id="line2d_7">
			<g>
				<g>
					<path id="me74b07e942" class="st2" d="M97.4,282.6h-3.5"/>
				</g>
			</g>
		</g>
		<g id="text_8">
			<text transform="matrix(1 0 0 1 69.6729 287.8698)" class="st3 st4">0.0</text>
		</g>
	</g>
	<g id="ytick_2">
		<g id="line2d_8">
			<g>
				<g>
					<path id="me74b07e942_00000174562787102600450300000010472604265444913280_" class="st2" d="M97.4,234.2h-3.5"/>
				</g>
			</g>
		</g>
		<g id="text_9">
			<text transform="matrix(1 0 0 1 69.6729 239.5135)" class="st3 st4">0.1</text>
		</g>
	</g>
	<g id="ytick_3">
		<g id="line2d_9">
			<g>
				<g>
					<path id="me74b07e942_00000007419040868258315240000001011187254371679371_" class="st2" d="M97.4,185.8h-3.5"/>
				</g>
			</g>
		</g>
		<g id="text_10">
			<text transform="matrix(1 0 0 1 69.6729 191.1571)" class="st3 st4">0.2</text>
		</g>
	</g>
	<g id="ytick_4">
		<g id="line2d_10">
			<g>
				<g>
					<path id="me74b07e942_00000094602337829791873850000012815143103180872888_" class="st2" d="M97.4,137.5h-3.5"/>
				</g>
			</g>
		</g>
		<g id="text_11">
			<text transform="matrix(1 0 0 1 69.6729 142.8007)" class="st3 st4">0.3</text>
		</g>
	</g>
	<g id="ytick_5">
		<g id="line2d_11">
			<g>
				<g>
					<path id="me74b07e942_00000162332091136798887810000008162759300969493935_" class="st2" d="M97.4,89.1h-3.5"/>
				</g>
			</g>
		</g>
		<g id="text_12">
			<text transform="matrix(1 0 0 1 69.6729 94.4444)" class="st3 st4">0.4</text>
		</g>
	</g>
	<g id="ytick_6">
		<g id="line2d_12">
			<g>
				<g>
					<path id="me74b07e942_00000139986456488703440850000004654830348604695971_" class="st2" d="M97.4,40.8h-3.5"/>
				</g>
			</g>
		</g>
		<g id="text_13">
			<text transform="matrix(1 0 0 1 69.6729 46.088)" class="st3 st4">0.5</text>
		</g>
	</g>
	<g id="text_14">
		<text transform="matrix(6.123234e-17 -1 1 6.123234e-17 60.8281 216.5586)" class="st3 st5">Predicted FDR</text>
	</g>
</g>
<g id="line2d_13">
	<g>
		<defs>
			<rect id="SVGID_00000116233479181543829350000006819736435591247535_" x="97.4" y="28.7" width="266" height="266"/>
		</defs>
		<clipPath id="SVGID_00000129889448214660702530000010142143471463164342_">
			<use xlink:href="#SVGID_00000116233479181543829350000006819736435591247535_"  style="overflow:visible;"/>
		</clipPath>
		
			<path style="clip-path:url(#SVGID_00000129889448214660702530000010142143471463164342_);fill:none;stroke:#000000;stroke-width:2;stroke-linejoin:round;stroke-dasharray:7.4,3.2;" d="
			M109.5,282.6L351.3,40.8"/>
	</g>
</g>
<g id="line2d_14">
	<g>
		<defs>
			<rect id="SVGID_00000129893120098955339060000012557109652437322661_" x="97.4" y="28.7" width="266" height="266"/>
		</defs>
		<clipPath id="SVGID_00000029740624685044677210000007320612992459689640_">
			<use xlink:href="#SVGID_00000129893120098955339060000012557109652437322661_"  style="overflow:visible;"/>
		</clipPath>
		
			<path style="clip-path:url(#SVGID_00000029740624685044677210000007320612992459689640_);fill:none;stroke:#000000;stroke-width:2;stroke-linecap:square;stroke-linejoin:round;" d="
			M109.5,281.7L351.3,45.4"/>
	</g>
</g>
<g id="patch_3">
	<path class="st8" d="M97.4,294.6v-266"/>
</g>
<g id="patch_4">
	<path class="st8" d="M363.4,294.6v-266"/>
</g>
<g id="patch_5">
	<path class="st8" d="M97.4,294.6h266"/>
</g>
<g id="patch_6">
	<path class="st8" d="M97.4,28.7h266"/>
</g>
<g id="text_15">
	<g transform="translate(254.578182 234.194545)">
		<text transform="matrix(1 0 0 1 0 -0.5625)" class="st9 st5">R</text>
		<text transform="matrix(1 0 0 1 11.5547 -0.5625)" class="st9 st10"> </text>
		<text transform="matrix(1 0 0 1 12.2408 -6.6875)" class="st9 st11">2</text>
		<text transform="matrix(1 0 0 1 18.4697 -6.6875)" class="st9 st10"> </text>
		<text transform="matrix(1 0 0 1 19.8041 -0.5625)" class="st9 st5"> </text>
		<text transform="matrix(1 0 0 1 24.8901 -0.5625)" class="st9 st5">=</text>
		<text transform="matrix(1 0 0 1 38.2963 -0.5625)" class="st9 st5"> </text>
		<text transform="matrix(1 0 0 1 43.3823 -0.5625)" class="st9 st5">0</text>
		<text transform="matrix(1 0 0 1 53.562 -0.5625)" class="st9 st5">.</text>
		<text transform="matrix(1 0 0 1 58.6479 -0.5625)" class="st9 st5">9</text>
		<text transform="matrix(1 0 0 1 68.8276 -0.5625)" class="st9 st5">8</text>
	</g>
</g>
<g id="text_16">
	<text transform="matrix(1 0 0 1 117.525 22.6801)" class="st3 st5">CV0.5_lognorm4_05-15-2024</text>
</g>
</svg>
