<?xml version="1.0" encoding="utf-8"?>
<!-- Generator: Adobe Illustrator 28.0.0, SVG Export Plug-In . SVG Version: 6.00 Build 0)  -->
<svg version="1.1" id="Layer_1" xmlns="http://www.w3.org/2000/svg" xmlns:xlink="http://www.w3.org/1999/xlink" x="0px" y="0px"
	 viewBox="0 0 460.8 345.6" style="enable-background:new 0 0 460.8 345.6;" xml:space="preserve">
<style type="text/css">
	.st0{clip-path:url(#SVGID_00000028285480079468793960000000373034192216142755_);}
	.st1{fill:#0000FF;stroke:#0000FF;stroke-linejoin:round;}
	.st2{stroke:#000000;stroke-width:0.8;stroke-linejoin:round;}
	.st3{font-family:'LucidaBright';}
	.st4{font-size:14px;}
	.st5{font-size:16px;}
	
		.st6{clip-path:url(#SVGID_00000169549364849427544460000009262557038396696214_);fill:none;stroke:#000000;stroke-width:2;stroke-linejoin:round;stroke-dasharray:7.4,3.2;}
	
		.st7{clip-path:url(#SVGID_00000003073062992821402020000005183428112418673810_);fill:none;stroke:#000000;stroke-width:2;stroke-linecap:square;stroke-linejoin:round;}
	.st8{fill:none;stroke:#000000;stroke-width:0.8;stroke-linecap:square;}
	.st9{font-family:'ArialMT';}
	.st10{font-size:12px;}
	.st11{font-size:11.2px;}
</style>
<g id="PathCollection_1">
	<g>
		<defs>
			<rect id="SVGID_1_" x="97.4" y="28.7" width="266" height="266"/>
		</defs>
		<clipPath id="SVGID_00000116201804557697020610000000155133922828608916_">
			<use xlink:href="#SVGID_1_"  style="overflow:visible;"/>
		</clipPath>
		<g style="clip-path:url(#SVGID_00000116201804557697020610000000155133922828608916_);">
			<g>
				<path id="meffedaa74f" class="st1" d="M165.3,223.6c0.6,0,1.3-0.3,1.7-0.7c0.5-0.5,0.7-1.1,0.7-1.7s-0.3-1.3-0.7-1.7
					c-0.5-0.5-1.1-0.7-1.7-0.7s-1.3,0.3-1.7,0.7c-0.5,0.5-0.7,1.1-0.7,1.7s0.3,1.3,0.7,1.7C164.1,223.3,164.7,223.6,165.3,223.6z"/>
			</g>
			<g>
				<path id="meffedaa74f_00000181775534038648888320000008322457526633876408_" class="st1" d="M152.9,245.3c0.6,0,1.3-0.3,1.7-0.7
					c0.5-0.5,0.7-1.1,0.7-1.7s-0.3-1.3-0.7-1.7c-0.5-0.5-1.1-0.7-1.7-0.7s-1.3,0.3-1.7,0.7c-0.5,0.5-0.7,1.1-0.7,1.7
					s0.3,1.3,0.7,1.7C151.6,245.1,152.3,245.3,152.9,245.3z"/>
			</g>
			<g>
				<path id="meffedaa74f_00000173839993431586084370000004121501285164964788_" class="st1" d="M135.9,258.2c0.6,0,1.3-0.3,1.7-0.7
					c0.5-0.5,0.7-1.1,0.7-1.7c0-0.6-0.3-1.3-0.7-1.7c-0.5-0.5-1.1-0.7-1.7-0.7s-1.3,0.3-1.7,0.7c-0.5,0.5-0.7,1.1-0.7,1.7
					c0,0.6,0.3,1.3,0.7,1.7C134.6,258,135.2,258.2,135.9,258.2z"/>
			</g>
			<g>
				<path id="meffedaa74f_00000011023450005387780230000001488485595663192458_" class="st1" d="M141.9,254.1c0.6,0,1.3-0.3,1.7-0.7
					c0.5-0.5,0.7-1.1,0.7-1.7s-0.3-1.3-0.7-1.7c-0.5-0.5-1.1-0.7-1.7-0.7s-1.3,0.3-1.7,0.7c-0.5,0.5-0.7,1.1-0.7,1.7
					s0.3,1.3,0.7,1.7C140.6,253.9,141.3,254.1,141.9,254.1z"/>
			</g>
			<g>
				<path id="meffedaa74f_00000128453458001299600310000010710188267406982846_" class="st1" d="M240.9,158.5c0.6,0,1.3-0.3,1.7-0.7
					c0.5-0.5,0.7-1.1,0.7-1.7s-0.3-1.3-0.7-1.7c-0.5-0.5-1.1-0.7-1.7-0.7s-1.3,0.3-1.7,0.7c-0.5,0.5-0.7,1.1-0.7,1.7
					s0.3,1.3,0.7,1.7C239.6,158.2,240.2,158.5,240.9,158.5z"/>
			</g>
			<g>
				<path id="meffedaa74f_00000092416581010590153300000013663535552434605464_" class="st1" d="M297.5,96.8c0.6,0,1.3-0.3,1.7-0.7
					c0.5-0.5,0.7-1.1,0.7-1.7s-0.3-1.3-0.7-1.7c-0.5-0.5-1.1-0.7-1.7-0.7s-1.3,0.3-1.7,0.7c-0.5,0.5-0.7,1.1-0.7,1.7
					s0.3,1.3,0.7,1.7C296.2,96.5,296.8,96.8,297.5,96.8z"/>
			</g>
			<g>
				<path id="meffedaa74f_00000101801294934678371590000012500330696691497393_" class="st1" d="M112.8,281.1c0.6,0,1.3-0.3,1.7-0.7
					c0.5-0.5,0.7-1.1,0.7-1.7c0-0.6-0.3-1.3-0.7-1.7c-0.5-0.5-1.1-0.7-1.7-0.7s-1.3,0.3-1.7,0.7c-0.5,0.5-0.7,1.1-0.7,1.7
					c0,0.6,0.3,1.3,0.7,1.7C111.5,280.8,112.1,281.1,112.8,281.1z"/>
			</g>
			<g>
				<path id="meffedaa74f_00000172402969163948454160000013697144382907236797_" class="st1" d="M125.7,272.8c0.6,0,1.3-0.3,1.7-0.7
					c0.5-0.5,0.7-1.1,0.7-1.7c0-0.6-0.3-1.3-0.7-1.7c-0.5-0.5-1.1-0.7-1.7-0.7s-1.3,0.3-1.7,0.7c-0.5,0.5-0.7,1.1-0.7,1.7
					c0,0.6,0.3,1.3,0.7,1.7C124.4,272.5,125,272.8,125.7,272.8z"/>
			</g>
			<g>
				<path id="meffedaa74f_00000060748862083359040120000005511758006551083678_" class="st1" d="M350.2,43.2c0.6,0,1.3-0.3,1.7-0.7
					c0.5-0.5,0.7-1.1,0.7-1.7s-0.3-1.3-0.7-1.7c-0.5-0.5-1.1-0.7-1.7-0.7s-1.3,0.3-1.7,0.7c-0.5,0.5-0.7,1.1-0.7,1.7
					s0.3,1.3,0.7,1.7C349,43,349.6,43.2,350.2,43.2z"/>
			</g>
			<g>
				<path id="meffedaa74f_00000011001148935414008020000010812466639549350334_" class="st1" d="M343.1,85c0.6,0,1.3-0.3,1.7-0.7
					c0.5-0.5,0.7-1.1,0.7-1.7s-0.3-1.3-0.7-1.7c-0.5-0.5-1.1-0.7-1.7-0.7s-1.3,0.3-1.7,0.7c-0.5,0.5-0.7,1.1-0.7,1.7
					s0.3,1.3,0.7,1.7C341.8,84.7,342.5,85,343.1,85z"/>
			</g>
			<g>
				<path id="meffedaa74f_00000122712208516026036440000002862352642567126147_" class="st1" d="M134.8,258.9c0.6,0,1.3-0.3,1.7-0.7
					c0.5-0.5,0.7-1.1,0.7-1.7c0-0.6-0.3-1.3-0.7-1.7c-0.5-0.5-1.1-0.7-1.7-0.7s-1.3,0.3-1.7,0.7c-0.5,0.5-0.7,1.1-0.7,1.7
					c0,0.6,0.3,1.3,0.7,1.7C133.5,258.7,134.2,258.9,134.8,258.9z"/>
			</g>
			<g>
				<path id="meffedaa74f_00000169527539848021109950000016968799789247287197_" class="st1" d="M207.3,190.7c0.6,0,1.3-0.3,1.7-0.7
					c0.5-0.5,0.7-1.1,0.7-1.7s-0.3-1.3-0.7-1.7c-0.5-0.5-1.1-0.7-1.7-0.7s-1.3,0.3-1.7,0.7c-0.5,0.5-0.7,1.1-0.7,1.7
					s0.3,1.3,0.7,1.7C206,190.5,206.7,190.7,207.3,190.7z"/>
			</g>
			<g>
				<path id="meffedaa74f_00000051362377822708497680000003886906724774147466_" class="st1" d="M333.2,73.6c0.6,0,1.3-0.3,1.7-0.7
					c0.5-0.5,0.7-1.1,0.7-1.7s-0.3-1.3-0.7-1.7c-0.5-0.5-1.1-0.7-1.7-0.7s-1.3,0.3-1.7,0.7c-0.5,0.5-0.7,1.1-0.7,1.7
					s0.3,1.3,0.7,1.7C331.9,73.3,332.5,73.6,333.2,73.6z"/>
			</g>
			<g>
				<path id="meffedaa74f_00000071551084342281274340000003351131953671896250_" class="st1" d="M297.7,88.9c0.6,0,1.3-0.3,1.7-0.7
					c0.5-0.5,0.7-1.1,0.7-1.7s-0.3-1.3-0.7-1.7c-0.5-0.5-1.1-0.7-1.7-0.7s-1.3,0.3-1.7,0.7c-0.5,0.5-0.7,1.1-0.7,1.7
					s0.3,1.3,0.7,1.7C296.5,88.6,297.1,88.9,297.7,88.9z"/>
			</g>
			<g>
				<path id="meffedaa74f_00000038412665404683968910000004521388633464729502_" class="st1" d="M340.9,65.5c0.6,0,1.3-0.3,1.7-0.7
					c0.5-0.5,0.7-1.1,0.7-1.7s-0.3-1.3-0.7-1.7c-0.5-0.5-1.1-0.7-1.7-0.7s-1.3,0.3-1.7,0.7c-0.5,0.5-0.7,1.1-0.7,1.7
					s0.3,1.3,0.7,1.7C339.7,65.2,340.3,65.5,340.9,65.5z"/>
			</g>
			<g>
				<path id="meffedaa74f_00000145026587638054045260000014220733336882978994_" class="st1" d="M259.3,121.8c0.6,0,1.3-0.3,1.7-0.7
					c0.5-0.5,0.7-1.1,0.7-1.7s-0.3-1.3-0.7-1.7c-0.5-0.5-1.1-0.7-1.7-0.7s-1.3,0.3-1.7,0.7c-0.5,0.5-0.7,1.1-0.7,1.7
					s0.3,1.3,0.7,1.7C258,121.6,258.6,121.8,259.3,121.8z"/>
			</g>
			<g>
				<path id="meffedaa74f_00000019647724870041091600000012840814911606304923_" class="st1" d="M222.2,173.4c0.6,0,1.3-0.3,1.7-0.7
					c0.5-0.5,0.7-1.1,0.7-1.7s-0.3-1.3-0.7-1.7c-0.5-0.5-1.1-0.7-1.7-0.7s-1.3,0.3-1.7,0.7c-0.5,0.5-0.7,1.1-0.7,1.7
					s0.3,1.3,0.7,1.7C221,173.2,221.6,173.4,222.2,173.4z"/>
			</g>
			<g>
				<path id="meffedaa74f_00000166645345758817847380000016260043778953216693_" class="st1" d="M268.2,123.9c0.6,0,1.3-0.3,1.7-0.7
					c0.5-0.5,0.7-1.1,0.7-1.7s-0.3-1.3-0.7-1.7c-0.5-0.5-1.1-0.7-1.7-0.7s-1.3,0.3-1.7,0.7c-0.5,0.5-0.7,1.1-0.7,1.7
					s0.3,1.3,0.7,1.7C266.9,123.6,267.5,123.9,268.2,123.9z"/>
			</g>
			<g>
				<path id="meffedaa74f_00000173152414692358211160000015519682817495632802_" class="st1" d="M115.6,279c0.6,0,1.3-0.3,1.7-0.7
					c0.5-0.5,0.7-1.1,0.7-1.7c0-0.6-0.3-1.3-0.7-1.7c-0.5-0.5-1.1-0.7-1.7-0.7s-1.3,0.3-1.7,0.7c-0.5,0.5-0.7,1.1-0.7,1.7
					c0,0.6,0.3,1.3,0.7,1.7C114.4,278.8,115,279,115.6,279z"/>
			</g>
			<g>
				<path id="meffedaa74f_00000012467531852928540210000001331168337507428750_" class="st1" d="M128.8,266.1c0.6,0,1.3-0.3,1.7-0.7
					c0.5-0.5,0.7-1.1,0.7-1.7c0-0.6-0.3-1.3-0.7-1.7c-0.5-0.5-1.1-0.7-1.7-0.7s-1.3,0.3-1.7,0.7c-0.5,0.5-0.7,1.1-0.7,1.7
					c0,0.6,0.3,1.3,0.7,1.7C127.5,265.8,128.1,266.1,128.8,266.1z"/>
			</g>
			<g>
				<path id="meffedaa74f_00000171721960301056352340000003147102670714946734_" class="st1" d="M144.3,252.4c0.6,0,1.3-0.3,1.7-0.7
					c0.5-0.5,0.7-1.1,0.7-1.7s-0.3-1.3-0.7-1.7c-0.5-0.5-1.1-0.7-1.7-0.7s-1.3,0.3-1.7,0.7c-0.5,0.5-0.7,1.1-0.7,1.7
					s0.3,1.3,0.7,1.7C143,252.2,143.7,252.4,144.3,252.4z"/>
			</g>
			<g>
				<path id="meffedaa74f_00000152245748608775303900000008852729945824532628_" class="st1" d="M161.6,230c0.6,0,1.3-0.3,1.7-0.7
					c0.5-0.5,0.7-1.1,0.7-1.7s-0.3-1.3-0.7-1.7c-0.5-0.5-1.1-0.7-1.7-0.7s-1.3,0.3-1.7,0.7c-0.5,0.5-0.7,1.1-0.7,1.7
					s0.3,1.3,0.7,1.7C160.4,229.7,161,230,161.6,230z"/>
			</g>
			<g>
				<path id="meffedaa74f_00000169538764299506469990000017025296577880248457_" class="st1" d="M166.7,228.2c0.6,0,1.3-0.3,1.7-0.7
					c0.5-0.5,0.7-1.1,0.7-1.7s-0.3-1.3-0.7-1.7c-0.5-0.5-1.1-0.7-1.7-0.7s-1.3,0.3-1.7,0.7c-0.5,0.5-0.7,1.1-0.7,1.7
					s0.3,1.3,0.7,1.7C165.5,227.9,166.1,228.2,166.7,228.2z"/>
			</g>
			<g>
				<path id="meffedaa74f_00000026142821957603850200000015087372155425027488_" class="st1" d="M337.9,64.2c0.6,0,1.3-0.3,1.7-0.7
					c0.5-0.5,0.7-1.1,0.7-1.7s-0.3-1.3-0.7-1.7c-0.5-0.5-1.1-0.7-1.7-0.7s-1.3,0.3-1.7,0.7c-0.5,0.5-0.7,1.1-0.7,1.7
					s0.3,1.3,0.7,1.7C336.7,63.9,337.3,64.2,337.9,64.2z"/>
			</g>
			<g>
				<path id="meffedaa74f_00000015350815493807969190000015204087124021765292_" class="st1" d="M273.1,118.1c0.6,0,1.3-0.3,1.7-0.7
					c0.5-0.5,0.7-1.1,0.7-1.7s-0.3-1.3-0.7-1.7c-0.5-0.5-1.1-0.7-1.7-0.7s-1.3,0.3-1.7,0.7c-0.5,0.5-0.7,1.1-0.7,1.7
					s0.3,1.3,0.7,1.7C271.8,117.9,272.4,118.1,273.1,118.1z"/>
			</g>
			<g>
				<path id="meffedaa74f_00000173151942206778862440000005184146036427001264_" class="st1" d="M326,74c0.6,0,1.3-0.3,1.7-0.7
					c0.5-0.5,0.7-1.1,0.7-1.7s-0.3-1.3-0.7-1.7c-0.5-0.5-1.1-0.7-1.7-0.7s-1.3,0.3-1.7,0.7c-0.5,0.5-0.7,1.1-0.7,1.7
					s0.3,1.3,0.7,1.7C324.7,73.7,325.3,74,326,74z"/>
			</g>
			<g>
				<path id="meffedaa74f_00000030482435871491670920000012793769861853060031_" class="st1" d="M277.3,148.3c0.6,0,1.3-0.3,1.7-0.7
					c0.5-0.5,0.7-1.1,0.7-1.7s-0.3-1.3-0.7-1.7c-0.5-0.5-1.1-0.7-1.7-0.7s-1.3,0.3-1.7,0.7c-0.5,0.5-0.7,1.1-0.7,1.7
					s0.3,1.3,0.7,1.7C276.1,148.1,276.7,148.3,277.3,148.3z"/>
			</g>
			<g>
				<path id="meffedaa74f_00000167369501137590433630000006157167598044920491_" class="st1" d="M201.7,191.9c0.6,0,1.3-0.3,1.7-0.7
					c0.5-0.5,0.7-1.1,0.7-1.7s-0.3-1.3-0.7-1.7c-0.5-0.5-1.1-0.7-1.7-0.7s-1.3,0.3-1.7,0.7c-0.5,0.5-0.7,1.1-0.7,1.7
					s0.3,1.3,0.7,1.7C200.5,191.6,201.1,191.9,201.7,191.9z"/>
			</g>
			<g>
				<path id="meffedaa74f_00000147190896928882090890000010652433452447053203_" class="st1" d="M282.2,116.6c0.6,0,1.3-0.3,1.7-0.7
					c0.5-0.5,0.7-1.1,0.7-1.7s-0.3-1.3-0.7-1.7c-0.5-0.5-1.1-0.7-1.7-0.7s-1.3,0.3-1.7,0.7c-0.5,0.5-0.7,1.1-0.7,1.7
					s0.3,1.3,0.7,1.7C280.9,116.3,281.6,116.6,282.2,116.6z"/>
			</g>
			<g>
				<path id="meffedaa74f_00000137818680610496782920000000662795173265230742_" class="st1" d="M314.9,79.4c0.6,0,1.3-0.3,1.7-0.7
					c0.5-0.5,0.7-1.1,0.7-1.7s-0.3-1.3-0.7-1.7c-0.5-0.5-1.1-0.7-1.7-0.7s-1.3,0.3-1.7,0.7c-0.5,0.5-0.7,1.1-0.7,1.7
					s0.3,1.3,0.7,1.7C313.6,79.2,314.3,79.4,314.9,79.4z"/>
			</g>
			<g>
				<path id="meffedaa74f_00000172435249709143142400000006975546916341033894_" class="st1" d="M251.9,138.4c0.6,0,1.3-0.3,1.7-0.7
					c0.5-0.5,0.7-1.1,0.7-1.7s-0.3-1.3-0.7-1.7c-0.5-0.5-1.1-0.7-1.7-0.7s-1.3,0.3-1.7,0.7c-0.5,0.5-0.7,1.1-0.7,1.7
					s0.3,1.3,0.7,1.7C250.6,138.1,251.2,138.4,251.9,138.4z"/>
			</g>
			<g>
				<path id="meffedaa74f_00000041256477351265609290000001831118202817830057_" class="st1" d="M334.9,60c0.6,0,1.3-0.3,1.7-0.7
					c0.5-0.5,0.7-1.1,0.7-1.7s-0.3-1.3-0.7-1.7c-0.5-0.5-1.1-0.7-1.7-0.7s-1.3,0.3-1.7,0.7c-0.5,0.5-0.7,1.1-0.7,1.7
					s0.3,1.3,0.7,1.7C333.6,59.8,334.2,60,334.9,60z"/>
			</g>
			<g>
				<path id="meffedaa74f_00000069370785509699604240000012360500666249847180_" class="st1" d="M174.2,218.1c0.6,0,1.3-0.3,1.7-0.7
					c0.5-0.5,0.7-1.1,0.7-1.7s-0.3-1.3-0.7-1.7c-0.5-0.5-1.1-0.7-1.7-0.7s-1.3,0.3-1.7,0.7c-0.5,0.5-0.7,1.1-0.7,1.7
					s0.3,1.3,0.7,1.7C172.9,217.8,173.5,218.1,174.2,218.1z"/>
			</g>
			<g>
				<path id="meffedaa74f_00000034087831286974624900000008832626346295776686_" class="st1" d="M243.7,155.3c0.6,0,1.3-0.3,1.7-0.7
					c0.5-0.5,0.7-1.1,0.7-1.7s-0.3-1.3-0.7-1.7c-0.5-0.5-1.1-0.7-1.7-0.7s-1.3,0.3-1.7,0.7c-0.5,0.5-0.7,1.1-0.7,1.7
					s0.3,1.3,0.7,1.7C242.5,155,243.1,155.3,243.7,155.3z"/>
			</g>
			<g>
				<path id="meffedaa74f_00000031193767456676282180000009202960969316777602_" class="st1" d="M294.5,87c0.6,0,1.3-0.3,1.7-0.7
					c0.5-0.5,0.7-1.1,0.7-1.7s-0.3-1.3-0.7-1.7c-0.5-0.5-1.1-0.7-1.7-0.7s-1.3,0.3-1.7,0.7c-0.5,0.5-0.7,1.1-0.7,1.7
					s0.3,1.3,0.7,1.7C293.2,86.8,293.8,87,294.5,87z"/>
			</g>
			<g>
				<path id="meffedaa74f_00000132058599967344684630000002300898430816293052_" class="st1" d="M314.6,61c0.6,0,1.3-0.3,1.7-0.7
					c0.5-0.5,0.7-1.1,0.7-1.7s-0.3-1.3-0.7-1.7c-0.5-0.5-1.1-0.7-1.7-0.7s-1.3,0.3-1.7,0.7c-0.5,0.5-0.7,1.1-0.7,1.7
					s0.3,1.3,0.7,1.7C313.3,60.8,314,61,314.6,61z"/>
			</g>
			<g>
				<path id="meffedaa74f_00000013184763525067468110000012891149420710138273_" class="st1" d="M163.2,238c0.6,0,1.3-0.3,1.7-0.7
					c0.5-0.5,0.7-1.1,0.7-1.7s-0.3-1.3-0.7-1.7c-0.5-0.5-1.1-0.7-1.7-0.7s-1.3,0.3-1.7,0.7c-0.5,0.5-0.7,1.1-0.7,1.7
					s0.3,1.3,0.7,1.7C161.9,237.8,162.5,238,163.2,238z"/>
			</g>
			<g>
				<path id="meffedaa74f_00000001660377046214110190000011944499858702714248_" class="st1" d="M303.5,111.7c0.6,0,1.3-0.3,1.7-0.7
					c0.5-0.5,0.7-1.1,0.7-1.7s-0.3-1.3-0.7-1.7c-0.5-0.5-1.1-0.7-1.7-0.7s-1.3,0.3-1.7,0.7c-0.5,0.5-0.7,1.1-0.7,1.7
					s0.3,1.3,0.7,1.7C302.2,111.5,302.8,111.7,303.5,111.7z"/>
			</g>
			<g>
				<path id="meffedaa74f_00000016039413470848168360000005190320372035760059_" class="st1" d="M172.6,226.3c0.6,0,1.3-0.3,1.7-0.7
					c0.5-0.5,0.7-1.1,0.7-1.7s-0.3-1.3-0.7-1.7c-0.5-0.5-1.1-0.7-1.7-0.7s-1.3,0.3-1.7,0.7c-0.5,0.5-0.7,1.1-0.7,1.7
					s0.3,1.3,0.7,1.7C171.3,226,171.9,226.3,172.6,226.3z"/>
			</g>
			<g>
				<path id="meffedaa74f_00000096041307217939217380000016294238130646872255_" class="st1" d="M313.6,79.1c0.6,0,1.3-0.3,1.7-0.7
					c0.5-0.5,0.7-1.1,0.7-1.7s-0.3-1.3-0.7-1.7c-0.5-0.5-1.1-0.7-1.7-0.7s-1.3,0.3-1.7,0.7c-0.5,0.5-0.7,1.1-0.7,1.7
					s0.3,1.3,0.7,1.7C312.3,78.8,313,79.1,313.6,79.1z"/>
			</g>
			<g>
				<path id="meffedaa74f_00000055698372750111922870000003610844693929739697_" class="st1" d="M138.3,252.5c0.6,0,1.3-0.3,1.7-0.7
					c0.5-0.5,0.7-1.1,0.7-1.7s-0.3-1.3-0.7-1.7c-0.5-0.5-1.1-0.7-1.7-0.7s-1.3,0.3-1.7,0.7c-0.5,0.5-0.7,1.1-0.7,1.7
					s0.3,1.3,0.7,1.7C137,252.2,137.7,252.5,138.3,252.5z"/>
			</g>
			<g>
				<path id="meffedaa74f_00000033370859355051750400000003580015063185257391_" class="st1" d="M316.6,80.2c0.6,0,1.3-0.3,1.7-0.7
					c0.5-0.5,0.7-1.1,0.7-1.7s-0.3-1.3-0.7-1.7c-0.5-0.5-1.1-0.7-1.7-0.7s-1.3,0.3-1.7,0.7c-0.5,0.5-0.7,1.1-0.7,1.7
					s0.3,1.3,0.7,1.7C315.4,79.9,316,80.2,316.6,80.2z"/>
			</g>
			<g>
				<path id="meffedaa74f_00000075153876547773514430000017161556447464782982_" class="st1" d="M270.9,120.6c0.6,0,1.3-0.3,1.7-0.7
					c0.5-0.5,0.7-1.1,0.7-1.7s-0.3-1.3-0.7-1.7c-0.5-0.5-1.1-0.7-1.7-0.7s-1.3,0.3-1.7,0.7c-0.5,0.5-0.7,1.1-0.7,1.7
					s0.3,1.3,0.7,1.7C269.6,120.3,270.3,120.6,270.9,120.6z"/>
			</g>
			<g>
				<path id="meffedaa74f_00000005241892589933985860000013269328023559917953_" class="st1" d="M175.7,213.4c0.6,0,1.3-0.3,1.7-0.7
					c0.5-0.5,0.7-1.1,0.7-1.7s-0.3-1.3-0.7-1.7c-0.5-0.5-1.1-0.7-1.7-0.7s-1.3,0.3-1.7,0.7c-0.5,0.5-0.7,1.1-0.7,1.7
					s0.3,1.3,0.7,1.7C174.5,213.2,175.1,213.4,175.7,213.4z"/>
			</g>
			<g>
				<path id="meffedaa74f_00000150815692881433392600000009406338624951158958_" class="st1" d="M295.1,103.7c0.6,0,1.3-0.3,1.7-0.7
					c0.5-0.5,0.7-1.1,0.7-1.7s-0.3-1.3-0.7-1.7c-0.5-0.5-1.1-0.7-1.7-0.7s-1.3,0.3-1.7,0.7c-0.5,0.5-0.7,1.1-0.7,1.7
					s0.3,1.3,0.7,1.7C293.9,103.5,294.5,103.7,295.1,103.7z"/>
			</g>
			<g>
				<path id="meffedaa74f_00000070097484828796657390000003162119128072371853_" class="st1" d="M225.2,177.3c0.6,0,1.3-0.3,1.7-0.7
					c0.5-0.5,0.7-1.1,0.7-1.7s-0.3-1.3-0.7-1.7c-0.5-0.5-1.1-0.7-1.7-0.7s-1.3,0.3-1.7,0.7c-0.5,0.5-0.7,1.1-0.7,1.7
					s0.3,1.3,0.7,1.7C224,177.1,224.6,177.3,225.2,177.3z"/>
			</g>
			<g>
				<path id="meffedaa74f_00000111149459020073906260000005508130419811425214_" class="st1" d="M243.7,152.4c0.6,0,1.3-0.3,1.7-0.7
					c0.5-0.5,0.7-1.1,0.7-1.7s-0.3-1.3-0.7-1.7c-0.5-0.5-1.1-0.7-1.7-0.7s-1.3,0.3-1.7,0.7c-0.5,0.5-0.7,1.1-0.7,1.7
					s0.3,1.3,0.7,1.7C242.5,152.1,243.1,152.4,243.7,152.4z"/>
			</g>
			<g>
				<path id="meffedaa74f_00000182524372517072160730000015229230993895874948_" class="st1" d="M187.5,202.5c0.6,0,1.3-0.3,1.7-0.7
					c0.5-0.5,0.7-1.1,0.7-1.7s-0.3-1.3-0.7-1.7c-0.5-0.5-1.1-0.7-1.7-0.7s-1.3,0.3-1.7,0.7c-0.5,0.5-0.7,1.1-0.7,1.7
					s0.3,1.3,0.7,1.7C186.3,202.2,186.9,202.5,187.5,202.5z"/>
			</g>
			<g>
				<path id="meffedaa74f_00000162339007528750651090000011423442449002915471_" class="st1" d="M284.3,109.3c0.6,0,1.3-0.3,1.7-0.7
					c0.5-0.5,0.7-1.1,0.7-1.7s-0.3-1.3-0.7-1.7c-0.5-0.5-1.1-0.7-1.7-0.7s-1.3,0.3-1.7,0.7c-0.5,0.5-0.7,1.1-0.7,1.7
					s0.3,1.3,0.7,1.7C283,109,283.7,109.3,284.3,109.3z"/>
			</g>
			<g>
				<path id="meffedaa74f_00000017488750667466947120000009333297404217067441_" class="st1" d="M197.9,197.7c0.6,0,1.3-0.3,1.7-0.7
					c0.5-0.5,0.7-1.1,0.7-1.7s-0.3-1.3-0.7-1.7c-0.5-0.5-1.1-0.7-1.7-0.7s-1.3,0.3-1.7,0.7c-0.5,0.5-0.7,1.1-0.7,1.7
					s0.3,1.3,0.7,1.7C196.6,197.5,197.2,197.7,197.9,197.7z"/>
			</g>
			<g>
				<path id="meffedaa74f_00000134947702345992623550000016159687254454829230_" class="st1" d="M233,165.3c0.6,0,1.3-0.3,1.7-0.7
					c0.5-0.5,0.7-1.1,0.7-1.7s-0.3-1.3-0.7-1.7c-0.5-0.5-1.1-0.7-1.7-0.7s-1.3,0.3-1.7,0.7c-0.5,0.5-0.7,1.1-0.7,1.7
					s0.3,1.3,0.7,1.7C231.7,165,232.4,165.3,233,165.3z"/>
			</g>
			<g>
				<path id="meffedaa74f_00000175308014902481394180000005912872275751922824_" class="st1" d="M116.9,277.5c0.6,0,1.3-0.3,1.7-0.7
					c0.5-0.5,0.7-1.1,0.7-1.7c0-0.6-0.3-1.3-0.7-1.7c-0.5-0.5-1.1-0.7-1.7-0.7s-1.3,0.3-1.7,0.7c-0.5,0.5-0.7,1.1-0.7,1.7
					c0,0.6,0.3,1.3,0.7,1.7C115.6,277.2,116.2,277.5,116.9,277.5z"/>
			</g>
			<g>
				<path id="meffedaa74f_00000158029548106157731440000010214831422193771916_" class="st1" d="M150.9,246.4c0.6,0,1.3-0.3,1.7-0.7
					c0.5-0.5,0.7-1.1,0.7-1.7s-0.3-1.3-0.7-1.7c-0.5-0.5-1.1-0.7-1.7-0.7s-1.3,0.3-1.7,0.7c-0.5,0.5-0.7,1.1-0.7,1.7
					s0.3,1.3,0.7,1.7C149.6,246.1,150.3,246.4,150.9,246.4z"/>
			</g>
			<g>
				<path id="meffedaa74f_00000017498722510241702730000001596562757345132203_" class="st1" d="M159.9,242.2c0.6,0,1.3-0.3,1.7-0.7
					c0.5-0.5,0.7-1.1,0.7-1.7s-0.3-1.3-0.7-1.7c-0.5-0.5-1.1-0.7-1.7-0.7s-1.3,0.3-1.7,0.7c-0.5,0.5-0.7,1.1-0.7,1.7
					s0.3,1.3,0.7,1.7C158.6,241.9,159.2,242.2,159.9,242.2z"/>
			</g>
			<g>
				<path id="meffedaa74f_00000106828589761629280970000012439557867312557735_" class="st1" d="M109.7,284.7c0.6,0,1.3-0.3,1.7-0.7
					c0.5-0.5,0.7-1.1,0.7-1.7c0-0.6-0.3-1.3-0.7-1.7c-0.5-0.5-1.1-0.7-1.7-0.7s-1.3,0.3-1.7,0.7c-0.5,0.5-0.7,1.1-0.7,1.7
					c0,0.6,0.3,1.3,0.7,1.7C108.5,284.5,109.1,284.7,109.7,284.7z"/>
			</g>
			<g>
				<path id="meffedaa74f_00000139292444695557596670000016035474844401223066_" class="st1" d="M292.1,97.4c0.6,0,1.3-0.3,1.7-0.7
					c0.5-0.5,0.7-1.1,0.7-1.7s-0.3-1.3-0.7-1.7c-0.5-0.5-1.1-0.7-1.7-0.7s-1.3,0.3-1.7,0.7c-0.5,0.5-0.7,1.1-0.7,1.7
					s0.3,1.3,0.7,1.7C290.9,97.1,291.5,97.4,292.1,97.4z"/>
			</g>
			<g>
				<path id="meffedaa74f_00000182518206996603827050000002809881576400150949_" class="st1" d="M293.2,96c0.6,0,1.3-0.3,1.7-0.7
					c0.5-0.5,0.7-1.1,0.7-1.7s-0.3-1.3-0.7-1.7c-0.5-0.5-1.1-0.7-1.7-0.7s-1.3,0.3-1.7,0.7c-0.5,0.5-0.7,1.1-0.7,1.7
					s0.3,1.3,0.7,1.7C291.9,95.7,292.5,96,293.2,96z"/>
			</g>
			<g>
				<path id="meffedaa74f_00000112617757372343377050000013712696268561693069_" class="st1" d="M180.9,211.3c0.6,0,1.3-0.3,1.7-0.7
					c0.5-0.5,0.7-1.1,0.7-1.7s-0.3-1.3-0.7-1.7c-0.5-0.5-1.1-0.7-1.7-0.7s-1.3,0.3-1.7,0.7c-0.5,0.5-0.7,1.1-0.7,1.7
					s0.3,1.3,0.7,1.7C179.6,211,180.2,211.3,180.9,211.3z"/>
			</g>
			<g>
				<path id="meffedaa74f_00000145054800039948474370000002151890473865625239_" class="st1" d="M136.4,257.1c0.6,0,1.3-0.3,1.7-0.7
					c0.5-0.5,0.7-1.1,0.7-1.7s-0.3-1.3-0.7-1.7c-0.5-0.5-1.1-0.7-1.7-0.7s-1.3,0.3-1.7,0.7c-0.5,0.5-0.7,1.1-0.7,1.7
					s0.3,1.3,0.7,1.7C135.1,256.9,135.7,257.1,136.4,257.1z"/>
			</g>
			<g>
				<path id="meffedaa74f_00000134235697488445260350000015115860003328738210_" class="st1" d="M176.9,218.9c0.6,0,1.3-0.3,1.7-0.7
					c0.5-0.5,0.7-1.1,0.7-1.7s-0.3-1.3-0.7-1.7c-0.5-0.5-1.1-0.7-1.7-0.7s-1.3,0.3-1.7,0.7c-0.5,0.5-0.7,1.1-0.7,1.7
					s0.3,1.3,0.7,1.7C175.6,218.6,176.2,218.9,176.9,218.9z"/>
			</g>
			<g>
				<path id="meffedaa74f_00000029041565676556412940000005375839697548970639_" class="st1" d="M299.7,116c0.6,0,1.3-0.3,1.7-0.7
					c0.5-0.5,0.7-1.1,0.7-1.7s-0.3-1.3-0.7-1.7c-0.5-0.5-1.1-0.7-1.7-0.7s-1.3,0.3-1.7,0.7c-0.5,0.5-0.7,1.1-0.7,1.7
					s0.3,1.3,0.7,1.7C298.4,115.8,299,116,299.7,116z"/>
			</g>
			<g>
				<path id="meffedaa74f_00000045607684405279187670000017144183059207649160_" class="st1" d="M338.7,61.1c0.6,0,1.3-0.3,1.7-0.7
					c0.5-0.5,0.7-1.1,0.7-1.7s-0.3-1.3-0.7-1.7c-0.5-0.5-1.1-0.7-1.7-0.7s-1.3,0.3-1.7,0.7c-0.5,0.5-0.7,1.1-0.7,1.7
					s0.3,1.3,0.7,1.7C337.4,60.8,338,61.1,338.7,61.1z"/>
			</g>
			<g>
				<path id="meffedaa74f_00000128467845740497625060000012535985267317011626_" class="st1" d="M190.5,207.8c0.6,0,1.3-0.3,1.7-0.7
					c0.5-0.5,0.7-1.1,0.7-1.7s-0.3-1.3-0.7-1.7c-0.5-0.5-1.1-0.7-1.7-0.7s-1.3,0.3-1.7,0.7c-0.5,0.5-0.7,1.1-0.7,1.7
					s0.3,1.3,0.7,1.7C189.2,207.5,189.9,207.8,190.5,207.8z"/>
			</g>
			<g>
				<path id="meffedaa74f_00000000911713333059806950000002012852471666256045_" class="st1" d="M117.1,276.8c0.6,0,1.3-0.3,1.7-0.7
					c0.5-0.5,0.7-1.1,0.7-1.7c0-0.6-0.3-1.3-0.7-1.7c-0.5-0.5-1.1-0.7-1.7-0.7s-1.3,0.3-1.7,0.7c-0.5,0.5-0.7,1.1-0.7,1.7
					c0,0.6,0.3,1.3,0.7,1.7C115.8,276.6,116.4,276.8,117.1,276.8z"/>
			</g>
			<g>
				<path id="meffedaa74f_00000103975093579946918920000017436469635742017465_" class="st1" d="M246.3,149.8c0.6,0,1.3-0.3,1.7-0.7
					c0.5-0.5,0.7-1.1,0.7-1.7s-0.3-1.3-0.7-1.7c-0.5-0.5-1.1-0.7-1.7-0.7s-1.3,0.3-1.7,0.7c-0.5,0.5-0.7,1.1-0.7,1.7
					s0.3,1.3,0.7,1.7C245,149.6,245.7,149.8,246.3,149.8z"/>
			</g>
			<g>
				<path id="meffedaa74f_00000140694703779628919170000009974610341191909510_" class="st1" d="M211.6,184.2c0.6,0,1.3-0.3,1.7-0.7
					c0.5-0.5,0.7-1.1,0.7-1.7s-0.3-1.3-0.7-1.7c-0.5-0.5-1.1-0.7-1.7-0.7s-1.3,0.3-1.7,0.7c-0.5,0.5-0.7,1.1-0.7,1.7
					s0.3,1.3,0.7,1.7C210.3,184,210.9,184.2,211.6,184.2z"/>
			</g>
			<g>
				<path id="meffedaa74f_00000007391977340909036180000013491610725565567655_" class="st1" d="M320,84c0.6,0,1.3-0.3,1.7-0.7
					c0.5-0.5,0.7-1.1,0.7-1.7s-0.3-1.3-0.7-1.7c-0.5-0.5-1.1-0.7-1.7-0.7s-1.3,0.3-1.7,0.7c-0.5,0.5-0.7,1.1-0.7,1.7
					s0.3,1.3,0.7,1.7C318.7,83.8,319.3,84,320,84z"/>
			</g>
			<g>
				<path id="meffedaa74f_00000067221572183528816860000006030291863559088317_" class="st1" d="M200.8,204.9c0.6,0,1.3-0.3,1.7-0.7
					c0.5-0.5,0.7-1.1,0.7-1.7s-0.3-1.3-0.7-1.7c-0.5-0.5-1.1-0.7-1.7-0.7s-1.3,0.3-1.7,0.7c-0.5,0.5-0.7,1.1-0.7,1.7
					s0.3,1.3,0.7,1.7C199.5,204.7,200.2,204.9,200.8,204.9z"/>
			</g>
			<g>
				<path id="meffedaa74f_00000017485013412571819090000007733353448119824811_" class="st1" d="M201,188.4c0.6,0,1.3-0.3,1.7-0.7
					c0.5-0.5,0.7-1.1,0.7-1.7s-0.3-1.3-0.7-1.7c-0.5-0.5-1.1-0.7-1.7-0.7s-1.3,0.3-1.7,0.7c-0.5,0.5-0.7,1.1-0.7,1.7
					s0.3,1.3,0.7,1.7C199.7,188.1,200.3,188.4,201,188.4z"/>
			</g>
			<g>
				<path id="meffedaa74f_00000100373560117979112300000013267621735612274096_" class="st1" d="M190.4,207c0.6,0,1.3-0.3,1.7-0.7
					c0.5-0.5,0.7-1.1,0.7-1.7s-0.3-1.3-0.7-1.7c-0.5-0.5-1.1-0.7-1.7-0.7s-1.3,0.3-1.7,0.7c-0.5,0.5-0.7,1.1-0.7,1.7
					s0.3,1.3,0.7,1.7C189.1,206.7,189.7,207,190.4,207z"/>
			</g>
			<g>
				<path id="meffedaa74f_00000082368148839709712560000014498219343654351781_" class="st1" d="M161.5,225.2c0.6,0,1.3-0.3,1.7-0.7
					c0.5-0.5,0.7-1.1,0.7-1.7s-0.3-1.3-0.7-1.7c-0.5-0.5-1.1-0.7-1.7-0.7s-1.3,0.3-1.7,0.7c-0.5,0.5-0.7,1.1-0.7,1.7
					s0.3,1.3,0.7,1.7C160.2,225,160.8,225.2,161.5,225.2z"/>
			</g>
			<g>
				<path id="meffedaa74f_00000049927323822987478550000014376565175398053255_" class="st1" d="M190.5,207.4c0.6,0,1.3-0.3,1.7-0.7
					c0.5-0.5,0.7-1.1,0.7-1.7s-0.3-1.3-0.7-1.7c-0.5-0.5-1.1-0.7-1.7-0.7s-1.3,0.3-1.7,0.7c-0.5,0.5-0.7,1.1-0.7,1.7
					s0.3,1.3,0.7,1.7C189.2,207.1,189.8,207.4,190.5,207.4z"/>
			</g>
			<g>
				<path id="meffedaa74f_00000181770012306859286980000018330426449245833651_" class="st1" d="M120.6,274.5c0.6,0,1.3-0.3,1.7-0.7
					c0.5-0.5,0.7-1.1,0.7-1.7c0-0.6-0.3-1.3-0.7-1.7c-0.5-0.5-1.1-0.7-1.7-0.7s-1.3,0.3-1.7,0.7c-0.5,0.5-0.7,1.1-0.7,1.7
					c0,0.6,0.3,1.3,0.7,1.7C119.3,274.2,119.9,274.5,120.6,274.5z"/>
			</g>
			<g>
				<path id="meffedaa74f_00000019676337748285841490000010945520097178390153_" class="st1" d="M233.8,157.4c0.6,0,1.3-0.3,1.7-0.7
					c0.5-0.5,0.7-1.1,0.7-1.7s-0.3-1.3-0.7-1.7c-0.5-0.5-1.1-0.7-1.7-0.7s-1.3,0.3-1.7,0.7c-0.5,0.5-0.7,1.1-0.7,1.7
					s0.3,1.3,0.7,1.7C232.6,157.2,233.2,157.4,233.8,157.4z"/>
			</g>
			<g>
				<path id="meffedaa74f_00000057862063505807012320000015693118660409217178_" class="st1" d="M262.8,133c0.6,0,1.3-0.3,1.7-0.7
					c0.5-0.5,0.7-1.1,0.7-1.7s-0.3-1.3-0.7-1.7c-0.5-0.5-1.1-0.7-1.7-0.7s-1.3,0.3-1.7,0.7c-0.5,0.5-0.7,1.1-0.7,1.7
					s0.3,1.3,0.7,1.7C261.5,132.8,262.2,133,262.8,133z"/>
			</g>
			<g>
				<path id="meffedaa74f_00000075842967033929385750000002963843801740341174_" class="st1" d="M274.9,123.1c0.6,0,1.3-0.3,1.7-0.7
					c0.5-0.5,0.7-1.1,0.7-1.7s-0.3-1.3-0.7-1.7c-0.5-0.5-1.1-0.7-1.7-0.7s-1.3,0.3-1.7,0.7c-0.5,0.5-0.7,1.1-0.7,1.7
					s0.3,1.3,0.7,1.7C273.6,122.8,274.2,123.1,274.9,123.1z"/>
			</g>
			<g>
				<path id="meffedaa74f_00000179621891918541348730000004013708972843257756_" class="st1" d="M349.6,43.2c0.6,0,1.3-0.3,1.7-0.7
					c0.5-0.5,0.7-1.1,0.7-1.7s-0.3-1.3-0.7-1.7c-0.5-0.5-1.1-0.7-1.7-0.7s-1.3,0.3-1.7,0.7c-0.5,0.5-0.7,1.1-0.7,1.7
					s0.3,1.3,0.7,1.7C348.3,43,349,43.2,349.6,43.2z"/>
			</g>
			<g>
				<path id="meffedaa74f_00000083767650292473795820000010983267852694683553_" class="st1" d="M299.1,102.7c0.6,0,1.3-0.3,1.7-0.7
					c0.5-0.5,0.7-1.1,0.7-1.7s-0.3-1.3-0.7-1.7c-0.5-0.5-1.1-0.7-1.7-0.7s-1.3,0.3-1.7,0.7c-0.5,0.5-0.7,1.1-0.7,1.7
					s0.3,1.3,0.7,1.7C297.8,102.5,298.5,102.7,299.1,102.7z"/>
			</g>
			<g>
				<path id="meffedaa74f_00000062162843989977060270000000627453753613310357_" class="st1" d="M265.8,126.3c0.6,0,1.3-0.3,1.7-0.7
					c0.5-0.5,0.7-1.1,0.7-1.7s-0.3-1.3-0.7-1.7c-0.5-0.5-1.1-0.7-1.7-0.7s-1.3,0.3-1.7,0.7c-0.5,0.5-0.7,1.1-0.7,1.7
					s0.3,1.3,0.7,1.7C264.5,126.1,265.1,126.3,265.8,126.3z"/>
			</g>
			<g>
				<path id="meffedaa74f_00000151544971576625383030000002063096351339850650_" class="st1" d="M255.6,139.4c0.6,0,1.3-0.3,1.7-0.7
					c0.5-0.5,0.7-1.1,0.7-1.7s-0.3-1.3-0.7-1.7c-0.5-0.5-1.1-0.7-1.7-0.7s-1.3,0.3-1.7,0.7c-0.5,0.5-0.7,1.1-0.7,1.7
					s0.3,1.3,0.7,1.7C254.3,139.1,254.9,139.4,255.6,139.4z"/>
			</g>
			<g>
				<path id="meffedaa74f_00000013911504958040822450000017935363456670866591_" class="st1" d="M265.4,127.1c0.6,0,1.3-0.3,1.7-0.7
					c0.5-0.5,0.7-1.1,0.7-1.7s-0.3-1.3-0.7-1.7c-0.5-0.5-1.1-0.7-1.7-0.7s-1.3,0.3-1.7,0.7c-0.5,0.5-0.7,1.1-0.7,1.7
					s0.3,1.3,0.7,1.7C264.1,126.8,264.7,127.1,265.4,127.1z"/>
			</g>
			<g>
				<path id="meffedaa74f_00000151504060146284361570000002471443610032882872_" class="st1" d="M347.5,43.2c0.6,0,1.3-0.3,1.7-0.7
					c0.5-0.5,0.7-1.1,0.7-1.7s-0.3-1.3-0.7-1.7c-0.5-0.5-1.1-0.7-1.7-0.7s-1.3,0.3-1.7,0.7c-0.5,0.5-0.7,1.1-0.7,1.7
					s0.3,1.3,0.7,1.7C346.2,43,346.8,43.2,347.5,43.2z"/>
			</g>
			<g>
				<path id="meffedaa74f_00000042704483052191445150000014183424999369294739_" class="st1" d="M148.1,247c0.6,0,1.3-0.3,1.7-0.7
					c0.5-0.5,0.7-1.1,0.7-1.7s-0.3-1.3-0.7-1.7c-0.5-0.5-1.1-0.7-1.7-0.7s-1.3,0.3-1.7,0.7c-0.5,0.5-0.7,1.1-0.7,1.7
					s0.3,1.3,0.7,1.7C146.8,246.8,147.4,247,148.1,247z"/>
			</g>
			<g>
				<path id="meffedaa74f_00000009560567840117554260000004365650466315757185_" class="st1" d="M109.8,284.7c0.6,0,1.3-0.3,1.7-0.7
					c0.5-0.5,0.7-1.1,0.7-1.7c0-0.6-0.3-1.3-0.7-1.7c-0.5-0.5-1.1-0.7-1.7-0.7s-1.3,0.3-1.7,0.7c-0.5,0.5-0.7,1.1-0.7,1.7
					c0,0.6,0.3,1.3,0.7,1.7C108.5,284.5,109.1,284.7,109.8,284.7z"/>
			</g>
			<g>
				<path id="meffedaa74f_00000095333365517805626790000015364341050707631529_" class="st1" d="M324.8,74.2c0.6,0,1.3-0.3,1.7-0.7
					c0.5-0.5,0.7-1.1,0.7-1.7s-0.3-1.3-0.7-1.7c-0.5-0.5-1.1-0.7-1.7-0.7s-1.3,0.3-1.7,0.7c-0.5,0.5-0.7,1.1-0.7,1.7
					s0.3,1.3,0.7,1.7C323.5,73.9,324.1,74.2,324.8,74.2z"/>
			</g>
			<g>
				<path id="meffedaa74f_00000160171477214860336040000009739187905702747566_" class="st1" d="M113.2,281.4c0.6,0,1.3-0.3,1.7-0.7
					c0.5-0.5,0.7-1.1,0.7-1.7c0-0.6-0.3-1.3-0.7-1.7c-0.5-0.5-1.1-0.7-1.7-0.7s-1.3,0.3-1.7,0.7c-0.5,0.5-0.7,1.1-0.7,1.7
					c0,0.6,0.3,1.3,0.7,1.7C111.9,281.1,112.5,281.4,113.2,281.4z"/>
			</g>
			<g>
				<path id="meffedaa74f_00000022548890261648247320000005543028685121114303_" class="st1" d="M313.1,83.2c0.6,0,1.3-0.3,1.7-0.7
					c0.5-0.5,0.7-1.1,0.7-1.7s-0.3-1.3-0.7-1.7c-0.5-0.5-1.1-0.7-1.7-0.7s-1.3,0.3-1.7,0.7c-0.5,0.5-0.7,1.1-0.7,1.7
					s0.3,1.3,0.7,1.7C311.8,83,312.5,83.2,313.1,83.2z"/>
			</g>
			<g>
				<path id="meffedaa74f_00000068656155207946339230000013062555895276737943_" class="st1" d="M153.9,240.2c0.6,0,1.3-0.3,1.7-0.7
					c0.5-0.5,0.7-1.1,0.7-1.7s-0.3-1.3-0.7-1.7c-0.5-0.5-1.1-0.7-1.7-0.7s-1.3,0.3-1.7,0.7c-0.5,0.5-0.7,1.1-0.7,1.7
					s0.3,1.3,0.7,1.7C152.6,239.9,153.2,240.2,153.9,240.2z"/>
			</g>
			<g>
				<path id="meffedaa74f_00000080919713635320828800000004857516766853134731_" class="st1" d="M228.6,167c0.6,0,1.3-0.3,1.7-0.7
					c0.5-0.5,0.7-1.1,0.7-1.7s-0.3-1.3-0.7-1.7c-0.5-0.5-1.1-0.7-1.7-0.7s-1.3,0.3-1.7,0.7c-0.5,0.5-0.7,1.1-0.7,1.7
					s0.3,1.3,0.7,1.7C227.3,166.7,227.9,167,228.6,167z"/>
			</g>
			<g>
				<path id="meffedaa74f_00000116927858794543021000000010345204264081697416_" class="st1" d="M167.3,230.8c0.6,0,1.3-0.3,1.7-0.7
					c0.5-0.5,0.7-1.1,0.7-1.7s-0.3-1.3-0.7-1.7c-0.5-0.5-1.1-0.7-1.7-0.7s-1.3,0.3-1.7,0.7c-0.5,0.5-0.7,1.1-0.7,1.7
					s0.3,1.3,0.7,1.7C166,230.6,166.7,230.8,167.3,230.8z"/>
			</g>
			<g>
				<path id="meffedaa74f_00000098220311793660086020000013440727323510842509_" class="st1" d="M186.5,214.4c0.6,0,1.3-0.3,1.7-0.7
					c0.5-0.5,0.7-1.1,0.7-1.7s-0.3-1.3-0.7-1.7c-0.5-0.5-1.1-0.7-1.7-0.7s-1.3,0.3-1.7,0.7c-0.5,0.5-0.7,1.1-0.7,1.7
					s0.3,1.3,0.7,1.7C185.2,214.1,185.9,214.4,186.5,214.4z"/>
			</g>
			<g>
				<path id="meffedaa74f_00000021815111037029861130000001837896905554805396_" class="st1" d="M296.5,102.6c0.6,0,1.3-0.3,1.7-0.7
					c0.5-0.5,0.7-1.1,0.7-1.7s-0.3-1.3-0.7-1.7c-0.5-0.5-1.1-0.7-1.7-0.7s-1.3,0.3-1.7,0.7c-0.5,0.5-0.7,1.1-0.7,1.7
					s0.3,1.3,0.7,1.7C295.2,102.3,295.8,102.6,296.5,102.6z"/>
			</g>
			<g>
				<path id="meffedaa74f_00000116193724197304369860000000361897119454970038_" class="st1" d="M301.3,92.4c0.6,0,1.3-0.3,1.7-0.7
					c0.5-0.5,0.7-1.1,0.7-1.7s-0.3-1.3-0.7-1.7c-0.5-0.5-1.1-0.7-1.7-0.7s-1.3,0.3-1.7,0.7c-0.5,0.5-0.7,1.1-0.7,1.7
					s0.3,1.3,0.7,1.7C300,92.2,300.6,92.4,301.3,92.4z"/>
			</g>
			<g>
				<path id="meffedaa74f_00000157301309083688958360000010674783435997610933_" class="st1" d="M114.3,280.3c0.6,0,1.3-0.3,1.7-0.7
					c0.5-0.5,0.7-1.1,0.7-1.7c0-0.6-0.3-1.3-0.7-1.7c-0.5-0.5-1.1-0.7-1.7-0.7s-1.3,0.3-1.7,0.7c-0.5,0.5-0.7,1.1-0.7,1.7
					c0,0.6,0.3,1.3,0.7,1.7C113,280.1,113.6,280.3,114.3,280.3z"/>
			</g>
			<g>
				<path id="meffedaa74f_00000155830368399264422910000003306327013304961165_" class="st1" d="M345.4,54.1c0.6,0,1.3-0.3,1.7-0.7
					c0.5-0.5,0.7-1.1,0.7-1.7s-0.3-1.3-0.7-1.7c-0.5-0.5-1.1-0.7-1.7-0.7s-1.3,0.3-1.7,0.7c-0.5,0.5-0.7,1.1-0.7,1.7
					s0.3,1.3,0.7,1.7C344.2,53.8,344.8,54.1,345.4,54.1z"/>
			</g>
			<g>
				<path id="meffedaa74f_00000031191803581068827380000008896730041812639145_" class="st1" d="M308.2,74.2c0.6,0,1.3-0.3,1.7-0.7
					c0.5-0.5,0.7-1.1,0.7-1.7s-0.3-1.3-0.7-1.7c-0.5-0.5-1.1-0.7-1.7-0.7s-1.3,0.3-1.7,0.7c-0.5,0.5-0.7,1.1-0.7,1.7
					s0.3,1.3,0.7,1.7C306.9,74,307.5,74.2,308.2,74.2z"/>
			</g>
			<g>
				<path id="meffedaa74f_00000158017997743075588570000014628770958457174687_" class="st1" d="M124.7,269.7c0.6,0,1.3-0.3,1.7-0.7
					c0.5-0.5,0.7-1.1,0.7-1.7c0-0.6-0.3-1.3-0.7-1.7c-0.5-0.5-1.1-0.7-1.7-0.7s-1.3,0.3-1.7,0.7c-0.5,0.5-0.7,1.1-0.7,1.7
					c0,0.6,0.3,1.3,0.7,1.7C123.4,269.5,124,269.7,124.7,269.7z"/>
			</g>
			<g>
				<path id="meffedaa74f_00000116925892045453796190000016904489775625156002_" class="st1" d="M316.7,73.7c0.6,0,1.3-0.3,1.7-0.7
					c0.5-0.5,0.7-1.1,0.7-1.7s-0.3-1.3-0.7-1.7c-0.5-0.5-1.1-0.7-1.7-0.7s-1.3,0.3-1.7,0.7c-0.5,0.5-0.7,1.1-0.7,1.7
					s0.3,1.3,0.7,1.7C315.5,73.4,316.1,73.7,316.7,73.7z"/>
			</g>
			<g>
				<path id="meffedaa74f_00000062896458885709360510000014942419456696742277_" class="st1" d="M198,196c0.6,0,1.3-0.3,1.7-0.7
					c0.5-0.5,0.7-1.1,0.7-1.7s-0.3-1.3-0.7-1.7c-0.5-0.5-1.1-0.7-1.7-0.7s-1.3,0.3-1.7,0.7c-0.5,0.5-0.7,1.1-0.7,1.7
					s0.3,1.3,0.7,1.7C196.7,195.7,197.3,196,198,196z"/>
			</g>
			<g>
				<path id="meffedaa74f_00000106142247712668073220000002952377723442816130_" class="st1" d="M260.8,136c0.6,0,1.3-0.3,1.7-0.7
					c0.5-0.5,0.7-1.1,0.7-1.7s-0.3-1.3-0.7-1.7c-0.5-0.5-1.1-0.7-1.7-0.7s-1.3,0.3-1.7,0.7c-0.5,0.5-0.7,1.1-0.7,1.7
					s0.3,1.3,0.7,1.7C259.6,135.8,260.2,136,260.8,136z"/>
			</g>
		</g>
	</g>
</g>
<g id="matplotlib.axis_1">
	<g id="xtick_1">
		<g id="line2d_1">
			<g>
				<g>
					<path id="mbc994b5a4d" class="st2" d="M109.5,294.6v3.5"/>
				</g>
			</g>
		</g>
		<g id="text_1">
			<text transform="matrix(1 0 0 1 99.1356 312.2778)" class="st3 st4">0.0</text>
		</g>
	</g>
	<g id="xtick_2">
		<g id="line2d_2">
			<g>
				<g>
					<path id="mbc994b5a4d_00000088854265170757947650000003577151176633647761_" class="st2" d="M157.9,294.6v3.5"/>
				</g>
			</g>
		</g>
		<g id="text_2">
			<text transform="matrix(1 0 0 1 147.4919 312.2778)" class="st3 st4">0.1</text>
		</g>
	</g>
	<g id="xtick_3">
		<g id="line2d_3">
			<g>
				<g>
					<path id="mbc994b5a4d_00000173134279986940083980000014089296801102295477_" class="st2" d="M206.2,294.6v3.5"/>
				</g>
			</g>
		</g>
		<g id="text_3">
			<text transform="matrix(1 0 0 1 195.8483 312.2778)" class="st3 st4">0.2</text>
		</g>
	</g>
	<g id="xtick_4">
		<g id="line2d_4">
			<g>
				<g>
					<path id="mbc994b5a4d_00000050626482039997490890000004533709403615634844_" class="st2" d="M254.6,294.6v3.5"/>
				</g>
			</g>
		</g>
		<g id="text_4">
			<text transform="matrix(1 0 0 1 244.2047 312.2778)" class="st3 st4">0.3</text>
		</g>
	</g>
	<g id="xtick_5">
		<g id="line2d_5">
			<g>
				<g>
					<path id="mbc994b5a4d_00000090264328485838426260000007390145027722723995_" class="st2" d="M302.9,294.6v3.5"/>
				</g>
			</g>
		</g>
		<g id="text_5">
			<text transform="matrix(1 0 0 1 292.561 312.2778)" class="st3 st4">0.4</text>
		</g>
	</g>
	<g id="xtick_6">
		<g id="line2d_6">
			<g>
				<g>
					<path id="mbc994b5a4d_00000089551873144738286310000017772714895169145786_" class="st2" d="M351.3,294.6v3.5"/>
				</g>
			</g>
		</g>
		<g id="text_6">
			<text transform="matrix(1 0 0 1 340.9174 312.2778)" class="st3 st4">0.5</text>
		</g>
	</g>
	<g id="text_7">
		<text transform="matrix(1 0 0 1 193.8883 331.3469)" class="st3 st5">True FDR</text>
	</g>
</g>
<g id="matplotlib.axis_2">
	<g id="ytick_1">
		<g id="line2d_7">
			<g>
				<g>
					<path id="m42de31c8ce" class="st2" d="M97.4,282.6h-3.5"/>
				</g>
			</g>
		</g>
		<g id="text_8">
			<text transform="matrix(1 0 0 1 69.6729 287.8698)" class="st3 st4">0.0</text>
		</g>
	</g>
	<g id="ytick_2">
		<g id="line2d_8">
			<g>
				<g>
					<path id="m42de31c8ce_00000149383835309569615560000015527079114719250091_" class="st2" d="M97.4,234.2h-3.5"/>
				</g>
			</g>
		</g>
		<g id="text_9">
			<text transform="matrix(1 0 0 1 69.6729 239.5135)" class="st3 st4">0.1</text>
		</g>
	</g>
	<g id="ytick_3">
		<g id="line2d_9">
			<g>
				<g>
					<path id="m42de31c8ce_00000018954560131862268140000013536130022193864610_" class="st2" d="M97.4,185.8h-3.5"/>
				</g>
			</g>
		</g>
		<g id="text_10">
			<text transform="matrix(1 0 0 1 69.6729 191.1571)" class="st3 st4">0.2</text>
		</g>
	</g>
	<g id="ytick_4">
		<g id="line2d_10">
			<g>
				<g>
					<path id="m42de31c8ce_00000045589497344253180290000010705553104029148033_" class="st2" d="M97.4,137.5h-3.5"/>
				</g>
			</g>
		</g>
		<g id="text_11">
			<text transform="matrix(1 0 0 1 69.6729 142.8007)" class="st3 st4">0.3</text>
		</g>
	</g>
	<g id="ytick_5">
		<g id="line2d_11">
			<g>
				<g>
					<path id="m42de31c8ce_00000183943232486193998800000001875497071286262184_" class="st2" d="M97.4,89.1h-3.5"/>
				</g>
			</g>
		</g>
		<g id="text_12">
			<text transform="matrix(1 0 0 1 69.6729 94.4444)" class="st3 st4">0.4</text>
		</g>
	</g>
	<g id="ytick_6">
		<g id="line2d_12">
			<g>
				<g>
					<path id="m42de31c8ce_00000042007886121912076780000002219764831560621472_" class="st2" d="M97.4,40.8h-3.5"/>
				</g>
			</g>
		</g>
		<g id="text_13">
			<text transform="matrix(1 0 0 1 69.6729 46.088)" class="st3 st4">0.5</text>
		</g>
	</g>
	<g id="text_14">
		<text transform="matrix(6.123234e-17 -1 1 6.123234e-17 60.8281 216.5586)" class="st3 st5">Predicted FDR</text>
	</g>
</g>
<g id="line2d_13">
	<g>
		<defs>
			<rect id="SVGID_00000137816755048219806990000001858645659883932344_" x="97.4" y="28.7" width="266" height="266"/>
		</defs>
		<clipPath id="SVGID_00000122685836058736947780000010846401953670159020_">
			<use xlink:href="#SVGID_00000137816755048219806990000001858645659883932344_"  style="overflow:visible;"/>
		</clipPath>
		
			<path style="clip-path:url(#SVGID_00000122685836058736947780000010846401953670159020_);fill:none;stroke:#000000;stroke-width:2;stroke-linejoin:round;stroke-dasharray:7.4,3.2;" d="
			M109.5,282.6L351.3,40.8"/>
	</g>
</g>
<g id="line2d_14">
	<g>
		<defs>
			<rect id="SVGID_00000078044870705191603230000012623753434211147398_" x="97.4" y="28.7" width="266" height="266"/>
		</defs>
		<clipPath id="SVGID_00000034067925667073280510000005264214432394481044_">
			<use xlink:href="#SVGID_00000078044870705191603230000012623753434211147398_"  style="overflow:visible;"/>
		</clipPath>
		
			<path style="clip-path:url(#SVGID_00000034067925667073280510000005264214432394481044_);fill:none;stroke:#000000;stroke-width:2;stroke-linecap:square;stroke-linejoin:round;" d="
			M109.5,282.2L351.3,44"/>
	</g>
</g>
<g id="patch_3">
	<path class="st8" d="M97.4,294.6v-266"/>
</g>
<g id="patch_4">
	<path class="st8" d="M363.4,294.6v-266"/>
</g>
<g id="patch_5">
	<path class="st8" d="M97.4,294.6h266"/>
</g>
<g id="patch_6">
	<path class="st8" d="M97.4,28.7h266"/>
</g>
<g id="text_15">
	<g transform="translate(254.578182 234.194545)">
		<text transform="matrix(1 0 0 1 0 -0.5625)" class="st9 st5">R</text>
		<text transform="matrix(1 0 0 1 11.5547 -0.5625)" class="st9 st10"> </text>
		<text transform="matrix(1 0 0 1 12.2408 -6.6875)" class="st9 st11">2</text>
		<text transform="matrix(1 0 0 1 18.4697 -6.6875)" class="st9 st10"> </text>
		<text transform="matrix(1 0 0 1 19.8041 -0.5625)" class="st9 st5"> </text>
		<text transform="matrix(1 0 0 1 24.8901 -0.5625)" class="st9 st5">=</text>
		<text transform="matrix(1 0 0 1 38.2963 -0.5625)" class="st9 st5"> </text>
		<text transform="matrix(1 0 0 1 43.3823 -0.5625)" class="st9 st5">0</text>
		<text transform="matrix(1 0 0 1 53.562 -0.5625)" class="st9 st5">.</text>
		<text transform="matrix(1 0 0 1 58.6479 -0.5625)" class="st9 st5">9</text>
		<text transform="matrix(1 0 0 1 68.8276 -0.5625)" class="st9 st5">9</text>
	</g>
</g>
<g id="text_16">
	<text transform="matrix(1 0 0 1 122.5289 22.6801)" class="st3 st5">CV1_lognormal_05-08-2024</text>
</g>
</svg>
