<?xml version="1.0" encoding="utf-8"?>
<!-- Generator: Adobe Illustrator 28.0.0, SVG Export Plug-In . SVG Version: 6.00 Build 0)  -->
<svg version="1.1" id="Layer_1" xmlns="http://www.w3.org/2000/svg" xmlns:xlink="http://www.w3.org/1999/xlink" x="0px" y="0px"
	 viewBox="0 0 460.8 345.6" style="enable-background:new 0 0 460.8 345.6;" xml:space="preserve">
<style type="text/css">
	.st0{fill:#FFFFFF;}
	.st1{clip-path:url(#SVGID_00000116943867936385605400000009947357924115795627_);}
	.st2{fill:#0000FF;stroke:#0000FF;stroke-linejoin:round;}
	.st3{stroke:#000000;stroke-width:0.8;stroke-linejoin:round;}
	.st4{font-family:'LucidaBright';}
	.st5{font-size:14px;}
	.st6{font-size:16px;}
	
		.st7{clip-path:url(#SVGID_00000112617523949069710470000003197964568807085978_);fill:none;stroke:#000000;stroke-width:2;stroke-linejoin:round;stroke-dasharray:7.4,3.2;}
	
		.st8{clip-path:url(#SVGID_00000047026503964419401550000017138139175667265179_);fill:none;stroke:#000000;stroke-width:2;stroke-linecap:square;stroke-linejoin:round;}
	.st9{fill:none;stroke:#000000;stroke-width:0.8;stroke-linecap:square;}
	.st10{font-family:'ArialMT';}
	.st11{font-size:12px;}
	.st12{font-size:11.2px;}
</style>
<g id="axes_1">
	<g id="patch_2">
		<path class="st0" d="M97.4,294.6h266v-266h-266V294.6z"/>
	</g>
	<g id="PathCollection_1">
		<g>
			<defs>
				<rect id="SVGID_1_" x="97.4" y="28.7" width="266" height="266"/>
			</defs>
			<clipPath id="SVGID_00000053528949029495339620000006698674803205732280_">
				<use xlink:href="#SVGID_1_"  style="overflow:visible;"/>
			</clipPath>
			<g style="clip-path:url(#SVGID_00000053528949029495339620000006698674803205732280_);">
				<g>
					<path id="mcb962ae2e5" class="st2" d="M119.1,275.8c0.6,0,1.3-0.3,1.7-0.7c0.5-0.5,0.7-1.1,0.7-1.7c0-0.6-0.3-1.3-0.7-1.7
						c-0.5-0.5-1.1-0.7-1.7-0.7s-1.3,0.3-1.7,0.7c-0.5,0.5-0.7,1.1-0.7,1.7c0,0.6,0.3,1.3,0.7,1.7
						C117.8,275.5,118.5,275.8,119.1,275.8z"/>
				</g>
				<g>
					<path id="mcb962ae2e5_00000023969525049037356030000006294047147670868906_" class="st2" d="M138.5,254.2
						c0.6,0,1.3-0.3,1.7-0.7c0.5-0.5,0.7-1.1,0.7-1.7s-0.3-1.3-0.7-1.7c-0.5-0.5-1.1-0.7-1.7-0.7s-1.3,0.3-1.7,0.7
						c-0.5,0.5-0.7,1.1-0.7,1.7s0.3,1.3,0.7,1.7C137.2,253.9,137.8,254.2,138.5,254.2z"/>
				</g>
				<g>
					<path id="mcb962ae2e5_00000021106599817283040040000003772329414562436494_" class="st2" d="M173.7,228.3
						c0.6,0,1.3-0.3,1.7-0.7c0.5-0.5,0.7-1.1,0.7-1.7s-0.3-1.3-0.7-1.7c-0.5-0.5-1.1-0.7-1.7-0.7s-1.3,0.3-1.7,0.7
						c-0.5,0.5-0.7,1.1-0.7,1.7s0.3,1.3,0.7,1.7C172.4,228.1,173,228.3,173.7,228.3z"/>
				</g>
				<g>
					<path id="mcb962ae2e5_00000065056906497281239040000013812422790313683593_" class="st2" d="M287.8,103.7
						c0.6,0,1.3-0.3,1.7-0.7c0.5-0.5,0.7-1.1,0.7-1.7s-0.3-1.3-0.7-1.7c-0.5-0.5-1.1-0.7-1.7-0.7s-1.3,0.3-1.7,0.7
						c-0.5,0.5-0.7,1.1-0.7,1.7s0.3,1.3,0.7,1.7C286.5,103.5,287.1,103.7,287.8,103.7z"/>
				</g>
				<g>
					<path id="mcb962ae2e5_00000090292257944726954080000002037110111719762850_" class="st2" d="M258.9,131.9
						c0.6,0,1.3-0.3,1.7-0.7c0.5-0.5,0.7-1.1,0.7-1.7s-0.3-1.3-0.7-1.7c-0.5-0.5-1.1-0.7-1.7-0.7s-1.3,0.3-1.7,0.7
						c-0.5,0.5-0.7,1.1-0.7,1.7s0.3,1.3,0.7,1.7C257.6,131.6,258.3,131.9,258.9,131.9z"/>
				</g>
				<g>
					<path id="mcb962ae2e5_00000058590783308196458860000005384808835221609102_" class="st2" d="M256,135.6c0.6,0,1.3-0.3,1.7-0.7
						c0.5-0.5,0.7-1.1,0.7-1.7s-0.3-1.3-0.7-1.7c-0.5-0.5-1.1-0.7-1.7-0.7c-0.6,0-1.3,0.3-1.7,0.7c-0.5,0.5-0.7,1.1-0.7,1.7
						s0.3,1.3,0.7,1.7C254.8,135.3,255.4,135.6,256,135.6z"/>
				</g>
				<g>
					<path id="mcb962ae2e5_00000109749658105528430370000008726785462037630096_" class="st2" d="M226.2,157.3
						c0.6,0,1.3-0.3,1.7-0.7c0.5-0.5,0.7-1.1,0.7-1.7s-0.3-1.3-0.7-1.7c-0.5-0.5-1.1-0.7-1.7-0.7s-1.3,0.3-1.7,0.7
						c-0.5,0.5-0.7,1.1-0.7,1.7s0.3,1.3,0.7,1.7C224.9,157,225.5,157.3,226.2,157.3z"/>
				</g>
				<g>
					<path id="mcb962ae2e5_00000014631743834798345230000010838870684358232462_" class="st2" d="M309.1,65.8c0.6,0,1.3-0.3,1.7-0.7
						c0.5-0.5,0.7-1.1,0.7-1.7s-0.3-1.3-0.7-1.7c-0.5-0.5-1.1-0.7-1.7-0.7s-1.3,0.3-1.7,0.7c-0.5,0.5-0.7,1.1-0.7,1.7
						s0.3,1.3,0.7,1.7C307.8,65.5,308.4,65.8,309.1,65.8z"/>
				</g>
				<g>
					<path id="mcb962ae2e5_00000137840976609406549980000007329431446472244385_" class="st2" d="M288.4,114c0.6,0,1.3-0.3,1.7-0.7
						c0.5-0.5,0.7-1.1,0.7-1.7s-0.3-1.3-0.7-1.7c-0.5-0.5-1.1-0.7-1.7-0.7s-1.3,0.3-1.7,0.7c-0.5,0.5-0.7,1.1-0.7,1.7
						s0.3,1.3,0.7,1.7C287.1,113.7,287.7,114,288.4,114z"/>
				</g>
				<g>
					<path id="mcb962ae2e5_00000118392977654937514000000014987794386659040681_" class="st2" d="M267.1,130.6
						c0.6,0,1.3-0.3,1.7-0.7c0.5-0.5,0.7-1.1,0.7-1.7s-0.3-1.3-0.7-1.7c-0.5-0.5-1.1-0.7-1.7-0.7s-1.3,0.3-1.7,0.7
						c-0.5,0.5-0.7,1.1-0.7,1.7s0.3,1.3,0.7,1.7C265.8,130.3,266.4,130.6,267.1,130.6z"/>
				</g>
				<g>
					<path id="mcb962ae2e5_00000065042684244683415670000005248478061645768638_" class="st2" d="M194.4,205.4
						c0.6,0,1.3-0.3,1.7-0.7c0.5-0.5,0.7-1.1,0.7-1.7s-0.3-1.3-0.7-1.7c-0.5-0.5-1.1-0.7-1.7-0.7s-1.3,0.3-1.7,0.7
						c-0.5,0.5-0.7,1.1-0.7,1.7s0.3,1.3,0.7,1.7C193.1,205.1,193.7,205.4,194.4,205.4z"/>
				</g>
				<g>
					<path id="mcb962ae2e5_00000085231262299893896150000010396845187391013300_" class="st2" d="M343.3,65.4c0.6,0,1.3-0.3,1.7-0.7
						c0.5-0.5,0.7-1.1,0.7-1.7s-0.3-1.3-0.7-1.7c-0.5-0.5-1.1-0.7-1.7-0.7s-1.3,0.3-1.7,0.7c-0.5,0.5-0.7,1.1-0.7,1.7
						s0.3,1.3,0.7,1.7C342,65.2,342.6,65.4,343.3,65.4z"/>
				</g>
				<g>
					<path id="mcb962ae2e5_00000010301050657750210290000001900661146007966087_" class="st2" d="M262.3,130.9
						c0.6,0,1.3-0.3,1.7-0.7c0.5-0.5,0.7-1.1,0.7-1.7s-0.3-1.3-0.7-1.7c-0.5-0.5-1.1-0.7-1.7-0.7s-1.3,0.3-1.7,0.7
						c-0.5,0.5-0.7,1.1-0.7,1.7s0.3,1.3,0.7,1.7C261.1,130.6,261.7,130.9,262.3,130.9z"/>
				</g>
				<g>
					<path id="mcb962ae2e5_00000173883826484618529400000013793364543987948979_" class="st2" d="M289.8,104.2
						c0.6,0,1.3-0.3,1.7-0.7c0.5-0.5,0.7-1.1,0.7-1.7s-0.3-1.3-0.7-1.7c-0.5-0.5-1.1-0.7-1.7-0.7s-1.3,0.3-1.7,0.7
						c-0.5,0.5-0.7,1.1-0.7,1.7s0.3,1.3,0.7,1.7C288.5,104,289.1,104.2,289.8,104.2z"/>
				</g>
				<g>
					<path id="mcb962ae2e5_00000122000823843805045620000015888116451811901091_" class="st2" d="M127.3,267.6
						c0.6,0,1.3-0.3,1.7-0.7c0.5-0.5,0.7-1.1,0.7-1.7c0-0.6-0.3-1.3-0.7-1.7c-0.5-0.5-1.1-0.7-1.7-0.7s-1.3,0.3-1.7,0.7
						c-0.5,0.5-0.7,1.1-0.7,1.7c0,0.6,0.3,1.3,0.7,1.7C126.1,267.4,126.7,267.6,127.3,267.6z"/>
				</g>
				<g>
					<path id="mcb962ae2e5_00000017507693978959019270000013706539528337503142_" class="st2" d="M212.5,181.9
						c0.6,0,1.3-0.3,1.7-0.7c0.5-0.5,0.7-1.1,0.7-1.7s-0.3-1.3-0.7-1.7c-0.5-0.5-1.1-0.7-1.7-0.7s-1.3,0.3-1.7,0.7
						c-0.5,0.5-0.7,1.1-0.7,1.7s0.3,1.3,0.7,1.7C211.3,181.6,211.9,181.9,212.5,181.9z"/>
				</g>
				<g>
					<path id="mcb962ae2e5_00000181054001974628099170000015496043867375222177_" class="st2" d="M277.5,114.6
						c0.6,0,1.3-0.3,1.7-0.7c0.5-0.5,0.7-1.1,0.7-1.7s-0.3-1.3-0.7-1.7c-0.5-0.5-1.1-0.7-1.7-0.7s-1.3,0.3-1.7,0.7
						c-0.5,0.5-0.7,1.1-0.7,1.7s0.3,1.3,0.7,1.7C276.3,114.4,276.9,114.6,277.5,114.6z"/>
				</g>
				<g>
					<path id="mcb962ae2e5_00000087401615784676139800000003547641654661720507_" class="st2" d="M328.2,98.7c0.6,0,1.3-0.3,1.7-0.7
						c0.5-0.5,0.7-1.1,0.7-1.7s-0.3-1.3-0.7-1.7c-0.5-0.5-1.1-0.7-1.7-0.7s-1.3,0.3-1.7,0.7c-0.5,0.5-0.7,1.1-0.7,1.7
						s0.3,1.3,0.7,1.7C327,98.5,327.6,98.7,328.2,98.7z"/>
				</g>
				<g>
					<path id="mcb962ae2e5_00000018211951131616094210000016478958417961406399_" class="st2" d="M126.4,271.1
						c0.6,0,1.3-0.3,1.7-0.7c0.5-0.5,0.7-1.1,0.7-1.7c0-0.6-0.3-1.3-0.7-1.7c-0.5-0.5-1.1-0.7-1.7-0.7s-1.3,0.3-1.7,0.7
						c-0.5,0.5-0.7,1.1-0.7,1.7c0,0.6,0.3,1.3,0.7,1.7C125.2,270.8,125.8,271.1,126.4,271.1z"/>
				</g>
				<g>
					<path id="mcb962ae2e5_00000098213239674235695280000013250585809728878476_" class="st2" d="M250.9,141.9
						c0.6,0,1.3-0.3,1.7-0.7c0.5-0.5,0.7-1.1,0.7-1.7s-0.3-1.3-0.7-1.7c-0.5-0.5-1.1-0.7-1.7-0.7s-1.3,0.3-1.7,0.7
						c-0.5,0.5-0.7,1.1-0.7,1.7s0.3,1.3,0.7,1.7C249.7,141.6,250.3,141.9,250.9,141.9z"/>
				</g>
				<g>
					<path id="mcb962ae2e5_00000000931082587690429190000012488573491581655201_" class="st2" d="M116.1,279c0.6,0,1.3-0.3,1.7-0.7
						c0.5-0.5,0.7-1.1,0.7-1.7c0-0.6-0.3-1.3-0.7-1.7c-0.5-0.5-1.1-0.7-1.7-0.7s-1.3,0.3-1.7,0.7c-0.5,0.5-0.7,1.1-0.7,1.7
						c0,0.6,0.3,1.3,0.7,1.7C114.8,278.8,115.4,279,116.1,279z"/>
				</g>
				<g>
					<path id="mcb962ae2e5_00000175322984306582570610000001160316158146447800_" class="st2" d="M350.5,44.7c0.6,0,1.3-0.3,1.7-0.7
						c0.5-0.5,0.7-1.1,0.7-1.7s-0.3-1.3-0.7-1.7c-0.5-0.5-1.1-0.7-1.7-0.7s-1.3,0.3-1.7,0.7c-0.5,0.5-0.7,1.1-0.7,1.7
						s0.3,1.3,0.7,1.7C349.2,44.4,349.8,44.7,350.5,44.7z"/>
				</g>
				<g>
					<path id="mcb962ae2e5_00000033363483493328757550000015337946345911251130_" class="st2" d="M320.7,91.3c0.6,0,1.3-0.3,1.7-0.7
						c0.5-0.5,0.7-1.1,0.7-1.7s-0.3-1.3-0.7-1.7c-0.5-0.5-1.1-0.7-1.7-0.7s-1.3,0.3-1.7,0.7c-0.5,0.5-0.7,1.1-0.7,1.7
						s0.3,1.3,0.7,1.7C319.4,91,320,91.3,320.7,91.3z"/>
				</g>
				<g>
					<path id="mcb962ae2e5_00000181064105957776411840000014904171241171822232_" class="st2" d="M258.6,135.5
						c0.6,0,1.3-0.3,1.7-0.7c0.5-0.5,0.7-1.1,0.7-1.7s-0.3-1.3-0.7-1.7c-0.5-0.5-1.1-0.7-1.7-0.7s-1.3,0.3-1.7,0.7
						c-0.5,0.5-0.7,1.1-0.7,1.7s0.3,1.3,0.7,1.7C257.4,135.2,258,135.5,258.6,135.5z"/>
				</g>
				<g>
					<path id="mcb962ae2e5_00000101071127233260596660000002538645466793432207_" class="st2" d="M335,68.5c0.6,0,1.3-0.3,1.7-0.7
						c0.5-0.5,0.7-1.1,0.7-1.7s-0.3-1.3-0.7-1.7c-0.5-0.5-1.1-0.7-1.7-0.7s-1.3,0.3-1.7,0.7c-0.5,0.5-0.7,1.1-0.7,1.7
						s0.3,1.3,0.7,1.7C333.7,68.2,334.3,68.5,335,68.5z"/>
				</g>
				<g>
					<path id="mcb962ae2e5_00000123430275005503678530000005031709198148675007_" class="st2" d="M261,138.8c0.6,0,1.3-0.3,1.7-0.7
						c0.5-0.5,0.7-1.1,0.7-1.7s-0.3-1.3-0.7-1.7c-0.5-0.5-1.1-0.7-1.7-0.7s-1.3,0.3-1.7,0.7c-0.5,0.5-0.7,1.1-0.7,1.7
						s0.3,1.3,0.7,1.7C259.8,138.6,260.4,138.8,261,138.8z"/>
				</g>
				<g>
					<path id="mcb962ae2e5_00000109018019525564616900000017732913858348497853_" class="st2" d="M246.1,150.5
						c0.6,0,1.3-0.3,1.7-0.7c0.5-0.5,0.7-1.1,0.7-1.7s-0.3-1.3-0.7-1.7c-0.5-0.5-1.1-0.7-1.7-0.7s-1.3,0.3-1.7,0.7
						c-0.5,0.5-0.7,1.1-0.7,1.7s0.3,1.3,0.7,1.7C244.9,150.3,245.5,150.5,246.1,150.5z"/>
				</g>
				<g>
					<path id="mcb962ae2e5_00000176038708813675919780000009817536699288396690_" class="st2" d="M225.4,168.3
						c0.6,0,1.3-0.3,1.7-0.7c0.5-0.5,0.7-1.1,0.7-1.7s-0.3-1.3-0.7-1.7c-0.5-0.5-1.1-0.7-1.7-0.7s-1.3,0.3-1.7,0.7
						c-0.5,0.5-0.7,1.1-0.7,1.7s0.3,1.3,0.7,1.7C224.1,168.1,224.8,168.3,225.4,168.3z"/>
				</g>
				<g>
					<path id="mcb962ae2e5_00000124128493664078947550000008735733451820743815_" class="st2" d="M147.2,248.1
						c0.6,0,1.3-0.3,1.7-0.7c0.5-0.5,0.7-1.1,0.7-1.7s-0.3-1.3-0.7-1.7c-0.5-0.5-1.1-0.7-1.7-0.7s-1.3,0.3-1.7,0.7
						c-0.5,0.5-0.7,1.1-0.7,1.7s0.3,1.3,0.7,1.7C145.9,247.8,146.6,248.1,147.2,248.1z"/>
				</g>
				<g>
					<path id="mcb962ae2e5_00000101099014915403281100000012005580665857542275_" class="st2" d="M117.4,277.3
						c0.6,0,1.3-0.3,1.7-0.7c0.5-0.5,0.7-1.1,0.7-1.7c0-0.6-0.3-1.3-0.7-1.7c-0.5-0.5-1.1-0.7-1.7-0.7s-1.3,0.3-1.7,0.7
						c-0.5,0.5-0.7,1.1-0.7,1.7c0,0.6,0.3,1.3,0.7,1.7C116.1,277,116.7,277.3,117.4,277.3z"/>
				</g>
				<g>
					<path id="mcb962ae2e5_00000057840913160935745200000006475142314938623887_" class="st2" d="M139.7,256.6
						c0.6,0,1.3-0.3,1.7-0.7c0.5-0.5,0.7-1.1,0.7-1.7s-0.3-1.3-0.7-1.7c-0.5-0.5-1.1-0.7-1.7-0.7s-1.3,0.3-1.7,0.7
						c-0.5,0.5-0.7,1.1-0.7,1.7s0.3,1.3,0.7,1.7C138.4,256.4,139,256.6,139.7,256.6z"/>
				</g>
				<g>
					<path id="mcb962ae2e5_00000065041901357967416340000012326432503356928447_" class="st2" d="M216.9,177c0.6,0,1.3-0.3,1.7-0.7
						c0.5-0.5,0.7-1.1,0.7-1.7s-0.3-1.3-0.7-1.7c-0.5-0.5-1.1-0.7-1.7-0.7s-1.3,0.3-1.7,0.7c-0.5,0.5-0.7,1.1-0.7,1.7
						s0.3,1.3,0.7,1.7C215.6,176.8,216.2,177,216.9,177z"/>
				</g>
				<g>
					<path id="mcb962ae2e5_00000106845586791656818470000002209966235532824991_" class="st2" d="M252.9,151.7
						c0.6,0,1.3-0.3,1.7-0.7c0.5-0.5,0.7-1.1,0.7-1.7s-0.3-1.3-0.7-1.7c-0.5-0.5-1.1-0.7-1.7-0.7s-1.3,0.3-1.7,0.7
						c-0.5,0.5-0.7,1.1-0.7,1.7s0.3,1.3,0.7,1.7C251.7,151.5,252.3,151.7,252.9,151.7z"/>
				</g>
				<g>
					<path id="mcb962ae2e5_00000055676522359168502350000001835929631762357664_" class="st2" d="M298.8,104.2
						c0.6,0,1.3-0.3,1.7-0.7c0.5-0.5,0.7-1.1,0.7-1.7s-0.3-1.3-0.7-1.7c-0.5-0.5-1.1-0.7-1.7-0.7s-1.3,0.3-1.7,0.7
						c-0.5,0.5-0.7,1.1-0.7,1.7s0.3,1.3,0.7,1.7C297.5,104,298.2,104.2,298.8,104.2z"/>
				</g>
				<g>
					<path id="mcb962ae2e5_00000088856016736504758790000018428773307558777267_" class="st2" d="M127.5,267.7
						c0.6,0,1.3-0.3,1.7-0.7c0.5-0.5,0.7-1.1,0.7-1.7c0-0.6-0.3-1.3-0.7-1.7c-0.5-0.5-1.1-0.7-1.7-0.7c-0.6,0-1.3,0.3-1.7,0.7
						c-0.5,0.5-0.7,1.1-0.7,1.7c0,0.6,0.3,1.3,0.7,1.7C126.2,267.4,126.8,267.7,127.5,267.7z"/>
				</g>
				<g>
					<path id="mcb962ae2e5_00000113342417904774208610000009248741944295202199_" class="st2" d="M115.3,280.3
						c0.6,0,1.3-0.3,1.7-0.7c0.5-0.5,0.7-1.1,0.7-1.7c0-0.6-0.3-1.3-0.7-1.7c-0.5-0.5-1.1-0.7-1.7-0.7s-1.3,0.3-1.7,0.7
						c-0.5,0.5-0.7,1.1-0.7,1.7c0,0.6,0.3,1.3,0.7,1.7C114,280,114.6,280.3,115.3,280.3z"/>
				</g>
				<g>
					<path id="mcb962ae2e5_00000120530089976601679730000015066418694076490888_" class="st2" d="M256.1,133.5
						c0.6,0,1.3-0.3,1.7-0.7c0.5-0.5,0.7-1.1,0.7-1.7s-0.3-1.3-0.7-1.7c-0.5-0.5-1.1-0.7-1.7-0.7c-0.6,0-1.3,0.3-1.7,0.7
						c-0.5,0.5-0.7,1.1-0.7,1.7s0.3,1.3,0.7,1.7C254.9,133.2,255.5,133.5,256.1,133.5z"/>
				</g>
				<g>
					<path id="mcb962ae2e5_00000181084626662404594790000013544452320926385591_" class="st2" d="M216.5,178.3
						c0.6,0,1.3-0.3,1.7-0.7c0.5-0.5,0.7-1.1,0.7-1.7s-0.3-1.3-0.7-1.7c-0.5-0.5-1.1-0.7-1.7-0.7s-1.3,0.3-1.7,0.7
						c-0.5,0.5-0.7,1.1-0.7,1.7s0.3,1.3,0.7,1.7C215.3,178,215.9,178.3,216.5,178.3z"/>
				</g>
				<g>
					<path id="mcb962ae2e5_00000026125398766221253150000010851602747681628056_" class="st2" d="M138.4,259.4
						c0.6,0,1.3-0.3,1.7-0.7c0.5-0.5,0.7-1.1,0.7-1.7c0-0.6-0.3-1.3-0.7-1.7c-0.5-0.5-1.1-0.7-1.7-0.7s-1.3,0.3-1.7,0.7
						c-0.5,0.5-0.7,1.1-0.7,1.7c0,0.6,0.3,1.3,0.7,1.7C137.1,259.1,137.7,259.4,138.4,259.4z"/>
				</g>
				<g>
					<path id="mcb962ae2e5_00000135660527970923664680000008647156877819350186_" class="st2" d="M118.9,276.1
						c0.6,0,1.3-0.3,1.7-0.7c0.5-0.5,0.7-1.1,0.7-1.7c0-0.6-0.3-1.3-0.7-1.7c-0.5-0.5-1.1-0.7-1.7-0.7s-1.3,0.3-1.7,0.7
						c-0.5,0.5-0.7,1.1-0.7,1.7c0,0.6,0.3,1.3,0.7,1.7C117.6,275.9,118.2,276.1,118.9,276.1z"/>
				</g>
				<g>
					<path id="mcb962ae2e5_00000172418504730486801150000011615610483994096298_" class="st2" d="M222,174.3c0.6,0,1.3-0.3,1.7-0.7
						c0.5-0.5,0.7-1.1,0.7-1.7s-0.3-1.3-0.7-1.7c-0.5-0.5-1.1-0.7-1.7-0.7s-1.3,0.3-1.7,0.7c-0.5,0.5-0.7,1.1-0.7,1.7
						s0.3,1.3,0.7,1.7C220.8,174.1,221.4,174.3,222,174.3z"/>
				</g>
				<g>
					<path id="mcb962ae2e5_00000117640887145252322020000009517719846157933961_" class="st2" d="M196.6,199.4
						c0.6,0,1.3-0.3,1.7-0.7c0.5-0.5,0.7-1.1,0.7-1.7s-0.3-1.3-0.7-1.7c-0.5-0.5-1.1-0.7-1.7-0.7s-1.3,0.3-1.7,0.7
						c-0.5,0.5-0.7,1.1-0.7,1.7s0.3,1.3,0.7,1.7C195.3,199.2,195.9,199.4,196.6,199.4z"/>
				</g>
				<g>
					<path id="mcb962ae2e5_00000178181493930519287000000009510287619102702988_" class="st2" d="M154.4,237.2
						c0.6,0,1.3-0.3,1.7-0.7c0.5-0.5,0.7-1.1,0.7-1.7s-0.3-1.3-0.7-1.7c-0.5-0.5-1.1-0.7-1.7-0.7s-1.3,0.3-1.7,0.7
						c-0.5,0.5-0.7,1.1-0.7,1.7s0.3,1.3,0.7,1.7C153.1,236.9,153.7,237.2,154.4,237.2z"/>
				</g>
				<g>
					<path id="mcb962ae2e5_00000137838402378749886980000003728322046452062632_" class="st2" d="M200.4,195.9
						c0.6,0,1.3-0.3,1.7-0.7c0.5-0.5,0.7-1.1,0.7-1.7s-0.3-1.3-0.7-1.7c-0.5-0.5-1.1-0.7-1.7-0.7s-1.3,0.3-1.7,0.7
						c-0.5,0.5-0.7,1.1-0.7,1.7s0.3,1.3,0.7,1.7C199.1,195.6,199.7,195.9,200.4,195.9z"/>
				</g>
				<g>
					<path id="mcb962ae2e5_00000031166746857663151260000012202835645278775988_" class="st2" d="M276.4,124.2
						c0.6,0,1.3-0.3,1.7-0.7c0.5-0.5,0.7-1.1,0.7-1.7s-0.3-1.3-0.7-1.7c-0.5-0.5-1.1-0.7-1.7-0.7s-1.3,0.3-1.7,0.7
						c-0.5,0.5-0.7,1.1-0.7,1.7s0.3,1.3,0.7,1.7C275.2,123.9,275.8,124.2,276.4,124.2z"/>
				</g>
				<g>
					<path id="mcb962ae2e5_00000039856256891704656070000005388659029744209287_" class="st2" d="M128.6,264.7
						c0.6,0,1.3-0.3,1.7-0.7c0.5-0.5,0.7-1.1,0.7-1.7c0-0.6-0.3-1.3-0.7-1.7c-0.5-0.5-1.1-0.7-1.7-0.7s-1.3,0.3-1.7,0.7
						c-0.5,0.5-0.7,1.1-0.7,1.7c0,0.6,0.3,1.3,0.7,1.7C127.3,264.5,127.9,264.7,128.6,264.7z"/>
				</g>
				<g>
					<path id="mcb962ae2e5_00000052081825760811685110000012889127731486766982_" class="st2" d="M209.7,183.3
						c0.6,0,1.3-0.3,1.7-0.7c0.5-0.5,0.7-1.1,0.7-1.7s-0.3-1.3-0.7-1.7c-0.5-0.5-1.1-0.7-1.7-0.7s-1.3,0.3-1.7,0.7
						c-0.5,0.5-0.7,1.1-0.7,1.7s0.3,1.3,0.7,1.7C208.4,183.1,209,183.3,209.7,183.3z"/>
				</g>
				<g>
					<path id="mcb962ae2e5_00000154393548177007324270000000988211971293146027_" class="st2" d="M278,123.9c0.6,0,1.3-0.3,1.7-0.7
						c0.5-0.5,0.7-1.1,0.7-1.7s-0.3-1.3-0.7-1.7c-0.5-0.5-1.1-0.7-1.7-0.7s-1.3,0.3-1.7,0.7c-0.5,0.5-0.7,1.1-0.7,1.7
						s0.3,1.3,0.7,1.7C276.7,123.6,277.3,123.9,278,123.9z"/>
				</g>
				<g>
					<path id="mcb962ae2e5_00000003787803258205795720000000853182802752247434_" class="st2" d="M248.5,145.6
						c0.6,0,1.3-0.3,1.7-0.7c0.5-0.5,0.7-1.1,0.7-1.7s-0.3-1.3-0.7-1.7c-0.5-0.5-1.1-0.7-1.7-0.7s-1.3,0.3-1.7,0.7
						c-0.5,0.5-0.7,1.1-0.7,1.7s0.3,1.3,0.7,1.7C247.2,145.3,247.8,145.6,248.5,145.6z"/>
				</g>
				<g>
					<path id="mcb962ae2e5_00000047761159386945549940000001552940199765667989_" class="st2" d="M344.5,43.2c0.6,0,1.3-0.3,1.7-0.7
						c0.5-0.5,0.7-1.1,0.7-1.7s-0.3-1.3-0.7-1.7c-0.5-0.5-1.1-0.7-1.7-0.7s-1.3,0.3-1.7,0.7c-0.5,0.5-0.7,1.1-0.7,1.7
						s0.3,1.3,0.7,1.7C343.2,43,343.8,43.2,344.5,43.2z"/>
				</g>
				<g>
					<path id="mcb962ae2e5_00000029757276462718340010000012106389140899517834_" class="st2" d="M115.5,278.1
						c0.6,0,1.3-0.3,1.7-0.7c0.5-0.5,0.7-1.1,0.7-1.7c0-0.6-0.3-1.3-0.7-1.7c-0.5-0.5-1.1-0.7-1.7-0.7s-1.3,0.3-1.7,0.7
						c-0.5,0.5-0.7,1.1-0.7,1.7c0,0.6,0.3,1.3,0.7,1.7C114.2,277.8,114.8,278.1,115.5,278.1z"/>
				</g>
				<g>
					<path id="mcb962ae2e5_00000098195895840506397910000017761668547020685712_" class="st2" d="M348.4,51.8c0.6,0,1.3-0.3,1.7-0.7
						c0.5-0.5,0.7-1.1,0.7-1.7s-0.3-1.3-0.7-1.7c-0.5-0.5-1.1-0.7-1.7-0.7s-1.3,0.3-1.7,0.7c-0.5,0.5-0.7,1.1-0.7,1.7
						s0.3,1.3,0.7,1.7C347.1,51.5,347.7,51.8,348.4,51.8z"/>
				</g>
				<g>
					<path id="mcb962ae2e5_00000147214089555195640680000016614762658950104222_" class="st2" d="M289.6,93.1c0.6,0,1.3-0.3,1.7-0.7
						c0.5-0.5,0.7-1.1,0.7-1.7s-0.3-1.3-0.7-1.7c-0.5-0.5-1.1-0.7-1.7-0.7s-1.3,0.3-1.7,0.7c-0.5,0.5-0.7,1.1-0.7,1.7
						s0.3,1.3,0.7,1.7C288.3,92.9,288.9,93.1,289.6,93.1z"/>
				</g>
				<g>
					<path id="mcb962ae2e5_00000101061716575316034220000011629899725353325702_" class="st2" d="M173,214c0.6,0,1.3-0.3,1.7-0.7
						c0.5-0.5,0.7-1.1,0.7-1.7s-0.3-1.3-0.7-1.7c-0.5-0.5-1.1-0.7-1.7-0.7s-1.3,0.3-1.7,0.7c-0.5,0.5-0.7,1.1-0.7,1.7
						s0.3,1.3,0.7,1.7C171.7,213.7,172.3,214,173,214z"/>
				</g>
				<g>
					<path id="mcb962ae2e5_00000130644988608106700570000015655470955185839500_" class="st2" d="M307.5,81c0.6,0,1.3-0.3,1.7-0.7
						c0.5-0.5,0.7-1.1,0.7-1.7s-0.3-1.3-0.7-1.7c-0.5-0.5-1.1-0.7-1.7-0.7s-1.3,0.3-1.7,0.7c-0.5,0.5-0.7,1.1-0.7,1.7
						s0.3,1.3,0.7,1.7C306.2,80.7,306.8,81,307.5,81z"/>
				</g>
				<g>
					<path id="mcb962ae2e5_00000104675748131001578420000008186828864115528852_" class="st2" d="M307.8,92.7c0.6,0,1.3-0.3,1.7-0.7
						c0.5-0.5,0.7-1.1,0.7-1.7s-0.3-1.3-0.7-1.7c-0.5-0.5-1.1-0.7-1.7-0.7s-1.3,0.3-1.7,0.7c-0.5,0.5-0.7,1.1-0.7,1.7
						s0.3,1.3,0.7,1.7C306.6,92.4,307.2,92.7,307.8,92.7z"/>
				</g>
				<g>
					<path id="mcb962ae2e5_00000008829571026112204940000005609201286482678194_" class="st2" d="M114.3,280.2
						c0.6,0,1.3-0.3,1.7-0.7c0.5-0.5,0.7-1.1,0.7-1.7c0-0.6-0.3-1.3-0.7-1.7c-0.5-0.5-1.1-0.7-1.7-0.7s-1.3,0.3-1.7,0.7
						c-0.5,0.5-0.7,1.1-0.7,1.7c0,0.6,0.3,1.3,0.7,1.7C113,280,113.6,280.2,114.3,280.2z"/>
				</g>
				<g>
					<path id="mcb962ae2e5_00000092451509636903694300000008570875567324748673_" class="st2" d="M145,250.5c0.6,0,1.3-0.3,1.7-0.7
						c0.5-0.5,0.7-1.1,0.7-1.7s-0.3-1.3-0.7-1.7c-0.5-0.5-1.1-0.7-1.7-0.7s-1.3,0.3-1.7,0.7c-0.5,0.5-0.7,1.1-0.7,1.7
						s0.3,1.3,0.7,1.7C143.7,250.2,144.4,250.5,145,250.5z"/>
				</g>
				<g>
					<path id="mcb962ae2e5_00000070814182199507753750000002979322494238513289_" class="st2" d="M127.6,268c0.6,0,1.3-0.3,1.7-0.7
						c0.5-0.5,0.7-1.1,0.7-1.7c0-0.6-0.3-1.3-0.7-1.7c-0.5-0.5-1.1-0.7-1.7-0.7c-0.6,0-1.3,0.3-1.7,0.7c-0.5,0.5-0.7,1.1-0.7,1.7
						c0,0.6,0.3,1.3,0.7,1.7C126.3,267.7,126.9,268,127.6,268z"/>
				</g>
				<g>
					<path id="mcb962ae2e5_00000070811086005430056440000008067258204802013617_" class="st2" d="M176.4,218.1
						c0.6,0,1.3-0.3,1.7-0.7c0.5-0.5,0.7-1.1,0.7-1.7s-0.3-1.3-0.7-1.7c-0.5-0.5-1.1-0.7-1.7-0.7s-1.3,0.3-1.7,0.7
						c-0.5,0.5-0.7,1.1-0.7,1.7s0.3,1.3,0.7,1.7C175.2,217.8,175.8,218.1,176.4,218.1z"/>
				</g>
				<g>
					<path id="mcb962ae2e5_00000012470465063506888890000014116220423879304334_" class="st2" d="M168.1,227.1
						c0.6,0,1.3-0.3,1.7-0.7c0.5-0.5,0.7-1.1,0.7-1.7s-0.3-1.3-0.7-1.7c-0.5-0.5-1.1-0.7-1.7-0.7s-1.3,0.3-1.7,0.7
						c-0.5,0.5-0.7,1.1-0.7,1.7s0.3,1.3,0.7,1.7C166.9,226.8,167.5,227.1,168.1,227.1z"/>
				</g>
				<g>
					<path id="mcb962ae2e5_00000101072146200356725720000016036445235400804493_" class="st2" d="M230.6,168c0.6,0,1.3-0.3,1.7-0.7
						c0.5-0.5,0.7-1.1,0.7-1.7s-0.3-1.3-0.7-1.7c-0.5-0.5-1.1-0.7-1.7-0.7s-1.3,0.3-1.7,0.7c-0.5,0.5-0.7,1.1-0.7,1.7
						s0.3,1.3,0.7,1.7C229.3,167.8,229.9,168,230.6,168z"/>
				</g>
				<g>
					<path id="mcb962ae2e5_00000099624860370669997250000001099271179918525111_" class="st2" d="M276.2,123.6
						c0.6,0,1.3-0.3,1.7-0.7c0.5-0.5,0.7-1.1,0.7-1.7s-0.3-1.3-0.7-1.7c-0.5-0.5-1.1-0.7-1.7-0.7s-1.3,0.3-1.7,0.7
						c-0.5,0.5-0.7,1.1-0.7,1.7s0.3,1.3,0.7,1.7C274.9,123.4,275.6,123.6,276.2,123.6z"/>
				</g>
				<g>
					<path id="mcb962ae2e5_00000008831609812826127350000018205065072217255857_" class="st2" d="M281.3,124.5
						c0.6,0,1.3-0.3,1.7-0.7c0.5-0.5,0.7-1.1,0.7-1.7s-0.3-1.3-0.7-1.7c-0.5-0.5-1.1-0.7-1.7-0.7s-1.3,0.3-1.7,0.7
						c-0.5,0.5-0.7,1.1-0.7,1.7s0.3,1.3,0.7,1.7C280,124.2,280.6,124.5,281.3,124.5z"/>
				</g>
				<g>
					<path id="mcb962ae2e5_00000150810969671004162360000008385248151443104947_" class="st2" d="M319.4,79.8c0.6,0,1.3-0.3,1.7-0.7
						c0.5-0.5,0.7-1.1,0.7-1.7s-0.3-1.3-0.7-1.7c-0.5-0.5-1.1-0.7-1.7-0.7s-1.3,0.3-1.7,0.7c-0.5,0.5-0.7,1.1-0.7,1.7
						s0.3,1.3,0.7,1.7C318.1,79.6,318.8,79.8,319.4,79.8z"/>
				</g>
				<g>
					<path id="mcb962ae2e5_00000145048739119016029810000003707918904225551520_" class="st2" d="M203.4,196.7
						c0.6,0,1.3-0.3,1.7-0.7c0.5-0.5,0.7-1.1,0.7-1.7s-0.3-1.3-0.7-1.7c-0.5-0.5-1.1-0.7-1.7-0.7s-1.3,0.3-1.7,0.7
						c-0.5,0.5-0.7,1.1-0.7,1.7s0.3,1.3,0.7,1.7C202.1,196.5,202.7,196.7,203.4,196.7z"/>
				</g>
				<g>
					<path id="mcb962ae2e5_00000117677903446603276850000004351058626106826931_" class="st2" d="M224.5,170.1
						c0.6,0,1.3-0.3,1.7-0.7c0.5-0.5,0.7-1.1,0.7-1.7s-0.3-1.3-0.7-1.7c-0.5-0.5-1.1-0.7-1.7-0.7s-1.3,0.3-1.7,0.7
						c-0.5,0.5-0.7,1.1-0.7,1.7s0.3,1.3,0.7,1.7C223.3,169.9,223.9,170.1,224.5,170.1z"/>
				</g>
				<g>
					<path id="mcb962ae2e5_00000004515383599666144810000002785059533074325951_" class="st2" d="M237.6,162.9
						c0.6,0,1.3-0.3,1.7-0.7c0.5-0.5,0.7-1.1,0.7-1.7s-0.3-1.3-0.7-1.7c-0.5-0.5-1.1-0.7-1.7-0.7s-1.3,0.3-1.7,0.7
						c-0.5,0.5-0.7,1.1-0.7,1.7s0.3,1.3,0.7,1.7C236.3,162.6,237,162.9,237.6,162.9z"/>
				</g>
				<g>
					<path id="mcb962ae2e5_00000114069929171729003410000015916457864122159251_" class="st2" d="M142.3,252.5
						c0.6,0,1.3-0.3,1.7-0.7c0.5-0.5,0.7-1.1,0.7-1.7s-0.3-1.3-0.7-1.7c-0.5-0.5-1.1-0.7-1.7-0.7s-1.3,0.3-1.7,0.7
						c-0.5,0.5-0.7,1.1-0.7,1.7s0.3,1.3,0.7,1.7C141,252.2,141.6,252.5,142.3,252.5z"/>
				</g>
				<g>
					<path id="mcb962ae2e5_00000105409504086186710570000000585037085574527657_" class="st2" d="M251.3,149.7
						c0.6,0,1.3-0.3,1.7-0.7c0.5-0.5,0.7-1.1,0.7-1.7s-0.3-1.3-0.7-1.7c-0.5-0.5-1.1-0.7-1.7-0.7s-1.3,0.3-1.7,0.7
						c-0.5,0.5-0.7,1.1-0.7,1.7s0.3,1.3,0.7,1.7C250.1,149.4,250.7,149.7,251.3,149.7z"/>
				</g>
				<g>
					<path id="mcb962ae2e5_00000054982135726509949090000014723707608497212814_" class="st2" d="M234.1,164c0.6,0,1.3-0.3,1.7-0.7
						c0.5-0.5,0.7-1.1,0.7-1.7s-0.3-1.3-0.7-1.7c-0.5-0.5-1.1-0.7-1.7-0.7s-1.3,0.3-1.7,0.7c-0.5,0.5-0.7,1.1-0.7,1.7
						s0.3,1.3,0.7,1.7C232.8,163.7,233.5,164,234.1,164z"/>
				</g>
				<g>
					<path id="mcb962ae2e5_00000182496571461497815950000009004176576498825382_" class="st2" d="M242.3,158.7
						c0.6,0,1.3-0.3,1.7-0.7c0.5-0.5,0.7-1.1,0.7-1.7s-0.3-1.3-0.7-1.7c-0.5-0.5-1.1-0.7-1.7-0.7s-1.3,0.3-1.7,0.7
						c-0.5,0.5-0.7,1.1-0.7,1.7s0.3,1.3,0.7,1.7C241,158.5,241.7,158.7,242.3,158.7z"/>
				</g>
				<g>
					<path id="mcb962ae2e5_00000107553511093841860590000012132386058925217204_" class="st2" d="M265.2,129.6
						c0.6,0,1.3-0.3,1.7-0.7c0.5-0.5,0.7-1.1,0.7-1.7s-0.3-1.3-0.7-1.7c-0.5-0.5-1.1-0.7-1.7-0.7s-1.3,0.3-1.7,0.7
						c-0.5,0.5-0.7,1.1-0.7,1.7s0.3,1.3,0.7,1.7C263.9,129.4,264.5,129.6,265.2,129.6z"/>
				</g>
				<g>
					<path id="mcb962ae2e5_00000156585533540075856870000002824259404225655995_" class="st2" d="M269.3,126.4
						c0.6,0,1.3-0.3,1.7-0.7c0.5-0.5,0.7-1.1,0.7-1.7s-0.3-1.3-0.7-1.7c-0.5-0.5-1.1-0.7-1.7-0.7s-1.3,0.3-1.7,0.7
						c-0.5,0.5-0.7,1.1-0.7,1.7s0.3,1.3,0.7,1.7C268,126.1,268.6,126.4,269.3,126.4z"/>
				</g>
				<g>
					<path id="mcb962ae2e5_00000031929632405918098220000001519229014227953580_" class="st2" d="M137.1,259.1
						c0.6,0,1.3-0.3,1.7-0.7c0.5-0.5,0.7-1.1,0.7-1.7c0-0.6-0.3-1.3-0.7-1.7c-0.5-0.5-1.1-0.7-1.7-0.7s-1.3,0.3-1.7,0.7
						c-0.5,0.5-0.7,1.1-0.7,1.7c0,0.6,0.3,1.3,0.7,1.7C135.8,258.8,136.4,259.1,137.1,259.1z"/>
				</g>
				<g>
					<path id="mcb962ae2e5_00000080906342543528851910000012178583967231061943_" class="st2" d="M133.8,261c0.6,0,1.3-0.3,1.7-0.7
						c0.5-0.5,0.7-1.1,0.7-1.7c0-0.6-0.3-1.3-0.7-1.7c-0.5-0.5-1.1-0.7-1.7-0.7s-1.3,0.3-1.7,0.7c-0.5,0.5-0.7,1.1-0.7,1.7
						c0,0.6,0.3,1.3,0.7,1.7C132.5,260.7,133.1,261,133.8,261z"/>
				</g>
				<g>
					<path id="mcb962ae2e5_00000165930649940837136280000003858714339343025062_" class="st2" d="M182,212.5c0.6,0,1.3-0.3,1.7-0.7
						c0.5-0.5,0.7-1.1,0.7-1.7s-0.3-1.3-0.7-1.7c-0.5-0.5-1.1-0.7-1.7-0.7s-1.3,0.3-1.7,0.7c-0.5,0.5-0.7,1.1-0.7,1.7
						s0.3,1.3,0.7,1.7C180.8,212.2,181.4,212.5,182,212.5z"/>
				</g>
				<g>
					<path id="mcb962ae2e5_00000139999630125389491960000011659629067853281154_" class="st2" d="M342.9,60.2c0.6,0,1.3-0.3,1.7-0.7
						c0.5-0.5,0.7-1.1,0.7-1.7s-0.3-1.3-0.7-1.7c-0.5-0.5-1.1-0.7-1.7-0.7s-1.3,0.3-1.7,0.7c-0.5,0.5-0.7,1.1-0.7,1.7
						s0.3,1.3,0.7,1.7C341.6,59.9,342.3,60.2,342.9,60.2z"/>
				</g>
				<g>
					<path id="mcb962ae2e5_00000098905049553086625900000003849762986042806459_" class="st2" d="M142.8,251.2
						c0.6,0,1.3-0.3,1.7-0.7c0.5-0.5,0.7-1.1,0.7-1.7s-0.3-1.3-0.7-1.7c-0.5-0.5-1.1-0.7-1.7-0.7s-1.3,0.3-1.7,0.7
						c-0.5,0.5-0.7,1.1-0.7,1.7s0.3,1.3,0.7,1.7C141.5,250.9,142.1,251.2,142.8,251.2z"/>
				</g>
				<g>
					<path id="mcb962ae2e5_00000034081981819308769120000004833396893773240505_" class="st2" d="M158,234c0.6,0,1.3-0.3,1.7-0.7
						c0.5-0.5,0.7-1.1,0.7-1.7s-0.3-1.3-0.7-1.7c-0.5-0.5-1.1-0.7-1.7-0.7s-1.3,0.3-1.7,0.7c-0.5,0.5-0.7,1.1-0.7,1.7
						s0.3,1.3,0.7,1.7C156.8,233.7,157.4,234,158,234z"/>
				</g>
				<g>
					<path id="mcb962ae2e5_00000135653533290680042820000002160741853693115024_" class="st2" d="M291.6,95.5c0.6,0,1.3-0.3,1.7-0.7
						c0.5-0.5,0.7-1.1,0.7-1.7s-0.3-1.3-0.7-1.7c-0.5-0.5-1.1-0.7-1.7-0.7s-1.3,0.3-1.7,0.7c-0.5,0.5-0.7,1.1-0.7,1.7
						s0.3,1.3,0.7,1.7C290.4,95.2,291,95.5,291.6,95.5z"/>
				</g>
				<g>
					<path id="mcb962ae2e5_00000068671352674113215130000013558662075512907680_" class="st2" d="M235,157.8c0.6,0,1.3-0.3,1.7-0.7
						c0.5-0.5,0.7-1.1,0.7-1.7s-0.3-1.3-0.7-1.7c-0.5-0.5-1.1-0.7-1.7-0.7s-1.3,0.3-1.7,0.7c-0.5,0.5-0.7,1.1-0.7,1.7
						s0.3,1.3,0.7,1.7C233.7,157.5,234.3,157.8,235,157.8z"/>
				</g>
				<g>
					<path id="mcb962ae2e5_00000085251261096371825120000004866911637764138383_" class="st2" d="M316.4,63.5c0.6,0,1.3-0.3,1.7-0.7
						c0.5-0.5,0.7-1.1,0.7-1.7s-0.3-1.3-0.7-1.7c-0.5-0.5-1.1-0.7-1.7-0.7s-1.3,0.3-1.7,0.7c-0.5,0.5-0.7,1.1-0.7,1.7
						s0.3,1.3,0.7,1.7C315.1,63.3,315.7,63.5,316.4,63.5z"/>
				</g>
				<g>
					<path id="mcb962ae2e5_00000079467684653153591670000001207693022225115556_" class="st2" d="M233.4,171.2
						c0.6,0,1.3-0.3,1.7-0.7c0.5-0.5,0.7-1.1,0.7-1.7s-0.3-1.3-0.7-1.7c-0.5-0.5-1.1-0.7-1.7-0.7s-1.3,0.3-1.7,0.7
						c-0.5,0.5-0.7,1.1-0.7,1.7s0.3,1.3,0.7,1.7C232.1,170.9,232.7,171.2,233.4,171.2z"/>
				</g>
				<g>
					<path id="mcb962ae2e5_00000114767579727613067170000002217354911179354815_" class="st2" d="M224.8,174.3
						c0.6,0,1.3-0.3,1.7-0.7c0.5-0.5,0.7-1.1,0.7-1.7s-0.3-1.3-0.7-1.7c-0.5-0.5-1.1-0.7-1.7-0.7s-1.3,0.3-1.7,0.7
						c-0.5,0.5-0.7,1.1-0.7,1.7s0.3,1.3,0.7,1.7C223.6,174,224.2,174.3,224.8,174.3z"/>
				</g>
				<g>
					<path id="mcb962ae2e5_00000095300263878169101400000007081596725187584916_" class="st2" d="M144.4,254.2
						c0.6,0,1.3-0.3,1.7-0.7c0.5-0.5,0.7-1.1,0.7-1.7s-0.3-1.3-0.7-1.7c-0.5-0.5-1.1-0.7-1.7-0.7s-1.3,0.3-1.7,0.7
						c-0.5,0.5-0.7,1.1-0.7,1.7s0.3,1.3,0.7,1.7C143.1,253.9,143.8,254.2,144.4,254.2z"/>
				</g>
				<g>
					<path id="mcb962ae2e5_00000114044726112399452580000015787013455434499756_" class="st2" d="M273.9,118.4
						c0.6,0,1.3-0.3,1.7-0.7c0.5-0.5,0.7-1.1,0.7-1.7s-0.3-1.3-0.7-1.7c-0.5-0.5-1.1-0.7-1.7-0.7s-1.3,0.3-1.7,0.7
						c-0.5,0.5-0.7,1.1-0.7,1.7s0.3,1.3,0.7,1.7C272.7,118.2,273.3,118.4,273.9,118.4z"/>
				</g>
				<g>
					<path id="mcb962ae2e5_00000159454259493359716470000012061432882435563676_" class="st2" d="M136.5,259.3
						c0.6,0,1.3-0.3,1.7-0.7c0.5-0.5,0.7-1.1,0.7-1.7c0-0.6-0.3-1.3-0.7-1.7c-0.5-0.5-1.1-0.7-1.7-0.7s-1.3,0.3-1.7,0.7
						c-0.5,0.5-0.7,1.1-0.7,1.7c0,0.6,0.3,1.3,0.7,1.7C135.2,259,135.9,259.3,136.5,259.3z"/>
				</g>
				<g>
					<path id="mcb962ae2e5_00000127763267516383179430000002889680349201106864_" class="st2" d="M300.9,92.1c0.6,0,1.3-0.3,1.7-0.7
						c0.5-0.5,0.7-1.1,0.7-1.7s-0.3-1.3-0.7-1.7c-0.5-0.5-1.1-0.7-1.7-0.7s-1.3,0.3-1.7,0.7c-0.5,0.5-0.7,1.1-0.7,1.7
						s0.3,1.3,0.7,1.7C299.6,91.9,300.3,92.1,300.9,92.1z"/>
				</g>
				<g>
					<path id="mcb962ae2e5_00000003069330502293811700000007640851419089370043_" class="st2" d="M260.9,122.2
						c0.6,0,1.3-0.3,1.7-0.7c0.5-0.5,0.7-1.1,0.7-1.7s-0.3-1.3-0.7-1.7c-0.5-0.5-1.1-0.7-1.7-0.7s-1.3,0.3-1.7,0.7
						c-0.5,0.5-0.7,1.1-0.7,1.7s0.3,1.3,0.7,1.7C259.6,122,260.3,122.2,260.9,122.2z"/>
				</g>
				<g>
					<path id="mcb962ae2e5_00000124849168018563425710000000996168863740263062_" class="st2" d="M208.5,190.5
						c0.6,0,1.3-0.3,1.7-0.7c0.5-0.5,0.7-1.1,0.7-1.7s-0.3-1.3-0.7-1.7c-0.5-0.5-1.1-0.7-1.7-0.7s-1.3,0.3-1.7,0.7
						c-0.5,0.5-0.7,1.1-0.7,1.7s0.3,1.3,0.7,1.7C207.3,190.2,207.9,190.5,208.5,190.5z"/>
				</g>
				<g>
					<path id="mcb962ae2e5_00000155127789108022204610000018392657904291940020_" class="st2" d="M197,188.8c0.6,0,1.3-0.3,1.7-0.7
						c0.5-0.5,0.7-1.1,0.7-1.7s-0.3-1.3-0.7-1.7c-0.5-0.5-1.1-0.7-1.7-0.7s-1.3,0.3-1.7,0.7c-0.5,0.5-0.7,1.1-0.7,1.7
						s0.3,1.3,0.7,1.7C195.7,188.6,196.4,188.8,197,188.8z"/>
				</g>
				<g>
					<path id="mcb962ae2e5_00000129924683899376282370000016250013068673546624_" class="st2" d="M237.8,154.3
						c0.6,0,1.3-0.3,1.7-0.7c0.5-0.5,0.7-1.1,0.7-1.7s-0.3-1.3-0.7-1.7c-0.5-0.5-1.1-0.7-1.7-0.7s-1.3,0.3-1.7,0.7
						c-0.5,0.5-0.7,1.1-0.7,1.7s0.3,1.3,0.7,1.7C236.5,154.1,237.2,154.3,237.8,154.3z"/>
				</g>
				<g>
					<path id="mcb962ae2e5_00000086693730519419260620000006977402015000749227_" class="st2" d="M127.9,268.1
						c0.6,0,1.3-0.3,1.7-0.7c0.5-0.5,0.7-1.1,0.7-1.7c0-0.6-0.3-1.3-0.7-1.7c-0.5-0.5-1.1-0.7-1.7-0.7s-1.3,0.3-1.7,0.7
						c-0.5,0.5-0.7,1.1-0.7,1.7c0,0.6,0.3,1.3,0.7,1.7C126.7,267.8,127.3,268.1,127.9,268.1z"/>
				</g>
				<g>
					<path id="mcb962ae2e5_00000136399863002215452380000000593626553402624179_" class="st2" d="M347,53.6c0.6,0,1.3-0.3,1.7-0.7
						c0.5-0.5,0.7-1.1,0.7-1.7s-0.3-1.3-0.7-1.7c-0.5-0.5-1.1-0.7-1.7-0.7s-1.3,0.3-1.7,0.7c-0.5,0.5-0.7,1.1-0.7,1.7
						s0.3,1.3,0.7,1.7C345.8,53.4,346.4,53.6,347,53.6z"/>
				</g>
				<g>
					<path id="mcb962ae2e5_00000114070539200097103760000005962722954041031870_" class="st2" d="M115.5,278c0.6,0,1.3-0.3,1.7-0.7
						c0.5-0.5,0.7-1.1,0.7-1.7c0-0.6-0.3-1.3-0.7-1.7c-0.5-0.5-1.1-0.7-1.7-0.7s-1.3,0.3-1.7,0.7c-0.5,0.5-0.7,1.1-0.7,1.7
						c0,0.6,0.3,1.3,0.7,1.7C114.3,277.7,114.9,278,115.5,278z"/>
				</g>
				<g>
					<path id="mcb962ae2e5_00000150815444644680465940000004265745691527682230_" class="st2" d="M310.5,88.3c0.6,0,1.3-0.3,1.7-0.7
						c0.5-0.5,0.7-1.1,0.7-1.7s-0.3-1.3-0.7-1.7c-0.5-0.5-1.1-0.7-1.7-0.7s-1.3,0.3-1.7,0.7c-0.5,0.5-0.7,1.1-0.7,1.7
						s0.3,1.3,0.7,1.7C309.2,88,309.8,88.3,310.5,88.3z"/>
				</g>
				<g>
					<path id="mcb962ae2e5_00000059990819902267527640000003580718754202834819_" class="st2" d="M158,237.8c0.6,0,1.3-0.3,1.7-0.7
						c0.5-0.5,0.7-1.1,0.7-1.7s-0.3-1.3-0.7-1.7c-0.5-0.5-1.1-0.7-1.7-0.7s-1.3,0.3-1.7,0.7c-0.5,0.5-0.7,1.1-0.7,1.7
						s0.3,1.3,0.7,1.7C156.7,237.6,157.3,237.8,158,237.8z"/>
				</g>
				<g>
					<path id="mcb962ae2e5_00000081624843826922579630000000240528597488432313_" class="st2" d="M169.3,224.8
						c0.6,0,1.3-0.3,1.7-0.7c0.5-0.5,0.7-1.1,0.7-1.7s-0.3-1.3-0.7-1.7c-0.5-0.5-1.1-0.7-1.7-0.7s-1.3,0.3-1.7,0.7
						c-0.5,0.5-0.7,1.1-0.7,1.7s0.3,1.3,0.7,1.7C168,224.6,168.7,224.8,169.3,224.8z"/>
				</g>
				<g>
					<path id="mcb962ae2e5_00000152231380281118599790000001989745206657598365_" class="st2" d="M179,217.4c0.6,0,1.3-0.3,1.7-0.7
						c0.5-0.5,0.7-1.1,0.7-1.7s-0.3-1.3-0.7-1.7c-0.5-0.5-1.1-0.7-1.7-0.7s-1.3,0.3-1.7,0.7c-0.5,0.5-0.7,1.1-0.7,1.7
						s0.3,1.3,0.7,1.7C177.7,217.1,178.4,217.4,179,217.4z"/>
				</g>
			</g>
		</g>
	</g>
	<g id="matplotlib.axis_1">
		<g id="xtick_1">
			<g id="line2d_1">
				<g>
					<g>
						<path id="m12923fa26e" class="st3" d="M109.5,294.6v3.5"/>
					</g>
				</g>
			</g>
			<g id="text_1">
				<text transform="matrix(1 0 0 1 99.1356 312.2778)" class="st4 st5">0.0</text>
			</g>
		</g>
		<g id="xtick_2">
			<g id="line2d_2">
				<g>
					<g>
						<path id="m12923fa26e_00000162337757081205953450000004576277182046884278_" class="st3" d="M157.9,294.6v3.5"/>
					</g>
				</g>
			</g>
			<g id="text_2">
				<text transform="matrix(1 0 0 1 147.4919 312.2778)" class="st4 st5">0.1</text>
			</g>
		</g>
		<g id="xtick_3">
			<g id="line2d_3">
				<g>
					<g>
						<path id="m12923fa26e_00000085966002008316015500000014336073078387487627_" class="st3" d="M206.2,294.6v3.5"/>
					</g>
				</g>
			</g>
			<g id="text_3">
				<text transform="matrix(1 0 0 1 195.8483 312.2778)" class="st4 st5">0.2</text>
			</g>
		</g>
		<g id="xtick_4">
			<g id="line2d_4">
				<g>
					<g>
						<path id="m12923fa26e_00000085942646963790446190000008379642971047307659_" class="st3" d="M254.6,294.6v3.5"/>
					</g>
				</g>
			</g>
			<g id="text_4">
				<text transform="matrix(1 0 0 1 244.2047 312.2778)" class="st4 st5">0.3</text>
			</g>
		</g>
		<g id="xtick_5">
			<g id="line2d_5">
				<g>
					<g>
						<path id="m12923fa26e_00000044867533920749801950000003932289846748413354_" class="st3" d="M302.9,294.6v3.5"/>
					</g>
				</g>
			</g>
			<g id="text_5">
				<text transform="matrix(1 0 0 1 292.561 312.2778)" class="st4 st5">0.4</text>
			</g>
		</g>
		<g id="xtick_6">
			<g id="line2d_6">
				<g>
					<g>
						<path id="m12923fa26e_00000000198295807975262930000003330749173080990617_" class="st3" d="M351.3,294.6v3.5"/>
					</g>
				</g>
			</g>
			<g id="text_6">
				<text transform="matrix(1 0 0 1 340.9174 312.2778)" class="st4 st5">0.5</text>
			</g>
		</g>
		<g id="text_7">
			<text transform="matrix(1 0 0 1 193.8883 331.3469)" class="st4 st6">True FDR</text>
		</g>
	</g>
	<g id="matplotlib.axis_2">
		<g id="ytick_1">
			<g id="line2d_7">
				<g>
					<g>
						<path id="mfa0b4d96d1" class="st3" d="M97.4,282.6h-3.5"/>
					</g>
				</g>
			</g>
			<g id="text_8">
				<text transform="matrix(1 0 0 1 69.6729 287.8698)" class="st4 st5">0.0</text>
			</g>
		</g>
		<g id="ytick_2">
			<g id="line2d_8">
				<g>
					<g>
						<path id="mfa0b4d96d1_00000098186965509116682240000008814763382136473234_" class="st3" d="M97.4,234.2h-3.5"/>
					</g>
				</g>
			</g>
			<g id="text_9">
				<text transform="matrix(1 0 0 1 69.6729 239.5135)" class="st4 st5">0.1</text>
			</g>
		</g>
		<g id="ytick_3">
			<g id="line2d_9">
				<g>
					<g>
						<path id="mfa0b4d96d1_00000158020624159081431790000011452006512565594516_" class="st3" d="M97.4,185.8h-3.5"/>
					</g>
				</g>
			</g>
			<g id="text_10">
				<text transform="matrix(1 0 0 1 69.6729 191.1571)" class="st4 st5">0.2</text>
			</g>
		</g>
		<g id="ytick_4">
			<g id="line2d_10">
				<g>
					<g>
						<path id="mfa0b4d96d1_00000026161262393606357250000009931967131491938735_" class="st3" d="M97.4,137.5h-3.5"/>
					</g>
				</g>
			</g>
			<g id="text_11">
				<text transform="matrix(1 0 0 1 69.6729 142.8007)" class="st4 st5">0.3</text>
			</g>
		</g>
		<g id="ytick_5">
			<g id="line2d_11">
				<g>
					<g>
						<path id="mfa0b4d96d1_00000138570772275978379480000012780672865213835397_" class="st3" d="M97.4,89.1h-3.5"/>
					</g>
				</g>
			</g>
			<g id="text_12">
				<text transform="matrix(1 0 0 1 69.6729 94.4444)" class="st4 st5">0.4</text>
			</g>
		</g>
		<g id="ytick_6">
			<g id="line2d_12">
				<g>
					<g>
						<path id="mfa0b4d96d1_00000085966614982850998960000000944912195261687426_" class="st3" d="M97.4,40.8h-3.5"/>
					</g>
				</g>
			</g>
			<g id="text_13">
				<text transform="matrix(1 0 0 1 69.6729 46.088)" class="st4 st5">0.5</text>
			</g>
		</g>
		<g id="text_14">
			<text transform="matrix(6.123234e-17 -1 1 6.123234e-17 60.8281 216.5586)" class="st4 st6">Predicted FDR</text>
		</g>
	</g>
	<g id="line2d_13">
		<g>
			<defs>
				<rect id="SVGID_00000080919539720931027240000000165142526274041507_" x="97.4" y="28.7" width="266" height="266"/>
			</defs>
			<clipPath id="SVGID_00000140726420156708453110000011989255174258552962_">
				<use xlink:href="#SVGID_00000080919539720931027240000000165142526274041507_"  style="overflow:visible;"/>
			</clipPath>
			
				<path style="clip-path:url(#SVGID_00000140726420156708453110000011989255174258552962_);fill:none;stroke:#000000;stroke-width:2;stroke-linejoin:round;stroke-dasharray:7.4,3.2;" d="
				M109.5,282.6L351.3,40.8"/>
		</g>
	</g>
	<g id="line2d_14">
		<g>
			<defs>
				<rect id="SVGID_00000119106081945227168130000007508267678546929806_" x="97.4" y="28.7" width="266" height="266"/>
			</defs>
			<clipPath id="SVGID_00000170966410514138142870000007397930476138541736_">
				<use xlink:href="#SVGID_00000119106081945227168130000007508267678546929806_"  style="overflow:visible;"/>
			</clipPath>
			
				<path style="clip-path:url(#SVGID_00000170966410514138142870000007397930476138541736_);fill:none;stroke:#000000;stroke-width:2;stroke-linecap:square;stroke-linejoin:round;" d="
				M109.5,282.2L351.3,43.9"/>
		</g>
	</g>
	<g id="patch_3">
		<path class="st9" d="M97.4,294.6v-266"/>
	</g>
	<g id="patch_4">
		<path class="st9" d="M363.4,294.6v-266"/>
	</g>
	<g id="patch_5">
		<path class="st9" d="M97.4,294.6h266"/>
	</g>
	<g id="patch_6">
		<path class="st9" d="M97.4,28.7h266"/>
	</g>
	<g id="text_15">
		<g transform="translate(254.578182 234.194545)">
			<text transform="matrix(1 0 0 1 0 -0.5625)" class="st10 st6">R</text>
			<text transform="matrix(1 0 0 1 11.5547 -0.5625)" class="st10 st11"> </text>
			<text transform="matrix(1 0 0 1 12.2408 -6.6875)" class="st10 st12">2</text>
			<text transform="matrix(1 0 0 1 18.4697 -6.6875)" class="st10 st11"> </text>
			<text transform="matrix(1 0 0 1 19.8041 -0.5625)" class="st10 st6"> </text>
			<text transform="matrix(1 0 0 1 24.8901 -0.5625)" class="st10 st6">=</text>
			<text transform="matrix(1 0 0 1 38.2963 -0.5625)" class="st10 st6"> </text>
			<text transform="matrix(1 0 0 1 43.3823 -0.5625)" class="st10 st6">0</text>
			<text transform="matrix(1 0 0 1 53.562 -0.5625)" class="st10 st6">.</text>
			<text transform="matrix(1 0 0 1 58.6479 -0.5625)" class="st10 st6">9</text>
			<text transform="matrix(1 0 0 1 68.8276 -0.5625)" class="st10 st6">9</text>
		</g>
	</g>
	<g id="text_16">
		<text transform="matrix(1 0 0 1 133.8531 22.6801)" class="st4 st6">CV1_gamma_05-08-2024</text>
	</g>
</g>
</svg>
