<?xml version="1.0" encoding="utf-8"?>
<!-- Generator: Adobe Illustrator 28.0.0, SVG Export Plug-In . SVG Version: 6.00 Build 0)  -->
<svg version="1.1" id="Layer_1" xmlns="http://www.w3.org/2000/svg" xmlns:xlink="http://www.w3.org/1999/xlink" x="0px" y="0px"
	 viewBox="0 0 460.8 345.6" style="enable-background:new 0 0 460.8 345.6;" xml:space="preserve">
<style type="text/css">
	.st0{clip-path:url(#SVGID_00000054240640192863244050000017348487390924124301_);}
	.st1{fill:#0000FF;stroke:#0000FF;stroke-linejoin:round;}
	.st2{stroke:#000000;stroke-width:0.8;stroke-linejoin:round;}
	.st3{font-family:'LucidaBright';}
	.st4{font-size:14px;}
	.st5{font-size:16px;}
	
		.st6{clip-path:url(#SVGID_00000173125535080051045470000004004624777969801886_);fill:none;stroke:#000000;stroke-width:2;stroke-linejoin:round;stroke-dasharray:7.4,3.2;}
	
		.st7{clip-path:url(#SVGID_00000143603170354440543810000005473477753238308519_);fill:none;stroke:#000000;stroke-width:2;stroke-linecap:square;stroke-linejoin:round;}
	.st8{fill:none;stroke:#000000;stroke-width:0.8;stroke-linecap:square;}
	.st9{font-family:'ArialMT';}
	.st10{font-size:12px;}
	.st11{font-size:11.2px;}
</style>
<g id="PathCollection_1">
	<g>
		<defs>
			<rect id="SVGID_1_" x="97.4" y="28.7" width="266" height="266"/>
		</defs>
		<clipPath id="SVGID_00000109018986841771999600000012024560227535345843_">
			<use xlink:href="#SVGID_1_"  style="overflow:visible;"/>
		</clipPath>
		<g style="clip-path:url(#SVGID_00000109018986841771999600000012024560227535345843_);">
			<g>
				<path id="m40ca6162e5" class="st1" d="M240.7,151.9c0.6,0,1.3-0.3,1.7-0.7c0.5-0.5,0.7-1.1,0.7-1.7s-0.3-1.3-0.7-1.7
					c-0.5-0.5-1.1-0.7-1.7-0.7s-1.3,0.3-1.7,0.7c-0.5,0.5-0.7,1.1-0.7,1.7s0.3,1.3,0.7,1.7C239.4,151.7,240,151.9,240.7,151.9z"/>
			</g>
			<g>
				<path id="m40ca6162e5_00000179636446406378580090000003719520346509958308_" class="st1" d="M120.4,271.9c0.6,0,1.3-0.3,1.7-0.7
					c0.5-0.5,0.7-1.1,0.7-1.7c0-0.6-0.3-1.3-0.7-1.7c-0.5-0.5-1.1-0.7-1.7-0.7s-1.3,0.3-1.7,0.7c-0.5,0.5-0.7,1.1-0.7,1.7
					c0,0.6,0.3,1.3,0.7,1.7C119.1,271.6,119.8,271.9,120.4,271.9z"/>
			</g>
			<g>
				<path id="m40ca6162e5_00000080204917387785780660000011585268064696700851_" class="st1" d="M126.7,265.6c0.6,0,1.3-0.3,1.7-0.7
					c0.5-0.5,0.7-1.1,0.7-1.7c0-0.6-0.3-1.3-0.7-1.7c-0.5-0.5-1.1-0.7-1.7-0.7s-1.3,0.3-1.7,0.7c-0.5,0.5-0.7,1.1-0.7,1.7
					c0,0.6,0.3,1.3,0.7,1.7C125.4,265.4,126,265.6,126.7,265.6z"/>
			</g>
			<g>
				<path id="m40ca6162e5_00000019650901938398999540000000094401502796005010_" class="st1" d="M200.4,192c0.6,0,1.3-0.3,1.7-0.7
					c0.5-0.5,0.7-1.1,0.7-1.7s-0.3-1.3-0.7-1.7c-0.5-0.5-1.1-0.7-1.7-0.7s-1.3,0.3-1.7,0.7c-0.5,0.5-0.7,1.1-0.7,1.7
					s0.3,1.3,0.7,1.7C199.1,191.7,199.7,192,200.4,192z"/>
			</g>
			<g>
				<path id="m40ca6162e5_00000130608773472666746230000000496382623282315651_" class="st1" d="M318.4,74.7c0.6,0,1.3-0.3,1.7-0.7
					c0.5-0.5,0.7-1.1,0.7-1.7s-0.3-1.3-0.7-1.7c-0.5-0.5-1.1-0.7-1.7-0.7s-1.3,0.3-1.7,0.7c-0.5,0.5-0.7,1.1-0.7,1.7
					s0.3,1.3,0.7,1.7C317.2,74.5,317.8,74.7,318.4,74.7z"/>
			</g>
			<g>
				<path id="m40ca6162e5_00000150792525001370586110000012525743385606167444_" class="st1" d="M280.1,117.9c0.6,0,1.3-0.3,1.7-0.7
					c0.5-0.5,0.7-1.1,0.7-1.7s-0.3-1.3-0.7-1.7c-0.5-0.5-1.1-0.7-1.7-0.7s-1.3,0.3-1.7,0.7c-0.5,0.5-0.7,1.1-0.7,1.7
					s0.3,1.3,0.7,1.7C278.8,117.7,279.5,117.9,280.1,117.9z"/>
			</g>
			<g>
				<path id="m40ca6162e5_00000014618257078043430050000005380970326594649247_" class="st1" d="M145.2,247.4c0.6,0,1.3-0.3,1.7-0.7
					c0.5-0.5,0.7-1.1,0.7-1.7s-0.3-1.3-0.7-1.7c-0.5-0.5-1.1-0.7-1.7-0.7s-1.3,0.3-1.7,0.7c-0.5,0.5-0.7,1.1-0.7,1.7
					s0.3,1.3,0.7,1.7C143.9,247.1,144.5,247.4,145.2,247.4z"/>
			</g>
			<g>
				<path id="m40ca6162e5_00000062898023006847472210000015022487555339319969_" class="st1" d="M178.6,214.8c0.6,0,1.3-0.3,1.7-0.7
					c0.5-0.5,0.7-1.1,0.7-1.7s-0.3-1.3-0.7-1.7c-0.5-0.5-1.1-0.7-1.7-0.7s-1.3,0.3-1.7,0.7c-0.5,0.5-0.7,1.1-0.7,1.7
					s0.3,1.3,0.7,1.7C177.3,214.6,177.9,214.8,178.6,214.8z"/>
			</g>
			<g>
				<path id="m40ca6162e5_00000097471433999921882930000000021051822286240160_" class="st1" d="M277.4,116.8c0.6,0,1.3-0.3,1.7-0.7
					c0.5-0.5,0.7-1.1,0.7-1.7s-0.3-1.3-0.7-1.7c-0.5-0.5-1.1-0.7-1.7-0.7s-1.3,0.3-1.7,0.7c-0.5,0.5-0.7,1.1-0.7,1.7
					s0.3,1.3,0.7,1.7C276.2,116.5,276.8,116.8,277.4,116.8z"/>
			</g>
			<g>
				<path id="m40ca6162e5_00000116921102877887973860000006105615818170952089_" class="st1" d="M121.9,272.6c0.6,0,1.3-0.3,1.7-0.7
					c0.5-0.5,0.7-1.1,0.7-1.7c0-0.6-0.3-1.3-0.7-1.7c-0.5-0.5-1.1-0.7-1.7-0.7s-1.3,0.3-1.7,0.7c-0.5,0.5-0.7,1.1-0.7,1.7
					c0,0.6,0.3,1.3,0.7,1.7C120.7,272.3,121.3,272.6,121.9,272.6z"/>
			</g>
			<g>
				<path id="m40ca6162e5_00000113327135654420950560000015550843646751240350_" class="st1" d="M285.3,129.8c0.6,0,1.3-0.3,1.7-0.7
					c0.5-0.5,0.7-1.1,0.7-1.7s-0.3-1.3-0.7-1.7c-0.5-0.5-1.1-0.7-1.7-0.7s-1.3,0.3-1.7,0.7c-0.5,0.5-0.7,1.1-0.7,1.7
					s0.3,1.3,0.7,1.7C284,129.5,284.7,129.8,285.3,129.8z"/>
			</g>
			<g>
				<path id="m40ca6162e5_00000080185113412527133250000017337609864526568852_" class="st1" d="M325.9,43.2c0.6,0,1.3-0.3,1.7-0.7
					c0.5-0.5,0.7-1.1,0.7-1.7s-0.3-1.3-0.7-1.7c-0.5-0.5-1.1-0.7-1.7-0.7s-1.3,0.3-1.7,0.7c-0.5,0.5-0.7,1.1-0.7,1.7
					s0.3,1.3,0.7,1.7C324.7,43,325.3,43.2,325.9,43.2z"/>
			</g>
			<g>
				<path id="m40ca6162e5_00000051364820511845893200000004406005131966674603_" class="st1" d="M163,226.6c0.6,0,1.3-0.3,1.7-0.7
					c0.5-0.5,0.7-1.1,0.7-1.7s-0.3-1.3-0.7-1.7c-0.5-0.5-1.1-0.7-1.7-0.7s-1.3,0.3-1.7,0.7c-0.5,0.5-0.7,1.1-0.7,1.7
					s0.3,1.3,0.7,1.7C161.7,226.3,162.3,226.6,163,226.6z"/>
			</g>
			<g>
				<path id="m40ca6162e5_00000175310863380502331920000008544677960081887143_" class="st1" d="M138.3,254.8c0.6,0,1.3-0.3,1.7-0.7
					c0.5-0.5,0.7-1.1,0.7-1.7s-0.3-1.3-0.7-1.7c-0.5-0.5-1.1-0.7-1.7-0.7s-1.3,0.3-1.7,0.7c-0.5,0.5-0.7,1.1-0.7,1.7
					s0.3,1.3,0.7,1.7C137,254.5,137.7,254.8,138.3,254.8z"/>
			</g>
			<g>
				<path id="m40ca6162e5_00000162312811300334927630000004905412519208881796_" class="st1" d="M150.3,243c0.6,0,1.3-0.3,1.7-0.7
					c0.5-0.5,0.7-1.1,0.7-1.7s-0.3-1.3-0.7-1.7c-0.5-0.5-1.1-0.7-1.7-0.7s-1.3,0.3-1.7,0.7c-0.5,0.5-0.7,1.1-0.7,1.7
					s0.3,1.3,0.7,1.7C149.1,242.7,149.7,243,150.3,243z"/>
			</g>
			<g>
				<path id="m40ca6162e5_00000136384582595197626560000012360796431965674156_" class="st1" d="M273.5,122c0.6,0,1.3-0.3,1.7-0.7
					c0.5-0.5,0.7-1.1,0.7-1.7s-0.3-1.3-0.7-1.7c-0.5-0.5-1.1-0.7-1.7-0.7s-1.3,0.3-1.7,0.7c-0.5,0.5-0.7,1.1-0.7,1.7
					s0.3,1.3,0.7,1.7C272.2,121.8,272.8,122,273.5,122z"/>
			</g>
			<g>
				<path id="m40ca6162e5_00000173840149774121279290000007546270151124609170_" class="st1" d="M336.3,57.3c0.6,0,1.3-0.3,1.7-0.7
					c0.5-0.5,0.7-1.1,0.7-1.7s-0.3-1.3-0.7-1.7c-0.5-0.5-1.1-0.7-1.7-0.7s-1.3,0.3-1.7,0.7c-0.5,0.5-0.7,1.1-0.7,1.7
					s0.3,1.3,0.7,1.7C335,57,335.7,57.3,336.3,57.3z"/>
			</g>
			<g>
				<path id="m40ca6162e5_00000159437167609686772680000015397230193759131530_" class="st1" d="M290.9,106c0.6,0,1.3-0.3,1.7-0.7
					c0.5-0.5,0.7-1.1,0.7-1.7s-0.3-1.3-0.7-1.7c-0.5-0.5-1.1-0.7-1.7-0.7s-1.3,0.3-1.7,0.7c-0.5,0.5-0.7,1.1-0.7,1.7
					s0.3,1.3,0.7,1.7C289.7,105.8,290.3,106,290.9,106z"/>
			</g>
			<g>
				<path id="m40ca6162e5_00000000922641727244085420000011309378225718061237_" class="st1" d="M270.9,108c0.6,0,1.3-0.3,1.7-0.7
					c0.5-0.5,0.7-1.1,0.7-1.7s-0.3-1.3-0.7-1.7c-0.5-0.5-1.1-0.7-1.7-0.7s-1.3,0.3-1.7,0.7c-0.5,0.5-0.7,1.1-0.7,1.7
					s0.3,1.3,0.7,1.7C269.6,107.8,270.3,108,270.9,108z"/>
			</g>
			<g>
				<path id="m40ca6162e5_00000115495218832171049030000000071893458434327987_" class="st1" d="M295.7,102.2c0.6,0,1.3-0.3,1.7-0.7
					c0.5-0.5,0.7-1.1,0.7-1.7s-0.3-1.3-0.7-1.7c-0.5-0.5-1.1-0.7-1.7-0.7s-1.3,0.3-1.7,0.7c-0.5,0.5-0.7,1.1-0.7,1.7
					s0.3,1.3,0.7,1.7C294.4,101.9,295.1,102.2,295.7,102.2z"/>
			</g>
			<g>
				<path id="m40ca6162e5_00000031891283304417606970000012591932446762101397_" class="st1" d="M223.7,157.4c0.6,0,1.3-0.3,1.7-0.7
					c0.5-0.5,0.7-1.1,0.7-1.7s-0.3-1.3-0.7-1.7c-0.5-0.5-1.1-0.7-1.7-0.7s-1.3,0.3-1.7,0.7c-0.5,0.5-0.7,1.1-0.7,1.7
					s0.3,1.3,0.7,1.7C222.4,157.1,223,157.4,223.7,157.4z"/>
			</g>
			<g>
				<path id="m40ca6162e5_00000094601605241249185990000000994466859092152477_" class="st1" d="M283.1,129.5c0.6,0,1.3-0.3,1.7-0.7
					c0.5-0.5,0.7-1.1,0.7-1.7s-0.3-1.3-0.7-1.7c-0.5-0.5-1.1-0.7-1.7-0.7s-1.3,0.3-1.7,0.7c-0.5,0.5-0.7,1.1-0.7,1.7
					s0.3,1.3,0.7,1.7C281.8,129.2,282.4,129.5,283.1,129.5z"/>
			</g>
			<g>
				<path id="m40ca6162e5_00000150783512818917224650000018165125732489810082_" class="st1" d="M195.1,198.2c0.6,0,1.3-0.3,1.7-0.7
					c0.5-0.5,0.7-1.1,0.7-1.7s-0.3-1.3-0.7-1.7c-0.5-0.5-1.1-0.7-1.7-0.7s-1.3,0.3-1.7,0.7c-0.5,0.5-0.7,1.1-0.7,1.7
					s0.3,1.3,0.7,1.7C193.8,197.9,194.5,198.2,195.1,198.2z"/>
			</g>
			<g>
				<path id="m40ca6162e5_00000091719669787557231320000014903263638007836558_" class="st1" d="M150.6,241.6c0.6,0,1.3-0.3,1.7-0.7
					c0.5-0.5,0.7-1.1,0.7-1.7s-0.3-1.3-0.7-1.7c-0.5-0.5-1.1-0.7-1.7-0.7s-1.3,0.3-1.7,0.7c-0.5,0.5-0.7,1.1-0.7,1.7
					s0.3,1.3,0.7,1.7C149.3,241.4,149.9,241.6,150.6,241.6z"/>
			</g>
			<g>
				<path id="m40ca6162e5_00000177465136773553318960000006674998074736957838_" class="st1" d="M158.5,236.5c0.6,0,1.3-0.3,1.7-0.7
					c0.5-0.5,0.7-1.1,0.7-1.7s-0.3-1.3-0.7-1.7c-0.5-0.5-1.1-0.7-1.7-0.7s-1.3,0.3-1.7,0.7c-0.5,0.5-0.7,1.1-0.7,1.7
					s0.3,1.3,0.7,1.7C157.2,236.3,157.8,236.5,158.5,236.5z"/>
			</g>
			<g>
				<path id="m40ca6162e5_00000083078825781877411600000001207481247061415602_" class="st1" d="M310.1,78.7c0.6,0,1.3-0.3,1.7-0.7
					c0.5-0.5,0.7-1.1,0.7-1.7s-0.3-1.3-0.7-1.7c-0.5-0.5-1.1-0.7-1.7-0.7s-1.3,0.3-1.7,0.7c-0.5,0.5-0.7,1.1-0.7,1.7
					s0.3,1.3,0.7,1.7C308.8,78.4,309.5,78.7,310.1,78.7z"/>
			</g>
			<g>
				<path id="m40ca6162e5_00000164503364123461754510000001608950414961628072_" class="st1" d="M196,197.2c0.6,0,1.3-0.3,1.7-0.7
					c0.5-0.5,0.7-1.1,0.7-1.7s-0.3-1.3-0.7-1.7c-0.5-0.5-1.1-0.7-1.7-0.7s-1.3,0.3-1.7,0.7c-0.5,0.5-0.7,1.1-0.7,1.7
					s0.3,1.3,0.7,1.7C194.7,196.9,195.3,197.2,196,197.2z"/>
			</g>
			<g>
				<path id="m40ca6162e5_00000103952202715617670770000013943576874345849216_" class="st1" d="M165.2,228.7c0.6,0,1.3-0.3,1.7-0.7
					c0.5-0.5,0.7-1.1,0.7-1.7s-0.3-1.3-0.7-1.7c-0.5-0.5-1.1-0.7-1.7-0.7s-1.3,0.3-1.7,0.7c-0.5,0.5-0.7,1.1-0.7,1.7
					s0.3,1.3,0.7,1.7C164,228.5,164.6,228.7,165.2,228.7z"/>
			</g>
			<g>
				<path id="m40ca6162e5_00000102540270111741389850000014261127407198439314_" class="st1" d="M210,187.7c0.6,0,1.3-0.3,1.7-0.7
					c0.5-0.5,0.7-1.1,0.7-1.7s-0.3-1.3-0.7-1.7c-0.5-0.5-1.1-0.7-1.7-0.7s-1.3,0.3-1.7,0.7c-0.5,0.5-0.7,1.1-0.7,1.7
					s0.3,1.3,0.7,1.7C208.7,187.4,209.4,187.7,210,187.7z"/>
			</g>
			<g>
				<path id="m40ca6162e5_00000029032863002849062590000016350821526145593739_" class="st1" d="M130.7,262.1c0.6,0,1.3-0.3,1.7-0.7
					c0.5-0.5,0.7-1.1,0.7-1.7c0-0.6-0.3-1.3-0.7-1.7c-0.5-0.5-1.1-0.7-1.7-0.7s-1.3,0.3-1.7,0.7c-0.5,0.5-0.7,1.1-0.7,1.7
					c0,0.6,0.3,1.3,0.7,1.7C129.4,261.9,130.1,262.1,130.7,262.1z"/>
			</g>
			<g>
				<path id="m40ca6162e5_00000142177917783115407140000008171312966058088116_" class="st1" d="M110.7,283.8c0.6,0,1.3-0.3,1.7-0.7
					c0.5-0.5,0.7-1.1,0.7-1.7c0-0.6-0.3-1.3-0.7-1.7c-0.5-0.5-1.1-0.7-1.7-0.7s-1.3,0.3-1.7,0.7c-0.5,0.5-0.7,1.1-0.7,1.7
					c0,0.6,0.3,1.3,0.7,1.7C109.5,283.6,110.1,283.8,110.7,283.8z"/>
			</g>
			<g>
				<path id="m40ca6162e5_00000122698899276577372960000010316386154388905097_" class="st1" d="M263,130.1c0.6,0,1.3-0.3,1.7-0.7
					c0.5-0.5,0.7-1.1,0.7-1.7s-0.3-1.3-0.7-1.7c-0.5-0.5-1.1-0.7-1.7-0.7s-1.3,0.3-1.7,0.7c-0.5,0.5-0.7,1.1-0.7,1.7
					s0.3,1.3,0.7,1.7C261.7,129.9,262.3,130.1,263,130.1z"/>
			</g>
			<g>
				<path id="m40ca6162e5_00000104687643149978380330000012628744098426456216_" class="st1" d="M211,179.1c0.6,0,1.3-0.3,1.7-0.7
					c0.5-0.5,0.7-1.1,0.7-1.7s-0.3-1.3-0.7-1.7c-0.5-0.5-1.1-0.7-1.7-0.7s-1.3,0.3-1.7,0.7c-0.5,0.5-0.7,1.1-0.7,1.7
					s0.3,1.3,0.7,1.7C209.8,178.8,210.4,179.1,211,179.1z"/>
			</g>
			<g>
				<path id="m40ca6162e5_00000025412113972623428220000017986194348833156797_" class="st1" d="M345.9,43.2c0.6,0,1.3-0.3,1.7-0.7
					c0.5-0.5,0.7-1.1,0.7-1.7s-0.3-1.3-0.7-1.7c-0.5-0.5-1.1-0.7-1.7-0.7s-1.3,0.3-1.7,0.7c-0.5,0.5-0.7,1.1-0.7,1.7
					s0.3,1.3,0.7,1.7C344.6,43,345.2,43.2,345.9,43.2z"/>
			</g>
			<g>
				<path id="m40ca6162e5_00000109013488108217381510000016682590357992860560_" class="st1" d="M193,203.7c0.6,0,1.3-0.3,1.7-0.7
					c0.5-0.5,0.7-1.1,0.7-1.7s-0.3-1.3-0.7-1.7c-0.5-0.5-1.1-0.7-1.7-0.7s-1.3,0.3-1.7,0.7c-0.5,0.5-0.7,1.1-0.7,1.7
					s0.3,1.3,0.7,1.7C191.7,203.4,192.3,203.7,193,203.7z"/>
			</g>
			<g>
				<path id="m40ca6162e5_00000183208989840387957870000010072656384276925878_" class="st1" d="M291.7,100.4c0.6,0,1.3-0.3,1.7-0.7
					c0.5-0.5,0.7-1.1,0.7-1.7s-0.3-1.3-0.7-1.7c-0.5-0.5-1.1-0.7-1.7-0.7s-1.3,0.3-1.7,0.7c-0.5,0.5-0.7,1.1-0.7,1.7
					s0.3,1.3,0.7,1.7C290.4,100.1,291,100.4,291.7,100.4z"/>
			</g>
			<g>
				<path id="m40ca6162e5_00000090268205120058860870000013569981680973959075_" class="st1" d="M254.1,139.5c0.6,0,1.3-0.3,1.7-0.7
					c0.5-0.5,0.7-1.1,0.7-1.7s-0.3-1.3-0.7-1.7c-0.5-0.5-1.1-0.7-1.7-0.7s-1.3,0.3-1.7,0.7c-0.5,0.5-0.7,1.1-0.7,1.7
					s0.3,1.3,0.7,1.7C252.9,139.2,253.5,139.5,254.1,139.5z"/>
			</g>
			<g>
				<path id="m40ca6162e5_00000102504818101990220960000007340428807444330399_" class="st1" d="M165.8,228.4c0.6,0,1.3-0.3,1.7-0.7
					c0.5-0.5,0.7-1.1,0.7-1.7s-0.3-1.3-0.7-1.7c-0.5-0.5-1.1-0.7-1.7-0.7s-1.3,0.3-1.7,0.7c-0.5,0.5-0.7,1.1-0.7,1.7
					s0.3,1.3,0.7,1.7C164.6,228.1,165.2,228.4,165.8,228.4z"/>
			</g>
			<g>
				<path id="m40ca6162e5_00000083774481566131909210000007309797920097371838_" class="st1" d="M235.6,156.8c0.6,0,1.3-0.3,1.7-0.7
					c0.5-0.5,0.7-1.1,0.7-1.7s-0.3-1.3-0.7-1.7c-0.5-0.5-1.1-0.7-1.7-0.7s-1.3,0.3-1.7,0.7c-0.5,0.5-0.7,1.1-0.7,1.7
					s0.3,1.3,0.7,1.7C234.3,156.5,234.9,156.8,235.6,156.8z"/>
			</g>
			<g>
				<path id="m40ca6162e5_00000085236129405513892080000006927915889611906743_" class="st1" d="M345.2,47.9c0.6,0,1.3-0.3,1.7-0.7
					c0.5-0.5,0.7-1.1,0.7-1.7s-0.3-1.3-0.7-1.7c-0.5-0.5-1.1-0.7-1.7-0.7s-1.3,0.3-1.7,0.7c-0.5,0.5-0.7,1.1-0.7,1.7
					s0.3,1.3,0.7,1.7C343.9,47.6,344.5,47.9,345.2,47.9z"/>
			</g>
			<g>
				<path id="m40ca6162e5_00000071536344813902896710000006117575293843991724_" class="st1" d="M195.1,191.5c0.6,0,1.3-0.3,1.7-0.7
					c0.5-0.5,0.7-1.1,0.7-1.7s-0.3-1.3-0.7-1.7c-0.5-0.5-1.1-0.7-1.7-0.7s-1.3,0.3-1.7,0.7c-0.5,0.5-0.7,1.1-0.7,1.7
					s0.3,1.3,0.7,1.7C193.8,191.2,194.4,191.5,195.1,191.5z"/>
			</g>
			<g>
				<path id="m40ca6162e5_00000088113285845448839670000003244623414889509008_" class="st1" d="M312,100.4c0.6,0,1.3-0.3,1.7-0.7
					c0.5-0.5,0.7-1.1,0.7-1.7s-0.3-1.3-0.7-1.7c-0.5-0.5-1.1-0.7-1.7-0.7s-1.3,0.3-1.7,0.7c-0.5,0.5-0.7,1.1-0.7,1.7
					s0.3,1.3,0.7,1.7C310.7,100.1,311.3,100.4,312,100.4z"/>
			</g>
			<g>
				<path id="m40ca6162e5_00000142854407982248967050000016274303132797333120_" class="st1" d="M189.6,208.2c0.6,0,1.3-0.3,1.7-0.7
					c0.5-0.5,0.7-1.1,0.7-1.7s-0.3-1.3-0.7-1.7c-0.5-0.5-1.1-0.7-1.7-0.7s-1.3,0.3-1.7,0.7c-0.5,0.5-0.7,1.1-0.7,1.7
					s0.3,1.3,0.7,1.7C188.3,207.9,189,208.2,189.6,208.2z"/>
			</g>
			<g>
				<path id="m40ca6162e5_00000162351403922930320380000000379581504754589337_" class="st1" d="M132.8,261.2c0.6,0,1.3-0.3,1.7-0.7
					c0.5-0.5,0.7-1.1,0.7-1.7c0-0.6-0.3-1.3-0.7-1.7c-0.5-0.5-1.1-0.7-1.7-0.7s-1.3,0.3-1.7,0.7c-0.5,0.5-0.7,1.1-0.7,1.7
					c0,0.6,0.3,1.3,0.7,1.7C131.5,261,132.2,261.2,132.8,261.2z"/>
			</g>
			<g>
				<path id="m40ca6162e5_00000096037860524521642240000002737915114324972220_" class="st1" d="M322.3,68.3c0.6,0,1.3-0.3,1.7-0.7
					c0.5-0.5,0.7-1.1,0.7-1.7s-0.3-1.3-0.7-1.7c-0.5-0.5-1.1-0.7-1.7-0.7s-1.3,0.3-1.7,0.7c-0.5,0.5-0.7,1.1-0.7,1.7
					s0.3,1.3,0.7,1.7C321,68.1,321.6,68.3,322.3,68.3z"/>
			</g>
			<g>
				<path id="m40ca6162e5_00000181788077023977843710000006283524770965871284_" class="st1" d="M231.7,164.4c0.6,0,1.3-0.3,1.7-0.7
					c0.5-0.5,0.7-1.1,0.7-1.7s-0.3-1.3-0.7-1.7c-0.5-0.5-1.1-0.7-1.7-0.7s-1.3,0.3-1.7,0.7c-0.5,0.5-0.7,1.1-0.7,1.7
					s0.3,1.3,0.7,1.7C230.5,164.1,231.1,164.4,231.7,164.4z"/>
			</g>
			<g>
				<path id="m40ca6162e5_00000175305330075750481890000011607014176990787982_" class="st1" d="M308.9,91.6c0.6,0,1.3-0.3,1.7-0.7
					c0.5-0.5,0.7-1.1,0.7-1.7s-0.3-1.3-0.7-1.7c-0.5-0.5-1.1-0.7-1.7-0.7s-1.3,0.3-1.7,0.7c-0.5,0.5-0.7,1.1-0.7,1.7
					s0.3,1.3,0.7,1.7C307.6,91.3,308.2,91.6,308.9,91.6z"/>
			</g>
			<g>
				<path id="m40ca6162e5_00000019648105162773906270000001131909178520934532_" class="st1" d="M117.4,278.6c0.6,0,1.3-0.3,1.7-0.7
					c0.5-0.5,0.7-1.1,0.7-1.7c0-0.6-0.3-1.3-0.7-1.7c-0.5-0.5-1.1-0.7-1.7-0.7s-1.3,0.3-1.7,0.7c-0.5,0.5-0.7,1.1-0.7,1.7
					c0,0.6,0.3,1.3,0.7,1.7C116.2,278.4,116.8,278.6,117.4,278.6z"/>
			</g>
			<g>
				<path id="m40ca6162e5_00000080196873580834441580000011550108762132832390_" class="st1" d="M230.3,167.1c0.6,0,1.3-0.3,1.7-0.7
					c0.5-0.5,0.7-1.1,0.7-1.7s-0.3-1.3-0.7-1.7c-0.5-0.5-1.1-0.7-1.7-0.7s-1.3,0.3-1.7,0.7c-0.5,0.5-0.7,1.1-0.7,1.7
					s0.3,1.3,0.7,1.7C229,166.8,229.6,167.1,230.3,167.1z"/>
			</g>
			<g>
				<path id="m40ca6162e5_00000179614103710369730420000000153500116428290231_" class="st1" d="M344.8,43.2c0.6,0,1.3-0.3,1.7-0.7
					c0.5-0.5,0.7-1.1,0.7-1.7s-0.3-1.3-0.7-1.7c-0.5-0.5-1.1-0.7-1.7-0.7s-1.3,0.3-1.7,0.7c-0.5,0.5-0.7,1.1-0.7,1.7
					s0.3,1.3,0.7,1.7C343.6,43,344.2,43.2,344.8,43.2z"/>
			</g>
			<g>
				<path id="m40ca6162e5_00000107575169928997605460000000128217407556914608_" class="st1" d="M258.4,138.3c0.6,0,1.3-0.3,1.7-0.7
					c0.5-0.5,0.7-1.1,0.7-1.7s-0.3-1.3-0.7-1.7c-0.5-0.5-1.1-0.7-1.7-0.7s-1.3,0.3-1.7,0.7c-0.5,0.5-0.7,1.1-0.7,1.7
					s0.3,1.3,0.7,1.7C257.1,138.1,257.7,138.3,258.4,138.3z"/>
			</g>
			<g>
				<path id="m40ca6162e5_00000101064199970882486910000016786170649753964476_" class="st1" d="M343.6,49.8c0.6,0,1.3-0.3,1.7-0.7
					c0.5-0.5,0.7-1.1,0.7-1.7s-0.3-1.3-0.7-1.7c-0.5-0.5-1.1-0.7-1.7-0.7s-1.3,0.3-1.7,0.7c-0.5,0.5-0.7,1.1-0.7,1.7
					s0.3,1.3,0.7,1.7C342.4,49.5,343,49.8,343.6,49.8z"/>
			</g>
			<g>
				<path id="m40ca6162e5_00000148626083938546041960000003808657703123368327_" class="st1" d="M224.3,172.8c0.6,0,1.3-0.3,1.7-0.7
					c0.5-0.5,0.7-1.1,0.7-1.7s-0.3-1.3-0.7-1.7c-0.5-0.5-1.1-0.7-1.7-0.7s-1.3,0.3-1.7,0.7c-0.5,0.5-0.7,1.1-0.7,1.7
					s0.3,1.3,0.7,1.7C223,172.5,223.6,172.8,224.3,172.8z"/>
			</g>
			<g>
				<path id="m40ca6162e5_00000138534457533934482700000015708188896067634084_" class="st1" d="M326.6,59.1c0.6,0,1.3-0.3,1.7-0.7
					c0.5-0.5,0.7-1.1,0.7-1.7s-0.3-1.3-0.7-1.7c-0.5-0.5-1.1-0.7-1.7-0.7s-1.3,0.3-1.7,0.7c-0.5,0.5-0.7,1.1-0.7,1.7
					s0.3,1.3,0.7,1.7C325.3,58.9,325.9,59.1,326.6,59.1z"/>
			</g>
			<g>
				<path id="m40ca6162e5_00000145742597584169917070000002545573048392225157_" class="st1" d="M190.6,203.2c0.6,0,1.3-0.3,1.7-0.7
					c0.5-0.5,0.7-1.1,0.7-1.7s-0.3-1.3-0.7-1.7c-0.5-0.5-1.1-0.7-1.7-0.7s-1.3,0.3-1.7,0.7c-0.5,0.5-0.7,1.1-0.7,1.7
					s0.3,1.3,0.7,1.7C189.3,203,189.9,203.2,190.6,203.2z"/>
			</g>
			<g>
				<path id="m40ca6162e5_00000013893858570736711280000015374487732033140139_" class="st1" d="M288.3,102.8c0.6,0,1.3-0.3,1.7-0.7
					c0.5-0.5,0.7-1.1,0.7-1.7s-0.3-1.3-0.7-1.7c-0.5-0.5-1.1-0.7-1.7-0.7s-1.3,0.3-1.7,0.7c-0.5,0.5-0.7,1.1-0.7,1.7
					s0.3,1.3,0.7,1.7C287,102.5,287.6,102.8,288.3,102.8z"/>
			</g>
			<g>
				<path id="m40ca6162e5_00000050642003662057097230000013245224294967875732_" class="st1" d="M299.4,82.3c0.6,0,1.3-0.3,1.7-0.7
					c0.5-0.5,0.7-1.1,0.7-1.7s-0.3-1.3-0.7-1.7c-0.5-0.5-1.1-0.7-1.7-0.7s-1.3,0.3-1.7,0.7c-0.5,0.5-0.7,1.1-0.7,1.7
					s0.3,1.3,0.7,1.7C298.1,82.1,298.7,82.3,299.4,82.3z"/>
			</g>
			<g>
				<path id="m40ca6162e5_00000031917563280022372050000001944716120784412562_" class="st1" d="M306.4,95.3c0.6,0,1.3-0.3,1.7-0.7
					c0.5-0.5,0.7-1.1,0.7-1.7s-0.3-1.3-0.7-1.7c-0.5-0.5-1.1-0.7-1.7-0.7s-1.3,0.3-1.7,0.7c-0.5,0.5-0.7,1.1-0.7,1.7
					s0.3,1.3,0.7,1.7C305.2,95.1,305.8,95.3,306.4,95.3z"/>
			</g>
			<g>
				<path id="m40ca6162e5_00000087393749941393317750000016135784007024643768_" class="st1" d="M232,165.8c0.6,0,1.3-0.3,1.7-0.7
					c0.5-0.5,0.7-1.1,0.7-1.7s-0.3-1.3-0.7-1.7c-0.5-0.5-1.1-0.7-1.7-0.7s-1.3,0.3-1.7,0.7c-0.5,0.5-0.7,1.1-0.7,1.7
					s0.3,1.3,0.7,1.7C230.7,165.6,231.4,165.8,232,165.8z"/>
			</g>
			<g>
				<path id="m40ca6162e5_00000091723008477227654300000007064026860574391706_" class="st1" d="M202.5,191.5c0.6,0,1.3-0.3,1.7-0.7
					c0.5-0.5,0.7-1.1,0.7-1.7s-0.3-1.3-0.7-1.7c-0.5-0.5-1.1-0.7-1.7-0.7s-1.3,0.3-1.7,0.7c-0.5,0.5-0.7,1.1-0.7,1.7
					s0.3,1.3,0.7,1.7C201.2,191.2,201.8,191.5,202.5,191.5z"/>
			</g>
			<g>
				<path id="m40ca6162e5_00000017495761743428118730000000198833597620016526_" class="st1" d="M253.5,140.7c0.6,0,1.3-0.3,1.7-0.7
					c0.5-0.5,0.7-1.1,0.7-1.7s-0.3-1.3-0.7-1.7c-0.5-0.5-1.1-0.7-1.7-0.7s-1.3,0.3-1.7,0.7c-0.5,0.5-0.7,1.1-0.7,1.7
					s0.3,1.3,0.7,1.7C252.2,140.4,252.9,140.7,253.5,140.7z"/>
			</g>
			<g>
				<path id="m40ca6162e5_00000006666097730567100780000010636112314234483386_" class="st1" d="M219.6,175.7c0.6,0,1.3-0.3,1.7-0.7
					c0.5-0.5,0.7-1.1,0.7-1.7s-0.3-1.3-0.7-1.7c-0.5-0.5-1.1-0.7-1.7-0.7s-1.3,0.3-1.7,0.7c-0.5,0.5-0.7,1.1-0.7,1.7
					s0.3,1.3,0.7,1.7C218.3,175.5,218.9,175.7,219.6,175.7z"/>
			</g>
			<g>
				<path id="m40ca6162e5_00000005959309770018576810000011646887847507453102_" class="st1" d="M164.8,227.2c0.6,0,1.3-0.3,1.7-0.7
					c0.5-0.5,0.7-1.1,0.7-1.7s-0.3-1.3-0.7-1.7c-0.5-0.5-1.1-0.7-1.7-0.7s-1.3,0.3-1.7,0.7c-0.5,0.5-0.7,1.1-0.7,1.7
					s0.3,1.3,0.7,1.7C163.5,226.9,164.1,227.2,164.8,227.2z"/>
			</g>
			<g>
				<path id="m40ca6162e5_00000124870822114224023810000013635448976043251118_" class="st1" d="M333.8,67.5c0.6,0,1.3-0.3,1.7-0.7
					c0.5-0.5,0.7-1.1,0.7-1.7s-0.3-1.3-0.7-1.7c-0.5-0.5-1.1-0.7-1.7-0.7s-1.3,0.3-1.7,0.7c-0.5,0.5-0.7,1.1-0.7,1.7
					s0.3,1.3,0.7,1.7C332.6,67.3,333.2,67.5,333.8,67.5z"/>
			</g>
			<g>
				<path id="m40ca6162e5_00000086673491974268485880000009074099752075302817_" class="st1" d="M245.7,149.2c0.6,0,1.3-0.3,1.7-0.7
					c0.5-0.5,0.7-1.1,0.7-1.7s-0.3-1.3-0.7-1.7c-0.5-0.5-1.1-0.7-1.7-0.7s-1.3,0.3-1.7,0.7c-0.5,0.5-0.7,1.1-0.7,1.7
					s0.3,1.3,0.7,1.7C244.4,149,245.1,149.2,245.7,149.2z"/>
			</g>
			<g>
				<path id="m40ca6162e5_00000011732415786329975350000010525006239249370808_" class="st1" d="M120.1,274.8c0.6,0,1.3-0.3,1.7-0.7
					c0.5-0.5,0.7-1.1,0.7-1.7c0-0.6-0.3-1.3-0.7-1.7c-0.5-0.5-1.1-0.7-1.7-0.7s-1.3,0.3-1.7,0.7c-0.5,0.5-0.7,1.1-0.7,1.7
					c0,0.6,0.3,1.3,0.7,1.7C118.8,274.5,119.4,274.8,120.1,274.8z"/>
			</g>
			<g>
				<path id="m40ca6162e5_00000106113031864177200570000005738603722834193332_" class="st1" d="M226.2,162c0.6,0,1.3-0.3,1.7-0.7
					c0.5-0.5,0.7-1.1,0.7-1.7s-0.3-1.3-0.7-1.7c-0.5-0.5-1.1-0.7-1.7-0.7s-1.3,0.3-1.7,0.7c-0.5,0.5-0.7,1.1-0.7,1.7
					s0.3,1.3,0.7,1.7C224.9,161.7,225.5,162,226.2,162z"/>
			</g>
			<g>
				<path id="m40ca6162e5_00000079479187992884129230000016590469785697968781_" class="st1" d="M303.1,98.3c0.6,0,1.3-0.3,1.7-0.7
					c0.5-0.5,0.7-1.1,0.7-1.7s-0.3-1.3-0.7-1.7c-0.5-0.5-1.1-0.7-1.7-0.7s-1.3,0.3-1.7,0.7c-0.5,0.5-0.7,1.1-0.7,1.7
					s0.3,1.3,0.7,1.7C301.8,98.1,302.4,98.3,303.1,98.3z"/>
			</g>
			<g>
				<path id="m40ca6162e5_00000077306142611403041810000000571391865803897507_" class="st1" d="M346.1,43.2c0.6,0,1.3-0.3,1.7-0.7
					c0.5-0.5,0.7-1.1,0.7-1.7s-0.3-1.3-0.7-1.7c-0.5-0.5-1.1-0.7-1.7-0.7s-1.3,0.3-1.7,0.7c-0.5,0.5-0.7,1.1-0.7,1.7
					s0.3,1.3,0.7,1.7C344.9,43,345.5,43.2,346.1,43.2z"/>
			</g>
			<g>
				<path id="m40ca6162e5_00000047042384326206357730000006562904437940580782_" class="st1" d="M240.4,149.4c0.6,0,1.3-0.3,1.7-0.7
					c0.5-0.5,0.7-1.1,0.7-1.7s-0.3-1.3-0.7-1.7c-0.5-0.5-1.1-0.7-1.7-0.7s-1.3,0.3-1.7,0.7c-0.5,0.5-0.7,1.1-0.7,1.7
					s0.3,1.3,0.7,1.7C239.1,149.1,239.8,149.4,240.4,149.4z"/>
			</g>
			<g>
				<path id="m40ca6162e5_00000038412460781622905030000007631586655730512516_" class="st1" d="M349.5,47.7c0.6,0,1.3-0.3,1.7-0.7
					c0.5-0.5,0.7-1.1,0.7-1.7s-0.3-1.3-0.7-1.7c-0.5-0.5-1.1-0.7-1.7-0.7s-1.3,0.3-1.7,0.7c-0.5,0.5-0.7,1.1-0.7,1.7
					s0.3,1.3,0.7,1.7C348.2,47.4,348.8,47.7,349.5,47.7z"/>
			</g>
			<g>
				<path id="m40ca6162e5_00000060018697289053279560000010333857192927628688_" class="st1" d="M330.1,67.4c0.6,0,1.3-0.3,1.7-0.7
					c0.5-0.5,0.7-1.1,0.7-1.7s-0.3-1.3-0.7-1.7c-0.5-0.5-1.1-0.7-1.7-0.7s-1.3,0.3-1.7,0.7c-0.5,0.5-0.7,1.1-0.7,1.7
					s0.3,1.3,0.7,1.7C328.9,67.1,329.5,67.4,330.1,67.4z"/>
			</g>
			<g>
				<path id="m40ca6162e5_00000070807909811270368980000002546978566687244685_" class="st1" d="M342.5,57.6c0.6,0,1.3-0.3,1.7-0.7
					c0.5-0.5,0.7-1.1,0.7-1.7s-0.3-1.3-0.7-1.7c-0.5-0.5-1.1-0.7-1.7-0.7s-1.3,0.3-1.7,0.7c-0.5,0.5-0.7,1.1-0.7,1.7
					s0.3,1.3,0.7,1.7C341.2,57.3,341.8,57.6,342.5,57.6z"/>
			</g>
			<g>
				<path id="m40ca6162e5_00000031922844609209488790000017127833081244141697_" class="st1" d="M117.5,277c0.6,0,1.3-0.3,1.7-0.7
					c0.5-0.5,0.7-1.1,0.7-1.7c0-0.6-0.3-1.3-0.7-1.7c-0.5-0.5-1.1-0.7-1.7-0.7s-1.3,0.3-1.7,0.7c-0.5,0.5-0.7,1.1-0.7,1.7
					c0,0.6,0.3,1.3,0.7,1.7C116.2,276.8,116.8,277,117.5,277z"/>
			</g>
			<g>
				<path id="m40ca6162e5_00000053504556428991108080000001972047771787040957_" class="st1" d="M337.8,54.4c0.6,0,1.3-0.3,1.7-0.7
					c0.5-0.5,0.7-1.1,0.7-1.7s-0.3-1.3-0.7-1.7c-0.5-0.5-1.1-0.7-1.7-0.7s-1.3,0.3-1.7,0.7c-0.5,0.5-0.7,1.1-0.7,1.7
					s0.3,1.3,0.7,1.7C336.5,54.1,337.2,54.4,337.8,54.4z"/>
			</g>
			<g>
				<path id="m40ca6162e5_00000067934875586155717360000001369317653275341970_" class="st1" d="M238.8,152.7c0.6,0,1.3-0.3,1.7-0.7
					c0.5-0.5,0.7-1.1,0.7-1.7s-0.3-1.3-0.7-1.7c-0.5-0.5-1.1-0.7-1.7-0.7s-1.3,0.3-1.7,0.7c-0.5,0.5-0.7,1.1-0.7,1.7
					s0.3,1.3,0.7,1.7C237.5,152.4,238.1,152.7,238.8,152.7z"/>
			</g>
			<g>
				<path id="m40ca6162e5_00000040566596413839658000000002565527768389627301_" class="st1" d="M239.2,154.3c0.6,0,1.3-0.3,1.7-0.7
					c0.5-0.5,0.7-1.1,0.7-1.7s-0.3-1.3-0.7-1.7c-0.5-0.5-1.1-0.7-1.7-0.7s-1.3,0.3-1.7,0.7c-0.5,0.5-0.7,1.1-0.7,1.7
					s0.3,1.3,0.7,1.7C238,154.1,238.6,154.3,239.2,154.3z"/>
			</g>
			<g>
				<path id="m40ca6162e5_00000088821864002966552940000001874388612868699267_" class="st1" d="M187.7,212.4c0.6,0,1.3-0.3,1.7-0.7
					c0.5-0.5,0.7-1.1,0.7-1.7s-0.3-1.3-0.7-1.7c-0.5-0.5-1.1-0.7-1.7-0.7s-1.3,0.3-1.7,0.7c-0.5,0.5-0.7,1.1-0.7,1.7
					s0.3,1.3,0.7,1.7C186.4,212.1,187.1,212.4,187.7,212.4z"/>
			</g>
			<g>
				<path id="m40ca6162e5_00000139273452865365574300000006359617920354776749_" class="st1" d="M161.1,231.2c0.6,0,1.3-0.3,1.7-0.7
					c0.5-0.5,0.7-1.1,0.7-1.7s-0.3-1.3-0.7-1.7c-0.5-0.5-1.1-0.7-1.7-0.7s-1.3,0.3-1.7,0.7c-0.5,0.5-0.7,1.1-0.7,1.7
					s0.3,1.3,0.7,1.7C159.8,230.9,160.5,231.2,161.1,231.2z"/>
			</g>
			<g>
				<path id="m40ca6162e5_00000082364419045088838810000013646995629773073335_" class="st1" d="M263.2,132.1c0.6,0,1.3-0.3,1.7-0.7
					c0.5-0.5,0.7-1.1,0.7-1.7s-0.3-1.3-0.7-1.7c-0.5-0.5-1.1-0.7-1.7-0.7s-1.3,0.3-1.7,0.7c-0.5,0.5-0.7,1.1-0.7,1.7
					s0.3,1.3,0.7,1.7C261.9,131.9,262.6,132.1,263.2,132.1z"/>
			</g>
			<g>
				<path id="m40ca6162e5_00000000191504905015221300000003662201009204946831_" class="st1" d="M232.5,165.3c0.6,0,1.3-0.3,1.7-0.7
					c0.5-0.5,0.7-1.1,0.7-1.7s-0.3-1.3-0.7-1.7c-0.5-0.5-1.1-0.7-1.7-0.7s-1.3,0.3-1.7,0.7c-0.5,0.5-0.7,1.1-0.7,1.7
					s0.3,1.3,0.7,1.7C231.2,165,231.9,165.3,232.5,165.3z"/>
			</g>
			<g>
				<path id="m40ca6162e5_00000072981601243459180420000009517467888436882078_" class="st1" d="M222.2,170.2c0.6,0,1.3-0.3,1.7-0.7
					c0.5-0.5,0.7-1.1,0.7-1.7s-0.3-1.3-0.7-1.7c-0.5-0.5-1.1-0.7-1.7-0.7s-1.3,0.3-1.7,0.7c-0.5,0.5-0.7,1.1-0.7,1.7
					s0.3,1.3,0.7,1.7C220.9,169.9,221.5,170.2,222.2,170.2z"/>
			</g>
			<g>
				<path id="m40ca6162e5_00000044879100296547831330000009262447976067346073_" class="st1" d="M266.2,131.4c0.6,0,1.3-0.3,1.7-0.7
					c0.5-0.5,0.7-1.1,0.7-1.7s-0.3-1.3-0.7-1.7c-0.5-0.5-1.1-0.7-1.7-0.7s-1.3,0.3-1.7,0.7c-0.5,0.5-0.7,1.1-0.7,1.7
					s0.3,1.3,0.7,1.7C264.9,131.1,265.6,131.4,266.2,131.4z"/>
			</g>
			<g>
				<path id="m40ca6162e5_00000089559688454649276000000006880449091651980161_" class="st1" d="M142.6,249.2c0.6,0,1.3-0.3,1.7-0.7
					c0.5-0.5,0.7-1.1,0.7-1.7s-0.3-1.3-0.7-1.7c-0.5-0.5-1.1-0.7-1.7-0.7s-1.3,0.3-1.7,0.7c-0.5,0.5-0.7,1.1-0.7,1.7
					s0.3,1.3,0.7,1.7C141.4,248.9,142,249.2,142.6,249.2z"/>
			</g>
			<g>
				<path id="m40ca6162e5_00000093147129850773162270000014602230630050541970_" class="st1" d="M336.4,58.1c0.6,0,1.3-0.3,1.7-0.7
					c0.5-0.5,0.7-1.1,0.7-1.7s-0.3-1.3-0.7-1.7c-0.5-0.5-1.1-0.7-1.7-0.7s-1.3,0.3-1.7,0.7c-0.5,0.5-0.7,1.1-0.7,1.7
					s0.3,1.3,0.7,1.7C335.1,57.9,335.7,58.1,336.4,58.1z"/>
			</g>
			<g>
				<path id="m40ca6162e5_00000067233733892387988920000000512791439549117075_" class="st1" d="M261.3,124.3c0.6,0,1.3-0.3,1.7-0.7
					c0.5-0.5,0.7-1.1,0.7-1.7s-0.3-1.3-0.7-1.7c-0.5-0.5-1.1-0.7-1.7-0.7s-1.3,0.3-1.7,0.7c-0.5,0.5-0.7,1.1-0.7,1.7
					s0.3,1.3,0.7,1.7C260.1,124,260.7,124.3,261.3,124.3z"/>
			</g>
			<g>
				<path id="m40ca6162e5_00000035501479751437242640000011596097932516912817_" class="st1" d="M302.9,89c0.6,0,1.3-0.3,1.7-0.7
					c0.5-0.5,0.7-1.1,0.7-1.7s-0.3-1.3-0.7-1.7c-0.5-0.5-1.1-0.7-1.7-0.7s-1.3,0.3-1.7,0.7c-0.5,0.5-0.7,1.1-0.7,1.7
					s0.3,1.3,0.7,1.7C301.6,88.7,302.2,89,302.9,89z"/>
			</g>
			<g>
				<path id="m40ca6162e5_00000084528478402543029730000002775619203118313865_" class="st1" d="M312.2,82.8c0.6,0,1.3-0.3,1.7-0.7
					c0.5-0.5,0.7-1.1,0.7-1.7s-0.3-1.3-0.7-1.7c-0.5-0.5-1.1-0.7-1.7-0.7s-1.3,0.3-1.7,0.7c-0.5,0.5-0.7,1.1-0.7,1.7
					s0.3,1.3,0.7,1.7C310.9,82.5,311.5,82.8,312.2,82.8z"/>
			</g>
			<g>
				<path id="m40ca6162e5_00000142868505304923433280000009861638934749285008_" class="st1" d="M344.2,71.5c0.6,0,1.3-0.3,1.7-0.7
					c0.5-0.5,0.7-1.1,0.7-1.7s-0.3-1.3-0.7-1.7c-0.5-0.5-1.1-0.7-1.7-0.7s-1.3,0.3-1.7,0.7c-0.5,0.5-0.7,1.1-0.7,1.7
					s0.3,1.3,0.7,1.7C342.9,71.2,343.5,71.5,344.2,71.5z"/>
			</g>
			<g>
				<path id="m40ca6162e5_00000036945647104698984440000004451846254474373274_" class="st1" d="M250.2,151.8c0.6,0,1.3-0.3,1.7-0.7
					c0.5-0.5,0.7-1.1,0.7-1.7s-0.3-1.3-0.7-1.7c-0.5-0.5-1.1-0.7-1.7-0.7s-1.3,0.3-1.7,0.7c-0.5,0.5-0.7,1.1-0.7,1.7
					s0.3,1.3,0.7,1.7C249,151.5,249.6,151.8,250.2,151.8z"/>
			</g>
			<g>
				<path id="m40ca6162e5_00000163792176848088059150000002516134573023293317_" class="st1" d="M264.1,131c0.6,0,1.3-0.3,1.7-0.7
					c0.5-0.5,0.7-1.1,0.7-1.7s-0.3-1.3-0.7-1.7c-0.5-0.5-1.1-0.7-1.7-0.7s-1.3,0.3-1.7,0.7c-0.5,0.5-0.7,1.1-0.7,1.7
					s0.3,1.3,0.7,1.7C262.8,130.7,263.4,131,264.1,131z"/>
			</g>
			<g>
				<path id="m40ca6162e5_00000083047583599314486130000005514168609930593723_" class="st1" d="M255.4,141.6c0.6,0,1.3-0.3,1.7-0.7
					c0.5-0.5,0.7-1.1,0.7-1.7s-0.3-1.3-0.7-1.7c-0.5-0.5-1.1-0.7-1.7-0.7s-1.3,0.3-1.7,0.7c-0.5,0.5-0.7,1.1-0.7,1.7
					s0.3,1.3,0.7,1.7C254.1,141.4,254.7,141.6,255.4,141.6z"/>
			</g>
			<g>
				<path id="m40ca6162e5_00000051380606965154260580000010087055242128051335_" class="st1" d="M290.2,119.3c0.6,0,1.3-0.3,1.7-0.7
					c0.5-0.5,0.7-1.1,0.7-1.7s-0.3-1.3-0.7-1.7c-0.5-0.5-1.1-0.7-1.7-0.7s-1.3,0.3-1.7,0.7c-0.5,0.5-0.7,1.1-0.7,1.7
					s0.3,1.3,0.7,1.7C288.9,119,289.6,119.3,290.2,119.3z"/>
			</g>
			<g>
				<path id="m40ca6162e5_00000020373046666216586910000005982931778163149463_" class="st1" d="M348.8,43.2c0.6,0,1.3-0.3,1.7-0.7
					c0.5-0.5,0.7-1.1,0.7-1.7s-0.3-1.3-0.7-1.7c-0.5-0.5-1.1-0.7-1.7-0.7s-1.3,0.3-1.7,0.7c-0.5,0.5-0.7,1.1-0.7,1.7
					s0.3,1.3,0.7,1.7C347.6,43,348.2,43.2,348.8,43.2z"/>
			</g>
			<g>
				<path id="m40ca6162e5_00000027583626421730069970000013700704304521283471_" class="st1" d="M138.5,255.4c0.6,0,1.3-0.3,1.7-0.7
					c0.5-0.5,0.7-1.1,0.7-1.7s-0.3-1.3-0.7-1.7c-0.5-0.5-1.1-0.7-1.7-0.7s-1.3,0.3-1.7,0.7c-0.5,0.5-0.7,1.1-0.7,1.7
					s0.3,1.3,0.7,1.7C137.2,255.2,137.8,255.4,138.5,255.4z"/>
			</g>
			<g>
				<path id="m40ca6162e5_00000118387459691447691840000011998574814496931464_" class="st1" d="M121.2,273.2c0.6,0,1.3-0.3,1.7-0.7
					c0.5-0.5,0.7-1.1,0.7-1.7c0-0.6-0.3-1.3-0.7-1.7c-0.5-0.5-1.1-0.7-1.7-0.7s-1.3,0.3-1.7,0.7c-0.5,0.5-0.7,1.1-0.7,1.7
					c0,0.6,0.3,1.3,0.7,1.7C119.9,272.9,120.5,273.2,121.2,273.2z"/>
			</g>
			<g>
				<path id="m40ca6162e5_00000044158773708925989840000004115252844708193426_" class="st1" d="M288.4,103.4c0.6,0,1.3-0.3,1.7-0.7
					c0.5-0.5,0.7-1.1,0.7-1.7s-0.3-1.3-0.7-1.7c-0.5-0.5-1.1-0.7-1.7-0.7s-1.3,0.3-1.7,0.7c-0.5,0.5-0.7,1.1-0.7,1.7
					s0.3,1.3,0.7,1.7C287.1,103.2,287.8,103.4,288.4,103.4z"/>
			</g>
			<g>
				<path id="m40ca6162e5_00000074414132219039403430000001021122972746109083_" class="st1" d="M336.8,93.3c0.6,0,1.3-0.3,1.7-0.7
					c0.5-0.5,0.7-1.1,0.7-1.7s-0.3-1.3-0.7-1.7c-0.5-0.5-1.1-0.7-1.7-0.7s-1.3,0.3-1.7,0.7c-0.5,0.5-0.7,1.1-0.7,1.7
					s0.3,1.3,0.7,1.7C335.6,93.1,336.2,93.3,336.8,93.3z"/>
			</g>
			<g>
				<path id="m40ca6162e5_00000122715734498043915910000008378678426077020564_" class="st1" d="M275.9,139.5c0.6,0,1.3-0.3,1.7-0.7
					c0.5-0.5,0.7-1.1,0.7-1.7s-0.3-1.3-0.7-1.7c-0.5-0.5-1.1-0.7-1.7-0.7s-1.3,0.3-1.7,0.7c-0.5,0.5-0.7,1.1-0.7,1.7
					s0.3,1.3,0.7,1.7C274.6,139.3,275.3,139.5,275.9,139.5z"/>
			</g>
			<g>
				<path id="m40ca6162e5_00000183932292698810973310000017572261406640964242_" class="st1" d="M115.6,278.9c0.6,0,1.3-0.3,1.7-0.7
					c0.5-0.5,0.7-1.1,0.7-1.7c0-0.6-0.3-1.3-0.7-1.7c-0.5-0.5-1.1-0.7-1.7-0.7s-1.3,0.3-1.7,0.7c-0.5,0.5-0.7,1.1-0.7,1.7
					c0,0.6,0.3,1.3,0.7,1.7C114.3,278.7,115,278.9,115.6,278.9z"/>
			</g>
		</g>
	</g>
</g>
<g id="matplotlib.axis_1">
	<g id="xtick_1">
		<g id="line2d_1">
			<g>
				<g>
					<path id="m57882c0cce" class="st2" d="M109.5,294.6v3.5"/>
				</g>
			</g>
		</g>
		<g id="text_1">
			<text transform="matrix(1 0 0 1 99.1356 312.2778)" class="st3 st4">0.0</text>
		</g>
	</g>
	<g id="xtick_2">
		<g id="line2d_2">
			<g>
				<g>
					<path id="m57882c0cce_00000085937280431890370410000001324039391103001008_" class="st2" d="M157.9,294.6v3.5"/>
				</g>
			</g>
		</g>
		<g id="text_2">
			<text transform="matrix(1 0 0 1 147.4919 312.2778)" class="st3 st4">0.1</text>
		</g>
	</g>
	<g id="xtick_3">
		<g id="line2d_3">
			<g>
				<g>
					<path id="m57882c0cce_00000145752771590729008730000001049073402632570516_" class="st2" d="M206.2,294.6v3.5"/>
				</g>
			</g>
		</g>
		<g id="text_3">
			<text transform="matrix(1 0 0 1 195.8483 312.2778)" class="st3 st4">0.2</text>
		</g>
	</g>
	<g id="xtick_4">
		<g id="line2d_4">
			<g>
				<g>
					<path id="m57882c0cce_00000058574458989205899750000006385486342823976336_" class="st2" d="M254.6,294.6v3.5"/>
				</g>
			</g>
		</g>
		<g id="text_4">
			<text transform="matrix(1 0 0 1 244.2047 312.2778)" class="st3 st4">0.3</text>
		</g>
	</g>
	<g id="xtick_5">
		<g id="line2d_5">
			<g>
				<g>
					<path id="m57882c0cce_00000078044984798773433230000008364524821718940333_" class="st2" d="M302.9,294.6v3.5"/>
				</g>
			</g>
		</g>
		<g id="text_5">
			<text transform="matrix(1 0 0 1 292.561 312.2778)" class="st3 st4">0.4</text>
		</g>
	</g>
	<g id="xtick_6">
		<g id="line2d_6">
			<g>
				<g>
					<path id="m57882c0cce_00000099623106170525845420000008379130697908151445_" class="st2" d="M351.3,294.6v3.5"/>
				</g>
			</g>
		</g>
		<g id="text_6">
			<text transform="matrix(1 0 0 1 340.9174 312.2778)" class="st3 st4">0.5</text>
		</g>
	</g>
	<g id="text_7">
		<text transform="matrix(1 0 0 1 193.8883 331.3469)" class="st3 st5">True FDR</text>
	</g>
</g>
<g id="matplotlib.axis_2">
	<g id="ytick_1">
		<g id="line2d_7">
			<g>
				<g>
					<path id="mb088fe9c5e" class="st2" d="M97.4,282.6h-3.5"/>
				</g>
			</g>
		</g>
		<g id="text_8">
			<text transform="matrix(1 0 0 1 69.6729 287.8698)" class="st3 st4">0.0</text>
		</g>
	</g>
	<g id="ytick_2">
		<g id="line2d_8">
			<g>
				<g>
					<path id="mb088fe9c5e_00000136394078833618688610000016409129642883737482_" class="st2" d="M97.4,234.2h-3.5"/>
				</g>
			</g>
		</g>
		<g id="text_9">
			<text transform="matrix(1 0 0 1 69.6729 239.5135)" class="st3 st4">0.1</text>
		</g>
	</g>
	<g id="ytick_3">
		<g id="line2d_9">
			<g>
				<g>
					<path id="mb088fe9c5e_00000157277024441167541320000009499189120764636296_" class="st2" d="M97.4,185.8h-3.5"/>
				</g>
			</g>
		</g>
		<g id="text_10">
			<text transform="matrix(1 0 0 1 69.6729 191.1571)" class="st3 st4">0.2</text>
		</g>
	</g>
	<g id="ytick_4">
		<g id="line2d_10">
			<g>
				<g>
					<path id="mb088fe9c5e_00000137089652261098837720000008718624597050210193_" class="st2" d="M97.4,137.5h-3.5"/>
				</g>
			</g>
		</g>
		<g id="text_11">
			<text transform="matrix(1 0 0 1 69.6729 142.8007)" class="st3 st4">0.3</text>
		</g>
	</g>
	<g id="ytick_5">
		<g id="line2d_11">
			<g>
				<g>
					<path id="mb088fe9c5e_00000155138027488057593910000017915191402398768827_" class="st2" d="M97.4,89.1h-3.5"/>
				</g>
			</g>
		</g>
		<g id="text_12">
			<text transform="matrix(1 0 0 1 69.6729 94.4444)" class="st3 st4">0.4</text>
		</g>
	</g>
	<g id="ytick_6">
		<g id="line2d_12">
			<g>
				<g>
					<path id="mb088fe9c5e_00000065785114339625694660000014626609110191232901_" class="st2" d="M97.4,40.8h-3.5"/>
				</g>
			</g>
		</g>
		<g id="text_13">
			<text transform="matrix(1 0 0 1 69.6729 46.088)" class="st3 st4">0.5</text>
		</g>
	</g>
	<g id="text_14">
		<text transform="matrix(6.123234e-17 -1 1 6.123234e-17 60.8281 216.5586)" class="st3 st5">Predicted FDR</text>
	</g>
</g>
<g id="line2d_13">
	<g>
		<defs>
			<rect id="SVGID_00000171705802437707292700000012501331024915060916_" x="97.4" y="28.7" width="266" height="266"/>
		</defs>
		<clipPath id="SVGID_00000081628967824430107550000018216945345139452838_">
			<use xlink:href="#SVGID_00000171705802437707292700000012501331024915060916_"  style="overflow:visible;"/>
		</clipPath>
		
			<path style="clip-path:url(#SVGID_00000081628967824430107550000018216945345139452838_);fill:none;stroke:#000000;stroke-width:2;stroke-linejoin:round;stroke-dasharray:7.4,3.2;" d="
			M109.5,282.6L351.3,40.8"/>
	</g>
</g>
<g id="line2d_14">
	<g>
		<defs>
			<rect id="SVGID_00000091001489522087237450000002610745817017340078_" x="97.4" y="28.7" width="266" height="266"/>
		</defs>
		<clipPath id="SVGID_00000147206997722056279760000012483233224215956659_">
			<use xlink:href="#SVGID_00000091001489522087237450000002610745817017340078_"  style="overflow:visible;"/>
		</clipPath>
		
			<path style="clip-path:url(#SVGID_00000147206997722056279760000012483233224215956659_);fill:none;stroke:#000000;stroke-width:2;stroke-linecap:square;stroke-linejoin:round;" d="
			M109.5,280.9l241.8-238"/>
	</g>
</g>
<g id="patch_3">
	<path class="st8" d="M97.4,294.6v-266"/>
</g>
<g id="patch_4">
	<path class="st8" d="M363.4,294.6v-266"/>
</g>
<g id="patch_5">
	<path class="st8" d="M97.4,294.6h266"/>
</g>
<g id="patch_6">
	<path class="st8" d="M97.4,28.7h266"/>
</g>
<g id="text_15">
	<g transform="translate(254.578182 234.194545)">
		<text transform="matrix(1 0 0 1 0 -0.5625)" class="st9 st5">R</text>
		<text transform="matrix(1 0 0 1 11.5547 -0.5625)" class="st9 st10"> </text>
		<text transform="matrix(1 0 0 1 12.2408 -6.6875)" class="st9 st11">2</text>
		<text transform="matrix(1 0 0 1 18.4697 -6.6875)" class="st9 st10"> </text>
		<text transform="matrix(1 0 0 1 19.8041 -0.5625)" class="st9 st5"> </text>
		<text transform="matrix(1 0 0 1 24.8901 -0.5625)" class="st9 st5">=</text>
		<text transform="matrix(1 0 0 1 38.2963 -0.5625)" class="st9 st5"> </text>
		<text transform="matrix(1 0 0 1 43.3823 -0.5625)" class="st9 st5">0</text>
		<text transform="matrix(1 0 0 1 53.562 -0.5625)" class="st9 st5">.</text>
		<text transform="matrix(1 0 0 1 58.6479 -0.5625)" class="st9 st5">9</text>
		<text transform="matrix(1 0 0 1 68.8276 -0.5625)" class="st9 st5">9</text>
	</g>
</g>
<g id="text_16">
	<text transform="matrix(1 0 0 1 128.3297 22.6801)" class="st3 st5">CV1_invgauss_05-08-2024</text>
</g>
</svg>
