<?xml version="1.0" encoding="utf-8"?>
<!-- Generator: Adobe Illustrator 28.0.0, SVG Export Plug-In . SVG Version: 6.00 Build 0)  -->
<svg version="1.1" id="Layer_1" xmlns="http://www.w3.org/2000/svg" xmlns:xlink="http://www.w3.org/1999/xlink" x="0px" y="0px"
	 viewBox="0 0 460.8 345.6" style="enable-background:new 0 0 460.8 345.6;" xml:space="preserve">
<style type="text/css">
	.st0{clip-path:url(#SVGID_00000042717695137974566540000011826249248164261047_);}
	.st1{fill:#0000FF;stroke:#0000FF;stroke-linejoin:round;}
	.st2{stroke:#000000;stroke-width:0.8;stroke-linejoin:round;}
	.st3{font-family:'LucidaBright';}
	.st4{font-size:14px;}
	.st5{font-size:16px;}
	
		.st6{clip-path:url(#SVGID_00000101811896743582469910000000884560212689384873_);fill:none;stroke:#000000;stroke-width:2;stroke-linejoin:round;stroke-dasharray:7.4,3.2;}
	
		.st7{clip-path:url(#SVGID_00000064339756106584444490000016355944993630148763_);fill:none;stroke:#000000;stroke-width:2;stroke-linecap:square;stroke-linejoin:round;}
	.st8{fill:none;stroke:#000000;stroke-width:0.8;stroke-linecap:square;}
	.st9{font-family:'ArialMT';}
	.st10{font-size:12px;}
	.st11{font-size:11.2px;}
</style>
<g id="PathCollection_1">
	<g>
		<defs>
			<rect id="SVGID_1_" x="97.4" y="28.7" width="266" height="266"/>
		</defs>
		<clipPath id="SVGID_00000134962518064284120790000013709123221414797222_">
			<use xlink:href="#SVGID_1_"  style="overflow:visible;"/>
		</clipPath>
		<g style="clip-path:url(#SVGID_00000134962518064284120790000013709123221414797222_);">
			<g>
				<path id="m667bd13e4b" class="st1" d="M159,235.5c0.6,0,1.3-0.3,1.7-0.7c0.5-0.5,0.7-1.1,0.7-1.7s-0.3-1.3-0.7-1.7
					c-0.5-0.5-1.1-0.7-1.7-0.7s-1.3,0.3-1.7,0.7c-0.5,0.5-0.7,1.1-0.7,1.7s0.3,1.3,0.7,1.7C157.7,235.3,158.4,235.5,159,235.5z"/>
			</g>
			<g>
				<path id="m667bd13e4b_00000175296881986727887990000004865245084156422316_" class="st1" d="M239.3,132.3c0.6,0,1.3-0.3,1.7-0.7
					c0.5-0.5,0.7-1.1,0.7-1.7s-0.3-1.3-0.7-1.7c-0.5-0.5-1.1-0.7-1.7-0.7s-1.3,0.3-1.7,0.7c-0.5,0.5-0.7,1.1-0.7,1.7
					s0.3,1.3,0.7,1.7C238,132,238.6,132.3,239.3,132.3z"/>
			</g>
			<g>
				<path id="m667bd13e4b_00000111180235177438739960000018291841767450926511_" class="st1" d="M300.1,94.8c0.6,0,1.3-0.3,1.7-0.7
					c0.5-0.5,0.7-1.1,0.7-1.7s-0.3-1.3-0.7-1.7c-0.5-0.5-1.1-0.7-1.7-0.7s-1.3,0.3-1.7,0.7c-0.5,0.5-0.7,1.1-0.7,1.7
					s0.3,1.3,0.7,1.7C298.8,94.5,299.4,94.8,300.1,94.8z"/>
			</g>
			<g>
				<path id="m667bd13e4b_00000015329244245131139620000002130246800564251834_" class="st1" d="M170.3,222.8c0.6,0,1.3-0.3,1.7-0.7
					c0.5-0.5,0.7-1.1,0.7-1.7s-0.3-1.3-0.7-1.7c-0.5-0.5-1.1-0.7-1.7-0.7s-1.3,0.3-1.7,0.7c-0.5,0.5-0.7,1.1-0.7,1.7
					s0.3,1.3,0.7,1.7C169.1,222.6,169.7,222.8,170.3,222.8z"/>
			</g>
			<g>
				<path id="m667bd13e4b_00000138539434724889047760000005697347588017019808_" class="st1" d="M250.8,139.5c0.6,0,1.3-0.3,1.7-0.7
					c0.5-0.5,0.7-1.1,0.7-1.7s-0.3-1.3-0.7-1.7c-0.5-0.5-1.1-0.7-1.7-0.7s-1.3,0.3-1.7,0.7c-0.5,0.5-0.7,1.1-0.7,1.7
					s0.3,1.3,0.7,1.7C249.5,139.3,250.1,139.5,250.8,139.5z"/>
			</g>
			<g>
				<path id="m667bd13e4b_00000147183932608893917140000002406578475450640007_" class="st1" d="M235.8,152.3c0.6,0,1.3-0.3,1.7-0.7
					c0.5-0.5,0.7-1.1,0.7-1.7s-0.3-1.3-0.7-1.7c-0.5-0.5-1.1-0.7-1.7-0.7s-1.3,0.3-1.7,0.7c-0.5,0.5-0.7,1.1-0.7,1.7
					s0.3,1.3,0.7,1.7C234.5,152.1,235.1,152.3,235.8,152.3z"/>
			</g>
			<g>
				<path id="m667bd13e4b_00000152232975463524079400000008468113296660580007_" class="st1" d="M281.6,94.6c0.6,0,1.3-0.3,1.7-0.7
					c0.5-0.5,0.7-1.1,0.7-1.7s-0.3-1.3-0.7-1.7c-0.5-0.5-1.1-0.7-1.7-0.7s-1.3,0.3-1.7,0.7c-0.5,0.5-0.7,1.1-0.7,1.7
					s0.3,1.3,0.7,1.7C280.3,94.4,280.9,94.6,281.6,94.6z"/>
			</g>
			<g>
				<path id="m667bd13e4b_00000103241490553363503670000007411869046554487214_" class="st1" d="M153.2,241.4c0.6,0,1.3-0.3,1.7-0.7
					c0.5-0.5,0.7-1.1,0.7-1.7s-0.3-1.3-0.7-1.7c-0.5-0.5-1.1-0.7-1.7-0.7s-1.3,0.3-1.7,0.7c-0.5,0.5-0.7,1.1-0.7,1.7
					s0.3,1.3,0.7,1.7C152,241.2,152.6,241.4,153.2,241.4z"/>
			</g>
			<g>
				<path id="m667bd13e4b_00000024691219534471035550000007989979685962295997_" class="st1" d="M302.2,69.4c0.6,0,1.3-0.3,1.7-0.7
					c0.5-0.5,0.7-1.1,0.7-1.7s-0.3-1.3-0.7-1.7c-0.5-0.5-1.1-0.7-1.7-0.7s-1.3,0.3-1.7,0.7c-0.5,0.5-0.7,1.1-0.7,1.7
					s0.3,1.3,0.7,1.7C301,69.1,301.6,69.4,302.2,69.4z"/>
			</g>
			<g>
				<path id="m667bd13e4b_00000138545916090909745670000001214480702954490755_" class="st1" d="M151,243.5c0.6,0,1.3-0.3,1.7-0.7
					c0.5-0.5,0.7-1.1,0.7-1.7s-0.3-1.3-0.7-1.7c-0.5-0.5-1.1-0.7-1.7-0.7s-1.3,0.3-1.7,0.7c-0.5,0.5-0.7,1.1-0.7,1.7
					s0.3,1.3,0.7,1.7C149.7,243.3,150.3,243.5,151,243.5z"/>
			</g>
			<g>
				<path id="m667bd13e4b_00000085929810099883670040000001001121909340549563_" class="st1" d="M165.5,235.1c0.6,0,1.3-0.3,1.7-0.7
					c0.5-0.5,0.7-1.1,0.7-1.7s-0.3-1.3-0.7-1.7c-0.5-0.5-1.1-0.7-1.7-0.7s-1.3,0.3-1.7,0.7c-0.5,0.5-0.7,1.1-0.7,1.7
					s0.3,1.3,0.7,1.7C164.2,234.9,164.8,235.1,165.5,235.1z"/>
			</g>
			<g>
				<path id="m667bd13e4b_00000115496884882091651860000017557781943570165659_" class="st1" d="M318.8,79.3c0.6,0,1.3-0.3,1.7-0.7
					c0.5-0.5,0.7-1.1,0.7-1.7s-0.3-1.3-0.7-1.7c-0.5-0.5-1.1-0.7-1.7-0.7s-1.3,0.3-1.7,0.7c-0.5,0.5-0.7,1.1-0.7,1.7
					s0.3,1.3,0.7,1.7C317.6,79,318.2,79.3,318.8,79.3z"/>
			</g>
			<g>
				<path id="m667bd13e4b_00000182520003009650826970000015201384957661367200_" class="st1" d="M340.6,63.4c0.6,0,1.3-0.3,1.7-0.7
					c0.5-0.5,0.7-1.1,0.7-1.7s-0.3-1.3-0.7-1.7c-0.5-0.5-1.1-0.7-1.7-0.7s-1.3,0.3-1.7,0.7c-0.5,0.5-0.7,1.1-0.7,1.7
					s0.3,1.3,0.7,1.7C339.3,63.1,339.9,63.4,340.6,63.4z"/>
			</g>
			<g>
				<path id="m667bd13e4b_00000023979053401527438270000002642009733150676396_" class="st1" d="M141,253.9c0.6,0,1.3-0.3,1.7-0.7
					c0.5-0.5,0.7-1.1,0.7-1.7s-0.3-1.3-0.7-1.7c-0.5-0.5-1.1-0.7-1.7-0.7s-1.3,0.3-1.7,0.7c-0.5,0.5-0.7,1.1-0.7,1.7
					s0.3,1.3,0.7,1.7C139.7,253.7,140.3,253.9,141,253.9z"/>
			</g>
			<g>
				<path id="m667bd13e4b_00000003799371044764503930000010804906167707554456_" class="st1" d="M122.1,270.8c0.6,0,1.3-0.3,1.7-0.7
					c0.5-0.5,0.7-1.1,0.7-1.7c0-0.6-0.3-1.3-0.7-1.7c-0.5-0.5-1.1-0.7-1.7-0.7s-1.3,0.3-1.7,0.7c-0.5,0.5-0.7,1.1-0.7,1.7
					c0,0.6,0.3,1.3,0.7,1.7C120.8,270.5,121.5,270.8,122.1,270.8z"/>
			</g>
			<g>
				<path id="m667bd13e4b_00000152948652342742265740000006111834447597686162_" class="st1" d="M173.9,219.9c0.6,0,1.3-0.3,1.7-0.7
					c0.5-0.5,0.7-1.1,0.7-1.7s-0.3-1.3-0.7-1.7c-0.5-0.5-1.1-0.7-1.7-0.7s-1.3,0.3-1.7,0.7c-0.5,0.5-0.7,1.1-0.7,1.7
					s0.3,1.3,0.7,1.7C172.6,219.7,173.2,219.9,173.9,219.9z"/>
			</g>
			<g>
				<path id="m667bd13e4b_00000152976450909390612030000009318548360848533676_" class="st1" d="M207.3,186.5c0.6,0,1.3-0.3,1.7-0.7
					c0.5-0.5,0.7-1.1,0.7-1.7s-0.3-1.3-0.7-1.7c-0.5-0.5-1.1-0.7-1.7-0.7s-1.3,0.3-1.7,0.7c-0.5,0.5-0.7,1.1-0.7,1.7
					s0.3,1.3,0.7,1.7C206,186.2,206.6,186.5,207.3,186.5z"/>
			</g>
			<g>
				<path id="m667bd13e4b_00000121974054282846225260000018380849660955926176_" class="st1" d="M162.6,227.9c0.6,0,1.3-0.3,1.7-0.7
					c0.5-0.5,0.7-1.1,0.7-1.7s-0.3-1.3-0.7-1.7c-0.5-0.5-1.1-0.7-1.7-0.7s-1.3,0.3-1.7,0.7c-0.5,0.5-0.7,1.1-0.7,1.7
					s0.3,1.3,0.7,1.7C161.3,227.6,162,227.9,162.6,227.9z"/>
			</g>
			<g>
				<path id="m667bd13e4b_00000163036714518067438050000008478437783341013413_" class="st1" d="M235.4,152c0.6,0,1.3-0.3,1.7-0.7
					c0.5-0.5,0.7-1.1,0.7-1.7s-0.3-1.3-0.7-1.7c-0.5-0.5-1.1-0.7-1.7-0.7s-1.3,0.3-1.7,0.7c-0.5,0.5-0.7,1.1-0.7,1.7
					s0.3,1.3,0.7,1.7C234.1,151.7,234.7,152,235.4,152z"/>
			</g>
			<g>
				<path id="m667bd13e4b_00000039815995190739072080000012542898923329852334_" class="st1" d="M265.9,131c0.6,0,1.3-0.3,1.7-0.7
					c0.5-0.5,0.7-1.1,0.7-1.7s-0.3-1.3-0.7-1.7c-0.5-0.5-1.1-0.7-1.7-0.7s-1.3,0.3-1.7,0.7c-0.5,0.5-0.7,1.1-0.7,1.7
					s0.3,1.3,0.7,1.7C264.6,130.8,265.2,131,265.9,131z"/>
			</g>
			<g>
				<path id="m667bd13e4b_00000163033953266983403980000006793391412461386135_" class="st1" d="M234,152c0.6,0,1.3-0.3,1.7-0.7
					c0.5-0.5,0.7-1.1,0.7-1.7s-0.3-1.3-0.7-1.7c-0.5-0.5-1.1-0.7-1.7-0.7s-1.3,0.3-1.7,0.7c-0.5,0.5-0.7,1.1-0.7,1.7
					s0.3,1.3,0.7,1.7C232.8,151.8,233.4,152,234,152z"/>
			</g>
			<g>
				<path id="m667bd13e4b_00000183953671103674019130000013815609632974146965_" class="st1" d="M332.7,43.2c0.6,0,1.3-0.3,1.7-0.7
					c0.5-0.5,0.7-1.1,0.7-1.7s-0.3-1.3-0.7-1.7c-0.5-0.5-1.1-0.7-1.7-0.7s-1.3,0.3-1.7,0.7c-0.5,0.5-0.7,1.1-0.7,1.7
					s0.3,1.3,0.7,1.7C331.4,43,332,43.2,332.7,43.2z"/>
			</g>
			<g>
				<path id="m667bd13e4b_00000163041765099093642020000005642637176960116919_" class="st1" d="M221.9,164.3c0.6,0,1.3-0.3,1.7-0.7
					c0.5-0.5,0.7-1.1,0.7-1.7s-0.3-1.3-0.7-1.7c-0.5-0.5-1.1-0.7-1.7-0.7s-1.3,0.3-1.7,0.7c-0.5,0.5-0.7,1.1-0.7,1.7
					s0.3,1.3,0.7,1.7C220.6,164,221.3,164.3,221.9,164.3z"/>
			</g>
			<g>
				<path id="m667bd13e4b_00000000921337522904554690000003960299419858855833_" class="st1" d="M158.4,234.8c0.6,0,1.3-0.3,1.7-0.7
					c0.5-0.5,0.7-1.1,0.7-1.7s-0.3-1.3-0.7-1.7c-0.5-0.5-1.1-0.7-1.7-0.7s-1.3,0.3-1.7,0.7c-0.5,0.5-0.7,1.1-0.7,1.7
					s0.3,1.3,0.7,1.7C157.2,234.5,157.8,234.8,158.4,234.8z"/>
			</g>
			<g>
				<path id="m667bd13e4b_00000145016581576202643940000009808944001098094741_" class="st1" d="M125.7,267c0.6,0,1.3-0.3,1.7-0.7
					c0.5-0.5,0.7-1.1,0.7-1.7c0-0.6-0.3-1.3-0.7-1.7c-0.5-0.5-1.1-0.7-1.7-0.7s-1.3,0.3-1.7,0.7c-0.5,0.5-0.7,1.1-0.7,1.7
					c0,0.6,0.3,1.3,0.7,1.7C124.4,266.8,125.1,267,125.7,267z"/>
			</g>
			<g>
				<path id="m667bd13e4b_00000042010745244852105550000001826225885011950241_" class="st1" d="M269.3,124.4c0.6,0,1.3-0.3,1.7-0.7
					c0.5-0.5,0.7-1.1,0.7-1.7s-0.3-1.3-0.7-1.7c-0.5-0.5-1.1-0.7-1.7-0.7s-1.3,0.3-1.7,0.7c-0.5,0.5-0.7,1.1-0.7,1.7
					s0.3,1.3,0.7,1.7C268,124.1,268.6,124.4,269.3,124.4z"/>
			</g>
			<g>
				<path id="m667bd13e4b_00000012431872848779926530000010558394814014286506_" class="st1" d="M327.1,87.5c0.6,0,1.3-0.3,1.7-0.7
					c0.5-0.5,0.7-1.1,0.7-1.7s-0.3-1.3-0.7-1.7c-0.5-0.5-1.1-0.7-1.7-0.7s-1.3,0.3-1.7,0.7c-0.5,0.5-0.7,1.1-0.7,1.7
					s0.3,1.3,0.7,1.7C325.8,87.3,326.4,87.5,327.1,87.5z"/>
			</g>
			<g>
				<path id="m667bd13e4b_00000103967996913248032060000013003026673480985776_" class="st1" d="M233.7,167.3c0.6,0,1.3-0.3,1.7-0.7
					c0.5-0.5,0.7-1.1,0.7-1.7s-0.3-1.3-0.7-1.7c-0.5-0.5-1.1-0.7-1.7-0.7s-1.3,0.3-1.7,0.7c-0.5,0.5-0.7,1.1-0.7,1.7
					s0.3,1.3,0.7,1.7C232.4,167,233,167.3,233.7,167.3z"/>
			</g>
			<g>
				<path id="m667bd13e4b_00000183949366246228640340000003707291690411199909_" class="st1" d="M212.3,173.4c0.6,0,1.3-0.3,1.7-0.7
					c0.5-0.5,0.7-1.1,0.7-1.7s-0.3-1.3-0.7-1.7c-0.5-0.5-1.1-0.7-1.7-0.7s-1.3,0.3-1.7,0.7c-0.5,0.5-0.7,1.1-0.7,1.7
					s0.3,1.3,0.7,1.7C211,173.2,211.6,173.4,212.3,173.4z"/>
			</g>
			<g>
				<path id="m667bd13e4b_00000127727812029379285990000000528335645205718199_" class="st1" d="M310.8,67.3c0.6,0,1.3-0.3,1.7-0.7
					c0.5-0.5,0.7-1.1,0.7-1.7s-0.3-1.3-0.7-1.7c-0.5-0.5-1.1-0.7-1.7-0.7s-1.3,0.3-1.7,0.7c-0.5,0.5-0.7,1.1-0.7,1.7
					s0.3,1.3,0.7,1.7C309.5,67,310.2,67.3,310.8,67.3z"/>
			</g>
			<g>
				<path id="m667bd13e4b_00000137123024015311286840000010584632467572874372_" class="st1" d="M185.4,219c0.6,0,1.3-0.3,1.7-0.7
					c0.5-0.5,0.7-1.1,0.7-1.7s-0.3-1.3-0.7-1.7c-0.5-0.5-1.1-0.7-1.7-0.7s-1.3,0.3-1.7,0.7c-0.5,0.5-0.7,1.1-0.7,1.7
					s0.3,1.3,0.7,1.7C184.2,218.7,184.8,219,185.4,219z"/>
			</g>
			<g>
				<path id="m667bd13e4b_00000018922766632981250200000006982391323061236382_" class="st1" d="M145.8,246.5c0.6,0,1.3-0.3,1.7-0.7
					c0.5-0.5,0.7-1.1,0.7-1.7s-0.3-1.3-0.7-1.7c-0.5-0.5-1.1-0.7-1.7-0.7s-1.3,0.3-1.7,0.7c-0.5,0.5-0.7,1.1-0.7,1.7
					s0.3,1.3,0.7,1.7C144.6,246.3,145.2,246.5,145.8,246.5z"/>
			</g>
			<g>
				<path id="m667bd13e4b_00000127012688145490386170000000798874650570811824_" class="st1" d="M319.3,56.5c0.6,0,1.3-0.3,1.7-0.7
					c0.5-0.5,0.7-1.1,0.7-1.7s-0.3-1.3-0.7-1.7c-0.5-0.5-1.1-0.7-1.7-0.7s-1.3,0.3-1.7,0.7c-0.5,0.5-0.7,1.1-0.7,1.7
					s0.3,1.3,0.7,1.7C318,56.3,318.6,56.5,319.3,56.5z"/>
			</g>
			<g>
				<path id="m667bd13e4b_00000150100068603488034160000001608998744236526996_" class="st1" d="M342.5,64.1c0.6,0,1.3-0.3,1.7-0.7
					c0.5-0.5,0.7-1.1,0.7-1.7s-0.3-1.3-0.7-1.7c-0.5-0.5-1.1-0.7-1.7-0.7s-1.3,0.3-1.7,0.7c-0.5,0.5-0.7,1.1-0.7,1.7
					s0.3,1.3,0.7,1.7C341.3,63.8,341.9,64.1,342.5,64.1z"/>
			</g>
			<g>
				<path id="m667bd13e4b_00000036250747824602208660000002820531646268194239_" class="st1" d="M243.8,151.5c0.6,0,1.3-0.3,1.7-0.7
					c0.5-0.5,0.7-1.1,0.7-1.7s-0.3-1.3-0.7-1.7c-0.5-0.5-1.1-0.7-1.7-0.7s-1.3,0.3-1.7,0.7c-0.5,0.5-0.7,1.1-0.7,1.7
					s0.3,1.3,0.7,1.7C242.6,151.2,243.2,151.5,243.8,151.5z"/>
			</g>
			<g>
				<path id="m667bd13e4b_00000008116970878530261820000002718820881693829788_" class="st1" d="M312.3,88.7c0.6,0,1.3-0.3,1.7-0.7
					c0.5-0.5,0.7-1.1,0.7-1.7s-0.3-1.3-0.7-1.7c-0.5-0.5-1.1-0.7-1.7-0.7s-1.3,0.3-1.7,0.7c-0.5,0.5-0.7,1.1-0.7,1.7
					s0.3,1.3,0.7,1.7C311,88.4,311.7,88.7,312.3,88.7z"/>
			</g>
			<g>
				<path id="m667bd13e4b_00000032613924849780994010000012074464228090388106_" class="st1" d="M156.1,236.5c0.6,0,1.3-0.3,1.7-0.7
					c0.5-0.5,0.7-1.1,0.7-1.7s-0.3-1.3-0.7-1.7c-0.5-0.5-1.1-0.7-1.7-0.7s-1.3,0.3-1.7,0.7c-0.5,0.5-0.7,1.1-0.7,1.7
					s0.3,1.3,0.7,1.7C154.8,236.3,155.4,236.5,156.1,236.5z"/>
			</g>
			<g>
				<path id="m667bd13e4b_00000109711099520164011150000016625418562891948946_" class="st1" d="M129.3,267.9c0.6,0,1.3-0.3,1.7-0.7
					c0.5-0.5,0.7-1.1,0.7-1.7c0-0.6-0.3-1.3-0.7-1.7c-0.5-0.5-1.1-0.7-1.7-0.7s-1.3,0.3-1.7,0.7c-0.5,0.5-0.7,1.1-0.7,1.7
					c0,0.6,0.3,1.3,0.7,1.7C128,267.6,128.6,267.9,129.3,267.9z"/>
			</g>
			<g>
				<path id="m667bd13e4b_00000124120585806314911250000013117257626729171133_" class="st1" d="M122.2,272.1c0.6,0,1.3-0.3,1.7-0.7
					c0.5-0.5,0.7-1.1,0.7-1.7c0-0.6-0.3-1.3-0.7-1.7c-0.5-0.5-1.1-0.7-1.7-0.7s-1.3,0.3-1.7,0.7c-0.5,0.5-0.7,1.1-0.7,1.7
					c0,0.6,0.3,1.3,0.7,1.7C120.9,271.8,121.6,272.1,122.2,272.1z"/>
			</g>
			<g>
				<path id="m667bd13e4b_00000152227720908413839810000002974325615131744936_" class="st1" d="M315.7,43.2c0.6,0,1.3-0.3,1.7-0.7
					c0.5-0.5,0.7-1.1,0.7-1.7s-0.3-1.3-0.7-1.7c-0.5-0.5-1.1-0.7-1.7-0.7s-1.3,0.3-1.7,0.7c-0.5,0.5-0.7,1.1-0.7,1.7
					s0.3,1.3,0.7,1.7C314.4,43,315,43.2,315.7,43.2z"/>
			</g>
			<g>
				<path id="m667bd13e4b_00000010282392702190088970000015638613469854026405_" class="st1" d="M230.3,158c0.6,0,1.3-0.3,1.7-0.7
					c0.5-0.5,0.7-1.1,0.7-1.7s-0.3-1.3-0.7-1.7c-0.5-0.5-1.1-0.7-1.7-0.7s-1.3,0.3-1.7,0.7c-0.5,0.5-0.7,1.1-0.7,1.7
					s0.3,1.3,0.7,1.7C229,157.8,229.7,158,230.3,158z"/>
			</g>
			<g>
				<path id="m667bd13e4b_00000017507719197266977270000013324413157994706826_" class="st1" d="M245.9,168.2c0.6,0,1.3-0.3,1.7-0.7
					c0.5-0.5,0.7-1.1,0.7-1.7s-0.3-1.3-0.7-1.7c-0.5-0.5-1.1-0.7-1.7-0.7s-1.3,0.3-1.7,0.7c-0.5,0.5-0.7,1.1-0.7,1.7
					s0.3,1.3,0.7,1.7C244.6,168,245.3,168.2,245.9,168.2z"/>
			</g>
			<g>
				<path id="m667bd13e4b_00000174598685288147932610000011446801589657120403_" class="st1" d="M261.5,133.6c0.6,0,1.3-0.3,1.7-0.7
					c0.5-0.5,0.7-1.1,0.7-1.7s-0.3-1.3-0.7-1.7c-0.5-0.5-1.1-0.7-1.7-0.7s-1.3,0.3-1.7,0.7c-0.5,0.5-0.7,1.1-0.7,1.7
					s0.3,1.3,0.7,1.7C260.2,133.3,260.8,133.6,261.5,133.6z"/>
			</g>
			<g>
				<path id="m667bd13e4b_00000172407387316516784900000003827137759290564016_" class="st1" d="M247,141c0.6,0,1.3-0.3,1.7-0.7
					c0.5-0.5,0.7-1.1,0.7-1.7s-0.3-1.3-0.7-1.7c-0.5-0.5-1.1-0.7-1.7-0.7s-1.3,0.3-1.7,0.7c-0.5,0.5-0.7,1.1-0.7,1.7
					s0.3,1.3,0.7,1.7C245.7,140.8,246.4,141,247,141z"/>
			</g>
			<g>
				<path id="m667bd13e4b_00000101811415686558402520000000628487695815110815_" class="st1" d="M324.7,74.1c0.6,0,1.3-0.3,1.7-0.7
					c0.5-0.5,0.7-1.1,0.7-1.7s-0.3-1.3-0.7-1.7c-0.5-0.5-1.1-0.7-1.7-0.7s-1.3,0.3-1.7,0.7c-0.5,0.5-0.7,1.1-0.7,1.7
					s0.3,1.3,0.7,1.7C323.4,73.8,324,74.1,324.7,74.1z"/>
			</g>
			<g>
				<path id="m667bd13e4b_00000023999082537788928540000006425760080933396655_" class="st1" d="M160,237.1c0.6,0,1.3-0.3,1.7-0.7
					c0.5-0.5,0.7-1.1,0.7-1.7s-0.3-1.3-0.7-1.7c-0.5-0.5-1.1-0.7-1.7-0.7s-1.3,0.3-1.7,0.7c-0.5,0.5-0.7,1.1-0.7,1.7
					s0.3,1.3,0.7,1.7C158.7,236.8,159.3,237.1,160,237.1z"/>
			</g>
			<g>
				<path id="m667bd13e4b_00000109020817361164379400000016141894300600561071_" class="st1" d="M162.9,235.1c0.6,0,1.3-0.3,1.7-0.7
					c0.5-0.5,0.7-1.1,0.7-1.7s-0.3-1.3-0.7-1.7c-0.5-0.5-1.1-0.7-1.7-0.7s-1.3,0.3-1.7,0.7c-0.5,0.5-0.7,1.1-0.7,1.7
					s0.3,1.3,0.7,1.7C161.6,234.8,162.2,235.1,162.9,235.1z"/>
			</g>
			<g>
				<path id="m667bd13e4b_00000127746587935198535490000003087867112420020866_" class="st1" d="M144.1,246.1c0.6,0,1.3-0.3,1.7-0.7
					c0.5-0.5,0.7-1.1,0.7-1.7s-0.3-1.3-0.7-1.7c-0.5-0.5-1.1-0.7-1.7-0.7s-1.3,0.3-1.7,0.7c-0.5,0.5-0.7,1.1-0.7,1.7
					s0.3,1.3,0.7,1.7C142.9,245.9,143.5,246.1,144.1,246.1z"/>
			</g>
			<g>
				<path id="m667bd13e4b_00000108279306431002921760000004058210773150789816_" class="st1" d="M164.8,228.9c0.6,0,1.3-0.3,1.7-0.7
					c0.5-0.5,0.7-1.1,0.7-1.7s-0.3-1.3-0.7-1.7c-0.5-0.5-1.1-0.7-1.7-0.7s-1.3,0.3-1.7,0.7c-0.5,0.5-0.7,1.1-0.7,1.7
					s0.3,1.3,0.7,1.7C163.6,228.6,164.2,228.9,164.8,228.9z"/>
			</g>
			<g>
				<path id="m667bd13e4b_00000080195154212989100230000002280694515775384467_" class="st1" d="M201.2,195.9c0.6,0,1.3-0.3,1.7-0.7
					c0.5-0.5,0.7-1.1,0.7-1.7s-0.3-1.3-0.7-1.7c-0.5-0.5-1.1-0.7-1.7-0.7s-1.3,0.3-1.7,0.7c-0.5,0.5-0.7,1.1-0.7,1.7
					s0.3,1.3,0.7,1.7C200,195.6,200.6,195.9,201.2,195.9z"/>
			</g>
			<g>
				<path id="m667bd13e4b_00000141416818019030329700000000827452407545697927_" class="st1" d="M126.1,267.1c0.6,0,1.3-0.3,1.7-0.7
					c0.5-0.5,0.7-1.1,0.7-1.7c0-0.6-0.3-1.3-0.7-1.7c-0.5-0.5-1.1-0.7-1.7-0.7s-1.3,0.3-1.7,0.7c-0.5,0.5-0.7,1.1-0.7,1.7
					c0,0.6,0.3,1.3,0.7,1.7C124.8,266.8,125.4,267.1,126.1,267.1z"/>
			</g>
			<g>
				<path id="m667bd13e4b_00000024698137218993251650000007612634938872172696_" class="st1" d="M251.8,139.6c0.6,0,1.3-0.3,1.7-0.7
					c0.5-0.5,0.7-1.1,0.7-1.7s-0.3-1.3-0.7-1.7c-0.5-0.5-1.1-0.7-1.7-0.7s-1.3,0.3-1.7,0.7c-0.5,0.5-0.7,1.1-0.7,1.7
					s0.3,1.3,0.7,1.7C250.6,139.4,251.2,139.6,251.8,139.6z"/>
			</g>
			<g>
				<path id="m667bd13e4b_00000124129031849690537730000015659929854721250192_" class="st1" d="M314.2,87c0.6,0,1.3-0.3,1.7-0.7
					c0.5-0.5,0.7-1.1,0.7-1.7s-0.3-1.3-0.7-1.7c-0.5-0.5-1.1-0.7-1.7-0.7s-1.3,0.3-1.7,0.7c-0.5,0.5-0.7,1.1-0.7,1.7
					s0.3,1.3,0.7,1.7C312.9,86.7,313.6,87,314.2,87z"/>
			</g>
			<g>
				<path id="m667bd13e4b_00000147198447068925546750000016147118430593266576_" class="st1" d="M185.2,213.8c0.6,0,1.3-0.3,1.7-0.7
					c0.5-0.5,0.7-1.1,0.7-1.7s-0.3-1.3-0.7-1.7c-0.5-0.5-1.1-0.7-1.7-0.7s-1.3,0.3-1.7,0.7c-0.5,0.5-0.7,1.1-0.7,1.7
					s0.3,1.3,0.7,1.7C183.9,213.6,184.5,213.8,185.2,213.8z"/>
			</g>
			<g>
				<path id="m667bd13e4b_00000075869243510137408960000017771894897607691961_" class="st1" d="M193.2,195.7c0.6,0,1.3-0.3,1.7-0.7
					c0.5-0.5,0.7-1.1,0.7-1.7s-0.3-1.3-0.7-1.7c-0.5-0.5-1.1-0.7-1.7-0.7s-1.3,0.3-1.7,0.7c-0.5,0.5-0.7,1.1-0.7,1.7
					s0.3,1.3,0.7,1.7C192,195.5,192.6,195.7,193.2,195.7z"/>
			</g>
			<g>
				<path id="m667bd13e4b_00000143609236376979697720000007669705728027138239_" class="st1" d="M237.7,159.3c0.6,0,1.3-0.3,1.7-0.7
					c0.5-0.5,0.7-1.1,0.7-1.7s-0.3-1.3-0.7-1.7c-0.5-0.5-1.1-0.7-1.7-0.7s-1.3,0.3-1.7,0.7c-0.5,0.5-0.7,1.1-0.7,1.7
					s0.3,1.3,0.7,1.7C236.4,159,237.1,159.3,237.7,159.3z"/>
			</g>
			<g>
				<path id="m667bd13e4b_00000016053096682863432000000008995912380408284603_" class="st1" d="M292.8,95.6c0.6,0,1.3-0.3,1.7-0.7
					c0.5-0.5,0.7-1.1,0.7-1.7s-0.3-1.3-0.7-1.7c-0.5-0.5-1.1-0.7-1.7-0.7s-1.3,0.3-1.7,0.7c-0.5,0.5-0.7,1.1-0.7,1.7
					s0.3,1.3,0.7,1.7C291.5,95.4,292.1,95.6,292.8,95.6z"/>
			</g>
			<g>
				<path id="m667bd13e4b_00000039833134717321063550000005831746945862515620_" class="st1" d="M255.1,129.8c0.6,0,1.3-0.3,1.7-0.7
					c0.5-0.5,0.7-1.1,0.7-1.7s-0.3-1.3-0.7-1.7c-0.5-0.5-1.1-0.7-1.7-0.7s-1.3,0.3-1.7,0.7c-0.5,0.5-0.7,1.1-0.7,1.7
					s0.3,1.3,0.7,1.7C253.9,129.5,254.5,129.8,255.1,129.8z"/>
			</g>
			<g>
				<path id="m667bd13e4b_00000072982090257435620510000005306986024491795607_" class="st1" d="M315.4,76.9c0.6,0,1.3-0.3,1.7-0.7
					c0.5-0.5,0.7-1.1,0.7-1.7s-0.3-1.3-0.7-1.7c-0.5-0.5-1.1-0.7-1.7-0.7s-1.3,0.3-1.7,0.7c-0.5,0.5-0.7,1.1-0.7,1.7
					s0.3,1.3,0.7,1.7C314.2,76.6,314.8,76.9,315.4,76.9z"/>
			</g>
			<g>
				<path id="m667bd13e4b_00000147219997239637273570000006977959682215292856_" class="st1" d="M146.1,245.4c0.6,0,1.3-0.3,1.7-0.7
					c0.5-0.5,0.7-1.1,0.7-1.7s-0.3-1.3-0.7-1.7c-0.5-0.5-1.1-0.7-1.7-0.7s-1.3,0.3-1.7,0.7c-0.5,0.5-0.7,1.1-0.7,1.7
					s0.3,1.3,0.7,1.7C144.8,245.1,145.5,245.4,146.1,245.4z"/>
			</g>
			<g>
				<path id="m667bd13e4b_00000169529023892327829400000015844137700323280529_" class="st1" d="M252.4,145c0.6,0,1.3-0.3,1.7-0.7
					c0.5-0.5,0.7-1.1,0.7-1.7s-0.3-1.3-0.7-1.7c-0.5-0.5-1.1-0.7-1.7-0.7s-1.3,0.3-1.7,0.7c-0.5,0.5-0.7,1.1-0.7,1.7
					s0.3,1.3,0.7,1.7C251.1,144.7,251.7,145,252.4,145z"/>
			</g>
			<g>
				<path id="m667bd13e4b_00000057854072989679101090000008496277300510277012_" class="st1" d="M230.3,157.3c0.6,0,1.3-0.3,1.7-0.7
					c0.5-0.5,0.7-1.1,0.7-1.7s-0.3-1.3-0.7-1.7c-0.5-0.5-1.1-0.7-1.7-0.7s-1.3,0.3-1.7,0.7c-0.5,0.5-0.7,1.1-0.7,1.7
					s0.3,1.3,0.7,1.7C229,157,229.6,157.3,230.3,157.3z"/>
			</g>
			<g>
				<path id="m667bd13e4b_00000031199690150033877160000009232183064691509946_" class="st1" d="M176.3,216.2c0.6,0,1.3-0.3,1.7-0.7
					c0.5-0.5,0.7-1.1,0.7-1.7s-0.3-1.3-0.7-1.7c-0.5-0.5-1.1-0.7-1.7-0.7s-1.3,0.3-1.7,0.7c-0.5,0.5-0.7,1.1-0.7,1.7
					s0.3,1.3,0.7,1.7C175,215.9,175.7,216.2,176.3,216.2z"/>
			</g>
			<g>
				<path id="m667bd13e4b_00000129892919668414220850000003564948839605131915_" class="st1" d="M201.4,189c0.6,0,1.3-0.3,1.7-0.7
					c0.5-0.5,0.7-1.1,0.7-1.7s-0.3-1.3-0.7-1.7c-0.5-0.5-1.1-0.7-1.7-0.7s-1.3,0.3-1.7,0.7c-0.5,0.5-0.7,1.1-0.7,1.7
					s0.3,1.3,0.7,1.7C200.1,188.7,200.7,189,201.4,189z"/>
			</g>
			<g>
				<path id="m667bd13e4b_00000070102715203052693340000015531153670484545420_" class="st1" d="M336.1,43.2c0.6,0,1.3-0.3,1.7-0.7
					c0.5-0.5,0.7-1.1,0.7-1.7s-0.3-1.3-0.7-1.7c-0.5-0.5-1.1-0.7-1.7-0.7s-1.3,0.3-1.7,0.7c-0.5,0.5-0.7,1.1-0.7,1.7
					s0.3,1.3,0.7,1.7C334.8,43,335.4,43.2,336.1,43.2z"/>
			</g>
			<g>
				<path id="m667bd13e4b_00000098928489933729838690000001376735000884461446_" class="st1" d="M189.7,204.1c0.6,0,1.3-0.3,1.7-0.7
					c0.5-0.5,0.7-1.1,0.7-1.7s-0.3-1.3-0.7-1.7c-0.5-0.5-1.1-0.7-1.7-0.7s-1.3,0.3-1.7,0.7c-0.5,0.5-0.7,1.1-0.7,1.7
					s0.3,1.3,0.7,1.7C188.4,203.9,189,204.1,189.7,204.1z"/>
			</g>
			<g>
				<path id="m667bd13e4b_00000000902835348654577220000010810957165716912564_" class="st1" d="M344.8,63.4c0.6,0,1.3-0.3,1.7-0.7
					c0.5-0.5,0.7-1.1,0.7-1.7s-0.3-1.3-0.7-1.7c-0.5-0.5-1.1-0.7-1.7-0.7s-1.3,0.3-1.7,0.7c-0.5,0.5-0.7,1.1-0.7,1.7
					s0.3,1.3,0.7,1.7C343.5,63.2,344.1,63.4,344.8,63.4z"/>
			</g>
			<g>
				<path id="m667bd13e4b_00000074416468593724728110000007203885725468534421_" class="st1" d="M222.8,175.1c0.6,0,1.3-0.3,1.7-0.7
					c0.5-0.5,0.7-1.1,0.7-1.7s-0.3-1.3-0.7-1.7c-0.5-0.5-1.1-0.7-1.7-0.7s-1.3,0.3-1.7,0.7c-0.5,0.5-0.7,1.1-0.7,1.7
					s0.3,1.3,0.7,1.7C221.5,174.9,222.2,175.1,222.8,175.1z"/>
			</g>
			<g>
				<path id="m667bd13e4b_00000009579458378518441450000011532542674203584150_" class="st1" d="M203.7,187.9c0.6,0,1.3-0.3,1.7-0.7
					c0.5-0.5,0.7-1.1,0.7-1.7s-0.3-1.3-0.7-1.7c-0.5-0.5-1.1-0.7-1.7-0.7s-1.3,0.3-1.7,0.7c-0.5,0.5-0.7,1.1-0.7,1.7
					s0.3,1.3,0.7,1.7C202.4,187.6,203.1,187.9,203.7,187.9z"/>
			</g>
			<g>
				<path id="m667bd13e4b_00000096744436332025766840000013803355276392482176_" class="st1" d="M274.7,119.6c0.6,0,1.3-0.3,1.7-0.7
					c0.5-0.5,0.7-1.1,0.7-1.7s-0.3-1.3-0.7-1.7c-0.5-0.5-1.1-0.7-1.7-0.7s-1.3,0.3-1.7,0.7c-0.5,0.5-0.7,1.1-0.7,1.7
					s0.3,1.3,0.7,1.7C273.5,119.3,274.1,119.6,274.7,119.6z"/>
			</g>
			<g>
				<path id="m667bd13e4b_00000170982328232737541210000005941738417604226980_" class="st1" d="M114.1,280.3c0.6,0,1.3-0.3,1.7-0.7
					c0.5-0.5,0.7-1.1,0.7-1.7c0-0.6-0.3-1.3-0.7-1.7c-0.5-0.5-1.1-0.7-1.7-0.7s-1.3,0.3-1.7,0.7c-0.5,0.5-0.7,1.1-0.7,1.7
					c0,0.6,0.3,1.3,0.7,1.7C112.8,280,113.4,280.3,114.1,280.3z"/>
			</g>
			<g>
				<path id="m667bd13e4b_00000124128081320632137470000005638226222999848580_" class="st1" d="M249.4,144.4c0.6,0,1.3-0.3,1.7-0.7
					c0.5-0.5,0.7-1.1,0.7-1.7s-0.3-1.3-0.7-1.7c-0.5-0.5-1.1-0.7-1.7-0.7s-1.3,0.3-1.7,0.7c-0.5,0.5-0.7,1.1-0.7,1.7
					s0.3,1.3,0.7,1.7C248.1,144.1,248.7,144.4,249.4,144.4z"/>
			</g>
			<g>
				<path id="m667bd13e4b_00000052093821191499456380000005816954115877918380_" class="st1" d="M124.3,271.6c0.6,0,1.3-0.3,1.7-0.7
					c0.5-0.5,0.7-1.1,0.7-1.7c0-0.6-0.3-1.3-0.7-1.7c-0.5-0.5-1.1-0.7-1.7-0.7s-1.3,0.3-1.7,0.7c-0.5,0.5-0.7,1.1-0.7,1.7
					c0,0.6,0.3,1.3,0.7,1.7C123,271.4,123.7,271.6,124.3,271.6z"/>
			</g>
			<g>
				<path id="m667bd13e4b_00000109751083362018494460000012040806344352239025_" class="st1" d="M329.3,74.5c0.6,0,1.3-0.3,1.7-0.7
					c0.5-0.5,0.7-1.1,0.7-1.7s-0.3-1.3-0.7-1.7c-0.5-0.5-1.1-0.7-1.7-0.7s-1.3,0.3-1.7,0.7c-0.5,0.5-0.7,1.1-0.7,1.7
					s0.3,1.3,0.7,1.7C328,74.2,328.6,74.5,329.3,74.5z"/>
			</g>
			<g>
				<path id="m667bd13e4b_00000119801485090873778960000003214928079646610604_" class="st1" d="M117.9,275.1c0.6,0,1.3-0.3,1.7-0.7
					c0.5-0.5,0.7-1.1,0.7-1.7c0-0.6-0.3-1.3-0.7-1.7c-0.5-0.5-1.1-0.7-1.7-0.7s-1.3,0.3-1.7,0.7c-0.5,0.5-0.7,1.1-0.7,1.7
					c0,0.6,0.3,1.3,0.7,1.7C116.7,274.8,117.3,275.1,117.9,275.1z"/>
			</g>
			<g>
				<path id="m667bd13e4b_00000041991182212241308530000004158293456327849144_" class="st1" d="M239.5,154c0.6,0,1.3-0.3,1.7-0.7
					c0.5-0.5,0.7-1.1,0.7-1.7s-0.3-1.3-0.7-1.7c-0.5-0.5-1.1-0.7-1.7-0.7s-1.3,0.3-1.7,0.7c-0.5,0.5-0.7,1.1-0.7,1.7
					s0.3,1.3,0.7,1.7C238.2,153.7,238.8,154,239.5,154z"/>
			</g>
			<g>
				<path id="m667bd13e4b_00000022549300482448723090000011614167622096848006_" class="st1" d="M130.1,263.8c0.6,0,1.3-0.3,1.7-0.7
					c0.5-0.5,0.7-1.1,0.7-1.7c0-0.6-0.3-1.3-0.7-1.7c-0.5-0.5-1.1-0.7-1.7-0.7s-1.3,0.3-1.7,0.7c-0.5,0.5-0.7,1.1-0.7,1.7
					c0,0.6,0.3,1.3,0.7,1.7C128.9,263.5,129.5,263.8,130.1,263.8z"/>
			</g>
			<g>
				<path id="m667bd13e4b_00000078031387628488375790000001239423291987986584_" class="st1" d="M171.1,214.1c0.6,0,1.3-0.3,1.7-0.7
					c0.5-0.5,0.7-1.1,0.7-1.7s-0.3-1.3-0.7-1.7c-0.5-0.5-1.1-0.7-1.7-0.7s-1.3,0.3-1.7,0.7c-0.5,0.5-0.7,1.1-0.7,1.7
					s0.3,1.3,0.7,1.7C169.9,213.9,170.5,214.1,171.1,214.1z"/>
			</g>
			<g>
				<path id="m667bd13e4b_00000075841387642425786450000014305569654704644757_" class="st1" d="M173.6,222.1c0.6,0,1.3-0.3,1.7-0.7
					c0.5-0.5,0.7-1.1,0.7-1.7s-0.3-1.3-0.7-1.7c-0.5-0.5-1.1-0.7-1.7-0.7s-1.3,0.3-1.7,0.7c-0.5,0.5-0.7,1.1-0.7,1.7
					s0.3,1.3,0.7,1.7C172.3,221.8,172.9,222.1,173.6,222.1z"/>
			</g>
			<g>
				<path id="m667bd13e4b_00000012445000336900320010000010816116293367994038_" class="st1" d="M294.6,99.6c0.6,0,1.3-0.3,1.7-0.7
					c0.5-0.5,0.7-1.1,0.7-1.7s-0.3-1.3-0.7-1.7c-0.5-0.5-1.1-0.7-1.7-0.7s-1.3,0.3-1.7,0.7c-0.5,0.5-0.7,1.1-0.7,1.7
					s0.3,1.3,0.7,1.7C293.3,99.3,293.9,99.6,294.6,99.6z"/>
			</g>
			<g>
				<path id="m667bd13e4b_00000151505373484852936650000010126395967307397274_" class="st1" d="M198.4,198.8c0.6,0,1.3-0.3,1.7-0.7
					c0.5-0.5,0.7-1.1,0.7-1.7s-0.3-1.3-0.7-1.7c-0.5-0.5-1.1-0.7-1.7-0.7s-1.3,0.3-1.7,0.7c-0.5,0.5-0.7,1.1-0.7,1.7
					s0.3,1.3,0.7,1.7C197.2,198.6,197.8,198.8,198.4,198.8z"/>
			</g>
			<g>
				<path id="m667bd13e4b_00000110443195752466386900000004071590601554314924_" class="st1" d="M319.2,67.5c0.6,0,1.3-0.3,1.7-0.7
					c0.5-0.5,0.7-1.1,0.7-1.7s-0.3-1.3-0.7-1.7c-0.5-0.5-1.1-0.7-1.7-0.7s-1.3,0.3-1.7,0.7c-0.5,0.5-0.7,1.1-0.7,1.7
					s0.3,1.3,0.7,1.7C318,67.2,318.6,67.5,319.2,67.5z"/>
			</g>
			<g>
				<path id="m667bd13e4b_00000073687832487985949680000018045260630759116986_" class="st1" d="M145.6,245.8c0.6,0,1.3-0.3,1.7-0.7
					c0.5-0.5,0.7-1.1,0.7-1.7s-0.3-1.3-0.7-1.7c-0.5-0.5-1.1-0.7-1.7-0.7s-1.3,0.3-1.7,0.7c-0.5,0.5-0.7,1.1-0.7,1.7
					s0.3,1.3,0.7,1.7C144.4,245.5,145,245.8,145.6,245.8z"/>
			</g>
			<g>
				<path id="m667bd13e4b_00000049942197082799572340000016618355046488194201_" class="st1" d="M331.7,84.9c0.6,0,1.3-0.3,1.7-0.7
					c0.5-0.5,0.7-1.1,0.7-1.7s-0.3-1.3-0.7-1.7c-0.5-0.5-1.1-0.7-1.7-0.7s-1.3,0.3-1.7,0.7c-0.5,0.5-0.7,1.1-0.7,1.7
					s0.3,1.3,0.7,1.7C330.5,84.7,331.1,84.9,331.7,84.9z"/>
			</g>
			<g>
				<path id="m667bd13e4b_00000111178773225715271340000014033506503054677403_" class="st1" d="M331.5,61.4c0.6,0,1.3-0.3,1.7-0.7
					c0.5-0.5,0.7-1.1,0.7-1.7s-0.3-1.3-0.7-1.7c-0.5-0.5-1.1-0.7-1.7-0.7s-1.3,0.3-1.7,0.7c-0.5,0.5-0.7,1.1-0.7,1.7
					s0.3,1.3,0.7,1.7C330.2,61.1,330.8,61.4,331.5,61.4z"/>
			</g>
			<g>
				<path id="m667bd13e4b_00000040567811149268588000000016004218238174182031_" class="st1" d="M170.2,221.4c0.6,0,1.3-0.3,1.7-0.7
					c0.5-0.5,0.7-1.1,0.7-1.7s-0.3-1.3-0.7-1.7c-0.5-0.5-1.1-0.7-1.7-0.7s-1.3,0.3-1.7,0.7c-0.5,0.5-0.7,1.1-0.7,1.7
					s0.3,1.3,0.7,1.7C169,221.2,169.6,221.4,170.2,221.4z"/>
			</g>
			<g>
				<path id="m667bd13e4b_00000114038762458686224240000010739468270285826751_" class="st1" d="M284.2,104.4c0.6,0,1.3-0.3,1.7-0.7
					c0.5-0.5,0.7-1.1,0.7-1.7s-0.3-1.3-0.7-1.7c-0.5-0.5-1.1-0.7-1.7-0.7s-1.3,0.3-1.7,0.7c-0.5,0.5-0.7,1.1-0.7,1.7
					s0.3,1.3,0.7,1.7C283,104.2,283.6,104.4,284.2,104.4z"/>
			</g>
			<g>
				<path id="m667bd13e4b_00000147904835846830829790000014353944191030319266_" class="st1" d="M216.9,184c0.6,0,1.3-0.3,1.7-0.7
					c0.5-0.5,0.7-1.1,0.7-1.7s-0.3-1.3-0.7-1.7c-0.5-0.5-1.1-0.7-1.7-0.7s-1.3,0.3-1.7,0.7c-0.5,0.5-0.7,1.1-0.7,1.7
					s0.3,1.3,0.7,1.7C215.6,183.8,216.3,184,216.9,184z"/>
			</g>
			<g>
				<path id="m667bd13e4b_00000109001668418118093980000004596416560023181960_" class="st1" d="M254.4,135.9c0.6,0,1.3-0.3,1.7-0.7
					c0.5-0.5,0.7-1.1,0.7-1.7s-0.3-1.3-0.7-1.7c-0.5-0.5-1.1-0.7-1.7-0.7s-1.3,0.3-1.7,0.7c-0.5,0.5-0.7,1.1-0.7,1.7
					s0.3,1.3,0.7,1.7C253.1,135.7,253.7,135.9,254.4,135.9z"/>
			</g>
			<g>
				<path id="m667bd13e4b_00000018198021887408625010000004195949921972789416_" class="st1" d="M146.5,250.5c0.6,0,1.3-0.3,1.7-0.7
					c0.5-0.5,0.7-1.1,0.7-1.7s-0.3-1.3-0.7-1.7c-0.5-0.5-1.1-0.7-1.7-0.7s-1.3,0.3-1.7,0.7c-0.5,0.5-0.7,1.1-0.7,1.7
					s0.3,1.3,0.7,1.7C145.2,250.3,145.8,250.5,146.5,250.5z"/>
			</g>
			<g>
				<path id="m667bd13e4b_00000103954182580583508540000006763183486502387874_" class="st1" d="M345.3,43.2c0.6,0,1.3-0.3,1.7-0.7
					c0.5-0.5,0.7-1.1,0.7-1.7s-0.3-1.3-0.7-1.7c-0.5-0.5-1.1-0.7-1.7-0.7s-1.3,0.3-1.7,0.7c-0.5,0.5-0.7,1.1-0.7,1.7
					s0.3,1.3,0.7,1.7C344,43,344.6,43.2,345.3,43.2z"/>
			</g>
			<g>
				<path id="m667bd13e4b_00000031186857865284787900000008720775556512561843_" class="st1" d="M147.9,242.1c0.6,0,1.3-0.3,1.7-0.7
					c0.5-0.5,0.7-1.1,0.7-1.7s-0.3-1.3-0.7-1.7c-0.5-0.5-1.1-0.7-1.7-0.7s-1.3,0.3-1.7,0.7c-0.5,0.5-0.7,1.1-0.7,1.7
					s0.3,1.3,0.7,1.7C146.7,241.8,147.3,242.1,147.9,242.1z"/>
			</g>
			<g>
				<path id="m667bd13e4b_00000151527679309511230090000008377289259753823150_" class="st1" d="M212.7,180.4c0.6,0,1.3-0.3,1.7-0.7
					c0.5-0.5,0.7-1.1,0.7-1.7s-0.3-1.3-0.7-1.7c-0.5-0.5-1.1-0.7-1.7-0.7s-1.3,0.3-1.7,0.7c-0.5,0.5-0.7,1.1-0.7,1.7
					s0.3,1.3,0.7,1.7C211.4,180.1,212,180.4,212.7,180.4z"/>
			</g>
			<g>
				<path id="m667bd13e4b_00000160177262880624220310000000870286888753298569_" class="st1" d="M306.3,81c0.6,0,1.3-0.3,1.7-0.7
					c0.5-0.5,0.7-1.1,0.7-1.7s-0.3-1.3-0.7-1.7c-0.5-0.5-1.1-0.7-1.7-0.7s-1.3,0.3-1.7,0.7c-0.5,0.5-0.7,1.1-0.7,1.7
					s0.3,1.3,0.7,1.7C305,80.8,305.6,81,306.3,81z"/>
			</g>
			<g>
				<path id="m667bd13e4b_00000157287433108879320760000014860699059933230735_" class="st1" d="M254.4,126.4c0.6,0,1.3-0.3,1.7-0.7
					c0.5-0.5,0.7-1.1,0.7-1.7s-0.3-1.3-0.7-1.7c-0.5-0.5-1.1-0.7-1.7-0.7s-1.3,0.3-1.7,0.7c-0.5,0.5-0.7,1.1-0.7,1.7
					s0.3,1.3,0.7,1.7C253.1,126.1,253.7,126.4,254.4,126.4z"/>
			</g>
			<g>
				<path id="m667bd13e4b_00000136393463777628258790000004201099299398227584_" class="st1" d="M193.1,218.7c0.6,0,1.3-0.3,1.7-0.7
					c0.5-0.5,0.7-1.1,0.7-1.7s-0.3-1.3-0.7-1.7c-0.5-0.5-1.1-0.7-1.7-0.7s-1.3,0.3-1.7,0.7c-0.5,0.5-0.7,1.1-0.7,1.7
					s0.3,1.3,0.7,1.7C191.8,218.4,192.5,218.7,193.1,218.7z"/>
			</g>
			<g>
				<path id="m667bd13e4b_00000140000424779751897090000005134183133467491987_" class="st1" d="M288.4,120.9c0.6,0,1.3-0.3,1.7-0.7
					c0.5-0.5,0.7-1.1,0.7-1.7s-0.3-1.3-0.7-1.7c-0.5-0.5-1.1-0.7-1.7-0.7s-1.3,0.3-1.7,0.7c-0.5,0.5-0.7,1.1-0.7,1.7
					s0.3,1.3,0.7,1.7C287.1,120.6,287.8,120.9,288.4,120.9z"/>
			</g>
			<g>
				<path id="m667bd13e4b_00000150062260796963444310000012279928958423689627_" class="st1" d="M198.1,192c0.6,0,1.3-0.3,1.7-0.7
					c0.5-0.5,0.7-1.1,0.7-1.7s-0.3-1.3-0.7-1.7c-0.5-0.5-1.1-0.7-1.7-0.7s-1.3,0.3-1.7,0.7c-0.5,0.5-0.7,1.1-0.7,1.7
					s0.3,1.3,0.7,1.7C196.8,191.7,197.4,192,198.1,192z"/>
			</g>
			<g>
				<path id="m667bd13e4b_00000021100986052818019290000010220013958425922962_" class="st1" d="M113.8,280.4c0.6,0,1.3-0.3,1.7-0.7
					c0.5-0.5,0.7-1.1,0.7-1.7c0-0.6-0.3-1.3-0.7-1.7c-0.5-0.5-1.1-0.7-1.7-0.7s-1.3,0.3-1.7,0.7c-0.5,0.5-0.7,1.1-0.7,1.7
					c0,0.6,0.3,1.3,0.7,1.7C112.5,280.1,113.2,280.4,113.8,280.4z"/>
			</g>
			<g>
				<path id="m667bd13e4b_00000096777568520116578260000008410369878370676135_" class="st1" d="M160.5,235.1c0.6,0,1.3-0.3,1.7-0.7
					c0.5-0.5,0.7-1.1,0.7-1.7s-0.3-1.3-0.7-1.7c-0.5-0.5-1.1-0.7-1.7-0.7s-1.3,0.3-1.7,0.7c-0.5,0.5-0.7,1.1-0.7,1.7
					s0.3,1.3,0.7,1.7C159.2,234.8,159.9,235.1,160.5,235.1z"/>
			</g>
		</g>
	</g>
</g>
<g id="matplotlib.axis_1">
	<g id="xtick_1">
		<g id="line2d_1">
			<g>
				<g>
					<path id="mffee2954c6" class="st2" d="M109.5,294.6v3.5"/>
				</g>
			</g>
		</g>
		<g id="text_1">
			<text transform="matrix(1 0 0 1 99.1356 312.2778)" class="st3 st4">0.0</text>
		</g>
	</g>
	<g id="xtick_2">
		<g id="line2d_2">
			<g>
				<g>
					<path id="mffee2954c6_00000061446238793266833350000012986575769377690789_" class="st2" d="M157.9,294.6v3.5"/>
				</g>
			</g>
		</g>
		<g id="text_2">
			<text transform="matrix(1 0 0 1 147.4919 312.2778)" class="st3 st4">0.1</text>
		</g>
	</g>
	<g id="xtick_3">
		<g id="line2d_3">
			<g>
				<g>
					<path id="mffee2954c6_00000077318846750458876840000012567714543440809094_" class="st2" d="M206.2,294.6v3.5"/>
				</g>
			</g>
		</g>
		<g id="text_3">
			<text transform="matrix(1 0 0 1 195.8483 312.2778)" class="st3 st4">0.2</text>
		</g>
	</g>
	<g id="xtick_4">
		<g id="line2d_4">
			<g>
				<g>
					<path id="mffee2954c6_00000013183093104279502790000006434202287838621313_" class="st2" d="M254.6,294.6v3.5"/>
				</g>
			</g>
		</g>
		<g id="text_4">
			<text transform="matrix(1 0 0 1 244.2047 312.2778)" class="st3 st4">0.3</text>
		</g>
	</g>
	<g id="xtick_5">
		<g id="line2d_5">
			<g>
				<g>
					<path id="mffee2954c6_00000023980718341447829970000012303792636569678756_" class="st2" d="M302.9,294.6v3.5"/>
				</g>
			</g>
		</g>
		<g id="text_5">
			<text transform="matrix(1 0 0 1 292.561 312.2778)" class="st3 st4">0.4</text>
		</g>
	</g>
	<g id="xtick_6">
		<g id="line2d_6">
			<g>
				<g>
					<path id="mffee2954c6_00000115514576228025497670000001503780308485019539_" class="st2" d="M351.3,294.6v3.5"/>
				</g>
			</g>
		</g>
		<g id="text_6">
			<text transform="matrix(1 0 0 1 340.9174 312.2778)" class="st3 st4">0.5</text>
		</g>
	</g>
	<g id="text_7">
		<text transform="matrix(1 0 0 1 193.8883 331.3469)" class="st3 st5">True FDR</text>
	</g>
</g>
<g id="matplotlib.axis_2">
	<g id="ytick_1">
		<g id="line2d_7">
			<g>
				<g>
					<path id="m0d38c58cf7" class="st2" d="M97.4,282.6h-3.5"/>
				</g>
			</g>
		</g>
		<g id="text_8">
			<text transform="matrix(1 0 0 1 69.6729 287.8698)" class="st3 st4">0.0</text>
		</g>
	</g>
	<g id="ytick_2">
		<g id="line2d_8">
			<g>
				<g>
					<path id="m0d38c58cf7_00000101784802087792899580000002719631805846087355_" class="st2" d="M97.4,234.2h-3.5"/>
				</g>
			</g>
		</g>
		<g id="text_9">
			<text transform="matrix(1 0 0 1 69.6729 239.5135)" class="st3 st4">0.1</text>
		</g>
	</g>
	<g id="ytick_3">
		<g id="line2d_9">
			<g>
				<g>
					<path id="m0d38c58cf7_00000051344222034071364290000010007069284977161401_" class="st2" d="M97.4,185.8h-3.5"/>
				</g>
			</g>
		</g>
		<g id="text_10">
			<text transform="matrix(1 0 0 1 69.6729 191.1571)" class="st3 st4">0.2</text>
		</g>
	</g>
	<g id="ytick_4">
		<g id="line2d_10">
			<g>
				<g>
					<path id="m0d38c58cf7_00000151533093451390035000000000956585261809638021_" class="st2" d="M97.4,137.5h-3.5"/>
				</g>
			</g>
		</g>
		<g id="text_11">
			<text transform="matrix(1 0 0 1 69.6729 142.8007)" class="st3 st4">0.3</text>
		</g>
	</g>
	<g id="ytick_5">
		<g id="line2d_11">
			<g>
				<g>
					<path id="m0d38c58cf7_00000097497834977406707420000017721274370984125593_" class="st2" d="M97.4,89.1h-3.5"/>
				</g>
			</g>
		</g>
		<g id="text_12">
			<text transform="matrix(1 0 0 1 69.6729 94.4444)" class="st3 st4">0.4</text>
		</g>
	</g>
	<g id="ytick_6">
		<g id="line2d_12">
			<g>
				<g>
					<path id="m0d38c58cf7_00000042725489686602849510000009877071707171571898_" class="st2" d="M97.4,40.8h-3.5"/>
				</g>
			</g>
		</g>
		<g id="text_13">
			<text transform="matrix(1 0 0 1 69.6729 46.088)" class="st3 st4">0.5</text>
		</g>
	</g>
	<g id="text_14">
		<text transform="matrix(6.123234e-17 -1 1 6.123234e-17 60.8281 216.5586)" class="st3 st5">Predicted FDR</text>
	</g>
</g>
<g id="line2d_13">
	<g>
		<defs>
			<rect id="SVGID_00000098907597163460829640000014968160382980317597_" x="97.4" y="28.7" width="266" height="266"/>
		</defs>
		<clipPath id="SVGID_00000021106767437829610440000009783282260849432970_">
			<use xlink:href="#SVGID_00000098907597163460829640000014968160382980317597_"  style="overflow:visible;"/>
		</clipPath>
		
			<path style="clip-path:url(#SVGID_00000021106767437829610440000009783282260849432970_);fill:none;stroke:#000000;stroke-width:2;stroke-linejoin:round;stroke-dasharray:7.4,3.2;" d="
			M109.5,282.6L351.3,40.8"/>
	</g>
</g>
<g id="line2d_14">
	<g>
		<defs>
			<rect id="SVGID_00000150061622587791029740000014034596619620839327_" x="97.4" y="28.7" width="266" height="266"/>
		</defs>
		<clipPath id="SVGID_00000060029326059511457370000001873968576316693406_">
			<use xlink:href="#SVGID_00000150061622587791029740000014034596619620839327_"  style="overflow:visible;"/>
		</clipPath>
		
			<path style="clip-path:url(#SVGID_00000060029326059511457370000001873968576316693406_);fill:none;stroke:#000000;stroke-width:2;stroke-linecap:square;stroke-linejoin:round;" d="
			M109.5,281.9L351.3,38.4"/>
	</g>
</g>
<g id="patch_3">
	<path class="st8" d="M97.4,294.6v-266"/>
</g>
<g id="patch_4">
	<path class="st8" d="M363.4,294.6v-266"/>
</g>
<g id="patch_5">
	<path class="st8" d="M97.4,294.6h266"/>
</g>
<g id="patch_6">
	<path class="st8" d="M97.4,28.7h266"/>
</g>
<g id="text_15">
	<g transform="translate(254.578182 234.194545)">
		<text transform="matrix(1 0 0 1 0 -0.5625)" class="st9 st5">R</text>
		<text transform="matrix(1 0 0 1 11.5547 -0.5625)" class="st9 st10"> </text>
		<text transform="matrix(1 0 0 1 12.2408 -6.6875)" class="st9 st11">2</text>
		<text transform="matrix(1 0 0 1 18.4697 -6.6875)" class="st9 st10"> </text>
		<text transform="matrix(1 0 0 1 19.8041 -0.5625)" class="st9 st5"> </text>
		<text transform="matrix(1 0 0 1 24.8901 -0.5625)" class="st9 st5">=</text>
		<text transform="matrix(1 0 0 1 38.2963 -0.5625)" class="st9 st5"> </text>
		<text transform="matrix(1 0 0 1 43.3823 -0.5625)" class="st9 st5">0</text>
		<text transform="matrix(1 0 0 1 53.562 -0.5625)" class="st9 st5">.</text>
		<text transform="matrix(1 0 0 1 58.6479 -0.5625)" class="st9 st5">9</text>
		<text transform="matrix(1 0 0 1 68.8276 -0.5625)" class="st9 st5">8</text>
	</g>
</g>
<g id="text_16">
	<text transform="matrix(1 0 0 1 123.4625 22.6801)" class="st3 st5">CV2_invgauss2_05-14-2024</text>
</g>
</svg>
