<?xml version="1.0" encoding="utf-8"?>
<!-- Generator: Adobe Illustrator 28.0.0, SVG Export Plug-In . SVG Version: 6.00 Build 0)  -->
<svg version="1.1" id="Layer_1" xmlns="http://www.w3.org/2000/svg" xmlns:xlink="http://www.w3.org/1999/xlink" x="0px" y="0px"
	 viewBox="0 0 460.8 345.6" style="enable-background:new 0 0 460.8 345.6;" xml:space="preserve">
<style type="text/css">
	.st0{clip-path:url(#SVGID_00000147926749926741461570000014799155328319459768_);}
	.st1{fill:#0000FF;stroke:#0000FF;stroke-linejoin:round;}
	.st2{stroke:#000000;stroke-width:0.8;stroke-linejoin:round;}
	.st3{font-family:'LucidaBright';}
	.st4{font-size:14px;}
	.st5{font-size:16px;}
	
		.st6{clip-path:url(#SVGID_00000158751629879552805160000004680083707962806682_);fill:none;stroke:#000000;stroke-width:2;stroke-linejoin:round;stroke-dasharray:7.4,3.2;}
	
		.st7{clip-path:url(#SVGID_00000162312757061355172860000003938965983151617211_);fill:none;stroke:#000000;stroke-width:2;stroke-linecap:square;stroke-linejoin:round;}
	.st8{fill:none;stroke:#000000;stroke-width:0.8;stroke-linecap:square;}
	.st9{font-family:'ArialMT';}
	.st10{font-size:12px;}
	.st11{font-size:11.2px;}
</style>
<g id="PathCollection_1">
	<g>
		<defs>
			<rect id="SVGID_1_" x="97.4" y="28.7" width="266" height="266"/>
		</defs>
		<clipPath id="SVGID_00000071522417054876454710000009405643049250863496_">
			<use xlink:href="#SVGID_1_"  style="overflow:visible;"/>
		</clipPath>
		<g style="clip-path:url(#SVGID_00000071522417054876454710000009405643049250863496_);">
			<g>
				<path id="mda11a2bff9" class="st1" d="M313,80.3c0.6,0,1.3-0.3,1.7-0.7c0.5-0.5,0.7-1.1,0.7-1.7s-0.3-1.3-0.7-1.7
					c-0.5-0.5-1.1-0.7-1.7-0.7s-1.3,0.3-1.7,0.7c-0.5,0.5-0.7,1.1-0.7,1.7s0.3,1.3,0.7,1.7C311.7,80.1,312.3,80.3,313,80.3z"/>
			</g>
			<g>
				<path id="mda11a2bff9_00000152979796113120699900000013444025239549986741_" class="st1" d="M317.5,65.7c0.6,0,1.3-0.3,1.7-0.7
					c0.5-0.5,0.7-1.1,0.7-1.7s-0.3-1.3-0.7-1.7c-0.5-0.5-1.1-0.7-1.7-0.7s-1.3,0.3-1.7,0.7c-0.5,0.5-0.7,1.1-0.7,1.7
					s0.3,1.3,0.7,1.7C316.2,65.5,316.9,65.7,317.5,65.7z"/>
			</g>
			<g>
				<path id="mda11a2bff9_00000060019239782701591210000001414234729514676651_" class="st1" d="M157.1,241.8c0.6,0,1.3-0.3,1.7-0.7
					c0.5-0.5,0.7-1.1,0.7-1.7s-0.3-1.3-0.7-1.7c-0.5-0.5-1.1-0.7-1.7-0.7s-1.3,0.3-1.7,0.7c-0.5,0.5-0.7,1.1-0.7,1.7
					s0.3,1.3,0.7,1.7C155.8,241.5,156.4,241.8,157.1,241.8z"/>
			</g>
			<g>
				<path id="mda11a2bff9_00000130630460343423413360000006994073479678627201_" class="st1" d="M208.1,189.8c0.6,0,1.3-0.3,1.7-0.7
					c0.5-0.5,0.7-1.1,0.7-1.7s-0.3-1.3-0.7-1.7c-0.5-0.5-1.1-0.7-1.7-0.7s-1.3,0.3-1.7,0.7c-0.5,0.5-0.7,1.1-0.7,1.7
					s0.3,1.3,0.7,1.7C206.9,189.5,207.5,189.8,208.1,189.8z"/>
			</g>
			<g>
				<path id="mda11a2bff9_00000061462889232687754450000017081225872491549834_" class="st1" d="M298.5,98.3c0.6,0,1.3-0.3,1.7-0.7
					c0.5-0.5,0.7-1.1,0.7-1.7s-0.3-1.3-0.7-1.7c-0.5-0.5-1.1-0.7-1.7-0.7s-1.3,0.3-1.7,0.7c-0.5,0.5-0.7,1.1-0.7,1.7
					s0.3,1.3,0.7,1.7C297.2,98.1,297.8,98.3,298.5,98.3z"/>
			</g>
			<g>
				<path id="mda11a2bff9_00000079485021389866326080000008404366540708596643_" class="st1" d="M181.3,208.8c0.6,0,1.3-0.3,1.7-0.7
					c0.5-0.5,0.7-1.1,0.7-1.7s-0.3-1.3-0.7-1.7c-0.5-0.5-1.1-0.7-1.7-0.7s-1.3,0.3-1.7,0.7c-0.5,0.5-0.7,1.1-0.7,1.7
					s0.3,1.3,0.7,1.7C180.1,208.6,180.7,208.8,181.3,208.8z"/>
			</g>
			<g>
				<path id="mda11a2bff9_00000055687054174314209250000006527007861004040376_" class="st1" d="M193.6,188c0.6,0,1.3-0.3,1.7-0.7
					c0.5-0.5,0.7-1.1,0.7-1.7s-0.3-1.3-0.7-1.7c-0.5-0.5-1.1-0.7-1.7-0.7s-1.3,0.3-1.7,0.7c-0.5,0.5-0.7,1.1-0.7,1.7
					s0.3,1.3,0.7,1.7C192.4,187.8,193,188,193.6,188z"/>
			</g>
			<g>
				<path id="mda11a2bff9_00000021116634427651009460000004054299484236870563_" class="st1" d="M304.1,80.4c0.6,0,1.3-0.3,1.7-0.7
					c0.5-0.5,0.7-1.1,0.7-1.7s-0.3-1.3-0.7-1.7c-0.5-0.5-1.1-0.7-1.7-0.7s-1.3,0.3-1.7,0.7c-0.5,0.5-0.7,1.1-0.7,1.7
					s0.3,1.3,0.7,1.7C302.8,80.2,303.4,80.4,304.1,80.4z"/>
			</g>
			<g>
				<path id="mda11a2bff9_00000176728314768224997100000003020850700768078986_" class="st1" d="M220.7,174.4c0.6,0,1.3-0.3,1.7-0.7
					c0.5-0.5,0.7-1.1,0.7-1.7s-0.3-1.3-0.7-1.7c-0.5-0.5-1.1-0.7-1.7-0.7s-1.3,0.3-1.7,0.7c-0.5,0.5-0.7,1.1-0.7,1.7
					s0.3,1.3,0.7,1.7C219.4,174.1,220,174.4,220.7,174.4z"/>
			</g>
			<g>
				<path id="mda11a2bff9_00000036237189352130353100000017626869350089737130_" class="st1" d="M155.8,237c0.6,0,1.3-0.3,1.7-0.7
					c0.5-0.5,0.7-1.1,0.7-1.7s-0.3-1.3-0.7-1.7c-0.5-0.5-1.1-0.7-1.7-0.7s-1.3,0.3-1.7,0.7c-0.5,0.5-0.7,1.1-0.7,1.7
					s0.3,1.3,0.7,1.7C154.5,236.7,155.2,237,155.8,237z"/>
			</g>
			<g>
				<path id="mda11a2bff9_00000067951306696788947720000013319350841165855118_" class="st1" d="M210.4,169.1c0.6,0,1.3-0.3,1.7-0.7
					c0.5-0.5,0.7-1.1,0.7-1.7s-0.3-1.3-0.7-1.7c-0.5-0.5-1.1-0.7-1.7-0.7s-1.3,0.3-1.7,0.7c-0.5,0.5-0.7,1.1-0.7,1.7
					s0.3,1.3,0.7,1.7C209.1,168.8,209.8,169.1,210.4,169.1z"/>
			</g>
			<g>
				<path id="mda11a2bff9_00000121998800977494816430000001869218196639930530_" class="st1" d="M111.6,282.5c0.6,0,1.3-0.3,1.7-0.7
					c0.5-0.5,0.7-1.1,0.7-1.7c0-0.6-0.3-1.3-0.7-1.7c-0.5-0.5-1.1-0.7-1.7-0.7s-1.3,0.3-1.7,0.7c-0.5,0.5-0.7,1.1-0.7,1.7
					c0,0.6,0.3,1.3,0.7,1.7C110.4,282.2,111,282.5,111.6,282.5z"/>
			</g>
			<g>
				<path id="mda11a2bff9_00000028307238425061163970000008151537986737326248_" class="st1" d="M319.4,97.1c0.6,0,1.3-0.3,1.7-0.7
					c0.5-0.5,0.7-1.1,0.7-1.7s-0.3-1.3-0.7-1.7c-0.5-0.5-1.1-0.7-1.7-0.7s-1.3,0.3-1.7,0.7c-0.5,0.5-0.7,1.1-0.7,1.7
					s0.3,1.3,0.7,1.7C318.1,96.8,318.7,97.1,319.4,97.1z"/>
			</g>
			<g>
				<path id="mda11a2bff9_00000144306987260370591750000004035786908577418920_" class="st1" d="M233.8,169.5c0.6,0,1.3-0.3,1.7-0.7
					c0.5-0.5,0.7-1.1,0.7-1.7s-0.3-1.3-0.7-1.7c-0.5-0.5-1.1-0.7-1.7-0.7s-1.3,0.3-1.7,0.7c-0.5,0.5-0.7,1.1-0.7,1.7
					s0.3,1.3,0.7,1.7C232.5,169.2,233.1,169.5,233.8,169.5z"/>
			</g>
			<g>
				<path id="mda11a2bff9_00000054956144661004075200000010684429293025837977_" class="st1" d="M187.7,210.6c0.6,0,1.3-0.3,1.7-0.7
					c0.5-0.5,0.7-1.1,0.7-1.7s-0.3-1.3-0.7-1.7c-0.5-0.5-1.1-0.7-1.7-0.7s-1.3,0.3-1.7,0.7c-0.5,0.5-0.7,1.1-0.7,1.7
					s0.3,1.3,0.7,1.7C186.4,210.3,187,210.6,187.7,210.6z"/>
			</g>
			<g>
				<path id="mda11a2bff9_00000034078471231321268970000004954493521201255853_" class="st1" d="M114.9,280.3c0.6,0,1.3-0.3,1.7-0.7
					c0.5-0.5,0.7-1.1,0.7-1.7c0-0.6-0.3-1.3-0.7-1.7c-0.5-0.5-1.1-0.7-1.7-0.7s-1.3,0.3-1.7,0.7c-0.5,0.5-0.7,1.1-0.7,1.7
					c0,0.6,0.3,1.3,0.7,1.7C113.7,280.1,114.3,280.3,114.9,280.3z"/>
			</g>
			<g>
				<path id="mda11a2bff9_00000145038228076277674970000014977839611717738397_" class="st1" d="M291.7,95c0.6,0,1.3-0.3,1.7-0.7
					c0.5-0.5,0.7-1.1,0.7-1.7s-0.3-1.3-0.7-1.7c-0.5-0.5-1.1-0.7-1.7-0.7s-1.3,0.3-1.7,0.7c-0.5,0.5-0.7,1.1-0.7,1.7
					s0.3,1.3,0.7,1.7C290.4,94.7,291,95,291.7,95z"/>
			</g>
			<g>
				<path id="mda11a2bff9_00000067209382149443469340000009114159710197764004_" class="st1" d="M173.6,211.4c0.6,0,1.3-0.3,1.7-0.7
					c0.5-0.5,0.7-1.1,0.7-1.7s-0.3-1.3-0.7-1.7c-0.5-0.5-1.1-0.7-1.7-0.7s-1.3,0.3-1.7,0.7c-0.5,0.5-0.7,1.1-0.7,1.7
					s0.3,1.3,0.7,1.7C172.3,211.1,172.9,211.4,173.6,211.4z"/>
			</g>
			<g>
				<path id="mda11a2bff9_00000137124220111206176260000013119828827983562164_" class="st1" d="M195.1,200.6c0.6,0,1.3-0.3,1.7-0.7
					c0.5-0.5,0.7-1.1,0.7-1.7s-0.3-1.3-0.7-1.7c-0.5-0.5-1.1-0.7-1.7-0.7s-1.3,0.3-1.7,0.7c-0.5,0.5-0.7,1.1-0.7,1.7
					s0.3,1.3,0.7,1.7C193.9,200.3,194.5,200.6,195.1,200.6z"/>
			</g>
			<g>
				<path id="mda11a2bff9_00000183939122914077133460000017501215160502279042_" class="st1" d="M167.3,227.5c0.6,0,1.3-0.3,1.7-0.7
					c0.5-0.5,0.7-1.1,0.7-1.7s-0.3-1.3-0.7-1.7c-0.5-0.5-1.1-0.7-1.7-0.7s-1.3,0.3-1.7,0.7c-0.5,0.5-0.7,1.1-0.7,1.7
					s0.3,1.3,0.7,1.7C166.1,227.3,166.7,227.5,167.3,227.5z"/>
			</g>
			<g>
				<path id="mda11a2bff9_00000029047853865888888340000012566078870137674131_" class="st1" d="M157.9,237.4c0.6,0,1.3-0.3,1.7-0.7
					c0.5-0.5,0.7-1.1,0.7-1.7s-0.3-1.3-0.7-1.7c-0.5-0.5-1.1-0.7-1.7-0.7s-1.3,0.3-1.7,0.7c-0.5,0.5-0.7,1.1-0.7,1.7
					s0.3,1.3,0.7,1.7C156.6,237.1,157.3,237.4,157.9,237.4z"/>
			</g>
			<g>
				<path id="mda11a2bff9_00000159444552168819741380000018261030312707676835_" class="st1" d="M159.5,234.3c0.6,0,1.3-0.3,1.7-0.7
					c0.5-0.5,0.7-1.1,0.7-1.7s-0.3-1.3-0.7-1.7c-0.5-0.5-1.1-0.7-1.7-0.7s-1.3,0.3-1.7,0.7c-0.5,0.5-0.7,1.1-0.7,1.7
					s0.3,1.3,0.7,1.7C158.3,234,158.9,234.3,159.5,234.3z"/>
			</g>
			<g>
				<path id="mda11a2bff9_00000104684965106392908350000005481944780190612402_" class="st1" d="M121.4,274.6c0.6,0,1.3-0.3,1.7-0.7
					c0.5-0.5,0.7-1.1,0.7-1.7c0-0.6-0.3-1.3-0.7-1.7c-0.5-0.5-1.1-0.7-1.7-0.7s-1.3,0.3-1.7,0.7c-0.5,0.5-0.7,1.1-0.7,1.7
					c0,0.6,0.3,1.3,0.7,1.7C120.1,274.4,120.7,274.6,121.4,274.6z"/>
			</g>
			<g>
				<path id="mda11a2bff9_00000111909581801661540790000006922191911781107350_" class="st1" d="M112.2,282.1c0.6,0,1.3-0.3,1.7-0.7
					c0.5-0.5,0.7-1.1,0.7-1.7c0-0.6-0.3-1.3-0.7-1.7c-0.5-0.5-1.1-0.7-1.7-0.7s-1.3,0.3-1.7,0.7c-0.5,0.5-0.7,1.1-0.7,1.7
					c0,0.6,0.3,1.3,0.7,1.7C110.9,281.9,111.5,282.1,112.2,282.1z"/>
			</g>
			<g>
				<path id="mda11a2bff9_00000004538348122952958210000014429602395056700819_" class="st1" d="M176.8,221.2c0.6,0,1.3-0.3,1.7-0.7
					c0.5-0.5,0.7-1.1,0.7-1.7s-0.3-1.3-0.7-1.7c-0.5-0.5-1.1-0.7-1.7-0.7s-1.3,0.3-1.7,0.7c-0.5,0.5-0.7,1.1-0.7,1.7
					s0.3,1.3,0.7,1.7C175.5,221,176.1,221.2,176.8,221.2z"/>
			</g>
			<g>
				<path id="mda11a2bff9_00000041993878060527634820000004126598520519880379_" class="st1" d="M188.3,201.8c0.6,0,1.3-0.3,1.7-0.7
					c0.5-0.5,0.7-1.1,0.7-1.7s-0.3-1.3-0.7-1.7c-0.5-0.5-1.1-0.7-1.7-0.7s-1.3,0.3-1.7,0.7c-0.5,0.5-0.7,1.1-0.7,1.7
					s0.3,1.3,0.7,1.7C187,201.6,187.6,201.8,188.3,201.8z"/>
			</g>
			<g>
				<path id="mda11a2bff9_00000078043658832406953430000011790092833704880315_" class="st1" d="M124.3,269.8c0.6,0,1.3-0.3,1.7-0.7
					c0.5-0.5,0.7-1.1,0.7-1.7c0-0.6-0.3-1.3-0.7-1.7c-0.5-0.5-1.1-0.7-1.7-0.7s-1.3,0.3-1.7,0.7c-0.5,0.5-0.7,1.1-0.7,1.7
					c0,0.6,0.3,1.3,0.7,1.7C123,269.5,123.6,269.8,124.3,269.8z"/>
			</g>
			<g>
				<path id="mda11a2bff9_00000022526249350860471070000009454346375440427185_" class="st1" d="M116.6,276.8c0.6,0,1.3-0.3,1.7-0.7
					c0.5-0.5,0.7-1.1,0.7-1.7c0-0.6-0.3-1.3-0.7-1.7c-0.5-0.5-1.1-0.7-1.7-0.7s-1.3,0.3-1.7,0.7c-0.5,0.5-0.7,1.1-0.7,1.7
					c0,0.6,0.3,1.3,0.7,1.7C115.3,276.5,115.9,276.8,116.6,276.8z"/>
			</g>
			<g>
				<path id="mda11a2bff9_00000008867559600455144190000003073652726892971940_" class="st1" d="M322.3,73.9c0.6,0,1.3-0.3,1.7-0.7
					c0.5-0.5,0.7-1.1,0.7-1.7s-0.3-1.3-0.7-1.7c-0.5-0.5-1.1-0.7-1.7-0.7s-1.3,0.3-1.7,0.7c-0.5,0.5-0.7,1.1-0.7,1.7
					s0.3,1.3,0.7,1.7C321,73.6,321.7,73.9,322.3,73.9z"/>
			</g>
			<g>
				<path id="mda11a2bff9_00000166646771374219100670000006062924180981768072_" class="st1" d="M274.3,116.6c0.6,0,1.3-0.3,1.7-0.7
					c0.5-0.5,0.7-1.1,0.7-1.7s-0.3-1.3-0.7-1.7c-0.5-0.5-1.1-0.7-1.7-0.7s-1.3,0.3-1.7,0.7c-0.5,0.5-0.7,1.1-0.7,1.7
					s0.3,1.3,0.7,1.7C273.1,116.3,273.7,116.6,274.3,116.6z"/>
			</g>
			<g>
				<path id="mda11a2bff9_00000048500019410274534480000000549211422459921563_" class="st1" d="M285.4,111.9c0.6,0,1.3-0.3,1.7-0.7
					c0.5-0.5,0.7-1.1,0.7-1.7s-0.3-1.3-0.7-1.7c-0.5-0.5-1.1-0.7-1.7-0.7s-1.3,0.3-1.7,0.7c-0.5,0.5-0.7,1.1-0.7,1.7
					s0.3,1.3,0.7,1.7C284.2,111.7,284.8,111.9,285.4,111.9z"/>
			</g>
			<g>
				<path id="mda11a2bff9_00000147918983783808905140000009991160244016720517_" class="st1" d="M320.2,80.4c0.6,0,1.3-0.3,1.7-0.7
					c0.5-0.5,0.7-1.1,0.7-1.7s-0.3-1.3-0.7-1.7c-0.5-0.5-1.1-0.7-1.7-0.7s-1.3,0.3-1.7,0.7c-0.5,0.5-0.7,1.1-0.7,1.7
					s0.3,1.3,0.7,1.7C318.9,80.1,319.6,80.4,320.2,80.4z"/>
			</g>
			<g>
				<path id="mda11a2bff9_00000139285556489050459390000002732127049967144585_" class="st1" d="M324.6,64.9c0.6,0,1.3-0.3,1.7-0.7
					c0.5-0.5,0.7-1.1,0.7-1.7s-0.3-1.3-0.7-1.7c-0.5-0.5-1.1-0.7-1.7-0.7s-1.3,0.3-1.7,0.7c-0.5,0.5-0.7,1.1-0.7,1.7
					s0.3,1.3,0.7,1.7C323.4,64.7,324,64.9,324.6,64.9z"/>
			</g>
			<g>
				<path id="mda11a2bff9_00000032611764792104123800000005713002675729247913_" class="st1" d="M185.8,207.1c0.6,0,1.3-0.3,1.7-0.7
					c0.5-0.5,0.7-1.1,0.7-1.7s-0.3-1.3-0.7-1.7c-0.5-0.5-1.1-0.7-1.7-0.7s-1.3,0.3-1.7,0.7c-0.5,0.5-0.7,1.1-0.7,1.7
					s0.3,1.3,0.7,1.7C184.5,206.9,185.1,207.1,185.8,207.1z"/>
			</g>
			<g>
				<path id="mda11a2bff9_00000165912686041803755620000015099901141209433995_" class="st1" d="M211.3,181.3c0.6,0,1.3-0.3,1.7-0.7
					c0.5-0.5,0.7-1.1,0.7-1.7s-0.3-1.3-0.7-1.7c-0.5-0.5-1.1-0.7-1.7-0.7s-1.3,0.3-1.7,0.7c-0.5,0.5-0.7,1.1-0.7,1.7
					s0.3,1.3,0.7,1.7C210,181.1,210.7,181.3,211.3,181.3z"/>
			</g>
			<g>
				<path id="mda11a2bff9_00000099648467848385420690000012636796429895332504_" class="st1" d="M263.5,117.4c0.6,0,1.3-0.3,1.7-0.7
					c0.5-0.5,0.7-1.1,0.7-1.7s-0.3-1.3-0.7-1.7c-0.5-0.5-1.1-0.7-1.7-0.7s-1.3,0.3-1.7,0.7c-0.5,0.5-0.7,1.1-0.7,1.7
					s0.3,1.3,0.7,1.7C262.2,117.1,262.9,117.4,263.5,117.4z"/>
			</g>
			<g>
				<path id="mda11a2bff9_00000110443581991188044920000005940166411040621215_" class="st1" d="M180.4,220.8c0.6,0,1.3-0.3,1.7-0.7
					c0.5-0.5,0.7-1.1,0.7-1.7s-0.3-1.3-0.7-1.7c-0.5-0.5-1.1-0.7-1.7-0.7s-1.3,0.3-1.7,0.7c-0.5,0.5-0.7,1.1-0.7,1.7
					s0.3,1.3,0.7,1.7C179.1,220.5,179.7,220.8,180.4,220.8z"/>
			</g>
			<g>
				<path id="mda11a2bff9_00000076602715220344131690000014280971239219282604_" class="st1" d="M335.9,58.9c0.6,0,1.3-0.3,1.7-0.7
					c0.5-0.5,0.7-1.1,0.7-1.7s-0.3-1.3-0.7-1.7c-0.5-0.5-1.1-0.7-1.7-0.7s-1.3,0.3-1.7,0.7c-0.5,0.5-0.7,1.1-0.7,1.7
					s0.3,1.3,0.7,1.7C334.6,58.6,335.2,58.9,335.9,58.9z"/>
			</g>
			<g>
				<path id="mda11a2bff9_00000153696759044232276460000012524478077661799585_" class="st1" d="M335.7,56.4c0.6,0,1.3-0.3,1.7-0.7
					c0.5-0.5,0.7-1.1,0.7-1.7s-0.3-1.3-0.7-1.7c-0.5-0.5-1.1-0.7-1.7-0.7s-1.3,0.3-1.7,0.7c-0.5,0.5-0.7,1.1-0.7,1.7
					s0.3,1.3,0.7,1.7C334.4,56.2,335.1,56.4,335.7,56.4z"/>
			</g>
			<g>
				<path id="mda11a2bff9_00000117651832381531330900000004114038446098464138_" class="st1" d="M344.1,58.8c0.6,0,1.3-0.3,1.7-0.7
					c0.5-0.5,0.7-1.1,0.7-1.7s-0.3-1.3-0.7-1.7c-0.5-0.5-1.1-0.7-1.7-0.7s-1.3,0.3-1.7,0.7c-0.5,0.5-0.7,1.1-0.7,1.7
					s0.3,1.3,0.7,1.7C342.8,58.5,343.4,58.8,344.1,58.8z"/>
			</g>
			<g>
				<path id="mda11a2bff9_00000061454961843622332100000000738443091361419685_" class="st1" d="M324,78.3c0.6,0,1.3-0.3,1.7-0.7
					c0.5-0.5,0.7-1.1,0.7-1.7s-0.3-1.3-0.7-1.7c-0.5-0.5-1.1-0.7-1.7-0.7s-1.3,0.3-1.7,0.7c-0.5,0.5-0.7,1.1-0.7,1.7
					s0.3,1.3,0.7,1.7C322.7,78,323.4,78.3,324,78.3z"/>
			</g>
			<g>
				<path id="mda11a2bff9_00000140717205688799991740000001480848686400659632_" class="st1" d="M188.8,196.4c0.6,0,1.3-0.3,1.7-0.7
					c0.5-0.5,0.7-1.1,0.7-1.7s-0.3-1.3-0.7-1.7c-0.5-0.5-1.1-0.7-1.7-0.7s-1.3,0.3-1.7,0.7c-0.5,0.5-0.7,1.1-0.7,1.7
					s0.3,1.3,0.7,1.7C187.6,196.2,188.2,196.4,188.8,196.4z"/>
			</g>
			<g>
				<path id="mda11a2bff9_00000029734063935993443210000013952713022478912425_" class="st1" d="M213.2,182.1c0.6,0,1.3-0.3,1.7-0.7
					c0.5-0.5,0.7-1.1,0.7-1.7s-0.3-1.3-0.7-1.7c-0.5-0.5-1.1-0.7-1.7-0.7s-1.3,0.3-1.7,0.7c-0.5,0.5-0.7,1.1-0.7,1.7
					s0.3,1.3,0.7,1.7C211.9,181.8,212.5,182.1,213.2,182.1z"/>
			</g>
			<g>
				<path id="mda11a2bff9_00000159469190946552279940000009594837164977775243_" class="st1" d="M247,143.3c0.6,0,1.3-0.3,1.7-0.7
					c0.5-0.5,0.7-1.1,0.7-1.7s-0.3-1.3-0.7-1.7c-0.5-0.5-1.1-0.7-1.7-0.7s-1.3,0.3-1.7,0.7c-0.5,0.5-0.7,1.1-0.7,1.7
					s0.3,1.3,0.7,1.7C245.7,143.1,246.3,143.3,247,143.3z"/>
			</g>
			<g>
				<path id="mda11a2bff9_00000057142451623309920130000008427355450233687729_" class="st1" d="M128.2,267.6c0.6,0,1.3-0.3,1.7-0.7
					c0.5-0.5,0.7-1.1,0.7-1.7c0-0.6-0.3-1.3-0.7-1.7c-0.5-0.5-1.1-0.7-1.7-0.7s-1.3,0.3-1.7,0.7c-0.5,0.5-0.7,1.1-0.7,1.7
					c0,0.6,0.3,1.3,0.7,1.7C127,267.4,127.6,267.6,128.2,267.6z"/>
			</g>
			<g>
				<path id="mda11a2bff9_00000042702366361315014090000006295246493132816533_" class="st1" d="M173.3,226.9c0.6,0,1.3-0.3,1.7-0.7
					c0.5-0.5,0.7-1.1,0.7-1.7s-0.3-1.3-0.7-1.7c-0.5-0.5-1.1-0.7-1.7-0.7s-1.3,0.3-1.7,0.7c-0.5,0.5-0.7,1.1-0.7,1.7
					s0.3,1.3,0.7,1.7C172,226.7,172.6,226.9,173.3,226.9z"/>
			</g>
			<g>
				<path id="mda11a2bff9_00000096758247037697642830000001422708394406645913_" class="st1" d="M243.4,151.4c0.6,0,1.3-0.3,1.7-0.7
					c0.5-0.5,0.7-1.1,0.7-1.7s-0.3-1.3-0.7-1.7c-0.5-0.5-1.1-0.7-1.7-0.7s-1.3,0.3-1.7,0.7c-0.5,0.5-0.7,1.1-0.7,1.7
					s0.3,1.3,0.7,1.7C242.1,151.1,242.7,151.4,243.4,151.4z"/>
			</g>
			<g>
				<path id="mda11a2bff9_00000056397376764978190860000016307608857453445021_" class="st1" d="M130.6,266.3c0.6,0,1.3-0.3,1.7-0.7
					c0.5-0.5,0.7-1.1,0.7-1.7c0-0.6-0.3-1.3-0.7-1.7c-0.5-0.5-1.1-0.7-1.7-0.7s-1.3,0.3-1.7,0.7c-0.5,0.5-0.7,1.1-0.7,1.7
					c0,0.6,0.3,1.3,0.7,1.7C129.3,266.1,129.9,266.3,130.6,266.3z"/>
			</g>
			<g>
				<path id="mda11a2bff9_00000064337705675994034380000000412249830645291449_" class="st1" d="M293.2,106.5c0.6,0,1.3-0.3,1.7-0.7
					c0.5-0.5,0.7-1.1,0.7-1.7s-0.3-1.3-0.7-1.7c-0.5-0.5-1.1-0.7-1.7-0.7s-1.3,0.3-1.7,0.7c-0.5,0.5-0.7,1.1-0.7,1.7
					s0.3,1.3,0.7,1.7C291.9,106.2,292.6,106.5,293.2,106.5z"/>
			</g>
			<g>
				<path id="mda11a2bff9_00000013191237856474061030000015363102354968278718_" class="st1" d="M170.2,223.7c0.6,0,1.3-0.3,1.7-0.7
					c0.5-0.5,0.7-1.1,0.7-1.7s-0.3-1.3-0.7-1.7c-0.5-0.5-1.1-0.7-1.7-0.7s-1.3,0.3-1.7,0.7c-0.5,0.5-0.7,1.1-0.7,1.7
					s0.3,1.3,0.7,1.7C168.9,223.5,169.6,223.7,170.2,223.7z"/>
			</g>
			<g>
				<path id="mda11a2bff9_00000034079987356743405980000018352667226419531685_" class="st1" d="M129.7,263.4c0.6,0,1.3-0.3,1.7-0.7
					c0.5-0.5,0.7-1.1,0.7-1.7c0-0.6-0.3-1.3-0.7-1.7c-0.5-0.5-1.1-0.7-1.7-0.7s-1.3,0.3-1.7,0.7c-0.5,0.5-0.7,1.1-0.7,1.7
					c0,0.6,0.3,1.3,0.7,1.7C128.4,263.1,129,263.4,129.7,263.4z"/>
			</g>
			<g>
				<path id="mda11a2bff9_00000150797494190104105500000014270256500416453560_" class="st1" d="M271.4,116.8c0.6,0,1.3-0.3,1.7-0.7
					c0.5-0.5,0.7-1.1,0.7-1.7s-0.3-1.3-0.7-1.7c-0.5-0.5-1.1-0.7-1.7-0.7s-1.3,0.3-1.7,0.7c-0.5,0.5-0.7,1.1-0.7,1.7
					s0.3,1.3,0.7,1.7C270.1,116.5,270.7,116.8,271.4,116.8z"/>
			</g>
			<g>
				<path id="mda11a2bff9_00000052088399972905504450000000684184098590706096_" class="st1" d="M279.5,98.9c0.6,0,1.3-0.3,1.7-0.7
					c0.5-0.5,0.7-1.1,0.7-1.7s-0.3-1.3-0.7-1.7c-0.5-0.5-1.1-0.7-1.7-0.7s-1.3,0.3-1.7,0.7c-0.5,0.5-0.7,1.1-0.7,1.7
					s0.3,1.3,0.7,1.7C278.2,98.6,278.8,98.9,279.5,98.9z"/>
			</g>
			<g>
				<path id="mda11a2bff9_00000129192672882138708500000002007199510640219530_" class="st1" d="M184.4,207c0.6,0,1.3-0.3,1.7-0.7
					c0.5-0.5,0.7-1.1,0.7-1.7s-0.3-1.3-0.7-1.7c-0.5-0.5-1.1-0.7-1.7-0.7s-1.3,0.3-1.7,0.7c-0.5,0.5-0.7,1.1-0.7,1.7
					s0.3,1.3,0.7,1.7C183.1,206.8,183.7,207,184.4,207z"/>
			</g>
			<g>
				<path id="mda11a2bff9_00000085936848673004148000000003989764089018003133_" class="st1" d="M191.5,206.7c0.6,0,1.3-0.3,1.7-0.7
					c0.5-0.5,0.7-1.1,0.7-1.7s-0.3-1.3-0.7-1.7c-0.5-0.5-1.1-0.7-1.7-0.7s-1.3,0.3-1.7,0.7c-0.5,0.5-0.7,1.1-0.7,1.7
					s0.3,1.3,0.7,1.7C190.2,206.5,190.9,206.7,191.5,206.7z"/>
			</g>
			<g>
				<path id="mda11a2bff9_00000133488593143902248610000010029767048121267645_" class="st1" d="M146.3,247.8c0.6,0,1.3-0.3,1.7-0.7
					c0.5-0.5,0.7-1.1,0.7-1.7s-0.3-1.3-0.7-1.7c-0.5-0.5-1.1-0.7-1.7-0.7s-1.3,0.3-1.7,0.7c-0.5,0.5-0.7,1.1-0.7,1.7
					s0.3,1.3,0.7,1.7C145,247.5,145.7,247.8,146.3,247.8z"/>
			</g>
			<g>
				<path id="mda11a2bff9_00000022560715176552021910000003803340021743420817_" class="st1" d="M242.3,135.2c0.6,0,1.3-0.3,1.7-0.7
					c0.5-0.5,0.7-1.1,0.7-1.7s-0.3-1.3-0.7-1.7c-0.5-0.5-1.1-0.7-1.7-0.7s-1.3,0.3-1.7,0.7c-0.5,0.5-0.7,1.1-0.7,1.7
					s0.3,1.3,0.7,1.7C241.1,134.9,241.7,135.2,242.3,135.2z"/>
			</g>
			<g>
				<path id="mda11a2bff9_00000034807396319596013870000007281031024585800065_" class="st1" d="M317.8,78.9c0.6,0,1.3-0.3,1.7-0.7
					c0.5-0.5,0.7-1.1,0.7-1.7s-0.3-1.3-0.7-1.7c-0.5-0.5-1.1-0.7-1.7-0.7s-1.3,0.3-1.7,0.7c-0.5,0.5-0.7,1.1-0.7,1.7
					s0.3,1.3,0.7,1.7C316.5,78.6,317.1,78.9,317.8,78.9z"/>
			</g>
			<g>
				<path id="mda11a2bff9_00000152225913795644102480000004445230652189241487_" class="st1" d="M349.6,56.5c0.6,0,1.3-0.3,1.7-0.7
					c0.5-0.5,0.7-1.1,0.7-1.7s-0.3-1.3-0.7-1.7c-0.5-0.5-1.1-0.7-1.7-0.7s-1.3,0.3-1.7,0.7c-0.5,0.5-0.7,1.1-0.7,1.7
					s0.3,1.3,0.7,1.7C348.4,56.3,349,56.5,349.6,56.5z"/>
			</g>
			<g>
				<path id="mda11a2bff9_00000013899820070391047800000009875479766910539701_" class="st1" d="M346.6,43.2c0.6,0,1.3-0.3,1.7-0.7
					c0.5-0.5,0.7-1.1,0.7-1.7s-0.3-1.3-0.7-1.7c-0.5-0.5-1.1-0.7-1.7-0.7s-1.3,0.3-1.7,0.7c-0.5,0.5-0.7,1.1-0.7,1.7
					s0.3,1.3,0.7,1.7C345.3,43,345.9,43.2,346.6,43.2z"/>
			</g>
			<g>
				<path id="mda11a2bff9_00000007408884842820175270000001774048181134390188_" class="st1" d="M306.9,75.1c0.6,0,1.3-0.3,1.7-0.7
					c0.5-0.5,0.7-1.1,0.7-1.7s-0.3-1.3-0.7-1.7c-0.5-0.5-1.1-0.7-1.7-0.7s-1.3,0.3-1.7,0.7c-0.5,0.5-0.7,1.1-0.7,1.7
					s0.3,1.3,0.7,1.7C305.7,74.9,306.3,75.1,306.9,75.1z"/>
			</g>
			<g>
				<path id="mda11a2bff9_00000004508632767651698180000007821145027877012151_" class="st1" d="M156.6,240.7c0.6,0,1.3-0.3,1.7-0.7
					c0.5-0.5,0.7-1.1,0.7-1.7s-0.3-1.3-0.7-1.7c-0.5-0.5-1.1-0.7-1.7-0.7s-1.3,0.3-1.7,0.7c-0.5,0.5-0.7,1.1-0.7,1.7
					s0.3,1.3,0.7,1.7C155.3,240.5,156,240.7,156.6,240.7z"/>
			</g>
			<g>
				<path id="mda11a2bff9_00000071550694698728055810000017985154234864091310_" class="st1" d="M133.3,260.6c0.6,0,1.3-0.3,1.7-0.7
					c0.5-0.5,0.7-1.1,0.7-1.7c0-0.6-0.3-1.3-0.7-1.7c-0.5-0.5-1.1-0.7-1.7-0.7s-1.3,0.3-1.7,0.7c-0.5,0.5-0.7,1.1-0.7,1.7
					c0,0.6,0.3,1.3,0.7,1.7C132,260.4,132.7,260.6,133.3,260.6z"/>
			</g>
			<g>
				<path id="mda11a2bff9_00000108276031111720066250000000946418913322804159_" class="st1" d="M171.6,220.2c0.6,0,1.3-0.3,1.7-0.7
					c0.5-0.5,0.7-1.1,0.7-1.7s-0.3-1.3-0.7-1.7c-0.5-0.5-1.1-0.7-1.7-0.7s-1.3,0.3-1.7,0.7c-0.5,0.5-0.7,1.1-0.7,1.7
					s0.3,1.3,0.7,1.7C170.4,220,171,220.2,171.6,220.2z"/>
			</g>
			<g>
				<path id="mda11a2bff9_00000065791236096064832250000018060122303995173052_" class="st1" d="M208.3,184.7c0.6,0,1.3-0.3,1.7-0.7
					c0.5-0.5,0.7-1.1,0.7-1.7s-0.3-1.3-0.7-1.7c-0.5-0.5-1.1-0.7-1.7-0.7s-1.3,0.3-1.7,0.7c-0.5,0.5-0.7,1.1-0.7,1.7
					s0.3,1.3,0.7,1.7C207,184.4,207.7,184.7,208.3,184.7z"/>
			</g>
			<g>
				<path id="mda11a2bff9_00000111175104658011692510000004191847915515220669_" class="st1" d="M192.5,205.7c0.6,0,1.3-0.3,1.7-0.7
					c0.5-0.5,0.7-1.1,0.7-1.7s-0.3-1.3-0.7-1.7c-0.5-0.5-1.1-0.7-1.7-0.7s-1.3,0.3-1.7,0.7c-0.5,0.5-0.7,1.1-0.7,1.7
					s0.3,1.3,0.7,1.7C191.2,205.4,191.8,205.7,192.5,205.7z"/>
			</g>
			<g>
				<path id="mda11a2bff9_00000142864540871140575630000003083822650378307458_" class="st1" d="M328.1,45.8c0.6,0,1.3-0.3,1.7-0.7
					c0.5-0.5,0.7-1.1,0.7-1.7s-0.3-1.3-0.7-1.7c-0.5-0.5-1.1-0.7-1.7-0.7s-1.3,0.3-1.7,0.7c-0.5,0.5-0.7,1.1-0.7,1.7
					s0.3,1.3,0.7,1.7C326.8,45.6,327.4,45.8,328.1,45.8z"/>
			</g>
			<g>
				<path id="mda11a2bff9_00000002380895494256020830000005265003180055333045_" class="st1" d="M294,61.7c0.6,0,1.3-0.3,1.7-0.7
					c0.5-0.5,0.7-1.1,0.7-1.7s-0.3-1.3-0.7-1.7c-0.5-0.5-1.1-0.7-1.7-0.7s-1.3,0.3-1.7,0.7c-0.5,0.5-0.7,1.1-0.7,1.7
					s0.3,1.3,0.7,1.7C292.7,61.4,293.4,61.7,294,61.7z"/>
			</g>
			<g>
				<path id="mda11a2bff9_00000158727487263379804970000012287034485282399110_" class="st1" d="M162.3,234.4c0.6,0,1.3-0.3,1.7-0.7
					c0.5-0.5,0.7-1.1,0.7-1.7s-0.3-1.3-0.7-1.7c-0.5-0.5-1.1-0.7-1.7-0.7s-1.3,0.3-1.7,0.7c-0.5,0.5-0.7,1.1-0.7,1.7
					s0.3,1.3,0.7,1.7C161,234.1,161.7,234.4,162.3,234.4z"/>
			</g>
			<g>
				<path id="mda11a2bff9_00000073702601974801200590000001804918209461531526_" class="st1" d="M264.9,131.8c0.6,0,1.3-0.3,1.7-0.7
					c0.5-0.5,0.7-1.1,0.7-1.7s-0.3-1.3-0.7-1.7c-0.5-0.5-1.1-0.7-1.7-0.7s-1.3,0.3-1.7,0.7c-0.5,0.5-0.7,1.1-0.7,1.7
					s0.3,1.3,0.7,1.7C263.6,131.5,264.2,131.8,264.9,131.8z"/>
			</g>
			<g>
				<path id="mda11a2bff9_00000058550175418077217580000007132624638661163178_" class="st1" d="M140,251.8c0.6,0,1.3-0.3,1.7-0.7
					c0.5-0.5,0.7-1.1,0.7-1.7s-0.3-1.3-0.7-1.7c-0.5-0.5-1.1-0.7-1.7-0.7s-1.3,0.3-1.7,0.7c-0.5,0.5-0.7,1.1-0.7,1.7
					s0.3,1.3,0.7,1.7C138.7,251.6,139.3,251.8,140,251.8z"/>
			</g>
			<g>
				<path id="mda11a2bff9_00000093897273362539080150000002595934974779633285_" class="st1" d="M259.5,132.3c0.6,0,1.3-0.3,1.7-0.7
					c0.5-0.5,0.7-1.1,0.7-1.7s-0.3-1.3-0.7-1.7c-0.5-0.5-1.1-0.7-1.7-0.7s-1.3,0.3-1.7,0.7c-0.5,0.5-0.7,1.1-0.7,1.7
					s0.3,1.3,0.7,1.7C258.3,132,258.9,132.3,259.5,132.3z"/>
			</g>
			<g>
				<path id="mda11a2bff9_00000020393193286990171500000007704143665215686816_" class="st1" d="M288.9,108.9c0.6,0,1.3-0.3,1.7-0.7
					c0.5-0.5,0.7-1.1,0.7-1.7s-0.3-1.3-0.7-1.7c-0.5-0.5-1.1-0.7-1.7-0.7s-1.3,0.3-1.7,0.7c-0.5,0.5-0.7,1.1-0.7,1.7
					s0.3,1.3,0.7,1.7C287.6,108.6,288.2,108.9,288.9,108.9z"/>
			</g>
			<g>
				<path id="mda11a2bff9_00000173882565590312896450000017046946431739460235_" class="st1" d="M331.3,107.5c0.6,0,1.3-0.3,1.7-0.7
					c0.5-0.5,0.7-1.1,0.7-1.7s-0.3-1.3-0.7-1.7c-0.5-0.5-1.1-0.7-1.7-0.7s-1.3,0.3-1.7,0.7c-0.5,0.5-0.7,1.1-0.7,1.7
					s0.3,1.3,0.7,1.7C330,107.3,330.7,107.5,331.3,107.5z"/>
			</g>
			<g>
				<path id="mda11a2bff9_00000130644031229938866100000006755191306009232302_" class="st1" d="M134.2,259.6c0.6,0,1.3-0.3,1.7-0.7
					c0.5-0.5,0.7-1.1,0.7-1.7c0-0.6-0.3-1.3-0.7-1.7c-0.5-0.5-1.1-0.7-1.7-0.7s-1.3,0.3-1.7,0.7c-0.5,0.5-0.7,1.1-0.7,1.7
					c0,0.6,0.3,1.3,0.7,1.7C132.9,259.3,133.5,259.6,134.2,259.6z"/>
			</g>
			<g>
				<path id="mda11a2bff9_00000113316064547803502420000008723918180092602277_" class="st1" d="M129.1,267.1c0.6,0,1.3-0.3,1.7-0.7
					c0.5-0.5,0.7-1.1,0.7-1.7c0-0.6-0.3-1.3-0.7-1.7c-0.5-0.5-1.1-0.7-1.7-0.7s-1.3,0.3-1.7,0.7c-0.5,0.5-0.7,1.1-0.7,1.7
					c0,0.6,0.3,1.3,0.7,1.7C127.8,266.8,128.4,267.1,129.1,267.1z"/>
			</g>
			<g>
				<path id="mda11a2bff9_00000117670588535705048140000011501491393633135238_" class="st1" d="M325.2,74c0.6,0,1.3-0.3,1.7-0.7
					c0.5-0.5,0.7-1.1,0.7-1.7s-0.3-1.3-0.7-1.7c-0.5-0.5-1.1-0.7-1.7-0.7s-1.3,0.3-1.7,0.7c-0.5,0.5-0.7,1.1-0.7,1.7
					s0.3,1.3,0.7,1.7C323.9,73.7,324.5,74,325.2,74z"/>
			</g>
			<g>
				<path id="mda11a2bff9_00000098207465968371364800000013947044282141735603_" class="st1" d="M291.2,105.3c0.6,0,1.3-0.3,1.7-0.7
					c0.5-0.5,0.7-1.1,0.7-1.7s-0.3-1.3-0.7-1.7c-0.5-0.5-1.1-0.7-1.7-0.7s-1.3,0.3-1.7,0.7c-0.5,0.5-0.7,1.1-0.7,1.7
					s0.3,1.3,0.7,1.7C289.9,105,290.5,105.3,291.2,105.3z"/>
			</g>
			<g>
				<path id="mda11a2bff9_00000067230899460329429100000004570535608279303346_" class="st1" d="M264.8,139.5c0.6,0,1.3-0.3,1.7-0.7
					c0.5-0.5,0.7-1.1,0.7-1.7s-0.3-1.3-0.7-1.7c-0.5-0.5-1.1-0.7-1.7-0.7s-1.3,0.3-1.7,0.7c-0.5,0.5-0.7,1.1-0.7,1.7
					s0.3,1.3,0.7,1.7C263.5,139.2,264.2,139.5,264.8,139.5z"/>
			</g>
			<g>
				<path id="mda11a2bff9_00000130628387617481635200000011378307158845263767_" class="st1" d="M250.3,145.1c0.6,0,1.3-0.3,1.7-0.7
					c0.5-0.5,0.7-1.1,0.7-1.7s-0.3-1.3-0.7-1.7c-0.5-0.5-1.1-0.7-1.7-0.7s-1.3,0.3-1.7,0.7c-0.5,0.5-0.7,1.1-0.7,1.7
					s0.3,1.3,0.7,1.7C249,144.8,249.6,145.1,250.3,145.1z"/>
			</g>
			<g>
				<path id="mda11a2bff9_00000118373859842501794760000010759952091028996510_" class="st1" d="M185.1,209.2c0.6,0,1.3-0.3,1.7-0.7
					c0.5-0.5,0.7-1.1,0.7-1.7s-0.3-1.3-0.7-1.7c-0.5-0.5-1.1-0.7-1.7-0.7s-1.3,0.3-1.7,0.7c-0.5,0.5-0.7,1.1-0.7,1.7
					s0.3,1.3,0.7,1.7C183.8,208.9,184.4,209.2,185.1,209.2z"/>
			</g>
			<g>
				<path id="mda11a2bff9_00000170277158343131848370000004506486005073522091_" class="st1" d="M168.9,228.7c0.6,0,1.3-0.3,1.7-0.7
					c0.5-0.5,0.7-1.1,0.7-1.7s-0.3-1.3-0.7-1.7c-0.5-0.5-1.1-0.7-1.7-0.7s-1.3,0.3-1.7,0.7c-0.5,0.5-0.7,1.1-0.7,1.7
					s0.3,1.3,0.7,1.7C167.6,228.5,168.2,228.7,168.9,228.7z"/>
			</g>
			<g>
				<path id="mda11a2bff9_00000124876900110523099400000011330779748662096799_" class="st1" d="M240.1,149.4c0.6,0,1.3-0.3,1.7-0.7
					c0.5-0.5,0.7-1.1,0.7-1.7s-0.3-1.3-0.7-1.7c-0.5-0.5-1.1-0.7-1.7-0.7s-1.3,0.3-1.7,0.7c-0.5,0.5-0.7,1.1-0.7,1.7
					s0.3,1.3,0.7,1.7C238.8,149.2,239.4,149.4,240.1,149.4z"/>
			</g>
			<g>
				<path id="mda11a2bff9_00000032624657969686110460000000758541570365405088_" class="st1" d="M157,235.7c0.6,0,1.3-0.3,1.7-0.7
					c0.5-0.5,0.7-1.1,0.7-1.7s-0.3-1.3-0.7-1.7c-0.5-0.5-1.1-0.7-1.7-0.7s-1.3,0.3-1.7,0.7c-0.5,0.5-0.7,1.1-0.7,1.7
					s0.3,1.3,0.7,1.7C155.8,235.5,156.4,235.7,157,235.7z"/>
			</g>
			<g>
				<path id="mda11a2bff9_00000129904496228303116670000010983578065900737946_" class="st1" d="M241.1,157.3c0.6,0,1.3-0.3,1.7-0.7
					c0.5-0.5,0.7-1.1,0.7-1.7s-0.3-1.3-0.7-1.7c-0.5-0.5-1.1-0.7-1.7-0.7s-1.3,0.3-1.7,0.7c-0.5,0.5-0.7,1.1-0.7,1.7
					s0.3,1.3,0.7,1.7C239.9,157,240.5,157.3,241.1,157.3z"/>
			</g>
			<g>
				<path id="mda11a2bff9_00000083774133756490084830000014745649370215688068_" class="st1" d="M218.9,179.3c0.6,0,1.3-0.3,1.7-0.7
					c0.5-0.5,0.7-1.1,0.7-1.7s-0.3-1.3-0.7-1.7c-0.5-0.5-1.1-0.7-1.7-0.7s-1.3,0.3-1.7,0.7c-0.5,0.5-0.7,1.1-0.7,1.7
					s0.3,1.3,0.7,1.7C217.7,179,218.3,179.3,218.9,179.3z"/>
			</g>
			<g>
				<path id="mda11a2bff9_00000096758572481282561810000015291873167528152744_" class="st1" d="M299.5,93.8c0.6,0,1.3-0.3,1.7-0.7
					c0.5-0.5,0.7-1.1,0.7-1.7s-0.3-1.3-0.7-1.7c-0.5-0.5-1.1-0.7-1.7-0.7s-1.3,0.3-1.7,0.7c-0.5,0.5-0.7,1.1-0.7,1.7
					s0.3,1.3,0.7,1.7C298.2,93.6,298.8,93.8,299.5,93.8z"/>
			</g>
			<g>
				<path id="mda11a2bff9_00000043458440460317059240000014349013294947367859_" class="st1" d="M163.5,229.2c0.6,0,1.3-0.3,1.7-0.7
					c0.5-0.5,0.7-1.1,0.7-1.7s-0.3-1.3-0.7-1.7c-0.5-0.5-1.1-0.7-1.7-0.7s-1.3,0.3-1.7,0.7c-0.5,0.5-0.7,1.1-0.7,1.7
					s0.3,1.3,0.7,1.7C162.2,229,162.9,229.2,163.5,229.2z"/>
			</g>
			<g>
				<path id="mda11a2bff9_00000142149564983585016420000011300722410434233529_" class="st1" d="M300.2,99c0.6,0,1.3-0.3,1.7-0.7
					c0.5-0.5,0.7-1.1,0.7-1.7s-0.3-1.3-0.7-1.7c-0.5-0.5-1.1-0.7-1.7-0.7s-1.3,0.3-1.7,0.7c-0.5,0.5-0.7,1.1-0.7,1.7
					s0.3,1.3,0.7,1.7C299,98.7,299.6,99,300.2,99z"/>
			</g>
			<g>
				<path id="mda11a2bff9_00000036965115898348424800000008717725712889317822_" class="st1" d="M115.5,278.2c0.6,0,1.3-0.3,1.7-0.7
					c0.5-0.5,0.7-1.1,0.7-1.7c0-0.6-0.3-1.3-0.7-1.7c-0.5-0.5-1.1-0.7-1.7-0.7s-1.3,0.3-1.7,0.7c-0.5,0.5-0.7,1.1-0.7,1.7
					c0,0.6,0.3,1.3,0.7,1.7C114.2,278,114.9,278.2,115.5,278.2z"/>
			</g>
			<g>
				<path id="mda11a2bff9_00000015352686687120423720000015609297812355814040_" class="st1" d="M115.5,278.4c0.6,0,1.3-0.3,1.7-0.7
					c0.5-0.5,0.7-1.1,0.7-1.7c0-0.6-0.3-1.3-0.7-1.7c-0.5-0.5-1.1-0.7-1.7-0.7s-1.3,0.3-1.7,0.7c-0.5,0.5-0.7,1.1-0.7,1.7
					c0,0.6,0.3,1.3,0.7,1.7C114.2,278.1,114.8,278.4,115.5,278.4z"/>
			</g>
			<g>
				<path id="mda11a2bff9_00000109730116627521992020000008723038555928624291_" class="st1" d="M160.3,235.5c0.6,0,1.3-0.3,1.7-0.7
					c0.5-0.5,0.7-1.1,0.7-1.7s-0.3-1.3-0.7-1.7c-0.5-0.5-1.1-0.7-1.7-0.7s-1.3,0.3-1.7,0.7c-0.5,0.5-0.7,1.1-0.7,1.7
					s0.3,1.3,0.7,1.7C159,235.2,159.7,235.5,160.3,235.5z"/>
			</g>
			<g>
				<path id="mda11a2bff9_00000166674610659264866500000014073584825596533890_" class="st1" d="M288.5,102.2c0.6,0,1.3-0.3,1.7-0.7
					c0.5-0.5,0.7-1.1,0.7-1.7s-0.3-1.3-0.7-1.7c-0.5-0.5-1.1-0.7-1.7-0.7s-1.3,0.3-1.7,0.7c-0.5,0.5-0.7,1.1-0.7,1.7
					s0.3,1.3,0.7,1.7C287.2,101.9,287.8,102.2,288.5,102.2z"/>
			</g>
			<g>
				<path id="mda11a2bff9_00000122696132628700286130000016793504860667350406_" class="st1" d="M316,76.2c0.6,0,1.3-0.3,1.7-0.7
					c0.5-0.5,0.7-1.1,0.7-1.7s-0.3-1.3-0.7-1.7c-0.5-0.5-1.1-0.7-1.7-0.7s-1.3,0.3-1.7,0.7c-0.5,0.5-0.7,1.1-0.7,1.7
					s0.3,1.3,0.7,1.7C314.7,76,315.4,76.2,316,76.2z"/>
			</g>
			<g>
				<path id="mda11a2bff9_00000183944842010400124950000007247816687186205312_" class="st1" d="M304.5,80.2c0.6,0,1.3-0.3,1.7-0.7
					c0.5-0.5,0.7-1.1,0.7-1.7s-0.3-1.3-0.7-1.7c-0.5-0.5-1.1-0.7-1.7-0.7s-1.3,0.3-1.7,0.7c-0.5,0.5-0.7,1.1-0.7,1.7
					s0.3,1.3,0.7,1.7C303.3,80,303.9,80.2,304.5,80.2z"/>
			</g>
			<g>
				<path id="mda11a2bff9_00000123401533968331001120000006764869874502383288_" class="st1" d="M188.2,209.2c0.6,0,1.3-0.3,1.7-0.7
					c0.5-0.5,0.7-1.1,0.7-1.7s-0.3-1.3-0.7-1.7c-0.5-0.5-1.1-0.7-1.7-0.7s-1.3,0.3-1.7,0.7c-0.5,0.5-0.7,1.1-0.7,1.7
					s0.3,1.3,0.7,1.7C186.9,208.9,187.5,209.2,188.2,209.2z"/>
			</g>
			<g>
				<path id="mda11a2bff9_00000080894126105298285330000007950313788541386942_" class="st1" d="M156.3,238c0.6,0,1.3-0.3,1.7-0.7
					c0.5-0.5,0.7-1.1,0.7-1.7s-0.3-1.3-0.7-1.7c-0.5-0.5-1.1-0.7-1.7-0.7s-1.3,0.3-1.7,0.7c-0.5,0.5-0.7,1.1-0.7,1.7
					s0.3,1.3,0.7,1.7C155.1,237.8,155.7,238,156.3,238z"/>
			</g>
			<g>
				<path id="mda11a2bff9_00000067206919949273513270000009075113975893700534_" class="st1" d="M120.5,274.2c0.6,0,1.3-0.3,1.7-0.7
					c0.5-0.5,0.7-1.1,0.7-1.7c0-0.6-0.3-1.3-0.7-1.7c-0.5-0.5-1.1-0.7-1.7-0.7s-1.3,0.3-1.7,0.7c-0.5,0.5-0.7,1.1-0.7,1.7
					c0,0.6,0.3,1.3,0.7,1.7C119.2,274,119.8,274.2,120.5,274.2z"/>
			</g>
			<g>
				<path id="mda11a2bff9_00000004533064401157962860000009657762045036872833_" class="st1" d="M197.4,158.5c0.6,0,1.3-0.3,1.7-0.7
					c0.5-0.5,0.7-1.1,0.7-1.7s-0.3-1.3-0.7-1.7c-0.5-0.5-1.1-0.7-1.7-0.7s-1.3,0.3-1.7,0.7c-0.5,0.5-0.7,1.1-0.7,1.7
					s0.3,1.3,0.7,1.7C196.2,158.3,196.8,158.5,197.4,158.5z"/>
			</g>
			<g>
				<path id="mda11a2bff9_00000168103749152707398240000018403824499153336460_" class="st1" d="M210.3,181.7c0.6,0,1.3-0.3,1.7-0.7
					c0.5-0.5,0.7-1.1,0.7-1.7s-0.3-1.3-0.7-1.7c-0.5-0.5-1.1-0.7-1.7-0.7s-1.3,0.3-1.7,0.7c-0.5,0.5-0.7,1.1-0.7,1.7
					s0.3,1.3,0.7,1.7C209.1,181.4,209.7,181.7,210.3,181.7z"/>
			</g>
		</g>
	</g>
</g>
<g id="matplotlib.axis_1">
	<g id="xtick_1">
		<g id="line2d_1">
			<g>
				<g>
					<path id="m474728d53f" class="st2" d="M109.5,294.6v3.5"/>
				</g>
			</g>
		</g>
		<g id="text_1">
			<text transform="matrix(1 0 0 1 99.1356 312.2778)" class="st3 st4">0.0</text>
		</g>
	</g>
	<g id="xtick_2">
		<g id="line2d_2">
			<g>
				<g>
					<path id="m474728d53f_00000114062535040683598030000003258173522495141801_" class="st2" d="M157.9,294.6v3.5"/>
				</g>
			</g>
		</g>
		<g id="text_2">
			<text transform="matrix(1 0 0 1 147.4919 312.2778)" class="st3 st4">0.1</text>
		</g>
	</g>
	<g id="xtick_3">
		<g id="line2d_3">
			<g>
				<g>
					<path id="m474728d53f_00000147191214563245936200000006290808099791255722_" class="st2" d="M206.2,294.6v3.5"/>
				</g>
			</g>
		</g>
		<g id="text_3">
			<text transform="matrix(1 0 0 1 195.8483 312.2778)" class="st3 st4">0.2</text>
		</g>
	</g>
	<g id="xtick_4">
		<g id="line2d_4">
			<g>
				<g>
					<path id="m474728d53f_00000128470775639693897800000001375713902459395479_" class="st2" d="M254.6,294.6v3.5"/>
				</g>
			</g>
		</g>
		<g id="text_4">
			<text transform="matrix(1 0 0 1 244.2047 312.2778)" class="st3 st4">0.3</text>
		</g>
	</g>
	<g id="xtick_5">
		<g id="line2d_5">
			<g>
				<g>
					<path id="m474728d53f_00000170278370049165514200000005553897330223608247_" class="st2" d="M302.9,294.6v3.5"/>
				</g>
			</g>
		</g>
		<g id="text_5">
			<text transform="matrix(1 0 0 1 292.561 312.2778)" class="st3 st4">0.4</text>
		</g>
	</g>
	<g id="xtick_6">
		<g id="line2d_6">
			<g>
				<g>
					<path id="m474728d53f_00000000219630881992056680000009570650785960888240_" class="st2" d="M351.3,294.6v3.5"/>
				</g>
			</g>
		</g>
		<g id="text_6">
			<text transform="matrix(1 0 0 1 340.9174 312.2778)" class="st3 st4">0.5</text>
		</g>
	</g>
	<g id="text_7">
		<text transform="matrix(1 0 0 1 193.8883 331.3469)" class="st3 st5">True FDR</text>
	</g>
</g>
<g id="matplotlib.axis_2">
	<g id="ytick_1">
		<g id="line2d_7">
			<g>
				<g>
					<path id="mf0e69797d8" class="st2" d="M97.4,282.6h-3.5"/>
				</g>
			</g>
		</g>
		<g id="text_8">
			<text transform="matrix(1 0 0 1 69.6729 287.8698)" class="st3 st4">0.0</text>
		</g>
	</g>
	<g id="ytick_2">
		<g id="line2d_8">
			<g>
				<g>
					<path id="mf0e69797d8_00000127728067382817977130000007924941637170723493_" class="st2" d="M97.4,234.2h-3.5"/>
				</g>
			</g>
		</g>
		<g id="text_9">
			<text transform="matrix(1 0 0 1 69.6729 239.5135)" class="st3 st4">0.1</text>
		</g>
	</g>
	<g id="ytick_3">
		<g id="line2d_9">
			<g>
				<g>
					<path id="mf0e69797d8_00000070081091824976227670000004740283914247828412_" class="st2" d="M97.4,185.8h-3.5"/>
				</g>
			</g>
		</g>
		<g id="text_10">
			<text transform="matrix(1 0 0 1 69.6729 191.1571)" class="st3 st4">0.2</text>
		</g>
	</g>
	<g id="ytick_4">
		<g id="line2d_10">
			<g>
				<g>
					<path id="mf0e69797d8_00000127737362268948331520000015266442937895172535_" class="st2" d="M97.4,137.5h-3.5"/>
				</g>
			</g>
		</g>
		<g id="text_11">
			<text transform="matrix(1 0 0 1 69.6729 142.8007)" class="st3 st4">0.3</text>
		</g>
	</g>
	<g id="ytick_5">
		<g id="line2d_11">
			<g>
				<g>
					<path id="mf0e69797d8_00000149374574919749647950000004332703422461525415_" class="st2" d="M97.4,89.1h-3.5"/>
				</g>
			</g>
		</g>
		<g id="text_12">
			<text transform="matrix(1 0 0 1 69.6729 94.4444)" class="st3 st4">0.4</text>
		</g>
	</g>
	<g id="ytick_6">
		<g id="line2d_12">
			<g>
				<g>
					<path id="mf0e69797d8_00000135653299978752805280000009891358085278763711_" class="st2" d="M97.4,40.8h-3.5"/>
				</g>
			</g>
		</g>
		<g id="text_13">
			<text transform="matrix(1 0 0 1 69.6729 46.088)" class="st3 st4">0.5</text>
		</g>
	</g>
	<g id="text_14">
		<text transform="matrix(6.123234e-17 -1 1 6.123234e-17 60.8281 216.5586)" class="st3 st5">Predicted FDR</text>
	</g>
</g>
<g id="line2d_13">
	<g>
		<defs>
			<rect id="SVGID_00000118364706168061502140000006210745848581237937_" x="97.4" y="28.7" width="266" height="266"/>
		</defs>
		<clipPath id="SVGID_00000130608029992483276640000012936708437460407718_">
			<use xlink:href="#SVGID_00000118364706168061502140000006210745848581237937_"  style="overflow:visible;"/>
		</clipPath>
		
			<path style="clip-path:url(#SVGID_00000130608029992483276640000012936708437460407718_);fill:none;stroke:#000000;stroke-width:2;stroke-linejoin:round;stroke-dasharray:7.4,3.2;" d="
			M109.5,282.6L351.3,40.8"/>
	</g>
</g>
<g id="line2d_14">
	<g>
		<defs>
			<rect id="SVGID_00000052812638256223127150000010563663240424949161_" x="97.4" y="28.7" width="266" height="266"/>
		</defs>
		<clipPath id="SVGID_00000044873463571754266730000000483494742443228580_">
			<use xlink:href="#SVGID_00000052812638256223127150000010563663240424949161_"  style="overflow:visible;"/>
		</clipPath>
		
			<path style="clip-path:url(#SVGID_00000044873463571754266730000000483494742443228580_);fill:none;stroke:#000000;stroke-width:2;stroke-linecap:square;stroke-linejoin:round;" d="
			M109.5,281.2L351.3,40"/>
	</g>
</g>
<g id="patch_3">
	<path class="st8" d="M97.4,294.6v-266"/>
</g>
<g id="patch_4">
	<path class="st8" d="M363.4,294.6v-266"/>
</g>
<g id="patch_5">
	<path class="st8" d="M97.4,294.6h266"/>
</g>
<g id="patch_6">
	<path class="st8" d="M97.4,28.7h266"/>
</g>
<g id="text_15">
	<g transform="translate(254.578182 234.194545)">
		<text transform="matrix(1 0 0 1 0 -0.5625)" class="st9 st5">R</text>
		<text transform="matrix(1 0 0 1 11.5547 -0.5625)" class="st9 st10"> </text>
		<text transform="matrix(1 0 0 1 12.2408 -6.6875)" class="st9 st11">2</text>
		<text transform="matrix(1 0 0 1 18.4697 -6.6875)" class="st9 st10"> </text>
		<text transform="matrix(1 0 0 1 19.8041 -0.5625)" class="st9 st5"> </text>
		<text transform="matrix(1 0 0 1 24.8901 -0.5625)" class="st9 st5">=</text>
		<text transform="matrix(1 0 0 1 38.2963 -0.5625)" class="st9 st5"> </text>
		<text transform="matrix(1 0 0 1 43.3823 -0.5625)" class="st9 st5">0</text>
		<text transform="matrix(1 0 0 1 53.562 -0.5625)" class="st9 st5">.</text>
		<text transform="matrix(1 0 0 1 58.6479 -0.5625)" class="st9 st5">9</text>
		<text transform="matrix(1 0 0 1 68.8276 -0.5625)" class="st9 st5">8</text>
	</g>
</g>
<g id="text_16">
	<text transform="matrix(1 0 0 1 124.5133 22.6801)" class="st3 st5">CV2_lognorm5_05-15-2024</text>
</g>
</svg>
