<?xml version="1.0" encoding="utf-8"?>
<!-- Generator: Adobe Illustrator 28.0.0, SVG Export Plug-In . SVG Version: 6.00 Build 0)  -->
<svg version="1.1" id="Layer_1" xmlns="http://www.w3.org/2000/svg" xmlns:xlink="http://www.w3.org/1999/xlink" x="0px" y="0px"
	 viewBox="0 0 460.8 345.6" style="enable-background:new 0 0 460.8 345.6;" xml:space="preserve">
<style type="text/css">
	.st0{clip-path:url(#SVGID_00000143590329684178514130000013472224939508158115_);}
	.st1{fill:#0000FF;stroke:#0000FF;stroke-linejoin:round;}
	.st2{stroke:#000000;stroke-width:0.8;stroke-linejoin:round;}
	.st3{font-family:'LucidaBright';}
	.st4{font-size:14px;}
	.st5{font-size:16px;}
	
		.st6{clip-path:url(#SVGID_00000024688775082427669750000003820885615802767520_);fill:none;stroke:#000000;stroke-width:2;stroke-linejoin:round;stroke-dasharray:7.4,3.2;}
	
		.st7{clip-path:url(#SVGID_00000010272609526243193700000018024437032182465963_);fill:none;stroke:#000000;stroke-width:2;stroke-linecap:square;stroke-linejoin:round;}
	.st8{fill:none;stroke:#000000;stroke-width:0.8;stroke-linecap:square;}
	.st9{font-family:'ArialMT';}
	.st10{font-size:12px;}
	.st11{font-size:11.2px;}
</style>
<g id="PathCollection_1">
	<g>
		<defs>
			<rect id="SVGID_1_" x="97.4" y="46.8" width="266" height="266"/>
		</defs>
		<clipPath id="SVGID_00000166653937403518366590000013452300977208532363_">
			<use xlink:href="#SVGID_1_"  style="overflow:visible;"/>
		</clipPath>
		<g style="clip-path:url(#SVGID_00000166653937403518366590000013452300977208532363_);">
			<g>
				<path id="m6d51641fb5" class="st1" d="M267.7,110.1c0.6,0,1.3-0.3,1.7-0.7s0.7-1.1,0.7-1.7c0-0.6-0.3-1.3-0.7-1.7
					s-1.1-0.7-1.7-0.7s-1.3,0.3-1.7,0.7s-0.7,1.1-0.7,1.7c0,0.6,0.3,1.3,0.7,1.7S267,110.1,267.7,110.1z"/>
			</g>
			<g>
				<path id="m6d51641fb5_00000108305862763958930130000013677010893950069392_" class="st1" d="M125.9,277c0.6,0,1.3-0.3,1.7-0.7
					c0.5-0.5,0.7-1.1,0.7-1.7c0-0.6-0.3-1.3-0.7-1.7s-1.1-0.7-1.7-0.7s-1.3,0.3-1.7,0.7c-0.5,0.5-0.7,1.1-0.7,1.7
					c0,0.6,0.3,1.3,0.7,1.7C124.6,276.8,125.2,277,125.9,277z"/>
			</g>
			<g>
				<path id="m6d51641fb5_00000155856601635241798280000003096175670374510468_" class="st1" d="M184.2,219.8c0.6,0,1.3-0.3,1.7-0.7
					c0.5-0.5,0.7-1.1,0.7-1.7s-0.3-1.3-0.7-1.7c-0.5-0.5-1.1-0.7-1.7-0.7s-1.3,0.3-1.7,0.7c-0.5,0.5-0.7,1.1-0.7,1.7
					s0.3,1.3,0.7,1.7C183,219.5,183.6,219.8,184.2,219.8z"/>
			</g>
			<g>
				<path id="m6d51641fb5_00000059293247329179229540000018251394806883720070_" class="st1" d="M250.7,156.8c0.6,0,1.3-0.3,1.7-0.7
					c0.5-0.5,0.7-1.1,0.7-1.7s-0.3-1.3-0.7-1.7c-0.5-0.5-1.1-0.7-1.7-0.7s-1.3,0.3-1.7,0.7c-0.5,0.5-0.7,1.1-0.7,1.7
					s0.3,1.3,0.7,1.7C249.5,156.5,250.1,156.8,250.7,156.8z"/>
			</g>
			<g>
				<path id="m6d51641fb5_00000169555264750412687920000009971657759801090965_" class="st1" d="M170,240.5c0.6,0,1.3-0.3,1.7-0.7
					c0.5-0.5,0.7-1.1,0.7-1.7s-0.3-1.3-0.7-1.7c-0.5-0.5-1.1-0.7-1.7-0.7s-1.3,0.3-1.7,0.7c-0.5,0.5-0.7,1.1-0.7,1.7
					s0.3,1.3,0.7,1.7C168.7,240.2,169.4,240.5,170,240.5z"/>
			</g>
			<g>
				<path id="m6d51641fb5_00000142133670531519612340000004933528175621167790_" class="st1" d="M286.2,125.8c0.6,0,1.3-0.3,1.7-0.7
					s0.7-1.1,0.7-1.7c0-0.6-0.3-1.3-0.7-1.7s-1.1-0.7-1.7-0.7s-1.3,0.3-1.7,0.7s-0.7,1.1-0.7,1.7c0,0.6,0.3,1.3,0.7,1.7
					S285.6,125.8,286.2,125.8z"/>
			</g>
			<g>
				<path id="m6d51641fb5_00000017501106642907279660000002366226487526066868_" class="st1" d="M224.1,181.1c0.6,0,1.3-0.3,1.7-0.7
					c0.5-0.5,0.7-1.1,0.7-1.7s-0.3-1.3-0.7-1.7c-0.5-0.5-1.1-0.7-1.7-0.7s-1.3,0.3-1.7,0.7c-0.5,0.5-0.7,1.1-0.7,1.7
					s0.3,1.3,0.7,1.7C222.8,180.8,223.4,181.1,224.1,181.1z"/>
			</g>
			<g>
				<path id="m6d51641fb5_00000042705128696000873750000012604516569997755042_" class="st1" d="M295.2,114.5c0.6,0,1.3-0.3,1.7-0.7
					s0.7-1.1,0.7-1.7c0-0.6-0.3-1.3-0.7-1.7s-1.1-0.7-1.7-0.7s-1.3,0.3-1.7,0.7s-0.7,1.1-0.7,1.7c0,0.6,0.3,1.3,0.7,1.7
					S294.5,114.5,295.2,114.5z"/>
			</g>
			<g>
				<path id="m6d51641fb5_00000054265569546999679100000003954699559301250218_" class="st1" d="M314.2,85.6c0.6,0,1.3-0.3,1.7-0.7
					s0.7-1.1,0.7-1.7c0-0.6-0.3-1.3-0.7-1.7s-1.1-0.7-1.7-0.7s-1.3,0.3-1.7,0.7s-0.7,1.1-0.7,1.7c0,0.6,0.3,1.3,0.7,1.7
					S313.6,85.6,314.2,85.6z"/>
			</g>
			<g>
				<path id="m6d51641fb5_00000147195489853974175030000003586487647500061333_" class="st1" d="M115.9,289.7c0.6,0,1.3-0.3,1.7-0.7
					c0.5-0.5,0.7-1.1,0.7-1.7c0-0.6-0.3-1.3-0.7-1.7c-0.5-0.5-1.1-0.7-1.7-0.7s-1.3,0.3-1.7,0.7c-0.5,0.5-0.7,1.1-0.7,1.7
					c0,0.6,0.3,1.3,0.7,1.7C114.6,289.5,115.3,289.7,115.9,289.7z"/>
			</g>
			<g>
				<path id="m6d51641fb5_00000057838120295422733380000003718726126334008765_" class="st1" d="M128.5,269.3c0.6,0,1.3-0.3,1.7-0.7
					c0.5-0.5,0.7-1.1,0.7-1.7c0-0.6-0.3-1.3-0.7-1.7c-0.5-0.5-1.1-0.7-1.7-0.7s-1.3,0.3-1.7,0.7c-0.5,0.5-0.7,1.1-0.7,1.7
					c0,0.6,0.3,1.3,0.7,1.7C127.2,269,127.8,269.3,128.5,269.3z"/>
			</g>
			<g>
				<path id="m6d51641fb5_00000102502434419119943170000002356074386767260066_" class="st1" d="M135.7,271.7c0.6,0,1.3-0.3,1.7-0.7
					c0.5-0.5,0.7-1.1,0.7-1.7c0-0.6-0.3-1.3-0.7-1.7c-0.5-0.5-1.1-0.7-1.7-0.7s-1.3,0.3-1.7,0.7c-0.5,0.5-0.7,1.1-0.7,1.7
					c0,0.6,0.3,1.3,0.7,1.7C134.4,271.4,135.1,271.7,135.7,271.7z"/>
			</g>
			<g>
				<path id="m6d51641fb5_00000154394609629152978020000006035482744931186822_" class="st1" d="M315.1,115c0.6,0,1.3-0.3,1.7-0.7
					s0.7-1.1,0.7-1.7c0-0.6-0.3-1.3-0.7-1.7s-1.1-0.7-1.7-0.7s-1.3,0.3-1.7,0.7s-0.7,1.1-0.7,1.7c0,0.6,0.3,1.3,0.7,1.7
					S314.4,115,315.1,115z"/>
			</g>
			<g>
				<path id="m6d51641fb5_00000034769093141911902490000009736481532304664208_" class="st1" d="M342.3,70.5c0.6,0,1.3-0.3,1.7-0.7
					c0.5-0.5,0.7-1.1,0.7-1.7s-0.3-1.3-0.7-1.7c-0.5-0.5-1.1-0.7-1.7-0.7s-1.3,0.3-1.7,0.7c-0.5,0.5-0.7,1.1-0.7,1.7
					s0.3,1.3,0.7,1.7C341,70.2,341.6,70.5,342.3,70.5z"/>
			</g>
			<g>
				<path id="m6d51641fb5_00000039104935375210959970000008628053848780797595_" class="st1" d="M238.7,164.6c0.6,0,1.3-0.3,1.7-0.7
					c0.5-0.5,0.7-1.1,0.7-1.7s-0.3-1.3-0.7-1.7c-0.5-0.5-1.1-0.7-1.7-0.7s-1.3,0.3-1.7,0.7c-0.5,0.5-0.7,1.1-0.7,1.7
					s0.3,1.3,0.7,1.7C237.4,164.3,238,164.6,238.7,164.6z"/>
			</g>
			<g>
				<path id="m6d51641fb5_00000096018892398824278250000012291794651476372405_" class="st1" d="M157.4,246.6c0.6,0,1.3-0.3,1.7-0.7
					c0.5-0.5,0.7-1.1,0.7-1.7s-0.3-1.3-0.7-1.7c-0.5-0.5-1.1-0.7-1.7-0.7s-1.3,0.3-1.7,0.7c-0.5,0.5-0.7,1.1-0.7,1.7
					s0.3,1.3,0.7,1.7C156.1,246.4,156.7,246.6,157.4,246.6z"/>
			</g>
			<g>
				<path id="m6d51641fb5_00000183222990196859894680000002579871412211339682_" class="st1" d="M129,278.6c0.6,0,1.3-0.3,1.7-0.7
					c0.5-0.5,0.7-1.1,0.7-1.7c0-0.6-0.3-1.3-0.7-1.7c-0.5-0.5-1.1-0.7-1.7-0.7s-1.3,0.3-1.7,0.7c-0.5,0.5-0.7,1.1-0.7,1.7
					c0,0.6,0.3,1.3,0.7,1.7C127.7,278.4,128.3,278.6,129,278.6z"/>
			</g>
			<g>
				<path id="m6d51641fb5_00000143602364295165750440000017179961927984739773_" class="st1" d="M227.8,171.3c0.6,0,1.3-0.3,1.7-0.7
					c0.5-0.5,0.7-1.1,0.7-1.7s-0.3-1.3-0.7-1.7c-0.5-0.5-1.1-0.7-1.7-0.7s-1.3,0.3-1.7,0.7c-0.5,0.5-0.7,1.1-0.7,1.7
					s0.3,1.3,0.7,1.7C226.6,171.1,227.2,171.3,227.8,171.3z"/>
			</g>
			<g>
				<path id="m6d51641fb5_00000176039758209256557950000012459180148679478959_" class="st1" d="M310,108.1c0.6,0,1.3-0.3,1.7-0.7
					s0.7-1.1,0.7-1.7c0-0.6-0.3-1.3-0.7-1.7s-1.1-0.7-1.7-0.7s-1.3,0.3-1.7,0.7s-0.7,1.1-0.7,1.7c0,0.6,0.3,1.3,0.7,1.7
					S309.3,108.1,310,108.1z"/>
			</g>
			<g>
				<path id="m6d51641fb5_00000132083700532356006470000017674587164088476088_" class="st1" d="M163.7,241.9c0.6,0,1.3-0.3,1.7-0.7
					c0.5-0.5,0.7-1.1,0.7-1.7s-0.3-1.3-0.7-1.7c-0.5-0.5-1.1-0.7-1.7-0.7s-1.3,0.3-1.7,0.7c-0.5,0.5-0.7,1.1-0.7,1.7
					s0.3,1.3,0.7,1.7C162.4,241.6,163.1,241.9,163.7,241.9z"/>
			</g>
			<g>
				<path id="m6d51641fb5_00000114035922490658339940000000410867357912200882_" class="st1" d="M295.5,114.4c0.6,0,1.3-0.3,1.7-0.7
					s0.7-1.1,0.7-1.7c0-0.6-0.3-1.3-0.7-1.7s-1.1-0.7-1.7-0.7s-1.3,0.3-1.7,0.7s-0.7,1.1-0.7,1.7c0,0.6,0.3,1.3,0.7,1.7
					S294.9,114.4,295.5,114.4z"/>
			</g>
			<g>
				<path id="m6d51641fb5_00000153704907615270632880000010937216561703789974_" class="st1" d="M248.4,160c0.6,0,1.3-0.3,1.7-0.7
					c0.5-0.5,0.7-1.1,0.7-1.7s-0.3-1.3-0.7-1.7c-0.5-0.5-1.1-0.7-1.7-0.7s-1.3,0.3-1.7,0.7c-0.5,0.5-0.7,1.1-0.7,1.7
					s0.3,1.3,0.7,1.7C247.1,159.7,247.7,160,248.4,160z"/>
			</g>
			<g>
				<path id="m6d51641fb5_00000070108182507749370340000002313994976261613735_" class="st1" d="M161.3,243.7c0.6,0,1.3-0.3,1.7-0.7
					c0.5-0.5,0.7-1.1,0.7-1.7s-0.3-1.3-0.7-1.7c-0.5-0.5-1.1-0.7-1.7-0.7s-1.3,0.3-1.7,0.7c-0.5,0.5-0.7,1.1-0.7,1.7
					s0.3,1.3,0.7,1.7C160.1,243.4,160.7,243.7,161.3,243.7z"/>
			</g>
			<g>
				<path id="m6d51641fb5_00000173141199156038067330000000612267931183055505_" class="st1" d="M188.1,204.8c0.6,0,1.3-0.3,1.7-0.7
					c0.5-0.5,0.7-1.1,0.7-1.7s-0.3-1.3-0.7-1.7c-0.5-0.5-1.1-0.7-1.7-0.7s-1.3,0.3-1.7,0.7c-0.5,0.5-0.7,1.1-0.7,1.7
					s0.3,1.3,0.7,1.7C186.8,204.6,187.5,204.8,188.1,204.8z"/>
			</g>
			<g>
				<path id="m6d51641fb5_00000151510581143193513490000000848050413332721037_" class="st1" d="M176.3,229.8c0.6,0,1.3-0.3,1.7-0.7
					c0.5-0.5,0.7-1.1,0.7-1.7s-0.3-1.3-0.7-1.7c-0.5-0.5-1.1-0.7-1.7-0.7s-1.3,0.3-1.7,0.7c-0.5,0.5-0.7,1.1-0.7,1.7
					s0.3,1.3,0.7,1.7C175,229.5,175.7,229.8,176.3,229.8z"/>
			</g>
			<g>
				<path id="m6d51641fb5_00000015314860134437685060000013031293267247286698_" class="st1" d="M162.5,245.6c0.6,0,1.3-0.3,1.7-0.7
					c0.5-0.5,0.7-1.1,0.7-1.7s-0.3-1.3-0.7-1.7c-0.5-0.5-1.1-0.7-1.7-0.7s-1.3,0.3-1.7,0.7c-0.5,0.5-0.7,1.1-0.7,1.7
					s0.3,1.3,0.7,1.7C161.2,245.3,161.8,245.6,162.5,245.6z"/>
			</g>
			<g>
				<path id="m6d51641fb5_00000052095406916969344100000015883558344507955617_" class="st1" d="M171.3,235.9c0.6,0,1.3-0.3,1.7-0.7
					c0.5-0.5,0.7-1.1,0.7-1.7s-0.3-1.3-0.7-1.7c-0.5-0.5-1.1-0.7-1.7-0.7s-1.3,0.3-1.7,0.7c-0.5,0.5-0.7,1.1-0.7,1.7
					s0.3,1.3,0.7,1.7C170,235.7,170.6,235.9,171.3,235.9z"/>
			</g>
			<g>
				<path id="m6d51641fb5_00000079445326548139601330000000136825258157552548_" class="st1" d="M208.6,204.9c0.6,0,1.3-0.3,1.7-0.7
					c0.5-0.5,0.7-1.1,0.7-1.7s-0.3-1.3-0.7-1.7c-0.5-0.5-1.1-0.7-1.7-0.7s-1.3,0.3-1.7,0.7c-0.5,0.5-0.7,1.1-0.7,1.7
					s0.3,1.3,0.7,1.7C207.3,204.7,208,204.9,208.6,204.9z"/>
			</g>
			<g>
				<path id="m6d51641fb5_00000106834180212370972970000008369042712457943478_" class="st1" d="M261.6,138c0.6,0,1.3-0.3,1.7-0.7
					s0.7-1.1,0.7-1.7s-0.3-1.3-0.7-1.7c-0.5-0.5-1.1-0.7-1.7-0.7s-1.3,0.3-1.7,0.7c-0.5,0.5-0.7,1.1-0.7,1.7s0.3,1.3,0.7,1.7
					S261,138,261.6,138z"/>
			</g>
			<g>
				<path id="m6d51641fb5_00000108273716954549426660000015496116751497669813_" class="st1" d="M340.8,63.8c0.6,0,1.3-0.3,1.7-0.7
					c0.5-0.5,0.7-1.1,0.7-1.7s-0.3-1.3-0.7-1.7c-0.5-0.5-1.1-0.7-1.7-0.7s-1.3,0.3-1.7,0.7c-0.5,0.5-0.7,1.1-0.7,1.7
					s0.3,1.3,0.7,1.7C339.5,63.6,340.2,63.8,340.8,63.8z"/>
			</g>
			<g>
				<path id="m6d51641fb5_00000045602172301283896300000009518240191593993114_" class="st1" d="M129.8,277.6c0.6,0,1.3-0.3,1.7-0.7
					c0.5-0.5,0.7-1.1,0.7-1.7c0-0.6-0.3-1.3-0.7-1.7c-0.5-0.5-1.1-0.7-1.7-0.7s-1.3,0.3-1.7,0.7c-0.5,0.5-0.7,1.1-0.7,1.7
					c0,0.6,0.3,1.3,0.7,1.7C128.5,277.3,129.2,277.6,129.8,277.6z"/>
			</g>
			<g>
				<path id="m6d51641fb5_00000008860233712758717030000006433767141011527079_" class="st1" d="M145.1,254.7c0.6,0,1.3-0.3,1.7-0.7
					c0.5-0.5,0.7-1.1,0.7-1.7s-0.3-1.3-0.7-1.7c-0.5-0.5-1.1-0.7-1.7-0.7s-1.3,0.3-1.7,0.7c-0.5,0.5-0.7,1.1-0.7,1.7
					s0.3,1.3,0.7,1.7C143.9,254.5,144.5,254.7,145.1,254.7z"/>
			</g>
			<g>
				<path id="m6d51641fb5_00000097476197123390423900000005670187292817391781_" class="st1" d="M141.7,265c0.6,0,1.3-0.3,1.7-0.7
					c0.5-0.5,0.7-1.1,0.7-1.7c0-0.6-0.3-1.3-0.7-1.7c-0.5-0.5-1.1-0.7-1.7-0.7s-1.3,0.3-1.7,0.7c-0.5,0.5-0.7,1.1-0.7,1.7
					c0,0.6,0.3,1.3,0.7,1.7C140.4,264.7,141,265,141.7,265z"/>
			</g>
			<g>
				<path id="m6d51641fb5_00000155120702604515360700000011842876678047205558_" class="st1" d="M189.3,219.2c0.6,0,1.3-0.3,1.7-0.7
					c0.5-0.5,0.7-1.1,0.7-1.7s-0.3-1.3-0.7-1.7c-0.5-0.5-1.1-0.7-1.7-0.7s-1.3,0.3-1.7,0.7c-0.5,0.5-0.7,1.1-0.7,1.7
					s0.3,1.3,0.7,1.7C188,219,188.6,219.2,189.3,219.2z"/>
			</g>
			<g>
				<path id="m6d51641fb5_00000031196230562420327810000004732265139037733809_" class="st1" d="M125.2,284.7c0.6,0,1.3-0.3,1.7-0.7
					c0.5-0.5,0.7-1.1,0.7-1.7c0-0.6-0.3-1.3-0.7-1.7c-0.5-0.5-1.1-0.7-1.7-0.7s-1.3,0.3-1.7,0.7c-0.5,0.5-0.7,1.1-0.7,1.7
					c0,0.6,0.3,1.3,0.7,1.7C123.9,284.4,124.5,284.7,125.2,284.7z"/>
			</g>
			<g>
				<path id="m6d51641fb5_00000171697006185098987110000016241696095585947023_" class="st1" d="M189.8,220.5c0.6,0,1.3-0.3,1.7-0.7
					c0.5-0.5,0.7-1.1,0.7-1.7s-0.3-1.3-0.7-1.7c-0.5-0.5-1.1-0.7-1.7-0.7s-1.3,0.3-1.7,0.7c-0.5,0.5-0.7,1.1-0.7,1.7
					s0.3,1.3,0.7,1.7C188.5,220.3,189.1,220.5,189.8,220.5z"/>
			</g>
			<g>
				<path id="m6d51641fb5_00000092448010459832606290000015148715113557593763_" class="st1" d="M207.9,193.6c0.6,0,1.3-0.3,1.7-0.7
					c0.5-0.5,0.7-1.1,0.7-1.7s-0.3-1.3-0.7-1.7c-0.5-0.5-1.1-0.7-1.7-0.7s-1.3,0.3-1.7,0.7c-0.5,0.5-0.7,1.1-0.7,1.7
					s0.3,1.3,0.7,1.7C206.7,193.3,207.3,193.6,207.9,193.6z"/>
			</g>
			<g>
				<path id="m6d51641fb5_00000036972397634757316320000015532780261584258726_" class="st1" d="M305.1,110.4c0.6,0,1.3-0.3,1.7-0.7
					s0.7-1.1,0.7-1.7c0-0.6-0.3-1.3-0.7-1.7s-1.1-0.7-1.7-0.7s-1.3,0.3-1.7,0.7s-0.7,1.1-0.7,1.7c0,0.6,0.3,1.3,0.7,1.7
					S304.5,110.4,305.1,110.4z"/>
			</g>
			<g>
				<path id="m6d51641fb5_00000160178181634100297590000003520353477111316625_" class="st1" d="M119.9,288.7c0.6,0,1.3-0.3,1.7-0.7
					c0.5-0.5,0.7-1.1,0.7-1.7c0-0.6-0.3-1.3-0.7-1.7c-0.5-0.5-1.1-0.7-1.7-0.7s-1.3,0.3-1.7,0.7c-0.5,0.5-0.7,1.1-0.7,1.7
					c0,0.6,0.3,1.3,0.7,1.7C118.6,288.4,119.2,288.7,119.9,288.7z"/>
			</g>
			<g>
				<path id="m6d51641fb5_00000132052495529487596440000001886157924003199917_" class="st1" d="M260.8,147.3c0.6,0,1.3-0.3,1.7-0.7
					c0.5-0.5,0.7-1.1,0.7-1.7s-0.3-1.3-0.7-1.7s-1.1-0.7-1.7-0.7s-1.3,0.3-1.7,0.7s-0.7,1.1-0.7,1.7s0.3,1.3,0.7,1.7
					C259.6,147,260.2,147.3,260.8,147.3z"/>
			</g>
			<g>
				<path id="m6d51641fb5_00000107552690596297317410000009768271709693813889_" class="st1" d="M282,134.5c0.6,0,1.3-0.3,1.7-0.7
					c0.5-0.5,0.7-1.1,0.7-1.7s-0.3-1.3-0.7-1.7s-1.1-0.7-1.7-0.7s-1.3,0.3-1.7,0.7s-0.7,1.1-0.7,1.7s0.3,1.3,0.7,1.7
					C280.8,134.2,281.4,134.5,282,134.5z"/>
			</g>
			<g>
				<path id="m6d51641fb5_00000085210019470644644940000003690079437203301268_" class="st1" d="M124.9,282.2c0.6,0,1.3-0.3,1.7-0.7
					c0.5-0.5,0.7-1.1,0.7-1.7c0-0.6-0.3-1.3-0.7-1.7c-0.5-0.5-1.1-0.7-1.7-0.7s-1.3,0.3-1.7,0.7c-0.5,0.5-0.7,1.1-0.7,1.7
					c0,0.6,0.3,1.3,0.7,1.7C123.6,282,124.2,282.2,124.9,282.2z"/>
			</g>
			<g>
				<path id="m6d51641fb5_00000173863253626375057430000007678765563349649315_" class="st1" d="M302.6,81.4c0.6,0,1.3-0.3,1.7-0.7
					c0.5-0.5,0.7-1.1,0.7-1.7s-0.3-1.3-0.7-1.7c-0.5-0.5-1.1-0.7-1.7-0.7s-1.3,0.3-1.7,0.7c-0.5,0.5-0.7,1.1-0.7,1.7
					s0.3,1.3,0.7,1.7C301.4,81.1,302,81.4,302.6,81.4z"/>
			</g>
			<g>
				<path id="m6d51641fb5_00000012444844701292653650000007468040838453276072_" class="st1" d="M295.2,106.3c0.6,0,1.3-0.3,1.7-0.7
					s0.7-1.1,0.7-1.7c0-0.6-0.3-1.3-0.7-1.7s-1.1-0.7-1.7-0.7s-1.3,0.3-1.7,0.7s-0.7,1.1-0.7,1.7c0,0.6,0.3,1.3,0.7,1.7
					S294.6,106.3,295.2,106.3z"/>
			</g>
			<g>
				<path id="m6d51641fb5_00000176006156007524101260000015531505814670955446_" class="st1" d="M227.1,173.7c0.6,0,1.3-0.3,1.7-0.7
					c0.5-0.5,0.7-1.1,0.7-1.7s-0.3-1.3-0.7-1.7c-0.5-0.5-1.1-0.7-1.7-0.7s-1.3,0.3-1.7,0.7c-0.5,0.5-0.7,1.1-0.7,1.7
					s0.3,1.3,0.7,1.7C225.8,173.5,226.4,173.7,227.1,173.7z"/>
			</g>
			<g>
				<path id="m6d51641fb5_00000138554189152641160880000005318912474988738709_" class="st1" d="M158.8,245.2c0.6,0,1.3-0.3,1.7-0.7
					c0.5-0.5,0.7-1.1,0.7-1.7s-0.3-1.3-0.7-1.7c-0.5-0.5-1.1-0.7-1.7-0.7s-1.3,0.3-1.7,0.7c-0.5,0.5-0.7,1.1-0.7,1.7
					s0.3,1.3,0.7,1.7C157.6,244.9,158.2,245.2,158.8,245.2z"/>
			</g>
			<g>
				<path id="m6d51641fb5_00000051350427047436726060000004541773403281691277_" class="st1" d="M218.3,193.4c0.6,0,1.3-0.3,1.7-0.7
					c0.5-0.5,0.7-1.1,0.7-1.7s-0.3-1.3-0.7-1.7c-0.5-0.5-1.1-0.7-1.7-0.7s-1.3,0.3-1.7,0.7c-0.5,0.5-0.7,1.1-0.7,1.7
					s0.3,1.3,0.7,1.7C217,193.1,217.7,193.4,218.3,193.4z"/>
			</g>
			<g>
				<path id="m6d51641fb5_00000179627960879979941110000000846123323810682774_" class="st1" d="M279.4,104.5c0.6,0,1.3-0.3,1.7-0.7
					s0.7-1.1,0.7-1.7c0-0.6-0.3-1.3-0.7-1.7s-1.1-0.7-1.7-0.7s-1.3,0.3-1.7,0.7s-0.7,1.1-0.7,1.7c0,0.6,0.3,1.3,0.7,1.7
					S278.8,104.5,279.4,104.5z"/>
			</g>
			<g>
				<path id="m6d51641fb5_00000164502686576246904220000009171532976259501958_" class="st1" d="M252.5,157.2c0.6,0,1.3-0.3,1.7-0.7
					c0.5-0.5,0.7-1.1,0.7-1.7s-0.3-1.3-0.7-1.7c-0.5-0.5-1.1-0.7-1.7-0.7s-1.3,0.3-1.7,0.7c-0.5,0.5-0.7,1.1-0.7,1.7
					s0.3,1.3,0.7,1.7C251.2,156.9,251.8,157.2,252.5,157.2z"/>
			</g>
			<g>
				<path id="m6d51641fb5_00000044175017852116699580000000782960349856223874_" class="st1" d="M230.1,174.3c0.6,0,1.3-0.3,1.7-0.7
					c0.5-0.5,0.7-1.1,0.7-1.7s-0.3-1.3-0.7-1.7c-0.5-0.5-1.1-0.7-1.7-0.7s-1.3,0.3-1.7,0.7c-0.5,0.5-0.7,1.1-0.7,1.7
					s0.3,1.3,0.7,1.7C228.8,174.1,229.5,174.3,230.1,174.3z"/>
			</g>
			<g>
				<path id="m6d51641fb5_00000127034123413356253020000017446008911731516054_" class="st1" d="M173.3,240.9c0.6,0,1.3-0.3,1.7-0.7
					c0.5-0.5,0.7-1.1,0.7-1.7s-0.3-1.3-0.7-1.7c-0.5-0.5-1.1-0.7-1.7-0.7s-1.3,0.3-1.7,0.7c-0.5,0.5-0.7,1.1-0.7,1.7
					s0.3,1.3,0.7,1.7C172,240.7,172.6,240.9,173.3,240.9z"/>
			</g>
			<g>
				<path id="m6d51641fb5_00000093142790468398042530000002831076699890174907_" class="st1" d="M320.2,82.6c0.6,0,1.3-0.3,1.7-0.7
					s0.7-1.1,0.7-1.7c0-0.6-0.3-1.3-0.7-1.7s-1.1-0.7-1.7-0.7s-1.3,0.3-1.7,0.7s-0.7,1.1-0.7,1.7c0,0.6,0.3,1.3,0.7,1.7
					S319.5,82.6,320.2,82.6z"/>
			</g>
			<g>
				<path id="m6d51641fb5_00000047755023486206867200000011656725171715521168_" class="st1" d="M285,108.3c0.6,0,1.3-0.3,1.7-0.7
					s0.7-1.1,0.7-1.7c0-0.6-0.3-1.3-0.7-1.7s-1.1-0.7-1.7-0.7s-1.3,0.3-1.7,0.7s-0.7,1.1-0.7,1.7c0,0.6,0.3,1.3,0.7,1.7
					S284.3,108.3,285,108.3z"/>
			</g>
			<g>
				<path id="m6d51641fb5_00000086651186359200471810000006136388375522258857_" class="st1" d="M183.5,221.2c0.6,0,1.3-0.3,1.7-0.7
					c0.5-0.5,0.7-1.1,0.7-1.7s-0.3-1.3-0.7-1.7c-0.5-0.5-1.1-0.7-1.7-0.7s-1.3,0.3-1.7,0.7c-0.5,0.5-0.7,1.1-0.7,1.7
					s0.3,1.3,0.7,1.7C182.2,221,182.8,221.2,183.5,221.2z"/>
			</g>
			<g>
				<path id="m6d51641fb5_00000178204764959492186160000001871303829090234042_" class="st1" d="M236.4,178.8c0.6,0,1.3-0.3,1.7-0.7
					c0.5-0.5,0.7-1.1,0.7-1.7s-0.3-1.3-0.7-1.7c-0.5-0.5-1.1-0.7-1.7-0.7s-1.3,0.3-1.7,0.7c-0.5,0.5-0.7,1.1-0.7,1.7
					s0.3,1.3,0.7,1.7C235.2,178.5,235.8,178.8,236.4,178.8z"/>
			</g>
			<g>
				<path id="m6d51641fb5_00000098209302990192346220000000059621957122752690_" class="st1" d="M201.3,207.9c0.6,0,1.3-0.3,1.7-0.7
					c0.5-0.5,0.7-1.1,0.7-1.7s-0.3-1.3-0.7-1.7c-0.5-0.5-1.1-0.7-1.7-0.7s-1.3,0.3-1.7,0.7c-0.5,0.5-0.7,1.1-0.7,1.7
					s0.3,1.3,0.7,1.7C200,207.6,200.6,207.9,201.3,207.9z"/>
			</g>
			<g>
				<path id="m6d51641fb5_00000026152601553591777160000000893562254650783918_" class="st1" d="M191.2,215.5c0.6,0,1.3-0.3,1.7-0.7
					c0.5-0.5,0.7-1.1,0.7-1.7s-0.3-1.3-0.7-1.7c-0.5-0.5-1.1-0.7-1.7-0.7s-1.3,0.3-1.7,0.7c-0.5,0.5-0.7,1.1-0.7,1.7
					s0.3,1.3,0.7,1.7C190,215.2,190.6,215.5,191.2,215.5z"/>
			</g>
			<g>
				<path id="m6d51641fb5_00000059309856571810687110000001708891466034990733_" class="st1" d="M337.7,86.6c0.6,0,1.3-0.3,1.7-0.7
					s0.7-1.1,0.7-1.7c0-0.6-0.3-1.3-0.7-1.7s-1.1-0.7-1.7-0.7s-1.3,0.3-1.7,0.7s-0.7,1.1-0.7,1.7c0,0.6,0.3,1.3,0.7,1.7
					S337,86.6,337.7,86.6z"/>
			</g>
			<g>
				<path id="m6d51641fb5_00000178176146244614329780000004086728286893920675_" class="st1" d="M196.6,214c0.6,0,1.3-0.3,1.7-0.7
					c0.5-0.5,0.7-1.1,0.7-1.7s-0.3-1.3-0.7-1.7c-0.5-0.5-1.1-0.7-1.7-0.7s-1.3,0.3-1.7,0.7c-0.5,0.5-0.7,1.1-0.7,1.7
					s0.3,1.3,0.7,1.7C195.3,213.8,195.9,214,196.6,214z"/>
			</g>
			<g>
				<path id="m6d51641fb5_00000042006620748496802600000004658036292049594279_" class="st1" d="M202.4,210.4c0.6,0,1.3-0.3,1.7-0.7
					c0.5-0.5,0.7-1.1,0.7-1.7s-0.3-1.3-0.7-1.7c-0.5-0.5-1.1-0.7-1.7-0.7s-1.3,0.3-1.7,0.7c-0.5,0.5-0.7,1.1-0.7,1.7
					s0.3,1.3,0.7,1.7C201.1,210.1,201.7,210.4,202.4,210.4z"/>
			</g>
			<g>
				<path id="m6d51641fb5_00000060012035926215677620000005545107619620348564_" class="st1" d="M176.4,231.2c0.6,0,1.3-0.3,1.7-0.7
					c0.5-0.5,0.7-1.1,0.7-1.7s-0.3-1.3-0.7-1.7c-0.5-0.5-1.1-0.7-1.7-0.7s-1.3,0.3-1.7,0.7c-0.5,0.5-0.7,1.1-0.7,1.7
					s0.3,1.3,0.7,1.7C175.1,230.9,175.8,231.2,176.4,231.2z"/>
			</g>
			<g>
				<path id="m6d51641fb5_00000108306106075403456950000006346969320844290222_" class="st1" d="M143.2,265.6c0.6,0,1.3-0.3,1.7-0.7
					c0.5-0.5,0.7-1.1,0.7-1.7c0-0.6-0.3-1.3-0.7-1.7c-0.5-0.5-1.1-0.7-1.7-0.7s-1.3,0.3-1.7,0.7c-0.5,0.5-0.7,1.1-0.7,1.7
					c0,0.6,0.3,1.3,0.7,1.7C141.9,265.4,142.5,265.6,143.2,265.6z"/>
			</g>
			<g>
				<path id="m6d51641fb5_00000120522258902138787870000017519037960429676715_" class="st1" d="M335.5,82.7c0.6,0,1.3-0.3,1.7-0.7
					c0.5-0.5,0.7-1.1,0.7-1.7s-0.3-1.3-0.7-1.7c-0.5-0.5-1.1-0.7-1.7-0.7s-1.3,0.3-1.7,0.7c-0.5,0.5-0.7,1.1-0.7,1.7
					s0.3,1.3,0.7,1.7C334.2,82.4,334.8,82.7,335.5,82.7z"/>
			</g>
			<g>
				<path id="m6d51641fb5_00000031204146812924665600000008488852178611551907_" class="st1" d="M154.2,258.3c0.6,0,1.3-0.3,1.7-0.7
					c0.5-0.5,0.7-1.1,0.7-1.7s-0.3-1.3-0.7-1.7c-0.5-0.5-1.1-0.7-1.7-0.7s-1.3,0.3-1.7,0.7c-0.5,0.5-0.7,1.1-0.7,1.7
					s0.3,1.3,0.7,1.7C152.9,258,153.5,258.3,154.2,258.3z"/>
			</g>
			<g>
				<path id="m6d51641fb5_00000168819960731670273580000015646272467251367336_" class="st1" d="M254.6,151.6c0.6,0,1.3-0.3,1.7-0.7
					c0.5-0.5,0.7-1.1,0.7-1.7s-0.3-1.3-0.7-1.7c-0.5-0.5-1.1-0.7-1.7-0.7s-1.3,0.3-1.7,0.7c-0.5,0.5-0.7,1.1-0.7,1.7
					s0.3,1.3,0.7,1.7C253.3,151.4,253.9,151.6,254.6,151.6z"/>
			</g>
			<g>
				<path id="m6d51641fb5_00000046319673692280805600000009457463762966087827_" class="st1" d="M284.4,132.1c0.6,0,1.3-0.3,1.7-0.7
					c0.5-0.5,0.7-1.1,0.7-1.7s-0.3-1.3-0.7-1.7c-0.5-0.5-1.1-0.7-1.7-0.7s-1.3,0.3-1.7,0.7c-0.5,0.5-0.7,1.1-0.7,1.7
					s0.3,1.3,0.7,1.7C283.1,131.9,283.8,132.1,284.4,132.1z"/>
			</g>
			<g>
				<path id="m6d51641fb5_00000150789950268930662170000005407394054650867893_" class="st1" d="M117,291c0.6,0,1.3-0.3,1.7-0.7
					c0.5-0.5,0.7-1.1,0.7-1.7c0-0.6-0.3-1.3-0.7-1.7c-0.5-0.5-1.1-0.7-1.7-0.7s-1.3,0.3-1.7,0.7c-0.5,0.5-0.7,1.1-0.7,1.7
					c0,0.6,0.3,1.3,0.7,1.7C115.7,290.7,116.4,291,117,291z"/>
			</g>
			<g>
				<path id="m6d51641fb5_00000009547933561217614730000000145489507517477555_" class="st1" d="M330.2,79c0.6,0,1.3-0.3,1.7-0.7
					s0.7-1.1,0.7-1.7c0-0.6-0.3-1.3-0.7-1.7s-1.1-0.7-1.7-0.7s-1.3,0.3-1.7,0.7s-0.7,1.1-0.7,1.7c0,0.6,0.3,1.3,0.7,1.7
					S329.6,79,330.2,79z"/>
			</g>
			<g>
				<path id="m6d51641fb5_00000146493713846156352890000004742272059763073152_" class="st1" d="M341.8,61.3c0.6,0,1.3-0.3,1.7-0.7
					c0.5-0.5,0.7-1.1,0.7-1.7s-0.3-1.3-0.7-1.7c-0.5-0.5-1.1-0.7-1.7-0.7s-1.3,0.3-1.7,0.7c-0.5,0.5-0.7,1.1-0.7,1.7
					s0.3,1.3,0.7,1.7C340.5,61,341.2,61.3,341.8,61.3z"/>
			</g>
			<g>
				<path id="m6d51641fb5_00000111172710380888485800000016841767057051152539_" class="st1" d="M321.1,84.1c0.6,0,1.3-0.3,1.7-0.7
					s0.7-1.1,0.7-1.7c0-0.6-0.3-1.3-0.7-1.7s-1.1-0.7-1.7-0.7s-1.3,0.3-1.7,0.7s-0.7,1.1-0.7,1.7c0,0.6,0.3,1.3,0.7,1.7
					S320.4,84.1,321.1,84.1z"/>
			</g>
			<g>
				<path id="m6d51641fb5_00000178919082267856697290000010833373812064012436_" class="st1" d="M191.5,216c0.6,0,1.3-0.3,1.7-0.7
					c0.5-0.5,0.7-1.1,0.7-1.7s-0.3-1.3-0.7-1.7c-0.5-0.5-1.1-0.7-1.7-0.7s-1.3,0.3-1.7,0.7c-0.5,0.5-0.7,1.1-0.7,1.7
					s0.3,1.3,0.7,1.7C190.3,215.7,190.9,216,191.5,216z"/>
			</g>
			<g>
				<path id="m6d51641fb5_00000172433504101048792960000016435874203161042602_" class="st1" d="M306.6,94.6c0.6,0,1.3-0.3,1.7-0.7
					s0.7-1.1,0.7-1.7c0-0.6-0.3-1.3-0.7-1.7s-1.1-0.7-1.7-0.7s-1.3,0.3-1.7,0.7s-0.7,1.1-0.7,1.7c0,0.6,0.3,1.3,0.7,1.7
					S306,94.6,306.6,94.6z"/>
			</g>
			<g>
				<path id="m6d51641fb5_00000016768064314575558440000005573215376529267342_" class="st1" d="M128,277.8c0.6,0,1.3-0.3,1.7-0.7
					c0.5-0.5,0.7-1.1,0.7-1.7c0-0.6-0.3-1.3-0.7-1.7c-0.5-0.5-1.1-0.7-1.7-0.7s-1.3,0.3-1.7,0.7c-0.5,0.5-0.7,1.1-0.7,1.7
					c0,0.6,0.3,1.3,0.7,1.7C126.7,277.5,127.4,277.8,128,277.8z"/>
			</g>
			<g>
				<path id="m6d51641fb5_00000096036828465360897540000005679384689752122280_" class="st1" d="M227.5,179c0.6,0,1.3-0.3,1.7-0.7
					c0.5-0.5,0.7-1.1,0.7-1.7s-0.3-1.3-0.7-1.7c-0.5-0.5-1.1-0.7-1.7-0.7s-1.3,0.3-1.7,0.7c-0.5,0.5-0.7,1.1-0.7,1.7
					s0.3,1.3,0.7,1.7C226.3,178.7,226.9,179,227.5,179z"/>
			</g>
			<g>
				<path id="m6d51641fb5_00000045603428538069360430000001109072498598343317_" class="st1" d="M286.8,131.1c0.6,0,1.3-0.3,1.7-0.7
					c0.5-0.5,0.7-1.1,0.7-1.7s-0.3-1.3-0.7-1.7s-1.1-0.7-1.7-0.7s-1.3,0.3-1.7,0.7s-0.7,1.1-0.7,1.7s0.3,1.3,0.7,1.7
					C285.5,130.8,286.1,131.1,286.8,131.1z"/>
			</g>
			<g>
				<path id="m6d51641fb5_00000086664793229862484900000008549481017119328686_" class="st1" d="M284.4,121.6c0.6,0,1.3-0.3,1.7-0.7
					s0.7-1.1,0.7-1.7c0-0.6-0.3-1.3-0.7-1.7s-1.1-0.7-1.7-0.7s-1.3,0.3-1.7,0.7s-0.7,1.1-0.7,1.7c0,0.6,0.3,1.3,0.7,1.7
					S283.7,121.6,284.4,121.6z"/>
			</g>
			<g>
				<path id="m6d51641fb5_00000141420802964012562740000016702375200282817458_" class="st1" d="M282.6,115.1c0.6,0,1.3-0.3,1.7-0.7
					s0.7-1.1,0.7-1.7c0-0.6-0.3-1.3-0.7-1.7s-1.1-0.7-1.7-0.7s-1.3,0.3-1.7,0.7s-0.7,1.1-0.7,1.7c0,0.6,0.3,1.3,0.7,1.7
					S281.9,115.1,282.6,115.1z"/>
			</g>
			<g>
				<path id="m6d51641fb5_00000057118801176971525760000013033735398200533411_" class="st1" d="M231.6,176.8c0.6,0,1.3-0.3,1.7-0.7
					c0.5-0.5,0.7-1.1,0.7-1.7s-0.3-1.3-0.7-1.7c-0.5-0.5-1.1-0.7-1.7-0.7s-1.3,0.3-1.7,0.7c-0.5,0.5-0.7,1.1-0.7,1.7
					s0.3,1.3,0.7,1.7C230.4,176.5,231,176.8,231.6,176.8z"/>
			</g>
			<g>
				<path id="m6d51641fb5_00000170239629136925351350000007276360265814912159_" class="st1" d="M289.3,83.2c0.6,0,1.3-0.3,1.7-0.7
					c0.5-0.5,0.7-1.1,0.7-1.7s-0.3-1.3-0.7-1.7c-0.5-0.5-1.1-0.7-1.7-0.7s-1.3,0.3-1.7,0.7c-0.5,0.5-0.7,1.1-0.7,1.7
					s0.3,1.3,0.7,1.7C288,83,288.7,83.2,289.3,83.2z"/>
			</g>
			<g>
				<path id="m6d51641fb5_00000090270248961385803500000010314953634258156418_" class="st1" d="M145.9,267.6c0.6,0,1.3-0.3,1.7-0.7
					c0.5-0.5,0.7-1.1,0.7-1.7c0-0.6-0.3-1.3-0.7-1.7c-0.5-0.5-1.1-0.7-1.7-0.7s-1.3,0.3-1.7,0.7c-0.5,0.5-0.7,1.1-0.7,1.7
					c0,0.6,0.3,1.3,0.7,1.7C144.6,267.4,145.2,267.6,145.9,267.6z"/>
			</g>
			<g>
				<path id="m6d51641fb5_00000078736574770937858540000004955809315427891601_" class="st1" d="M264,139.5c0.6,0,1.3-0.3,1.7-0.7
					s0.7-1.1,0.7-1.7s-0.3-1.3-0.7-1.7c-0.5-0.5-1.1-0.7-1.7-0.7s-1.3,0.3-1.7,0.7c-0.5,0.5-0.7,1.1-0.7,1.7s0.3,1.3,0.7,1.7
					S263.4,139.5,264,139.5z"/>
			</g>
			<g>
				<path id="m6d51641fb5_00000089551958260400850230000015770718268695427457_" class="st1" d="M329.9,84.7c0.6,0,1.3-0.3,1.7-0.7
					s0.7-1.1,0.7-1.7c0-0.6-0.3-1.3-0.7-1.7s-1.1-0.7-1.7-0.7s-1.3,0.3-1.7,0.7s-0.7,1.1-0.7,1.7c0,0.6,0.3,1.3,0.7,1.7
					S329.2,84.7,329.9,84.7z"/>
			</g>
			<g>
				<path id="m6d51641fb5_00000119811555228661759550000014806034717101621944_" class="st1" d="M177.6,226.4c0.6,0,1.3-0.3,1.7-0.7
					c0.5-0.5,0.7-1.1,0.7-1.7s-0.3-1.3-0.7-1.7c-0.5-0.5-1.1-0.7-1.7-0.7s-1.3,0.3-1.7,0.7c-0.5,0.5-0.7,1.1-0.7,1.7
					s0.3,1.3,0.7,1.7C176.3,226.2,176.9,226.4,177.6,226.4z"/>
			</g>
			<g>
				<path id="m6d51641fb5_00000140724858429442016310000006678892114999510965_" class="st1" d="M199.7,200.9c0.6,0,1.3-0.3,1.7-0.7
					c0.5-0.5,0.7-1.1,0.7-1.7s-0.3-1.3-0.7-1.7c-0.5-0.5-1.1-0.7-1.7-0.7s-1.3,0.3-1.7,0.7c-0.5,0.5-0.7,1.1-0.7,1.7
					s0.3,1.3,0.7,1.7C198.4,200.6,199.1,200.9,199.7,200.9z"/>
			</g>
			<g>
				<path id="m6d51641fb5_00000162333070971608611610000011345332423576276892_" class="st1" d="M158.8,257.1c0.6,0,1.3-0.3,1.7-0.7
					c0.5-0.5,0.7-1.1,0.7-1.7s-0.3-1.3-0.7-1.7c-0.5-0.5-1.1-0.7-1.7-0.7s-1.3,0.3-1.7,0.7c-0.5,0.5-0.7,1.1-0.7,1.7
					s0.3,1.3,0.7,1.7C157.6,256.9,158.2,257.1,158.8,257.1z"/>
			</g>
			<g>
				<path id="m6d51641fb5_00000160885772189541682540000016544669001406323074_" class="st1" d="M281.4,133.2c0.6,0,1.3-0.3,1.7-0.7
					s0.7-1.1,0.7-1.7s-0.3-1.3-0.7-1.7c-0.5-0.5-1.1-0.7-1.7-0.7s-1.3,0.3-1.7,0.7c-0.5,0.5-0.7,1.1-0.7,1.7s0.3,1.3,0.7,1.7
					S280.7,133.2,281.4,133.2z"/>
			</g>
			<g>
				<path id="m6d51641fb5_00000011001014757524737780000005592810764165759912_" class="st1" d="M231,180.5c0.6,0,1.3-0.3,1.7-0.7
					c0.5-0.5,0.7-1.1,0.7-1.7s-0.3-1.3-0.7-1.7c-0.5-0.5-1.1-0.7-1.7-0.7s-1.3,0.3-1.7,0.7c-0.5,0.5-0.7,1.1-0.7,1.7
					s0.3,1.3,0.7,1.7C229.8,180.2,230.4,180.5,231,180.5z"/>
			</g>
			<g>
				<path id="m6d51641fb5_00000048469825070815973860000003039967948323299984_" class="st1" d="M158.9,251.3c0.6,0,1.3-0.3,1.7-0.7
					c0.5-0.5,0.7-1.1,0.7-1.7s-0.3-1.3-0.7-1.7c-0.5-0.5-1.1-0.7-1.7-0.7s-1.3,0.3-1.7,0.7c-0.5,0.5-0.7,1.1-0.7,1.7
					s0.3,1.3,0.7,1.7C157.6,251,158.2,251.3,158.9,251.3z"/>
			</g>
			<g>
				<path id="m6d51641fb5_00000172410540034324357620000013962605776338542757_" class="st1" d="M275.4,129.2c0.6,0,1.3-0.3,1.7-0.7
					c0.5-0.5,0.7-1.1,0.7-1.7c0-0.6-0.3-1.3-0.7-1.7s-1.1-0.7-1.7-0.7s-1.3,0.3-1.7,0.7s-0.7,1.1-0.7,1.7c0,0.6,0.3,1.3,0.7,1.7
					C274.2,128.9,274.8,129.2,275.4,129.2z"/>
			</g>
			<g>
				<path id="m6d51641fb5_00000014626998904668076260000000379299637049726124_" class="st1" d="M260.7,143.7c0.6,0,1.3-0.3,1.7-0.7
					c0.5-0.5,0.7-1.1,0.7-1.7s-0.3-1.3-0.7-1.7s-1.1-0.7-1.7-0.7s-1.3,0.3-1.7,0.7s-0.7,1.1-0.7,1.7s0.3,1.3,0.7,1.7
					C259.5,143.5,260.1,143.7,260.7,143.7z"/>
			</g>
			<g>
				<path id="m6d51641fb5_00000054974175816760996160000011473840396891116968_" class="st1" d="M267.2,148.1c0.6,0,1.3-0.3,1.7-0.7
					c0.5-0.5,0.7-1.1,0.7-1.7s-0.3-1.3-0.7-1.7s-1.1-0.7-1.7-0.7s-1.3,0.3-1.7,0.7s-0.7,1.1-0.7,1.7s0.3,1.3,0.7,1.7
					C265.9,147.9,266.5,148.1,267.2,148.1z"/>
			</g>
			<g>
				<path id="m6d51641fb5_00000046298608984611862850000003602471054301358761_" class="st1" d="M272.7,146.9c0.6,0,1.3-0.3,1.7-0.7
					s0.7-1.1,0.7-1.7s-0.3-1.3-0.7-1.7c-0.5-0.5-1.1-0.7-1.7-0.7s-1.3,0.3-1.7,0.7c-0.5,0.5-0.7,1.1-0.7,1.7s0.3,1.3,0.7,1.7
					S272,146.9,272.7,146.9z"/>
			</g>
			<g>
				<path id="m6d51641fb5_00000109723611336017431270000017770161062792976291_" class="st1" d="M233.2,166.6c0.6,0,1.3-0.3,1.7-0.7
					c0.5-0.5,0.7-1.1,0.7-1.7s-0.3-1.3-0.7-1.7c-0.5-0.5-1.1-0.7-1.7-0.7s-1.3,0.3-1.7,0.7c-0.5,0.5-0.7,1.1-0.7,1.7
					s0.3,1.3,0.7,1.7C231.9,166.4,232.5,166.6,233.2,166.6z"/>
			</g>
			<g>
				<path id="m6d51641fb5_00000132778534874643785890000000263114243787991938_" class="st1" d="M304.9,64.3c0.6,0,1.3-0.3,1.7-0.7
					s0.7-1.1,0.7-1.7s-0.3-1.3-0.7-1.7c-0.5-0.5-1.1-0.7-1.7-0.7s-1.3,0.3-1.7,0.7c-0.5,0.5-0.7,1.1-0.7,1.7s0.3,1.3,0.7,1.7
					S304.2,64.3,304.9,64.3z"/>
			</g>
			<g>
				<path id="m6d51641fb5_00000116199098963620059360000002616243234010946232_" class="st1" d="M203,208.7c0.6,0,1.3-0.3,1.7-0.7
					c0.5-0.5,0.7-1.1,0.7-1.7s-0.3-1.3-0.7-1.7c-0.5-0.5-1.1-0.7-1.7-0.7s-1.3,0.3-1.7,0.7c-0.5,0.5-0.7,1.1-0.7,1.7
					s0.3,1.3,0.7,1.7C201.7,208.4,202.3,208.7,203,208.7z"/>
			</g>
			<g>
				<path id="m6d51641fb5_00000075857337579581939560000007140814368359749785_" class="st1" d="M145.2,269.3c0.6,0,1.3-0.3,1.7-0.7
					c0.5-0.5,0.7-1.1,0.7-1.7c0-0.6-0.3-1.3-0.7-1.7c-0.5-0.5-1.1-0.7-1.7-0.7s-1.3,0.3-1.7,0.7c-0.5,0.5-0.7,1.1-0.7,1.7
					c0,0.6,0.3,1.3,0.7,1.7C143.9,269,144.6,269.3,145.2,269.3z"/>
			</g>
			<g>
				<path id="m6d51641fb5_00000138541225308282090700000001742388442414977169_" class="st1" d="M348.9,70.3c0.6,0,1.3-0.3,1.7-0.7
					s0.7-1.1,0.7-1.7c0-0.6-0.3-1.3-0.7-1.7s-1.1-0.7-1.7-0.7s-1.3,0.3-1.7,0.7s-0.7,1.1-0.7,1.7c0,0.6,0.3,1.3,0.7,1.7
					S348.3,70.3,348.9,70.3z"/>
			</g>
			<g>
				<path id="m6d51641fb5_00000005241902049419688820000001413571382106611342_" class="st1" d="M274.2,133.1c0.6,0,1.3-0.3,1.7-0.7
					c0.5-0.5,0.7-1.1,0.7-1.7s-0.3-1.3-0.7-1.7s-1.1-0.7-1.7-0.7s-1.3,0.3-1.7,0.7s-0.7,1.1-0.7,1.7s0.3,1.3,0.7,1.7
					C272.9,132.9,273.5,133.1,274.2,133.1z"/>
			</g>
			<g>
				<path id="m6d51641fb5_00000128452011408145684610000008476052441386545084_" class="st1" d="M304.3,98.9c0.6,0,1.3-0.3,1.7-0.7
					s0.7-1.1,0.7-1.7c0-0.6-0.3-1.3-0.7-1.7S305,94,304.3,94s-1.3,0.3-1.7,0.7s-0.7,1.1-0.7,1.7c0,0.6,0.3,1.3,0.7,1.7
					S303.7,98.9,304.3,98.9z"/>
			</g>
			<g>
				<path id="m6d51641fb5_00000157990649064582216640000014292001533786750858_" class="st1" d="M166.3,242.1c0.6,0,1.3-0.3,1.7-0.7
					c0.5-0.5,0.7-1.1,0.7-1.7s-0.3-1.3-0.7-1.7c-0.5-0.5-1.1-0.7-1.7-0.7s-1.3,0.3-1.7,0.7c-0.5,0.5-0.7,1.1-0.7,1.7
					s0.3,1.3,0.7,1.7C165,241.9,165.6,242.1,166.3,242.1z"/>
			</g>
		</g>
	</g>
</g>
<g id="matplotlib.axis_1">
	<g id="xtick_1">
		<g id="line2d_1">
			<g>
				<g>
					<path id="m0f377dc4cf" class="st2" d="M109.5,312.7v3.5"/>
				</g>
			</g>
		</g>
		<g id="text_1">
			<text transform="matrix(1 0 0 1 99.1356 330.3668)" class="st3 st4">0.0</text>
		</g>
	</g>
	<g id="xtick_2">
		<g id="line2d_2">
			<g>
				<g>
					<path id="m0f377dc4cf_00000003793519818103713850000001675912430302190244_" class="st2" d="M157.9,312.7v3.5"/>
				</g>
			</g>
		</g>
		<g id="text_2">
			<text transform="matrix(1 0 0 1 147.4919 330.3668)" class="st3 st4">0.1</text>
		</g>
	</g>
	<g id="xtick_3">
		<g id="line2d_3">
			<g>
				<g>
					<path id="m0f377dc4cf_00000054979811261638349560000010451936747696657060_" class="st2" d="M206.2,312.7v3.5"/>
				</g>
			</g>
		</g>
		<g id="text_3">
			<text transform="matrix(1 0 0 1 195.8483 330.3668)" class="st3 st4">0.2</text>
		</g>
	</g>
	<g id="xtick_4">
		<g id="line2d_4">
			<g>
				<g>
					<path id="m0f377dc4cf_00000154400272740369687930000002647114485768112542_" class="st2" d="M254.6,312.7v3.5"/>
				</g>
			</g>
		</g>
		<g id="text_4">
			<text transform="matrix(1 0 0 1 244.2047 330.3668)" class="st3 st4">0.3</text>
		</g>
	</g>
	<g id="xtick_5">
		<g id="line2d_5">
			<g>
				<g>
					<path id="m0f377dc4cf_00000060014267695244294340000003810562230096816563_" class="st2" d="M302.9,312.7v3.5"/>
				</g>
			</g>
		</g>
		<g id="text_5">
			<text transform="matrix(1 0 0 1 292.561 330.3668)" class="st3 st4">0.4</text>
		</g>
	</g>
	<g id="xtick_6">
		<g id="line2d_6">
			<g>
				<g>
					<path id="m0f377dc4cf_00000172412318401147637340000016124485319908366979_" class="st2" d="M351.3,312.7v3.5"/>
				</g>
			</g>
		</g>
		<g id="text_6">
			<text transform="matrix(1 0 0 1 340.9174 330.3668)" class="st3 st4">0.5</text>
		</g>
	</g>
	<g id="text_7">
		<text transform="matrix(1 0 0 1 193.8883 349.4358)" class="st3 st5">True FDR</text>
	</g>
</g>
<g id="matplotlib.axis_2">
	<g id="ytick_1">
		<g id="line2d_7">
			<g>
				<g>
					<path id="me9a4e140e9" class="st2" d="M97.4,300.6h-3.5"/>
				</g>
			</g>
		</g>
		<g id="text_8">
			<text transform="matrix(1 0 0 1 69.6729 305.9587)" class="st3 st4">0.0</text>
		</g>
	</g>
	<g id="ytick_2">
		<g id="line2d_8">
			<g>
				<g>
					<path id="me9a4e140e9_00000005970852724283299670000009036224498218235800_" class="st2" d="M97.4,252.3h-3.5"/>
				</g>
			</g>
		</g>
		<g id="text_9">
			<text transform="matrix(1 0 0 1 69.6729 257.6024)" class="st3 st4">0.1</text>
		</g>
	</g>
	<g id="ytick_3">
		<g id="line2d_9">
			<g>
				<g>
					<path id="me9a4e140e9_00000065778110232431627800000002943945825334384313_" class="st2" d="M97.4,203.9h-3.5"/>
				</g>
			</g>
		</g>
		<g id="text_10">
			<text transform="matrix(1 0 0 1 69.6729 209.246)" class="st3 st4">0.2</text>
		</g>
	</g>
	<g id="ytick_4">
		<g id="line2d_10">
			<g>
				<g>
					<path id="me9a4e140e9_00000026859371478604130340000013697417866748707995_" class="st2" d="M97.4,155.6h-3.5"/>
				</g>
			</g>
		</g>
		<g id="text_11">
			<text transform="matrix(1 0 0 1 69.6729 160.8896)" class="st3 st4">0.3</text>
		</g>
	</g>
	<g id="ytick_5">
		<g id="line2d_11">
			<g>
				<g>
					<path id="me9a4e140e9_00000082359797099173724400000001139509698845111987_" class="st2" d="M97.4,107.2h-3.5"/>
				</g>
			</g>
		</g>
		<g id="text_12">
			<text transform="matrix(1 0 0 1 69.6729 112.5333)" class="st3 st4">0.4</text>
		</g>
	</g>
	<g id="ytick_6">
		<g id="line2d_12">
			<g>
				<g>
					<path id="me9a4e140e9_00000114795295170485787030000004083917821333831086_" class="st2" d="M97.4,58.9h-3.5"/>
				</g>
			</g>
		</g>
		<g id="text_13">
			<text transform="matrix(1 0 0 1 69.6729 64.1769)" class="st3 st4">0.5</text>
		</g>
	</g>
	<g id="text_14">
		<text transform="matrix(6.123234e-17 -1 1 6.123234e-17 60.8281 234.6475)" class="st3 st5">Predicted FDR</text>
	</g>
</g>
<g id="line2d_13">
	<g>
		<defs>
			<rect id="SVGID_00000158029375854984776510000008946143323147782547_" x="97.4" y="46.8" width="266" height="266"/>
		</defs>
		<clipPath id="SVGID_00000018217851243747510660000012029540159020568717_">
			<use xlink:href="#SVGID_00000158029375854984776510000008946143323147782547_"  style="overflow:visible;"/>
		</clipPath>
		
			<path style="clip-path:url(#SVGID_00000018217851243747510660000012029540159020568717_);fill:none;stroke:#000000;stroke-width:2;stroke-linejoin:round;stroke-dasharray:7.4,3.2;" d="
			M109.5,300.6L351.3,58.9"/>
	</g>
</g>
<g id="line2d_14">
	<g>
		<defs>
			<rect id="SVGID_00000113330671561727391000000004329282438348799662_" x="97.4" y="46.8" width="266" height="266"/>
		</defs>
		<clipPath id="SVGID_00000050632587434166025830000006746029571406317718_">
			<use xlink:href="#SVGID_00000113330671561727391000000004329282438348799662_"  style="overflow:visible;"/>
		</clipPath>
		
			<path style="clip-path:url(#SVGID_00000050632587434166025830000006746029571406317718_);fill:none;stroke:#000000;stroke-width:2;stroke-linecap:square;stroke-linejoin:round;" d="
			M109.5,294.9L351.3,52.5"/>
	</g>
</g>
<g id="patch_3">
	<path class="st8" d="M97.4,312.7v-266"/>
</g>
<g id="patch_4">
	<path class="st8" d="M363.4,312.7v-266"/>
</g>
<g id="patch_5">
	<path class="st8" d="M97.4,312.7h266"/>
</g>
<g id="patch_6">
	<path class="st8" d="M97.4,46.8h266"/>
</g>
<g id="text_15">
	<g transform="translate(254.578182 234.194545)">
		<text transform="matrix(1 0 0 1 0 17.5265)" class="st9 st5">R</text>
		<text transform="matrix(1 0 0 1 11.5547 17.5265)" class="st9 st10"> </text>
		<text transform="matrix(1 0 0 1 12.2408 11.4015)" class="st9 st11">2</text>
		<text transform="matrix(1 0 0 1 18.4697 11.4015)" class="st9 st10"> </text>
		<text transform="matrix(1 0 0 1 19.8041 17.5265)" class="st9 st5"> </text>
		<text transform="matrix(1 0 0 1 24.8901 17.5265)" class="st9 st5">=</text>
		<text transform="matrix(1 0 0 1 38.2963 17.5265)" class="st9 st5"> </text>
		<text transform="matrix(1 0 0 1 43.3823 17.5265)" class="st9 st5">0</text>
		<text transform="matrix(1 0 0 1 53.562 17.5265)" class="st9 st5">.</text>
		<text transform="matrix(1 0 0 1 58.6479 17.5265)" class="st9 st5">9</text>
		<text transform="matrix(1 0 0 1 68.8276 17.5265)" class="st9 st5">8</text>
	</g>
</g>
<g id="text_16">
	<text transform="matrix(1 0 0 1 128.986 40.769)" class="st3 st5">CV2_gamma1_05-14-2024</text>
</g>
</svg>
