<?xml version="1.0" encoding="utf-8"?>
<!-- Generator: Adobe Illustrator 28.0.0, SVG Export Plug-In . SVG Version: 6.00 Build 0)  -->
<svg version="1.1" id="Layer_1" xmlns="http://www.w3.org/2000/svg" xmlns:xlink="http://www.w3.org/1999/xlink" x="0px" y="0px"
	 viewBox="0 0 460.8 345.6" style="enable-background:new 0 0 460.8 345.6;" xml:space="preserve">
<style type="text/css">
	.st0{stroke:#000000;stroke-width:0.8;stroke-linejoin:round;}
	.st1{font-family:'ArialMT';}
	.st2{font-size:8px;}
	
		.st3{clip-path:url(#SVGID_00000151501179324300518530000013146491330081082021_);fill:none;stroke:#FF0000;stroke-width:2;stroke-linecap:square;stroke-linejoin:round;stroke-opacity:0.6;}
	
		.st4{clip-path:url(#SVGID_00000102511891907949226900000005749083946924819346_);fill:none;stroke:#0000FF;stroke-width:2;stroke-linecap:square;stroke-linejoin:round;stroke-opacity:0.6;}
	
		.st5{clip-path:url(#SVGID_00000054964534273304084910000008485417164219338152_);fill:none;stroke:#008000;stroke-width:2;stroke-linecap:square;stroke-linejoin:round;stroke-opacity:0.6;}
	.st6{fill:none;stroke:#000000;stroke-width:0.8;stroke-linecap:square;}
</style>
<g id="matplotlib.axis_1">
	<g id="xtick_1">
		<g id="line2d_1">
			<g>
				<g>
					<path id="mf6ba50c212" class="st0" d="M34,319.5v3.5"/>
				</g>
			</g>
		</g>
		<g id="text_1">
			<text transform="matrix(1 0 0 1 27.5935 333.3586)" class="st1 st2">0.0</text>
		</g>
	</g>
	<g id="xtick_2">
		<g id="text_2">
		</g>
	</g>
	<g id="xtick_3">
		<g id="line2d_3">
			<g>
				<g>
					<path id="mf6ba50c212_00000160907671143631263850000002646747968549120166_" class="st0" d="M173,319.5v3.5"/>
				</g>
			</g>
		</g>
		<g id="text_3">
			<text transform="matrix(1 0 0 1 166.6202 333.3586)" class="st1 st2">0.1</text>
		</g>
	</g>
	<g id="xtick_4">
		<g id="text_4">
		</g>
	</g>
	<g id="xtick_5">
		<g id="line2d_5">
			<g>
				<g>
					<path id="mf6ba50c212_00000096050378691029140600000011235209029775418038_" class="st0" d="M312.1,319.5v3.5"/>
				</g>
			</g>
		</g>
		<g id="text_5">
			<text transform="matrix(1 0 0 1 305.6469 333.3586)" class="st1 st2">0.2</text>
		</g>
	</g>
	<g id="xtick_6">
		<g id="text_6">
		</g>
	</g>
	<g id="xtick_7">
		<g id="line2d_7">
			<g>
				<g>
					<path id="mf6ba50c212_00000026151728923183955770000006454543119830414725_" class="st0" d="M451.1,319.5v3.5"/>
				</g>
			</g>
		</g>
		<g id="text_7">
			<text transform="matrix(1 0 0 1 444.6735 333.3586)" class="st1 st2">0.3</text>
		</g>
	</g>
</g>
<g id="line2d_14">
	<g>
		<defs>
			<rect id="SVGID_1_" x="34" y="9.7" width="417.1" height="309.8"/>
		</defs>
		<clipPath id="SVGID_00000098919391622696321540000013536256702472676542_">
			<use xlink:href="#SVGID_1_"  style="overflow:visible;"/>
		</clipPath>
		
			<path style="clip-path:url(#SVGID_00000098919391622696321540000013536256702472676542_);fill:none;stroke:#FF0000;stroke-width:2;stroke-linecap:square;stroke-linejoin:round;stroke-opacity:0.6;" d="
			M34,319.5l7.2-0.1l2.1-0.3l2.1-0.5l2.1-0.8l1.7-0.8l1.7-1l2.1-1.6l2.1-1.9l2.1-2.2l2.1-2.5l2.5-3.4l2.5-3.7l2.9-4.8l3.3-5.9
			l4.2-7.8l7.1-13.8l7.1-13.7l4.6-8.4l3.8-6.4l3.3-5.3l3.3-4.9l2.9-3.9l2.9-3.6l2.9-3.2l2.9-2.9l2.5-2.2l2.5-1.9l2.5-1.6l2.5-1.4
			l2.5-1.1l2.5-0.9l2.5-0.6l2.5-0.4l2.5-0.2l2.5,0l2.5,0.2l2.9,0.5l2.9,0.7l2.9,1l3.3,1.4l3.3,1.6l3.8,2.1l4.2,2.6l4.6,3.1l5,3.7
			l5.8,4.6l7.5,6.2l30.1,25.2l7.5,5.8l6.7,4.9l6.7,4.6l6.3,4.1l6.3,3.8l6.3,3.6l6.3,3.3l6.3,3l6.3,2.8l6.3,2.6l6.7,2.5l6.7,2.2
			l7.1,2.1l7.1,1.9l7.5,1.8l7.9,1.7l8.3,1.5l8.8,1.4l9.6,1.3l10.4,1.2l11.3,1l12.5,0.9l13.8,0.8l15.9,0.6l18.8,0.5l14.6,0.3l0,0"/>
	</g>
</g>
<g id="line2d_15">
	<g>
		<defs>
			<rect id="SVGID_00000102504155325947005790000000408713506936585403_" x="34" y="9.7" width="417.1" height="309.8"/>
		</defs>
		<clipPath id="SVGID_00000142882900328428578470000017994786381268208045_">
			<use xlink:href="#SVGID_00000102504155325947005790000000408713506936585403_"  style="overflow:visible;"/>
		</clipPath>
		
			<path style="clip-path:url(#SVGID_00000142882900328428578470000017994786381268208045_);fill:none;stroke:#0000FF;stroke-width:2;stroke-linecap:square;stroke-linejoin:round;stroke-opacity:0.6;" d="
			M34,319.5h3.5l0-127.1l6.7,6.1l6.7,5.8l6.7,5.5l7.1,5.6l7.1,5.3l7.1,5l7.5,5.1l7.5,4.8l7.5,4.5l7.9,4.5l7.9,4.3l8.3,4.2l8.3,4
			l8.8,3.9l8.8,3.7l9.2,3.6l9.2,3.4l9.6,3.3l10,3.2l10.4,3.1l10.9,3l11.3,2.8l11.7,2.7l12.1,2.6l12.5,2.4l12.9,2.3l13.8,2.2
			l14.6,2.1l15.4,2l16.3,1.9l17.1,1.7l18.4,1.6l19.6,1.5l21.3,1.4l23,1.3l20.5,1l0,0"/>
	</g>
</g>
<g id="line2d_16">
	<g>
		<defs>
			<rect id="SVGID_00000008846617999682595670000007501700949964836763_" x="34" y="9.7" width="417.1" height="309.8"/>
		</defs>
		<clipPath id="SVGID_00000125601774804644179810000006271105992095201423_">
			<use xlink:href="#SVGID_00000008846617999682595670000007501700949964836763_"  style="overflow:visible;"/>
		</clipPath>
		
			<path style="clip-path:url(#SVGID_00000125601774804644179810000006271105992095201423_);fill:none;stroke:#008000;stroke-width:2;stroke-linecap:square;stroke-linejoin:round;stroke-opacity:0.6;" d="
			M34,319.5h3.5L37.5-1 M41.9-1l0.6,29.2l0.8,32.2l0.8,25.1l0.8,20.1l1.3,23.8l1.3,18.5l1.3,14.9L50,175l1.3,10.3l1.3,8.8l1.7,9.9
			l1.7,8.3l1.7,7.1l1.7,6.1l1.7,5.4l1.7,4.7l2.1,5.2l2.1,4.5l2.1,4l2.1,3.6l2.5,3.8l2.5,3.4l2.5,3l2.9,3.1l2.9,2.8l2.9,2.5l3.3,2.6
			l3.3,2.3l3.8,2.3l4.2,2.3l4.2,2.1l4.6,2l5,2l5.4,1.9l5.8,1.8l6.7,1.8l7.1,1.7l7.9,1.7l8.8,1.7l9.6,1.6l10.9,1.6l12.1,1.5l13.4,1.4
			l15,1.4l17.1,1.4l19.2,1.3l21.7,1.2l24.6,1.2l28.4,1.1l32.6,1.1l37.6,1l43.8,0.9l7.9,0.1l0,0"/>
	</g>
</g>
<g id="patch_3">
	<path class="st6" d="M34,319.5V9.7"/>
</g>
<g id="patch_5">
	<path class="st6" d="M34,319.5h417.1"/>
</g>
</svg>
