<?xml version="1.0" encoding="utf-8"?>
<!-- Generator: Adobe Illustrator 28.0.0, SVG Export Plug-In . SVG Version: 6.00 Build 0)  -->
<svg version="1.1" id="Layer_1" xmlns="http://www.w3.org/2000/svg" xmlns:xlink="http://www.w3.org/1999/xlink" x="0px" y="0px"
	 viewBox="0 0 460.8 345.6" style="enable-background:new 0 0 460.8 345.6;" xml:space="preserve">
<style type="text/css">
	.st0{stroke:#000000;stroke-width:0.8;stroke-linejoin:round;}
	.st1{font-family:'LucidaBright';}
	.st2{font-size:9px;}
	
		.st3{clip-path:url(#SVGID_00000150797904268867827100000013194968655586241929_);fill:none;stroke:#FF0000;stroke-width:2;stroke-linecap:square;stroke-linejoin:round;stroke-opacity:0.6;}
	
		.st4{clip-path:url(#SVGID_00000181808792680923172760000005217571605621372583_);fill:none;stroke:#0000FF;stroke-width:2;stroke-linecap:square;stroke-linejoin:round;stroke-opacity:0.6;}
	
		.st5{clip-path:url(#SVGID_00000173139551361647488780000001944300880187084735_);fill:none;stroke:#008000;stroke-width:2;stroke-linecap:square;stroke-linejoin:round;stroke-opacity:0.6;}
	.st6{fill:none;stroke:#000000;stroke-width:0.8;stroke-linecap:square;}
</style>
<g id="matplotlib.axis_1">
	<g id="xtick_1">
		<g id="line2d_1">
			<g>
				<g>
					<path id="m77f79dc210" class="st0" d="M28.2,319.5v3.5"/>
				</g>
			</g>
		</g>
		<g id="text_1">
			<text transform="matrix(1 0 0 1 18.8335 333.3586)" class="st1 st2">0.00</text>
		</g>
	</g>
	<g id="xtick_2">
		<g id="line2d_2">
			<g>
				<g>
					<path id="m77f79dc210_00000145768410734303711970000005757413150060784000_" class="st0" d="M98.7,319.5v3.5"/>
				</g>
			</g>
		</g>
		<g id="text_2">
			<text transform="matrix(1 0 0 1 89.3068 333.3586)" class="st1 st2">0.05</text>
		</g>
	</g>
	<g id="xtick_3">
		<g id="line2d_3">
			<g>
				<g>
					<path id="m77f79dc210_00000030453105551498267230000003799266514280169654_" class="st0" d="M169.2,319.5v3.5"/>
				</g>
			</g>
		</g>
		<g id="text_3">
			<text transform="matrix(1 0 0 1 159.7802 333.3586)" class="st1 st2">0.10</text>
		</g>
	</g>
	<g id="xtick_4">
		<g id="line2d_4">
			<g>
				<g>
					<path id="m77f79dc210_00000116954501545150375930000013816786818911274668_" class="st0" d="M239.7,319.5v3.5"/>
				</g>
			</g>
		</g>
		<g id="text_4">
			<text transform="matrix(1 0 0 1 230.2535 333.3586)" class="st1 st2">0.15</text>
		</g>
	</g>
	<g id="xtick_5">
		<g id="line2d_5">
			<g>
				<g>
					<path id="m77f79dc210_00000164496730620896508910000010685317120626986625_" class="st0" d="M310.1,319.5v3.5"/>
				</g>
			</g>
		</g>
		<g id="text_5">
			<text transform="matrix(1 0 0 1 300.7268 333.3586)" class="st1 st2">0.20</text>
		</g>
	</g>
	<g id="xtick_6">
		<g id="line2d_6">
			<g>
				<g>
					<path id="m77f79dc210_00000001625367899088101330000013203923060435791502_" class="st0" d="M380.6,319.5v3.5"/>
				</g>
			</g>
		</g>
		<g id="text_6">
			<text transform="matrix(1 0 0 1 371.2002 333.3586)" class="st1 st2">0.25</text>
		</g>
	</g>
	<g id="xtick_7">
		<g id="line2d_7">
			<g>
				<g>
					<path id="m77f79dc210_00000003802980339389777990000002626850789992412033_" class="st0" d="M451.1,319.5v3.5"/>
				</g>
			</g>
		</g>
		<g id="text_7">
			<text transform="matrix(1 0 0 1 441.6735 333.3586)" class="st1 st2">0.30</text>
		</g>
	</g>
</g>
<g id="matplotlib.axis_2">
	<g id="ytick_1">
		<g id="line2d_8">
			<g>
				<g>
					<path id="m21012930ce" class="st0" d="M28.2,319.5h-3.5"/>
				</g>
			</g>
		</g>
		<g id="text_8">
			<text transform="matrix(1 0 0 1 15.7644 322.9393)" class="st1 st2">0</text>
		</g>
	</g>
	<g id="ytick_2">
		<g id="line2d_9">
			<g>
				<g>
					<path id="m21012930ce_00000121239015156671498330000009290386843519241867_" class="st0" d="M28.2,257.6h-3.5"/>
				</g>
			</g>
		</g>
		<g id="text_9">
			<text transform="matrix(1 0 0 1 15.7644 261.0597)" class="st1 st2">5</text>
		</g>
	</g>
	<g id="ytick_3">
		<g id="line2d_10">
			<g>
				<g>
					<path id="m21012930ce_00000103255204389244059700000011966584704212085668_" class="st0" d="M28.2,195.8h-3.5"/>
				</g>
			</g>
		</g>
		<g id="text_10">
			<text transform="matrix(1 0 0 1 10.2888 199.1801)" class="st1 st2">10</text>
		</g>
	</g>
	<g id="ytick_4">
		<g id="line2d_11">
			<g>
				<g>
					<path id="m21012930ce_00000111874150854618274900000010486296690285065603_" class="st0" d="M28.2,133.9h-3.5"/>
				</g>
			</g>
		</g>
		<g id="text_11">
			<text transform="matrix(1 0 0 1 10.2888 137.3005)" class="st1 st2">15</text>
		</g>
	</g>
	<g id="ytick_5">
		<g id="line2d_12">
			<g>
				<g>
					<path id="m21012930ce_00000082364739447019105900000015912284834922243221_" class="st0" d="M28.2,72h-3.5"/>
				</g>
			</g>
		</g>
		<g id="text_12">
			<text transform="matrix(1 0 0 1 10.2888 75.4209)" class="st1 st2">20</text>
		</g>
	</g>
	<g id="ytick_6">
		<g id="line2d_13">
			<g>
				<g>
					<path id="m21012930ce_00000067206174741329620650000012225100939697246882_" class="st0" d="M28.2,10.1h-3.5"/>
				</g>
			</g>
		</g>
		<g id="text_13">
			<text transform="matrix(1 0 0 1 10.2888 13.5413)" class="st1 st2">25</text>
		</g>
	</g>
</g>
<g id="line2d_14">
	<g>
		<defs>
			<rect id="SVGID_1_" x="28.2" y="10.1" width="422.8" height="309.4"/>
		</defs>
		<clipPath id="SVGID_00000106123578593292431640000015051936172565257613_">
			<use xlink:href="#SVGID_1_"  style="overflow:visible;"/>
		</clipPath>
		
			<path style="clip-path:url(#SVGID_00000106123578593292431640000015051936172565257613_);fill:none;stroke:#FF0000;stroke-width:2;stroke-linecap:square;stroke-linejoin:round;stroke-opacity:0.6;" d="
			M28.2,319.5l27.2-0.1l2.5-0.2l1.7-0.3l1.7-0.6l1.7-0.8l1.3-0.9l1.3-1.1l1.3-1.3l1.3-1.6l1.7-2.5l1.7-3l1.7-3.4l2.1-4.9l2.1-5.5
			l2.5-7.2l3-9.1l5.1-16.5l5.5-17.7l3.4-10.2l3-8.3l2.5-6.5l2.5-5.9l2.5-5.3l2.1-3.9l2.1-3.5l2.1-3.1l2.1-2.6l2.1-2.2l1.7-1.5
			l1.7-1.2l1.7-1l1.7-0.8l1.7-0.6l1.7-0.3l1.7-0.2l1.7,0l2.1,0.3l2.1,0.5l2.1,0.8l2.1,1l2.5,1.4l2.5,1.7l3,2.2l3.4,2.8l3.8,3.5
			l4.2,4.2l5.5,5.8l8,8.8l14,15.3l7.2,7.5l6.3,6.3l5.9,5.6l5.9,5.3l5.5,4.6l5.5,4.3l5.5,4.1l5.5,3.8l5.5,3.5l5.5,3.3l5.9,3.3l5.9,3
			l5.9,2.8l6.3,2.7l6.3,2.5l6.8,2.4l6.8,2.1l7.2,2l7.6,1.9l8,1.8l8.5,1.6l8.9,1.5l9.7,1.4l10.6,1.3l11.4,1.2l12.3,1l14,1l15.7,0.8
			l17.8,0.7l20.7,0.6l9.3,0.2l0,0"/>
	</g>
</g>
<g id="line2d_15">
	<g>
		<defs>
			<rect id="SVGID_00000094598852947498839380000014640705097666298021_" x="28.2" y="10.1" width="422.8" height="309.4"/>
		</defs>
		<clipPath id="SVGID_00000048470568226244936300000000576363192873002112_">
			<use xlink:href="#SVGID_00000094598852947498839380000014640705097666298021_"  style="overflow:visible;"/>
		</clipPath>
		
			<path style="clip-path:url(#SVGID_00000048470568226244936300000000576363192873002112_);fill:none;stroke:#0000FF;stroke-width:2;stroke-linecap:square;stroke-linejoin:round;stroke-opacity:0.6;" d="
			M28.2,319.5l12.8-0.1l0.8-0.3l0.8-0.7l0.8-1.3l0.8-2l0.8-2.8l0.8-3.6l1.3-6.8l1.3-8.1l2.1-15.4L55,247l2.1-14l1.7-9.8l1.7-8.6
			l1.7-7.3l1.7-6.1l1.3-3.9l1.3-3.3l1.3-2.8L69,189l1.3-1.8l1.3-1.4l1.3-1.1l1.3-0.7l1.3-0.4l1.3-0.2l1.3,0.1l1.3,0.3l1.7,0.6
			l1.7,0.9l1.7,1.2l2.1,1.7l2.5,2.4l3,3.1l3.8,4.3l5.9,7.1l11,13.2l5.9,6.8l5.5,5.9l5.1,5.2l5.1,4.9l5.1,4.5l5.1,4.3l5.1,4l5.5,4
			l5.5,3.7l5.5,3.5l5.9,3.4l5.9,3.2l6.3,3.1l6.3,2.9l6.8,2.8l7.2,2.8l7.2,2.5l7.6,2.4l8,2.3l8.5,2.2l8.9,2.1l9.7,2.1l10.2,2l11,1.9
			l11.9,1.8l12.7,1.7l13.5,1.6l14.8,1.5l16.1,1.4l17.8,1.4l19.5,1.3l21.6,1.2l24.1,1.1l23.7,0.9l0,0"/>
	</g>
</g>
<g id="line2d_16">
	<g>
		<defs>
			<rect id="SVGID_00000078037432134593574050000011525714408211142844_" x="28.2" y="10.1" width="422.8" height="309.4"/>
		</defs>
		<clipPath id="SVGID_00000096748474070431624800000013434035095070784147_">
			<use xlink:href="#SVGID_00000078037432134593574050000011525714408211142844_"  style="overflow:visible;"/>
		</clipPath>
		
			<path style="clip-path:url(#SVGID_00000096748474070431624800000013434035095070784147_);fill:none;stroke:#008000;stroke-width:2;stroke-linecap:square;stroke-linejoin:round;stroke-opacity:0.6;" d="
			M28.2,319.5l8.2,0l0.4-0.4l0.4-2.8l0.4-7.8l0.4-14.2l0.8-43.8l2.1-123.4l0.8-36.4l0.8-27.1l0.8-19.1l0.8-12.5l0.4-4.2l0.4-3.1
			l0.4-2.1l0.4-1.2l0.4-0.5l0.4,0.2l0.4,0.7l0.4,1.2l0.8,3.6l0.8,4.8l1.3,8.7l2.1,16.5L58,97.1l2.5,18.2l2.5,16.4l2.1,12.4l2.1,11.3
			l2.1,10.3l2.1,9.4l2.5,10.2l2.5,9.1l2.5,8.2l2.5,7.4l2.5,6.7l2.5,6.1l2.5,5.5l2.5,5.1l3,5.4l3,4.9l3,4.4l3,4l3,3.7l3.4,3.8
			l3.4,3.5l3.4,3.2l3.8,3.2l3.8,2.9l3.8,2.7l4.2,2.7l4.2,2.5l4.7,2.5l5.1,2.4l5.5,2.3l5.5,2.1l5.9,2l6.3,2l7.2,2l7.6,1.8l8,1.7
			l8.9,1.7l9.7,1.6l10.6,1.5l11.9,1.5l13.1,1.4l14.4,1.3l16.1,1.2l18.2,1.2l20.7,1.1l23.7,1l27.1,1l31.7,0.9l37.2,0.8l15.2,0.3l0,0"
			/>
	</g>
</g>
<g id="patch_3">
	<path class="st6" d="M28.2,319.5V10.1"/>
</g>
<g id="patch_4">
	<path class="st6" d="M451.1,319.5V10.1"/>
</g>
<g id="patch_5">
	<path class="st6" d="M28.2,319.5h422.8"/>
</g>
<g id="patch_6">
	<path class="st6" d="M28.2,10.1h422.8"/>
</g>
</svg>
